<?xml version="1.0" encoding="UTF-8" standalone="no"?>
<!DOCTYPE svg PUBLIC "-//W3C//DTD SVG 1.1//EN"
 "http://www.w3.org/Graphics/SVG/1.1/DTD/svg11.dtd">
<!-- Generated by graphviz version 13.1.2 (20250808.2320)
 -->
<!-- Title: spdk_nvmf_ctrlr_migr_data Pages: 1 -->
<!--zoomable 776 -->

<svg id="main" version="1.1" xmlns="http://www.w3.org/2000/svg" xmlns:xlink="http://www.w3.org/1999/xlink" xml:space="preserve" onload="init(evt)">

<style type="text/css"><![CDATA[
.node, .edge {opacity: 0.7;}
.node.selected, .edge.selected {opacity: 1;}
.edge:hover path { stroke: red; }
.edge:hover polygon { stroke: red; fill: red; }
]]></style>

<defs>
  <circle id="rim" cx="0" cy="0" r="7"/>
  <circle id="rim2" cx="0" cy="0" r="3.5"/>
  <g id="zoomPlus">
    <use xlink:href="#rim" fill="#404040"><set attributeName="fill" to="#808080" begin="zoomplus.mouseover" end="zoomplus.mouseout"/></use>
    <path d="M-4,0h8M0,-4v8" fill="none" stroke="white" stroke-width="1.5" pointer-events="none"/>
  </g>
  <g id="zoomMin">
    <use xlink:href="#rim" fill="#404040"><set attributeName="fill" to="#808080" begin="zoomminus.mouseover" end="zoomminus.mouseout"/></use>
    <path d="M-4,0h8" fill="none" stroke="white" stroke-width="1.5" pointer-events="none"/>
  </g>
  <g id="arrowUp" transform="translate(30 24)">
    <use xlink:href="#rim"/>
    <path pointer-events="none" fill="none" stroke="white" stroke-width="1.5" d="M0,-3.0v7 M-2.5,-0.5L0,-3.0L2.5,-0.5"/>
  </g>
  <g id="arrowRight" transform="rotate(90) translate(36 -43)">
    <use xlink:href="#rim"/>
    <path pointer-events="none" fill="none" stroke="white" stroke-width="1.5" d="M0,-3.0v7 M-2.5,-0.5L0,-3.0L2.5,-0.5"/>
  </g>
  <g id="arrowDown" transform="rotate(180) translate(-30 -48)">
    <use xlink:href="#rim"/>
    <path pointer-events="none" fill="none" stroke="white" stroke-width="1.5" d="M0,-3.0v7 M-2.5,-0.5L0,-3.0L2.5,-0.5"/>
  </g>
  <g id="arrowLeft" transform="rotate(270) translate(-36 17)">
    <use xlink:href="#rim"/>
    <path pointer-events="none" fill="none" stroke="white" stroke-width="1.5" d="M0,-3.0v7 M-2.5,-0.5L0,-3.0L2.5,-0.5"/>
  </g>
  <g id="resetDef">
    <use xlink:href="#rim2" fill="#404040"><set attributeName="fill" to="#808080" begin="reset.mouseover" end="reset.mouseout"/></use>
  </g>
</defs>
<script type="application/ecmascript">
var viewWidth = 748;
var viewHeight = 776;
var sectionId = 'dynsection-0';
</script>
<script type="application/ecmascript" xlink:href="svg.min.js"/>
<svg id="graph" class="graph">
<g id="viewport">
<title>spdk_nvmf_ctrlr_migr_data</title>
<!-- Node1 -->
<g id="Node000001" class="node">
<title>Node1</title>
<g id="a_Node000001"><a xlink:title=" ">
<polygon fill="#999999" stroke="#666666" points="739.5,-301.27 590,-301.27 590,-280.52 739.5,-280.52 739.5,-301.27"/>
<text xml:space="preserve" text-anchor="middle" x="664.75" y="-287.77" font-family="Helvetica,sans-Serif" font-size="10.00">spdk_nvmf_ctrlr_migr_data</text>
</a>
</g>
</g>
<!-- Node2 -->
<g id="Node000002" class="node">
<title>Node2</title>
<g id="a_Node000002"><a xlink:href="structspdk__nvmf__registers.html" target="_top" xlink:title="A subset of struct spdk_nvme_registers that are emulated by a fabrics device.">
<polygon fill="white" stroke="#666666" points="470.75,-626.27 352.75,-626.27 352.75,-605.52 470.75,-605.52 470.75,-626.27"/>
<text xml:space="preserve" text-anchor="middle" x="411.75" y="-612.77" font-family="Helvetica,sans-Serif" font-size="10.00">spdk_nvmf_registers</text>
</a>
</g>
</g>
<!-- Node2&#45;&gt;Node1 -->
<g id="edge1_Node000001_Node000002" class="edge">
<title>Node2&#45;&gt;Node1</title>
<g id="a_edge1_Node000001_Node000002"><a xlink:title=" ">
<path fill="none" stroke="#9a32cd" stroke-dasharray="5,2" d="M428.11,-596.01C475.61,-534.51 619.13,-348.67 655.37,-301.75"/>
<polygon fill="#9a32cd" stroke="#9a32cd" points="425.37,-593.83 422.03,-603.88 430.91,-598.11 425.37,-593.83"/>
</a>
</g>
<text xml:space="preserve" text-anchor="start" x="525.12" y="-507.74" font-family="Helvetica,sans-Serif" font-size="10.00" fill="grey">regs</text>
</g>
<!-- Node3 -->
<g id="Node000003" class="node">
<title>Node3</title>
<g id="a_Node000003"><a xlink:href="unionspdk__nvme__cap__register.html" target="_top" xlink:title=" ">
<polygon fill="white" stroke="#bfbfbf" points="145.38,-752.27 7.88,-752.27 7.88,-731.52 145.38,-731.52 145.38,-752.27"/>
<text xml:space="preserve" text-anchor="middle" x="76.62" y="-738.77" font-family="Helvetica,sans-Serif" font-size="10.00">spdk_nvme_cap_register</text>
</a>
</g>
</g>
<!-- Node3&#45;&gt;Node2 -->
<g id="edge2_Node000002_Node000003" class="edge">
<title>Node3&#45;&gt;Node2</title>
<g id="a_edge2_Node000002_Node000003"><a xlink:title=" ">
<path fill="none" stroke="#9a32cd" stroke-dasharray="5,2" d="M156.83,-748.94C207.44,-749.99 272.96,-744.74 324.25,-717.89 364.57,-696.79 393.85,-648.21 405.37,-626.6"/>
<polygon fill="#9a32cd" stroke="#9a32cd" points="157.23,-745.45 147.13,-748.64 157.02,-752.45 157.23,-745.45"/>
</a>
</g>
<text xml:space="preserve" text-anchor="start" x="239.12" y="-755.26" font-family="Helvetica,sans-Serif" font-size="10.00" fill="grey">cap</text>
</g>
<!-- Node4 -->
<g id="Node000004" class="node">
<title>Node4</title>
<g id="a_Node000004"><a xlink:href="unionspdk__nvme__vs__register.html" target="_top" xlink:title=" ">
<polygon fill="white" stroke="#bfbfbf" points="142.38,-710.27 10.88,-710.27 10.88,-689.52 142.38,-689.52 142.38,-710.27"/>
<text xml:space="preserve" text-anchor="middle" x="76.62" y="-696.77" font-family="Helvetica,sans-Serif" font-size="10.00">spdk_nvme_vs_register</text>
</a>
</g>
</g>
<!-- Node4&#45;&gt;Node2 -->
<g id="edge3_Node000002_Node000004" class="edge">
<title>Node4&#45;&gt;Node2</title>
<g id="a_edge3_Node000002_Node000004"><a xlink:title=" ">
<path fill="none" stroke="#9a32cd" stroke-dasharray="5,2" d="M154.05,-696.26C214.63,-692.62 293.96,-685.94 324.25,-674.89 354.13,-663.99 383.58,-640.42 399.23,-626.6"/>
<polygon fill="#9a32cd" stroke="#9a32cd" points="153.88,-692.77 144.1,-696.84 154.29,-699.76 153.88,-692.77"/>
</a>
</g>
<text xml:space="preserve" text-anchor="start" x="242.12" y="-701.18" font-family="Helvetica,sans-Serif" font-size="10.00" fill="grey">vs</text>
</g>
<!-- Node5 -->
<g id="Node000005" class="node">
<title>Node5</title>
<g id="a_Node000005"><a xlink:href="unionspdk__nvme__cc__register.html" target="_top" xlink:title=" ">
<polygon fill="white" stroke="#bfbfbf" points="142,-668.27 11.25,-668.27 11.25,-647.52 142,-647.52 142,-668.27"/>
<text xml:space="preserve" text-anchor="middle" x="76.62" y="-654.77" font-family="Helvetica,sans-Serif" font-size="10.00">spdk_nvme_cc_register</text>
</a>
</g>
</g>
<!-- Node5&#45;&gt;Node2 -->
<g id="edge4_Node000002_Node000005" class="edge">
<title>Node5&#45;&gt;Node2</title>
<g id="a_edge4_Node000002_Node000005"><a xlink:title=" ">
<path fill="none" stroke="#9a32cd" stroke-dasharray="5,2" d="M153.76,-653.83C202.68,-650.55 267.46,-644.95 324.25,-635.89 339.01,-633.54 355.01,-630.1 369.18,-626.73"/>
<polygon fill="#9a32cd" stroke="#9a32cd" points="153.58,-650.33 143.83,-654.48 154.03,-657.32 153.58,-650.33"/>
</a>
</g>
<text xml:space="preserve" text-anchor="start" x="242.5" y="-658.8" font-family="Helvetica,sans-Serif" font-size="10.00" fill="grey">cc</text>
</g>
<!-- Node6 -->
<g id="Node000006" class="node">
<title>Node6</title>
<g id="a_Node000006"><a xlink:href="unionspdk__nvme__csts__register.html" target="_top" xlink:title=" ">
<polygon fill="white" stroke="#bfbfbf" points="146.5,-626.27 6.75,-626.27 6.75,-605.52 146.5,-605.52 146.5,-626.27"/>
<text xml:space="preserve" text-anchor="middle" x="76.62" y="-612.77" font-family="Helvetica,sans-Serif" font-size="10.00">spdk_nvme_csts_register</text>
</a>
</g>
</g>
<!-- Node6&#45;&gt;Node2 -->
<g id="edge5_Node000002_Node000006" class="edge">
<title>Node6&#45;&gt;Node2</title>
<g id="a_edge5_Node000002_Node000006"><a xlink:title=" ">
<path fill="none" stroke="#9a32cd" stroke-dasharray="5,2" d="M157.97,-615.89C217.93,-615.89 298.48,-615.89 352.38,-615.89"/>
<polygon fill="#9a32cd" stroke="#9a32cd" points="158.16,-612.39 148.16,-615.89 158.16,-619.39 158.16,-612.39"/>
</a>
</g>
<text xml:space="preserve" text-anchor="start" x="238" y="-622.14" font-family="Helvetica,sans-Serif" font-size="10.00" fill="grey">csts</text>
</g>
<!-- Node7 -->
<g id="Node000007" class="node">
<title>Node7</title>
<g id="a_Node000007"><a xlink:href="unionspdk__nvme__aqa__register.html" target="_top" xlink:title=" ">
<polygon fill="white" stroke="#bfbfbf" points="145.75,-584.27 7.5,-584.27 7.5,-563.52 145.75,-563.52 145.75,-584.27"/>
<text xml:space="preserve" text-anchor="middle" x="76.62" y="-570.77" font-family="Helvetica,sans-Serif" font-size="10.00">spdk_nvme_aqa_register</text>
</a>
</g>
</g>
<!-- Node7&#45;&gt;Node2 -->
<g id="edge6_Node000002_Node000007" class="edge">
<title>Node7&#45;&gt;Node2</title>
<g id="a_edge6_Node000002_Node000007"><a xlink:title=" ">
<path fill="none" stroke="#9a32cd" stroke-dasharray="5,2" d="M157.44,-576.5C205.95,-578.98 268.97,-583.8 324.25,-593.14 341.24,-596.02 359.76,-600.68 375.29,-605.03"/>
<polygon fill="#9a32cd" stroke="#9a32cd" points="157.74,-573.01 147.58,-576.02 157.4,-580 157.74,-573.01"/>
</a>
</g>
<text xml:space="preserve" text-anchor="start" x="238.75" y="-599.39" font-family="Helvetica,sans-Serif" font-size="10.00" fill="grey">aqa</text>
</g>
<!-- Node8 -->
<g id="Node000008" class="node">
<title>Node8</title>
<g id="a_Node000008"><a xlink:href="unionspdk__nvme__crto__register.html" target="_top" xlink:title=" ">
<polygon fill="white" stroke="#bfbfbf" points="146.12,-542.27 7.12,-542.27 7.12,-521.52 146.12,-521.52 146.12,-542.27"/>
<text xml:space="preserve" text-anchor="middle" x="76.62" y="-528.77" font-family="Helvetica,sans-Serif" font-size="10.00">spdk_nvme_crto_register</text>
</a>
</g>
</g>
<!-- Node8&#45;&gt;Node2 -->
<g id="edge7_Node000002_Node000008" class="edge">
<title>Node8&#45;&gt;Node2</title>
<g id="a_edge7_Node000002_Node000008"><a xlink:title=" ">
<path fill="none" stroke="#9a32cd" stroke-dasharray="5,2" d="M157.74,-528.62C207.16,-529.12 271.05,-534.42 324.25,-554.14 354.87,-565.5 384.5,-590.67 399.87,-605.12"/>
<polygon fill="#9a32cd" stroke="#9a32cd" points="157.99,-525.12 147.98,-528.58 157.97,-532.12 157.99,-525.12"/>
</a>
</g>
<text xml:space="preserve" text-anchor="start" x="238.38" y="-560.39" font-family="Helvetica,sans-Serif" font-size="10.00" fill="grey">crto</text>
</g>
<!-- Node9 -->
<g id="Node000009" class="node">
<title>Node9</title>
<g id="a_Node000009"><a xlink:href="structspdk__nvmf__ctrlr__feat.html" target="_top" xlink:title=" ">
<polygon fill="white" stroke="#bfbfbf" points="471.5,-301.27 352,-301.27 352,-280.52 471.5,-280.52 471.5,-301.27"/>
<text xml:space="preserve" text-anchor="middle" x="411.75" y="-287.77" font-family="Helvetica,sans-Serif" font-size="10.00">spdk_nvmf_ctrlr_feat</text>
</a>
</g>
</g>
<!-- Node9&#45;&gt;Node1 -->
<g id="edge8_Node000001_Node000009" class="edge">
<title>Node9&#45;&gt;Node1</title>
<g id="a_edge8_Node000001_Node000009"><a xlink:title=" ">
<path fill="none" stroke="#9a32cd" stroke-dasharray="5,2" d="M483.37,-290.89C516.54,-290.89 556.1,-290.89 589.7,-290.89"/>
<polygon fill="#9a32cd" stroke="#9a32cd" points="483.43,-287.39 473.43,-290.89 483.43,-294.39 483.43,-287.39"/>
</a>
</g>
<text xml:space="preserve" text-anchor="start" x="525.88" y="-297.14" font-family="Helvetica,sans-Serif" font-size="10.00" fill="grey">feat</text>
</g>
<!-- Node10 -->
<g id="Node000010" class="node">
<title>Node10</title>
<g id="a_Node000010"><a xlink:href="unionspdk__nvme__feat__arbitration.html" target="_top" xlink:title="Data used by Set Features/Get Features SPDK_NVME_FEAT_ARBITRATION.">
<polygon fill="white" stroke="#666666" points="153.25,-502.27 0,-502.27 0,-481.52 153.25,-481.52 153.25,-502.27"/>
<text xml:space="preserve" text-anchor="middle" x="76.62" y="-488.77" font-family="Helvetica,sans-Serif" font-size="10.00">spdk_nvme_feat_arbitration</text>
</a>
</g>
</g>
<!-- Node10&#45;&gt;Node9 -->
<g id="edge9_Node000009_Node000010" class="edge">
<title>Node10&#45;&gt;Node9</title>
<g id="a_edge9_Node000009_Node000010"><a xlink:title=" ">
<path fill="none" stroke="#9a32cd" stroke-dasharray="5,2" d="M165.04,-502.01C215.75,-503.37 278.44,-496.86 324.25,-464.89 382.62,-424.16 403.53,-332.37 409.08,-301.36"/>
<polygon fill="#9a32cd" stroke="#9a32cd" points="165.39,-498.52 155.26,-501.63 165.12,-505.51 165.39,-498.52"/>
</a>
</g>
<text xml:space="preserve" text-anchor="start" x="222.25" y="-508.42" font-family="Helvetica,sans-Serif" font-size="10.00" fill="grey">arbitration</text>
</g>
<!-- Node11 -->
<g id="Node000011" class="node">
<title>Node11</title>
<g id="a_Node000011"><a xlink:href="unionspdk__nvme__feat__power__management.html" target="_top" xlink:title="Data used by Set Features/Get Features SPDK_NVME_FEAT_POWER_MANAGEMENT.">
<polygon fill="white" stroke="#666666" points="142.75,-463.64 10.5,-463.64 10.5,-430.14 142.75,-430.14 142.75,-463.64"/>
<text xml:space="preserve" text-anchor="start" x="18.5" y="-450.14" font-family="Helvetica,sans-Serif" font-size="10.00">spdk_nvme_feat_power</text>
<text xml:space="preserve" text-anchor="middle" x="76.62" y="-437.39" font-family="Helvetica,sans-Serif" font-size="10.00">_management</text>
</a>
</g>
</g>
<!-- Node11&#45;&gt;Node9 -->
<g id="edge10_Node000009_Node000011" class="edge">
<title>Node11&#45;&gt;Node9</title>
<g id="a_edge10_Node000009_Node000011"><a xlink:title=" ">
<path fill="none" stroke="#9a32cd" stroke-dasharray="5,2" d="M154.45,-443.67C215.98,-439.86 296.45,-431.76 324.25,-414.89 369.58,-387.39 397.23,-326.09 406.88,-301.45"/>
<polygon fill="#9a32cd" stroke="#9a32cd" points="154.49,-440.16 144.71,-444.24 154.9,-447.15 154.49,-440.16"/>
</a>
</g>
<text xml:space="preserve" text-anchor="start" x="197.5" y="-448.41" font-family="Helvetica,sans-Serif" font-size="10.00" fill="grey">power_management</text>
</g>
<!-- Node12 -->
<g id="Node000012" class="node">
<title>Node12</title>
<g id="a_Node000012"><a xlink:href="unionspdk__nvme__feat__error__recovery.html" target="_top" xlink:title="Data used by Set Features/Get Features SPDK_NVME_FEAT_ERROR_RECOVERY.">
<polygon fill="white" stroke="#666666" points="139.38,-411.64 13.88,-411.64 13.88,-378.14 139.38,-378.14 139.38,-411.64"/>
<text xml:space="preserve" text-anchor="start" x="21.88" y="-398.14" font-family="Helvetica,sans-Serif" font-size="10.00">spdk_nvme_feat_error</text>
<text xml:space="preserve" text-anchor="middle" x="76.62" y="-385.39" font-family="Helvetica,sans-Serif" font-size="10.00">_recovery</text>
</a>
</g>
</g>
<!-- Node12&#45;&gt;Node9 -->
<g id="edge11_Node000009_Node000012" class="edge">
<title>Node12&#45;&gt;Node9</title>
<g id="a_edge11_Node000009_Node000012"><a xlink:title=" ">
<path fill="none" stroke="#9a32cd" stroke-dasharray="5,2" d="M151.24,-393.54C201.71,-390.33 269.22,-381.42 324.25,-357.89 355.69,-344.45 385.68,-316.79 400.72,-301.55"/>
<polygon fill="#9a32cd" stroke="#9a32cd" points="151.07,-390.05 141.29,-394.11 151.47,-397.04 151.07,-390.05"/>
</a>
</g>
<text xml:space="preserve" text-anchor="start" x="212.12" y="-397.96" font-family="Helvetica,sans-Serif" font-size="10.00" fill="grey">error_recovery</text>
</g>
<!-- Node13 -->
<g id="Node000013" class="node">
<title>Node13</title>
<g id="a_Node000013"><a xlink:href="unionspdk__nvme__feat__volatile__write__cache.html" target="_top" xlink:title="Data used by Set Features/Get Features SPDK_NVME_FEAT_VOLATILE_WRITE_CACHE.">
<polygon fill="white" stroke="#666666" points="146.12,-359.64 7.12,-359.64 7.12,-326.14 146.12,-326.14 146.12,-359.64"/>
<text xml:space="preserve" text-anchor="start" x="15.12" y="-346.14" font-family="Helvetica,sans-Serif" font-size="10.00">spdk_nvme_feat_volatile</text>
<text xml:space="preserve" text-anchor="middle" x="76.62" y="-333.39" font-family="Helvetica,sans-Serif" font-size="10.00">_write_cache</text>
</a>
</g>
</g>
<!-- Node13&#45;&gt;Node9 -->
<g id="edge12_Node000009_Node000013" class="edge">
<title>Node13&#45;&gt;Node9</title>
<g id="a_edge12_Node000009_Node000013"><a xlink:title=" ">
<path fill="none" stroke="#9a32cd" stroke-dasharray="5,2" d="M157.96,-336.37C206.39,-331.72 269.17,-324.4 324.25,-313.89 341.04,-310.69 359.37,-305.99 374.82,-301.68"/>
<polygon fill="#9a32cd" stroke="#9a32cd" points="157.73,-332.88 148.1,-337.3 158.39,-339.85 157.73,-332.88"/>
</a>
</g>
<text xml:space="preserve" text-anchor="start" x="197.5" y="-341.23" font-family="Helvetica,sans-Serif" font-size="10.00" fill="grey">volatile_write_cache</text>
</g>
<!-- Node14 -->
<g id="Node000014" class="node">
<title>Node14</title>
<g id="a_Node000014"><a xlink:href="unionspdk__nvme__feat__number__of__queues.html" target="_top" xlink:title="Data used by Set Features/Get Features SPDK_NVME_FEAT_NUMBER_OF_QUEUES.">
<polygon fill="white" stroke="#666666" points="146.5,-307.64 6.75,-307.64 6.75,-274.14 146.5,-274.14 146.5,-307.64"/>
<text xml:space="preserve" text-anchor="start" x="14.75" y="-294.14" font-family="Helvetica,sans-Serif" font-size="10.00">spdk_nvme_feat_number</text>
<text xml:space="preserve" text-anchor="middle" x="76.62" y="-281.39" font-family="Helvetica,sans-Serif" font-size="10.00">_of_queues</text>
</a>
</g>
</g>
<!-- Node14&#45;&gt;Node9 -->
<g id="edge13_Node000009_Node000014" class="edge">
<title>Node14&#45;&gt;Node9</title>
<g id="a_edge13_Node000009_Node000014"><a xlink:title=" ">
<path fill="none" stroke="#9a32cd" stroke-dasharray="5,2" d="M157.92,-290.89C217.59,-290.89 297.65,-290.89 351.56,-290.89"/>
<polygon fill="#9a32cd" stroke="#9a32cd" points="158.16,-287.39 148.16,-290.89 158.16,-294.39 158.16,-287.39"/>
</a>
</g>
<text xml:space="preserve" text-anchor="start" x="201.25" y="-297.14" font-family="Helvetica,sans-Serif" font-size="10.00" fill="grey">number_of_queues</text>
</g>
<!-- Node15 -->
<g id="Node000015" class="node">
<title>Node15</title>
<g id="a_Node000015"><a xlink:href="unionspdk__nvme__feat__interrupt__coalescing.html" target="_top" xlink:title="Data used by Set Features/Get Features SPDK_NVME_FEAT_INTERRUPT_COALESCING.">
<polygon fill="white" stroke="#666666" points="148.75,-255.64 4.5,-255.64 4.5,-222.14 148.75,-222.14 148.75,-255.64"/>
<text xml:space="preserve" text-anchor="start" x="12.5" y="-242.14" font-family="Helvetica,sans-Serif" font-size="10.00">spdk_nvme_feat_interrupt</text>
<text xml:space="preserve" text-anchor="middle" x="76.62" y="-229.39" font-family="Helvetica,sans-Serif" font-size="10.00">_coalescing</text>
</a>
</g>
</g>
<!-- Node15&#45;&gt;Node9 -->
<g id="edge14_Node000009_Node000015" class="edge">
<title>Node15&#45;&gt;Node9</title>
<g id="a_edge14_Node000009_Node000015"><a xlink:title=" ">
<path fill="none" stroke="#9a32cd" stroke-dasharray="5,2" d="M160.28,-245.8C208.38,-250.54 270.03,-257.85 324.25,-268.14 340.88,-271.3 359.03,-275.89 374.39,-280.13"/>
<polygon fill="#9a32cd" stroke="#9a32cd" points="160.78,-242.33 150.49,-244.85 160.11,-249.3 160.78,-242.33"/>
</a>
</g>
<text xml:space="preserve" text-anchor="start" x="198.25" y="-274.39" font-family="Helvetica,sans-Serif" font-size="10.00" fill="grey">interrupt_coalescing</text>
</g>
<!-- Node16 -->
<g id="Node000016" class="node">
<title>Node16</title>
<g id="a_Node000016"><a xlink:href="unionspdk__nvme__feat__interrupt__vector__configuration.html" target="_top" xlink:title="Data used by Set Features/Get Features SPDK_NVME_FEAT_INTERRUPT_VECTOR_CONFIGURATION.">
<polygon fill="white" stroke="#666666" points="148.75,-203.64 4.5,-203.64 4.5,-170.14 148.75,-170.14 148.75,-203.64"/>
<text xml:space="preserve" text-anchor="start" x="12.5" y="-190.14" font-family="Helvetica,sans-Serif" font-size="10.00">spdk_nvme_feat_interrupt</text>
<text xml:space="preserve" text-anchor="middle" x="76.62" y="-177.39" font-family="Helvetica,sans-Serif" font-size="10.00">_vector_configuration</text>
</a>
</g>
</g>
<!-- Node16&#45;&gt;Node9 -->
<g id="edge15_Node000009_Node000016" class="edge">
<title>Node16&#45;&gt;Node9</title>
<g id="a_edge15_Node000009_Node000016"><a xlink:title=" ">
<path fill="none" stroke="#9a32cd" stroke-dasharray="5,2" d="M160.27,-179.35C212.61,-179.02 278.77,-187.36 324.25,-224.14 341.88,-238.41 325.51,-256.59 342.25,-271.89 345.8,-275.14 349.86,-277.84 354.19,-280.08"/>
<polygon fill="#9a32cd" stroke="#9a32cd" points="160.43,-175.85 150.49,-179.53 160.56,-182.85 160.43,-175.85"/>
</a>
</g>
<text xml:space="preserve" text-anchor="start" x="174.25" y="-230.39" font-family="Helvetica,sans-Serif" font-size="10.00" fill="grey">interrupt_vector_configuration</text>
</g>
<!-- Node17 -->
<g id="Node000017" class="node">
<title>Node17</title>
<g id="a_Node000017"><a xlink:href="unionspdk__nvme__feat__write__atomicity.html" target="_top" xlink:title="Data used by Set Features/Get Features SPDK_NVME_FEAT_WRITE_ATOMICITY.">
<polygon fill="white" stroke="#666666" points="140.12,-151.64 13.12,-151.64 13.12,-118.14 140.12,-118.14 140.12,-151.64"/>
<text xml:space="preserve" text-anchor="start" x="21.12" y="-138.14" font-family="Helvetica,sans-Serif" font-size="10.00">spdk_nvme_feat_write</text>
<text xml:space="preserve" text-anchor="middle" x="76.62" y="-125.39" font-family="Helvetica,sans-Serif" font-size="10.00">_atomicity</text>
</a>
</g>
</g>
<!-- Node17&#45;&gt;Node9 -->
<g id="edge16_Node000009_Node000017" class="edge">
<title>Node17&#45;&gt;Node9</title>
<g id="a_edge16_Node000009_Node000017"><a xlink:title=" ">
<path fill="none" stroke="#9a32cd" stroke-dasharray="5,2" d="M151.98,-119.65C206.67,-113.08 279.06,-114.83 324.25,-157.14 361.93,-192.43 307.9,-233.35 342.25,-271.89 345.12,-275.12 348.49,-277.82 352.17,-280.07"/>
<polygon fill="#9a32cd" stroke="#9a32cd" points="151.55,-116.17 142.1,-120.96 152.47,-123.11 151.55,-116.17"/>
</a>
</g>
<text xml:space="preserve" text-anchor="start" x="209.5" y="-163.39" font-family="Helvetica,sans-Serif" font-size="10.00" fill="grey">write_atomicity</text>
</g>
<!-- Node18 -->
<g id="Node000018" class="node">
<title>Node18</title>
<g id="a_Node000018"><a xlink:href="unionspdk__nvme__feat__async__event__configuration.html" target="_top" xlink:title="Data used by Set Features / Get Features SPDK_NVME_FEAT_ASYNC_EVENT_CONFIGURATION.">
<polygon fill="#fff0f0" stroke="red" points="142,-99.64 11.25,-99.64 11.25,-66.14 142,-66.14 142,-99.64"/>
<text xml:space="preserve" text-anchor="start" x="19.25" y="-86.14" font-family="Helvetica,sans-Serif" font-size="10.00">spdk_nvme_feat_async</text>
<text xml:space="preserve" text-anchor="middle" x="76.62" y="-73.39" font-family="Helvetica,sans-Serif" font-size="10.00">_event_configuration</text>
</a>
</g>
</g>
<!-- Node18&#45;&gt;Node9 -->
<g id="edge17_Node000009_Node000018" class="edge">
<title>Node18&#45;&gt;Node9</title>
<g id="a_edge17_Node000009_Node000018"><a xlink:title=" ">
<path fill="none" stroke="#9a32cd" stroke-dasharray="5,2" d="M149.98,-63.51C205.02,-53.52 278.81,-51.15 324.25,-94.14 353.09,-121.43 316.66,-241.54 342.25,-271.89 344.96,-275.1 348.15,-277.79 351.66,-280.05"/>
<polygon fill="#9a32cd" stroke="#9a32cd" points="149.52,-60.03 140.37,-65.38 150.86,-66.9 149.52,-60.03"/>
</a>
</g>
<text xml:space="preserve" text-anchor="start" x="182.5" y="-100.39" font-family="Helvetica,sans-Serif" font-size="10.00" fill="grey">async_event_configuration</text>
</g>
<!-- Node20 -->
<g id="Node000020" class="node">
<title>Node20</title>
<g id="a_Node000020"><a xlink:href="unionspdk__nvme__feat__keep__alive__timer.html" target="_top" xlink:title="Data used by Set Features/Get Features SPDK_NVME_FEAT_KEEP_ALIVE_TIMER.">
<polygon fill="white" stroke="#666666" points="139.38,-47.64 13.88,-47.64 13.88,-14.14 139.38,-14.14 139.38,-47.64"/>
<text xml:space="preserve" text-anchor="start" x="21.88" y="-34.14" font-family="Helvetica,sans-Serif" font-size="10.00">spdk_nvme_feat_keep</text>
<text xml:space="preserve" text-anchor="middle" x="76.62" y="-21.39" font-family="Helvetica,sans-Serif" font-size="10.00">_alive_timer</text>
</a>
</g>
</g>
<!-- Node20&#45;&gt;Node9 -->
<g id="edge18_Node000009_Node000020" class="edge">
<title>Node20&#45;&gt;Node9</title>
<g id="a_edge18_Node000009_Node000020"><a xlink:title=" ">
<path fill="none" stroke="#9a32cd" stroke-dasharray="5,2" d="M140.89,-10.87C196.63,2.44 276.23,10.14 324.25,-35.14 362.64,-71.34 308.74,-231.14 342.25,-271.89 344.91,-275.14 348.08,-277.85 351.57,-280.12"/>
<polygon fill="#9a32cd" stroke="#9a32cd" points="140.04,-7.47 131.19,-13.31 141.75,-14.26 140.04,-7.47"/>
</a>
</g>
<text xml:space="preserve" text-anchor="start" x="205.75" y="-41.39" font-family="Helvetica,sans-Serif" font-size="10.00" fill="grey">keep_alive_timer</text>
</g>
<!-- Node21 -->
<g id="Node000021" class="node">
<title>Node21</title>
<g id="a_Node000021"><a xlink:href="unionspdk__nvme__async__event__completion.html" target="_top" xlink:title="Asynchronous Event Request Completion.">
<polygon fill="white" stroke="#666666" points="481.25,-262.64 342.25,-262.64 342.25,-229.14 481.25,-229.14 481.25,-262.64"/>
<text xml:space="preserve" text-anchor="start" x="350.25" y="-249.14" font-family="Helvetica,sans-Serif" font-size="10.00">spdk_nvme_async_event</text>
<text xml:space="preserve" text-anchor="middle" x="411.75" y="-236.39" font-family="Helvetica,sans-Serif" font-size="10.00">_completion</text>
</a>
</g>
</g>
<!-- Node21&#45;&gt;Node1 -->
<g id="edge19_Node000001_Node000021" class="edge">
<title>Node21&#45;&gt;Node1</title>
<g id="a_edge19_Node000001_Node000021"><a xlink:title=" ">
<path fill="none" stroke="#9a32cd" stroke-dasharray="5,2" d="M492.69,-255.4C518.14,-258.87 546.33,-263.18 572,-268.14 589.24,-271.48 608.1,-276 624.21,-280.13"/>
<polygon fill="#9a32cd" stroke="#9a32cd" points="493.47,-251.98 483.1,-254.12 492.54,-258.92 493.47,-251.98"/>
</a>
</g>
<text xml:space="preserve" text-anchor="start" x="502.25" y="-274.39" font-family="Helvetica,sans-Serif" font-size="10.00" fill="grey">async_events</text>
</g>
</g>
</svg>

<g id="navigator" transform="translate(0 0)" fill="#404254">
  <rect fill="#f2f5e9" fill-opacity="0.5" stroke="#606060" stroke-width=".5" x="0" y="0" width="60" height="60"/>
  <use id="zoomplus" xlink:href="#zoomPlus" x="17" y="9" onmousedown="handleZoom(evt,'in')"/>
  <use id="zoomminus" xlink:href="#zoomMin" x="42" y="9" onmousedown="handleZoom(evt,'out')"/>
  <use id="reset" xlink:href="#resetDef" x="30" y="36" onmousedown="handleReset()"/>
   <use id="arrowup" xlink:href="#arrowUp" x="0" y="0" onmousedown="handlePan(0,-1)"/>
  <use id="arrowright" xlink:href="#arrowRight" x="0" y="0" onmousedown="handlePan(1,0)"/>
  <use id="arrowdown" xlink:href="#arrowDown" x="0" y="0" onmousedown="handlePan(0,1)"/>
  <use id="arrowleft" xlink:href="#arrowLeft" x="0" y="0" onmousedown="handlePan(-1,0)"/>
</g>
<svg viewBox="0 0 15 15" width="100%" height="30px" preserveAspectRatio="xMaxYMin meet">
 <g id="arrow_out" transform="scale(0.3 0.3)">
  <a xlink:href="structspdk__nvmf__ctrlr__migr__data__coll__graph_org.svg" target="_base">
   <rect id="button" ry="5" rx="5" y="6" x="6" height="38" width="38"
        fill="#f2f5e9" fill-opacity="0.5" stroke="#606060" stroke-width="1.0"/>
   <path id="arrow"
     d="M 11.500037,31.436501 C 11.940474,20.09759 22.043105,11.32322 32.158766,21.979434 L 37.068811,17.246167 C 37.068811,17.246167 37.088388,32 37.088388,32 L 22.160133,31.978069 C 22.160133,31.978069 26.997745,27.140456 26.997745,27.140456 C 18.528582,18.264221 13.291696,25.230495 11.500037,31.436501 z"
     style="fill:#404040;"/>
  </a>
 </g>
</svg>

<style type='text/css'>
<![CDATA[
[data-mouse-over-selected='false'] { opacity: 0.7; }
[data-mouse-over-selected='true']  { opacity: 1.0; }
]]>
</style>
<script type="application/ecmascript"><![CDATA[
document.addEventListener('DOMContentLoaded', (event) => {
  highlightEdges();
  highlightAdjacentNodes();
});
]]></script>
</svg>
