<?xml version="1.0" encoding="UTF-8" standalone="no"?>
<!DOCTYPE svg PUBLIC "-//W3C//DTD SVG 1.1//EN"
 "http://www.w3.org/Graphics/SVG/1.1/DTD/svg11.dtd">
<!-- Generated by graphviz version 13.1.2 (20250808.2320)
 -->
<!-- Title: spdk_accel_task Pages: 1 -->
<svg width="570pt" height="209pt"
 viewBox="0.00 0.00 570.00 209.00" xmlns="http://www.w3.org/2000/svg" xmlns:xlink="http://www.w3.org/1999/xlink">
<g id="graph0" class="graph" transform="scale(1 1) rotate(0) translate(4 205.25)">
<title>spdk_accel_task</title>
<!-- Node1 -->
<g id="Node000001" class="node">
<title>Node1</title>
<g id="a_Node000001"><a xlink:title=" ">
<polygon fill="#999999" stroke="#666666" points="353.12,-20.75 256.88,-20.75 256.88,0 353.12,0 353.12,-20.75"/>
<text xml:space="preserve" text-anchor="middle" x="305" y="-7.25" font-family="Helvetica,sans-Serif" font-size="10.00">spdk_accel_task</text>
</a>
</g>
</g>
<!-- Node2 -->
<g id="Node000002" class="node">
<title>Node2</title>
<g id="a_Node000002"><a xlink:href="structspdk__accel__crypto__key.html" target="_top" xlink:title=" ">
<polygon fill="white" stroke="#bfbfbf" points="198.25,-96.25 69.75,-96.25 69.75,-75.5 198.25,-75.5 198.25,-96.25"/>
<text xml:space="preserve" text-anchor="middle" x="134" y="-82.75" font-family="Helvetica,sans-Serif" font-size="10.00">spdk_accel_crypto_key</text>
</a>
</g>
</g>
<!-- Node2&#45;&gt;Node1 -->
<g id="edge1_Node000001_Node000002" class="edge">
<title>Node2&#45;&gt;Node1</title>
<g id="a_edge1_Node000001_Node000002"><a xlink:title=" ">
<path fill="none" stroke="#9a32cd" stroke-dasharray="5,2" d="M157.19,-68.77C172,-59.05 191.88,-46.99 210.75,-38.75 227.14,-31.59 245.95,-25.69 262.42,-21.24"/>
<polygon fill="#9a32cd" stroke="#9a32cd" points="155.44,-65.73 149.09,-74.21 159.35,-71.54 155.44,-65.73"/>
</a>
</g>
<text xml:space="preserve" text-anchor="start" x="213.75" y="-45" font-family="Helvetica,sans-Serif" font-size="10.00" fill="grey">crypto_key</text>
</g>
<!-- Node3 -->
<g id="Node000003" class="node">
<title>Node3</title>
<g id="a_Node000003"><a xlink:href="structspdk__accel__module__if.html" target="_top" xlink:title=" ">
<polygon fill="white" stroke="#bfbfbf" points="124,-194.88 0,-194.88 0,-174.12 124,-174.12 124,-194.88"/>
<text xml:space="preserve" text-anchor="middle" x="62" y="-181.38" font-family="Helvetica,sans-Serif" font-size="10.00">spdk_accel_module_if</text>
</a>
</g>
</g>
<!-- Node3&#45;&gt;Node2 -->
<g id="edge2_Node000002_Node000003" class="edge">
<title>Node3&#45;&gt;Node2</title>
<g id="a_edge2_Node000002_Node000003"><a xlink:title=" ">
<path fill="none" stroke="#9a32cd" stroke-dasharray="5,2" d="M76.03,-164.66C91.2,-144.31 114.78,-112.67 126.65,-96.74"/>
<polygon fill="#9a32cd" stroke="#9a32cd" points="73.24,-162.56 70.07,-172.67 78.85,-166.74 73.24,-162.56"/>
</a>
</g>
<text xml:space="preserve" text-anchor="start" x="115.72" y="-128.88" font-family="Helvetica,sans-Serif" font-size="10.00" fill="grey">module_if</text>
</g>
<!-- Node4 -->
<g id="Node000004" class="node">
<title>Node4</title>
<g id="a_Node000004"><a xlink:href="structspdk__accel__crypto__key__create__param.html" target="_top" xlink:title=" ">
<polygon fill="white" stroke="#bfbfbf" points="270.25,-201.25 141.75,-201.25 141.75,-167.75 270.25,-167.75 270.25,-201.25"/>
<text xml:space="preserve" text-anchor="start" x="149.75" y="-187.75" font-family="Helvetica,sans-Serif" font-size="10.00">spdk_accel_crypto_key</text>
<text xml:space="preserve" text-anchor="middle" x="206" y="-175" font-family="Helvetica,sans-Serif" font-size="10.00">_create_param</text>
</a>
</g>
</g>
<!-- Node4&#45;&gt;Node2 -->
<g id="edge3_Node000002_Node000004" class="edge">
<title>Node4&#45;&gt;Node2</title>
<g id="a_edge3_Node000002_Node000004"><a xlink:title=" ">
<path fill="none" stroke="#9a32cd" stroke-dasharray="5,2" d="M196.14,-157.13C190.2,-143.42 181.69,-126.92 171,-114.25 165.23,-107.41 157.43,-101.32 150.47,-96.62"/>
<polygon fill="#9a32cd" stroke="#9a32cd" points="192.75,-158.08 199.78,-166.01 199.22,-155.43 192.75,-158.08"/>
</a>
</g>
<text xml:space="preserve" text-anchor="start" x="195.07" y="-128.88" font-family="Helvetica,sans-Serif" font-size="10.00" fill="grey">param</text>
</g>
<!-- Node5 -->
<g id="Node000005" class="node">
<title>Node5</title>
<g id="a_Node000005"><a xlink:href="structspdk__dif__ctx.html" target="_top" xlink:title="DIF context information.">
<polygon fill="white" stroke="#666666" points="293.75,-96.25 216.25,-96.25 216.25,-75.5 293.75,-75.5 293.75,-96.25"/>
<text xml:space="preserve" text-anchor="middle" x="255" y="-82.75" font-family="Helvetica,sans-Serif" font-size="10.00">spdk_dif_ctx</text>
</a>
</g>
</g>
<!-- Node5&#45;&gt;Node1 -->
<g id="edge4_Node000001_Node000005" class="edge">
<title>Node5&#45;&gt;Node1</title>
<g id="a_edge4_Node000001_Node000005"><a xlink:title=" ">
<path fill="none" stroke="#9a32cd" stroke-dasharray="5,2" d="M267.93,-65.87C277.64,-51.59 290.56,-32.6 298.3,-21.22"/>
<polygon fill="#9a32cd" stroke="#9a32cd" points="265.12,-63.78 262.39,-74.01 270.91,-67.72 265.12,-63.78"/>
</a>
</g>
<text xml:space="preserve" text-anchor="start" x="288.95" y="-45" font-family="Helvetica,sans-Serif" font-size="10.00" fill="grey">ctx</text>
</g>
<!-- Node6 -->
<g id="Node000006" class="node">
<title>Node6</title>
<g id="a_Node000006"><a xlink:href="structspdk__dif__error.html" target="_top" xlink:title="DIF error information.">
<polygon fill="white" stroke="#666666" points="397.88,-96.25 312.12,-96.25 312.12,-75.5 397.88,-75.5 397.88,-96.25"/>
<text xml:space="preserve" text-anchor="middle" x="355" y="-82.75" font-family="Helvetica,sans-Serif" font-size="10.00">spdk_dif_error</text>
</a>
</g>
</g>
<!-- Node6&#45;&gt;Node1 -->
<g id="edge5_Node000001_Node000006" class="edge">
<title>Node6&#45;&gt;Node1</title>
<g id="a_edge5_Node000001_Node000006"><a xlink:title=" ">
<path fill="none" stroke="#9a32cd" stroke-dasharray="5,2" d="M342.07,-65.87C332.36,-51.59 319.44,-32.6 311.7,-21.22"/>
<polygon fill="#9a32cd" stroke="#9a32cd" points="339.09,-67.72 347.61,-74.01 344.88,-63.78 339.09,-67.72"/>
</a>
</g>
<text xml:space="preserve" text-anchor="start" x="338.95" y="-45" font-family="Helvetica,sans-Serif" font-size="10.00" fill="grey">err</text>
</g>
<!-- Node7 -->
<g id="Node000007" class="node">
<title>Node7</title>
<g id="a_Node000007"><a xlink:href="structspdk__accel__task__aux__data.html" target="_top" xlink:title=" ">
<polygon fill="white" stroke="#bfbfbf" points="562.25,-96.25 415.75,-96.25 415.75,-75.5 562.25,-75.5 562.25,-96.25"/>
<text xml:space="preserve" text-anchor="middle" x="489" y="-82.75" font-family="Helvetica,sans-Serif" font-size="10.00">spdk_accel_task_aux_data</text>
</a>
</g>
</g>
<!-- Node7&#45;&gt;Node1 -->
<g id="edge6_Node000001_Node000007" class="edge">
<title>Node7&#45;&gt;Node1</title>
<g id="a_edge6_Node000001_Node000007"><a xlink:title=" ">
<path fill="none" stroke="#9a32cd" stroke-dasharray="5,2" d="M453.94,-70.87C417.52,-56.32 361.48,-33.94 329.53,-21.18"/>
<polygon fill="#9a32cd" stroke="#9a32cd" points="452.58,-74.09 463.16,-74.55 455.17,-67.59 452.58,-74.09"/>
</a>
</g>
<text xml:space="preserve" text-anchor="start" x="421.89" y="-45" font-family="Helvetica,sans-Serif" font-size="10.00" fill="grey">aux</text>
</g>
<!-- Node8 -->
<g id="Node000008" class="node">
<title>Node8</title>
<g id="a_Node000008"><a xlink:href="structspdk__accel__bounce__buffer.html" target="_top" xlink:title="Describes user&#39;s buffers in remote memory domains in case a module doesn&#39;t support memory domains and...">
<polygon fill="white" stroke="#666666" points="561.12,-194.88 416.88,-194.88 416.88,-174.12 561.12,-174.12 561.12,-194.88"/>
<text xml:space="preserve" text-anchor="middle" x="489" y="-181.38" font-family="Helvetica,sans-Serif" font-size="10.00">spdk_accel_bounce_buffer</text>
</a>
</g>
</g>
<!-- Node8&#45;&gt;Node7 -->
<g id="edge7_Node000007_Node000008" class="edge">
<title>Node8&#45;&gt;Node7</title>
<g id="a_edge7_Node000007_Node000008"><a xlink:title=" ">
<path fill="none" stroke="#9a32cd" stroke-dasharray="5,2" d="M489,-162.39C489,-142.02 489,-112.09 489,-96.74"/>
<polygon fill="#9a32cd" stroke="#9a32cd" points="485.5,-162.37 489,-172.37 492.5,-162.37 485.5,-162.37"/>
</a>
</g>
<text xml:space="preserve" text-anchor="start" x="492" y="-137.25" font-family="Helvetica,sans-Serif" font-size="10.00" fill="grey">d</text>
<text xml:space="preserve" text-anchor="start" x="492" y="-120.5" font-family="Helvetica,sans-Serif" font-size="10.00" fill="grey">s</text>
</g>
</g>
</svg>
