<?xml version="1.0" encoding="UTF-8" standalone="no"?>
<!DOCTYPE svg PUBLIC "-//W3C//DTD SVG 1.1//EN"
 "http://www.w3.org/Graphics/SVG/1.1/DTD/svg11.dtd">
<!-- Generated by graphviz version 13.1.2 (20250808.2320)
 -->
<!-- Title: spdk_bdev_name Pages: 1 -->
<svg width="510pt" height="259pt"
 viewBox="0.00 0.00 510.00 259.00" xmlns="http://www.w3.org/2000/svg" xmlns:xlink="http://www.w3.org/1999/xlink">
<g id="graph0" class="graph" transform="scale(1 1) rotate(0) translate(4 255.12)">
<title>spdk_bdev_name</title>
<!-- Node1 -->
<g id="Node000001" class="node">
<title>Node1</title>
<g id="a_Node000001"><a xlink:title=" ">
<polygon fill="#999999" stroke="#666666" points="101.5,-206.75 0,-206.75 0,-186 101.5,-186 101.5,-206.75"/>
<text xml:space="preserve" text-anchor="middle" x="50.75" y="-193.25" font-family="Helvetica,sans-Serif" font-size="10.00">spdk_bdev_name</text>
</a>
</g>
</g>
<!-- Node9 -->
<g id="Node000009" class="node">
<title>Node9</title>
<g id="a_Node000009"><a xlink:href="structspdk__bdev_1_1____bdev__internal__fields.html" target="_top" xlink:title="Fields that are used internally by the bdev subsystem.">
<polygon fill="#fff0f0" stroke="red" points="351.5,-251.12 200.5,-251.12 200.5,-217.62 351.5,-217.62 351.5,-251.12"/>
<text xml:space="preserve" text-anchor="start" x="208.5" y="-237.62" font-family="Helvetica,sans-Serif" font-size="10.00">spdk_bdev::__bdev_internal</text>
<text xml:space="preserve" text-anchor="middle" x="276" y="-224.88" font-family="Helvetica,sans-Serif" font-size="10.00">_fields</text>
</a>
</g>
</g>
<!-- Node1&#45;&gt;Node9 -->
<g id="edge7_Node000009_Node000001" class="edge">
<title>Node1&#45;&gt;Node9</title>
<g id="a_edge7_Node000009_Node000001"><a xlink:title=" ">
<path fill="none" stroke="#9a32cd" stroke-dasharray="5,2" d="M113.05,-206.81C139.94,-211.39 171.76,-216.8 200.04,-221.62"/>
<polygon fill="#9a32cd" stroke="#9a32cd" points="113.79,-203.38 103.34,-205.16 112.61,-210.29 113.79,-203.38"/>
</a>
</g>
<text xml:space="preserve" text-anchor="start" x="122.5" y="-223.9" font-family="Helvetica,sans-Serif" font-size="10.00" fill="grey">bdev_name</text>
</g>
<!-- Node2 -->
<g id="Node000002" class="node">
<title>Node2</title>
<g id="a_Node000002"><a xlink:href="structspdk__bdev.html" target="_top" xlink:title=" ">
<polygon fill="white" stroke="#bfbfbf" points="501.75,-125.75 433.25,-125.75 433.25,-105 501.75,-105 501.75,-125.75"/>
<text xml:space="preserve" text-anchor="middle" x="467.5" y="-112.25" font-family="Helvetica,sans-Serif" font-size="10.00">spdk_bdev</text>
</a>
</g>
</g>
<!-- Node2&#45;&gt;Node1 -->
<g id="edge1_Node000001_Node000002" class="edge">
<title>Node2&#45;&gt;Node1</title>
<g id="a_edge1_Node000001_Node000002"><a xlink:title=" ">
<path fill="none" stroke="#9a32cd" stroke-dasharray="5,2" d="M443.75,-132.47C435.22,-138.08 425.18,-143.79 415.25,-147.38 358.64,-167.79 187.49,-184.77 101.78,-192.26"/>
<polygon fill="#9a32cd" stroke="#9a32cd" points="445.52,-135.51 451.73,-126.93 441.53,-129.76 445.52,-135.51"/>
</a>
</g>
<text xml:space="preserve" text-anchor="start" x="264" y="-188.49" font-family="Helvetica,sans-Serif" font-size="10.00" fill="grey">bdev</text>
</g>
<!-- Node3 -->
<g id="Node000003" class="node">
<title>Node3</title>
<g id="a_Node000003"><a xlink:href="structspdk__uuid.html" target="_top" xlink:title=" ">
<polygon fill="white" stroke="#bfbfbf" points="308.75,-144.75 243.25,-144.75 243.25,-124 308.75,-124 308.75,-144.75"/>
<text xml:space="preserve" text-anchor="middle" x="276" y="-131.25" font-family="Helvetica,sans-Serif" font-size="10.00">spdk_uuid</text>
</a>
</g>
</g>
<!-- Node3&#45;&gt;Node2 -->
<g id="edge2_Node000002_Node000003" class="edge">
<title>Node3&#45;&gt;Node2</title>
<g id="a_edge2_Node000002_Node000003"><a xlink:title=" ">
<path fill="none" stroke="#9a32cd" stroke-dasharray="5,2" d="M320.21,-130.04C354.42,-126.61 401.5,-121.89 432.92,-118.74"/>
<polygon fill="#9a32cd" stroke="#9a32cd" points="320.25,-126.52 310.65,-131 320.95,-133.49 320.25,-126.52"/>
</a>
</g>
<text xml:space="preserve" text-anchor="start" x="381.88" y="-131.12" font-family="Helvetica,sans-Serif" font-size="10.00" fill="grey">uuid</text>
</g>
<!-- Node4 -->
<g id="Node000004" class="node">
<title>Node4</title>
<g id="a_Node000004"><a xlink:href="unionspdk__bdev__nvme__ctratt.html" target="_top" xlink:title="Controller attributes indicating optional bdev capabilities (e.g.">
<polygon fill="white" stroke="#666666" points="342.5,-104.75 209.5,-104.75 209.5,-84 342.5,-84 342.5,-104.75"/>
<text xml:space="preserve" text-anchor="middle" x="276" y="-91.25" font-family="Helvetica,sans-Serif" font-size="10.00">spdk_bdev_nvme_ctratt</text>
</a>
</g>
</g>
<!-- Node4&#45;&gt;Node2 -->
<g id="edge3_Node000002_Node000004" class="edge">
<title>Node4&#45;&gt;Node2</title>
<g id="a_edge3_Node000002_Node000004"><a xlink:title=" ">
<path fill="none" stroke="#9a32cd" stroke-dasharray="5,2" d="M354.07,-92.86C374.11,-93.53 395.58,-95.18 415.25,-98.62 422.81,-99.95 430.79,-102.14 438.13,-104.51"/>
<polygon fill="#9a32cd" stroke="#9a32cd" points="354.39,-89.37 344.31,-92.62 354.22,-96.37 354.39,-89.37"/>
</a>
</g>
<text xml:space="preserve" text-anchor="start" x="379.25" y="-104.88" font-family="Helvetica,sans-Serif" font-size="10.00" fill="grey">ctratt</text>
</g>
<!-- Node5 -->
<g id="Node000005" class="node">
<title>Node5</title>
<g id="a_Node000005"><a xlink:href="structspdk__bdev__module.html" target="_top" xlink:title="Block device module.">
<polygon fill="#fff0f0" stroke="red" points="331.25,-62.75 220.75,-62.75 220.75,-42 331.25,-42 331.25,-62.75"/>
<text xml:space="preserve" text-anchor="middle" x="276" y="-49.25" font-family="Helvetica,sans-Serif" font-size="10.00">spdk_bdev_module</text>
</a>
</g>
</g>
<!-- Node5&#45;&gt;Node2 -->
<g id="edge4_Node000002_Node000005" class="edge">
<title>Node5&#45;&gt;Node2</title>
<g id="a_edge4_Node000002_Node000005"><a xlink:title=" ">
<path fill="none" stroke="#9a32cd" stroke-dasharray="5,2" d="M342.88,-53.24C366.54,-55.55 392.88,-60.51 415.25,-70.62 432.69,-78.51 448.58,-94.33 457.9,-104.89"/>
<polygon fill="#9a32cd" stroke="#9a32cd" points="343.28,-49.76 333.02,-52.43 342.7,-56.74 343.28,-49.76"/>
</a>
</g>
<text xml:space="preserve" text-anchor="start" x="374" y="-76.88" font-family="Helvetica,sans-Serif" font-size="10.00" fill="grey">module</text>
</g>
<!-- Node8 -->
<g id="Node000008" class="node">
<title>Node8</title>
<g id="a_Node000008"><a xlink:href="structspdk__bdev__fn__table.html" target="_top" xlink:title="Function table for a block device backend.">
<polygon fill="white" stroke="#666666" points="332.75,-20.75 219.25,-20.75 219.25,0 332.75,0 332.75,-20.75"/>
<text xml:space="preserve" text-anchor="middle" x="276" y="-7.25" font-family="Helvetica,sans-Serif" font-size="10.00">spdk_bdev_fn_table</text>
</a>
</g>
</g>
<!-- Node8&#45;&gt;Node2 -->
<g id="edge5_Node000002_Node000008" class="edge">
<title>Node8&#45;&gt;Node2</title>
<g id="a_edge5_Node000002_Node000008"><a xlink:title=" ">
<path fill="none" stroke="#9a32cd" stroke-dasharray="5,2" d="M344.26,-11.12C368.29,-14.11 394.53,-20.77 415.25,-34.62 441.06,-51.89 456.51,-87.02 462.96,-104.7"/>
<polygon fill="#9a32cd" stroke="#9a32cd" points="344.85,-7.66 334.54,-10.11 344.12,-14.62 344.85,-7.66"/>
</a>
</g>
<text xml:space="preserve" text-anchor="start" x="372.5" y="-40.88" font-family="Helvetica,sans-Serif" font-size="10.00" fill="grey">fn_table</text>
</g>
<!-- Node9&#45;&gt;Node2 -->
<g id="edge6_Node000002_Node000009" class="edge">
<title>Node9&#45;&gt;Node2</title>
<g id="a_edge6_Node000002_Node000009"><a xlink:title=" ">
<path fill="none" stroke="#9a32cd" stroke-dasharray="5,2" d="M362.66,-219.85C381.18,-214.01 399.82,-205.83 415.25,-194.38 439.54,-176.35 455.49,-143.12 462.46,-126.07"/>
<polygon fill="#9a32cd" stroke="#9a32cd" points="361.86,-216.44 353.24,-222.6 363.82,-223.16 361.86,-216.44"/>
</a>
</g>
<text xml:space="preserve" text-anchor="start" x="373.62" y="-223.61" font-family="Helvetica,sans-Serif" font-size="10.00" fill="grey">internal</text>
</g>
</g>
</svg>
