<?xml version="1.0" encoding="UTF-8" standalone="no"?>
<!DOCTYPE svg PUBLIC "-//W3C//DTD SVG 1.1//EN"
 "http://www.w3.org/Graphics/SVG/1.1/DTD/svg11.dtd">
<!-- Generated by graphviz version 13.1.2 (20250808.2320)
 -->
<!-- Title: spdk_nvmf_transport_poll_group Pages: 1 -->
<svg width="1061pt" height="151pt"
 viewBox="0.00 0.00 1061.00 151.00" xmlns="http://www.w3.org/2000/svg" xmlns:xlink="http://www.w3.org/1999/xlink">
<g id="graph0" class="graph" transform="scale(1 1) rotate(0) translate(4 146.75)">
<title>spdk_nvmf_transport_poll_group</title>
<!-- Node1 -->
<g id="Node000001" class="node">
<title>Node1</title>
<g id="a_Node000001"><a xlink:title=" ">
<polygon fill="#999999" stroke="#666666" points="558,-48.12 438.5,-48.12 438.5,-14.62 558,-14.62 558,-48.12"/>
<text xml:space="preserve" text-anchor="start" x="446.5" y="-34.62" font-family="Helvetica,sans-Serif" font-size="10.00">spdk_nvmf_transport</text>
<text xml:space="preserve" text-anchor="middle" x="498.25" y="-21.88" font-family="Helvetica,sans-Serif" font-size="10.00">_poll_group</text>
</a>
</g>
</g>
<!-- Node3 -->
<g id="Node000003" class="node">
<title>Node3</title>
<g id="a_Node000003"><a xlink:href="structspdk__nvmf__transport__ops.html" target="_top" xlink:title=" ">
<polygon fill="white" stroke="#bfbfbf" points="858.62,-72.75 716.62,-72.75 716.62,-52 858.62,-52 858.62,-72.75"/>
<text xml:space="preserve" text-anchor="middle" x="787.62" y="-59.25" font-family="Helvetica,sans-Serif" font-size="10.00">spdk_nvmf_transport_ops</text>
</a>
</g>
</g>
<!-- Node1&#45;&gt;Node3 -->
<g id="edge4_Node000003_Node000001" class="edge">
<title>Node1&#45;&gt;Node3</title>
<g id="a_edge4_Node000003_Node000001"><a xlink:title=" ">
<path fill="none" stroke="#9a32cd" stroke-dasharray="5,2" d="M569.78,-38.98C614.38,-43.79 671.8,-49.99 716.35,-54.79"/>
<polygon fill="#9a32cd" stroke="#9a32cd" points="570.27,-35.52 559.95,-37.92 569.52,-42.48 570.27,-35.52"/>
</a>
</g>
<text xml:space="preserve" text-anchor="start" x="579" y="-75.35" font-family="Helvetica,sans-Serif" font-size="10.00" fill="grey">get_optimal_poll_group</text>
<text xml:space="preserve" text-anchor="start" x="579" y="-58.6" font-family="Helvetica,sans-Serif" font-size="10.00" fill="grey">poll_group_create</text>
</g>
<!-- Node2 -->
<g id="Node000002" class="node">
<title>Node2</title>
<g id="a_Node000002"><a xlink:href="structspdk__nvmf__transport.html" target="_top" xlink:title=" ">
<polygon fill="white" stroke="#bfbfbf" points="1052.75,-79.75 933.25,-79.75 933.25,-59 1052.75,-59 1052.75,-79.75"/>
<text xml:space="preserve" text-anchor="middle" x="993" y="-66.25" font-family="Helvetica,sans-Serif" font-size="10.00">spdk_nvmf_transport</text>
</a>
</g>
</g>
<!-- Node2&#45;&gt;Node1 -->
<g id="edge1_Node000001_Node000002" class="edge">
<title>Node2&#45;&gt;Node1</title>
<g id="a_edge1_Node000001_Node000002"><a xlink:title=" ">
<path fill="none" stroke="#9a32cd" stroke-dasharray="5,2" d="M958.46,-54.04C932.39,-43.1 894.98,-29.49 860.5,-24.62 754.91,-9.74 630.25,-17.6 558.41,-24.56"/>
<polygon fill="#9a32cd" stroke="#9a32cd" points="956.94,-57.2 967.51,-57.94 959.71,-50.77 956.94,-57.2"/>
</a>
</g>
<text xml:space="preserve" text-anchor="start" x="765.5" y="-30.88" font-family="Helvetica,sans-Serif" font-size="10.00" fill="grey">transport</text>
</g>
<!-- Node2&#45;&gt;Node3 -->
<g id="edge3_Node000003_Node000002" class="edge">
<title>Node2&#45;&gt;Node3</title>
<g id="a_edge3_Node000003_Node000002"><a xlink:title=" ">
<path fill="none" stroke="#9a32cd" stroke-dasharray="5,2" d="M953.43,-54.97C941.38,-51.14 927.92,-47.54 915.25,-45.62 885.87,-41.18 852.55,-45.98 827.47,-51.56"/>
<polygon fill="#9a32cd" stroke="#9a32cd" points="952.01,-58.18 962.61,-58.03 954.23,-51.54 952.01,-58.18"/>
</a>
</g>
<text xml:space="preserve" text-anchor="start" x="881.5" y="-51.88" font-family="Helvetica,sans-Serif" font-size="10.00" fill="grey">create</text>
</g>
<!-- Node3&#45;&gt;Node2 -->
<g id="edge2_Node000002_Node000003" class="edge">
<title>Node3&#45;&gt;Node2</title>
<g id="a_edge2_Node000002_Node000003"><a xlink:title=" ">
<path fill="none" stroke="#9a32cd" stroke-dasharray="5,2" d="M869.97,-68.02C872.85,-68.15 875.7,-68.27 878.5,-68.38 896.12,-69.04 915.3,-69.36 932.78,-69.5"/>
<polygon fill="#9a32cd" stroke="#9a32cd" points="870.44,-64.54 860.28,-67.53 870.09,-71.53 870.44,-64.54"/>
</a>
</g>
<text xml:space="preserve" text-anchor="start" x="888.25" y="-75.51" font-family="Helvetica,sans-Serif" font-size="10.00" fill="grey">ops</text>
</g>
<!-- Node4 -->
<g id="Node000004" class="node">
<title>Node4</title>
<g id="a_Node000004"><a xlink:href="structspdk__nvmf__transport__opts.html" target="_top" xlink:title=" ">
<polygon fill="white" stroke="orangered" points="860.5,-142.75 714.75,-142.75 714.75,-122 860.5,-122 860.5,-142.75"/>
<text xml:space="preserve" text-anchor="middle" x="787.62" y="-129.25" font-family="Helvetica,sans-Serif" font-size="10.00">spdk_nvmf_transport_opts</text>
</a>
</g>
</g>
<!-- Node4&#45;&gt;Node2 -->
<g id="edge5_Node000002_Node000004" class="edge">
<title>Node4&#45;&gt;Node2</title>
<g id="a_edge5_Node000002_Node000004"><a xlink:title=" ">
<path fill="none" stroke="#9a32cd" stroke-dasharray="5,2" d="M834.15,-118.27C871.36,-106.75 923.19,-90.69 957.16,-80.17"/>
<polygon fill="#9a32cd" stroke="#9a32cd" points="833.55,-114.79 825.03,-121.1 835.62,-121.48 833.55,-114.79"/>
</a>
</g>
<text xml:space="preserve" text-anchor="start" x="886.38" y="-109.01" font-family="Helvetica,sans-Serif" font-size="10.00" fill="grey">opts</text>
</g>
<!-- Node8 -->
<g id="Node000008" class="node">
<title>Node8</title>
<g id="a_Node000008"><a xlink:href="structspdk__iobuf__channel.html" target="_top" xlink:title="iobuf channel">
<polygon fill="white" stroke="#666666" points="340.25,-62.75 227.5,-62.75 227.5,-42 340.25,-42 340.25,-62.75"/>
<text xml:space="preserve" text-anchor="middle" x="283.88" y="-49.25" font-family="Helvetica,sans-Serif" font-size="10.00">spdk_iobuf_channel</text>
</a>
</g>
</g>
<!-- Node8&#45;&gt;Node1 -->
<g id="edge6_Node000001_Node000008" class="edge">
<title>Node8&#45;&gt;Node1</title>
<g id="a_edge6_Node000001_Node000008"><a xlink:title=" ">
<path fill="none" stroke="#9a32cd" stroke-dasharray="5,2" d="M351.85,-45.75C379.52,-43.02 411.32,-39.87 438.11,-37.22"/>
<polygon fill="#9a32cd" stroke="#9a32cd" points="351.79,-42.24 342.18,-46.71 352.48,-49.21 351.79,-42.24"/>
</a>
</g>
<text xml:space="preserve" text-anchor="start" x="368" y="-50.62" font-family="Helvetica,sans-Serif" font-size="10.00" fill="grey">buf_cache</text>
</g>
<!-- Node9 -->
<g id="Node000009" class="node">
<title>Node9</title>
<g id="a_Node000009"><a xlink:href="structspdk__iobuf__node__cache.html" target="_top" xlink:title=" ">
<polygon fill="white" stroke="orangered" points="141.25,-62.75 9,-62.75 9,-42 141.25,-42 141.25,-62.75"/>
<text xml:space="preserve" text-anchor="middle" x="75.12" y="-49.25" font-family="Helvetica,sans-Serif" font-size="10.00">spdk_iobuf_node_cache</text>
</a>
</g>
</g>
<!-- Node9&#45;&gt;Node8 -->
<g id="edge7_Node000008_Node000009" class="edge">
<title>Node9&#45;&gt;Node8</title>
<g id="a_edge7_Node000008_Node000009"><a xlink:title=" ">
<path fill="none" stroke="#9a32cd" stroke-dasharray="5,2" d="M152.72,-52.38C177.45,-52.38 204.36,-52.38 227.27,-52.38"/>
<polygon fill="#9a32cd" stroke="#9a32cd" points="153.06,-48.88 143.06,-52.38 153.06,-55.88 153.06,-48.88"/>
</a>
</g>
<text xml:space="preserve" text-anchor="start" x="171.25" y="-58.62" font-family="Helvetica,sans-Serif" font-size="10.00" fill="grey">cache</text>
</g>
<!-- Node12 -->
<g id="Node000012" class="node">
<title>Node12</title>
<g id="a_Node000012"><a xlink:href="structspdk__nvmf__poll__group.html" target="_top" xlink:title=" ">
<polygon fill="white" stroke="#bfbfbf" points="347,-20.75 220.75,-20.75 220.75,0 347,0 347,-20.75"/>
<text xml:space="preserve" text-anchor="middle" x="283.88" y="-7.25" font-family="Helvetica,sans-Serif" font-size="10.00">spdk_nvmf_poll_group</text>
</a>
</g>
</g>
<!-- Node12&#45;&gt;Node1 -->
<g id="edge8_Node000001_Node000012" class="edge">
<title>Node12&#45;&gt;Node1</title>
<g id="a_edge8_Node000001_Node000012"><a xlink:title=" ">
<path fill="none" stroke="#9a32cd" stroke-dasharray="5,2" d="M358.77,-11.85C378.84,-12.78 400.55,-14.26 420.5,-16.62 426.29,-17.31 432.31,-18.18 438.3,-19.16"/>
<polygon fill="#9a32cd" stroke="#9a32cd" points="359.13,-8.36 349,-11.44 358.84,-15.36 359.13,-8.36"/>
</a>
</g>
<text xml:space="preserve" text-anchor="start" x="378.88" y="-22.88" font-family="Helvetica,sans-Serif" font-size="10.00" fill="grey">group</text>
</g>
<!-- Node13 -->
<g id="Node000013" class="node">
<title>Node13</title>
<g id="a_Node000013"><a xlink:href="structspdk__nvmf__poll__group__stat.html" target="_top" xlink:title=" ">
<polygon fill="white" stroke="#bfbfbf" points="150.25,-20.75 0,-20.75 0,0 150.25,0 150.25,-20.75"/>
<text xml:space="preserve" text-anchor="middle" x="75.12" y="-7.25" font-family="Helvetica,sans-Serif" font-size="10.00">spdk_nvmf_poll_group_stat</text>
</a>
</g>
</g>
<!-- Node13&#45;&gt;Node12 -->
<g id="edge9_Node000012_Node000013" class="edge">
<title>Node13&#45;&gt;Node12</title>
<g id="a_edge9_Node000012_Node000013"><a xlink:title=" ">
<path fill="none" stroke="#9a32cd" stroke-dasharray="5,2" d="M161.9,-10.38C181.52,-10.38 202.01,-10.38 220.43,-10.38"/>
<polygon fill="#9a32cd" stroke="#9a32cd" points="161.99,-6.88 151.99,-10.38 161.99,-13.88 161.99,-6.88"/>
</a>
</g>
<text xml:space="preserve" text-anchor="start" x="176.12" y="-16.62" font-family="Helvetica,sans-Serif" font-size="10.00" fill="grey">stat</text>
</g>
</g>
</svg>
