<?xml version="1.0" encoding="UTF-8" standalone="no"?>
<!DOCTYPE svg PUBLIC "-//W3C//DTD SVG 1.1//EN"
 "http://www.w3.org/Graphics/SVG/1.1/DTD/svg11.dtd">
<!-- Generated by graphviz version 13.1.2 (20250808.2320)
 -->
<!-- Title: spdk_iobuf_node_cache Pages: 1 -->
<svg width="140pt" height="197pt"
 viewBox="0.00 0.00 140.00 197.00" xmlns="http://www.w3.org/2000/svg" xmlns:xlink="http://www.w3.org/1999/xlink">
<g id="graph0" class="graph" transform="scale(1 1) rotate(0) translate(4 192.5)">
<title>spdk_iobuf_node_cache</title>
<!-- Node1 -->
<g id="Node000001" class="node">
<title>Node1</title>
<g id="a_Node000001"><a xlink:title=" ">
<polygon fill="#999999" stroke="#666666" points="132.25,-20.75 0,-20.75 0,0 132.25,0 132.25,-20.75"/>
<text xml:space="preserve" text-anchor="middle" x="66.12" y="-7.25" font-family="Helvetica,sans-Serif" font-size="10.00">spdk_iobuf_node_cache</text>
</a>
</g>
</g>
<!-- Node2 -->
<g id="Node000002" class="node">
<title>Node2</title>
<g id="a_Node000002"><a xlink:href="structspdk__iobuf__pool__cache.html" target="_top" xlink:title=" ">
<polygon fill="white" stroke="#bfbfbf" points="130.75,-113 1.5,-113 1.5,-92.25 130.75,-92.25 130.75,-113"/>
<text xml:space="preserve" text-anchor="middle" x="66.12" y="-99.5" font-family="Helvetica,sans-Serif" font-size="10.00">spdk_iobuf_pool_cache</text>
</a>
</g>
</g>
<!-- Node2&#45;&gt;Node1 -->
<g id="edge1_Node000001_Node000002" class="edge">
<title>Node2&#45;&gt;Node1</title>
<g id="a_edge1_Node000001_Node000002"><a xlink:title=" ">
<path fill="none" stroke="#9a32cd" stroke-dasharray="5,2" d="M66.12,-80.52C66.12,-61.83 66.12,-35.4 66.12,-21.24"/>
<polygon fill="#9a32cd" stroke="#9a32cd" points="62.63,-80.45 66.13,-90.45 69.63,-80.45 62.63,-80.45"/>
</a>
</g>
<text xml:space="preserve" text-anchor="start" x="69.12" y="-61.75" font-family="Helvetica,sans-Serif" font-size="10.00" fill="grey">large</text>
<text xml:space="preserve" text-anchor="start" x="69.12" y="-45" font-family="Helvetica,sans-Serif" font-size="10.00" fill="grey">small</text>
</g>
<!-- Node3 -->
<g id="Node000003" class="node">
<title>Node3</title>
<g id="a_Node000003"><a xlink:href="structspdk__iobuf__pool__stats.html" target="_top" xlink:title=" ">
<polygon fill="white" stroke="#bfbfbf" points="128.5,-188.5 3.75,-188.5 3.75,-167.75 128.5,-167.75 128.5,-188.5"/>
<text xml:space="preserve" text-anchor="middle" x="66.12" y="-175" font-family="Helvetica,sans-Serif" font-size="10.00">spdk_iobuf_pool_stats</text>
</a>
</g>
</g>
<!-- Node3&#45;&gt;Node2 -->
<g id="edge2_Node000002_Node000003" class="edge">
<title>Node3&#45;&gt;Node2</title>
<g id="a_edge2_Node000002_Node000003"><a xlink:title=" ">
<path fill="none" stroke="#9a32cd" stroke-dasharray="5,2" d="M66.12,-156.01C66.12,-142.01 66.12,-124.3 66.12,-113.47"/>
<polygon fill="#9a32cd" stroke="#9a32cd" points="62.63,-156 66.13,-166 69.63,-156 62.63,-156"/>
</a>
</g>
<text xml:space="preserve" text-anchor="start" x="69.12" y="-137.25" font-family="Helvetica,sans-Serif" font-size="10.00" fill="grey">stats</text>
</g>
</g>
</svg>
