<?xml version="1.0" encoding="UTF-8" standalone="no"?>
<!DOCTYPE svg PUBLIC "-//W3C//DTD SVG 1.1//EN"
 "http://www.w3.org/Graphics/SVG/1.1/DTD/svg11.dtd">
<!-- Generated by graphviz version 13.1.2 (20250808.2320)
 -->
<!-- Title: spdk_nvmf_transport Pages: 1 -->
<svg width="1105pt" height="133pt"
 viewBox="0.00 0.00 1105.00 133.00" xmlns="http://www.w3.org/2000/svg" xmlns:xlink="http://www.w3.org/1999/xlink">
<g id="graph0" class="graph" transform="scale(1 1) rotate(0) translate(4 128.93)">
<title>spdk_nvmf_transport</title>
<!-- Node1 -->
<g id="Node000001" class="node">
<title>Node1</title>
<g id="a_Node000001"><a xlink:title=" ">
<polygon fill="#999999" stroke="#666666" points="592.5,-62.75 473,-62.75 473,-42 592.5,-42 592.5,-62.75"/>
<text xml:space="preserve" text-anchor="middle" x="532.75" y="-49.25" font-family="Helvetica,sans-Serif" font-size="10.00">spdk_nvmf_transport</text>
</a>
</g>
</g>
<!-- Node2 -->
<g id="Node000002" class="node">
<title>Node2</title>
<g id="a_Node000002"><a xlink:href="structspdk__nvmf__transport__ops.html" target="_top" xlink:title=" ">
<polygon fill="white" stroke="#bfbfbf" points="1097,-62.75 955,-62.75 955,-42 1097,-42 1097,-62.75"/>
<text xml:space="preserve" text-anchor="middle" x="1026" y="-49.25" font-family="Helvetica,sans-Serif" font-size="10.00">spdk_nvmf_transport_ops</text>
</a>
</g>
</g>
<!-- Node1&#45;&gt;Node2 -->
<g id="edge2_Node000002_Node000001" class="edge">
<title>Node1&#45;&gt;Node2</title>
<g id="a_edge2_Node000002_Node000001"><a xlink:title=" ">
<path fill="none" stroke="#9a32cd" stroke-dasharray="5,2" d="M575.28,-66.58C586.58,-69.96 598.91,-73.21 610.5,-75.38 753.32,-102.01 794.86,-121.46 937,-91.38 962.5,-85.98 989.6,-72.68 1006.88,-63.11"/>
<polygon fill="#9a32cd" stroke="#9a32cd" points="576.41,-63.27 565.82,-63.64 574.33,-69.95 576.41,-63.27"/>
</a>
</g>
<text xml:space="preserve" text-anchor="start" x="723.12" y="-112.43" font-family="Helvetica,sans-Serif" font-size="10.00" fill="grey">create</text>
</g>
<!-- Node3 -->
<g id="Node000003" class="node">
<title>Node3</title>
<g id="a_Node000003"><a xlink:href="structspdk__nvmf__transport__poll__group.html" target="_top" xlink:title=" ">
<polygon fill="white" stroke="orangered" points="798.25,-69.12 678.75,-69.12 678.75,-35.62 798.25,-35.62 798.25,-69.12"/>
<text xml:space="preserve" text-anchor="start" x="686.75" y="-55.62" font-family="Helvetica,sans-Serif" font-size="10.00">spdk_nvmf_transport</text>
<text xml:space="preserve" text-anchor="middle" x="738.5" y="-42.88" font-family="Helvetica,sans-Serif" font-size="10.00">_poll_group</text>
</a>
</g>
</g>
<!-- Node1&#45;&gt;Node3 -->
<g id="edge4_Node000003_Node000001" class="edge">
<title>Node1&#45;&gt;Node3</title>
<g id="a_edge4_Node000003_Node000001"><a xlink:title=" ">
<path fill="none" stroke="#9a32cd" stroke-dasharray="5,2" d="M604.24,-52.38C628.45,-52.38 655.29,-52.38 678.5,-52.38"/>
<polygon fill="#9a32cd" stroke="#9a32cd" points="604.47,-48.88 594.47,-52.38 604.47,-55.88 604.47,-48.88"/>
</a>
</g>
<text xml:space="preserve" text-anchor="start" x="613.5" y="-58.62" font-family="Helvetica,sans-Serif" font-size="10.00" fill="grey">transport</text>
</g>
<!-- Node2&#45;&gt;Node1 -->
<g id="edge1_Node000001_Node000002" class="edge">
<title>Node2&#45;&gt;Node1</title>
<g id="a_edge1_Node000001_Node000002"><a xlink:title=" ">
<path fill="none" stroke="#9a32cd" stroke-dasharray="5,2" d="M979.66,-38.46C913.43,-19.96 786.4,8.61 678.75,-7.62 636.16,-14.05 588.82,-30.52 560.18,-41.59"/>
<polygon fill="#9a32cd" stroke="#9a32cd" points="978.5,-41.77 989.08,-41.15 980.42,-35.04 978.5,-41.77"/>
</a>
</g>
<text xml:space="preserve" text-anchor="start" x="729.88" y="-13.88" font-family="Helvetica,sans-Serif" font-size="10.00" fill="grey">ops</text>
</g>
<!-- Node3&#45;&gt;Node2 -->
<g id="edge3_Node000002_Node000003" class="edge">
<title>Node3&#45;&gt;Node2</title>
<g id="a_edge3_Node000002_Node000003"><a xlink:title=" ">
<path fill="none" stroke="#9a32cd" stroke-dasharray="5,2" d="M810.14,-52.38C854.16,-52.38 910.59,-52.38 954.57,-52.38"/>
<polygon fill="#9a32cd" stroke="#9a32cd" points="810.17,-48.88 800.17,-52.38 810.17,-55.88 810.17,-48.88"/>
</a>
</g>
<text xml:space="preserve" text-anchor="start" x="819.25" y="-75.38" font-family="Helvetica,sans-Serif" font-size="10.00" fill="grey">get_optimal_poll_group</text>
<text xml:space="preserve" text-anchor="start" x="819.25" y="-58.62" font-family="Helvetica,sans-Serif" font-size="10.00" fill="grey">poll_group_create</text>
</g>
<!-- Node10 -->
<g id="Node000010" class="node">
<title>Node10</title>
<g id="a_Node000010"><a xlink:href="structspdk__nvmf__transport__opts.html" target="_top" xlink:title=" ">
<polygon fill="white" stroke="#bfbfbf" points="410,-62.75 264.25,-62.75 264.25,-42 410,-42 410,-62.75"/>
<text xml:space="preserve" text-anchor="middle" x="337.12" y="-49.25" font-family="Helvetica,sans-Serif" font-size="10.00">spdk_nvmf_transport_opts</text>
</a>
</g>
</g>
<!-- Node10&#45;&gt;Node1 -->
<g id="edge5_Node000001_Node000010" class="edge">
<title>Node10&#45;&gt;Node1</title>
<g id="a_edge5_Node000001_Node000010"><a xlink:title=" ">
<path fill="none" stroke="#9a32cd" stroke-dasharray="5,2" d="M421.69,-52.38C438.87,-52.38 456.62,-52.38 472.72,-52.38"/>
<polygon fill="#9a32cd" stroke="#9a32cd" points="422.01,-48.88 412.01,-52.38 422.01,-55.88 422.01,-48.88"/>
</a>
</g>
<text xml:space="preserve" text-anchor="start" x="431" y="-58.62" font-family="Helvetica,sans-Serif" font-size="10.00" fill="grey">opts</text>
</g>
<!-- Node11 -->
<g id="Node000011" class="node">
<title>Node11</title>
<g id="a_Node000011"><a xlink:href="structspdk__json__val.html" target="_top" xlink:title=" ">
<polygon fill="white" stroke="#bfbfbf" points="110.5,-104.75 25.5,-104.75 25.5,-84 110.5,-84 110.5,-104.75"/>
<text xml:space="preserve" text-anchor="middle" x="68" y="-91.25" font-family="Helvetica,sans-Serif" font-size="10.00">spdk_json_val</text>
</a>
</g>
</g>
<!-- Node11&#45;&gt;Node10 -->
<g id="edge6_Node000010_Node000011" class="edge">
<title>Node11&#45;&gt;Node10</title>
<g id="a_edge6_Node000010_Node000011"><a xlink:title=" ">
<path fill="none" stroke="#9a32cd" stroke-dasharray="5,2" d="M121.74,-89.16C157.09,-85.34 204.62,-79.57 246.25,-72.38 261.06,-69.81 277.11,-66.44 291.49,-63.19"/>
<polygon fill="#9a32cd" stroke="#9a32cd" points="121.79,-85.64 112.21,-90.17 122.53,-92.6 121.79,-85.64"/>
</a>
</g>
<text xml:space="preserve" text-anchor="start" x="157" y="-91.67" font-family="Helvetica,sans-Serif" font-size="10.00" fill="grey">transport_specific</text>
</g>
<!-- Node12 -->
<g id="Node000012" class="node">
<title>Node12</title>
<g id="a_Node000012"><a xlink:href="structspdk__nvme__cdata__oncs.html" target="_top" xlink:title="Identify Controller data Optional NVM Command Support.">
<polygon fill="white" stroke="#666666" points="134.12,-62.75 1.88,-62.75 1.88,-42 134.12,-42 134.12,-62.75"/>
<text xml:space="preserve" text-anchor="middle" x="68" y="-49.25" font-family="Helvetica,sans-Serif" font-size="10.00">spdk_nvme_cdata_oncs</text>
</a>
</g>
</g>
<!-- Node12&#45;&gt;Node10 -->
<g id="edge7_Node000010_Node000012" class="edge">
<title>Node12&#45;&gt;Node10</title>
<g id="a_edge7_Node000010_Node000012"><a xlink:title=" ">
<path fill="none" stroke="#9a32cd" stroke-dasharray="5,2" d="M145.65,-52.38C182.86,-52.38 227.33,-52.38 263.94,-52.38"/>
<polygon fill="#9a32cd" stroke="#9a32cd" points="145.86,-48.88 135.86,-52.38 145.86,-55.88 145.86,-48.88"/>
</a>
</g>
<text xml:space="preserve" text-anchor="start" x="188.88" y="-58.62" font-family="Helvetica,sans-Serif" font-size="10.00" fill="grey">oncs</text>
</g>
<!-- Node13 -->
<g id="Node000013" class="node">
<title>Node13</title>
<g id="a_Node000013"><a xlink:href="structspdk__nvme__cdata__fuses.html" target="_top" xlink:title=" ">
<polygon fill="white" stroke="#bfbfbf" points="136,-20.75 0,-20.75 0,0 136,0 136,-20.75"/>
<text xml:space="preserve" text-anchor="middle" x="68" y="-7.25" font-family="Helvetica,sans-Serif" font-size="10.00">spdk_nvme_cdata_fuses</text>
</a>
</g>
</g>
<!-- Node13&#45;&gt;Node10 -->
<g id="edge8_Node000010_Node000013" class="edge">
<title>Node13&#45;&gt;Node10</title>
<g id="a_edge8_Node000010_Node000013"><a xlink:title=" ">
<path fill="none" stroke="#9a32cd" stroke-dasharray="5,2" d="M147.39,-16.51C178.33,-19.55 214.1,-23.84 246.25,-29.62 263.52,-32.73 282.37,-37.32 298.34,-41.56"/>
<polygon fill="#9a32cd" stroke="#9a32cd" points="148.02,-13.06 137.74,-15.59 147.36,-20.02 148.02,-13.06"/>
</a>
</g>
<text xml:space="preserve" text-anchor="start" x="187" y="-35.88" font-family="Helvetica,sans-Serif" font-size="10.00" fill="grey">fuses</text>
</g>
</g>
</svg>
