<?xml version="1.0" encoding="UTF-8" standalone="no"?>
<!DOCTYPE svg PUBLIC "-//W3C//DTD SVG 1.1//EN"
 "http://www.w3.org/Graphics/SVG/1.1/DTD/svg11.dtd">
<!-- Generated by graphviz version 13.1.2 (20250808.2320)
 -->
<!-- Title: spdk_trace_file Pages: 1 -->
<svg width="393pt" height="180pt"
 viewBox="0.00 0.00 393.00 180.00" xmlns="http://www.w3.org/2000/svg" xmlns:xlink="http://www.w3.org/1999/xlink">

<svg id="main" version="1.1" xmlns="http://www.w3.org/2000/svg" xmlns:xlink="http://www.w3.org/1999/xlink" xml:space="preserve">

<style type="text/css"><![CDATA[
.node, .edge {opacity: 0.7;}
.node.selected, .edge.selected {opacity: 1;}
.edge:hover path { stroke: red; }
.edge:hover polygon { stroke: red; fill: red; }
]]></style>
<script type="application/ecmascript" xlink:href="svg.min.js"/>
<svg id="graph" class="graph">
<g id="graph0" class="graph" transform="scale(1 1) rotate(0) translate(4 175.75)">
<title>spdk_trace_file</title>
<!-- Node1 -->
<g id="Node000001" class="node">
<title>Node1</title>
<g id="a_Node000001"><a xlink:title=" ">
<polygon fill="#999999" stroke="#666666" points="246.5,-20.75 157,-20.75 157,0 246.5,0 246.5,-20.75"/>
<text xml:space="preserve" text-anchor="middle" x="201.75" y="-7.25" font-family="Helvetica,sans-Serif" font-size="10.00">spdk_trace_file</text>
</a>
</g>
</g>
<!-- Node2 -->
<g id="Node000002" class="node">
<title>Node2</title>
<g id="a_Node000002"><a xlink:href="structspdk__trace__owner__type.html" target="_top" xlink:title=" ">
<polygon fill="white" stroke="#bfbfbf" points="131.5,-96.25 0,-96.25 0,-75.5 131.5,-75.5 131.5,-96.25"/>
<text xml:space="preserve" text-anchor="middle" x="65.75" y="-82.75" font-family="Helvetica,sans-Serif" font-size="10.00">spdk_trace_owner_type</text>
</a>
</g>
</g>
<!-- Node2&#45;&gt;Node1 -->
<g id="edge1_Node000001_Node000002" class="edge">
<title>Node2&#45;&gt;Node1</title>
<g id="a_edge1_Node000001_Node000002"><a xlink:title=" ">
<path fill="none" stroke="#9a32cd" stroke-dasharray="5,2" d="M87.7,-68.54C100.92,-59.14 118.32,-47.48 134.75,-38.75 147.29,-32.09 161.81,-25.97 174.12,-21.22"/>
<polygon fill="#9a32cd" stroke="#9a32cd" points="85.76,-65.63 79.72,-74.33 89.87,-71.3 85.76,-65.63"/>
</a>
</g>
<text xml:space="preserve" text-anchor="start" x="137.75" y="-45" font-family="Helvetica,sans-Serif" font-size="10.00" fill="grey">owner_type</text>
</g>
<!-- Node3 -->
<g id="Node000003" class="node">
<title>Node3</title>
<g id="a_Node000003"><a xlink:href="structspdk__trace__object.html" target="_top" xlink:title=" ">
<polygon fill="white" stroke="#bfbfbf" points="254,-96.25 149.5,-96.25 149.5,-75.5 254,-75.5 254,-96.25"/>
<text xml:space="preserve" text-anchor="middle" x="201.75" y="-82.75" font-family="Helvetica,sans-Serif" font-size="10.00">spdk_trace_object</text>
</a>
</g>
</g>
<!-- Node3&#45;&gt;Node1 -->
<g id="edge2_Node000001_Node000003" class="edge">
<title>Node3&#45;&gt;Node1</title>
<g id="a_edge2_Node000001_Node000003"><a xlink:title=" ">
<path fill="none" stroke="#9a32cd" stroke-dasharray="5,2" d="M201.75,-63.76C201.75,-49.76 201.75,-32.05 201.75,-21.22"/>
<polygon fill="#9a32cd" stroke="#9a32cd" points="198.25,-63.75 201.75,-73.75 205.25,-63.75 198.25,-63.75"/>
</a>
</g>
<text xml:space="preserve" text-anchor="start" x="204.75" y="-45" font-family="Helvetica,sans-Serif" font-size="10.00" fill="grey">object</text>
</g>
<!-- Node4 -->
<g id="Node000004" class="node">
<title>Node4</title>
<g id="a_Node000004"><a xlink:href="structspdk__trace__tpoint.html" target="_top" xlink:title=" ">
<polygon fill="white" stroke="#bfbfbf" points="375.25,-96.25 272.25,-96.25 272.25,-75.5 375.25,-75.5 375.25,-96.25"/>
<text xml:space="preserve" text-anchor="middle" x="323.75" y="-82.75" font-family="Helvetica,sans-Serif" font-size="10.00">spdk_trace_tpoint</text>
</a>
</g>
</g>
<!-- Node4&#45;&gt;Node1 -->
<g id="edge3_Node000001_Node000004" class="edge">
<title>Node4&#45;&gt;Node1</title>
<g id="a_edge3_Node000001_Node000004"><a xlink:title=" ">
<path fill="none" stroke="#9a32cd" stroke-dasharray="5,2" d="M297.96,-69.34C273.81,-54.79 238.47,-33.5 218.02,-21.18"/>
<polygon fill="#9a32cd" stroke="#9a32cd" points="295.88,-72.17 306.25,-74.33 299.49,-66.18 295.88,-72.17"/>
</a>
</g>
<text xml:space="preserve" text-anchor="start" x="280.27" y="-45" font-family="Helvetica,sans-Serif" font-size="10.00" fill="grey">tpoint</text>
</g>
<!-- Node5 -->
<g id="Node000005" class="node">
<title>Node5</title>
<g id="a_Node000005"><a xlink:href="structspdk__trace__argument.html" target="_top" xlink:title=" ">
<polygon fill="white" stroke="#bfbfbf" points="384.62,-171.75 262.88,-171.75 262.88,-151 384.62,-151 384.62,-171.75"/>
<text xml:space="preserve" text-anchor="middle" x="323.75" y="-158.25" font-family="Helvetica,sans-Serif" font-size="10.00">spdk_trace_argument</text>
</a>
</g>
</g>
<!-- Node5&#45;&gt;Node4 -->
<g id="edge4_Node000004_Node000005" class="edge">
<title>Node5&#45;&gt;Node4</title>
<g id="a_edge4_Node000004_Node000005"><a xlink:title=" ">
<path fill="none" stroke="#9a32cd" stroke-dasharray="5,2" d="M323.75,-139.26C323.75,-125.26 323.75,-107.55 323.75,-96.72"/>
<polygon fill="#9a32cd" stroke="#9a32cd" points="320.25,-139.25 323.75,-149.25 327.25,-139.25 320.25,-139.25"/>
</a>
</g>
<text xml:space="preserve" text-anchor="start" x="326.75" y="-120.5" font-family="Helvetica,sans-Serif" font-size="10.00" fill="grey">args</text>
</g>
</g>
</svg>
</svg>

<style type='text/css'>
<![CDATA[
[data-mouse-over-selected='false'] { opacity: 0.7; }
[data-mouse-over-selected='true']  { opacity: 1.0; }
]]>
</style>
<script type="application/ecmascript"><![CDATA[
document.addEventListener('DOMContentLoaded', (event) => {
  highlightEdges();
  highlightAdjacentNodes();
});
]]></script>
</svg>
