<?xml version="1.0" encoding="UTF-8" standalone="no"?>
<!DOCTYPE svg PUBLIC "-//W3C//DTD SVG 1.1//EN"
 "http://www.w3.org/Graphics/SVG/1.1/DTD/svg11.dtd">
<!-- Generated by graphviz version 13.1.2 (20250808.2320)
 -->
<!-- Title: spdk_nvmf_transport_opts Pages: 1 -->
<svg width="398pt" height="104pt"
 viewBox="0.00 0.00 398.00 104.00" xmlns="http://www.w3.org/2000/svg" xmlns:xlink="http://www.w3.org/1999/xlink">
<g id="graph0" class="graph" transform="scale(1 1) rotate(0) translate(4 100.25)">
<title>spdk_nvmf_transport_opts</title>
<!-- Node1 -->
<g id="Node000001" class="node">
<title>Node1</title>
<g id="a_Node000001"><a xlink:title=" ">
<polygon fill="#999999" stroke="#666666" points="242.38,-20.75 96.62,-20.75 96.62,0 242.38,0 242.38,-20.75"/>
<text xml:space="preserve" text-anchor="middle" x="169.5" y="-7.25" font-family="Helvetica,sans-Serif" font-size="10.00">spdk_nvmf_transport_opts</text>
</a>
</g>
</g>
<!-- Node2 -->
<g id="Node000002" class="node">
<title>Node2</title>
<g id="a_Node000002"><a xlink:href="structspdk__json__val.html" target="_top" xlink:title=" ">
<polygon fill="white" stroke="#bfbfbf" points="85,-96.25 0,-96.25 0,-75.5 85,-75.5 85,-96.25"/>
<text xml:space="preserve" text-anchor="middle" x="42.5" y="-82.75" font-family="Helvetica,sans-Serif" font-size="10.00">spdk_json_val</text>
</a>
</g>
</g>
<!-- Node2&#45;&gt;Node1 -->
<g id="edge1_Node000001_Node000002" class="edge">
<title>Node2&#45;&gt;Node1</title>
<g id="a_edge1_Node000001_Node000002"><a xlink:title=" ">
<path fill="none" stroke="#9a32cd" stroke-dasharray="5,2" d="M51.5,-65.25C56.66,-55.99 63.97,-45.51 73.25,-38.75 84.13,-30.82 97.24,-25.18 110.24,-21.17"/>
<polygon fill="#9a32cd" stroke="#9a32cd" points="48.51,-63.42 47.13,-73.92 54.76,-66.57 48.51,-63.42"/>
</a>
</g>
<text xml:space="preserve" text-anchor="start" x="76.25" y="-45" font-family="Helvetica,sans-Serif" font-size="10.00" fill="grey">transport_specific</text>
</g>
<!-- Node3 -->
<g id="Node000003" class="node">
<title>Node3</title>
<g id="a_Node000003"><a xlink:href="structspdk__nvme__cdata__oncs.html" target="_top" xlink:title="Identify Controller data Optional NVM Command Support.">
<polygon fill="white" stroke="#666666" points="235.62,-96.25 103.38,-96.25 103.38,-75.5 235.62,-75.5 235.62,-96.25"/>
<text xml:space="preserve" text-anchor="middle" x="169.5" y="-82.75" font-family="Helvetica,sans-Serif" font-size="10.00">spdk_nvme_cdata_oncs</text>
</a>
</g>
</g>
<!-- Node3&#45;&gt;Node1 -->
<g id="edge2_Node000001_Node000003" class="edge">
<title>Node3&#45;&gt;Node1</title>
<g id="a_edge2_Node000001_Node000003"><a xlink:title=" ">
<path fill="none" stroke="#9a32cd" stroke-dasharray="5,2" d="M169.5,-63.76C169.5,-49.76 169.5,-32.05 169.5,-21.22"/>
<polygon fill="#9a32cd" stroke="#9a32cd" points="166,-63.75 169.5,-73.75 173,-63.75 166,-63.75"/>
</a>
</g>
<text xml:space="preserve" text-anchor="start" x="172.5" y="-45" font-family="Helvetica,sans-Serif" font-size="10.00" fill="grey">oncs</text>
</g>
<!-- Node4 -->
<g id="Node000004" class="node">
<title>Node4</title>
<g id="a_Node000004"><a xlink:href="structspdk__nvme__cdata__fuses.html" target="_top" xlink:title=" ">
<polygon fill="white" stroke="#bfbfbf" points="389.5,-96.25 253.5,-96.25 253.5,-75.5 389.5,-75.5 389.5,-96.25"/>
<text xml:space="preserve" text-anchor="middle" x="321.5" y="-82.75" font-family="Helvetica,sans-Serif" font-size="10.00">spdk_nvme_cdata_fuses</text>
</a>
</g>
</g>
<!-- Node4&#45;&gt;Node1 -->
<g id="edge3_Node000001_Node000004" class="edge">
<title>Node4&#45;&gt;Node1</title>
<g id="a_edge3_Node000001_Node000004"><a xlink:title=" ">
<path fill="none" stroke="#9a32cd" stroke-dasharray="5,2" d="M290.97,-70.11C260.86,-55.55 215.7,-33.72 189.77,-21.18"/>
<polygon fill="#9a32cd" stroke="#9a32cd" points="289.43,-73.25 299.95,-74.46 292.47,-66.95 289.43,-73.25"/>
</a>
</g>
<text xml:space="preserve" text-anchor="start" x="266.58" y="-45" font-family="Helvetica,sans-Serif" font-size="10.00" fill="grey">fuses</text>
</g>
</g>
</svg>
