<?xml version="1.0" encoding="UTF-8" standalone="no"?>
<!DOCTYPE svg PUBLIC "-//W3C//DTD SVG 1.1//EN"
 "http://www.w3.org/Graphics/SVG/1.1/DTD/svg11.dtd">
<!-- Generated by graphviz version 13.1.2 (20250808.2320)
 -->
<!-- Title: spdk_bdev_io_internal_fields Pages: 1 -->
<svg width="961pt" height="386pt"
 viewBox="0.00 0.00 961.00 386.00" xmlns="http://www.w3.org/2000/svg" xmlns:xlink="http://www.w3.org/1999/xlink">
<g id="graph0" class="graph" transform="scale(1 1) rotate(0) translate(4 382.19)">
<title>spdk_bdev_io_internal_fields</title>
<!-- Node1 -->
<g id="Node000001" class="node">
<title>Node1</title>
<g id="a_Node000001"><a xlink:title="Fields that are used internally by the bdev subsystem.">
<polygon fill="#999999" stroke="#666666" points="518.25,-260.5 392.75,-260.5 392.75,-227 518.25,-227 518.25,-260.5"/>
<text xml:space="preserve" text-anchor="start" x="400.75" y="-247" font-family="Helvetica,sans-Serif" font-size="10.00">spdk_bdev_io_internal</text>
<text xml:space="preserve" text-anchor="middle" x="455.5" y="-234.25" font-family="Helvetica,sans-Serif" font-size="10.00">_fields</text>
</a>
</g>
</g>
<!-- Node2 -->
<g id="Node000002" class="node">
<title>Node2</title>
<g id="a_Node000002"><a xlink:href="structspdk__bdev__io.html" target="_top" xlink:title=" ">
<polygon fill="white" stroke="#bfbfbf" points="736.75,-173.12 654,-173.12 654,-152.38 736.75,-152.38 736.75,-173.12"/>
<text xml:space="preserve" text-anchor="middle" x="695.38" y="-159.62" font-family="Helvetica,sans-Serif" font-size="10.00">spdk_bdev_io</text>
</a>
</g>
</g>
<!-- Node1&#45;&gt;Node2 -->
<g id="edge9_Node000002_Node000001" class="edge">
<title>Node1&#45;&gt;Node2</title>
<g id="a_edge9_Node000002_Node000001"><a xlink:title=" ">
<path fill="none" stroke="#9a32cd" stroke-dasharray="5,2" d="M513.71,-263.85C550.83,-273.28 599,-278.44 636,-257.75 668.78,-239.42 685.4,-194.31 691.53,-173.54"/>
<polygon fill="#9a32cd" stroke="#9a32cd" points="515.09,-260.6 504.52,-261.35 513.25,-267.36 515.09,-260.6"/>
</a>
</g>
<text xml:space="preserve" text-anchor="start" x="576.75" y="-278.34" font-family="Helvetica,sans-Serif" font-size="10.00" fill="grey">internal</text>
</g>
<!-- Node2&#45;&gt;Node1 -->
<g id="edge1_Node000001_Node000002" class="edge">
<title>Node2&#45;&gt;Node1</title>
<g id="a_edge1_Node000001_Node000002"><a xlink:title=" ">
<path fill="none" stroke="#9a32cd" stroke-dasharray="5,2" d="M653.09,-177.22C647.36,-179.13 641.55,-181.02 636,-182.75 600.3,-193.87 590.47,-193.66 555,-205.5 536.03,-211.83 515.36,-219.7 497.87,-226.66"/>
<polygon fill="#9a32cd" stroke="#9a32cd" points="654.1,-180.57 662.45,-174.04 651.85,-173.94 654.1,-180.57"/>
</a>
</g>
<text xml:space="preserve" text-anchor="start" x="558.75" y="-245.25" font-family="Helvetica,sans-Serif" font-size="10.00" fill="grey">cb</text>
<text xml:space="preserve" text-anchor="start" x="558.75" y="-228.5" font-family="Helvetica,sans-Serif" font-size="10.00" fill="grey">get_buf_cb</text>
<text xml:space="preserve" text-anchor="start" x="558.75" y="-211.75" font-family="Helvetica,sans-Serif" font-size="10.00" fill="grey">stored_user_cb</text>
</g>
<!-- Node22 -->
<g id="Node000022" class="node">
<title>Node22</title>
<g id="a_Node000022"><a xlink:href="structspdk__bdev__io__abort__params.html" target="_top" xlink:title=" ">
<polygon fill="white" stroke="#bfbfbf" points="953,-179.5 839.5,-179.5 839.5,-146 953,-146 953,-179.5"/>
<text xml:space="preserve" text-anchor="start" x="847.5" y="-166" font-family="Helvetica,sans-Serif" font-size="10.00">spdk_bdev_io_abort</text>
<text xml:space="preserve" text-anchor="middle" x="896.25" y="-153.25" font-family="Helvetica,sans-Serif" font-size="10.00">_params</text>
</a>
</g>
</g>
<!-- Node2&#45;&gt;Node22 -->
<g id="edge6_Node000022_Node000002" class="edge">
<title>Node2&#45;&gt;Node22</title>
<g id="a_edge6_Node000022_Node000002"><a xlink:title=" ">
<path fill="none" stroke="#9a32cd" stroke-dasharray="5,2" d="M748.6,-162.75C776.44,-162.75 810.72,-162.75 839.13,-162.75"/>
<polygon fill="#9a32cd" stroke="#9a32cd" points="748.61,-159.25 738.61,-162.75 748.61,-166.25 748.61,-159.25"/>
</a>
</g>
<text xml:space="preserve" text-anchor="start" x="757.75" y="-169" font-family="Helvetica,sans-Serif" font-size="10.00" fill="grey">bio_to_abort</text>
</g>
<!-- Node3 -->
<g id="Node000003" class="node">
<title>Node3</title>
<g id="a_Node000003"><a xlink:href="structspdk__bdev.html" target="_top" xlink:title=" ">
<polygon fill="white" stroke="orangered" points="68.5,-305.12 0,-305.12 0,-284.38 68.5,-284.38 68.5,-305.12"/>
<text xml:space="preserve" text-anchor="middle" x="34.25" y="-291.62" font-family="Helvetica,sans-Serif" font-size="10.00">spdk_bdev</text>
</a>
</g>
</g>
<!-- Node3&#45;&gt;Node2 -->
<g id="edge2_Node000002_Node000003" class="edge">
<title>Node3&#45;&gt;Node2</title>
<g id="a_edge2_Node000002_Node000003"><a xlink:title=" ">
<path fill="none" stroke="#9a32cd" stroke-dasharray="5,2" d="M76.7,-308.96C180.83,-341.89 457.79,-412.02 636,-294.75 678.7,-266.65 690.42,-199.51 693.41,-173.4"/>
<polygon fill="#9a32cd" stroke="#9a32cd" points="78.05,-305.72 67.46,-305.99 75.91,-312.38 78.05,-305.72"/>
</a>
</g>
<text xml:space="preserve" text-anchor="start" x="312.12" y="-365.69" font-family="Helvetica,sans-Serif" font-size="10.00" fill="grey">bdev</text>
</g>
<!-- Node52 -->
<g id="Node000052" class="node">
<title>Node52</title>
<g id="a_Node000052"><a xlink:href="structspdk__bdev__io__wait__entry.html" target="_top" xlink:title="Structure to register a callback when an spdk_bdev_io becomes available.">
<polygon fill="white" stroke="#666666" points="274.25,-286.12 134.5,-286.12 134.5,-265.38 274.25,-265.38 274.25,-286.12"/>
<text xml:space="preserve" text-anchor="middle" x="204.38" y="-272.62" font-family="Helvetica,sans-Serif" font-size="10.00">spdk_bdev_io_wait_entry</text>
</a>
</g>
</g>
<!-- Node3&#45;&gt;Node52 -->
<g id="edge13_Node000052_Node000003" class="edge">
<title>Node3&#45;&gt;Node52</title>
<g id="a_edge13_Node000052_Node000003"><a xlink:title=" ">
<path fill="none" stroke="#9a32cd" stroke-dasharray="5,2" d="M79.95,-282.15C82.16,-281.72 84.35,-281.33 86.5,-281 101.86,-278.62 118.47,-277.2 134.22,-276.37"/>
<polygon fill="#9a32cd" stroke="#9a32cd" points="79.42,-278.69 70.41,-284.27 80.94,-285.52 79.42,-278.69"/>
</a>
</g>
<text xml:space="preserve" text-anchor="start" x="89.5" y="-287.25" font-family="Helvetica,sans-Serif" font-size="10.00" fill="grey">bdev</text>
</g>
<!-- Node16 -->
<g id="Node000016" class="node">
<title>Node16</title>
<g id="a_Node000016"><a xlink:href="structspdk__bdev__io__block__params.html" target="_top" xlink:title=" ">
<polygon fill="white" stroke="orangered" points="512.62,-189.5 398.38,-189.5 398.38,-156 512.62,-156 512.62,-189.5"/>
<text xml:space="preserve" text-anchor="start" x="406.38" y="-176" font-family="Helvetica,sans-Serif" font-size="10.00">spdk_bdev_io_block</text>
<text xml:space="preserve" text-anchor="middle" x="455.5" y="-163.25" font-family="Helvetica,sans-Serif" font-size="10.00">_params</text>
</a>
</g>
</g>
<!-- Node16&#45;&gt;Node2 -->
<g id="edge3_Node000002_Node000016" class="edge">
<title>Node16&#45;&gt;Node2</title>
<g id="a_edge3_Node000002_Node000016"><a xlink:title=" ">
<path fill="none" stroke="#9a32cd" stroke-dasharray="5,2" d="M524.4,-166.01C534.65,-165.19 545.1,-164.48 555,-164 588.23,-162.38 625.97,-162.14 653.79,-162.26"/>
<polygon fill="#9a32cd" stroke="#9a32cd" points="524.15,-162.51 514.47,-166.83 524.73,-169.49 524.15,-162.51"/>
</a>
</g>
<text xml:space="preserve" text-anchor="start" x="583.5" y="-170.25" font-family="Helvetica,sans-Serif" font-size="10.00" fill="grey">bdev</text>
</g>
<!-- Node21 -->
<g id="Node000021" class="node">
<title>Node21</title>
<g id="a_Node000021"><a xlink:href="structspdk__bdev__io__reset__params.html" target="_top" xlink:title=" ">
<polygon fill="white" stroke="#bfbfbf" points="511.88,-137.5 399.12,-137.5 399.12,-104 511.88,-104 511.88,-137.5"/>
<text xml:space="preserve" text-anchor="start" x="407.12" y="-124" font-family="Helvetica,sans-Serif" font-size="10.00">spdk_bdev_io_reset</text>
<text xml:space="preserve" text-anchor="middle" x="455.5" y="-111.25" font-family="Helvetica,sans-Serif" font-size="10.00">_params</text>
</a>
</g>
</g>
<!-- Node21&#45;&gt;Node2 -->
<g id="edge4_Node000002_Node000021" class="edge">
<title>Node21&#45;&gt;Node2</title>
<g id="a_edge4_Node000002_Node000021"><a xlink:title=" ">
<path fill="none" stroke="#9a32cd" stroke-dasharray="5,2" d="M523.44,-123.02C557.53,-125.32 599.4,-129.89 636,-139 648.32,-142.06 661.46,-147.23 672.15,-151.96"/>
<polygon fill="#9a32cd" stroke="#9a32cd" points="523.9,-119.54 513.7,-122.42 523.47,-126.53 523.9,-119.54"/>
</a>
</g>
<text xml:space="preserve" text-anchor="start" x="583.12" y="-145.25" font-family="Helvetica,sans-Serif" font-size="10.00" fill="grey">reset</text>
</g>
<!-- Node22&#45;&gt;Node2 -->
<g id="edge5_Node000002_Node000022" class="edge">
<title>Node22&#45;&gt;Node2</title>
<g id="a_edge5_Node000002_Node000022"><a xlink:title=" ">
<path fill="none" stroke="#9a32cd" stroke-dasharray="5,2" d="M828.07,-143.98C825.86,-143.62 823.67,-143.29 821.5,-143 792.09,-139.13 784.02,-138.18 754.75,-143 743.88,-144.79 732.3,-148.34 722.35,-151.94"/>
<polygon fill="#9a32cd" stroke="#9a32cd" points="827.22,-147.38 837.7,-145.83 828.54,-140.51 827.22,-147.38"/>
</a>
</g>
<text xml:space="preserve" text-anchor="start" x="775.38" y="-149.25" font-family="Helvetica,sans-Serif" font-size="10.00" fill="grey">abort</text>
</g>
<!-- Node23 -->
<g id="Node000023" class="node">
<title>Node23</title>
<g id="a_Node000023"><a xlink:href="structspdk__bdev__io__nvme__passthru__params.html" target="_top" xlink:title=" ">
<polygon fill="white" stroke="orangered" points="537,-85.5 374,-85.5 374,-52 537,-52 537,-85.5"/>
<text xml:space="preserve" text-anchor="start" x="382" y="-72" font-family="Helvetica,sans-Serif" font-size="10.00">spdk_bdev_io_nvme_passthru</text>
<text xml:space="preserve" text-anchor="middle" x="455.5" y="-59.25" font-family="Helvetica,sans-Serif" font-size="10.00">_params</text>
</a>
</g>
</g>
<!-- Node23&#45;&gt;Node2 -->
<g id="edge7_Node000002_Node000023" class="edge">
<title>Node23&#45;&gt;Node2</title>
<g id="a_edge7_Node000002_Node000023"><a xlink:title=" ">
<path fill="none" stroke="#9a32cd" stroke-dasharray="5,2" d="M548.38,-75.38C577.67,-80.29 609.36,-88.69 636,-103 658.23,-114.94 677.21,-138.25 687.09,-151.96"/>
<polygon fill="#9a32cd" stroke="#9a32cd" points="549.21,-71.97 538.79,-73.9 548.14,-78.89 549.21,-71.97"/>
</a>
</g>
<text xml:space="preserve" text-anchor="start" x="558" y="-109.25" font-family="Helvetica,sans-Serif" font-size="10.00" fill="grey">nvme_passthru</text>
</g>
<!-- Node50 -->
<g id="Node000050" class="node">
<title>Node50</title>
<g id="a_Node000050"><a xlink:href="structspdk__bdev__io__zone__mgmt__params.html" target="_top" xlink:title=" ">
<polygon fill="white" stroke="#bfbfbf" points="528.38,-33.5 382.62,-33.5 382.62,0 528.38,0 528.38,-33.5"/>
<text xml:space="preserve" text-anchor="start" x="390.62" y="-20" font-family="Helvetica,sans-Serif" font-size="10.00">spdk_bdev_io_zone_mgmt</text>
<text xml:space="preserve" text-anchor="middle" x="455.5" y="-7.25" font-family="Helvetica,sans-Serif" font-size="10.00">_params</text>
</a>
</g>
</g>
<!-- Node50&#45;&gt;Node2 -->
<g id="edge8_Node000002_Node000050" class="edge">
<title>Node50&#45;&gt;Node2</title>
<g id="a_edge8_Node000002_Node000050"><a xlink:title=" ">
<path fill="none" stroke="#9a32cd" stroke-dasharray="5,2" d="M540.09,-19.17C572.65,-23.71 608.63,-33.56 636,-54 669.82,-79.26 686.16,-130.04 691.89,-152.11"/>
<polygon fill="#9a32cd" stroke="#9a32cd" points="540.6,-15.7 530.24,-17.96 539.74,-22.65 540.6,-15.7"/>
</a>
</g>
<text xml:space="preserve" text-anchor="start" x="566.62" y="-60.25" font-family="Helvetica,sans-Serif" font-size="10.00" fill="grey">zone_mgmt</text>
</g>
<!-- Node51 -->
<g id="Node000051" class="node">
<title>Node51</title>
<g id="a_Node000051"><a xlink:href="structspdk__iobuf__entry.html" target="_top" xlink:title="iobuf queue entry">
<polygon fill="white" stroke="#666666" points="254.38,-210.12 154.38,-210.12 154.38,-189.38 254.38,-189.38 254.38,-210.12"/>
<text xml:space="preserve" text-anchor="middle" x="204.38" y="-196.62" font-family="Helvetica,sans-Serif" font-size="10.00">spdk_iobuf_entry</text>
</a>
</g>
</g>
<!-- Node51&#45;&gt;Node1 -->
<g id="edge10_Node000001_Node000051" class="edge">
<title>Node51&#45;&gt;Node1</title>
<g id="a_edge10_Node000001_Node000051"><a xlink:title=" ">
<path fill="none" stroke="#9a32cd" stroke-dasharray="5,2" d="M265.63,-210.39C304.08,-217.18 353.79,-225.96 392.56,-232.81"/>
<polygon fill="#9a32cd" stroke="#9a32cd" points="266.54,-207 256.08,-208.71 265.32,-213.89 266.54,-207"/>
</a>
</g>
<text xml:space="preserve" text-anchor="start" x="311.75" y="-231.94" font-family="Helvetica,sans-Serif" font-size="10.00" fill="grey">iobuf</text>
</g>
<!-- Node51&#45;&gt;Node51 -->
<g id="edge11_Node000051_Node000051" class="edge">
<title>Node51&#45;&gt;Node51</title>
<g id="a_edge11_Node000051_Node000051"><a xlink:title=" ">
<path fill="none" stroke="#9a32cd" stroke-dasharray="5,2" d="M186.49,-221.94C189.02,-225.6 194.98,-228.12 204.38,-228.12 222.06,-228.12 227.58,-219.18 220.95,-210.52"/>
<polygon fill="#9a32cd" stroke="#9a32cd" points="189.96,-222.36 187.63,-212.03 183.01,-221.56 189.96,-222.36"/>
</a>
</g>
<text xml:space="preserve" text-anchor="start" x="191.25" y="-234.38" font-family="Helvetica,sans-Serif" font-size="10.00" fill="grey">cb_fn</text>
</g>
<!-- Node52&#45;&gt;Node1 -->
<g id="edge12_Node000001_Node000052" class="edge">
<title>Node52&#45;&gt;Node1</title>
<g id="a_edge12_Node000001_Node000052"><a xlink:title=" ">
<path fill="none" stroke="#9a32cd" stroke-dasharray="5,2" d="M285.5,-265.46C320.19,-261 360.17,-255.87 392.54,-251.71"/>
<polygon fill="#9a32cd" stroke="#9a32cd" points="285.41,-261.94 275.94,-266.69 286.31,-268.88 285.41,-261.94"/>
</a>
</g>
<text xml:space="preserve" text-anchor="start" x="295.25" y="-270.74" font-family="Helvetica,sans-Serif" font-size="10.00" fill="grey">waitq_entry</text>
</g>
</g>
</svg>
