<?xml version="1.0" encoding="UTF-8" standalone="no"?>
<!DOCTYPE svg PUBLIC "-//W3C//DTD SVG 1.1//EN"
 "http://www.w3.org/Graphics/SVG/1.1/DTD/svg11.dtd">
<!-- Generated by graphviz version 13.1.2 (20250808.2320)
 -->
<!-- Title: spdk_bdev_io_abort_params Pages: 1 -->
<svg width="612pt" height="323pt"
 viewBox="0.00 0.00 612.00 323.00" xmlns="http://www.w3.org/2000/svg" xmlns:xlink="http://www.w3.org/1999/xlink">
<g id="graph0" class="graph" transform="scale(1 1) rotate(0) translate(4 318.83)">
<title>spdk_bdev_io_abort_params</title>
<!-- Node1 -->
<g id="Node000001" class="node">
<title>Node1</title>
<g id="a_Node000001"><a xlink:title=" ">
<polygon fill="#999999" stroke="#666666" points="138.25,-297.5 24.75,-297.5 24.75,-264 138.25,-264 138.25,-297.5"/>
<text xml:space="preserve" text-anchor="start" x="32.75" y="-284" font-family="Helvetica,sans-Serif" font-size="10.00">spdk_bdev_io_abort</text>
<text xml:space="preserve" text-anchor="middle" x="81.5" y="-271.25" font-family="Helvetica,sans-Serif" font-size="10.00">_params</text>
</a>
</g>
</g>
<!-- Node2 -->
<g id="Node000002" class="node">
<title>Node2</title>
<g id="a_Node000002"><a xlink:href="structspdk__bdev__io.html" target="_top" xlink:title=" ">
<polygon fill="white" stroke="#bfbfbf" points="362.75,-183.12 280,-183.12 280,-162.38 362.75,-162.38 362.75,-183.12"/>
<text xml:space="preserve" text-anchor="middle" x="321.38" y="-169.62" font-family="Helvetica,sans-Serif" font-size="10.00">spdk_bdev_io</text>
</a>
</g>
</g>
<!-- Node1&#45;&gt;Node2 -->
<g id="edge5_Node000002_Node000001" class="edge">
<title>Node1&#45;&gt;Node2</title>
<g id="a_edge5_Node000002_Node000001"><a xlink:title=" ">
<path fill="none" stroke="#9a32cd" stroke-dasharray="5,2" d="M149.96,-294.52C185.66,-298.21 228.84,-296.66 262,-276.75 296.97,-255.75 312.69,-205.48 318.07,-183.43"/>
<polygon fill="#9a32cd" stroke="#9a32cd" points="150.51,-291.06 140.16,-293.34 149.67,-298.01 150.51,-291.06"/>
</a>
</g>
<text xml:space="preserve" text-anchor="start" x="208.75" y="-302.33" font-family="Helvetica,sans-Serif" font-size="10.00" fill="grey">abort</text>
</g>
<!-- Node2&#45;&gt;Node1 -->
<g id="edge1_Node000001_Node000002" class="edge">
<title>Node2&#45;&gt;Node1</title>
<g id="a_edge1_Node000001_Node000002"><a xlink:title=" ">
<path fill="none" stroke="#9a32cd" stroke-dasharray="5,2" d="M305.16,-191.93C294.34,-204.37 278.8,-220.02 262,-229.75 240.98,-241.93 182.96,-257.35 138.53,-268.02"/>
<polygon fill="#9a32cd" stroke="#9a32cd" points="307.76,-194.27 311.48,-184.35 302.39,-189.78 307.76,-194.27"/>
</a>
</g>
<text xml:space="preserve" text-anchor="start" x="191.12" y="-262.93" font-family="Helvetica,sans-Serif" font-size="10.00" fill="grey">bio_to_abort</text>
</g>
<!-- Node50 -->
<g id="Node000050" class="node">
<title>Node50</title>
<g id="a_Node000050"><a xlink:href="structspdk__bdev__io__internal__fields.html" target="_top" xlink:title="Fields that are used internally by the bdev subsystem.">
<polygon fill="#fff0f0" stroke="red" points="603.75,-189.5 478.25,-189.5 478.25,-156 603.75,-156 603.75,-189.5"/>
<text xml:space="preserve" text-anchor="start" x="486.25" y="-176" font-family="Helvetica,sans-Serif" font-size="10.00">spdk_bdev_io_internal</text>
<text xml:space="preserve" text-anchor="middle" x="541" y="-163.25" font-family="Helvetica,sans-Serif" font-size="10.00">_fields</text>
</a>
</g>
</g>
<!-- Node2&#45;&gt;Node50 -->
<g id="edge9_Node000050_Node000002" class="edge">
<title>Node2&#45;&gt;Node50</title>
<g id="a_edge9_Node000050_Node000002"><a xlink:title=" ">
<path fill="none" stroke="#9a32cd" stroke-dasharray="5,2" d="M374.53,-172.75C405.67,-172.75 445.39,-172.75 478.11,-172.75"/>
<polygon fill="#9a32cd" stroke="#9a32cd" points="374.57,-169.25 364.57,-172.75 374.57,-176.25 374.57,-169.25"/>
</a>
</g>
<text xml:space="preserve" text-anchor="start" x="383.75" y="-212.5" font-family="Helvetica,sans-Serif" font-size="10.00" fill="grey">cb</text>
<text xml:space="preserve" text-anchor="start" x="383.75" y="-195.75" font-family="Helvetica,sans-Serif" font-size="10.00" fill="grey">get_buf_cb</text>
<text xml:space="preserve" text-anchor="start" x="383.75" y="-179" font-family="Helvetica,sans-Serif" font-size="10.00" fill="grey">stored_user_cb</text>
</g>
<!-- Node3 -->
<g id="Node000003" class="node">
<title>Node3</title>
<g id="a_Node000003"><a xlink:href="structspdk__bdev.html" target="_top" xlink:title=" ">
<polygon fill="white" stroke="orangered" points="115.75,-228.12 47.25,-228.12 47.25,-207.38 115.75,-207.38 115.75,-228.12"/>
<text xml:space="preserve" text-anchor="middle" x="81.5" y="-214.62" font-family="Helvetica,sans-Serif" font-size="10.00">spdk_bdev</text>
</a>
</g>
</g>
<!-- Node3&#45;&gt;Node2 -->
<g id="edge2_Node000002_Node000003" class="edge">
<title>Node3&#45;&gt;Node2</title>
<g id="a_edge2_Node000002_Node000003"><a xlink:title=" ">
<path fill="none" stroke="#9a32cd" stroke-dasharray="5,2" d="M127.21,-213.93C163.8,-210.22 216.71,-203.56 262,-192.75 272,-190.36 282.71,-186.95 292.19,-183.62"/>
<polygon fill="#9a32cd" stroke="#9a32cd" points="127.06,-210.42 117.44,-214.88 127.74,-217.39 127.06,-210.42"/>
</a>
</g>
<text xml:space="preserve" text-anchor="start" x="209.5" y="-213.34" font-family="Helvetica,sans-Serif" font-size="10.00" fill="grey">bdev</text>
</g>
<!-- Node16 -->
<g id="Node000016" class="node">
<title>Node16</title>
<g id="a_Node000016"><a xlink:href="structspdk__bdev__io__block__params.html" target="_top" xlink:title=" ">
<polygon fill="white" stroke="orangered" points="138.62,-189.5 24.38,-189.5 24.38,-156 138.62,-156 138.62,-189.5"/>
<text xml:space="preserve" text-anchor="start" x="32.38" y="-176" font-family="Helvetica,sans-Serif" font-size="10.00">spdk_bdev_io_block</text>
<text xml:space="preserve" text-anchor="middle" x="81.5" y="-163.25" font-family="Helvetica,sans-Serif" font-size="10.00">_params</text>
</a>
</g>
</g>
<!-- Node16&#45;&gt;Node2 -->
<g id="edge3_Node000002_Node000016" class="edge">
<title>Node16&#45;&gt;Node2</title>
<g id="a_edge3_Node000002_Node000016"><a xlink:title=" ">
<path fill="none" stroke="#9a32cd" stroke-dasharray="5,2" d="M150.35,-172.75C192.1,-172.75 244.21,-172.75 279.66,-172.75"/>
<polygon fill="#9a32cd" stroke="#9a32cd" points="150.39,-169.25 140.39,-172.75 150.39,-176.25 150.39,-169.25"/>
</a>
</g>
<text xml:space="preserve" text-anchor="start" x="209.5" y="-179" font-family="Helvetica,sans-Serif" font-size="10.00" fill="grey">bdev</text>
</g>
<!-- Node21 -->
<g id="Node000021" class="node">
<title>Node21</title>
<g id="a_Node000021"><a xlink:href="structspdk__bdev__io__reset__params.html" target="_top" xlink:title=" ">
<polygon fill="white" stroke="#bfbfbf" points="137.88,-137.5 25.12,-137.5 25.12,-104 137.88,-104 137.88,-137.5"/>
<text xml:space="preserve" text-anchor="start" x="33.12" y="-124" font-family="Helvetica,sans-Serif" font-size="10.00">spdk_bdev_io_reset</text>
<text xml:space="preserve" text-anchor="middle" x="81.5" y="-111.25" font-family="Helvetica,sans-Serif" font-size="10.00">_params</text>
</a>
</g>
</g>
<!-- Node21&#45;&gt;Node2 -->
<g id="edge4_Node000002_Node000021" class="edge">
<title>Node21&#45;&gt;Node2</title>
<g id="a_edge4_Node000002_Node000021"><a xlink:title=" ">
<path fill="none" stroke="#9a32cd" stroke-dasharray="5,2" d="M149.37,-128.25C183.45,-132.92 225.33,-139.99 262,-150 273.44,-153.12 285.72,-157.71 296.05,-161.95"/>
<polygon fill="#9a32cd" stroke="#9a32cd" points="150.01,-124.8 139.64,-126.95 149.09,-131.74 150.01,-124.8"/>
</a>
</g>
<text xml:space="preserve" text-anchor="start" x="209.12" y="-156.25" font-family="Helvetica,sans-Serif" font-size="10.00" fill="grey">reset</text>
</g>
<!-- Node22 -->
<g id="Node000022" class="node">
<title>Node22</title>
<g id="a_Node000022"><a xlink:href="structspdk__bdev__io__nvme__passthru__params.html" target="_top" xlink:title=" ">
<polygon fill="white" stroke="orangered" points="163,-85.5 0,-85.5 0,-52 163,-52 163,-85.5"/>
<text xml:space="preserve" text-anchor="start" x="8" y="-72" font-family="Helvetica,sans-Serif" font-size="10.00">spdk_bdev_io_nvme_passthru</text>
<text xml:space="preserve" text-anchor="middle" x="81.5" y="-59.25" font-family="Helvetica,sans-Serif" font-size="10.00">_params</text>
</a>
</g>
</g>
<!-- Node22&#45;&gt;Node2 -->
<g id="edge6_Node000002_Node000022" class="edge">
<title>Node22&#45;&gt;Node2</title>
<g id="a_edge6_Node000002_Node000022"><a xlink:title=" ">
<path fill="none" stroke="#9a32cd" stroke-dasharray="5,2" d="M174.21,-79.71C203.62,-85.94 235.43,-95.7 262,-111 284.5,-123.95 303.66,-148.28 313.43,-162.22"/>
<polygon fill="#9a32cd" stroke="#9a32cd" points="175.04,-76.31 164.55,-77.79 173.68,-83.17 175.04,-76.31"/>
</a>
</g>
<text xml:space="preserve" text-anchor="start" x="184" y="-117.25" font-family="Helvetica,sans-Serif" font-size="10.00" fill="grey">nvme_passthru</text>
</g>
<!-- Node49 -->
<g id="Node000049" class="node">
<title>Node49</title>
<g id="a_Node000049"><a xlink:href="structspdk__bdev__io__zone__mgmt__params.html" target="_top" xlink:title=" ">
<polygon fill="white" stroke="#bfbfbf" points="154.38,-33.5 8.62,-33.5 8.62,0 154.38,0 154.38,-33.5"/>
<text xml:space="preserve" text-anchor="start" x="16.62" y="-20" font-family="Helvetica,sans-Serif" font-size="10.00">spdk_bdev_io_zone_mgmt</text>
<text xml:space="preserve" text-anchor="middle" x="81.5" y="-7.25" font-family="Helvetica,sans-Serif" font-size="10.00">_params</text>
</a>
</g>
</g>
<!-- Node49&#45;&gt;Node2 -->
<g id="edge7_Node000002_Node000049" class="edge">
<title>Node49&#45;&gt;Node2</title>
<g id="a_edge7_Node000002_Node000049"><a xlink:title=" ">
<path fill="none" stroke="#9a32cd" stroke-dasharray="5,2" d="M165.57,-21.38C198.39,-26.79 234.7,-37.64 262,-59 296.61,-86.08 312.6,-139.32 318.07,-162.05"/>
<polygon fill="#9a32cd" stroke="#9a32cd" points="166.5,-17.98 156.09,-19.97 165.47,-24.91 166.5,-17.98"/>
</a>
</g>
<text xml:space="preserve" text-anchor="start" x="192.62" y="-65.25" font-family="Helvetica,sans-Serif" font-size="10.00" fill="grey">zone_mgmt</text>
</g>
<!-- Node50&#45;&gt;Node2 -->
<g id="edge8_Node000002_Node000050" class="edge">
<title>Node50&#45;&gt;Node2</title>
<g id="a_edge8_Node000002_Node000050"><a xlink:title=" ">
<path fill="none" stroke="#9a32cd" stroke-dasharray="5,2" d="M466.85,-153.91C464.63,-153.57 462.43,-153.27 460.25,-153 425.18,-148.72 415.61,-147.26 380.75,-153 369.88,-154.79 358.3,-158.34 348.35,-161.94"/>
<polygon fill="#9a32cd" stroke="#9a32cd" points="466.07,-157.33 476.52,-155.6 467.27,-150.43 466.07,-157.33"/>
</a>
</g>
<text xml:space="preserve" text-anchor="start" x="401.75" y="-159.25" font-family="Helvetica,sans-Serif" font-size="10.00" fill="grey">internal</text>
</g>
</g>
</svg>
