<?xml version="1.0" encoding="UTF-8" standalone="no"?>
<!DOCTYPE svg PUBLIC "-//W3C//DTD SVG 1.1//EN"
 "http://www.w3.org/Graphics/SVG/1.1/DTD/svg11.dtd">
<!-- Generated by graphviz version 13.1.2 (20250808.2320)
 -->
<!-- Title: spdk_nvmf_ctrlr_feat Pages: 1 -->
<svg width="667pt" height="519pt"
 viewBox="0.00 0.00 667.00 519.00" xmlns="http://www.w3.org/2000/svg" xmlns:xlink="http://www.w3.org/1999/xlink">
<g id="graph0" class="graph" transform="scale(1 1) rotate(0) translate(4 515.04)">
<title>spdk_nvmf_ctrlr_feat</title>
<!-- Node1 -->
<g id="Node000001" class="node">
<title>Node1</title>
<g id="a_Node000001"><a xlink:title=" ">
<polygon fill="#999999" stroke="#666666" points="659.25,-262.11 539.75,-262.11 539.75,-241.36 659.25,-241.36 659.25,-262.11"/>
<text xml:space="preserve" text-anchor="middle" x="599.5" y="-248.61" font-family="Helvetica,sans-Serif" font-size="10.00">spdk_nvmf_ctrlr_feat</text>
</a>
</g>
</g>
<!-- Node2 -->
<g id="Node000002" class="node">
<title>Node2</title>
<g id="a_Node000002"><a xlink:href="unionspdk__nvme__feat__arbitration.html" target="_top" xlink:title="Data used by Set Features/Get Features SPDK_NVME_FEAT_ARBITRATION.">
<polygon fill="white" stroke="#666666" points="350.75,-489.11 197.5,-489.11 197.5,-468.36 350.75,-468.36 350.75,-489.11"/>
<text xml:space="preserve" text-anchor="middle" x="274.12" y="-475.61" font-family="Helvetica,sans-Serif" font-size="10.00">spdk_nvme_feat_arbitration</text>
</a>
</g>
</g>
<!-- Node2&#45;&gt;Node1 -->
<g id="edge1_Node000001_Node000002" class="edge">
<title>Node2&#45;&gt;Node1</title>
<g id="a_edge1_Node000001_Node000002"><a xlink:title=" ">
<path fill="none" stroke="#9a32cd" stroke-dasharray="5,2" d="M348.56,-490.71C401.89,-495.22 472.97,-492.06 521.75,-454.73 585.78,-405.73 596.39,-296.8 598.15,-262.38"/>
<polygon fill="#9a32cd" stroke="#9a32cd" points="348.92,-487.23 338.63,-489.75 348.24,-494.19 348.92,-487.23"/>
</a>
</g>
<text xml:space="preserve" text-anchor="start" x="419.75" y="-498.54" font-family="Helvetica,sans-Serif" font-size="10.00" fill="grey">arbitration</text>
</g>
<!-- Node3 -->
<g id="Node000003" class="node">
<title>Node3</title>
<g id="a_Node000003"><a xlink:href="unionspdk__nvme__feat__power__management.html" target="_top" xlink:title="Data used by Set Features/Get Features SPDK_NVME_FEAT_POWER_MANAGEMENT.">
<polygon fill="white" stroke="#666666" points="340.25,-450.48 208,-450.48 208,-416.98 340.25,-416.98 340.25,-450.48"/>
<text xml:space="preserve" text-anchor="start" x="216" y="-436.98" font-family="Helvetica,sans-Serif" font-size="10.00">spdk_nvme_feat_power</text>
<text xml:space="preserve" text-anchor="middle" x="274.12" y="-424.23" font-family="Helvetica,sans-Serif" font-size="10.00">_management</text>
</a>
</g>
</g>
<!-- Node3&#45;&gt;Node1 -->
<g id="edge2_Node000001_Node000003" class="edge">
<title>Node3&#45;&gt;Node1</title>
<g id="a_edge2_Node000001_Node000003"><a xlink:title=" ">
<path fill="none" stroke="#9a32cd" stroke-dasharray="5,2" d="M351.99,-433.24C413.98,-431.42 495.08,-425.38 521.75,-406.73 572.94,-370.95 591.61,-290.99 596.82,-262.26"/>
<polygon fill="#9a32cd" stroke="#9a32cd" points="352.07,-429.74 342.17,-433.49 352.25,-436.73 352.07,-429.74"/>
</a>
</g>
<text xml:space="preserve" text-anchor="start" x="395" y="-438.65" font-family="Helvetica,sans-Serif" font-size="10.00" fill="grey">power_management</text>
</g>
<!-- Node4 -->
<g id="Node000004" class="node">
<title>Node4</title>
<g id="a_Node000004"><a xlink:href="unionspdk__nvme__feat__error__recovery.html" target="_top" xlink:title="Data used by Set Features/Get Features SPDK_NVME_FEAT_ERROR_RECOVERY.">
<polygon fill="white" stroke="#666666" points="336.88,-398.48 211.38,-398.48 211.38,-364.98 336.88,-364.98 336.88,-398.48"/>
<text xml:space="preserve" text-anchor="start" x="219.38" y="-384.98" font-family="Helvetica,sans-Serif" font-size="10.00">spdk_nvme_feat_error</text>
<text xml:space="preserve" text-anchor="middle" x="274.12" y="-372.23" font-family="Helvetica,sans-Serif" font-size="10.00">_recovery</text>
</a>
</g>
</g>
<!-- Node4&#45;&gt;Node1 -->
<g id="edge3_Node000001_Node000004" class="edge">
<title>Node4&#45;&gt;Node1</title>
<g id="a_edge3_Node000001_Node000004"><a xlink:title=" ">
<path fill="none" stroke="#9a32cd" stroke-dasharray="5,2" d="M348.52,-384.66C400.08,-383.58 468.99,-375.63 521.75,-345.73 557.13,-325.69 582.79,-282.44 593.27,-262.37"/>
<polygon fill="#9a32cd" stroke="#9a32cd" points="348.6,-381.16 338.64,-384.77 348.68,-388.16 348.6,-381.16"/>
</a>
</g>
<text xml:space="preserve" text-anchor="start" x="409.62" y="-389.8" font-family="Helvetica,sans-Serif" font-size="10.00" fill="grey">error_recovery</text>
</g>
<!-- Node5 -->
<g id="Node000005" class="node">
<title>Node5</title>
<g id="a_Node000005"><a xlink:href="unionspdk__nvme__feat__volatile__write__cache.html" target="_top" xlink:title="Data used by Set Features/Get Features SPDK_NVME_FEAT_VOLATILE_WRITE_CACHE.">
<polygon fill="white" stroke="#666666" points="343.62,-346.48 204.62,-346.48 204.62,-312.98 343.62,-312.98 343.62,-346.48"/>
<text xml:space="preserve" text-anchor="start" x="212.62" y="-332.98" font-family="Helvetica,sans-Serif" font-size="10.00">spdk_nvme_feat_volatile</text>
<text xml:space="preserve" text-anchor="middle" x="274.12" y="-320.23" font-family="Helvetica,sans-Serif" font-size="10.00">_write_cache</text>
</a>
</g>
</g>
<!-- Node5&#45;&gt;Node1 -->
<g id="edge4_Node000001_Node000005" class="edge">
<title>Node5&#45;&gt;Node1</title>
<g id="a_edge4_Node000001_Node000005"><a xlink:title=" ">
<path fill="none" stroke="#9a32cd" stroke-dasharray="5,2" d="M355.28,-324.67C404.32,-319.87 467.79,-310.6 521.75,-292.73 543.84,-285.42 567.12,-272.07 582.17,-262.59"/>
<polygon fill="#9a32cd" stroke="#9a32cd" points="355.24,-321.16 345.61,-325.57 355.89,-328.13 355.24,-321.16"/>
</a>
</g>
<text xml:space="preserve" text-anchor="start" x="395" y="-329.29" font-family="Helvetica,sans-Serif" font-size="10.00" fill="grey">volatile_write_cache</text>
</g>
<!-- Node6 -->
<g id="Node000006" class="node">
<title>Node6</title>
<g id="a_Node000006"><a xlink:href="unionspdk__nvme__feat__number__of__queues.html" target="_top" xlink:title="Data used by Set Features/Get Features SPDK_NVME_FEAT_NUMBER_OF_QUEUES.">
<polygon fill="white" stroke="#666666" points="344,-294.48 204.25,-294.48 204.25,-260.98 344,-260.98 344,-294.48"/>
<text xml:space="preserve" text-anchor="start" x="212.25" y="-280.98" font-family="Helvetica,sans-Serif" font-size="10.00">spdk_nvme_feat_number</text>
<text xml:space="preserve" text-anchor="middle" x="274.12" y="-268.23" font-family="Helvetica,sans-Serif" font-size="10.00">_of_queues</text>
</a>
</g>
</g>
<!-- Node6&#45;&gt;Node1 -->
<g id="edge5_Node000001_Node000006" class="edge">
<title>Node6&#45;&gt;Node1</title>
<g id="a_edge5_Node000001_Node000006"><a xlink:title=" ">
<path fill="none" stroke="#9a32cd" stroke-dasharray="5,2" d="M355.64,-271.26C412.61,-266.68 487.75,-260.64 539.28,-256.5"/>
<polygon fill="#9a32cd" stroke="#9a32cd" points="355.69,-267.75 346.01,-272.04 356.25,-274.72 355.69,-267.75"/>
</a>
</g>
<text xml:space="preserve" text-anchor="start" x="398.75" y="-276.3" font-family="Helvetica,sans-Serif" font-size="10.00" fill="grey">number_of_queues</text>
</g>
<!-- Node7 -->
<g id="Node000007" class="node">
<title>Node7</title>
<g id="a_Node000007"><a xlink:href="unionspdk__nvme__feat__interrupt__coalescing.html" target="_top" xlink:title="Data used by Set Features/Get Features SPDK_NVME_FEAT_INTERRUPT_COALESCING.">
<polygon fill="white" stroke="#666666" points="346.25,-242.48 202,-242.48 202,-208.98 346.25,-208.98 346.25,-242.48"/>
<text xml:space="preserve" text-anchor="start" x="210" y="-228.98" font-family="Helvetica,sans-Serif" font-size="10.00">spdk_nvme_feat_interrupt</text>
<text xml:space="preserve" text-anchor="middle" x="274.12" y="-216.23" font-family="Helvetica,sans-Serif" font-size="10.00">_coalescing</text>
</a>
</g>
</g>
<!-- Node7&#45;&gt;Node1 -->
<g id="edge6_Node000001_Node000007" class="edge">
<title>Node7&#45;&gt;Node1</title>
<g id="a_edge6_Node000001_Node000007"><a xlink:title=" ">
<path fill="none" stroke="#9a32cd" stroke-dasharray="5,2" d="M357.9,-225.19C405.92,-225.78 467.44,-228.1 521.75,-234.98 532.71,-236.37 544.42,-238.56 555.3,-240.9"/>
<polygon fill="#9a32cd" stroke="#9a32cd" points="358.18,-221.69 348.14,-225.09 358.11,-228.69 358.18,-221.69"/>
</a>
</g>
<text xml:space="preserve" text-anchor="start" x="395.75" y="-241.23" font-family="Helvetica,sans-Serif" font-size="10.00" fill="grey">interrupt_coalescing</text>
</g>
<!-- Node8 -->
<g id="Node000008" class="node">
<title>Node8</title>
<g id="a_Node000008"><a xlink:href="unionspdk__nvme__feat__interrupt__vector__configuration.html" target="_top" xlink:title="Data used by Set Features/Get Features SPDK_NVME_FEAT_INTERRUPT_VECTOR_CONFIGURATION.">
<polygon fill="white" stroke="#666666" points="346.25,-190.48 202,-190.48 202,-156.98 346.25,-156.98 346.25,-190.48"/>
<text xml:space="preserve" text-anchor="start" x="210" y="-176.98" font-family="Helvetica,sans-Serif" font-size="10.00">spdk_nvme_feat_interrupt</text>
<text xml:space="preserve" text-anchor="middle" x="274.12" y="-164.23" font-family="Helvetica,sans-Serif" font-size="10.00">_vector_configuration</text>
</a>
</g>
</g>
<!-- Node8&#45;&gt;Node1 -->
<g id="edge7_Node000001_Node000008" class="edge">
<title>Node8&#45;&gt;Node1</title>
<g id="a_edge7_Node000001_Node000008"><a xlink:title=" ">
<path fill="none" stroke="#9a32cd" stroke-dasharray="5,2" d="M358.14,-174.41C406.99,-177.03 469.29,-184.31 521.75,-202.98 546.29,-211.72 571.08,-229.45 585.6,-240.94"/>
<polygon fill="#9a32cd" stroke="#9a32cd" points="358.33,-170.91 348.17,-173.93 357.99,-177.9 358.33,-170.91"/>
</a>
</g>
<text xml:space="preserve" text-anchor="start" x="371.75" y="-209.23" font-family="Helvetica,sans-Serif" font-size="10.00" fill="grey">interrupt_vector_configuration</text>
</g>
<!-- Node9 -->
<g id="Node000009" class="node">
<title>Node9</title>
<g id="a_Node000009"><a xlink:href="unionspdk__nvme__feat__write__atomicity.html" target="_top" xlink:title="Data used by Set Features/Get Features SPDK_NVME_FEAT_WRITE_ATOMICITY.">
<polygon fill="white" stroke="#666666" points="337.62,-138.48 210.62,-138.48 210.62,-104.98 337.62,-104.98 337.62,-138.48"/>
<text xml:space="preserve" text-anchor="start" x="218.62" y="-124.98" font-family="Helvetica,sans-Serif" font-size="10.00">spdk_nvme_feat_write</text>
<text xml:space="preserve" text-anchor="middle" x="274.12" y="-112.23" font-family="Helvetica,sans-Serif" font-size="10.00">_atomicity</text>
</a>
</g>
</g>
<!-- Node9&#45;&gt;Node1 -->
<g id="edge8_Node000001_Node000009" class="edge">
<title>Node9&#45;&gt;Node1</title>
<g id="a_edge8_Node000001_Node000009"><a xlink:title=" ">
<path fill="none" stroke="#9a32cd" stroke-dasharray="5,2" d="M349.44,-116.3C400.99,-115.86 469.5,-122.17 521.75,-151.98 558.76,-173.1 583.92,-219.92 593.81,-241.04"/>
<polygon fill="#9a32cd" stroke="#9a32cd" points="349.5,-112.8 339.57,-116.48 349.63,-119.79 349.5,-112.8"/>
</a>
</g>
<text xml:space="preserve" text-anchor="start" x="407" y="-158.23" font-family="Helvetica,sans-Serif" font-size="10.00" fill="grey">write_atomicity</text>
</g>
<!-- Node10 -->
<g id="Node000010" class="node">
<title>Node10</title>
<g id="a_Node000010"><a xlink:href="unionspdk__nvme__feat__async__event__configuration.html" target="_top" xlink:title="Data used by Set Features / Get Features SPDK_NVME_FEAT_ASYNC_EVENT_CONFIGURATION.">
<polygon fill="white" stroke="#666666" points="339.5,-86.48 208.75,-86.48 208.75,-52.98 339.5,-52.98 339.5,-86.48"/>
<text xml:space="preserve" text-anchor="start" x="216.75" y="-72.98" font-family="Helvetica,sans-Serif" font-size="10.00">spdk_nvme_feat_async</text>
<text xml:space="preserve" text-anchor="middle" x="274.12" y="-60.23" font-family="Helvetica,sans-Serif" font-size="10.00">_event_configuration</text>
</a>
</g>
</g>
<!-- Node10&#45;&gt;Node1 -->
<g id="edge9_Node000001_Node000010" class="edge">
<title>Node10&#45;&gt;Node1</title>
<g id="a_edge9_Node000001_Node000010"><a xlink:title=" ">
<path fill="none" stroke="#9a32cd" stroke-dasharray="5,2" d="M351.24,-58.93C403.67,-55.58 472.48,-59.7 521.75,-93.98 573.75,-130.17 591.92,-211.69 596.9,-240.99"/>
<polygon fill="#9a32cd" stroke="#9a32cd" points="351.2,-55.42 341.49,-59.67 351.73,-62.4 351.2,-55.42"/>
</a>
</g>
<text xml:space="preserve" text-anchor="start" x="380" y="-100.23" font-family="Helvetica,sans-Serif" font-size="10.00" fill="grey">async_event_configuration</text>
</g>
<!-- Node11 -->
<g id="Node000011" class="node">
<title>Node11</title>
<g id="a_Node000011"><a xlink:href="unionspdk__nvme__critical__warning__state.html" target="_top" xlink:title=" ">
<polygon fill="white" stroke="#bfbfbf" points="110.5,-86.48 0,-86.48 0,-52.98 110.5,-52.98 110.5,-86.48"/>
<text xml:space="preserve" text-anchor="start" x="8" y="-72.98" font-family="Helvetica,sans-Serif" font-size="10.00">spdk_nvme_critical</text>
<text xml:space="preserve" text-anchor="middle" x="55.25" y="-60.23" font-family="Helvetica,sans-Serif" font-size="10.00">_warning_state</text>
</a>
</g>
</g>
<!-- Node11&#45;&gt;Node10 -->
<g id="edge10_Node000010_Node000011" class="edge">
<title>Node11&#45;&gt;Node10</title>
<g id="a_edge10_Node000010_Node000011"><a xlink:title=" ">
<path fill="none" stroke="#9a32cd" stroke-dasharray="5,2" d="M122.39,-69.73C149.69,-69.73 181.23,-69.73 208.39,-69.73"/>
<polygon fill="#9a32cd" stroke="#9a32cd" points="122.49,-66.23 112.49,-69.73 122.49,-73.23 122.49,-66.23"/>
</a>
</g>
<text xml:space="preserve" text-anchor="start" x="131.5" y="-75.98" font-family="Helvetica,sans-Serif" font-size="10.00" fill="grey">crit_warn</text>
</g>
<!-- Node12 -->
<g id="Node000012" class="node">
<title>Node12</title>
<g id="a_Node000012"><a xlink:href="unionspdk__nvme__feat__keep__alive__timer.html" target="_top" xlink:title="Data used by Set Features/Get Features SPDK_NVME_FEAT_KEEP_ALIVE_TIMER.">
<polygon fill="white" stroke="#666666" points="336.88,-34.48 211.38,-34.48 211.38,-0.98 336.88,-0.98 336.88,-34.48"/>
<text xml:space="preserve" text-anchor="start" x="219.38" y="-20.98" font-family="Helvetica,sans-Serif" font-size="10.00">spdk_nvme_feat_keep</text>
<text xml:space="preserve" text-anchor="middle" x="274.12" y="-8.23" font-family="Helvetica,sans-Serif" font-size="10.00">_alive_timer</text>
</a>
</g>
</g>
<!-- Node12&#45;&gt;Node1 -->
<g id="edge11_Node000001_Node000012" class="edge">
<title>Node12&#45;&gt;Node1</title>
<g id="a_edge11_Node000001_Node000012"><a xlink:title=" ">
<path fill="none" stroke="#9a32cd" stroke-dasharray="5,2" d="M348.22,-3.14C401.59,3.2 472.87,2.19 521.75,-34.98 590.23,-87.06 597.8,-205.05 598.49,-241.09"/>
<polygon fill="#9a32cd" stroke="#9a32cd" points="348.08,0.37 338.62,-4.4 348.99,-6.57 348.08,0.37"/>
</a>
</g>
<text xml:space="preserve" text-anchor="start" x="403.25" y="-41.23" font-family="Helvetica,sans-Serif" font-size="10.00" fill="grey">keep_alive_timer</text>
</g>
</g>
</svg>
