<?xml version="1.0" encoding="UTF-8" standalone="no"?>
<!DOCTYPE svg PUBLIC "-//W3C//DTD SVG 1.1//EN"
 "http://www.w3.org/Graphics/SVG/1.1/DTD/svg11.dtd">
<!-- Generated by graphviz version 13.1.2 (20250808.2320)
 -->
<!-- Title: spdk_nvme_transport_poll_group_stat Pages: 1 -->
<svg width="447pt" height="117pt"
 viewBox="0.00 0.00 447.00 117.00" xmlns="http://www.w3.org/2000/svg" xmlns:xlink="http://www.w3.org/1999/xlink">
<g id="graph0" class="graph" transform="scale(1 1) rotate(0) translate(4 113)">
<title>spdk_nvme_transport_poll_group_stat</title>
<!-- Node1 -->
<g id="Node000001" class="node">
<title>Node1</title>
<g id="a_Node000001"><a xlink:title=" ">
<polygon fill="#999999" stroke="#666666" points="304.12,-33.5 182.38,-33.5 182.38,0 304.12,0 304.12,-33.5"/>
<text xml:space="preserve" text-anchor="start" x="190.38" y="-20" font-family="Helvetica,sans-Serif" font-size="10.00">spdk_nvme_transport</text>
<text xml:space="preserve" text-anchor="middle" x="243.25" y="-7.25" font-family="Helvetica,sans-Serif" font-size="10.00">_poll_group_stat</text>
</a>
</g>
</g>
<!-- Node2 -->
<g id="Node000002" class="node">
<title>Node2</title>
<g id="a_Node000002"><a xlink:href="structspdk__nvme__rdma__device__stat.html" target="_top" xlink:title=" ">
<polygon fill="white" stroke="#bfbfbf" points="164.5,-109 0,-109 0,-88.25 164.5,-88.25 164.5,-109"/>
<text xml:space="preserve" text-anchor="middle" x="82.25" y="-95.5" font-family="Helvetica,sans-Serif" font-size="10.00">spdk_nvme_rdma_device_stat</text>
</a>
</g>
</g>
<!-- Node2&#45;&gt;Node1 -->
<g id="edge1_Node000001_Node000002" class="edge">
<title>Node2&#45;&gt;Node1</title>
<g id="a_edge1_Node000001_Node000002"><a xlink:title=" ">
<path fill="none" stroke="#9a32cd" stroke-dasharray="5,2" d="M110.8,-82.59C128.32,-73.45 151.24,-61.62 171.75,-51.5 183.57,-45.67 196.58,-39.46 208.22,-33.99"/>
<polygon fill="#9a32cd" stroke="#9a32cd" points="109.24,-79.45 102.01,-87.19 112.49,-85.66 109.24,-79.45"/>
</a>
</g>
<text xml:space="preserve" text-anchor="start" x="174.75" y="-57.75" font-family="Helvetica,sans-Serif" font-size="10.00" fill="grey">device_stats</text>
</g>
<!-- Node3 -->
<g id="Node000003" class="node">
<title>Node3</title>
<g id="a_Node000003"><a xlink:href="structspdk__nvme__pcie__stat.html" target="_top" xlink:title=" ">
<polygon fill="white" stroke="#bfbfbf" points="304.12,-109 182.38,-109 182.38,-88.25 304.12,-88.25 304.12,-109"/>
<text xml:space="preserve" text-anchor="middle" x="243.25" y="-95.5" font-family="Helvetica,sans-Serif" font-size="10.00">spdk_nvme_pcie_stat</text>
</a>
</g>
</g>
<!-- Node3&#45;&gt;Node1 -->
<g id="edge2_Node000001_Node000003" class="edge">
<title>Node3&#45;&gt;Node1</title>
<g id="a_edge2_Node000001_Node000003"><a xlink:title=" ">
<path fill="none" stroke="#9a32cd" stroke-dasharray="5,2" d="M243.25,-76.45C243.25,-63.14 243.25,-46.24 243.25,-34"/>
<polygon fill="#9a32cd" stroke="#9a32cd" points="239.75,-76.32 243.25,-86.32 246.75,-76.32 239.75,-76.32"/>
</a>
</g>
<text xml:space="preserve" text-anchor="start" x="246.25" y="-57.75" font-family="Helvetica,sans-Serif" font-size="10.00" fill="grey">pcie</text>
</g>
<!-- Node4 -->
<g id="Node000004" class="node">
<title>Node4</title>
<g id="a_Node000004"><a xlink:href="structspdk__nvme__tcp__stat.html" target="_top" xlink:title=" ">
<polygon fill="white" stroke="#bfbfbf" points="438.5,-109 322,-109 322,-88.25 438.5,-88.25 438.5,-109"/>
<text xml:space="preserve" text-anchor="middle" x="380.25" y="-95.5" font-family="Helvetica,sans-Serif" font-size="10.00">spdk_nvme_tcp_stat</text>
</a>
</g>
</g>
<!-- Node4&#45;&gt;Node1 -->
<g id="edge3_Node000001_Node000004" class="edge">
<title>Node4&#45;&gt;Node1</title>
<g id="a_edge3_Node000001_Node000004"><a xlink:title=" ">
<path fill="none" stroke="#9a32cd" stroke-dasharray="5,2" d="M353.7,-82.14C329.95,-68.3 295.26,-48.07 271.12,-34"/>
<polygon fill="#9a32cd" stroke="#9a32cd" points="351.74,-85.06 362.14,-87.07 355.27,-79.01 351.74,-85.06"/>
</a>
</g>
<text xml:space="preserve" text-anchor="start" x="335.03" y="-57.75" font-family="Helvetica,sans-Serif" font-size="10.00" fill="grey">tcp</text>
</g>
</g>
</svg>
