<?xml version="1.0" encoding="UTF-8" standalone="no"?>
<!DOCTYPE svg PUBLIC "-//W3C//DTD SVG 1.1//EN"
 "http://www.w3.org/Graphics/SVG/1.1/DTD/svg11.dtd">
<!-- Generated by graphviz version 13.1.2 (20250808.2320)
 -->
<!-- Title: spdk_nvmf_transport Pages: 1 -->
<!--zoomable 133 -->

<svg id="main" version="1.1" xmlns="http://www.w3.org/2000/svg" xmlns:xlink="http://www.w3.org/1999/xlink" xml:space="preserve" onload="init(evt)">

<style type="text/css"><![CDATA[
.node, .edge {opacity: 0.7;}
.node.selected, .edge.selected {opacity: 1;}
.edge:hover path { stroke: red; }
.edge:hover polygon { stroke: red; fill: red; }
]]></style>

<defs>
  <circle id="rim" cx="0" cy="0" r="7"/>
  <circle id="rim2" cx="0" cy="0" r="3.5"/>
  <g id="zoomPlus">
    <use xlink:href="#rim" fill="#404040"><set attributeName="fill" to="#808080" begin="zoomplus.mouseover" end="zoomplus.mouseout"/></use>
    <path d="M-4,0h8M0,-4v8" fill="none" stroke="white" stroke-width="1.5" pointer-events="none"/>
  </g>
  <g id="zoomMin">
    <use xlink:href="#rim" fill="#404040"><set attributeName="fill" to="#808080" begin="zoomminus.mouseover" end="zoomminus.mouseout"/></use>
    <path d="M-4,0h8" fill="none" stroke="white" stroke-width="1.5" pointer-events="none"/>
  </g>
  <g id="arrowUp" transform="translate(30 24)">
    <use xlink:href="#rim"/>
    <path pointer-events="none" fill="none" stroke="white" stroke-width="1.5" d="M0,-3.0v7 M-2.5,-0.5L0,-3.0L2.5,-0.5"/>
  </g>
  <g id="arrowRight" transform="rotate(90) translate(36 -43)">
    <use xlink:href="#rim"/>
    <path pointer-events="none" fill="none" stroke="white" stroke-width="1.5" d="M0,-3.0v7 M-2.5,-0.5L0,-3.0L2.5,-0.5"/>
  </g>
  <g id="arrowDown" transform="rotate(180) translate(-30 -48)">
    <use xlink:href="#rim"/>
    <path pointer-events="none" fill="none" stroke="white" stroke-width="1.5" d="M0,-3.0v7 M-2.5,-0.5L0,-3.0L2.5,-0.5"/>
  </g>
  <g id="arrowLeft" transform="rotate(270) translate(-36 17)">
    <use xlink:href="#rim"/>
    <path pointer-events="none" fill="none" stroke="white" stroke-width="1.5" d="M0,-3.0v7 M-2.5,-0.5L0,-3.0L2.5,-0.5"/>
  </g>
  <g id="resetDef">
    <use xlink:href="#rim2" fill="#404040"><set attributeName="fill" to="#808080" begin="reset.mouseover" end="reset.mouseout"/></use>
  </g>
</defs>
<script type="application/ecmascript">
var viewWidth = 1105;
var viewHeight = 133;
var sectionId = 'dynsection-0';
</script>
<script type="application/ecmascript" xlink:href="svg.min.js"/>
<svg id="graph" class="graph">
<g id="viewport">
<title>spdk_nvmf_transport</title>
<!-- Node1 -->
<g id="Node000001" class="node">
<title>Node1</title>
<g id="a_Node000001"><a xlink:title=" ">
<polygon fill="#999999" stroke="#666666" points="592.5,-62.75 473,-62.75 473,-42 592.5,-42 592.5,-62.75"/>
<text xml:space="preserve" text-anchor="middle" x="532.75" y="-49.25" font-family="Helvetica,sans-Serif" font-size="10.00">spdk_nvmf_transport</text>
</a>
</g>
</g>
<!-- Node2 -->
<g id="Node000002" class="node">
<title>Node2</title>
<g id="a_Node000002"><a xlink:href="structspdk__nvmf__transport__ops.html" target="_top" xlink:title=" ">
<polygon fill="white" stroke="#bfbfbf" points="1097,-62.75 955,-62.75 955,-42 1097,-42 1097,-62.75"/>
<text xml:space="preserve" text-anchor="middle" x="1026" y="-49.25" font-family="Helvetica,sans-Serif" font-size="10.00">spdk_nvmf_transport_ops</text>
</a>
</g>
</g>
<!-- Node1&#45;&gt;Node2 -->
<g id="edge2_Node000002_Node000001" class="edge">
<title>Node1&#45;&gt;Node2</title>
<g id="a_edge2_Node000002_Node000001"><a xlink:title=" ">
<path fill="none" stroke="#9a32cd" stroke-dasharray="5,2" d="M575.28,-66.58C586.58,-69.96 598.91,-73.21 610.5,-75.38 753.32,-102.01 794.86,-121.46 937,-91.38 962.5,-85.98 989.6,-72.68 1006.88,-63.11"/>
<polygon fill="#9a32cd" stroke="#9a32cd" points="576.41,-63.27 565.82,-63.64 574.33,-69.95 576.41,-63.27"/>
</a>
</g>
<text xml:space="preserve" text-anchor="start" x="723.12" y="-112.43" font-family="Helvetica,sans-Serif" font-size="10.00" fill="grey">create</text>
</g>
<!-- Node3 -->
<g id="Node000003" class="node">
<title>Node3</title>
<g id="a_Node000003"><a xlink:href="structspdk__nvmf__transport__poll__group.html" target="_top" xlink:title=" ">
<polygon fill="white" stroke="orangered" points="798.25,-69.12 678.75,-69.12 678.75,-35.62 798.25,-35.62 798.25,-69.12"/>
<text xml:space="preserve" text-anchor="start" x="686.75" y="-55.62" font-family="Helvetica,sans-Serif" font-size="10.00">spdk_nvmf_transport</text>
<text xml:space="preserve" text-anchor="middle" x="738.5" y="-42.88" font-family="Helvetica,sans-Serif" font-size="10.00">_poll_group</text>
</a>
</g>
</g>
<!-- Node1&#45;&gt;Node3 -->
<g id="edge4_Node000003_Node000001" class="edge">
<title>Node1&#45;&gt;Node3</title>
<g id="a_edge4_Node000003_Node000001"><a xlink:title=" ">
<path fill="none" stroke="#9a32cd" stroke-dasharray="5,2" d="M604.24,-52.38C628.45,-52.38 655.29,-52.38 678.5,-52.38"/>
<polygon fill="#9a32cd" stroke="#9a32cd" points="604.47,-48.88 594.47,-52.38 604.47,-55.88 604.47,-48.88"/>
</a>
</g>
<text xml:space="preserve" text-anchor="start" x="613.5" y="-58.62" font-family="Helvetica,sans-Serif" font-size="10.00" fill="grey">transport</text>
</g>
<!-- Node2&#45;&gt;Node1 -->
<g id="edge1_Node000001_Node000002" class="edge">
<title>Node2&#45;&gt;Node1</title>
<g id="a_edge1_Node000001_Node000002"><a xlink:title=" ">
<path fill="none" stroke="#9a32cd" stroke-dasharray="5,2" d="M979.66,-38.46C913.43,-19.96 786.4,8.61 678.75,-7.62 636.16,-14.05 588.82,-30.52 560.18,-41.59"/>
<polygon fill="#9a32cd" stroke="#9a32cd" points="978.5,-41.77 989.08,-41.15 980.42,-35.04 978.5,-41.77"/>
</a>
</g>
<text xml:space="preserve" text-anchor="start" x="729.88" y="-13.88" font-family="Helvetica,sans-Serif" font-size="10.00" fill="grey">ops</text>
</g>
<!-- Node3&#45;&gt;Node2 -->
<g id="edge3_Node000002_Node000003" class="edge">
<title>Node3&#45;&gt;Node2</title>
<g id="a_edge3_Node000002_Node000003"><a xlink:title=" ">
<path fill="none" stroke="#9a32cd" stroke-dasharray="5,2" d="M810.14,-52.38C854.16,-52.38 910.59,-52.38 954.57,-52.38"/>
<polygon fill="#9a32cd" stroke="#9a32cd" points="810.17,-48.88 800.17,-52.38 810.17,-55.88 810.17,-48.88"/>
</a>
</g>
<text xml:space="preserve" text-anchor="start" x="819.25" y="-75.38" font-family="Helvetica,sans-Serif" font-size="10.00" fill="grey">get_optimal_poll_group</text>
<text xml:space="preserve" text-anchor="start" x="819.25" y="-58.62" font-family="Helvetica,sans-Serif" font-size="10.00" fill="grey">poll_group_create</text>
</g>
<!-- Node10 -->
<g id="Node000010" class="node">
<title>Node10</title>
<g id="a_Node000010"><a xlink:href="structspdk__nvmf__transport__opts.html" target="_top" xlink:title=" ">
<polygon fill="white" stroke="#bfbfbf" points="410,-62.75 264.25,-62.75 264.25,-42 410,-42 410,-62.75"/>
<text xml:space="preserve" text-anchor="middle" x="337.12" y="-49.25" font-family="Helvetica,sans-Serif" font-size="10.00">spdk_nvmf_transport_opts</text>
</a>
</g>
</g>
<!-- Node10&#45;&gt;Node1 -->
<g id="edge5_Node000001_Node000010" class="edge">
<title>Node10&#45;&gt;Node1</title>
<g id="a_edge5_Node000001_Node000010"><a xlink:title=" ">
<path fill="none" stroke="#9a32cd" stroke-dasharray="5,2" d="M421.69,-52.38C438.87,-52.38 456.62,-52.38 472.72,-52.38"/>
<polygon fill="#9a32cd" stroke="#9a32cd" points="422.01,-48.88 412.01,-52.38 422.01,-55.88 422.01,-48.88"/>
</a>
</g>
<text xml:space="preserve" text-anchor="start" x="431" y="-58.62" font-family="Helvetica,sans-Serif" font-size="10.00" fill="grey">opts</text>
</g>
<!-- Node11 -->
<g id="Node000011" class="node">
<title>Node11</title>
<g id="a_Node000011"><a xlink:href="structspdk__json__val.html" target="_top" xlink:title=" ">
<polygon fill="white" stroke="#bfbfbf" points="110.5,-104.75 25.5,-104.75 25.5,-84 110.5,-84 110.5,-104.75"/>
<text xml:space="preserve" text-anchor="middle" x="68" y="-91.25" font-family="Helvetica,sans-Serif" font-size="10.00">spdk_json_val</text>
</a>
</g>
</g>
<!-- Node11&#45;&gt;Node10 -->
<g id="edge6_Node000010_Node000011" class="edge">
<title>Node11&#45;&gt;Node10</title>
<g id="a_edge6_Node000010_Node000011"><a xlink:title=" ">
<path fill="none" stroke="#9a32cd" stroke-dasharray="5,2" d="M121.74,-89.16C157.09,-85.34 204.62,-79.57 246.25,-72.38 261.06,-69.81 277.11,-66.44 291.49,-63.19"/>
<polygon fill="#9a32cd" stroke="#9a32cd" points="121.79,-85.64 112.21,-90.17 122.53,-92.6 121.79,-85.64"/>
</a>
</g>
<text xml:space="preserve" text-anchor="start" x="157" y="-91.67" font-family="Helvetica,sans-Serif" font-size="10.00" fill="grey">transport_specific</text>
</g>
<!-- Node12 -->
<g id="Node000012" class="node">
<title>Node12</title>
<g id="a_Node000012"><a xlink:href="structspdk__nvme__cdata__oncs.html" target="_top" xlink:title="Identify Controller data Optional NVM Command Support.">
<polygon fill="white" stroke="#666666" points="134.12,-62.75 1.88,-62.75 1.88,-42 134.12,-42 134.12,-62.75"/>
<text xml:space="preserve" text-anchor="middle" x="68" y="-49.25" font-family="Helvetica,sans-Serif" font-size="10.00">spdk_nvme_cdata_oncs</text>
</a>
</g>
</g>
<!-- Node12&#45;&gt;Node10 -->
<g id="edge7_Node000010_Node000012" class="edge">
<title>Node12&#45;&gt;Node10</title>
<g id="a_edge7_Node000010_Node000012"><a xlink:title=" ">
<path fill="none" stroke="#9a32cd" stroke-dasharray="5,2" d="M145.65,-52.38C182.86,-52.38 227.33,-52.38 263.94,-52.38"/>
<polygon fill="#9a32cd" stroke="#9a32cd" points="145.86,-48.88 135.86,-52.38 145.86,-55.88 145.86,-48.88"/>
</a>
</g>
<text xml:space="preserve" text-anchor="start" x="188.88" y="-58.62" font-family="Helvetica,sans-Serif" font-size="10.00" fill="grey">oncs</text>
</g>
<!-- Node13 -->
<g id="Node000013" class="node">
<title>Node13</title>
<g id="a_Node000013"><a xlink:href="structspdk__nvme__cdata__fuses.html" target="_top" xlink:title=" ">
<polygon fill="white" stroke="#bfbfbf" points="136,-20.75 0,-20.75 0,0 136,0 136,-20.75"/>
<text xml:space="preserve" text-anchor="middle" x="68" y="-7.25" font-family="Helvetica,sans-Serif" font-size="10.00">spdk_nvme_cdata_fuses</text>
</a>
</g>
</g>
<!-- Node13&#45;&gt;Node10 -->
<g id="edge8_Node000010_Node000013" class="edge">
<title>Node13&#45;&gt;Node10</title>
<g id="a_edge8_Node000010_Node000013"><a xlink:title=" ">
<path fill="none" stroke="#9a32cd" stroke-dasharray="5,2" d="M147.39,-16.51C178.33,-19.55 214.1,-23.84 246.25,-29.62 263.52,-32.73 282.37,-37.32 298.34,-41.56"/>
<polygon fill="#9a32cd" stroke="#9a32cd" points="148.02,-13.06 137.74,-15.59 147.36,-20.02 148.02,-13.06"/>
</a>
</g>
<text xml:space="preserve" text-anchor="start" x="187" y="-35.88" font-family="Helvetica,sans-Serif" font-size="10.00" fill="grey">fuses</text>
</g>
</g>
</svg>

<g id="navigator" transform="translate(0 0)" fill="#404254">
  <rect fill="#f2f5e9" fill-opacity="0.5" stroke="#606060" stroke-width=".5" x="0" y="0" width="60" height="60"/>
  <use id="zoomplus" xlink:href="#zoomPlus" x="17" y="9" onmousedown="handleZoom(evt,'in')"/>
  <use id="zoomminus" xlink:href="#zoomMin" x="42" y="9" onmousedown="handleZoom(evt,'out')"/>
  <use id="reset" xlink:href="#resetDef" x="30" y="36" onmousedown="handleReset()"/>
   <use id="arrowup" xlink:href="#arrowUp" x="0" y="0" onmousedown="handlePan(0,-1)"/>
  <use id="arrowright" xlink:href="#arrowRight" x="0" y="0" onmousedown="handlePan(1,0)"/>
  <use id="arrowdown" xlink:href="#arrowDown" x="0" y="0" onmousedown="handlePan(0,1)"/>
  <use id="arrowleft" xlink:href="#arrowLeft" x="0" y="0" onmousedown="handlePan(-1,0)"/>
</g>
<svg viewBox="0 0 15 15" width="100%" height="30px" preserveAspectRatio="xMaxYMin meet">
 <g id="arrow_out" transform="scale(0.3 0.3)">
  <a xlink:href="structspdk__nvmf__transport__coll__graph_org.svg" target="_base">
   <rect id="button" ry="5" rx="5" y="6" x="6" height="38" width="38"
        fill="#f2f5e9" fill-opacity="0.5" stroke="#606060" stroke-width="1.0"/>
   <path id="arrow"
     d="M 11.500037,31.436501 C 11.940474,20.09759 22.043105,11.32322 32.158766,21.979434 L 37.068811,17.246167 C 37.068811,17.246167 37.088388,32 37.088388,32 L 22.160133,31.978069 C 22.160133,31.978069 26.997745,27.140456 26.997745,27.140456 C 18.528582,18.264221 13.291696,25.230495 11.500037,31.436501 z"
     style="fill:#404040;"/>
  </a>
 </g>
</svg>

<style type='text/css'>
<![CDATA[
[data-mouse-over-selected='false'] { opacity: 0.7; }
[data-mouse-over-selected='true']  { opacity: 1.0; }
]]>
</style>
<script type="application/ecmascript"><![CDATA[
document.addEventListener('DOMContentLoaded', (event) => {
  highlightEdges();
  highlightAdjacentNodes();
});
]]></script>
</svg>
