<?xml version="1.0" encoding="UTF-8" standalone="no"?>
<!DOCTYPE svg PUBLIC "-//W3C//DTD SVG 1.1//EN"
 "http://www.w3.org/Graphics/SVG/1.1/DTD/svg11.dtd">
<!-- Generated by graphviz version 13.1.2 (20250808.2320)
 -->
<!-- Title: spdk_nvmf_transport_ops Pages: 1 -->
<svg width="546pt" height="207pt"
 viewBox="0.00 0.00 546.00 207.00" xmlns="http://www.w3.org/2000/svg" xmlns:xlink="http://www.w3.org/1999/xlink">
<g id="graph0" class="graph" transform="scale(1 1) rotate(0) translate(4 203.25)">
<title>spdk_nvmf_transport_ops</title>
<!-- Node1 -->
<g id="Node000001" class="node">
<title>Node1</title>
<g id="a_Node000001"><a xlink:title=" ">
<polygon fill="#999999" stroke="#666666" points="142,-199.25 0,-199.25 0,-178.5 142,-178.5 142,-199.25"/>
<text xml:space="preserve" text-anchor="middle" x="71" y="-185.75" font-family="Helvetica,sans-Serif" font-size="10.00">spdk_nvmf_transport_ops</text>
</a>
</g>
</g>
<!-- Node2 -->
<g id="Node000002" class="node">
<title>Node2</title>
<g id="a_Node000002"><a xlink:href="structspdk__nvmf__transport.html" target="_top" xlink:title=" ">
<polygon fill="white" stroke="#bfbfbf" points="262.75,-116.38 143.25,-116.38 143.25,-95.62 262.75,-95.62 262.75,-116.38"/>
<text xml:space="preserve" text-anchor="middle" x="203" y="-102.88" font-family="Helvetica,sans-Serif" font-size="10.00">spdk_nvmf_transport</text>
</a>
</g>
</g>
<!-- Node1&#45;&gt;Node2 -->
<g id="edge2_Node000002_Node000001" class="edge">
<title>Node1&#45;&gt;Node2</title>
<g id="a_edge2_Node000002_Node000001"><a xlink:title=" ">
<path fill="none" stroke="#9a32cd" stroke-dasharray="5,2" d="M122.06,-174.42C132.05,-170.7 142.17,-166.1 151,-160.5 169.82,-148.58 186.82,-128.53 195.96,-116.65"/>
<polygon fill="#9a32cd" stroke="#9a32cd" points="121.07,-171.06 112.76,-177.64 123.35,-177.68 121.07,-171.06"/>
</a>
</g>
<text xml:space="preserve" text-anchor="start" x="176.15" y="-148" font-family="Helvetica,sans-Serif" font-size="10.00" fill="grey">ops</text>
</g>
<!-- Node2&#45;&gt;Node1 -->
<g id="edge1_Node000001_Node000002" class="edge">
<title>Node2&#45;&gt;Node1</title>
<g id="a_edge1_Node000001_Node000002"><a xlink:title=" ">
<path fill="none" stroke="#9a32cd" stroke-dasharray="5,2" d="M156.85,-120.65C142.52,-126.02 127.13,-133.02 114.25,-141.75 99.34,-151.85 85.79,-167.94 77.97,-178.2"/>
<polygon fill="#9a32cd" stroke="#9a32cd" points="157.85,-124.01 166.1,-117.37 155.51,-117.41 157.85,-124.01"/>
</a>
</g>
<text xml:space="preserve" text-anchor="start" x="117.25" y="-148" font-family="Helvetica,sans-Serif" font-size="10.00" fill="grey">create</text>
</g>
<!-- Node7 -->
<g id="Node000007" class="node">
<title>Node7</title>
<g id="a_Node000007"><a xlink:href="structspdk__nvmf__transport__poll__group.html" target="_top" xlink:title=" ">
<polygon fill="white" stroke="#bfbfbf" points="359.75,-33.5 240.25,-33.5 240.25,0 359.75,0 359.75,-33.5"/>
<text xml:space="preserve" text-anchor="start" x="248.25" y="-20" font-family="Helvetica,sans-Serif" font-size="10.00">spdk_nvmf_transport</text>
<text xml:space="preserve" text-anchor="middle" x="300" y="-7.25" font-family="Helvetica,sans-Serif" font-size="10.00">_poll_group</text>
</a>
</g>
</g>
<!-- Node2&#45;&gt;Node7 -->
<g id="edge5_Node000007_Node000002" class="edge">
<title>Node2&#45;&gt;Node7</title>
<g id="a_edge5_Node000007_Node000002"><a xlink:title=" ">
<path fill="none" stroke="#9a32cd" stroke-dasharray="5,2" d="M221.31,-87.71C232.59,-77.15 247.39,-63.42 260.75,-51.5 267.32,-45.64 274.61,-39.31 281.11,-33.75"/>
<polygon fill="#9a32cd" stroke="#9a32cd" points="219.11,-84.98 214.22,-94.38 223.9,-90.08 219.11,-84.98"/>
</a>
</g>
<text xml:space="preserve" text-anchor="start" x="263.75" y="-57.75" font-family="Helvetica,sans-Serif" font-size="10.00" fill="grey">transport</text>
</g>
<!-- Node3 -->
<g id="Node000003" class="node">
<title>Node3</title>
<g id="a_Node000003"><a xlink:href="structspdk__nvmf__transport__opts.html" target="_top" xlink:title=" ">
<polygon fill="white" stroke="orangered" points="305.88,-199.25 160.12,-199.25 160.12,-178.5 305.88,-178.5 305.88,-199.25"/>
<text xml:space="preserve" text-anchor="middle" x="233" y="-185.75" font-family="Helvetica,sans-Serif" font-size="10.00">spdk_nvmf_transport_opts</text>
</a>
</g>
</g>
<!-- Node3&#45;&gt;Node2 -->
<g id="edge3_Node000002_Node000003" class="edge">
<title>Node3&#45;&gt;Node2</title>
<g id="a_edge3_Node000002_Node000003"><a xlink:title=" ">
<path fill="none" stroke="#9a32cd" stroke-dasharray="5,2" d="M225.5,-167.67C219.45,-151.34 211.2,-129.1 206.55,-116.58"/>
<polygon fill="#9a32cd" stroke="#9a32cd" points="222.15,-168.7 228.91,-176.86 228.72,-166.27 222.15,-168.7"/>
</a>
</g>
<text xml:space="preserve" text-anchor="start" x="225.44" y="-148" font-family="Helvetica,sans-Serif" font-size="10.00" fill="grey">opts</text>
</g>
<!-- Node7&#45;&gt;Node1 -->
<g id="edge4_Node000001_Node000007" class="edge">
<title>Node7&#45;&gt;Node1</title>
<g id="a_edge4_Node000001_Node000007"><a xlink:title=" ">
<path fill="none" stroke="#9a32cd" stroke-dasharray="5,2" d="M228.63,-25.31C152.57,-35.01 39.54,-54.72 13.25,-88.25 -10.55,-118.62 34.36,-159.82 57.9,-178.26"/>
<polygon fill="#9a32cd" stroke="#9a32cd" points="229.04,-28.79 238.53,-24.08 228.17,-21.84 229.04,-28.79"/>
</a>
</g>
<text xml:space="preserve" text-anchor="start" x="16.25" y="-111.25" font-family="Helvetica,sans-Serif" font-size="10.00" fill="grey">get_optimal_poll_group</text>
<text xml:space="preserve" text-anchor="start" x="16.25" y="-94.5" font-family="Helvetica,sans-Serif" font-size="10.00" fill="grey">poll_group_create</text>
</g>
<!-- Node8 -->
<g id="Node000008" class="node">
<title>Node8</title>
<g id="a_Node000008"><a xlink:href="structspdk__iobuf__channel.html" target="_top" xlink:title="iobuf channel">
<polygon fill="#fff0f0" stroke="red" points="393.38,-116.38 280.62,-116.38 280.62,-95.62 393.38,-95.62 393.38,-116.38"/>
<text xml:space="preserve" text-anchor="middle" x="337" y="-102.88" font-family="Helvetica,sans-Serif" font-size="10.00">spdk_iobuf_channel</text>
</a>
</g>
</g>
<!-- Node8&#45;&gt;Node7 -->
<g id="edge6_Node000007_Node000008" class="edge">
<title>Node8&#45;&gt;Node7</title>
<g id="a_edge6_Node000007_Node000008"><a xlink:title=" ">
<path fill="none" stroke="#9a32cd" stroke-dasharray="5,2" d="M328.44,-84.81C321.89,-69.36 312.98,-48.35 306.89,-33.99"/>
<polygon fill="#9a32cd" stroke="#9a32cd" points="325.18,-86.1 332.31,-93.94 331.63,-83.36 325.18,-86.1"/>
</a>
</g>
<text xml:space="preserve" text-anchor="start" x="324.81" y="-57.75" font-family="Helvetica,sans-Serif" font-size="10.00" fill="grey">buf_cache</text>
</g>
<!-- Node12 -->
<g id="Node000012" class="node">
<title>Node12</title>
<g id="a_Node000012"><a xlink:href="structspdk__nvmf__poll__group.html" target="_top" xlink:title=" ">
<polygon fill="white" stroke="orangered" points="538.12,-116.38 411.88,-116.38 411.88,-95.62 538.12,-95.62 538.12,-116.38"/>
<text xml:space="preserve" text-anchor="middle" x="475" y="-102.88" font-family="Helvetica,sans-Serif" font-size="10.00">spdk_nvmf_poll_group</text>
</a>
</g>
</g>
<!-- Node12&#45;&gt;Node7 -->
<g id="edge7_Node000007_Node000012" class="edge">
<title>Node12&#45;&gt;Node7</title>
<g id="a_edge7_Node000007_Node000012"><a xlink:title=" ">
<path fill="none" stroke="#9a32cd" stroke-dasharray="5,2" d="M449.56,-89.39C430.91,-78.23 404.79,-63.17 381,-51.5 368.42,-45.33 354.42,-39.23 341.64,-33.96"/>
<polygon fill="#9a32cd" stroke="#9a32cd" points="447.69,-92.35 458.06,-94.52 451.31,-86.36 447.69,-92.35"/>
</a>
</g>
<text xml:space="preserve" text-anchor="start" x="418.19" y="-57.75" font-family="Helvetica,sans-Serif" font-size="10.00" fill="grey">group</text>
</g>
</g>
</svg>
