<?xml version="1.0" encoding="UTF-8" standalone="no"?>
<!DOCTYPE svg PUBLIC "-//W3C//DTD SVG 1.1//EN"
 "http://www.w3.org/Graphics/SVG/1.1/DTD/svg11.dtd">
<!-- Generated by graphviz version 13.1.2 (20250808.2320)
 -->
<!-- Title: spdk_nvme_ctrlr_data Pages: 1 -->
<svg width="379pt" height="378pt"
 viewBox="0.00 0.00 379.00 378.00" xmlns="http://www.w3.org/2000/svg" xmlns:xlink="http://www.w3.org/1999/xlink">

<svg id="main" version="1.1" xmlns="http://www.w3.org/2000/svg" xmlns:xlink="http://www.w3.org/1999/xlink" xml:space="preserve">

<style type="text/css"><![CDATA[
.node, .edge {opacity: 0.7;}
.node.selected, .edge.selected {opacity: 1;}
.edge:hover path { stroke: red; }
.edge:hover polygon { stroke: red; fill: red; }
]]></style>
<script type="application/ecmascript" xlink:href="svg.min.js"/>
<svg id="graph" class="graph">
<g id="graph0" class="graph" transform="scale(1 1) rotate(0) translate(4 374.34)">
<title>spdk_nvme_ctrlr_data</title>
<!-- Node1 -->
<g id="Node000001" class="node">
<title>Node1</title>
<g id="a_Node000001"><a xlink:title=" ">
<polygon fill="#999999" stroke="#666666" points="371,-192.75 247,-192.75 247,-172 371,-172 371,-192.75"/>
<text xml:space="preserve" text-anchor="middle" x="309" y="-179.25" font-family="Helvetica,sans-Serif" font-size="10.00">spdk_nvme_ctrlr_data</text>
</a>
</g>
</g>
<!-- Node2 -->
<g id="Node000002" class="node">
<title>Node2</title>
<g id="a_Node000002"><a xlink:href="unionspdk__nvme__vs__register.html" target="_top" xlink:title=" ">
<polygon fill="white" stroke="#bfbfbf" points="134.5,-360.75 3,-360.75 3,-340 134.5,-340 134.5,-360.75"/>
<text xml:space="preserve" text-anchor="middle" x="68.75" y="-347.25" font-family="Helvetica,sans-Serif" font-size="10.00">spdk_nvme_vs_register</text>
</a>
</g>
</g>
<!-- Node2&#45;&gt;Node1 -->
<g id="edge1_Node000001_Node000002" class="edge">
<title>Node2&#45;&gt;Node1</title>
<g id="a_edge1_Node000001_Node000002"><a xlink:title=" ">
<path fill="none" stroke="#9a32cd" stroke-dasharray="5,2" d="M146.17,-352.65C174.31,-350.12 205.12,-343.04 229,-326.38 277.17,-292.76 298.97,-220 305.65,-192.86"/>
<polygon fill="#9a32cd" stroke="#9a32cd" points="145.95,-349.16 136.22,-353.35 146.44,-356.14 145.95,-349.16"/>
</a>
</g>
<text xml:space="preserve" text-anchor="start" x="184.38" y="-357.84" font-family="Helvetica,sans-Serif" font-size="10.00" fill="grey">ver</text>
</g>
<!-- Node3 -->
<g id="Node000003" class="node">
<title>Node3</title>
<g id="a_Node000003"><a xlink:href="structspdk__nvme__cdata__oaes.html" target="_top" xlink:title=" ">
<polygon fill="white" stroke="#bfbfbf" points="135.25,-318.75 2.25,-318.75 2.25,-298 135.25,-298 135.25,-318.75"/>
<text xml:space="preserve" text-anchor="middle" x="68.75" y="-305.25" font-family="Helvetica,sans-Serif" font-size="10.00">spdk_nvme_cdata_oaes</text>
</a>
</g>
</g>
<!-- Node3&#45;&gt;Node1 -->
<g id="edge2_Node000001_Node000003" class="edge">
<title>Node3&#45;&gt;Node1</title>
<g id="a_edge2_Node000001_Node000003"><a xlink:title=" ">
<path fill="none" stroke="#9a32cd" stroke-dasharray="5,2" d="M146.55,-305.34C174.06,-301.52 204.33,-293.95 229,-279.38 265.09,-258.05 291.66,-213.75 302.56,-193.23"/>
<polygon fill="#9a32cd" stroke="#9a32cd" points="146.36,-301.84 136.86,-306.54 147.21,-308.79 146.36,-301.84"/>
</a>
</g>
<text xml:space="preserve" text-anchor="start" x="180.62" y="-309.66" font-family="Helvetica,sans-Serif" font-size="10.00" fill="grey">oaes</text>
</g>
<!-- Node4 -->
<g id="Node000004" class="node">
<title>Node4</title>
<g id="a_Node000004"><a xlink:href="unionspdk__nvme__cdata__ctratt.html" target="_top" xlink:title=" ">
<polygon fill="white" stroke="#bfbfbf" points="136.75,-276.75 0.75,-276.75 0.75,-256 136.75,-256 136.75,-276.75"/>
<text xml:space="preserve" text-anchor="middle" x="68.75" y="-263.25" font-family="Helvetica,sans-Serif" font-size="10.00">spdk_nvme_cdata_ctratt</text>
</a>
</g>
</g>
<!-- Node4&#45;&gt;Node1 -->
<g id="edge3_Node000001_Node000004" class="edge">
<title>Node4&#45;&gt;Node1</title>
<g id="a_edge3_Node000001_Node000004"><a xlink:title=" ">
<path fill="none" stroke="#9a32cd" stroke-dasharray="5,2" d="M148.1,-258.2C174.48,-253.74 203.64,-246.88 229,-236.38 254.94,-225.63 281.06,-205.54 295.82,-193.12"/>
<polygon fill="#9a32cd" stroke="#9a32cd" points="147.81,-254.7 138.48,-259.73 148.91,-261.62 147.81,-254.7"/>
</a>
</g>
<text xml:space="preserve" text-anchor="start" x="179.12" y="-262.92" font-family="Helvetica,sans-Serif" font-size="10.00" fill="grey">ctratt</text>
</g>
<!-- Node5 -->
<g id="Node000005" class="node">
<title>Node5</title>
<g id="a_Node000005"><a xlink:href="structspdk__nvme__cdata__oacs.html" target="_top" xlink:title=" ">
<polygon fill="white" stroke="#bfbfbf" points="134.88,-234.75 2.62,-234.75 2.62,-214 134.88,-214 134.88,-234.75"/>
<text xml:space="preserve" text-anchor="middle" x="68.75" y="-221.25" font-family="Helvetica,sans-Serif" font-size="10.00">spdk_nvme_cdata_oacs</text>
</a>
</g>
</g>
<!-- Node5&#45;&gt;Node1 -->
<g id="edge4_Node000001_Node000005" class="edge">
<title>Node5&#45;&gt;Node1</title>
<g id="a_edge4_Node000001_Node000005"><a xlink:title=" ">
<path fill="none" stroke="#9a32cd" stroke-dasharray="5,2" d="M146.18,-215.56C172.52,-212.06 202.15,-207.61 229,-202.38 242.05,-199.83 256.17,-196.46 268.81,-193.21"/>
<polygon fill="#9a32cd" stroke="#9a32cd" points="146.07,-212.05 136.6,-216.81 146.97,-218.99 146.07,-212.05"/>
</a>
</g>
<text xml:space="preserve" text-anchor="start" x="181" y="-220.01" font-family="Helvetica,sans-Serif" font-size="10.00" fill="grey">oacs</text>
</g>
<!-- Node6 -->
<g id="Node000006" class="node">
<title>Node6</title>
<g id="a_Node000006"><a xlink:href="structspdk__nvme__cdata__oncs.html" target="_top" xlink:title="Identify Controller data Optional NVM Command Support.">
<polygon fill="white" stroke="#666666" points="134.88,-192.75 2.62,-192.75 2.62,-172 134.88,-172 134.88,-192.75"/>
<text xml:space="preserve" text-anchor="middle" x="68.75" y="-179.25" font-family="Helvetica,sans-Serif" font-size="10.00">spdk_nvme_cdata_oncs</text>
</a>
</g>
</g>
<!-- Node6&#45;&gt;Node1 -->
<g id="edge5_Node000001_Node000006" class="edge">
<title>Node6&#45;&gt;Node1</title>
<g id="a_edge5_Node000001_Node000006"><a xlink:title=" ">
<path fill="none" stroke="#9a32cd" stroke-dasharray="5,2" d="M146.44,-182.38C178.91,-182.38 216.24,-182.38 246.82,-182.38"/>
<polygon fill="#9a32cd" stroke="#9a32cd" points="146.68,-178.88 136.68,-182.38 146.68,-185.88 146.68,-178.88"/>
</a>
</g>
<text xml:space="preserve" text-anchor="start" x="181" y="-188.62" font-family="Helvetica,sans-Serif" font-size="10.00" fill="grey">oncs</text>
</g>
<!-- Node7 -->
<g id="Node000007" class="node">
<title>Node7</title>
<g id="a_Node000007"><a xlink:href="structspdk__nvme__cdata__fuses.html" target="_top" xlink:title=" ">
<polygon fill="white" stroke="#bfbfbf" points="136.75,-150.75 0.75,-150.75 0.75,-130 136.75,-130 136.75,-150.75"/>
<text xml:space="preserve" text-anchor="middle" x="68.75" y="-137.25" font-family="Helvetica,sans-Serif" font-size="10.00">spdk_nvme_cdata_fuses</text>
</a>
</g>
</g>
<!-- Node7&#45;&gt;Node1 -->
<g id="edge6_Node000001_Node000007" class="edge">
<title>Node7&#45;&gt;Node1</title>
<g id="a_edge6_Node000001_Node000007"><a xlink:title=" ">
<path fill="none" stroke="#9a32cd" stroke-dasharray="5,2" d="M148.41,-147.36C174.23,-150.32 202.97,-154.34 229,-159.62 244.25,-162.72 260.83,-167.3 274.85,-171.55"/>
<polygon fill="#9a32cd" stroke="#9a32cd" points="148.99,-143.9 138.66,-146.28 148.21,-150.86 148.99,-143.9"/>
</a>
</g>
<text xml:space="preserve" text-anchor="start" x="179.12" y="-165.88" font-family="Helvetica,sans-Serif" font-size="10.00" fill="grey">fuses</text>
</g>
<!-- Node8 -->
<g id="Node000008" class="node">
<title>Node8</title>
<g id="a_Node000008"><a xlink:href="structspdk__nvme__cdata__sgls.html" target="_top" xlink:title="Identify Controller data SGL support.">
<polygon fill="white" stroke="#666666" points="133.38,-110.75 4.12,-110.75 4.12,-90 133.38,-90 133.38,-110.75"/>
<text xml:space="preserve" text-anchor="middle" x="68.75" y="-97.25" font-family="Helvetica,sans-Serif" font-size="10.00">spdk_nvme_cdata_sgls</text>
</a>
</g>
</g>
<!-- Node8&#45;&gt;Node1 -->
<g id="edge7_Node000001_Node000008" class="edge">
<title>Node8&#45;&gt;Node1</title>
<g id="a_edge7_Node000001_Node000008"><a xlink:title=" ">
<path fill="none" stroke="#9a32cd" stroke-dasharray="5,2" d="M144.67,-105.01C171.98,-108.56 202.6,-114.77 229,-125.62 255.86,-136.67 282.29,-158.49 296.74,-171.62"/>
<polygon fill="#9a32cd" stroke="#9a32cd" points="145.44,-101.58 135.1,-103.87 144.61,-108.53 145.44,-101.58"/>
</a>
</g>
<text xml:space="preserve" text-anchor="start" x="182.5" y="-131.88" font-family="Helvetica,sans-Serif" font-size="10.00" fill="grey">sgls</text>
</g>
<!-- Node9 -->
<g id="Node000009" class="node">
<title>Node9</title>
<g id="a_Node000009"><a xlink:href="structspdk__nvme__cdata__nvmf__specific.html" target="_top" xlink:title="Identify Controller data NVMe over Fabrics&#45;specific fields.">
<polygon fill="white" stroke="#666666" points="136.38,-72.12 1.12,-72.12 1.12,-38.62 136.38,-38.62 136.38,-72.12"/>
<text xml:space="preserve" text-anchor="start" x="9.12" y="-58.62" font-family="Helvetica,sans-Serif" font-size="10.00">spdk_nvme_cdata_nvmf</text>
<text xml:space="preserve" text-anchor="middle" x="68.75" y="-45.88" font-family="Helvetica,sans-Serif" font-size="10.00">_specific</text>
</a>
</g>
</g>
<!-- Node9&#45;&gt;Node1 -->
<g id="edge8_Node000001_Node000009" class="edge">
<title>Node9&#45;&gt;Node1</title>
<g id="a_edge8_Node000001_Node000009"><a xlink:title=" ">
<path fill="none" stroke="#9a32cd" stroke-dasharray="5,2" d="M147.67,-58.02C174.9,-61.75 204.7,-69.2 229,-83.62 265.62,-105.37 292.11,-150.87 302.79,-171.63"/>
<polygon fill="#9a32cd" stroke="#9a32cd" points="148.44,-54.59 138.09,-56.86 147.6,-61.54 148.44,-54.59"/>
</a>
</g>
<text xml:space="preserve" text-anchor="start" x="158.5" y="-89.88" font-family="Helvetica,sans-Serif" font-size="10.00" fill="grey">nvmf_specific</text>
</g>
<!-- Node10 -->
<g id="Node000010" class="node">
<title>Node10</title>
<g id="a_Node000010"><a xlink:href="structspdk__nvme__power__state.html" target="_top" xlink:title=" ">
<polygon fill="white" stroke="#bfbfbf" points="137.5,-20.75 0,-20.75 0,0 137.5,0 137.5,-20.75"/>
<text xml:space="preserve" text-anchor="middle" x="68.75" y="-7.25" font-family="Helvetica,sans-Serif" font-size="10.00">spdk_nvme_power_state</text>
</a>
</g>
</g>
<!-- Node10&#45;&gt;Node1 -->
<g id="edge9_Node000001_Node000010" class="edge">
<title>Node10&#45;&gt;Node1</title>
<g id="a_edge9_Node000001_Node000010"><a xlink:title=" ">
<path fill="none" stroke="#9a32cd" stroke-dasharray="5,2" d="M149.14,-9.57C176.51,-12.72 206.03,-20.27 229,-36.62 277.3,-71.01 299.02,-144.43 305.66,-171.8"/>
<polygon fill="#9a32cd" stroke="#9a32cd" points="149.76,-6.12 139.48,-8.66 149.1,-13.09 149.76,-6.12"/>
</a>
</g>
<text xml:space="preserve" text-anchor="start" x="183.62" y="-42.88" font-family="Helvetica,sans-Serif" font-size="10.00" fill="grey">psd</text>
</g>
</g>
</svg>
</svg>

<style type='text/css'>
<![CDATA[
[data-mouse-over-selected='false'] { opacity: 0.7; }
[data-mouse-over-selected='true']  { opacity: 1.0; }
]]>
</style>
<script type="application/ecmascript"><![CDATA[
document.addEventListener('DOMContentLoaded', (event) => {
  highlightEdges();
  highlightAdjacentNodes();
});
]]></script>
</svg>
