<?xml version="1.0" encoding="UTF-8" standalone="no"?>
<!DOCTYPE svg PUBLIC "-//W3C//DTD SVG 1.1//EN"
 "http://www.w3.org/Graphics/SVG/1.1/DTD/svg11.dtd">
<!-- Generated by graphviz version 13.1.2 (20250808.2320)
 -->
<!-- Title: spdk_fsdev_io::__fsdev_io_internal_fields Pages: 1 -->
<svg width="308pt" height="273pt"
 viewBox="0.00 0.00 308.00 273.00" xmlns="http://www.w3.org/2000/svg" xmlns:xlink="http://www.w3.org/1999/xlink">

<svg id="main" version="1.1" xmlns="http://www.w3.org/2000/svg" xmlns:xlink="http://www.w3.org/1999/xlink" xml:space="preserve">

<style type="text/css"><![CDATA[
.node, .edge {opacity: 0.7;}
.node.selected, .edge.selected {opacity: 1;}
.edge:hover path { stroke: red; }
.edge:hover polygon { stroke: red; fill: red; }
]]></style>
<script type="application/ecmascript" xlink:href="svg.min.js"/>
<svg id="graph" class="graph">
<g id="graph0" class="graph" transform="scale(1 1) rotate(0) translate(4 269.43)">
<title>spdk_fsdev_io::__fsdev_io_internal_fields</title>
<!-- Node1 -->
<g id="Node000001" class="node">
<title>Node1</title>
<g id="a_Node000001"><a xlink:title="Fields that are used internally by the fsdev subsystem.">
<polygon fill="#999999" stroke="#666666" points="131.88,-259.12 2.62,-259.12 2.62,-225.62 131.88,-225.62 131.88,-259.12"/>
<text xml:space="preserve" text-anchor="start" x="10.62" y="-245.62" font-family="Helvetica,sans-Serif" font-size="10.00">spdk_fsdev_io::__fsdev</text>
<text xml:space="preserve" text-anchor="middle" x="67.25" y="-232.88" font-family="Helvetica,sans-Serif" font-size="10.00">_io_internal_fields</text>
</a>
</g>
</g>
<!-- Node2 -->
<g id="Node000002" class="node">
<title>Node2</title>
<g id="a_Node000002"><a xlink:href="structspdk__fsdev__io.html" target="_top" xlink:title=" ">
<polygon fill="white" stroke="#bfbfbf" points="299.75,-146.75 214,-146.75 214,-126 299.75,-126 299.75,-146.75"/>
<text xml:space="preserve" text-anchor="middle" x="256.88" y="-133.25" font-family="Helvetica,sans-Serif" font-size="10.00">spdk_fsdev_io</text>
</a>
</g>
</g>
<!-- Node1&#45;&gt;Node2 -->
<g id="edge7_Node000002_Node000001" class="edge">
<title>Node1&#45;&gt;Node2</title>
<g id="a_edge7_Node000002_Node000001"><a xlink:title=" ">
<path fill="none" stroke="#9a32cd" stroke-dasharray="5,2" d="M143.47,-247.92C161.7,-246.27 180.41,-241.84 196,-232.38 228.57,-212.6 246.16,-167.67 252.77,-147.06"/>
<polygon fill="#9a32cd" stroke="#9a32cd" points="143.5,-244.41 133.73,-248.51 143.92,-251.39 143.5,-244.41"/>
</a>
</g>
<text xml:space="preserve" text-anchor="start" x="155.5" y="-252.93" font-family="Helvetica,sans-Serif" font-size="10.00" fill="grey">internal</text>
</g>
<!-- Node2&#45;&gt;Node1 -->
<g id="edge1_Node000001_Node000002" class="edge">
<title>Node2&#45;&gt;Node1</title>
<g id="a_edge1_Node000001_Node000002"><a xlink:title=" ">
<path fill="none" stroke="#9a32cd" stroke-dasharray="5,2" d="M237.52,-155.03C226.25,-165.76 211.12,-178.95 196,-188.38 171.99,-203.34 143.11,-215.95 118.89,-225.2"/>
<polygon fill="#9a32cd" stroke="#9a32cd" points="239.88,-157.62 244.58,-148.13 234.98,-152.62 239.88,-157.62"/>
</a>
</g>
<text xml:space="preserve" text-anchor="start" x="161.12" y="-216.03" font-family="Helvetica,sans-Serif" font-size="10.00" fill="grey">cb_fn</text>
</g>
<!-- Node3 -->
<g id="Node000003" class="node">
<title>Node3</title>
<g id="a_Node000003"><a xlink:href="structspdk__fsdev.html" target="_top" xlink:title=" ">
<polygon fill="white" stroke="orangered" points="103,-188.75 31.5,-188.75 31.5,-168 103,-168 103,-188.75"/>
<text xml:space="preserve" text-anchor="middle" x="67.25" y="-175.25" font-family="Helvetica,sans-Serif" font-size="10.00">spdk_fsdev</text>
</a>
</g>
</g>
<!-- Node3&#45;&gt;Node2 -->
<g id="edge2_Node000002_Node000003" class="edge">
<title>Node3&#45;&gt;Node2</title>
<g id="a_edge2_Node000002_Node000003"><a xlink:title=" ">
<path fill="none" stroke="#9a32cd" stroke-dasharray="5,2" d="M114.38,-172.16C138.82,-168.43 169.25,-163.11 196,-156.38 205.99,-153.86 216.72,-150.5 226.29,-147.25"/>
<polygon fill="#9a32cd" stroke="#9a32cd" points="114.13,-168.66 104.75,-173.59 115.15,-175.58 114.13,-168.66"/>
</a>
</g>
<text xml:space="preserve" text-anchor="start" x="160.75" y="-171.66" font-family="Helvetica,sans-Serif" font-size="10.00" fill="grey">fsdev</text>
</g>
<!-- Node10 -->
<g id="Node000010" class="node">
<title>Node10</title>
<g id="a_Node000010"><a xlink:href="structspdk__fsdev__mount__opts.html" target="_top" xlink:title="fsdev mount options">
<polygon fill="white" stroke="#666666" points="134.5,-146.75 0,-146.75 0,-126 134.5,-126 134.5,-146.75"/>
<text xml:space="preserve" text-anchor="middle" x="67.25" y="-133.25" font-family="Helvetica,sans-Serif" font-size="10.00">spdk_fsdev_mount_opts</text>
</a>
</g>
</g>
<!-- Node10&#45;&gt;Node2 -->
<g id="edge3_Node000002_Node000010" class="edge">
<title>Node10&#45;&gt;Node2</title>
<g id="a_edge3_Node000002_Node000010"><a xlink:title=" ">
<path fill="none" stroke="#9a32cd" stroke-dasharray="5,2" d="M146.15,-136.38C169.28,-136.38 193.74,-136.38 213.68,-136.38"/>
<polygon fill="#9a32cd" stroke="#9a32cd" points="146.44,-132.88 136.44,-136.38 146.44,-139.88 146.44,-132.88"/>
</a>
</g>
<text xml:space="preserve" text-anchor="start" x="163.75" y="-142.62" font-family="Helvetica,sans-Serif" font-size="10.00" fill="grey">opts</text>
</g>
<!-- Node11 -->
<g id="Node000011" class="node">
<title>Node11</title>
<g id="a_Node000011"><a xlink:href="structspdk__fsdev__io__opts.html" target="_top" xlink:title="Structure with optional fsdev IO parameters The content of this structure must be valid until the IO ...">
<polygon fill="white" stroke="#666666" points="123.25,-104.75 11.25,-104.75 11.25,-84 123.25,-84 123.25,-104.75"/>
<text xml:space="preserve" text-anchor="middle" x="67.25" y="-91.25" font-family="Helvetica,sans-Serif" font-size="10.00">spdk_fsdev_io_opts</text>
</a>
</g>
</g>
<!-- Node11&#45;&gt;Node2 -->
<g id="edge4_Node000002_Node000011" class="edge">
<title>Node11&#45;&gt;Node2</title>
<g id="a_edge4_Node000002_Node000011"><a xlink:title=" ">
<path fill="none" stroke="#9a32cd" stroke-dasharray="5,2" d="M134.64,-101.64C154.55,-104.55 176.32,-108.47 196,-113.62 207.72,-116.7 220.32,-121.28 230.92,-125.53"/>
<polygon fill="#9a32cd" stroke="#9a32cd" points="135.37,-98.2 124.98,-100.29 134.4,-105.14 135.37,-98.2"/>
</a>
</g>
<text xml:space="preserve" text-anchor="start" x="163.75" y="-119.88" font-family="Helvetica,sans-Serif" font-size="10.00" fill="grey">opts</text>
</g>
<!-- Node12 -->
<g id="Node000012" class="node">
<title>Node12</title>
<g id="a_Node000012"><a xlink:href="structspdk__fsdev__file__attr.html" target="_top" xlink:title=" ">
<polygon fill="white" stroke="#bfbfbf" points="124.38,-62.75 10.12,-62.75 10.12,-42 124.38,-42 124.38,-62.75"/>
<text xml:space="preserve" text-anchor="middle" x="67.25" y="-49.25" font-family="Helvetica,sans-Serif" font-size="10.00">spdk_fsdev_file_attr</text>
</a>
</g>
</g>
<!-- Node12&#45;&gt;Node2 -->
<g id="edge5_Node000002_Node000012" class="edge">
<title>Node12&#45;&gt;Node2</title>
<g id="a_edge5_Node000002_Node000012"><a xlink:title=" ">
<path fill="none" stroke="#9a32cd" stroke-dasharray="5,2" d="M136.11,-61.17C156.16,-65.52 177.64,-72 196,-81.62 217.21,-92.74 236.65,-113.24 247.32,-125.75"/>
<polygon fill="#9a32cd" stroke="#9a32cd" points="136.81,-57.74 126.32,-59.2 135.43,-64.6 136.81,-57.74"/>
</a>
</g>
<text xml:space="preserve" text-anchor="start" x="165.62" y="-87.88" font-family="Helvetica,sans-Serif" font-size="10.00" fill="grey">attr</text>
</g>
<!-- Node13 -->
<g id="Node000013" class="node">
<title>Node13</title>
<g id="a_Node000013"><a xlink:href="structspdk__fsdev__file__statfs.html" target="_top" xlink:title=" ">
<polygon fill="white" stroke="#bfbfbf" points="129.62,-20.75 4.88,-20.75 4.88,0 129.62,0 129.62,-20.75"/>
<text xml:space="preserve" text-anchor="middle" x="67.25" y="-7.25" font-family="Helvetica,sans-Serif" font-size="10.00">spdk_fsdev_file_statfs</text>
</a>
</g>
</g>
<!-- Node13&#45;&gt;Node2 -->
<g id="edge6_Node000002_Node000013" class="edge">
<title>Node13&#45;&gt;Node2</title>
<g id="a_edge6_Node000002_Node000013"><a xlink:title=" ">
<path fill="none" stroke="#9a32cd" stroke-dasharray="5,2" d="M141.26,-18.91C160.35,-23.68 180.03,-31.1 196,-42.62 226.07,-64.32 244.72,-106.2 252.16,-125.79"/>
<polygon fill="#9a32cd" stroke="#9a32cd" points="142.13,-15.52 131.6,-16.73 140.58,-22.35 142.13,-15.52"/>
</a>
</g>
<text xml:space="preserve" text-anchor="start" x="160.38" y="-48.88" font-family="Helvetica,sans-Serif" font-size="10.00" fill="grey">statfs</text>
</g>
</g>
</svg>
</svg>

<style type='text/css'>
<![CDATA[
[data-mouse-over-selected='false'] { opacity: 0.7; }
[data-mouse-over-selected='true']  { opacity: 1.0; }
]]>
</style>
<script type="application/ecmascript"><![CDATA[
document.addEventListener('DOMContentLoaded', (event) => {
  highlightEdges();
  highlightAdjacentNodes();
});
]]></script>
</svg>
