<?xml version="1.0" encoding="UTF-8" standalone="no"?>
<!DOCTYPE svg PUBLIC "-//W3C//DTD SVG 1.1//EN"
 "http://www.w3.org/Graphics/SVG/1.1/DTD/svg11.dtd">
<!-- Generated by graphviz version 13.1.2 (20250808.2320)
 -->
<!-- Title: spdk_lvs_opts Pages: 1 -->
<svg width="162pt" height="180pt"
 viewBox="0.00 0.00 162.00 180.00" xmlns="http://www.w3.org/2000/svg" xmlns:xlink="http://www.w3.org/1999/xlink">
<g id="graph0" class="graph" transform="scale(1 1) rotate(0) translate(4 175.75)">
<title>spdk_lvs_opts</title>
<!-- Node1 -->
<g id="Node000001" class="node">
<title>Node1</title>
<g id="a_Node000001"><a xlink:title="Parameters for lvolstore initialization.">
<polygon fill="#999999" stroke="#666666" points="85,-20.75 0,-20.75 0,0 85,0 85,-20.75"/>
<text xml:space="preserve" text-anchor="middle" x="42.5" y="-7.25" font-family="Helvetica,sans-Serif" font-size="10.00">spdk_lvs_opts</text>
</a>
</g>
</g>
<!-- Node2 -->
<g id="Node000002" class="node">
<title>Node2</title>
<g id="a_Node000002"><a xlink:href="structspdk__bs__dev.html" target="_top" xlink:title=" ">
<polygon fill="white" stroke="#bfbfbf" points="82,-96.25 3,-96.25 3,-75.5 82,-75.5 82,-96.25"/>
<text xml:space="preserve" text-anchor="middle" x="42.5" y="-82.75" font-family="Helvetica,sans-Serif" font-size="10.00">spdk_bs_dev</text>
</a>
</g>
</g>
<!-- Node2&#45;&gt;Node1 -->
<g id="edge1_Node000001_Node000002" class="edge">
<title>Node2&#45;&gt;Node1</title>
<g id="a_edge1_Node000001_Node000002"><a xlink:title=" ">
<path fill="none" stroke="#9a32cd" stroke-dasharray="5,2" d="M42.5,-63.76C42.5,-49.76 42.5,-32.05 42.5,-21.22"/>
<polygon fill="#9a32cd" stroke="#9a32cd" points="39,-63.75 42.5,-73.75 46,-63.75 39,-63.75"/>
</a>
</g>
<text xml:space="preserve" text-anchor="start" x="45.5" y="-45" font-family="Helvetica,sans-Serif" font-size="10.00" fill="grey">esnap_bs_dev_create</text>
</g>
<!-- Node3 -->
<g id="Node000003" class="node">
<title>Node3</title>
<g id="a_Node000003"><a xlink:href="structspdk__bdev.html" target="_top" xlink:title=" ">
<polygon fill="white" stroke="orangered" points="76.75,-171.75 8.25,-171.75 8.25,-151 76.75,-151 76.75,-171.75"/>
<text xml:space="preserve" text-anchor="middle" x="42.5" y="-158.25" font-family="Helvetica,sans-Serif" font-size="10.00">spdk_bdev</text>
</a>
</g>
</g>
<!-- Node3&#45;&gt;Node2 -->
<g id="edge2_Node000002_Node000003" class="edge">
<title>Node3&#45;&gt;Node2</title>
<g id="a_edge2_Node000002_Node000003"><a xlink:title=" ">
<path fill="none" stroke="#9a32cd" stroke-dasharray="5,2" d="M42.5,-139.26C42.5,-125.26 42.5,-107.55 42.5,-96.72"/>
<polygon fill="#9a32cd" stroke="#9a32cd" points="39,-139.25 42.5,-149.25 46,-139.25 39,-139.25"/>
</a>
</g>
<text xml:space="preserve" text-anchor="start" x="45.5" y="-120.5" font-family="Helvetica,sans-Serif" font-size="10.00" fill="grey">get_base_bdev</text>
</g>
</g>
</svg>
