<?xml version="1.0" encoding="UTF-8" standalone="no"?>
<!DOCTYPE svg PUBLIC "-//W3C//DTD SVG 1.1//EN"
 "http://www.w3.org/Graphics/SVG/1.1/DTD/svg11.dtd">
<!-- Generated by graphviz version 13.1.2 (20250808.2320)
 -->
<!-- Title: spdk_nvmf_fc_ls_rjt Pages: 1 -->
<svg width="399pt" height="180pt"
 viewBox="0.00 0.00 399.00 180.00" xmlns="http://www.w3.org/2000/svg" xmlns:xlink="http://www.w3.org/1999/xlink">
<g id="graph0" class="graph" transform="scale(1 1) rotate(0) translate(4 175.75)">
<title>spdk_nvmf_fc_ls_rjt</title>
<!-- Node1 -->
<g id="Node000001" class="node">
<title>Node1</title>
<g id="a_Node000001"><a xlink:title=" ">
<polygon fill="#999999" stroke="#666666" points="221.38,-20.75 107.88,-20.75 107.88,0 221.38,0 221.38,-20.75"/>
<text xml:space="preserve" text-anchor="middle" x="164.62" y="-7.25" font-family="Helvetica,sans-Serif" font-size="10.00">spdk_nvmf_fc_ls_rjt</text>
</a>
</g>
</g>
<!-- Node2 -->
<g id="Node000002" class="node">
<title>Node2</title>
<g id="a_Node000002"><a xlink:href="structspdk__nvmf__fc__ls__rqst__w0.html" target="_top" xlink:title=" ">
<polygon fill="white" stroke="#bfbfbf" points="141.25,-171.75 0,-171.75 0,-151 141.25,-151 141.25,-171.75"/>
<text xml:space="preserve" text-anchor="middle" x="70.62" y="-158.25" font-family="Helvetica,sans-Serif" font-size="10.00">spdk_nvmf_fc_ls_rqst_w0</text>
</a>
</g>
</g>
<!-- Node2&#45;&gt;Node1 -->
<g id="edge1_Node000001_Node000002" class="edge">
<title>Node2&#45;&gt;Node1</title>
<g id="a_edge1_Node000001_Node000002"><a xlink:title=" ">
<path fill="none" stroke="#9a32cd" stroke-dasharray="5,2" d="M62.8,-140.01C57.22,-121.94 52.43,-95.39 63.38,-75.5 78.42,-48.16 110.6,-30.84 134.66,-21.19"/>
<polygon fill="#9a32cd" stroke="#9a32cd" points="59.45,-141.01 66.03,-149.32 66.06,-138.72 59.45,-141.01"/>
</a>
</g>
<text xml:space="preserve" text-anchor="start" x="66.38" y="-82.75" font-family="Helvetica,sans-Serif" font-size="10.00" fill="grey">w0</text>
</g>
<!-- Node3 -->
<g id="Node000003" class="node">
<title>Node3</title>
<g id="a_Node000003"><a xlink:href="structspdk__nvmf__fc__lsdesc__rqst.html" target="_top" xlink:title=" ">
<polygon fill="white" stroke="#bfbfbf" points="236.75,-96.25 92.5,-96.25 92.5,-75.5 236.75,-75.5 236.75,-96.25"/>
<text xml:space="preserve" text-anchor="middle" x="164.62" y="-82.75" font-family="Helvetica,sans-Serif" font-size="10.00">spdk_nvmf_fc_lsdesc_rqst</text>
</a>
</g>
</g>
<!-- Node2&#45;&gt;Node3 -->
<g id="edge3_Node000003_Node000002" class="edge">
<title>Node2&#45;&gt;Node3</title>
<g id="a_edge3_Node000003_Node000002"><a xlink:title=" ">
<path fill="none" stroke="#9a32cd" stroke-dasharray="5,2" d="M91.8,-143.82C110.33,-129.33 136.63,-108.76 152.03,-96.72"/>
<polygon fill="#9a32cd" stroke="#9a32cd" points="89.83,-140.92 84.11,-149.83 94.14,-146.43 89.83,-140.92"/>
</a>
</g>
<text xml:space="preserve" text-anchor="start" x="131.81" y="-120.5" font-family="Helvetica,sans-Serif" font-size="10.00" fill="grey">w0</text>
</g>
<!-- Node3&#45;&gt;Node1 -->
<g id="edge2_Node000001_Node000003" class="edge">
<title>Node3&#45;&gt;Node1</title>
<g id="a_edge2_Node000001_Node000003"><a xlink:title=" ">
<path fill="none" stroke="#9a32cd" stroke-dasharray="5,2" d="M164.62,-63.76C164.62,-49.76 164.62,-32.05 164.62,-21.22"/>
<polygon fill="#9a32cd" stroke="#9a32cd" points="161.13,-63.75 164.63,-73.75 168.13,-63.75 161.13,-63.75"/>
</a>
</g>
<text xml:space="preserve" text-anchor="start" x="167.62" y="-45" font-family="Helvetica,sans-Serif" font-size="10.00" fill="grey">rqst</text>
</g>
<!-- Node4 -->
<g id="Node000004" class="node">
<title>Node4</title>
<g id="a_Node000004"><a xlink:href="structspdk__nvmf__fc__lsdesc__rjt.html" target="_top" xlink:title=" ">
<polygon fill="white" stroke="#bfbfbf" points="390.62,-96.25 254.62,-96.25 254.62,-75.5 390.62,-75.5 390.62,-96.25"/>
<text xml:space="preserve" text-anchor="middle" x="322.62" y="-82.75" font-family="Helvetica,sans-Serif" font-size="10.00">spdk_nvmf_fc_lsdesc_rjt</text>
</a>
</g>
</g>
<!-- Node4&#45;&gt;Node1 -->
<g id="edge4_Node000001_Node000004" class="edge">
<title>Node4&#45;&gt;Node1</title>
<g id="a_edge4_Node000001_Node000004"><a xlink:title=" ">
<path fill="none" stroke="#9a32cd" stroke-dasharray="5,2" d="M291.3,-70.3C260.01,-55.74 212.77,-33.77 185.69,-21.18"/>
<polygon fill="#9a32cd" stroke="#9a32cd" points="289.73,-73.43 300.27,-74.48 292.68,-67.09 289.73,-73.43"/>
</a>
</g>
<text xml:space="preserve" text-anchor="start" x="265.42" y="-45" font-family="Helvetica,sans-Serif" font-size="10.00" fill="grey">rjt</text>
</g>
</g>
</svg>
