<?xml version="1.0" encoding="UTF-8" standalone="no"?>
<!DOCTYPE svg PUBLIC "-//W3C//DTD SVG 1.1//EN"
 "http://www.w3.org/Graphics/SVG/1.1/DTD/svg11.dtd">
<!-- Generated by graphviz version 13.1.2 (20250808.2320)
 -->
<!-- Title: spdk_scsi_task Pages: 1 -->
<svg width="181pt" height="195pt"
 viewBox="0.00 0.00 181.00 195.00" xmlns="http://www.w3.org/2000/svg" xmlns:xlink="http://www.w3.org/1999/xlink">
<g id="graph0" class="graph" transform="scale(1 1) rotate(0) translate(4 190.5)">
<title>spdk_scsi_task</title>
<!-- Node1 -->
<g id="Node000001" class="node">
<title>Node1</title>
<g id="a_Node000001"><a xlink:title=" ">
<polygon fill="#999999" stroke="#666666" points="114.62,-28.12 25.12,-28.12 25.12,-7.38 114.62,-7.38 114.62,-28.12"/>
<text xml:space="preserve" text-anchor="middle" x="69.88" y="-14.62" font-family="Helvetica,sans-Serif" font-size="10.00">spdk_scsi_task</text>
</a>
</g>
</g>
<!-- Node1&#45;&gt;Node1 -->
<g id="edge1_Node000001_Node000001" class="edge">
<title>Node1&#45;&gt;Node1</title>
<g id="a_edge1_Node000001_Node000001"><a xlink:title=" ">
<path fill="none" stroke="#9a32cd" stroke-dasharray="5,2" d="M126.07,-23.99C130.14,-22.58 132.62,-20.5 132.62,-17.75 132.62,-12.99 125.18,-10.24 115,-9.5"/>
<polygon fill="#9a32cd" stroke="#9a32cd" points="125.7,-20.5 116.49,-25.73 126.95,-27.39 125.7,-20.5"/>
</a>
</g>
<text xml:space="preserve" text-anchor="start" x="135.62" y="-23" font-family="Helvetica,sans-Serif" font-size="10.00" fill="grey">cpl_fn</text>
<text xml:space="preserve" text-anchor="start" x="135.62" y="-6.25" font-family="Helvetica,sans-Serif" font-size="10.00" fill="grey">free_fn</text>
</g>
<!-- Node2 -->
<g id="Node000002" class="node">
<title>Node2</title>
<g id="a_Node000002"><a xlink:href="structspdk__bdev__io__wait__entry.html" target="_top" xlink:title="Structure to register a callback when an spdk_bdev_io becomes available.">
<polygon fill="white" stroke="#666666" points="139.75,-111 0,-111 0,-90.25 139.75,-90.25 139.75,-111"/>
<text xml:space="preserve" text-anchor="middle" x="69.88" y="-97.5" font-family="Helvetica,sans-Serif" font-size="10.00">spdk_bdev_io_wait_entry</text>
</a>
</g>
</g>
<!-- Node2&#45;&gt;Node1 -->
<g id="edge2_Node000001_Node000002" class="edge">
<title>Node2&#45;&gt;Node1</title>
<g id="a_edge2_Node000001_Node000002"><a xlink:title=" ">
<path fill="none" stroke="#9a32cd" stroke-dasharray="5,2" d="M69.88,-78.94C69.88,-62.66 69.88,-40.73 69.88,-28.33"/>
<polygon fill="#9a32cd" stroke="#9a32cd" points="66.38,-78.52 69.88,-88.52 73.38,-78.52 66.38,-78.52"/>
</a>
</g>
<text xml:space="preserve" text-anchor="start" x="72.88" y="-59.75" font-family="Helvetica,sans-Serif" font-size="10.00" fill="grey">bdev_io_wait</text>
</g>
<!-- Node3 -->
<g id="Node000003" class="node">
<title>Node3</title>
<g id="a_Node000003"><a xlink:href="structspdk__bdev.html" target="_top" xlink:title=" ">
<polygon fill="white" stroke="orangered" points="104.12,-186.5 35.62,-186.5 35.62,-165.75 104.12,-165.75 104.12,-186.5"/>
<text xml:space="preserve" text-anchor="middle" x="69.88" y="-173" font-family="Helvetica,sans-Serif" font-size="10.00">spdk_bdev</text>
</a>
</g>
</g>
<!-- Node3&#45;&gt;Node2 -->
<g id="edge3_Node000002_Node000003" class="edge">
<title>Node3&#45;&gt;Node2</title>
<g id="a_edge3_Node000002_Node000003"><a xlink:title=" ">
<path fill="none" stroke="#9a32cd" stroke-dasharray="5,2" d="M69.88,-154.01C69.88,-140.01 69.88,-122.3 69.88,-111.47"/>
<polygon fill="#9a32cd" stroke="#9a32cd" points="66.38,-154 69.88,-164 73.38,-154 66.38,-154"/>
</a>
</g>
<text xml:space="preserve" text-anchor="start" x="72.88" y="-135.25" font-family="Helvetica,sans-Serif" font-size="10.00" fill="grey">bdev</text>
</g>
</g>
</svg>
