<?xml version="1.0" encoding="UTF-8" standalone="no"?>
<!DOCTYPE svg PUBLIC "-//W3C//DTD SVG 1.1//EN"
 "http://www.w3.org/Graphics/SVG/1.1/DTD/svg11.dtd">
<!-- Generated by graphviz version 13.1.2 (20250808.2320)
 -->
<!-- Title: spdk_nvme_io_qpair_opts Pages: 1 -->
<svg width="562pt" height="239pt"
 viewBox="0.00 0.00 562.00 239.00" xmlns="http://www.w3.org/2000/svg" xmlns:xlink="http://www.w3.org/1999/xlink">
<g id="graph0" class="graph" transform="scale(1 1) rotate(0) translate(4 234.75)">
<title>spdk_nvme_io_qpair_opts</title>
<!-- Node1 -->
<g id="Node000001" class="node">
<title>Node1</title>
<g id="a_Node000001"><a xlink:title="NVMe I/O queue pair initialization options.">
<polygon fill="#999999" stroke="#666666" points="553.5,-89.75 410.75,-89.75 410.75,-69 553.5,-69 553.5,-89.75"/>
<text xml:space="preserve" text-anchor="middle" x="482.12" y="-76.25" font-family="Helvetica,sans-Serif" font-size="10.00">spdk_nvme_io_qpair_opts</text>
</a>
</g>
</g>
<!-- Node2 -->
<g id="Node000002" class="node">
<title>Node2</title>
<g id="a_Node000002"><a xlink:href="structspdk__nvme__cmd.html" target="_top" xlink:title=" ">
<polygon fill="white" stroke="#bfbfbf" points="341,-125.75 242.5,-125.75 242.5,-105 341,-105 341,-125.75"/>
<text xml:space="preserve" text-anchor="middle" x="291.75" y="-112.25" font-family="Helvetica,sans-Serif" font-size="10.00">spdk_nvme_cmd</text>
</a>
</g>
</g>
<!-- Node2&#45;&gt;Node1 -->
<g id="edge1_Node000001_Node000002" class="edge">
<title>Node2&#45;&gt;Node1</title>
<g id="a_edge1_Node000001_Node000002"><a xlink:title=" ">
<path fill="none" stroke="#9a32cd" stroke-dasharray="5,2" d="M352.29,-104C375.36,-99.59 401.64,-94.57 424.42,-90.21"/>
<polygon fill="#9a32cd" stroke="#9a32cd" points="351.91,-100.51 342.75,-105.82 353.23,-107.38 351.91,-100.51"/>
</a>
</g>
<text xml:space="preserve" text-anchor="start" x="362" y="-108.95" font-family="Helvetica,sans-Serif" font-size="10.00" fill="grey">vaddr</text>
</g>
<!-- Node3 -->
<g id="Node000003" class="node">
<title>Node3</title>
<g id="a_Node000003"><a xlink:href="structspdk__nvme__sgl__descriptor.html" target="_top" xlink:title=" ">
<polygon fill="white" stroke="#bfbfbf" points="145.75,-230.75 0,-230.75 0,-210 145.75,-210 145.75,-230.75"/>
<text xml:space="preserve" text-anchor="middle" x="72.88" y="-217.25" font-family="Helvetica,sans-Serif" font-size="10.00">spdk_nvme_sgl_descriptor</text>
</a>
</g>
</g>
<!-- Node3&#45;&gt;Node2 -->
<g id="edge2_Node000002_Node000003" class="edge">
<title>Node3&#45;&gt;Node2</title>
<g id="a_edge2_Node000002_Node000003"><a xlink:title=" ">
<path fill="none" stroke="#9a32cd" stroke-dasharray="5,2" d="M157.26,-212.21C180.12,-207.48 204.18,-200.05 224.5,-188.38 251.66,-172.77 273.84,-142.17 284.29,-125.99"/>
<polygon fill="#9a32cd" stroke="#9a32cd" points="156.81,-208.73 147.64,-214.03 158.12,-215.61 156.81,-208.73"/>
</a>
</g>
<text xml:space="preserve" text-anchor="start" x="184" y="-216.58" font-family="Helvetica,sans-Serif" font-size="10.00" fill="grey">sgl1</text>
</g>
<!-- Node4 -->
<g id="Node000004" class="node">
<title>Node4</title>
<g id="a_Node000004"><a xlink:href="unionspdk__nvme__cmd__cdw10.html" target="_top" xlink:title=" ">
<polygon fill="white" stroke="#bfbfbf" points="140.5,-188.75 5.25,-188.75 5.25,-168 140.5,-168 140.5,-188.75"/>
<text xml:space="preserve" text-anchor="middle" x="72.88" y="-175.25" font-family="Helvetica,sans-Serif" font-size="10.00">spdk_nvme_cmd_cdw10</text>
</a>
</g>
</g>
<!-- Node4&#45;&gt;Node2 -->
<g id="edge3_Node000002_Node000004" class="edge">
<title>Node4&#45;&gt;Node2</title>
<g id="a_edge3_Node000002_Node000004"><a xlink:title=" ">
<path fill="none" stroke="#9a32cd" stroke-dasharray="5,2" d="M152.05,-168.46C175.71,-164.23 201.51,-158.38 224.5,-150.38 242.07,-144.26 260.68,-134.06 273.69,-126.24"/>
<polygon fill="#9a32cd" stroke="#9a32cd" points="151.75,-164.96 142.48,-170.09 152.93,-171.86 151.75,-164.96"/>
</a>
</g>
<text xml:space="preserve" text-anchor="start" x="166.75" y="-171.73" font-family="Helvetica,sans-Serif" font-size="10.00" fill="grey">cdw10_bits</text>
</g>
<!-- Node5 -->
<g id="Node000005" class="node">
<title>Node5</title>
<g id="a_Node000005"><a xlink:href="unionspdk__nvme__cmd__cdw11.html" target="_top" xlink:title=" ">
<polygon fill="white" stroke="orangered" points="140.5,-146.75 5.25,-146.75 5.25,-126 140.5,-126 140.5,-146.75"/>
<text xml:space="preserve" text-anchor="middle" x="72.88" y="-133.25" font-family="Helvetica,sans-Serif" font-size="10.00">spdk_nvme_cmd_cdw11</text>
</a>
</g>
</g>
<!-- Node5&#45;&gt;Node2 -->
<g id="edge4_Node000002_Node000005" class="edge">
<title>Node5&#45;&gt;Node2</title>
<g id="a_edge4_Node000002_Node000005"><a xlink:title=" ">
<path fill="none" stroke="#9a32cd" stroke-dasharray="5,2" d="M152.05,-128.81C182.1,-125.9 215.53,-122.66 242.03,-120.09"/>
<polygon fill="#9a32cd" stroke="#9a32cd" points="151.84,-125.31 142.22,-129.76 152.51,-132.28 151.84,-125.31"/>
</a>
</g>
<text xml:space="preserve" text-anchor="start" x="166.75" y="-133.38" font-family="Helvetica,sans-Serif" font-size="10.00" fill="grey">cdw11_bits</text>
</g>
<!-- Node24 -->
<g id="Node000024" class="node">
<title>Node24</title>
<g id="a_Node000024"><a xlink:href="unionspdk__nvme__cmd__cdw12.html" target="_top" xlink:title=" ">
<polygon fill="white" stroke="orangered" points="140.5,-104.75 5.25,-104.75 5.25,-84 140.5,-84 140.5,-104.75"/>
<text xml:space="preserve" text-anchor="middle" x="72.88" y="-91.25" font-family="Helvetica,sans-Serif" font-size="10.00">spdk_nvme_cmd_cdw12</text>
</a>
</g>
</g>
<!-- Node24&#45;&gt;Node2 -->
<g id="edge5_Node000002_Node000024" class="edge">
<title>Node24&#45;&gt;Node2</title>
<g id="a_edge5_Node000002_Node000024"><a xlink:title=" ">
<path fill="none" stroke="#9a32cd" stroke-dasharray="5,2" d="M152.12,-94.16C175.48,-94.88 201.1,-96.47 224.5,-99.62 233.05,-100.78 242.11,-102.56 250.7,-104.51"/>
<polygon fill="#9a32cd" stroke="#9a32cd" points="152.45,-90.66 142.36,-93.9 152.27,-97.66 152.45,-90.66"/>
</a>
</g>
<text xml:space="preserve" text-anchor="start" x="166.75" y="-105.88" font-family="Helvetica,sans-Serif" font-size="10.00" fill="grey">cdw12_bits</text>
</g>
<!-- Node27 -->
<g id="Node000027" class="node">
<title>Node27</title>
<g id="a_Node000027"><a xlink:href="unionspdk__nvme__cmd__cdw13.html" target="_top" xlink:title=" ">
<polygon fill="white" stroke="#bfbfbf" points="140.5,-62.75 5.25,-62.75 5.25,-42 140.5,-42 140.5,-62.75"/>
<text xml:space="preserve" text-anchor="middle" x="72.88" y="-49.25" font-family="Helvetica,sans-Serif" font-size="10.00">spdk_nvme_cmd_cdw13</text>
</a>
</g>
</g>
<!-- Node27&#45;&gt;Node2 -->
<g id="edge6_Node000002_Node000027" class="edge">
<title>Node27&#45;&gt;Node2</title>
<g id="a_edge6_Node000002_Node000027"><a xlink:title=" ">
<path fill="none" stroke="#9a32cd" stroke-dasharray="5,2" d="M151.84,-55.53C175.7,-58.29 201.67,-63.15 224.5,-71.62 245.18,-79.3 265.89,-94.47 278.51,-104.77"/>
<polygon fill="#9a32cd" stroke="#9a32cd" points="152.49,-52.08 142.18,-54.53 151.77,-59.04 152.49,-52.08"/>
</a>
</g>
<text xml:space="preserve" text-anchor="start" x="166.75" y="-77.88" font-family="Helvetica,sans-Serif" font-size="10.00" fill="grey">cdw13_bits</text>
</g>
<!-- Node28 -->
<g id="Node000028" class="node">
<title>Node28</title>
<g id="a_Node000028"><a xlink:href="structspdk__nvme__cpl.html" target="_top" xlink:title="Completion queue entry.">
<polygon fill="white" stroke="#666666" points="337.62,-47.75 245.88,-47.75 245.88,-27 337.62,-27 337.62,-47.75"/>
<text xml:space="preserve" text-anchor="middle" x="291.75" y="-34.25" font-family="Helvetica,sans-Serif" font-size="10.00">spdk_nvme_cpl</text>
</a>
</g>
</g>
<!-- Node28&#45;&gt;Node1 -->
<g id="edge7_Node000001_Node000028" class="edge">
<title>Node28&#45;&gt;Node1</title>
<g id="a_edge7_Node000001_Node000028"><a xlink:title=" ">
<path fill="none" stroke="#9a32cd" stroke-dasharray="5,2" d="M348.92,-49.9C375.48,-55.82 406.88,-62.82 432.41,-68.51"/>
<polygon fill="#9a32cd" stroke="#9a32cd" points="349.87,-46.52 339.35,-47.76 348.35,-53.36 349.87,-46.52"/>
</a>
</g>
<text xml:space="preserve" text-anchor="start" x="362" y="-65.88" font-family="Helvetica,sans-Serif" font-size="10.00" fill="grey">vaddr</text>
</g>
<!-- Node29 -->
<g id="Node000029" class="node">
<title>Node29</title>
<g id="a_Node000029"><a xlink:href="structspdk__nvme__status.html" target="_top" xlink:title=" ">
<polygon fill="white" stroke="#bfbfbf" points="126.62,-20.75 19.12,-20.75 19.12,0 126.62,0 126.62,-20.75"/>
<text xml:space="preserve" text-anchor="middle" x="72.88" y="-7.25" font-family="Helvetica,sans-Serif" font-size="10.00">spdk_nvme_status</text>
</a>
</g>
</g>
<!-- Node29&#45;&gt;Node28 -->
<g id="edge8_Node000028_Node000029" class="edge">
<title>Node29&#45;&gt;Node28</title>
<g id="a_edge8_Node000028_Node000029"><a xlink:title=" ">
<path fill="none" stroke="#9a32cd" stroke-dasharray="5,2" d="M138.19,-5.83C165.08,-5.23 196.52,-6.26 224.5,-11.62 239.89,-14.58 256.32,-20.94 268.96,-26.6"/>
<polygon fill="#9a32cd" stroke="#9a32cd" points="138.37,-2.32 128.48,-6.12 138.58,-9.32 138.37,-2.32"/>
</a>
</g>
<text xml:space="preserve" text-anchor="start" x="179.12" y="-17.88" font-family="Helvetica,sans-Serif" font-size="10.00" fill="grey">status</text>
</g>
</g>
</svg>
