<?xml version="1.0" encoding="UTF-8" standalone="no"?>
<!DOCTYPE svg PUBLIC "-//W3C//DTD SVG 1.1//EN"
 "http://www.w3.org/Graphics/SVG/1.1/DTD/svg11.dtd">
<!-- Generated by graphviz version 13.1.2 (20250808.2320)
 -->
<!-- Title: spdk_bs_opts Pages: 1 -->
<svg width="234pt" height="180pt"
 viewBox="0.00 0.00 234.00 180.00" xmlns="http://www.w3.org/2000/svg" xmlns:xlink="http://www.w3.org/1999/xlink">
<g id="graph0" class="graph" transform="scale(1 1) rotate(0) translate(4 175.75)">
<title>spdk_bs_opts</title>
<!-- Node1 -->
<g id="Node000001" class="node">
<title>Node1</title>
<g id="a_Node000001"><a xlink:title=" ">
<polygon fill="#999999" stroke="#666666" points="113.38,-20.75 31.38,-20.75 31.38,0 113.38,0 113.38,-20.75"/>
<text xml:space="preserve" text-anchor="middle" x="72.38" y="-7.25" font-family="Helvetica,sans-Serif" font-size="10.00">spdk_bs_opts</text>
</a>
</g>
</g>
<!-- Node2 -->
<g id="Node000002" class="node">
<title>Node2</title>
<g id="a_Node000002"><a xlink:href="structspdk__bs__type.html" target="_top" xlink:title=" ">
<polygon fill="white" stroke="#bfbfbf" points="82.75,-96.25 0,-96.25 0,-75.5 82.75,-75.5 82.75,-96.25"/>
<text xml:space="preserve" text-anchor="middle" x="41.38" y="-82.75" font-family="Helvetica,sans-Serif" font-size="10.00">spdk_bs_type</text>
</a>
</g>
</g>
<!-- Node2&#45;&gt;Node1 -->
<g id="edge1_Node000001_Node000002" class="edge">
<title>Node2&#45;&gt;Node1</title>
<g id="a_edge1_Node000001_Node000002"><a xlink:title=" ">
<path fill="none" stroke="#9a32cd" stroke-dasharray="5,2" d="M49.59,-64.66C52.9,-56.59 56.78,-47.21 60.38,-38.75 62.85,-32.92 65.69,-26.43 67.99,-21.24"/>
<polygon fill="#9a32cd" stroke="#9a32cd" points="46.35,-63.33 45.81,-73.91 52.83,-65.97 46.35,-63.33"/>
</a>
</g>
<text xml:space="preserve" text-anchor="start" x="63.38" y="-45" font-family="Helvetica,sans-Serif" font-size="10.00" fill="grey">bstype</text>
</g>
<!-- Node3 -->
<g id="Node000003" class="node">
<title>Node3</title>
<g id="a_Node000003"><a xlink:href="structspdk__bs__dev.html" target="_top" xlink:title=" ">
<polygon fill="white" stroke="#bfbfbf" points="179.88,-96.25 100.88,-96.25 100.88,-75.5 179.88,-75.5 179.88,-96.25"/>
<text xml:space="preserve" text-anchor="middle" x="140.38" y="-82.75" font-family="Helvetica,sans-Serif" font-size="10.00">spdk_bs_dev</text>
</a>
</g>
</g>
<!-- Node3&#45;&gt;Node1 -->
<g id="edge2_Node000001_Node000003" class="edge">
<title>Node3&#45;&gt;Node1</title>
<g id="a_edge2_Node000001_Node000003"><a xlink:title=" ">
<path fill="none" stroke="#9a32cd" stroke-dasharray="5,2" d="M124.63,-66.73C117.09,-58.15 107.87,-47.82 99.38,-38.75 93.81,-32.81 87.42,-26.31 82.25,-21.14"/>
<polygon fill="#9a32cd" stroke="#9a32cd" points="121.83,-68.84 131.04,-74.06 127.1,-64.23 121.83,-68.84"/>
</a>
</g>
<text xml:space="preserve" text-anchor="start" x="118.38" y="-45" font-family="Helvetica,sans-Serif" font-size="10.00" fill="grey">esnap_bs_dev_create</text>
</g>
<!-- Node4 -->
<g id="Node000004" class="node">
<title>Node4</title>
<g id="a_Node000004"><a xlink:href="structspdk__bdev.html" target="_top" xlink:title=" ">
<polygon fill="white" stroke="orangered" points="174.62,-171.75 106.12,-171.75 106.12,-151 174.62,-151 174.62,-171.75"/>
<text xml:space="preserve" text-anchor="middle" x="140.38" y="-158.25" font-family="Helvetica,sans-Serif" font-size="10.00">spdk_bdev</text>
</a>
</g>
</g>
<!-- Node4&#45;&gt;Node3 -->
<g id="edge3_Node000003_Node000004" class="edge">
<title>Node4&#45;&gt;Node3</title>
<g id="a_edge3_Node000003_Node000004"><a xlink:title=" ">
<path fill="none" stroke="#9a32cd" stroke-dasharray="5,2" d="M140.38,-139.26C140.38,-125.26 140.38,-107.55 140.38,-96.72"/>
<polygon fill="#9a32cd" stroke="#9a32cd" points="136.88,-139.25 140.38,-149.25 143.88,-139.25 136.88,-139.25"/>
</a>
</g>
<text xml:space="preserve" text-anchor="start" x="143.38" y="-120.5" font-family="Helvetica,sans-Serif" font-size="10.00" fill="grey">get_base_bdev</text>
</g>
</g>
</svg>
