<?xml version="1.0" encoding="UTF-8" standalone="no"?>
<!DOCTYPE svg PUBLIC "-//W3C//DTD SVG 1.1//EN"
 "http://www.w3.org/Graphics/SVG/1.1/DTD/svg11.dtd">
<!-- Generated by graphviz version 13.1.2 (20250808.2320)
 -->
<!-- Title: spdk_nvme_fdp_cfg_log_page Pages: 1 -->
<svg width="176pt" height="180pt"
 viewBox="0.00 0.00 176.00 180.00" xmlns="http://www.w3.org/2000/svg" xmlns:xlink="http://www.w3.org/1999/xlink">
<g id="graph0" class="graph" transform="scale(1 1) rotate(0) translate(4 175.75)">
<title>spdk_nvme_fdp_cfg_log_page</title>
<!-- Node1 -->
<g id="Node000001" class="node">
<title>Node1</title>
<g id="a_Node000001"><a xlink:title=" ">
<polygon fill="#999999" stroke="#666666" points="165.62,-20.75 2.62,-20.75 2.62,0 165.62,0 165.62,-20.75"/>
<text xml:space="preserve" text-anchor="middle" x="84.12" y="-7.25" font-family="Helvetica,sans-Serif" font-size="10.00">spdk_nvme_fdp_cfg_log_page</text>
</a>
</g>
</g>
<!-- Node2 -->
<g id="Node000002" class="node">
<title>Node2</title>
<g id="a_Node000002"><a xlink:href="structspdk__nvme__fdp__cfg__descriptor.html" target="_top" xlink:title=" ">
<polygon fill="white" stroke="#bfbfbf" points="167.88,-96.25 0.38,-96.25 0.38,-75.5 167.88,-75.5 167.88,-96.25"/>
<text xml:space="preserve" text-anchor="middle" x="84.12" y="-82.75" font-family="Helvetica,sans-Serif" font-size="10.00">spdk_nvme_fdp_cfg_descriptor</text>
</a>
</g>
</g>
<!-- Node2&#45;&gt;Node1 -->
<g id="edge1_Node000001_Node000002" class="edge">
<title>Node2&#45;&gt;Node1</title>
<g id="a_edge1_Node000001_Node000002"><a xlink:title=" ">
<path fill="none" stroke="#9a32cd" stroke-dasharray="5,2" d="M84.12,-63.76C84.12,-49.76 84.12,-32.05 84.12,-21.22"/>
<polygon fill="#9a32cd" stroke="#9a32cd" points="80.63,-63.75 84.13,-73.75 87.63,-63.75 80.63,-63.75"/>
</a>
</g>
<text xml:space="preserve" text-anchor="start" x="87.12" y="-45" font-family="Helvetica,sans-Serif" font-size="10.00" fill="grey">cfg_desc</text>
</g>
<!-- Node3 -->
<g id="Node000003" class="node">
<title>Node3</title>
<g id="a_Node000003"><a xlink:href="structspdk__nvme__fdp__ruh__descriptor.html" target="_top" xlink:title=" ">
<polygon fill="white" stroke="#bfbfbf" points="168.25,-171.75 0,-171.75 0,-151 168.25,-151 168.25,-171.75"/>
<text xml:space="preserve" text-anchor="middle" x="84.12" y="-158.25" font-family="Helvetica,sans-Serif" font-size="10.00">spdk_nvme_fdp_ruh_descriptor</text>
</a>
</g>
</g>
<!-- Node3&#45;&gt;Node2 -->
<g id="edge2_Node000002_Node000003" class="edge">
<title>Node3&#45;&gt;Node2</title>
<g id="a_edge2_Node000002_Node000003"><a xlink:title=" ">
<path fill="none" stroke="#9a32cd" stroke-dasharray="5,2" d="M84.12,-139.26C84.12,-125.26 84.12,-107.55 84.12,-96.72"/>
<polygon fill="#9a32cd" stroke="#9a32cd" points="80.63,-139.25 84.13,-149.25 87.63,-139.25 80.63,-139.25"/>
</a>
</g>
<text xml:space="preserve" text-anchor="start" x="87.12" y="-120.5" font-family="Helvetica,sans-Serif" font-size="10.00" fill="grey">ruh_desc</text>
</g>
</g>
</svg>
