<?xml version="1.0" encoding="UTF-8" standalone="no"?>
<!DOCTYPE svg PUBLIC "-//W3C//DTD SVG 1.1//EN"
 "http://www.w3.org/Graphics/SVG/1.1/DTD/svg11.dtd">
<!-- Generated by graphviz version 13.1.2 (20250808.2320)
 -->
<!-- Title: spdk_nvmf_registers Pages: 1 -->
<svg width="327pt" height="239pt"
 viewBox="0.00 0.00 327.00 239.00" xmlns="http://www.w3.org/2000/svg" xmlns:xlink="http://www.w3.org/1999/xlink">

<svg id="main" version="1.1" xmlns="http://www.w3.org/2000/svg" xmlns:xlink="http://www.w3.org/1999/xlink" xml:space="preserve">

<style type="text/css"><![CDATA[
.node, .edge {opacity: 0.7;}
.node.selected, .edge.selected {opacity: 1;}
.edge:hover path { stroke: red; }
.edge:hover polygon { stroke: red; fill: red; }
]]></style>
<script type="application/ecmascript" xlink:href="svg.min.js"/>
<svg id="graph" class="graph">
<g id="graph0" class="graph" transform="scale(1 1) rotate(0) translate(4 234.75)">
<title>spdk_nvmf_registers</title>
<!-- Node1 -->
<g id="Node000001" class="node">
<title>Node1</title>
<g id="a_Node000001"><a xlink:title="A subset of struct spdk_nvme_registers that are emulated by a fabrics device.">
<polygon fill="#999999" stroke="#666666" points="319.25,-125.75 201.25,-125.75 201.25,-105 319.25,-105 319.25,-125.75"/>
<text xml:space="preserve" text-anchor="middle" x="260.25" y="-112.25" font-family="Helvetica,sans-Serif" font-size="10.00">spdk_nvmf_registers</text>
</a>
</g>
</g>
<!-- Node2 -->
<g id="Node000002" class="node">
<title>Node2</title>
<g id="a_Node000002"><a xlink:href="unionspdk__nvme__cap__register.html" target="_top" xlink:title=" ">
<polygon fill="white" stroke="#bfbfbf" points="138.62,-230.75 1.12,-230.75 1.12,-210 138.62,-210 138.62,-230.75"/>
<text xml:space="preserve" text-anchor="middle" x="69.88" y="-217.25" font-family="Helvetica,sans-Serif" font-size="10.00">spdk_nvme_cap_register</text>
</a>
</g>
</g>
<!-- Node2&#45;&gt;Node1 -->
<g id="edge1_Node000001_Node000002" class="edge">
<title>Node2&#45;&gt;Node1</title>
<g id="a_edge1_Node000001_Node000002"><a xlink:title=" ">
<path fill="none" stroke="#9a32cd" stroke-dasharray="5,2" d="M114.92,-206.03C123.19,-203.24 131.76,-200.27 139.75,-197.38 159.27,-190.31 165.45,-191.05 183.25,-180.38 209.46,-164.66 235.55,-139.83 249.3,-125.85"/>
<polygon fill="#9a32cd" stroke="#9a32cd" points="114.08,-202.62 105.71,-209.12 116.3,-209.26 114.08,-202.62"/>
</a>
</g>
<text xml:space="preserve" text-anchor="start" x="161.88" y="-197.66" font-family="Helvetica,sans-Serif" font-size="10.00" fill="grey">cap</text>
</g>
<!-- Node3 -->
<g id="Node000003" class="node">
<title>Node3</title>
<g id="a_Node000003"><a xlink:href="unionspdk__nvme__vs__register.html" target="_top" xlink:title=" ">
<polygon fill="white" stroke="#bfbfbf" points="135.62,-188.75 4.12,-188.75 4.12,-168 135.62,-168 135.62,-188.75"/>
<text xml:space="preserve" text-anchor="middle" x="69.88" y="-175.25" font-family="Helvetica,sans-Serif" font-size="10.00">spdk_nvme_vs_register</text>
</a>
</g>
</g>
<!-- Node3&#45;&gt;Node1 -->
<g id="edge2_Node000001_Node000003" class="edge">
<title>Node3&#45;&gt;Node1</title>
<g id="a_edge2_Node000001_Node000003"><a xlink:title=" ">
<path fill="none" stroke="#9a32cd" stroke-dasharray="5,2" d="M131.29,-164.77C148.27,-160.41 166.64,-155.19 183.25,-149.38 202.08,-142.79 222.69,-133.42 237.69,-126.19"/>
<polygon fill="#9a32cd" stroke="#9a32cd" points="130.68,-161.31 121.83,-167.14 132.38,-168.11 130.68,-161.31"/>
</a>
</g>
<text xml:space="preserve" text-anchor="start" x="164.88" y="-163.38" font-family="Helvetica,sans-Serif" font-size="10.00" fill="grey">vs</text>
</g>
<!-- Node4 -->
<g id="Node000004" class="node">
<title>Node4</title>
<g id="a_Node000004"><a xlink:href="unionspdk__nvme__cc__register.html" target="_top" xlink:title=" ">
<polygon fill="white" stroke="#bfbfbf" points="135.25,-146.75 4.5,-146.75 4.5,-126 135.25,-126 135.25,-146.75"/>
<text xml:space="preserve" text-anchor="middle" x="69.88" y="-133.25" font-family="Helvetica,sans-Serif" font-size="10.00">spdk_nvme_cc_register</text>
</a>
</g>
</g>
<!-- Node4&#45;&gt;Node1 -->
<g id="edge3_Node000001_Node000004" class="edge">
<title>Node4&#45;&gt;Node1</title>
<g id="a_edge3_Node000001_Node000004"><a xlink:title=" ">
<path fill="none" stroke="#9a32cd" stroke-dasharray="5,2" d="M147.05,-127.88C165.02,-125.88 183.89,-123.78 200.93,-121.88"/>
<polygon fill="#9a32cd" stroke="#9a32cd" points="146.76,-124.39 137.21,-128.98 147.53,-131.35 146.76,-124.39"/>
</a>
</g>
<text xml:space="preserve" text-anchor="start" x="165.25" y="-132.75" font-family="Helvetica,sans-Serif" font-size="10.00" fill="grey">cc</text>
</g>
<!-- Node5 -->
<g id="Node000005" class="node">
<title>Node5</title>
<g id="a_Node000005"><a xlink:href="unionspdk__nvme__csts__register.html" target="_top" xlink:title=" ">
<polygon fill="white" stroke="#bfbfbf" points="139.75,-104.75 0,-104.75 0,-84 139.75,-84 139.75,-104.75"/>
<text xml:space="preserve" text-anchor="middle" x="69.88" y="-91.25" font-family="Helvetica,sans-Serif" font-size="10.00">spdk_nvme_csts_register</text>
</a>
</g>
</g>
<!-- Node5&#45;&gt;Node1 -->
<g id="edge4_Node000001_Node000005" class="edge">
<title>Node5&#45;&gt;Node1</title>
<g id="a_edge4_Node000001_Node000005"><a xlink:title=" ">
<path fill="none" stroke="#9a32cd" stroke-dasharray="5,2" d="M151.69,-98.47C162.32,-99.34 173.06,-100.38 183.25,-101.62 189.77,-102.42 196.58,-103.42 203.33,-104.51"/>
<polygon fill="#9a32cd" stroke="#9a32cd" points="151.97,-94.98 141.74,-97.71 151.44,-101.96 151.97,-94.98"/>
</a>
</g>
<text xml:space="preserve" text-anchor="start" x="160.75" y="-107.88" font-family="Helvetica,sans-Serif" font-size="10.00" fill="grey">csts</text>
</g>
<!-- Node6 -->
<g id="Node000006" class="node">
<title>Node6</title>
<g id="a_Node000006"><a xlink:href="unionspdk__nvme__aqa__register.html" target="_top" xlink:title=" ">
<polygon fill="white" stroke="#bfbfbf" points="139,-62.75 0.75,-62.75 0.75,-42 139,-42 139,-62.75"/>
<text xml:space="preserve" text-anchor="middle" x="69.88" y="-49.25" font-family="Helvetica,sans-Serif" font-size="10.00">spdk_nvme_aqa_register</text>
</a>
</g>
</g>
<!-- Node6&#45;&gt;Node1 -->
<g id="edge5_Node000001_Node000006" class="edge">
<title>Node6&#45;&gt;Node1</title>
<g id="a_edge5_Node000001_Node000006"><a xlink:title=" ">
<path fill="none" stroke="#9a32cd" stroke-dasharray="5,2" d="M145.96,-65.75C158.57,-68.79 171.4,-72.41 183.25,-76.62 204.04,-84.03 226.37,-95.94 241.41,-104.6"/>
<polygon fill="#9a32cd" stroke="#9a32cd" points="146.98,-62.39 136.45,-63.55 145.41,-69.21 146.98,-62.39"/>
</a>
</g>
<text xml:space="preserve" text-anchor="start" x="161.5" y="-82.88" font-family="Helvetica,sans-Serif" font-size="10.00" fill="grey">aqa</text>
</g>
<!-- Node7 -->
<g id="Node000007" class="node">
<title>Node7</title>
<g id="a_Node000007"><a xlink:href="unionspdk__nvme__crto__register.html" target="_top" xlink:title=" ">
<polygon fill="white" stroke="#bfbfbf" points="139.38,-20.75 0.38,-20.75 0.38,0 139.38,0 139.38,-20.75"/>
<text xml:space="preserve" text-anchor="middle" x="69.88" y="-7.25" font-family="Helvetica,sans-Serif" font-size="10.00">spdk_nvme_crto_register</text>
</a>
</g>
</g>
<!-- Node7&#45;&gt;Node1 -->
<g id="edge6_Node000001_Node000007" class="edge">
<title>Node7&#45;&gt;Node1</title>
<g id="a_edge6_Node000001_Node000007"><a xlink:title=" ">
<path fill="none" stroke="#9a32cd" stroke-dasharray="5,2" d="M130.32,-24.42C148.02,-29.94 167.01,-37.24 183.25,-46.62 210.68,-62.46 236.71,-89.51 250.02,-104.53"/>
<polygon fill="#9a32cd" stroke="#9a32cd" points="131.54,-21.13 120.95,-21.65 129.55,-27.84 131.54,-21.13"/>
</a>
</g>
<text xml:space="preserve" text-anchor="start" x="161.12" y="-52.88" font-family="Helvetica,sans-Serif" font-size="10.00" fill="grey">crto</text>
</g>
</g>
</svg>
</svg>

<style type='text/css'>
<![CDATA[
[data-mouse-over-selected='false'] { opacity: 0.7; }
[data-mouse-over-selected='true']  { opacity: 1.0; }
]]>
</style>
<script type="application/ecmascript"><![CDATA[
document.addEventListener('DOMContentLoaded', (event) => {
  highlightEdges();
  highlightAdjacentNodes();
});
]]></script>
</svg>
