<?xml version="1.0" encoding="UTF-8" standalone="no"?>
<!DOCTYPE svg PUBLIC "-//W3C//DTD SVG 1.1//EN"
 "http://www.w3.org/Graphics/SVG/1.1/DTD/svg11.dtd">
<!-- Generated by graphviz version 13.1.2 (20250808.2320)
 -->
<!-- Title: ftl_stats_entry Pages: 1 -->
<svg width="96pt" height="197pt"
 viewBox="0.00 0.00 96.00 197.00" xmlns="http://www.w3.org/2000/svg" xmlns:xlink="http://www.w3.org/1999/xlink">
<g id="graph0" class="graph" transform="scale(1 1) rotate(0) translate(4 192.5)">
<title>ftl_stats_entry</title>
<!-- Node1 -->
<g id="Node000001" class="node">
<title>Node1</title>
<g id="a_Node000001"><a xlink:title=" ">
<polygon fill="#999999" stroke="#666666" points="86.88,-20.75 1.12,-20.75 1.12,0 86.88,0 86.88,-20.75"/>
<text xml:space="preserve" text-anchor="middle" x="44" y="-7.25" font-family="Helvetica,sans-Serif" font-size="10.00">ftl_stats_entry</text>
</a>
</g>
</g>
<!-- Node2 -->
<g id="Node000002" class="node">
<title>Node2</title>
<g id="a_Node000002"><a xlink:href="structftl__stats__group.html" target="_top" xlink:title=" ">
<polygon fill="white" stroke="#bfbfbf" points="88,-113 0,-113 0,-92.25 88,-92.25 88,-113"/>
<text xml:space="preserve" text-anchor="middle" x="44" y="-99.5" font-family="Helvetica,sans-Serif" font-size="10.00">ftl_stats_group</text>
</a>
</g>
</g>
<!-- Node2&#45;&gt;Node1 -->
<g id="edge1_Node000001_Node000002" class="edge">
<title>Node2&#45;&gt;Node1</title>
<g id="a_edge1_Node000001_Node000002"><a xlink:title=" ">
<path fill="none" stroke="#9a32cd" stroke-dasharray="5,2" d="M44,-80.52C44,-61.83 44,-35.4 44,-21.24"/>
<polygon fill="#9a32cd" stroke="#9a32cd" points="40.5,-80.45 44,-90.45 47.5,-80.45 40.5,-80.45"/>
</a>
</g>
<text xml:space="preserve" text-anchor="start" x="47" y="-61.75" font-family="Helvetica,sans-Serif" font-size="10.00" fill="grey">read</text>
<text xml:space="preserve" text-anchor="start" x="47" y="-45" font-family="Helvetica,sans-Serif" font-size="10.00" fill="grey">write</text>
</g>
<!-- Node3 -->
<g id="Node000003" class="node">
<title>Node3</title>
<g id="a_Node000003"><a xlink:href="structftl__stats__error.html" target="_top" xlink:title=" ">
<polygon fill="white" stroke="#bfbfbf" points="85.75,-188.5 2.25,-188.5 2.25,-167.75 85.75,-167.75 85.75,-188.5"/>
<text xml:space="preserve" text-anchor="middle" x="44" y="-175" font-family="Helvetica,sans-Serif" font-size="10.00">ftl_stats_error</text>
</a>
</g>
</g>
<!-- Node3&#45;&gt;Node2 -->
<g id="edge2_Node000002_Node000003" class="edge">
<title>Node3&#45;&gt;Node2</title>
<g id="a_edge2_Node000002_Node000003"><a xlink:title=" ">
<path fill="none" stroke="#9a32cd" stroke-dasharray="5,2" d="M44,-156.01C44,-142.01 44,-124.3 44,-113.47"/>
<polygon fill="#9a32cd" stroke="#9a32cd" points="40.5,-156 44,-166 47.5,-156 40.5,-156"/>
</a>
</g>
<text xml:space="preserve" text-anchor="start" x="47" y="-137.25" font-family="Helvetica,sans-Serif" font-size="10.00" fill="grey">errors</text>
</g>
</g>
</svg>
