<?xml version="1.0" encoding="UTF-8" standalone="no"?>
<!DOCTYPE svg PUBLIC "-//W3C//DTD SVG 1.1//EN"
 "http://www.w3.org/Graphics/SVG/1.1/DTD/svg11.dtd">
<!-- Generated by graphviz version 13.1.2 (20250808.2320)
 -->
<!-- Title: spdk_bdev_alias Pages: 1 -->
<svg width="110pt" height="180pt"
 viewBox="0.00 0.00 110.00 180.00" xmlns="http://www.w3.org/2000/svg" xmlns:xlink="http://www.w3.org/1999/xlink">
<g id="graph0" class="graph" transform="scale(1 1) rotate(0) translate(4 175.75)">
<title>spdk_bdev_alias</title>
<!-- Node1 -->
<g id="Node000001" class="node">
<title>Node1</title>
<g id="a_Node000001"><a xlink:title=" ">
<polygon fill="#999999" stroke="#666666" points="99.25,-20.75 2.25,-20.75 2.25,0 99.25,0 99.25,-20.75"/>
<text xml:space="preserve" text-anchor="middle" x="50.75" y="-7.25" font-family="Helvetica,sans-Serif" font-size="10.00">spdk_bdev_alias</text>
</a>
</g>
</g>
<!-- Node2 -->
<g id="Node000002" class="node">
<title>Node2</title>
<g id="a_Node000002"><a xlink:href="structspdk__bdev__name.html" target="_top" xlink:title=" ">
<polygon fill="white" stroke="#bfbfbf" points="101.5,-96.25 0,-96.25 0,-75.5 101.5,-75.5 101.5,-96.25"/>
<text xml:space="preserve" text-anchor="middle" x="50.75" y="-82.75" font-family="Helvetica,sans-Serif" font-size="10.00">spdk_bdev_name</text>
</a>
</g>
</g>
<!-- Node2&#45;&gt;Node1 -->
<g id="edge1_Node000001_Node000002" class="edge">
<title>Node2&#45;&gt;Node1</title>
<g id="a_edge1_Node000001_Node000002"><a xlink:title=" ">
<path fill="none" stroke="#9a32cd" stroke-dasharray="5,2" d="M50.75,-63.76C50.75,-49.76 50.75,-32.05 50.75,-21.22"/>
<polygon fill="#9a32cd" stroke="#9a32cd" points="47.25,-63.75 50.75,-73.75 54.25,-63.75 47.25,-63.75"/>
</a>
</g>
<text xml:space="preserve" text-anchor="start" x="53.75" y="-45" font-family="Helvetica,sans-Serif" font-size="10.00" fill="grey">alias</text>
</g>
<!-- Node3 -->
<g id="Node000003" class="node">
<title>Node3</title>
<g id="a_Node000003"><a xlink:href="structspdk__bdev.html" target="_top" xlink:title=" ">
<polygon fill="white" stroke="orangered" points="85,-171.75 16.5,-171.75 16.5,-151 85,-151 85,-171.75"/>
<text xml:space="preserve" text-anchor="middle" x="50.75" y="-158.25" font-family="Helvetica,sans-Serif" font-size="10.00">spdk_bdev</text>
</a>
</g>
</g>
<!-- Node3&#45;&gt;Node2 -->
<g id="edge2_Node000002_Node000003" class="edge">
<title>Node3&#45;&gt;Node2</title>
<g id="a_edge2_Node000002_Node000003"><a xlink:title=" ">
<path fill="none" stroke="#9a32cd" stroke-dasharray="5,2" d="M50.75,-139.26C50.75,-125.26 50.75,-107.55 50.75,-96.72"/>
<polygon fill="#9a32cd" stroke="#9a32cd" points="47.25,-139.25 50.75,-149.25 54.25,-139.25 47.25,-139.25"/>
</a>
</g>
<text xml:space="preserve" text-anchor="start" x="53.75" y="-120.5" font-family="Helvetica,sans-Serif" font-size="10.00" fill="grey">bdev</text>
</g>
</g>
</svg>
