<?xml version="1.0" encoding="UTF-8" standalone="no"?>
<!DOCTYPE svg PUBLIC "-//W3C//DTD SVG 1.1//EN"
 "http://www.w3.org/Graphics/SVG/1.1/DTD/svg11.dtd">
<!-- Generated by graphviz version 13.1.2 (20250808.2320)
 -->
<!-- Title: spdk_bdev_io_nvme_passthru_params Pages: 1 -->
<svg width="575pt" height="197pt"
 viewBox="0.00 0.00 575.00 197.00" xmlns="http://www.w3.org/2000/svg" xmlns:xlink="http://www.w3.org/1999/xlink">
<g id="graph0" class="graph" transform="scale(1 1) rotate(0) translate(4 192.75)">
<title>spdk_bdev_io_nvme_passthru_params</title>
<!-- Node1 -->
<g id="Node000001" class="node">
<title>Node1</title>
<g id="a_Node000001"><a xlink:title=" ">
<polygon fill="#999999" stroke="#666666" points="567,-111.12 404,-111.12 404,-77.62 567,-77.62 567,-111.12"/>
<text xml:space="preserve" text-anchor="start" x="412" y="-97.62" font-family="Helvetica,sans-Serif" font-size="10.00">spdk_bdev_io_nvme_passthru</text>
<text xml:space="preserve" text-anchor="middle" x="485.5" y="-84.88" font-family="Helvetica,sans-Serif" font-size="10.00">_params</text>
</a>
</g>
</g>
<!-- Node2 -->
<g id="Node000002" class="node">
<title>Node2</title>
<g id="a_Node000002"><a xlink:href="structspdk__nvme__cmd.html" target="_top" xlink:title=" ">
<polygon fill="white" stroke="#bfbfbf" points="341,-104.75 242.5,-104.75 242.5,-84 341,-84 341,-104.75"/>
<text xml:space="preserve" text-anchor="middle" x="291.75" y="-91.25" font-family="Helvetica,sans-Serif" font-size="10.00">spdk_nvme_cmd</text>
</a>
</g>
</g>
<!-- Node2&#45;&gt;Node1 -->
<g id="edge1_Node000001_Node000002" class="edge">
<title>Node2&#45;&gt;Node1</title>
<g id="a_edge1_Node000001_Node000002"><a xlink:title=" ">
<path fill="none" stroke="#9a32cd" stroke-dasharray="5,2" d="M352.6,-94.38C368.78,-94.38 386.55,-94.38 403.68,-94.38"/>
<polygon fill="#9a32cd" stroke="#9a32cd" points="352.65,-90.88 342.65,-94.38 352.65,-97.88 352.65,-90.88"/>
</a>
</g>
<text xml:space="preserve" text-anchor="start" x="362" y="-100.62" font-family="Helvetica,sans-Serif" font-size="10.00" fill="grey">cmd</text>
</g>
<!-- Node3 -->
<g id="Node000003" class="node">
<title>Node3</title>
<g id="a_Node000003"><a xlink:href="structspdk__nvme__sgl__descriptor.html" target="_top" xlink:title=" ">
<polygon fill="white" stroke="#bfbfbf" points="145.75,-188.75 0,-188.75 0,-168 145.75,-168 145.75,-188.75"/>
<text xml:space="preserve" text-anchor="middle" x="72.88" y="-175.25" font-family="Helvetica,sans-Serif" font-size="10.00">spdk_nvme_sgl_descriptor</text>
</a>
</g>
</g>
<!-- Node3&#45;&gt;Node2 -->
<g id="edge2_Node000002_Node000003" class="edge">
<title>Node3&#45;&gt;Node2</title>
<g id="a_edge2_Node000002_Node000003"><a xlink:title=" ">
<path fill="none" stroke="#9a32cd" stroke-dasharray="5,2" d="M157.45,-168.42C179.91,-163.83 203.72,-157.13 224.5,-147.38 246.9,-136.86 268.43,-117.32 280.59,-105.13"/>
<polygon fill="#9a32cd" stroke="#9a32cd" points="156.85,-164.97 147.69,-170.29 158.17,-171.85 156.85,-164.97"/>
</a>
</g>
<text xml:space="preserve" text-anchor="start" x="184" y="-173.13" font-family="Helvetica,sans-Serif" font-size="10.00" fill="grey">sgl1</text>
</g>
<!-- Node4 -->
<g id="Node000004" class="node">
<title>Node4</title>
<g id="a_Node000004"><a xlink:href="unionspdk__nvme__cmd__cdw10.html" target="_top" xlink:title=" ">
<polygon fill="white" stroke="#bfbfbf" points="140.5,-146.75 5.25,-146.75 5.25,-126 140.5,-126 140.5,-146.75"/>
<text xml:space="preserve" text-anchor="middle" x="72.88" y="-133.25" font-family="Helvetica,sans-Serif" font-size="10.00">spdk_nvme_cmd_cdw10</text>
</a>
</g>
</g>
<!-- Node4&#45;&gt;Node2 -->
<g id="edge3_Node000002_Node000004" class="edge">
<title>Node4&#45;&gt;Node2</title>
<g id="a_edge3_Node000002_Node000004"><a xlink:title=" ">
<path fill="none" stroke="#9a32cd" stroke-dasharray="5,2" d="M152.27,-127.17C175.64,-123.82 201.22,-119.56 224.5,-114.38 235.64,-111.89 247.64,-108.5 258.32,-105.21"/>
<polygon fill="#9a32cd" stroke="#9a32cd" points="151.92,-123.68 142.5,-128.53 152.88,-130.62 151.92,-123.68"/>
</a>
</g>
<text xml:space="preserve" text-anchor="start" x="166.75" y="-131.24" font-family="Helvetica,sans-Serif" font-size="10.00" fill="grey">cdw10_bits</text>
</g>
<!-- Node5 -->
<g id="Node000005" class="node">
<title>Node5</title>
<g id="a_Node000005"><a xlink:href="unionspdk__nvme__cmd__cdw11.html" target="_top" xlink:title=" ">
<polygon fill="white" stroke="orangered" points="140.5,-104.75 5.25,-104.75 5.25,-84 140.5,-84 140.5,-104.75"/>
<text xml:space="preserve" text-anchor="middle" x="72.88" y="-91.25" font-family="Helvetica,sans-Serif" font-size="10.00">spdk_nvme_cmd_cdw11</text>
</a>
</g>
</g>
<!-- Node5&#45;&gt;Node2 -->
<g id="edge4_Node000002_Node000005" class="edge">
<title>Node5&#45;&gt;Node2</title>
<g id="a_edge4_Node000002_Node000005"><a xlink:title=" ">
<path fill="none" stroke="#9a32cd" stroke-dasharray="5,2" d="M152.05,-94.38C182.1,-94.38 215.53,-94.38 242.03,-94.38"/>
<polygon fill="#9a32cd" stroke="#9a32cd" points="152.23,-90.88 142.23,-94.38 152.23,-97.88 152.23,-90.88"/>
</a>
</g>
<text xml:space="preserve" text-anchor="start" x="166.75" y="-100.62" font-family="Helvetica,sans-Serif" font-size="10.00" fill="grey">cdw11_bits</text>
</g>
<!-- Node24 -->
<g id="Node000024" class="node">
<title>Node24</title>
<g id="a_Node000024"><a xlink:href="unionspdk__nvme__cmd__cdw12.html" target="_top" xlink:title=" ">
<polygon fill="white" stroke="orangered" points="140.5,-62.75 5.25,-62.75 5.25,-42 140.5,-42 140.5,-62.75"/>
<text xml:space="preserve" text-anchor="middle" x="72.88" y="-49.25" font-family="Helvetica,sans-Serif" font-size="10.00">spdk_nvme_cmd_cdw12</text>
</a>
</g>
</g>
<!-- Node24&#45;&gt;Node2 -->
<g id="edge5_Node000002_Node000024" class="edge">
<title>Node24&#45;&gt;Node2</title>
<g id="a_edge5_Node000002_Node000024"><a xlink:title=" ">
<path fill="none" stroke="#9a32cd" stroke-dasharray="5,2" d="M152.08,-59.3C175.54,-62.2 201.22,-66.2 224.5,-71.62 237.53,-74.66 251.59,-79.29 263.4,-83.58"/>
<polygon fill="#9a32cd" stroke="#9a32cd" points="152.6,-55.84 142.26,-58.14 151.78,-62.79 152.6,-55.84"/>
</a>
</g>
<text xml:space="preserve" text-anchor="start" x="166.75" y="-77.88" font-family="Helvetica,sans-Serif" font-size="10.00" fill="grey">cdw12_bits</text>
</g>
<!-- Node27 -->
<g id="Node000027" class="node">
<title>Node27</title>
<g id="a_Node000027"><a xlink:href="unionspdk__nvme__cmd__cdw13.html" target="_top" xlink:title=" ">
<polygon fill="white" stroke="#bfbfbf" points="140.5,-20.75 5.25,-20.75 5.25,0 140.5,0 140.5,-20.75"/>
<text xml:space="preserve" text-anchor="middle" x="72.88" y="-7.25" font-family="Helvetica,sans-Serif" font-size="10.00">spdk_nvme_cmd_cdw13</text>
</a>
</g>
</g>
<!-- Node27&#45;&gt;Node2 -->
<g id="edge6_Node000002_Node000027" class="edge">
<title>Node27&#45;&gt;Node2</title>
<g id="a_edge6_Node000002_Node000027"><a xlink:title=" ">
<path fill="none" stroke="#9a32cd" stroke-dasharray="5,2" d="M151.93,-17.23C176.02,-21.37 202.08,-28 224.5,-38.62 247.87,-49.7 269.74,-71.06 281.58,-83.88"/>
<polygon fill="#9a32cd" stroke="#9a32cd" points="152.58,-13.79 142.15,-15.68 151.48,-20.71 152.58,-13.79"/>
</a>
</g>
<text xml:space="preserve" text-anchor="start" x="166.75" y="-44.88" font-family="Helvetica,sans-Serif" font-size="10.00" fill="grey">cdw13_bits</text>
</g>
</g>
</svg>
