<?xml version="1.0" encoding="UTF-8" standalone="no"?>
<!DOCTYPE svg PUBLIC "-//W3C//DTD SVG 1.1//EN"
 "http://www.w3.org/Graphics/SVG/1.1/DTD/svg11.dtd">
<!-- Generated by graphviz version 13.1.2 (20250808.2320)
 -->
<!-- Title: spdk_bdev::__bdev_internal_fields Pages: 1 -->
<!--zoomable 340 -->

<svg id="main" version="1.1" xmlns="http://www.w3.org/2000/svg" xmlns:xlink="http://www.w3.org/1999/xlink" xml:space="preserve" onload="init(evt)">

<style type="text/css"><![CDATA[
.node, .edge {opacity: 0.7;}
.node.selected, .edge.selected {opacity: 1;}
.edge:hover path { stroke: red; }
.edge:hover polygon { stroke: red; fill: red; }
]]></style>

<defs>
  <circle id="rim" cx="0" cy="0" r="7"/>
  <circle id="rim2" cx="0" cy="0" r="3.5"/>
  <g id="zoomPlus">
    <use xlink:href="#rim" fill="#404040"><set attributeName="fill" to="#808080" begin="zoomplus.mouseover" end="zoomplus.mouseout"/></use>
    <path d="M-4,0h8M0,-4v8" fill="none" stroke="white" stroke-width="1.5" pointer-events="none"/>
  </g>
  <g id="zoomMin">
    <use xlink:href="#rim" fill="#404040"><set attributeName="fill" to="#808080" begin="zoomminus.mouseover" end="zoomminus.mouseout"/></use>
    <path d="M-4,0h8" fill="none" stroke="white" stroke-width="1.5" pointer-events="none"/>
  </g>
  <g id="arrowUp" transform="translate(30 24)">
    <use xlink:href="#rim"/>
    <path pointer-events="none" fill="none" stroke="white" stroke-width="1.5" d="M0,-3.0v7 M-2.5,-0.5L0,-3.0L2.5,-0.5"/>
  </g>
  <g id="arrowRight" transform="rotate(90) translate(36 -43)">
    <use xlink:href="#rim"/>
    <path pointer-events="none" fill="none" stroke="white" stroke-width="1.5" d="M0,-3.0v7 M-2.5,-0.5L0,-3.0L2.5,-0.5"/>
  </g>
  <g id="arrowDown" transform="rotate(180) translate(-30 -48)">
    <use xlink:href="#rim"/>
    <path pointer-events="none" fill="none" stroke="white" stroke-width="1.5" d="M0,-3.0v7 M-2.5,-0.5L0,-3.0L2.5,-0.5"/>
  </g>
  <g id="arrowLeft" transform="rotate(270) translate(-36 17)">
    <use xlink:href="#rim"/>
    <path pointer-events="none" fill="none" stroke="white" stroke-width="1.5" d="M0,-3.0v7 M-2.5,-0.5L0,-3.0L2.5,-0.5"/>
  </g>
  <g id="resetDef">
    <use xlink:href="#rim2" fill="#404040"><set attributeName="fill" to="#808080" begin="reset.mouseover" end="reset.mouseout"/></use>
  </g>
</defs>
<script type="application/ecmascript">
var viewWidth = 1342;
var viewHeight = 340;
var sectionId = 'dynsection-0';
</script>
<script type="application/ecmascript" xlink:href="svg.min.js"/>
<svg id="graph" class="graph">
<g id="viewport">
<title>spdk_bdev::__bdev_internal_fields</title>
<!-- Node1 -->
<g id="Node000001" class="node">
<title>Node1</title>
<g id="a_Node000001"><a xlink:title="Fields that are used internally by the bdev subsystem.">
<polygon fill="#999999" stroke="#666666" points="631.5,-72.12 480.5,-72.12 480.5,-38.62 631.5,-38.62 631.5,-72.12"/>
<text xml:space="preserve" text-anchor="start" x="488.5" y="-58.62" font-family="Helvetica,sans-Serif" font-size="10.00">spdk_bdev::__bdev_internal</text>
<text xml:space="preserve" text-anchor="middle" x="556" y="-45.88" font-family="Helvetica,sans-Serif" font-size="10.00">_fields</text>
</a>
</g>
</g>
<!-- Node9 -->
<g id="Node000009" class="node">
<title>Node9</title>
<g id="a_Node000009"><a xlink:href="structspdk__bdev.html" target="_top" xlink:title=" ">
<polygon fill="white" stroke="orangered" points="826.75,-65.75 758.25,-65.75 758.25,-45 826.75,-45 826.75,-65.75"/>
<text xml:space="preserve" text-anchor="middle" x="792.5" y="-52.25" font-family="Helvetica,sans-Serif" font-size="10.00">spdk_bdev</text>
</a>
</g>
</g>
<!-- Node1&#45;&gt;Node9 -->
<g id="edge7_Node000009_Node000001" class="edge">
<title>Node1&#45;&gt;Node9</title>
<g id="a_edge7_Node000009_Node000001"><a xlink:title=" ">
<path fill="none" stroke="#9a32cd" stroke-dasharray="5,2" d="M643.19,-55.38C683,-55.38 727.97,-55.38 757.84,-55.38"/>
<polygon fill="#9a32cd" stroke="#9a32cd" points="643.36,-51.88 633.36,-55.38 643.36,-58.88 643.36,-51.88"/>
</a>
</g>
<text xml:space="preserve" text-anchor="start" x="652.5" y="-61.62" font-family="Helvetica,sans-Serif" font-size="10.00" fill="grey">internal</text>
</g>
<!-- Node2 -->
<g id="Node000002" class="node">
<title>Node2</title>
<g id="a_Node000002"><a xlink:href="structspdk__spinlock.html" target="_top" xlink:title="A spinlock augmented with safety checks for use with SPDK.">
<polygon fill="white" stroke="#666666" points="359,-110.75 274,-110.75 274,-90 359,-90 359,-110.75"/>
<text xml:space="preserve" text-anchor="middle" x="316.5" y="-97.25" font-family="Helvetica,sans-Serif" font-size="10.00">spdk_spinlock</text>
</a>
</g>
</g>
<!-- Node2&#45;&gt;Node1 -->
<g id="edge1_Node000001_Node000002" class="edge">
<title>Node2&#45;&gt;Node1</title>
<g id="a_edge1_Node000001_Node000002"><a xlink:title=" ">
<path fill="none" stroke="#9a32cd" stroke-dasharray="5,2" d="M370.61,-93.53C398.14,-89.67 432.24,-84.42 462.5,-78.38 471.1,-76.66 480.1,-74.66 488.98,-72.59"/>
<polygon fill="#9a32cd" stroke="#9a32cd" points="370.17,-90.05 360.74,-94.88 371.13,-96.99 370.17,-90.05"/>
</a>
</g>
<text xml:space="preserve" text-anchor="start" x="419" y="-92.48" font-family="Helvetica,sans-Serif" font-size="10.00" fill="grey">spinlock</text>
</g>
<!-- Node3 -->
<g id="Node000003" class="node">
<title>Node3</title>
<g id="a_Node000003"><a xlink:href="unionspdk__bdev_1_1____bdev__internal__fields_1_1____bdev__internal__claim.html" target="_top" xlink:title="Which module has claimed this bdev.">
<polygon fill="white" stroke="#666666" points="398,-72.12 235,-72.12 235,-38.62 398,-38.62 398,-72.12"/>
<text xml:space="preserve" text-anchor="start" x="243" y="-58.62" font-family="Helvetica,sans-Serif" font-size="10.00">spdk_bdev::__bdev_internal</text>
<text xml:space="preserve" text-anchor="middle" x="316.5" y="-45.88" font-family="Helvetica,sans-Serif" font-size="10.00">_fields::__bdev_internal_claim</text>
</a>
</g>
</g>
<!-- Node3&#45;&gt;Node1 -->
<g id="edge2_Node000001_Node000003" class="edge">
<title>Node3&#45;&gt;Node1</title>
<g id="a_edge2_Node000001_Node000003"><a xlink:title=" ">
<path fill="none" stroke="#9a32cd" stroke-dasharray="5,2" d="M409.56,-55.38C432.91,-55.38 457.71,-55.38 480.08,-55.38"/>
<polygon fill="#9a32cd" stroke="#9a32cd" points="409.75,-51.88 399.75,-55.38 409.75,-58.88 409.75,-51.88"/>
</a>
</g>
<text xml:space="preserve" text-anchor="start" x="425.75" y="-61.62" font-family="Helvetica,sans-Serif" font-size="10.00" fill="grey">claim</text>
</g>
<!-- Node4 -->
<g id="Node000004" class="node">
<title>Node4</title>
<g id="a_Node000004"><a xlink:href="structspdk__bdev_1_1____bdev__internal__fields_1_1____bdev__internal__claim_1_1____bdev__internal__claim__v1.html" target="_top" xlink:title="Claims acquired with spdk_bdev_module_claim_bdev()">
<polygon fill="#fff0f0" stroke="red" points="181,-110.5 0,-110.5 0,-64.25 181,-64.25 181,-110.5"/>
<text xml:space="preserve" text-anchor="start" x="8" y="-97" font-family="Helvetica,sans-Serif" font-size="10.00">spdk_bdev::__bdev_internal</text>
<text xml:space="preserve" text-anchor="start" x="8" y="-84.25" font-family="Helvetica,sans-Serif" font-size="10.00">_fields::__bdev_internal</text>
<text xml:space="preserve" text-anchor="middle" x="90.5" y="-71.5" font-family="Helvetica,sans-Serif" font-size="10.00">_claim::__bdev_internal_claim_v1</text>
</a>
</g>
</g>
<!-- Node4&#45;&gt;Node3 -->
<g id="edge3_Node000003_Node000004" class="edge">
<title>Node4&#45;&gt;Node3</title>
<g id="a_edge3_Node000003_Node000004"><a xlink:title=" ">
<path fill="none" stroke="#9a32cd" stroke-dasharray="5,2" d="M192.57,-72.94C206.69,-70.92 221.04,-68.87 234.71,-66.92"/>
<polygon fill="#9a32cd" stroke="#9a32cd" points="192.22,-69.45 182.82,-74.33 193.21,-76.38 192.22,-69.45"/>
</a>
</g>
<text xml:space="preserve" text-anchor="start" x="202" y="-77.62" font-family="Helvetica,sans-Serif" font-size="10.00" fill="grey">v1</text>
</g>
<!-- Node7 -->
<g id="Node000007" class="node">
<title>Node7</title>
<g id="a_Node000007"><a xlink:href="structspdk__bdev_1_1____bdev__internal__fields_1_1____bdev__internal__claim_1_1____bdev__internal__claim__v2.html" target="_top" xlink:title="Claims acquired with spdk_bdev_module_claim_bdev_desc()">
<polygon fill="white" stroke="#666666" points="181,-46.5 0,-46.5 0,-0.25 181,-0.25 181,-46.5"/>
<text xml:space="preserve" text-anchor="start" x="8" y="-33" font-family="Helvetica,sans-Serif" font-size="10.00">spdk_bdev::__bdev_internal</text>
<text xml:space="preserve" text-anchor="start" x="8" y="-20.25" font-family="Helvetica,sans-Serif" font-size="10.00">_fields::__bdev_internal</text>
<text xml:space="preserve" text-anchor="middle" x="90.5" y="-7.5" font-family="Helvetica,sans-Serif" font-size="10.00">_claim::__bdev_internal_claim_v2</text>
</a>
</g>
</g>
<!-- Node7&#45;&gt;Node3 -->
<g id="edge4_Node000003_Node000007" class="edge">
<title>Node7&#45;&gt;Node3</title>
<g id="a_edge4_Node000003_Node000007"><a xlink:title=" ">
<path fill="none" stroke="#9a32cd" stroke-dasharray="5,2" d="M192.57,-37.81C206.69,-39.83 221.04,-41.88 234.71,-43.83"/>
<polygon fill="#9a32cd" stroke="#9a32cd" points="193.21,-34.37 182.82,-36.42 192.22,-41.3 193.21,-34.37"/>
</a>
</g>
<text xml:space="preserve" text-anchor="start" x="202" y="-47.54" font-family="Helvetica,sans-Serif" font-size="10.00" fill="grey">v2</text>
</g>
<!-- Node8 -->
<g id="Node000008" class="node">
<title>Node8</title>
<g id="a_Node000008"><a xlink:href="structspdk__bdev__io.html" target="_top" xlink:title=" ">
<polygon fill="white" stroke="#bfbfbf" points="1083.12,-194.75 1000.38,-194.75 1000.38,-174 1083.12,-174 1083.12,-194.75"/>
<text xml:space="preserve" text-anchor="middle" x="1041.75" y="-181.25" font-family="Helvetica,sans-Serif" font-size="10.00">spdk_bdev_io</text>
</a>
</g>
</g>
<!-- Node8&#45;&gt;Node1 -->
<g id="edge5_Node000001_Node000008" class="edge">
<title>Node8&#45;&gt;Node1</title>
<g id="a_edge5_Node000001_Node000008"><a xlink:title=" ">
<path fill="none" stroke="#9a32cd" stroke-dasharray="5,2" d="M989.05,-195.34C922.17,-207.05 803.32,-219.32 711,-182.38 650.51,-158.17 595.81,-101.02 571.02,-72.37"/>
<polygon fill="#9a32cd" stroke="#9a32cd" points="989.42,-198.83 998.63,-193.6 988.16,-191.95 989.42,-198.83"/>
</a>
</g>
<text xml:space="preserve" text-anchor="start" x="749.38" y="-213.35" font-family="Helvetica,sans-Serif" font-size="10.00" fill="grey">reset_in_progress</text>
</g>
<!-- Node19 -->
<g id="Node000019" class="node">
<title>Node19</title>
<g id="a_Node000019"><a xlink:href="structspdk__bdev__io__abort__params.html" target="_top" xlink:title=" ">
<polygon fill="white" stroke="#bfbfbf" points="1327.5,-260.12 1214,-260.12 1214,-226.62 1327.5,-226.62 1327.5,-260.12"/>
<text xml:space="preserve" text-anchor="start" x="1222" y="-246.62" font-family="Helvetica,sans-Serif" font-size="10.00">spdk_bdev_io_abort</text>
<text xml:space="preserve" text-anchor="middle" x="1270.75" y="-233.88" font-family="Helvetica,sans-Serif" font-size="10.00">_params</text>
</a>
</g>
</g>
<!-- Node8&#45;&gt;Node19 -->
<g id="edge11_Node000019_Node000008" class="edge">
<title>Node8&#45;&gt;Node19</title>
<g id="a_edge11_Node000019_Node000008"><a xlink:title=" ">
<path fill="none" stroke="#9a32cd" stroke-dasharray="5,2" d="M1058.21,-203.38C1070.69,-217.11 1089.56,-234.56 1110.5,-242.38 1143.14,-254.55 1182.23,-254.99 1213.51,-252.29"/>
<polygon fill="#9a32cd" stroke="#9a32cd" points="1061.17,-201.45 1051.97,-196.18 1055.88,-206.03 1061.17,-201.45"/>
</a>
</g>
<text xml:space="preserve" text-anchor="start" x="1119.88" y="-259.89" font-family="Helvetica,sans-Serif" font-size="10.00" fill="grey">bio_to_abort</text>
</g>
<!-- Node48 -->
<g id="Node000048" class="node">
<title>Node48</title>
<g id="a_Node000048"><a xlink:href="structspdk__bdev__io__internal__fields.html" target="_top" xlink:title="Fields that are used internally by the bdev subsystem.">
<polygon fill="#fff0f0" stroke="red" points="1333.5,-143.12 1208,-143.12 1208,-109.62 1333.5,-109.62 1333.5,-143.12"/>
<text xml:space="preserve" text-anchor="start" x="1216" y="-129.62" font-family="Helvetica,sans-Serif" font-size="10.00">spdk_bdev_io_internal</text>
<text xml:space="preserve" text-anchor="middle" x="1270.75" y="-116.88" font-family="Helvetica,sans-Serif" font-size="10.00">_fields</text>
</a>
</g>
</g>
<!-- Node8&#45;&gt;Node48 -->
<g id="edge15_Node000048_Node000008" class="edge">
<title>Node8&#45;&gt;Node48</title>
<g id="a_edge15_Node000048_Node000008"><a xlink:title=" ">
<path fill="none" stroke="#9a32cd" stroke-dasharray="5,2" d="M1068.54,-167.77C1080.79,-160.63 1095.93,-152.85 1110.5,-148.12 1141.69,-138.01 1177.8,-132.6 1207.74,-129.71"/>
<polygon fill="#9a32cd" stroke="#9a32cd" points="1067.03,-164.59 1060.29,-172.76 1070.66,-170.58 1067.03,-164.59"/>
</a>
</g>
<text xml:space="preserve" text-anchor="start" x="1113.5" y="-187.88" font-family="Helvetica,sans-Serif" font-size="10.00" fill="grey">cb</text>
<text xml:space="preserve" text-anchor="start" x="1113.5" y="-171.12" font-family="Helvetica,sans-Serif" font-size="10.00" fill="grey">get_buf_cb</text>
<text xml:space="preserve" text-anchor="start" x="1113.5" y="-154.38" font-family="Helvetica,sans-Serif" font-size="10.00" fill="grey">stored_user_cb</text>
</g>
<!-- Node9&#45;&gt;Node8 -->
<g id="edge6_Node000008_Node000009" class="edge">
<title>Node9&#45;&gt;Node8</title>
<g id="a_edge6_Node000008_Node000009"><a xlink:title=" ">
<path fill="none" stroke="#9a32cd" stroke-dasharray="5,2" d="M838.48,-58.04C876.85,-62.13 932.14,-72.47 973,-98.62 1003.04,-117.85 1025.5,-155.08 1035.31,-173.51"/>
<polygon fill="#9a32cd" stroke="#9a32cd" points="838.95,-54.57 828.66,-57.1 838.28,-61.54 838.95,-54.57"/>
</a>
</g>
<text xml:space="preserve" text-anchor="start" x="920.5" y="-104.88" font-family="Helvetica,sans-Serif" font-size="10.00" fill="grey">bdev</text>
</g>
<!-- Node52 -->
<g id="Node000052" class="node">
<title>Node52</title>
<g id="a_Node000052"><a xlink:href="structspdk__bdev__name.html" target="_top" xlink:title=" ">
<polygon fill="white" stroke="#bfbfbf" points="1092.5,-28.75 991,-28.75 991,-8 1092.5,-8 1092.5,-28.75"/>
<text xml:space="preserve" text-anchor="middle" x="1041.75" y="-15.25" font-family="Helvetica,sans-Serif" font-size="10.00">spdk_bdev_name</text>
</a>
</g>
</g>
<!-- Node9&#45;&gt;Node52 -->
<g id="edge18_Node000052_Node000009" class="edge">
<title>Node9&#45;&gt;Node52</title>
<g id="a_edge18_Node000052_Node000009"><a xlink:title=" ">
<path fill="none" stroke="#9a32cd" stroke-dasharray="5,2" d="M838.29,-45.58C855.08,-42.13 874.36,-38.41 892,-35.62 924.74,-30.45 961.77,-26.15 990.69,-23.14"/>
<polygon fill="#9a32cd" stroke="#9a32cd" points="837.66,-42.14 828.59,-47.61 839.1,-48.99 837.66,-42.14"/>
</a>
</g>
<text xml:space="preserve" text-anchor="start" x="920.5" y="-41.88" font-family="Helvetica,sans-Serif" font-size="10.00" fill="grey">bdev</text>
</g>
<!-- Node13 -->
<g id="Node000013" class="node">
<title>Node13</title>
<g id="a_Node000013"><a xlink:href="structspdk__bdev__io__block__params.html" target="_top" xlink:title=" ">
<polygon fill="white" stroke="orangered" points="849.62,-173.12 735.38,-173.12 735.38,-139.62 849.62,-139.62 849.62,-173.12"/>
<text xml:space="preserve" text-anchor="start" x="743.38" y="-159.62" font-family="Helvetica,sans-Serif" font-size="10.00">spdk_bdev_io_block</text>
<text xml:space="preserve" text-anchor="middle" x="792.5" y="-146.88" font-family="Helvetica,sans-Serif" font-size="10.00">_params</text>
</a>
</g>
</g>
<!-- Node13&#45;&gt;Node8 -->
<g id="edge8_Node000008_Node000013" class="edge">
<title>Node13&#45;&gt;Node8</title>
<g id="a_edge8_Node000008_Node000013"><a xlink:title=" ">
<path fill="none" stroke="#9a32cd" stroke-dasharray="5,2" d="M861.19,-163.99C894.81,-167.77 936.05,-172.43 973,-176.62 981.7,-177.61 991.04,-178.68 999.91,-179.69"/>
<polygon fill="#9a32cd" stroke="#9a32cd" points="861.93,-160.55 851.6,-162.91 861.14,-167.5 861.93,-160.55"/>
</a>
</g>
<text xml:space="preserve" text-anchor="start" x="920.5" y="-182.88" font-family="Helvetica,sans-Serif" font-size="10.00" fill="grey">bdev</text>
</g>
<!-- Node18 -->
<g id="Node000018" class="node">
<title>Node18</title>
<g id="a_Node000018"><a xlink:href="structspdk__bdev__io__reset__params.html" target="_top" xlink:title=" ">
<polygon fill="white" stroke="#bfbfbf" points="848.88,-121.12 736.12,-121.12 736.12,-87.62 848.88,-87.62 848.88,-121.12"/>
<text xml:space="preserve" text-anchor="start" x="744.12" y="-107.62" font-family="Helvetica,sans-Serif" font-size="10.00">spdk_bdev_io_reset</text>
<text xml:space="preserve" text-anchor="middle" x="792.5" y="-94.88" font-family="Helvetica,sans-Serif" font-size="10.00">_params</text>
</a>
</g>
</g>
<!-- Node18&#45;&gt;Node8 -->
<g id="edge9_Node000008_Node000018" class="edge">
<title>Node18&#45;&gt;Node8</title>
<g id="a_edge9_Node000008_Node000018"><a xlink:title=" ">
<path fill="none" stroke="#9a32cd" stroke-dasharray="5,2" d="M859.92,-114.19C894.42,-120.55 936.81,-130.35 973,-144.62 992.16,-152.18 1012.29,-164.65 1025.58,-173.61"/>
<polygon fill="#9a32cd" stroke="#9a32cd" points="860.96,-110.83 850.5,-112.52 859.73,-117.72 860.96,-110.83"/>
</a>
</g>
<text xml:space="preserve" text-anchor="start" x="920.12" y="-150.88" font-family="Helvetica,sans-Serif" font-size="10.00" fill="grey">reset</text>
</g>
<!-- Node19&#45;&gt;Node8 -->
<g id="edge10_Node000008_Node000019" class="edge">
<title>Node19&#45;&gt;Node8</title>
<g id="a_edge10_Node000008_Node000019"><a xlink:title=" ">
<path fill="none" stroke="#9a32cd" stroke-dasharray="5,2" d="M1203.2,-226.08C1164.45,-216.01 1116.85,-203.63 1083.6,-194.99"/>
<polygon fill="#9a32cd" stroke="#9a32cd" points="1201.85,-229.34 1212.41,-228.47 1203.61,-222.57 1201.85,-229.34"/>
</a>
</g>
<text xml:space="preserve" text-anchor="start" x="1137.5" y="-228.86" font-family="Helvetica,sans-Serif" font-size="10.00" fill="grey">abort</text>
</g>
<!-- Node20 -->
<g id="Node000020" class="node">
<title>Node20</title>
<g id="a_Node000020"><a xlink:href="structspdk__bdev__io__nvme__passthru__params.html" target="_top" xlink:title=" ">
<polygon fill="white" stroke="orangered" points="874,-332.12 711,-332.12 711,-298.62 874,-298.62 874,-332.12"/>
<text xml:space="preserve" text-anchor="start" x="719" y="-318.62" font-family="Helvetica,sans-Serif" font-size="10.00">spdk_bdev_io_nvme_passthru</text>
<text xml:space="preserve" text-anchor="middle" x="792.5" y="-305.88" font-family="Helvetica,sans-Serif" font-size="10.00">_params</text>
</a>
</g>
</g>
<!-- Node20&#45;&gt;Node8 -->
<g id="edge12_Node000008_Node000020" class="edge">
<title>Node20&#45;&gt;Node8</title>
<g id="a_edge12_Node000008_Node000020"><a xlink:title=" ">
<path fill="none" stroke="#9a32cd" stroke-dasharray="5,2" d="M885.63,-303.64C915.21,-296.86 947.02,-286.19 973,-269.38 1002.78,-250.1 1025.36,-213.29 1035.25,-195.1"/>
<polygon fill="#9a32cd" stroke="#9a32cd" points="884.94,-300.21 875.9,-305.73 886.41,-307.05 884.94,-300.21"/>
</a>
</g>
<text xml:space="preserve" text-anchor="start" x="895" y="-307.84" font-family="Helvetica,sans-Serif" font-size="10.00" fill="grey">nvme_passthru</text>
</g>
<!-- Node47 -->
<g id="Node000047" class="node">
<title>Node47</title>
<g id="a_Node000047"><a xlink:href="structspdk__bdev__io__zone__mgmt__params.html" target="_top" xlink:title=" ">
<polygon fill="white" stroke="#bfbfbf" points="865.38,-280.12 719.62,-280.12 719.62,-246.62 865.38,-246.62 865.38,-280.12"/>
<text xml:space="preserve" text-anchor="start" x="727.62" y="-266.62" font-family="Helvetica,sans-Serif" font-size="10.00">spdk_bdev_io_zone_mgmt</text>
<text xml:space="preserve" text-anchor="middle" x="792.5" y="-253.88" font-family="Helvetica,sans-Serif" font-size="10.00">_params</text>
</a>
</g>
</g>
<!-- Node47&#45;&gt;Node8 -->
<g id="edge13_Node000008_Node000047" class="edge">
<title>Node47&#45;&gt;Node8</title>
<g id="a_edge13_Node000008_Node000047"><a xlink:title=" ">
<path fill="none" stroke="#9a32cd" stroke-dasharray="5,2" d="M876.89,-250.25C907.7,-243.99 942.52,-235.22 973,-223.38 991.97,-216 1011.97,-203.88 1025.28,-195.1"/>
<polygon fill="#9a32cd" stroke="#9a32cd" points="876.35,-246.79 867.22,-252.15 877.7,-253.66 876.35,-246.79"/>
</a>
</g>
<text xml:space="preserve" text-anchor="start" x="903.62" y="-252.44" font-family="Helvetica,sans-Serif" font-size="10.00" fill="grey">zone_mgmt</text>
</g>
<!-- Node48&#45;&gt;Node8 -->
<g id="edge14_Node000008_Node000048" class="edge">
<title>Node48&#45;&gt;Node8</title>
<g id="a_edge14_Node000008_Node000048"><a xlink:title=" ">
<path fill="none" stroke="#9a32cd" stroke-dasharray="5,2" d="M1216.06,-105.86C1184.11,-96.97 1143.5,-91.61 1110.5,-106.62 1079.86,-120.57 1057.69,-155.96 1048.07,-173.78"/>
<polygon fill="#9a32cd" stroke="#9a32cd" points="1214.94,-109.18 1225.53,-108.7 1216.95,-102.47 1214.94,-109.18"/>
</a>
</g>
<text xml:space="preserve" text-anchor="start" x="1131.5" y="-112.88" font-family="Helvetica,sans-Serif" font-size="10.00" fill="grey">internal</text>
</g>
<!-- Node51 -->
<g id="Node000051" class="node">
<title>Node51</title>
<g id="a_Node000051"><a xlink:href="structspdk__bdev__io__stat.html" target="_top" xlink:title=" ">
<polygon fill="white" stroke="#bfbfbf" points="369.88,-20.75 263.12,-20.75 263.12,0 369.88,0 369.88,-20.75"/>
<text xml:space="preserve" text-anchor="middle" x="316.5" y="-7.25" font-family="Helvetica,sans-Serif" font-size="10.00">spdk_bdev_io_stat</text>
</a>
</g>
</g>
<!-- Node51&#45;&gt;Node1 -->
<g id="edge16_Node000001_Node000051" class="edge">
<title>Node51&#45;&gt;Node1</title>
<g id="a_edge16_Node000001_Node000051"><a xlink:title=" ">
<path fill="none" stroke="#9a32cd" stroke-dasharray="5,2" d="M381.38,-18.93C406.73,-22.65 436.08,-27.36 462.5,-32.62 470.77,-34.27 479.42,-36.17 487.96,-38.15"/>
<polygon fill="#9a32cd" stroke="#9a32cd" points="381.94,-15.47 371.55,-17.51 380.94,-22.4 381.94,-15.47"/>
</a>
</g>
<text xml:space="preserve" text-anchor="start" x="429.88" y="-38.88" font-family="Helvetica,sans-Serif" font-size="10.00" fill="grey">stat</text>
</g>
<!-- Node52&#45;&gt;Node1 -->
<g id="edge17_Node000001_Node000052" class="edge">
<title>Node52&#45;&gt;Node1</title>
<g id="a_edge17_Node000001_Node000052"><a xlink:title=" ">
<path fill="none" stroke="#9a32cd" stroke-dasharray="5,2" d="M979.44,-13.78C913.03,-9.83 804.08,-6.38 711,-17.62 678.07,-21.6 642.02,-30.2 613.08,-38.19"/>
<polygon fill="#9a32cd" stroke="#9a32cd" points="978.82,-17.24 989.02,-14.37 979.25,-10.26 978.82,-17.24"/>
</a>
</g>
<text xml:space="preserve" text-anchor="start" x="764" y="-23.88" font-family="Helvetica,sans-Serif" font-size="10.00" fill="grey">bdev_name</text>
</g>
</g>
</svg>

<g id="navigator" transform="translate(0 0)" fill="#404254">
  <rect fill="#f2f5e9" fill-opacity="0.5" stroke="#606060" stroke-width=".5" x="0" y="0" width="60" height="60"/>
  <use id="zoomplus" xlink:href="#zoomPlus" x="17" y="9" onmousedown="handleZoom(evt,'in')"/>
  <use id="zoomminus" xlink:href="#zoomMin" x="42" y="9" onmousedown="handleZoom(evt,'out')"/>
  <use id="reset" xlink:href="#resetDef" x="30" y="36" onmousedown="handleReset()"/>
   <use id="arrowup" xlink:href="#arrowUp" x="0" y="0" onmousedown="handlePan(0,-1)"/>
  <use id="arrowright" xlink:href="#arrowRight" x="0" y="0" onmousedown="handlePan(1,0)"/>
  <use id="arrowdown" xlink:href="#arrowDown" x="0" y="0" onmousedown="handlePan(0,1)"/>
  <use id="arrowleft" xlink:href="#arrowLeft" x="0" y="0" onmousedown="handlePan(-1,0)"/>
</g>
<svg viewBox="0 0 15 15" width="100%" height="30px" preserveAspectRatio="xMaxYMin meet">
 <g id="arrow_out" transform="scale(0.3 0.3)">
  <a xlink:href="structspdk__bdev_1_1____bdev__internal__fields__coll__graph_org.svg" target="_base">
   <rect id="button" ry="5" rx="5" y="6" x="6" height="38" width="38"
        fill="#f2f5e9" fill-opacity="0.5" stroke="#606060" stroke-width="1.0"/>
   <path id="arrow"
     d="M 11.500037,31.436501 C 11.940474,20.09759 22.043105,11.32322 32.158766,21.979434 L 37.068811,17.246167 C 37.068811,17.246167 37.088388,32 37.088388,32 L 22.160133,31.978069 C 22.160133,31.978069 26.997745,27.140456 26.997745,27.140456 C 18.528582,18.264221 13.291696,25.230495 11.500037,31.436501 z"
     style="fill:#404040;"/>
  </a>
 </g>
</svg>

<style type='text/css'>
<![CDATA[
[data-mouse-over-selected='false'] { opacity: 0.7; }
[data-mouse-over-selected='true']  { opacity: 1.0; }
]]>
</style>
<script type="application/ecmascript"><![CDATA[
document.addEventListener('DOMContentLoaded', (event) => {
  highlightEdges();
  highlightAdjacentNodes();
});
]]></script>
</svg>
