<?xml version="1.0" encoding="UTF-8" standalone="no"?>
<!DOCTYPE svg PUBLIC "-//W3C//DTD SVG 1.1//EN"
 "http://www.w3.org/Graphics/SVG/1.1/DTD/svg11.dtd">
<!-- Generated by graphviz version 13.1.2 (20250808.2320)
 -->
<!-- Title: spdk_nvme_tcp_cmd Pages: 1 -->
<!--zoomable 198 -->

<svg id="main" version="1.1" xmlns="http://www.w3.org/2000/svg" xmlns:xlink="http://www.w3.org/1999/xlink" xml:space="preserve" onload="init(evt)">

<style type="text/css"><![CDATA[
.node, .edge {opacity: 0.7;}
.node.selected, .edge.selected {opacity: 1;}
.edge:hover path { stroke: red; }
.edge:hover polygon { stroke: red; fill: red; }
]]></style>

<defs>
  <circle id="rim" cx="0" cy="0" r="7"/>
  <circle id="rim2" cx="0" cy="0" r="3.5"/>
  <g id="zoomPlus">
    <use xlink:href="#rim" fill="#404040"><set attributeName="fill" to="#808080" begin="zoomplus.mouseover" end="zoomplus.mouseout"/></use>
    <path d="M-4,0h8M0,-4v8" fill="none" stroke="white" stroke-width="1.5" pointer-events="none"/>
  </g>
  <g id="zoomMin">
    <use xlink:href="#rim" fill="#404040"><set attributeName="fill" to="#808080" begin="zoomminus.mouseover" end="zoomminus.mouseout"/></use>
    <path d="M-4,0h8" fill="none" stroke="white" stroke-width="1.5" pointer-events="none"/>
  </g>
  <g id="arrowUp" transform="translate(30 24)">
    <use xlink:href="#rim"/>
    <path pointer-events="none" fill="none" stroke="white" stroke-width="1.5" d="M0,-3.0v7 M-2.5,-0.5L0,-3.0L2.5,-0.5"/>
  </g>
  <g id="arrowRight" transform="rotate(90) translate(36 -43)">
    <use xlink:href="#rim"/>
    <path pointer-events="none" fill="none" stroke="white" stroke-width="1.5" d="M0,-3.0v7 M-2.5,-0.5L0,-3.0L2.5,-0.5"/>
  </g>
  <g id="arrowDown" transform="rotate(180) translate(-30 -48)">
    <use xlink:href="#rim"/>
    <path pointer-events="none" fill="none" stroke="white" stroke-width="1.5" d="M0,-3.0v7 M-2.5,-0.5L0,-3.0L2.5,-0.5"/>
  </g>
  <g id="arrowLeft" transform="rotate(270) translate(-36 17)">
    <use xlink:href="#rim"/>
    <path pointer-events="none" fill="none" stroke="white" stroke-width="1.5" d="M0,-3.0v7 M-2.5,-0.5L0,-3.0L2.5,-0.5"/>
  </g>
  <g id="resetDef">
    <use xlink:href="#rim2" fill="#404040"><set attributeName="fill" to="#808080" begin="reset.mouseover" end="reset.mouseout"/></use>
  </g>
</defs>
<script type="application/ecmascript">
var viewWidth = 595;
var viewHeight = 198;
var sectionId = 'dynsection-0';
</script>
<script type="application/ecmascript" xlink:href="svg.min.js"/>
<svg id="graph" class="graph">
<g id="viewport">
<title>spdk_nvme_tcp_cmd</title>
<!-- Node1 -->
<g id="Node000001" class="node">
<title>Node1</title>
<g id="a_Node000001"><a xlink:title="CapsuleCmd.">
<polygon fill="#999999" stroke="#666666" points="586.5,-127.75 467.75,-127.75 467.75,-107 586.5,-107 586.5,-127.75"/>
<text xml:space="preserve" text-anchor="middle" x="527.12" y="-114.25" font-family="Helvetica,sans-Serif" font-size="10.00">spdk_nvme_tcp_cmd</text>
</a>
</g>
</g>
<!-- Node2 -->
<g id="Node000002" class="node">
<title>Node2</title>
<g id="a_Node000002"><a xlink:href="structspdk__nvme__tcp__common__pdu__hdr.html" target="_top" xlink:title="Common NVMe/TCP PDU header.">
<polygon fill="white" stroke="#666666" points="383,-156.12 242.5,-156.12 242.5,-122.62 383,-122.62 383,-156.12"/>
<text xml:space="preserve" text-anchor="start" x="250.5" y="-142.62" font-family="Helvetica,sans-Serif" font-size="10.00">spdk_nvme_tcp_common</text>
<text xml:space="preserve" text-anchor="middle" x="312.75" y="-129.88" font-family="Helvetica,sans-Serif" font-size="10.00">_pdu_hdr</text>
</a>
</g>
</g>
<!-- Node2&#45;&gt;Node1 -->
<g id="edge1_Node000001_Node000002" class="edge">
<title>Node2&#45;&gt;Node1</title>
<g id="a_edge1_Node000001_Node000002"><a xlink:title=" ">
<path fill="none" stroke="#9a32cd" stroke-dasharray="5,2" d="M394.64,-131C418.86,-128.49 444.95,-125.78 467.46,-123.45"/>
<polygon fill="#9a32cd" stroke="#9a32cd" points="394.38,-127.5 384.8,-132.02 395.1,-134.47 394.38,-127.5"/>
</a>
</g>
<text xml:space="preserve" text-anchor="start" x="404" y="-135.94" font-family="Helvetica,sans-Serif" font-size="10.00" fill="grey">common</text>
</g>
<!-- Node3 -->
<g id="Node000003" class="node">
<title>Node3</title>
<g id="a_Node000003"><a xlink:href="structspdk__nvme__cmd.html" target="_top" xlink:title=" ">
<polygon fill="white" stroke="#bfbfbf" points="362,-104.75 263.5,-104.75 263.5,-84 362,-84 362,-104.75"/>
<text xml:space="preserve" text-anchor="middle" x="312.75" y="-91.25" font-family="Helvetica,sans-Serif" font-size="10.00">spdk_nvme_cmd</text>
</a>
</g>
</g>
<!-- Node3&#45;&gt;Node1 -->
<g id="edge2_Node000001_Node000003" class="edge">
<title>Node3&#45;&gt;Node1</title>
<g id="a_edge2_Node000001_Node000003"><a xlink:title=" ">
<path fill="none" stroke="#9a32cd" stroke-dasharray="5,2" d="M373.69,-96.33C397.44,-97.54 424.94,-99.49 449.75,-102.62 457.92,-103.66 466.54,-105.04 474.92,-106.54"/>
<polygon fill="#9a32cd" stroke="#9a32cd" points="374.03,-92.84 363.87,-95.86 373.69,-99.83 374.03,-92.84"/>
</a>
</g>
<text xml:space="preserve" text-anchor="start" x="411.5" y="-108.88" font-family="Helvetica,sans-Serif" font-size="10.00" fill="grey">ccsqe</text>
</g>
<!-- Node4 -->
<g id="Node000004" class="node">
<title>Node4</title>
<g id="a_Node000004"><a xlink:href="structspdk__nvme__sgl__descriptor.html" target="_top" xlink:title=" ">
<polygon fill="white" stroke="#bfbfbf" points="145.75,-188.75 0,-188.75 0,-168 145.75,-168 145.75,-188.75"/>
<text xml:space="preserve" text-anchor="middle" x="72.88" y="-175.25" font-family="Helvetica,sans-Serif" font-size="10.00">spdk_nvme_sgl_descriptor</text>
</a>
</g>
</g>
<!-- Node4&#45;&gt;Node3 -->
<g id="edge3_Node000003_Node000004" class="edge">
<title>Node4&#45;&gt;Node3</title>
<g id="a_edge3_Node000003_Node000004"><a xlink:title=" ">
<path fill="none" stroke="#9a32cd" stroke-dasharray="5,2" d="M157.24,-173.63C180.75,-169.01 205.16,-160.79 224.5,-146.38 237.9,-136.39 229.4,-123.74 242.5,-113.38 248.56,-108.58 255.75,-104.99 263.16,-102.31"/>
<polygon fill="#9a32cd" stroke="#9a32cd" points="156.9,-170.13 147.65,-175.3 158.1,-177.03 156.9,-170.13"/>
</a>
</g>
<text xml:space="preserve" text-anchor="start" x="184" y="-177.57" font-family="Helvetica,sans-Serif" font-size="10.00" fill="grey">sgl1</text>
</g>
<!-- Node5 -->
<g id="Node000005" class="node">
<title>Node5</title>
<g id="a_Node000005"><a xlink:href="unionspdk__nvme__cmd__cdw10.html" target="_top" xlink:title=" ">
<polygon fill="white" stroke="#bfbfbf" points="140.5,-146.75 5.25,-146.75 5.25,-126 140.5,-126 140.5,-146.75"/>
<text xml:space="preserve" text-anchor="middle" x="72.88" y="-133.25" font-family="Helvetica,sans-Serif" font-size="10.00">spdk_nvme_cmd_cdw10</text>
</a>
</g>
</g>
<!-- Node5&#45;&gt;Node3 -->
<g id="edge4_Node000003_Node000005" class="edge">
<title>Node5&#45;&gt;Node3</title>
<g id="a_edge4_Node000003_Node000005"><a xlink:title=" ">
<path fill="none" stroke="#9a32cd" stroke-dasharray="5,2" d="M152.07,-126.17C175.43,-122.79 201.06,-118.77 224.5,-114.38 238.55,-111.74 253.77,-108.42 267.51,-105.24"/>
<polygon fill="#9a32cd" stroke="#9a32cd" points="151.71,-122.69 142.3,-127.56 152.69,-129.62 151.71,-122.69"/>
</a>
</g>
<text xml:space="preserve" text-anchor="start" x="166.75" y="-130.26" font-family="Helvetica,sans-Serif" font-size="10.00" fill="grey">cdw10_bits</text>
</g>
<!-- Node6 -->
<g id="Node000006" class="node">
<title>Node6</title>
<g id="a_Node000006"><a xlink:href="unionspdk__nvme__cmd__cdw11.html" target="_top" xlink:title=" ">
<polygon fill="white" stroke="orangered" points="140.5,-104.75 5.25,-104.75 5.25,-84 140.5,-84 140.5,-104.75"/>
<text xml:space="preserve" text-anchor="middle" x="72.88" y="-91.25" font-family="Helvetica,sans-Serif" font-size="10.00">spdk_nvme_cmd_cdw11</text>
</a>
</g>
</g>
<!-- Node6&#45;&gt;Node3 -->
<g id="edge5_Node000003_Node000006" class="edge">
<title>Node6&#45;&gt;Node3</title>
<g id="a_edge5_Node000003_Node000006"><a xlink:title=" ">
<path fill="none" stroke="#9a32cd" stroke-dasharray="5,2" d="M151.93,-94.38C188.57,-94.38 231.1,-94.38 263.07,-94.38"/>
<polygon fill="#9a32cd" stroke="#9a32cd" points="152.28,-90.88 142.28,-94.38 152.28,-97.88 152.28,-90.88"/>
</a>
</g>
<text xml:space="preserve" text-anchor="start" x="166.75" y="-100.62" font-family="Helvetica,sans-Serif" font-size="10.00" fill="grey">cdw11_bits</text>
</g>
<!-- Node25 -->
<g id="Node000025" class="node">
<title>Node25</title>
<g id="a_Node000025"><a xlink:href="unionspdk__nvme__cmd__cdw12.html" target="_top" xlink:title=" ">
<polygon fill="white" stroke="orangered" points="140.5,-62.75 5.25,-62.75 5.25,-42 140.5,-42 140.5,-62.75"/>
<text xml:space="preserve" text-anchor="middle" x="72.88" y="-49.25" font-family="Helvetica,sans-Serif" font-size="10.00">spdk_nvme_cmd_cdw12</text>
</a>
</g>
</g>
<!-- Node25&#45;&gt;Node3 -->
<g id="edge6_Node000003_Node000025" class="edge">
<title>Node25&#45;&gt;Node3</title>
<g id="a_edge6_Node000003_Node000025"><a xlink:title=" ">
<path fill="none" stroke="#9a32cd" stroke-dasharray="5,2" d="M152.17,-60.45C175.54,-63.38 201.14,-67.11 224.5,-71.62 241.1,-74.84 259.22,-79.39 274.63,-83.58"/>
<polygon fill="#9a32cd" stroke="#9a32cd" points="152.75,-57 142.4,-59.26 151.91,-63.95 152.75,-57"/>
</a>
</g>
<text xml:space="preserve" text-anchor="start" x="166.75" y="-77.88" font-family="Helvetica,sans-Serif" font-size="10.00" fill="grey">cdw12_bits</text>
</g>
<!-- Node28 -->
<g id="Node000028" class="node">
<title>Node28</title>
<g id="a_Node000028"><a xlink:href="unionspdk__nvme__cmd__cdw13.html" target="_top" xlink:title=" ">
<polygon fill="white" stroke="#bfbfbf" points="140.5,-20.75 5.25,-20.75 5.25,0 140.5,0 140.5,-20.75"/>
<text xml:space="preserve" text-anchor="middle" x="72.88" y="-7.25" font-family="Helvetica,sans-Serif" font-size="10.00">spdk_nvme_cmd_cdw13</text>
</a>
</g>
</g>
<!-- Node28&#45;&gt;Node3 -->
<g id="edge7_Node000003_Node000028" class="edge">
<title>Node28&#45;&gt;Node3</title>
<g id="a_edge7_Node000003_Node000028"><a xlink:title=" ">
<path fill="none" stroke="#9a32cd" stroke-dasharray="5,2" d="M152.1,-19.93C175.88,-24.32 201.72,-30.63 224.5,-39.62 252.61,-50.73 281.63,-71.03 298.11,-83.55"/>
<polygon fill="#9a32cd" stroke="#9a32cd" points="152.93,-16.52 142.48,-18.25 151.73,-23.42 152.93,-16.52"/>
</a>
</g>
<text xml:space="preserve" text-anchor="start" x="166.75" y="-45.88" font-family="Helvetica,sans-Serif" font-size="10.00" fill="grey">cdw13_bits</text>
</g>
</g>
</svg>

<g id="navigator" transform="translate(0 0)" fill="#404254">
  <rect fill="#f2f5e9" fill-opacity="0.5" stroke="#606060" stroke-width=".5" x="0" y="0" width="60" height="60"/>
  <use id="zoomplus" xlink:href="#zoomPlus" x="17" y="9" onmousedown="handleZoom(evt,'in')"/>
  <use id="zoomminus" xlink:href="#zoomMin" x="42" y="9" onmousedown="handleZoom(evt,'out')"/>
  <use id="reset" xlink:href="#resetDef" x="30" y="36" onmousedown="handleReset()"/>
   <use id="arrowup" xlink:href="#arrowUp" x="0" y="0" onmousedown="handlePan(0,-1)"/>
  <use id="arrowright" xlink:href="#arrowRight" x="0" y="0" onmousedown="handlePan(1,0)"/>
  <use id="arrowdown" xlink:href="#arrowDown" x="0" y="0" onmousedown="handlePan(0,1)"/>
  <use id="arrowleft" xlink:href="#arrowLeft" x="0" y="0" onmousedown="handlePan(-1,0)"/>
</g>
<svg viewBox="0 0 15 15" width="100%" height="30px" preserveAspectRatio="xMaxYMin meet">
 <g id="arrow_out" transform="scale(0.3 0.3)">
  <a xlink:href="structspdk__nvme__tcp__cmd__coll__graph_org.svg" target="_base">
   <rect id="button" ry="5" rx="5" y="6" x="6" height="38" width="38"
        fill="#f2f5e9" fill-opacity="0.5" stroke="#606060" stroke-width="1.0"/>
   <path id="arrow"
     d="M 11.500037,31.436501 C 11.940474,20.09759 22.043105,11.32322 32.158766,21.979434 L 37.068811,17.246167 C 37.068811,17.246167 37.088388,32 37.088388,32 L 22.160133,31.978069 C 22.160133,31.978069 26.997745,27.140456 26.997745,27.140456 C 18.528582,18.264221 13.291696,25.230495 11.500037,31.436501 z"
     style="fill:#404040;"/>
  </a>
 </g>
</svg>

<style type='text/css'>
<![CDATA[
[data-mouse-over-selected='false'] { opacity: 0.7; }
[data-mouse-over-selected='true']  { opacity: 1.0; }
]]>
</style>
<script type="application/ecmascript"><![CDATA[
document.addEventListener('DOMContentLoaded', (event) => {
  highlightEdges();
  highlightAdjacentNodes();
});
]]></script>
</svg>
