<?xml version="1.0" encoding="UTF-8" standalone="no"?>
<!DOCTYPE svg PUBLIC "-//W3C//DTD SVG 1.1//EN"
 "http://www.w3.org/Graphics/SVG/1.1/DTD/svg11.dtd">
<!-- Generated by graphviz version 13.1.2 (20250808.2320)
 -->
<!-- Title: spdk_nvmf_qpair Pages: 1 -->
<!--zoomable 446 -->

<svg id="main" version="1.1" xmlns="http://www.w3.org/2000/svg" xmlns:xlink="http://www.w3.org/1999/xlink" xml:space="preserve" onload="init(evt)">

<style type="text/css"><![CDATA[
.node, .edge {opacity: 0.7;}
.node.selected, .edge.selected {opacity: 1;}
.edge:hover path { stroke: red; }
.edge:hover polygon { stroke: red; fill: red; }
]]></style>

<defs>
  <circle id="rim" cx="0" cy="0" r="7"/>
  <circle id="rim2" cx="0" cy="0" r="3.5"/>
  <g id="zoomPlus">
    <use xlink:href="#rim" fill="#404040"><set attributeName="fill" to="#808080" begin="zoomplus.mouseover" end="zoomplus.mouseout"/></use>
    <path d="M-4,0h8M0,-4v8" fill="none" stroke="white" stroke-width="1.5" pointer-events="none"/>
  </g>
  <g id="zoomMin">
    <use xlink:href="#rim" fill="#404040"><set attributeName="fill" to="#808080" begin="zoomminus.mouseover" end="zoomminus.mouseout"/></use>
    <path d="M-4,0h8" fill="none" stroke="white" stroke-width="1.5" pointer-events="none"/>
  </g>
  <g id="arrowUp" transform="translate(30 24)">
    <use xlink:href="#rim"/>
    <path pointer-events="none" fill="none" stroke="white" stroke-width="1.5" d="M0,-3.0v7 M-2.5,-0.5L0,-3.0L2.5,-0.5"/>
  </g>
  <g id="arrowRight" transform="rotate(90) translate(36 -43)">
    <use xlink:href="#rim"/>
    <path pointer-events="none" fill="none" stroke="white" stroke-width="1.5" d="M0,-3.0v7 M-2.5,-0.5L0,-3.0L2.5,-0.5"/>
  </g>
  <g id="arrowDown" transform="rotate(180) translate(-30 -48)">
    <use xlink:href="#rim"/>
    <path pointer-events="none" fill="none" stroke="white" stroke-width="1.5" d="M0,-3.0v7 M-2.5,-0.5L0,-3.0L2.5,-0.5"/>
  </g>
  <g id="arrowLeft" transform="rotate(270) translate(-36 17)">
    <use xlink:href="#rim"/>
    <path pointer-events="none" fill="none" stroke="white" stroke-width="1.5" d="M0,-3.0v7 M-2.5,-0.5L0,-3.0L2.5,-0.5"/>
  </g>
  <g id="resetDef">
    <use xlink:href="#rim2" fill="#404040"><set attributeName="fill" to="#808080" begin="reset.mouseover" end="reset.mouseout"/></use>
  </g>
</defs>
<script type="application/ecmascript">
var viewWidth = 797;
var viewHeight = 446;
var sectionId = 'dynsection-0';
</script>
<script type="application/ecmascript" xlink:href="svg.min.js"/>
<svg id="graph" class="graph">
<g id="viewport">
<title>spdk_nvmf_qpair</title>
<!-- Node1 -->
<g id="Node000001" class="node">
<title>Node1</title>
<g id="a_Node000001"><a xlink:title=" ">
<polygon fill="#999999" stroke="#666666" points="542.25,-63.75 442.25,-63.75 442.25,-43 542.25,-43 542.25,-63.75"/>
<text xml:space="preserve" text-anchor="middle" x="492.25" y="-50.25" font-family="Helvetica,sans-Serif" font-size="10.00">spdk_nvmf_qpair</text>
</a>
</g>
</g>
<!-- Node15 -->
<g id="Node000015" class="node">
<title>Node15</title>
<g id="a_Node000015"><a xlink:href="structspdk__nvmf__request.html" target="_top" xlink:title=" ">
<polygon fill="white" stroke="#bfbfbf" points="789.25,-257.75 677.25,-257.75 677.25,-237 789.25,-237 789.25,-257.75"/>
<text xml:space="preserve" text-anchor="middle" x="733.25" y="-244.25" font-family="Helvetica,sans-Serif" font-size="10.00">spdk_nvmf_request</text>
</a>
</g>
</g>
<!-- Node1&#45;&gt;Node15 -->
<g id="edge7_Node000015_Node000001" class="edge">
<title>Node1&#45;&gt;Node15</title>
<g id="a_edge7_Node000015_Node000001"><a xlink:title=" ">
<path fill="none" stroke="#9a32cd" stroke-dasharray="5,2" d="M547.54,-40.78C582.54,-35.88 627.31,-35.98 659.25,-58.62 720.3,-101.91 730.3,-203.83 731.93,-236.85"/>
<polygon fill="#9a32cd" stroke="#9a32cd" points="547.38,-37.27 538.05,-42.29 548.47,-44.18 547.38,-37.27"/>
</a>
</g>
<text xml:space="preserve" text-anchor="start" x="607.88" y="-64.88" font-family="Helvetica,sans-Serif" font-size="10.00" fill="grey">qpair</text>
</g>
<!-- Node2 -->
<g id="Node000002" class="node">
<title>Node2</title>
<g id="a_Node000002"><a xlink:href="structspdk__nvmf__transport.html" target="_top" xlink:title=" ">
<polygon fill="white" stroke="#bfbfbf" points="331.62,-104.75 212.12,-104.75 212.12,-84 331.62,-84 331.62,-104.75"/>
<text xml:space="preserve" text-anchor="middle" x="271.88" y="-91.25" font-family="Helvetica,sans-Serif" font-size="10.00">spdk_nvmf_transport</text>
</a>
</g>
</g>
<!-- Node2&#45;&gt;Node1 -->
<g id="edge1_Node000001_Node000002" class="edge">
<title>Node2&#45;&gt;Node1</title>
<g id="a_edge1_Node000001_Node000002"><a xlink:title=" ">
<path fill="none" stroke="#9a32cd" stroke-dasharray="5,2" d="M312.56,-79.88C325.32,-75.69 339.63,-71.48 353,-68.62 382.16,-62.4 415.36,-58.63 441.92,-56.4"/>
<polygon fill="#9a32cd" stroke="#9a32cd" points="311.58,-76.52 303.23,-83.04 313.82,-83.15 311.58,-76.52"/>
</a>
</g>
<text xml:space="preserve" text-anchor="start" x="356" y="-74.88" font-family="Helvetica,sans-Serif" font-size="10.00" fill="grey">transport</text>
</g>
<!-- Node3 -->
<g id="Node000003" class="node">
<title>Node3</title>
<g id="a_Node000003"><a xlink:href="structspdk__nvmf__transport__ops.html" target="_top" xlink:title=" ">
<polygon fill="white" stroke="orangered" points="563.25,-103.75 421.25,-103.75 421.25,-83 563.25,-83 563.25,-103.75"/>
<text xml:space="preserve" text-anchor="middle" x="492.25" y="-90.25" font-family="Helvetica,sans-Serif" font-size="10.00">spdk_nvmf_transport_ops</text>
</a>
</g>
</g>
<!-- Node2&#45;&gt;Node3 -->
<g id="edge3_Node000003_Node000002" class="edge">
<title>Node2&#45;&gt;Node3</title>
<g id="a_edge3_Node000003_Node000002"><a xlink:title=" ">
<path fill="none" stroke="#9a32cd" stroke-dasharray="5,2" d="M343.23,-91.82C346.54,-91.75 349.8,-91.68 353,-91.62 375.08,-91.25 399.15,-91.37 420.92,-91.67"/>
<polygon fill="#9a32cd" stroke="#9a32cd" points="343.36,-88.32 333.45,-92.08 343.54,-95.32 343.36,-88.32"/>
</a>
</g>
<text xml:space="preserve" text-anchor="start" x="362.75" y="-97.88" font-family="Helvetica,sans-Serif" font-size="10.00" fill="grey">create</text>
</g>
<!-- Node3&#45;&gt;Node2 -->
<g id="edge2_Node000002_Node000003" class="edge">
<title>Node3&#45;&gt;Node2</title>
<g id="a_edge2_Node000002_Node000003"><a xlink:title=" ">
<path fill="none" stroke="#9a32cd" stroke-dasharray="5,2" d="M443.34,-106.95C430.43,-110.02 416.4,-112.83 403.25,-114.38 381.07,-116.98 375.17,-117.1 353,-114.38 338.2,-112.56 322.2,-108.91 308.42,-105.23"/>
<polygon fill="#9a32cd" stroke="#9a32cd" points="444.02,-110.39 452.88,-104.58 442.33,-103.6 444.02,-110.39"/>
</a>
</g>
<text xml:space="preserve" text-anchor="start" x="369.5" y="-122.63" font-family="Helvetica,sans-Serif" font-size="10.00" fill="grey">ops</text>
</g>
<!-- Node11 -->
<g id="Node000011" class="node">
<title>Node11</title>
<g id="a_Node000011"><a xlink:href="structspdk__nvmf__transport__opts.html" target="_top" xlink:title=" ">
<polygon fill="white" stroke="orangered" points="145.75,-104.75 0,-104.75 0,-84 145.75,-84 145.75,-104.75"/>
<text xml:space="preserve" text-anchor="middle" x="72.88" y="-91.25" font-family="Helvetica,sans-Serif" font-size="10.00">spdk_nvmf_transport_opts</text>
</a>
</g>
</g>
<!-- Node11&#45;&gt;Node2 -->
<g id="edge4_Node000002_Node000011" class="edge">
<title>Node11&#45;&gt;Node2</title>
<g id="a_edge4_Node000002_Node000011"><a xlink:title=" ">
<path fill="none" stroke="#9a32cd" stroke-dasharray="5,2" d="M157.4,-94.38C175.73,-94.38 194.75,-94.38 211.87,-94.38"/>
<polygon fill="#9a32cd" stroke="#9a32cd" points="157.63,-90.88 147.63,-94.38 157.63,-97.88 157.63,-90.88"/>
</a>
</g>
<text xml:space="preserve" text-anchor="start" x="166.75" y="-100.62" font-family="Helvetica,sans-Serif" font-size="10.00" fill="grey">opts</text>
</g>
<!-- Node9 -->
<g id="Node000009" class="node">
<title>Node9</title>
<g id="a_Node000009"><a xlink:href="structspdk__nvmf__poll__group.html" target="_top" xlink:title=" ">
<polygon fill="white" stroke="orangered" points="335,-20.75 208.75,-20.75 208.75,0 335,0 335,-20.75"/>
<text xml:space="preserve" text-anchor="middle" x="271.88" y="-7.25" font-family="Helvetica,sans-Serif" font-size="10.00">spdk_nvmf_poll_group</text>
</a>
</g>
</g>
<!-- Node9&#45;&gt;Node1 -->
<g id="edge5_Node000001_Node000009" class="edge">
<title>Node9&#45;&gt;Node1</title>
<g id="a_edge5_Node000001_Node000009"><a xlink:title=" ">
<path fill="none" stroke="#9a32cd" stroke-dasharray="5,2" d="M338.93,-23.38C371.99,-29.89 411.34,-37.64 441.76,-43.63"/>
<polygon fill="#9a32cd" stroke="#9a32cd" points="339.95,-20.02 329.47,-21.52 338.6,-26.88 339.95,-20.02"/>
</a>
</g>
<text xml:space="preserve" text-anchor="start" x="364.25" y="-41.98" font-family="Helvetica,sans-Serif" font-size="10.00" fill="grey">group</text>
</g>
<!-- Node15&#45;&gt;Node1 -->
<g id="edge6_Node000001_Node000015" class="edge">
<title>Node15&#45;&gt;Node1</title>
<g id="a_edge6_Node000001_Node000015"><a xlink:title=" ">
<path fill="none" stroke="#9a32cd" stroke-dasharray="5,2" d="M724.87,-226.06C714.27,-198.17 692.28,-149.29 659.25,-118.88 624.65,-87.02 607.22,-91.06 563.25,-74.38 553.52,-70.68 542.85,-67.2 532.82,-64.17"/>
<polygon fill="#9a32cd" stroke="#9a32cd" points="721.49,-226.99 728.2,-235.19 728.06,-224.59 721.49,-226.99"/>
</a>
</g>
<text xml:space="preserve" text-anchor="start" x="584.25" y="-141.88" font-family="Helvetica,sans-Serif" font-size="10.00" fill="grey">connect_req</text>
<text xml:space="preserve" text-anchor="start" x="584.25" y="-125.12" font-family="Helvetica,sans-Serif" font-size="10.00" fill="grey">first_fused_req</text>
</g>
<!-- Node15&#45;&gt;Node15 -->
<g id="edge13_Node000015_Node000015" class="edge">
<title>Node15&#45;&gt;Node15</title>
<g id="a_edge13_Node000015_Node000015"><a xlink:title=" ">
<path fill="none" stroke="#9a32cd" stroke-dasharray="5,2" d="M713.6,-269.56C716.38,-273.23 722.93,-275.75 733.25,-275.75 752.67,-275.75 758.74,-266.81 751.46,-258.15"/>
<polygon fill="#9a32cd" stroke="#9a32cd" points="717.07,-270.01 714.85,-259.65 710.13,-269.13 717.07,-270.01"/>
</a>
</g>
<text xml:space="preserve" text-anchor="start" x="697.25" y="-315.5" font-family="Helvetica,sans-Serif" font-size="10.00" fill="grey">cmd_cb_fn</text>
<text xml:space="preserve" text-anchor="start" x="697.25" y="-298.75" font-family="Helvetica,sans-Serif" font-size="10.00" fill="grey">first_fused_req</text>
<text xml:space="preserve" text-anchor="start" x="697.25" y="-282" font-family="Helvetica,sans-Serif" font-size="10.00" fill="grey">req_to_abort</text>
</g>
<!-- Node16 -->
<g id="Node000016" class="node">
<title>Node16</title>
<g id="a_Node000016"><a xlink:href="unionnvmf__h2c__msg.html" target="_top" xlink:title=" ">
<polygon fill="white" stroke="orangered" points="537.38,-425.75 447.12,-425.75 447.12,-405 537.38,-405 537.38,-425.75"/>
<text xml:space="preserve" text-anchor="middle" x="492.25" y="-412.25" font-family="Helvetica,sans-Serif" font-size="10.00">nvmf_h2c_msg</text>
</a>
</g>
</g>
<!-- Node16&#45;&gt;Node15 -->
<g id="edge8_Node000015_Node000016" class="edge">
<title>Node16&#45;&gt;Node15</title>
<g id="a_edge8_Node000015_Node000016"><a xlink:title=" ">
<path fill="none" stroke="#9a32cd" stroke-dasharray="5,2" d="M548.91,-420.56C583.62,-420.95 627.56,-415.97 659.25,-393.38 706.78,-359.48 725.09,-285.6 730.42,-258.03"/>
<polygon fill="#9a32cd" stroke="#9a32cd" points="549.13,-417.06 539.04,-420.28 548.93,-424.06 549.13,-417.06"/>
</a>
</g>
<text xml:space="preserve" text-anchor="start" x="609.75" y="-425.24" font-family="Helvetica,sans-Serif" font-size="10.00" fill="grey">cmd</text>
</g>
<!-- Node49 -->
<g id="Node000049" class="node">
<title>Node49</title>
<g id="a_Node000049"><a xlink:href="unionnvmf__c2h__msg.html" target="_top" xlink:title=" ">
<polygon fill="white" stroke="orangered" points="537.38,-383.75 447.12,-383.75 447.12,-363 537.38,-363 537.38,-383.75"/>
<text xml:space="preserve" text-anchor="middle" x="492.25" y="-370.25" font-family="Helvetica,sans-Serif" font-size="10.00">nvmf_c2h_msg</text>
</a>
</g>
</g>
<!-- Node49&#45;&gt;Node15 -->
<g id="edge9_Node000015_Node000049" class="edge">
<title>Node49&#45;&gt;Node15</title>
<g id="a_edge9_Node000015_Node000049"><a xlink:title=" ">
<path fill="none" stroke="#9a32cd" stroke-dasharray="5,2" d="M548.81,-374.67C582.91,-373.07 626.23,-366.54 659.25,-346.38 694.6,-324.78 718.3,-279.06 727.7,-258.18"/>
<polygon fill="#9a32cd" stroke="#9a32cd" points="549.02,-371.16 539.14,-374.98 549.25,-378.15 549.02,-371.16"/>
</a>
</g>
<text xml:space="preserve" text-anchor="start" x="612.75" y="-377.84" font-family="Helvetica,sans-Serif" font-size="10.00" fill="grey">rsp</text>
</g>
<!-- Node54 -->
<g id="Node000054" class="node">
<title>Node54</title>
<g id="a_Node000054"><a xlink:href="structspdk__nvmf__stripped__data.html" target="_top" xlink:title=" ">
<polygon fill="white" stroke="#bfbfbf" points="563.25,-341.75 421.25,-341.75 421.25,-321 563.25,-321 563.25,-341.75"/>
<text xml:space="preserve" text-anchor="middle" x="492.25" y="-328.25" font-family="Helvetica,sans-Serif" font-size="10.00">spdk_nvmf_stripped_data</text>
</a>
</g>
</g>
<!-- Node54&#45;&gt;Node15 -->
<g id="edge10_Node000015_Node000054" class="edge">
<title>Node54&#45;&gt;Node15</title>
<g id="a_edge10_Node000015_Node000054"><a xlink:title=" ">
<path fill="none" stroke="#9a32cd" stroke-dasharray="5,2" d="M574.84,-324.91C602.46,-320.71 632.95,-313.79 659.25,-302.38 684,-291.64 708.07,-270.91 721.45,-258.19"/>
<polygon fill="#9a32cd" stroke="#9a32cd" points="574.52,-321.42 565.11,-326.28 575.5,-328.35 574.52,-321.42"/>
</a>
</g>
<text xml:space="preserve" text-anchor="start" x="586.88" y="-329.65" font-family="Helvetica,sans-Serif" font-size="10.00" fill="grey">stripped_data</text>
</g>
<!-- Node55 -->
<g id="Node000055" class="node">
<title>Node55</title>
<g id="a_Node000055"><a xlink:href="structspdk__nvmf__dif__info.html" target="_top" xlink:title=" ">
<polygon fill="white" stroke="orangered" points="548.25,-299.75 436.25,-299.75 436.25,-279 548.25,-279 548.25,-299.75"/>
<text xml:space="preserve" text-anchor="middle" x="492.25" y="-286.25" font-family="Helvetica,sans-Serif" font-size="10.00">spdk_nvmf_dif_info</text>
</a>
</g>
</g>
<!-- Node55&#45;&gt;Node15 -->
<g id="edge11_Node000015_Node000055" class="edge">
<title>Node55&#45;&gt;Node15</title>
<g id="a_edge11_Node000015_Node000055"><a xlink:title=" ">
<path fill="none" stroke="#9a32cd" stroke-dasharray="5,2" d="M559.87,-282.64C590.33,-279.02 626.78,-273.94 659.25,-267.38 671.49,-264.9 684.69,-261.51 696.47,-258.22"/>
<polygon fill="#9a32cd" stroke="#9a32cd" points="559.55,-279.15 550.02,-283.78 560.36,-286.1 559.55,-279.15"/>
</a>
</g>
<text xml:space="preserve" text-anchor="start" x="613.88" y="-286.08" font-family="Helvetica,sans-Serif" font-size="10.00" fill="grey">dif</text>
</g>
<!-- Node57 -->
<g id="Node000057" class="node">
<title>Node57</title>
<g id="a_Node000057"><a xlink:href="structspdk__bdev__io__wait__entry.html" target="_top" xlink:title="Structure to register a callback when an spdk_bdev_io becomes available.">
<polygon fill="#fff0f0" stroke="red" points="562.12,-257.75 422.38,-257.75 422.38,-237 562.12,-237 562.12,-257.75"/>
<text xml:space="preserve" text-anchor="middle" x="492.25" y="-244.25" font-family="Helvetica,sans-Serif" font-size="10.00">spdk_bdev_io_wait_entry</text>
</a>
</g>
</g>
<!-- Node57&#45;&gt;Node15 -->
<g id="edge12_Node000015_Node000057" class="edge">
<title>Node57&#45;&gt;Node15</title>
<g id="a_edge12_Node000015_Node000057"><a xlink:title=" ">
<path fill="none" stroke="#9a32cd" stroke-dasharray="5,2" d="M573.69,-247.38C607.62,-247.38 646.27,-247.38 676.91,-247.38"/>
<polygon fill="#9a32cd" stroke="#9a32cd" points="573.89,-243.88 563.89,-247.38 573.89,-250.88 573.89,-243.88"/>
</a>
</g>
<text xml:space="preserve" text-anchor="start" x="588" y="-253.62" font-family="Helvetica,sans-Serif" font-size="10.00" fill="grey">bdev_io_wait</text>
</g>
<!-- Node69 -->
<g id="Node000069" class="node">
<title>Node69</title>
<g id="a_Node000069"><a xlink:href="structspdk__bdev__io.html" target="_top" xlink:title=" ">
<polygon fill="white" stroke="orangered" points="533.62,-218.75 450.88,-218.75 450.88,-198 533.62,-198 533.62,-218.75"/>
<text xml:space="preserve" text-anchor="middle" x="492.25" y="-205.25" font-family="Helvetica,sans-Serif" font-size="10.00">spdk_bdev_io</text>
</a>
</g>
</g>
<!-- Node69&#45;&gt;Node15 -->
<g id="edge14_Node000015_Node000069" class="edge">
<title>Node69&#45;&gt;Node15</title>
<g id="a_edge14_Node000015_Node000069"><a xlink:title=" ">
<path fill="none" stroke="#9a32cd" stroke-dasharray="5,2" d="M545.04,-210.72C577.99,-212.87 621.42,-216.96 659.25,-224.62 673.69,-227.55 689.33,-232.22 702.42,-236.56"/>
<polygon fill="#9a32cd" stroke="#9a32cd" points="545.55,-207.24 535.36,-210.12 545.12,-214.23 545.55,-207.24"/>
</a>
</g>
<text xml:space="preserve" text-anchor="start" x="584.25" y="-230.88" font-family="Helvetica,sans-Serif" font-size="10.00" fill="grey">zcopy_bdev_io</text>
</g>
<!-- Node79 -->
<g id="Node000079" class="node">
<title>Node79</title>
<g id="a_Node000079"><a xlink:href="structspdk__iobuf__entry.html" target="_top" xlink:title="iobuf queue entry">
<polygon fill="white" stroke="#666666" points="542.25,-142.75 442.25,-142.75 442.25,-122 542.25,-122 542.25,-142.75"/>
<text xml:space="preserve" text-anchor="middle" x="492.25" y="-129.25" font-family="Helvetica,sans-Serif" font-size="10.00">spdk_iobuf_entry</text>
</a>
</g>
</g>
<!-- Node79&#45;&gt;Node15 -->
<g id="edge15_Node000015_Node000079" class="edge">
<title>Node79&#45;&gt;Node15</title>
<g id="a_edge15_Node000015_Node000079"><a xlink:title=" ">
<path fill="none" stroke="#9a32cd" stroke-dasharray="5,2" d="M546.71,-146.34C580.19,-156.22 623.59,-171.19 659.25,-190.62 683.21,-203.69 707.54,-224.43 721.18,-236.89"/>
<polygon fill="#9a32cd" stroke="#9a32cd" points="547.8,-143.01 537.22,-143.6 545.86,-149.73 547.8,-143.01"/>
</a>
</g>
<text xml:space="preserve" text-anchor="start" x="607.5" y="-196.88" font-family="Helvetica,sans-Serif" font-size="10.00" fill="grey">entry</text>
</g>
<!-- Node79&#45;&gt;Node79 -->
<g id="edge16_Node000079_Node000079" class="edge">
<title>Node79&#45;&gt;Node79</title>
<g id="a_edge16_Node000079_Node000079"><a xlink:title=" ">
<path fill="none" stroke="#9a32cd" stroke-dasharray="5,2" d="M472.41,-154.56C475.21,-158.23 481.83,-160.75 492.25,-160.75 511.87,-160.75 517.99,-151.81 510.64,-143.15"/>
<polygon fill="#9a32cd" stroke="#9a32cd" points="475.88,-155.01 473.67,-144.65 468.93,-154.13 475.88,-155.01"/>
</a>
</g>
<text xml:space="preserve" text-anchor="start" x="479.12" y="-167" font-family="Helvetica,sans-Serif" font-size="10.00" fill="grey">cb_fn</text>
</g>
</g>
</svg>

<g id="navigator" transform="translate(0 0)" fill="#404254">
  <rect fill="#f2f5e9" fill-opacity="0.5" stroke="#606060" stroke-width=".5" x="0" y="0" width="60" height="60"/>
  <use id="zoomplus" xlink:href="#zoomPlus" x="17" y="9" onmousedown="handleZoom(evt,'in')"/>
  <use id="zoomminus" xlink:href="#zoomMin" x="42" y="9" onmousedown="handleZoom(evt,'out')"/>
  <use id="reset" xlink:href="#resetDef" x="30" y="36" onmousedown="handleReset()"/>
   <use id="arrowup" xlink:href="#arrowUp" x="0" y="0" onmousedown="handlePan(0,-1)"/>
  <use id="arrowright" xlink:href="#arrowRight" x="0" y="0" onmousedown="handlePan(1,0)"/>
  <use id="arrowdown" xlink:href="#arrowDown" x="0" y="0" onmousedown="handlePan(0,1)"/>
  <use id="arrowleft" xlink:href="#arrowLeft" x="0" y="0" onmousedown="handlePan(-1,0)"/>
</g>
<svg viewBox="0 0 15 15" width="100%" height="30px" preserveAspectRatio="xMaxYMin meet">
 <g id="arrow_out" transform="scale(0.3 0.3)">
  <a xlink:href="structspdk__nvmf__qpair__coll__graph_org.svg" target="_base">
   <rect id="button" ry="5" rx="5" y="6" x="6" height="38" width="38"
        fill="#f2f5e9" fill-opacity="0.5" stroke="#606060" stroke-width="1.0"/>
   <path id="arrow"
     d="M 11.500037,31.436501 C 11.940474,20.09759 22.043105,11.32322 32.158766,21.979434 L 37.068811,17.246167 C 37.068811,17.246167 37.088388,32 37.088388,32 L 22.160133,31.978069 C 22.160133,31.978069 26.997745,27.140456 26.997745,27.140456 C 18.528582,18.264221 13.291696,25.230495 11.500037,31.436501 z"
     style="fill:#404040;"/>
  </a>
 </g>
</svg>

<style type='text/css'>
<![CDATA[
[data-mouse-over-selected='false'] { opacity: 0.7; }
[data-mouse-over-selected='true']  { opacity: 1.0; }
]]>
</style>
<script type="application/ecmascript"><![CDATA[
document.addEventListener('DOMContentLoaded', (event) => {
  highlightEdges();
  highlightAdjacentNodes();
});
]]></script>
</svg>
