<?xml version="1.0" encoding="UTF-8" standalone="no"?>
<!DOCTYPE svg PUBLIC "-//W3C//DTD SVG 1.1//EN"
 "http://www.w3.org/Graphics/SVG/1.1/DTD/svg11.dtd">
<!-- Generated by graphviz version 13.1.2 (20250808.2320)
 -->
<!-- Title: spdk_bdev_io_block_params Pages: 1 -->
<svg width="502pt" height="117pt"
 viewBox="0.00 0.00 502.00 117.00" xmlns="http://www.w3.org/2000/svg" xmlns:xlink="http://www.w3.org/1999/xlink">
<g id="graph0" class="graph" transform="scale(1 1) rotate(0) translate(4 113)">
<title>spdk_bdev_io_block_params</title>
<!-- Node1 -->
<g id="Node000001" class="node">
<title>Node1</title>
<g id="a_Node000001"><a xlink:title=" ">
<polygon fill="#999999" stroke="#666666" points="345.25,-33.5 231,-33.5 231,0 345.25,0 345.25,-33.5"/>
<text xml:space="preserve" text-anchor="start" x="239" y="-20" font-family="Helvetica,sans-Serif" font-size="10.00">spdk_bdev_io_block</text>
<text xml:space="preserve" text-anchor="middle" x="288.12" y="-7.25" font-family="Helvetica,sans-Serif" font-size="10.00">_params</text>
</a>
</g>
</g>
<!-- Node2 -->
<g id="Node000002" class="node">
<title>Node2</title>
<g id="a_Node000002"><a xlink:href="unionspdk__bdev__nvme__cdw12.html" target="_top" xlink:title="Union for command dword 12, which by convention matches the NVMe command dword 12 definition.">
<polygon fill="white" stroke="#666666" points="138.25,-109 0,-109 0,-88.25 138.25,-88.25 138.25,-109"/>
<text xml:space="preserve" text-anchor="middle" x="69.12" y="-95.5" font-family="Helvetica,sans-Serif" font-size="10.00">spdk_bdev_nvme_cdw12</text>
</a>
</g>
</g>
<!-- Node2&#45;&gt;Node1 -->
<g id="edge1_Node000001_Node000002" class="edge">
<title>Node2&#45;&gt;Node1</title>
<g id="a_edge1_Node000001_Node000002"><a xlink:title=" ">
<path fill="none" stroke="#9a32cd" stroke-dasharray="5,2" d="M98.23,-82.83C118.03,-73.13 145.01,-60.59 169.62,-51.5 189.19,-44.27 211.04,-37.65 230.6,-32.23"/>
<polygon fill="#9a32cd" stroke="#9a32cd" points="96.78,-79.64 89.38,-87.22 99.89,-85.91 96.78,-79.64"/>
</a>
</g>
<text xml:space="preserve" text-anchor="start" x="172.62" y="-57.75" font-family="Helvetica,sans-Serif" font-size="10.00" fill="grey">nvme_cdw12</text>
</g>
<!-- Node3 -->
<g id="Node000003" class="node">
<title>Node3</title>
<g id="a_Node000003"><a xlink:href="unionspdk__bdev__nvme__cdw13.html" target="_top" xlink:title="Union for command dword 13, which by convention matches the NVMe command dword 13 definition.">
<polygon fill="white" stroke="#666666" points="294.25,-109 156,-109 156,-88.25 294.25,-88.25 294.25,-109"/>
<text xml:space="preserve" text-anchor="middle" x="225.12" y="-95.5" font-family="Helvetica,sans-Serif" font-size="10.00">spdk_bdev_nvme_cdw13</text>
</a>
</g>
</g>
<!-- Node3&#45;&gt;Node1 -->
<g id="edge2_Node000001_Node000003" class="edge">
<title>Node3&#45;&gt;Node1</title>
<g id="a_edge2_Node000001_Node000003"><a xlink:title=" ">
<path fill="none" stroke="#9a32cd" stroke-dasharray="5,2" d="M238.39,-78.56C244.39,-70.14 251.69,-60.19 258.62,-51.5 263.28,-45.66 268.6,-39.45 273.42,-33.98"/>
<polygon fill="#9a32cd" stroke="#9a32cd" points="235.58,-76.47 232.68,-86.66 241.3,-80.5 235.58,-76.47"/>
</a>
</g>
<text xml:space="preserve" text-anchor="start" x="261.62" y="-57.75" font-family="Helvetica,sans-Serif" font-size="10.00" fill="grey">nvme_cdw13</text>
</g>
<!-- Node4 -->
<g id="Node000004" class="node">
<title>Node4</title>
<g id="a_Node000004"><a xlink:href="structspdk__dif__ctx.html" target="_top" xlink:title="DIF context information.">
<polygon fill="white" stroke="#666666" points="389.88,-109 312.38,-109 312.38,-88.25 389.88,-88.25 389.88,-109"/>
<text xml:space="preserve" text-anchor="middle" x="351.12" y="-95.5" font-family="Helvetica,sans-Serif" font-size="10.00">spdk_dif_ctx</text>
</a>
</g>
</g>
<!-- Node4&#45;&gt;Node1 -->
<g id="edge3_Node000001_Node000004" class="edge">
<title>Node4&#45;&gt;Node1</title>
<g id="a_edge3_Node000001_Node000004"><a xlink:title=" ">
<path fill="none" stroke="#9a32cd" stroke-dasharray="5,2" d="M343.82,-77.55C340.17,-69.03 335.21,-59.28 329.12,-51.5 324.01,-44.96 317.43,-38.85 311.04,-33.67"/>
<polygon fill="#9a32cd" stroke="#9a32cd" points="340.51,-78.69 347.43,-86.71 347.02,-76.12 340.51,-78.69"/>
</a>
</g>
<text xml:space="preserve" text-anchor="start" x="343.05" y="-57.75" font-family="Helvetica,sans-Serif" font-size="10.00" fill="grey">dif_ctx</text>
</g>
<!-- Node5 -->
<g id="Node000005" class="node">
<title>Node5</title>
<g id="a_Node000005"><a xlink:href="structspdk__dif__error.html" target="_top" xlink:title="DIF error information.">
<polygon fill="white" stroke="#666666" points="494,-109 408.25,-109 408.25,-88.25 494,-88.25 494,-109"/>
<text xml:space="preserve" text-anchor="middle" x="451.12" y="-95.5" font-family="Helvetica,sans-Serif" font-size="10.00">spdk_dif_error</text>
</a>
</g>
</g>
<!-- Node5&#45;&gt;Node1 -->
<g id="edge4_Node000001_Node000005" class="edge">
<title>Node5&#45;&gt;Node1</title>
<g id="a_edge4_Node000001_Node000005"><a xlink:title=" ">
<path fill="none" stroke="#9a32cd" stroke-dasharray="5,2" d="M429.67,-80.99C416.71,-71.48 399.55,-59.82 383.12,-51.5 370.01,-44.86 355.27,-38.94 341.39,-33.99"/>
<polygon fill="#9a32cd" stroke="#9a32cd" points="427.38,-83.65 437.48,-86.85 431.58,-78.05 427.38,-83.65"/>
</a>
</g>
<text xml:space="preserve" text-anchor="start" x="417.02" y="-57.75" font-family="Helvetica,sans-Serif" font-size="10.00" fill="grey">dif_err</text>
</g>
</g>
</svg>
