<?xml version="1.0" encoding="UTF-8" standalone="no"?>
<!DOCTYPE svg PUBLIC "-//W3C//DTD SVG 1.1//EN"
 "http://www.w3.org/Graphics/SVG/1.1/DTD/svg11.dtd">
<!-- Generated by graphviz version 13.1.2 (20250808.2320)
 -->
<!-- Title: spdk_nvmf_fc_ls_cr_conn_acc Pages: 1 -->
<svg width="287pt" height="281pt"
 viewBox="0.00 0.00 287.00 281.00" xmlns="http://www.w3.org/2000/svg" xmlns:xlink="http://www.w3.org/1999/xlink">
<g id="graph0" class="graph" transform="scale(1 1) rotate(0) translate(4 276.75)">
<title>spdk_nvmf_fc_ls_cr_conn_acc</title>
<!-- Node1 -->
<g id="Node000001" class="node">
<title>Node1</title>
<g id="a_Node000001"><a xlink:title=" ">
<polygon fill="#999999" stroke="#666666" points="200.62,-33.5 88.62,-33.5 88.62,0 200.62,0 200.62,-33.5"/>
<text xml:space="preserve" text-anchor="start" x="96.62" y="-20" font-family="Helvetica,sans-Serif" font-size="10.00">spdk_nvmf_fc_ls_cr</text>
<text xml:space="preserve" text-anchor="middle" x="144.62" y="-7.25" font-family="Helvetica,sans-Serif" font-size="10.00">_conn_acc</text>
</a>
</g>
</g>
<!-- Node2 -->
<g id="Node000002" class="node">
<title>Node2</title>
<g id="a_Node000002"><a xlink:href="structspdk__nvmf__fc__ls__acc__hdr.html" target="_top" xlink:title=" ">
<polygon fill="white" stroke="#bfbfbf" points="140.88,-115.38 0.38,-115.38 0.38,-94.62 140.88,-94.62 140.88,-115.38"/>
<text xml:space="preserve" text-anchor="middle" x="70.62" y="-101.88" font-family="Helvetica,sans-Serif" font-size="10.00">spdk_nvmf_fc_ls_acc_hdr</text>
</a>
</g>
</g>
<!-- Node2&#45;&gt;Node1 -->
<g id="edge1_Node000001_Node000002" class="edge">
<title>Node2&#45;&gt;Node1</title>
<g id="a_edge1_Node000001_Node000002"><a xlink:title=" ">
<path fill="none" stroke="#9a32cd" stroke-dasharray="5,2" d="M86.23,-85.81C99.44,-70.41 118.19,-48.56 130.85,-33.8"/>
<polygon fill="#9a32cd" stroke="#9a32cd" points="83.67,-83.42 79.81,-93.29 88.98,-87.98 83.67,-83.42"/>
</a>
</g>
<text xml:space="preserve" text-anchor="start" x="117.25" y="-57.75" font-family="Helvetica,sans-Serif" font-size="10.00" fill="grey">hdr</text>
</g>
<!-- Node3 -->
<g id="Node000003" class="node">
<title>Node3</title>
<g id="a_Node000003"><a xlink:href="structspdk__nvmf__fc__ls__rqst__w0.html" target="_top" xlink:title=" ">
<polygon fill="white" stroke="#bfbfbf" points="141.25,-272.75 0,-272.75 0,-252 141.25,-252 141.25,-272.75"/>
<text xml:space="preserve" text-anchor="middle" x="70.62" y="-259.25" font-family="Helvetica,sans-Serif" font-size="10.00">spdk_nvmf_fc_ls_rqst_w0</text>
</a>
</g>
</g>
<!-- Node3&#45;&gt;Node2 -->
<g id="edge2_Node000002_Node000003" class="edge">
<title>Node3&#45;&gt;Node2</title>
<g id="a_edge2_Node000002_Node000003"><a xlink:title=" ">
<path fill="none" stroke="#9a32cd" stroke-dasharray="5,2" d="M67.7,-240.78C66.07,-228.23 64.2,-211.85 63.38,-197.25 61.7,-167.58 66.34,-132.57 68.96,-115.85"/>
<polygon fill="#9a32cd" stroke="#9a32cd" points="64.18,-240.91 69,-250.34 71.12,-239.96 64.18,-240.91"/>
</a>
</g>
<text xml:space="preserve" text-anchor="start" x="66.38" y="-183.75" font-family="Helvetica,sans-Serif" font-size="10.00" fill="grey">w0</text>
</g>
<!-- Node4 -->
<g id="Node000004" class="node">
<title>Node4</title>
<g id="a_Node000004"><a xlink:href="structspdk__nvmf__fc__lsdesc__rqst.html" target="_top" xlink:title=" ">
<polygon fill="white" stroke="#bfbfbf" points="236.75,-197.25 92.5,-197.25 92.5,-176.5 236.75,-176.5 236.75,-197.25"/>
<text xml:space="preserve" text-anchor="middle" x="164.62" y="-183.75" font-family="Helvetica,sans-Serif" font-size="10.00">spdk_nvmf_fc_lsdesc_rqst</text>
</a>
</g>
</g>
<!-- Node3&#45;&gt;Node4 -->
<g id="edge4_Node000004_Node000003" class="edge">
<title>Node3&#45;&gt;Node4</title>
<g id="a_edge4_Node000004_Node000003"><a xlink:title=" ">
<path fill="none" stroke="#9a32cd" stroke-dasharray="5,2" d="M91.8,-244.82C110.33,-230.33 136.63,-209.76 152.03,-197.72"/>
<polygon fill="#9a32cd" stroke="#9a32cd" points="89.83,-241.92 84.11,-250.83 94.14,-247.43 89.83,-241.92"/>
</a>
</g>
<text xml:space="preserve" text-anchor="start" x="131.81" y="-221.5" font-family="Helvetica,sans-Serif" font-size="10.00" fill="grey">w0</text>
</g>
<!-- Node4&#45;&gt;Node2 -->
<g id="edge3_Node000002_Node000004" class="edge">
<title>Node4&#45;&gt;Node2</title>
<g id="a_edge3_Node000002_Node000004"><a xlink:title=" ">
<path fill="none" stroke="#9a32cd" stroke-dasharray="5,2" d="M144.33,-168.63C125.37,-152.52 97.73,-129.03 82.25,-115.87"/>
<polygon fill="#9a32cd" stroke="#9a32cd" points="142.06,-171.29 151.95,-175.1 146.59,-165.96 142.06,-171.29"/>
</a>
</g>
<text xml:space="preserve" text-anchor="start" x="134.54" y="-146" font-family="Helvetica,sans-Serif" font-size="10.00" fill="grey">rqst</text>
</g>
<!-- Node5 -->
<g id="Node000005" class="node">
<title>Node5</title>
<g id="a_Node000005"><a xlink:href="structspdk__nvmf__fc__lsdesc__conn__id.html" target="_top" xlink:title=" ">
<polygon fill="white" stroke="#bfbfbf" points="278.75,-121.75 158.5,-121.75 158.5,-88.25 278.75,-88.25 278.75,-121.75"/>
<text xml:space="preserve" text-anchor="start" x="166.5" y="-108.25" font-family="Helvetica,sans-Serif" font-size="10.00">spdk_nvmf_fc_lsdesc</text>
<text xml:space="preserve" text-anchor="middle" x="218.62" y="-95.5" font-family="Helvetica,sans-Serif" font-size="10.00">_conn_id</text>
</a>
</g>
</g>
<!-- Node5&#45;&gt;Node1 -->
<g id="edge5_Node000001_Node000005" class="edge">
<title>Node5&#45;&gt;Node1</title>
<g id="a_edge5_Node000001_Node000005"><a xlink:title=" ">
<path fill="none" stroke="#9a32cd" stroke-dasharray="5,2" d="M197.37,-79.23C184.87,-64.66 169.42,-46.65 158.48,-33.9"/>
<polygon fill="#9a32cd" stroke="#9a32cd" points="194.55,-81.32 203.72,-86.63 199.87,-76.76 194.55,-81.32"/>
</a>
</g>
<text xml:space="preserve" text-anchor="start" x="191.25" y="-57.75" font-family="Helvetica,sans-Serif" font-size="10.00" fill="grey">conn_id</text>
</g>
</g>
</svg>
