<?xml version="1.0" encoding="UTF-8" standalone="no"?>
<!DOCTYPE svg PUBLIC "-//W3C//DTD SVG 1.1//EN"
 "http://www.w3.org/Graphics/SVG/1.1/DTD/svg11.dtd">
<!-- Generated by graphviz version 13.1.2 (20250808.2320)
 -->
<!-- Title: spdk_nvme_transport_ops Pages: 1 -->
<!--zoomable 837 -->

<svg id="main" version="1.1" xmlns="http://www.w3.org/2000/svg" xmlns:xlink="http://www.w3.org/1999/xlink" xml:space="preserve" onload="init(evt)">

<style type="text/css"><![CDATA[
.node, .edge {opacity: 0.7;}
.node.selected, .edge.selected {opacity: 1;}
.edge:hover path { stroke: red; }
.edge:hover polygon { stroke: red; fill: red; }
]]></style>

<defs>
  <circle id="rim" cx="0" cy="0" r="7"/>
  <circle id="rim2" cx="0" cy="0" r="3.5"/>
  <g id="zoomPlus">
    <use xlink:href="#rim" fill="#404040"><set attributeName="fill" to="#808080" begin="zoomplus.mouseover" end="zoomplus.mouseout"/></use>
    <path d="M-4,0h8M0,-4v8" fill="none" stroke="white" stroke-width="1.5" pointer-events="none"/>
  </g>
  <g id="zoomMin">
    <use xlink:href="#rim" fill="#404040"><set attributeName="fill" to="#808080" begin="zoomminus.mouseover" end="zoomminus.mouseout"/></use>
    <path d="M-4,0h8" fill="none" stroke="white" stroke-width="1.5" pointer-events="none"/>
  </g>
  <g id="arrowUp" transform="translate(30 24)">
    <use xlink:href="#rim"/>
    <path pointer-events="none" fill="none" stroke="white" stroke-width="1.5" d="M0,-3.0v7 M-2.5,-0.5L0,-3.0L2.5,-0.5"/>
  </g>
  <g id="arrowRight" transform="rotate(90) translate(36 -43)">
    <use xlink:href="#rim"/>
    <path pointer-events="none" fill="none" stroke="white" stroke-width="1.5" d="M0,-3.0v7 M-2.5,-0.5L0,-3.0L2.5,-0.5"/>
  </g>
  <g id="arrowDown" transform="rotate(180) translate(-30 -48)">
    <use xlink:href="#rim"/>
    <path pointer-events="none" fill="none" stroke="white" stroke-width="1.5" d="M0,-3.0v7 M-2.5,-0.5L0,-3.0L2.5,-0.5"/>
  </g>
  <g id="arrowLeft" transform="rotate(270) translate(-36 17)">
    <use xlink:href="#rim"/>
    <path pointer-events="none" fill="none" stroke="white" stroke-width="1.5" d="M0,-3.0v7 M-2.5,-0.5L0,-3.0L2.5,-0.5"/>
  </g>
  <g id="resetDef">
    <use xlink:href="#rim2" fill="#404040"><set attributeName="fill" to="#808080" begin="reset.mouseover" end="reset.mouseout"/></use>
  </g>
</defs>
<script type="application/ecmascript">
var viewWidth = 654;
var viewHeight = 837;
var sectionId = 'dynsection-0';
</script>
<script type="application/ecmascript" xlink:href="svg.min.js"/>
<svg id="graph" class="graph">
<g id="viewport">
<title>spdk_nvme_transport_ops</title>
<!-- Node1 -->
<g id="Node000001" class="node">
<title>Node1</title>
<g id="a_Node000001"><a xlink:title=" ">
<polygon fill="#999999" stroke="#666666" points="645.75,-419.75 501.5,-419.75 501.5,-399 645.75,-399 645.75,-419.75"/>
<text xml:space="preserve" text-anchor="middle" x="573.62" y="-406.25" font-family="Helvetica,sans-Serif" font-size="10.00">spdk_nvme_transport_ops</text>
</a>
</g>
</g>
<!-- Node2 -->
<g id="Node000002" class="node">
<title>Node2</title>
<g id="a_Node000002"><a xlink:href="structspdk__nvme__registers.html" target="_top" xlink:title=" ">
<polygon fill="white" stroke="#bfbfbf" points="371,-419.75 250.75,-419.75 250.75,-399 371,-399 371,-419.75"/>
<text xml:space="preserve" text-anchor="middle" x="310.88" y="-406.25" font-family="Helvetica,sans-Serif" font-size="10.00">spdk_nvme_registers</text>
</a>
</g>
</g>
<!-- Node2&#45;&gt;Node1 -->
<g id="edge1_Node000001_Node000002" class="edge">
<title>Node2&#45;&gt;Node1</title>
<g id="a_edge1_Node000001_Node000002"><a xlink:title=" ">
<path fill="none" stroke="#9a32cd" stroke-dasharray="5,2" d="M382.53,-409.38C419.39,-409.38 464.38,-409.38 501.33,-409.38"/>
<polygon fill="#9a32cd" stroke="#9a32cd" points="382.88,-405.88 372.88,-409.38 382.88,-412.88 382.88,-405.88"/>
</a>
</g>
<text xml:space="preserve" text-anchor="start" x="392" y="-415.62" font-family="Helvetica,sans-Serif" font-size="10.00" fill="grey">ctrlr_get_registers</text>
</g>
<!-- Node3 -->
<g id="Node000003" class="node">
<title>Node3</title>
<g id="a_Node000003"><a xlink:href="unionspdk__nvme__cap__register.html" target="_top" xlink:title=" ">
<polygon fill="white" stroke="#bfbfbf" points="151,-818.75 13.5,-818.75 13.5,-798 151,-798 151,-818.75"/>
<text xml:space="preserve" text-anchor="middle" x="82.25" y="-805.25" font-family="Helvetica,sans-Serif" font-size="10.00">spdk_nvme_cap_register</text>
</a>
</g>
</g>
<!-- Node3&#45;&gt;Node2 -->
<g id="edge2_Node000002_Node000003" class="edge">
<title>Node3&#45;&gt;Node2</title>
<g id="a_edge2_Node000002_Node000003"><a xlink:title=" ">
<path fill="none" stroke="#9a32cd" stroke-dasharray="5,2" d="M162.45,-813.77C187.79,-811.41 214.07,-804.04 232.75,-786.38 288.08,-734.04 306.03,-475.89 309.29,-420.04"/>
<polygon fill="#9a32cd" stroke="#9a32cd" points="162.56,-810.25 152.81,-814.4 163.02,-817.24 162.56,-810.25"/>
</a>
</g>
<text xml:space="preserve" text-anchor="start" x="199" y="-816.93" font-family="Helvetica,sans-Serif" font-size="10.00" fill="grey">cap</text>
</g>
<!-- Node4 -->
<g id="Node000004" class="node">
<title>Node4</title>
<g id="a_Node000004"><a xlink:href="unionspdk__nvme__vs__register.html" target="_top" xlink:title=" ">
<polygon fill="white" stroke="#bfbfbf" points="148,-776.75 16.5,-776.75 16.5,-756 148,-756 148,-776.75"/>
<text xml:space="preserve" text-anchor="middle" x="82.25" y="-763.25" font-family="Helvetica,sans-Serif" font-size="10.00">spdk_nvme_vs_register</text>
</a>
</g>
</g>
<!-- Node4&#45;&gt;Node2 -->
<g id="edge3_Node000002_Node000004" class="edge">
<title>Node4&#45;&gt;Node2</title>
<g id="a_edge3_Node000002_Node000004"><a xlink:title=" ">
<path fill="none" stroke="#9a32cd" stroke-dasharray="5,2" d="M159.31,-769.5C185.55,-766.7 213.23,-758.82 232.75,-740.38 281.21,-694.58 304.22,-471.68 308.94,-420.06"/>
<polygon fill="#9a32cd" stroke="#9a32cd" points="159.37,-765.98 149.68,-770.28 159.93,-772.96 159.37,-765.98"/>
</a>
</g>
<text xml:space="preserve" text-anchor="start" x="202" y="-771.77" font-family="Helvetica,sans-Serif" font-size="10.00" fill="grey">vs</text>
</g>
<!-- Node5 -->
<g id="Node000005" class="node">
<title>Node5</title>
<g id="a_Node000005"><a xlink:href="unionspdk__nvme__cc__register.html" target="_top" xlink:title=" ">
<polygon fill="white" stroke="#bfbfbf" points="147.62,-734.75 16.88,-734.75 16.88,-714 147.62,-714 147.62,-734.75"/>
<text xml:space="preserve" text-anchor="middle" x="82.25" y="-721.25" font-family="Helvetica,sans-Serif" font-size="10.00">spdk_nvme_cc_register</text>
</a>
</g>
</g>
<!-- Node5&#45;&gt;Node2 -->
<g id="edge4_Node000002_Node000005" class="edge">
<title>Node5&#45;&gt;Node2</title>
<g id="a_edge4_Node000002_Node000005"><a xlink:title=" ">
<path fill="none" stroke="#9a32cd" stroke-dasharray="5,2" d="M159.21,-720.85C190.26,-717.88 221.52,-712.42 232.75,-702.38 276.66,-663.1 302.78,-468.23 308.62,-420.12"/>
<polygon fill="#9a32cd" stroke="#9a32cd" points="158.98,-717.36 149.32,-721.7 159.58,-724.33 158.98,-717.36"/>
</a>
</g>
<text xml:space="preserve" text-anchor="start" x="202.38" y="-723.88" font-family="Helvetica,sans-Serif" font-size="10.00" fill="grey">cc</text>
</g>
<!-- Node6 -->
<g id="Node000006" class="node">
<title>Node6</title>
<g id="a_Node000006"><a xlink:href="unionspdk__nvme__csts__register.html" target="_top" xlink:title=" ">
<polygon fill="white" stroke="#bfbfbf" points="152.12,-692.75 12.38,-692.75 12.38,-672 152.12,-672 152.12,-692.75"/>
<text xml:space="preserve" text-anchor="middle" x="82.25" y="-679.25" font-family="Helvetica,sans-Serif" font-size="10.00">spdk_nvme_csts_register</text>
</a>
</g>
</g>
<!-- Node6&#45;&gt;Node2 -->
<g id="edge5_Node000002_Node000006" class="edge">
<title>Node6&#45;&gt;Node2</title>
<g id="a_edge5_Node000002_Node000006"><a xlink:title=" ">
<path fill="none" stroke="#9a32cd" stroke-dasharray="5,2" d="M163.61,-684.69C188.26,-681.56 213.84,-673.88 232.75,-657.38 306.64,-592.89 310.65,-458.97 310.18,-420.14"/>
<polygon fill="#9a32cd" stroke="#9a32cd" points="163.48,-681.19 153.89,-685.67 164.19,-688.15 163.48,-681.19"/>
</a>
</g>
<text xml:space="preserve" text-anchor="start" x="197.88" y="-686.74" font-family="Helvetica,sans-Serif" font-size="10.00" fill="grey">csts</text>
</g>
<!-- Node7 -->
<g id="Node000007" class="node">
<title>Node7</title>
<g id="a_Node000007"><a xlink:href="unionspdk__nvme__aqa__register.html" target="_top" xlink:title=" ">
<polygon fill="white" stroke="#bfbfbf" points="151.38,-650.75 13.12,-650.75 13.12,-630 151.38,-630 151.38,-650.75"/>
<text xml:space="preserve" text-anchor="middle" x="82.25" y="-637.25" font-family="Helvetica,sans-Serif" font-size="10.00">spdk_nvme_aqa_register</text>
</a>
</g>
</g>
<!-- Node7&#45;&gt;Node2 -->
<g id="edge6_Node000002_Node000007" class="edge">
<title>Node7&#45;&gt;Node2</title>
<g id="a_edge6_Node000002_Node000007"><a xlink:title=" ">
<path fill="none" stroke="#9a32cd" stroke-dasharray="5,2" d="M162.81,-639.66C187.53,-635.83 213.35,-627.67 232.75,-611.38 293.96,-559.94 306.71,-454.26 309.26,-420.2"/>
<polygon fill="#9a32cd" stroke="#9a32cd" points="162.52,-636.17 153.06,-640.94 163.43,-643.11 162.52,-636.17"/>
</a>
</g>
<text xml:space="preserve" text-anchor="start" x="198.62" y="-641.08" font-family="Helvetica,sans-Serif" font-size="10.00" fill="grey">aqa</text>
</g>
<!-- Node8 -->
<g id="Node000008" class="node">
<title>Node8</title>
<g id="a_Node000008"><a xlink:href="unionspdk__nvme__cmbloc__register.html" target="_top" xlink:title=" ">
<polygon fill="white" stroke="#bfbfbf" points="160,-608.75 4.5,-608.75 4.5,-588 160,-588 160,-608.75"/>
<text xml:space="preserve" text-anchor="middle" x="82.25" y="-595.25" font-family="Helvetica,sans-Serif" font-size="10.00">spdk_nvme_cmbloc_register</text>
</a>
</g>
</g>
<!-- Node8&#45;&gt;Node2 -->
<g id="edge7_Node000002_Node000008" class="edge">
<title>Node8&#45;&gt;Node2</title>
<g id="a_edge7_Node000002_Node000008"><a xlink:title=" ">
<path fill="none" stroke="#9a32cd" stroke-dasharray="5,2" d="M171.65,-592.25C193.32,-587.32 215.29,-579.05 232.75,-565.38 281.98,-526.81 302.02,-448.62 307.89,-420.09"/>
<polygon fill="#9a32cd" stroke="#9a32cd" points="170.95,-588.82 161.85,-594.23 172.34,-595.68 170.95,-588.82"/>
</a>
</g>
<text xml:space="preserve" text-anchor="start" x="190" y="-595.08" font-family="Helvetica,sans-Serif" font-size="10.00" fill="grey">cmbloc</text>
</g>
<!-- Node9 -->
<g id="Node000009" class="node">
<title>Node9</title>
<g id="a_Node000009"><a xlink:href="unionspdk__nvme__cmbsz__register.html" target="_top" xlink:title=" ">
<polygon fill="white" stroke="#bfbfbf" points="158.12,-566.75 6.38,-566.75 6.38,-546 158.12,-546 158.12,-566.75"/>
<text xml:space="preserve" text-anchor="middle" x="82.25" y="-553.25" font-family="Helvetica,sans-Serif" font-size="10.00">spdk_nvme_cmbsz_register</text>
</a>
</g>
</g>
<!-- Node9&#45;&gt;Node2 -->
<g id="edge8_Node000002_Node000009" class="edge">
<title>Node9&#45;&gt;Node2</title>
<g id="a_edge8_Node000002_Node000009"><a xlink:title=" ">
<path fill="none" stroke="#9a32cd" stroke-dasharray="5,2" d="M169.42,-546.74C191.41,-541.4 214.09,-533.14 232.75,-520.38 270.91,-494.28 296.01,-442.61 305.55,-420.19"/>
<polygon fill="#9a32cd" stroke="#9a32cd" points="168.83,-543.28 159.83,-548.87 170.35,-550.11 168.83,-543.28"/>
</a>
</g>
<text xml:space="preserve" text-anchor="start" x="191.88" y="-549.14" font-family="Helvetica,sans-Serif" font-size="10.00" fill="grey">cmbsz</text>
</g>
<!-- Node10 -->
<g id="Node000010" class="node">
<title>Node10</title>
<g id="a_Node000010"><a xlink:href="unionspdk__nvme__bpinfo__register.html" target="_top" xlink:title="Boot partition information.">
<polygon fill="white" stroke="#666666" points="157.75,-524.75 6.75,-524.75 6.75,-504 157.75,-504 157.75,-524.75"/>
<text xml:space="preserve" text-anchor="middle" x="82.25" y="-511.25" font-family="Helvetica,sans-Serif" font-size="10.00">spdk_nvme_bpinfo_register</text>
</a>
</g>
</g>
<!-- Node10&#45;&gt;Node2 -->
<g id="edge9_Node000002_Node000010" class="edge">
<title>Node10&#45;&gt;Node2</title>
<g id="a_edge9_Node000002_Node000010"><a xlink:title=" ">
<path fill="none" stroke="#9a32cd" stroke-dasharray="5,2" d="M169.27,-502.04C190.78,-496.89 213.26,-489.61 232.75,-479.38 261.57,-464.24 287.99,-435.78 301.14,-420.22"/>
<polygon fill="#9a32cd" stroke="#9a32cd" points="168.59,-498.61 159.61,-504.22 170.13,-505.44 168.59,-498.61"/>
</a>
</g>
<text xml:space="preserve" text-anchor="start" x="192.25" y="-503.9" font-family="Helvetica,sans-Serif" font-size="10.00" fill="grey">bpinfo</text>
</g>
<!-- Node11 -->
<g id="Node000011" class="node">
<title>Node11</title>
<g id="a_Node000011"><a xlink:href="unionspdk__nvme__bprsel__register.html" target="_top" xlink:title="Boot partition read select.">
<polygon fill="white" stroke="#666666" points="157.38,-482.75 7.12,-482.75 7.12,-462 157.38,-462 157.38,-482.75"/>
<text xml:space="preserve" text-anchor="middle" x="82.25" y="-469.25" font-family="Helvetica,sans-Serif" font-size="10.00">spdk_nvme_bprsel_register</text>
</a>
</g>
</g>
<!-- Node11&#45;&gt;Node2 -->
<g id="edge10_Node000002_Node000011" class="edge">
<title>Node11&#45;&gt;Node2</title>
<g id="a_edge10_Node000002_Node000011"><a xlink:title=" ">
<path fill="none" stroke="#9a32cd" stroke-dasharray="5,2" d="M168.76,-460.02C189.92,-455.97 212.36,-450.81 232.75,-444.38 252.8,-438.05 274.52,-427.87 289.78,-420.12"/>
<polygon fill="#9a32cd" stroke="#9a32cd" points="168.18,-456.57 158.99,-461.83 169.46,-463.46 168.18,-456.57"/>
</a>
</g>
<text xml:space="preserve" text-anchor="start" x="192.62" y="-463.15" font-family="Helvetica,sans-Serif" font-size="10.00" fill="grey">bprsel</text>
</g>
<!-- Node12 -->
<g id="Node000012" class="node">
<title>Node12</title>
<g id="a_Node000012"><a xlink:href="unionspdk__nvme__cmbmsc__register.html" target="_top" xlink:title=" ">
<polygon fill="white" stroke="#bfbfbf" points="163,-440.75 1.5,-440.75 1.5,-420 163,-420 163,-440.75"/>
<text xml:space="preserve" text-anchor="middle" x="82.25" y="-427.25" font-family="Helvetica,sans-Serif" font-size="10.00">spdk_nvme_cmbmsc_register</text>
</a>
</g>
</g>
<!-- Node12&#45;&gt;Node2 -->
<g id="edge11_Node000002_Node000012" class="edge">
<title>Node12&#45;&gt;Node2</title>
<g id="a_edge11_Node000002_Node000012"><a xlink:title=" ">
<path fill="none" stroke="#9a32cd" stroke-dasharray="5,2" d="M174.68,-421.9C200.22,-419.54 227.29,-417.03 250.45,-414.88"/>
<polygon fill="#9a32cd" stroke="#9a32cd" points="174.61,-418.39 164.98,-422.8 175.26,-425.36 174.61,-418.39"/>
</a>
</g>
<text xml:space="preserve" text-anchor="start" x="187" y="-427.38" font-family="Helvetica,sans-Serif" font-size="10.00" fill="grey">cmbmsc</text>
</g>
<!-- Node13 -->
<g id="Node000013" class="node">
<title>Node13</title>
<g id="a_Node000013"><a xlink:href="unionspdk__nvme__cmbsts__register.html" target="_top" xlink:title=" ">
<polygon fill="white" stroke="#bfbfbf" points="160,-398.75 4.5,-398.75 4.5,-378 160,-378 160,-398.75"/>
<text xml:space="preserve" text-anchor="middle" x="82.25" y="-385.25" font-family="Helvetica,sans-Serif" font-size="10.00">spdk_nvme_cmbsts_register</text>
</a>
</g>
</g>
<!-- Node13&#45;&gt;Node2 -->
<g id="edge12_Node000002_Node000013" class="edge">
<title>Node13&#45;&gt;Node2</title>
<g id="a_edge12_Node000002_Node000013"><a xlink:title=" ">
<path fill="none" stroke="#9a32cd" stroke-dasharray="5,2" d="M171.64,-389.04C191.77,-389.87 213.04,-391.28 232.75,-393.62 242.66,-394.8 253.18,-396.59 263.17,-398.54"/>
<polygon fill="#9a32cd" stroke="#9a32cd" points="171.89,-385.55 161.77,-388.69 171.64,-392.55 171.89,-385.55"/>
</a>
</g>
<text xml:space="preserve" text-anchor="start" x="190" y="-399.88" font-family="Helvetica,sans-Serif" font-size="10.00" fill="grey">cmbsts</text>
</g>
<!-- Node14 -->
<g id="Node000014" class="node">
<title>Node14</title>
<g id="a_Node000014"><a xlink:href="unionspdk__nvme__cmbebs__register.html" target="_top" xlink:title=" ">
<polygon fill="white" stroke="#bfbfbf" points="161.5,-356.75 3,-356.75 3,-336 161.5,-336 161.5,-356.75"/>
<text xml:space="preserve" text-anchor="middle" x="82.25" y="-343.25" font-family="Helvetica,sans-Serif" font-size="10.00">spdk_nvme_cmbebs_register</text>
</a>
</g>
</g>
<!-- Node14&#45;&gt;Node2 -->
<g id="edge13_Node000002_Node000014" class="edge">
<title>Node14&#45;&gt;Node2</title>
<g id="a_edge13_Node000002_Node000014"><a xlink:title=" ">
<path fill="none" stroke="#9a32cd" stroke-dasharray="5,2" d="M173.02,-353.03C193,-356.02 213.86,-360.36 232.75,-366.62 255.56,-374.19 279.4,-388.56 294.43,-398.54"/>
<polygon fill="#9a32cd" stroke="#9a32cd" points="173.59,-349.58 163.2,-351.67 172.62,-356.51 173.59,-349.58"/>
</a>
</g>
<text xml:space="preserve" text-anchor="start" x="188.5" y="-372.88" font-family="Helvetica,sans-Serif" font-size="10.00" fill="grey">cmbebs</text>
</g>
<!-- Node15 -->
<g id="Node000015" class="node">
<title>Node15</title>
<g id="a_Node000015"><a xlink:href="unionspdk__nvme__cmbswtp__register.html" target="_top" xlink:title=" ">
<polygon fill="white" stroke="#bfbfbf" points="164.5,-314.75 0,-314.75 0,-294 164.5,-294 164.5,-314.75"/>
<text xml:space="preserve" text-anchor="middle" x="82.25" y="-301.25" font-family="Helvetica,sans-Serif" font-size="10.00">spdk_nvme_cmbswtp_register</text>
</a>
</g>
</g>
<!-- Node15&#45;&gt;Node2 -->
<g id="edge14_Node000002_Node000015" class="edge">
<title>Node15&#45;&gt;Node2</title>
<g id="a_edge14_Node000002_Node000015"><a xlink:title=" ">
<path fill="none" stroke="#9a32cd" stroke-dasharray="5,2" d="M176.02,-313.04C195.49,-317.26 215.38,-323.47 232.75,-332.62 263.67,-348.91 290.18,-381.74 302.5,-398.7"/>
<polygon fill="#9a32cd" stroke="#9a32cd" points="176.92,-309.65 166.42,-311.13 175.55,-316.51 176.92,-309.65"/>
</a>
</g>
<text xml:space="preserve" text-anchor="start" x="185.5" y="-338.88" font-family="Helvetica,sans-Serif" font-size="10.00" fill="grey">cmbswtp</text>
</g>
<!-- Node16 -->
<g id="Node000016" class="node">
<title>Node16</title>
<g id="a_Node000016"><a xlink:href="unionspdk__nvme__crto__register.html" target="_top" xlink:title=" ">
<polygon fill="white" stroke="#bfbfbf" points="151.75,-272.75 12.75,-272.75 12.75,-252 151.75,-252 151.75,-272.75"/>
<text xml:space="preserve" text-anchor="middle" x="82.25" y="-259.25" font-family="Helvetica,sans-Serif" font-size="10.00">spdk_nvme_crto_register</text>
</a>
</g>
</g>
<!-- Node16&#45;&gt;Node2 -->
<g id="edge15_Node000002_Node000016" class="edge">
<title>Node16&#45;&gt;Node2</title>
<g id="a_edge15_Node000002_Node000016"><a xlink:title=" ">
<path fill="none" stroke="#9a32cd" stroke-dasharray="5,2" d="M163.21,-266.83C187.13,-271.13 212.38,-278.88 232.75,-292.62 272.83,-319.65 297.2,-375.21 306.07,-398.61"/>
<polygon fill="#9a32cd" stroke="#9a32cd" points="163.9,-263.39 153.47,-265.27 162.8,-270.31 163.9,-263.39"/>
</a>
</g>
<text xml:space="preserve" text-anchor="start" x="198.25" y="-298.88" font-family="Helvetica,sans-Serif" font-size="10.00" fill="grey">crto</text>
</g>
<!-- Node17 -->
<g id="Node000017" class="node">
<title>Node17</title>
<g id="a_Node000017"><a xlink:href="unionspdk__nvme__pmrcap__register.html" target="_top" xlink:title=" ">
<polygon fill="white" stroke="#bfbfbf" points="160.75,-230.75 3.75,-230.75 3.75,-210 160.75,-210 160.75,-230.75"/>
<text xml:space="preserve" text-anchor="middle" x="82.25" y="-217.25" font-family="Helvetica,sans-Serif" font-size="10.00">spdk_nvme_pmrcap_register</text>
</a>
</g>
</g>
<!-- Node17&#45;&gt;Node2 -->
<g id="edge16_Node000002_Node000017" class="edge">
<title>Node17&#45;&gt;Node2</title>
<g id="a_edge16_Node000002_Node000017"><a xlink:title=" ">
<path fill="none" stroke="#9a32cd" stroke-dasharray="5,2" d="M172.29,-223.4C193.75,-227.68 215.45,-235.33 232.75,-248.62 283.81,-287.85 302.81,-369.45 308.14,-398.68"/>
<polygon fill="#9a32cd" stroke="#9a32cd" points="173.05,-219.98 162.6,-221.72 171.86,-226.88 173.05,-219.98"/>
</a>
</g>
<text xml:space="preserve" text-anchor="start" x="189.25" y="-254.88" font-family="Helvetica,sans-Serif" font-size="10.00" fill="grey">pmrcap</text>
</g>
<!-- Node18 -->
<g id="Node000018" class="node">
<title>Node18</title>
<g id="a_Node000018"><a xlink:href="unionspdk__nvme__pmrctl__register.html" target="_top" xlink:title=" ">
<polygon fill="white" stroke="#bfbfbf" points="158.12,-188.75 6.38,-188.75 6.38,-168 158.12,-168 158.12,-188.75"/>
<text xml:space="preserve" text-anchor="middle" x="82.25" y="-175.25" font-family="Helvetica,sans-Serif" font-size="10.00">spdk_nvme_pmrctl_register</text>
</a>
</g>
</g>
<!-- Node18&#45;&gt;Node2 -->
<g id="edge17_Node000002_Node000018" class="edge">
<title>Node18&#45;&gt;Node2</title>
<g id="a_edge17_Node000002_Node000018"><a xlink:title=" ">
<path fill="none" stroke="#9a32cd" stroke-dasharray="5,2" d="M169.72,-177.83C192.25,-181.5 215.12,-189.08 232.75,-203.62 295.72,-255.57 307.31,-364.45 309.41,-398.77"/>
<polygon fill="#9a32cd" stroke="#9a32cd" points="170.24,-174.37 159.86,-176.49 169.3,-181.3 170.24,-174.37"/>
</a>
</g>
<text xml:space="preserve" text-anchor="start" x="191.88" y="-209.88" font-family="Helvetica,sans-Serif" font-size="10.00" fill="grey">pmrctl</text>
</g>
<!-- Node19 -->
<g id="Node000019" class="node">
<title>Node19</title>
<g id="a_Node000019"><a xlink:href="unionspdk__nvme__pmrsts__register.html" target="_top" xlink:title=" ">
<polygon fill="white" stroke="#bfbfbf" points="159.25,-146.75 5.25,-146.75 5.25,-126 159.25,-126 159.25,-146.75"/>
<text xml:space="preserve" text-anchor="middle" x="82.25" y="-133.25" font-family="Helvetica,sans-Serif" font-size="10.00">spdk_nvme_pmrsts_register</text>
</a>
</g>
</g>
<!-- Node19&#45;&gt;Node2 -->
<g id="edge18_Node000002_Node000019" class="edge">
<title>Node19&#45;&gt;Node2</title>
<g id="a_edge18_Node000002_Node000019"><a xlink:title=" ">
<path fill="none" stroke="#9a32cd" stroke-dasharray="5,2" d="M170.85,-133.32C193.16,-136.58 215.64,-143.92 232.75,-158.62 308.04,-223.35 311.03,-359.67 310.26,-398.72"/>
<polygon fill="#9a32cd" stroke="#9a32cd" points="171.43,-129.86 161.09,-132.18 170.61,-136.82 171.43,-129.86"/>
</a>
</g>
<text xml:space="preserve" text-anchor="start" x="190.75" y="-164.88" font-family="Helvetica,sans-Serif" font-size="10.00" fill="grey">pmrsts</text>
</g>
<!-- Node20 -->
<g id="Node000020" class="node">
<title>Node20</title>
<g id="a_Node000020"><a xlink:href="unionspdk__nvme__pmrebs__register.html" target="_top" xlink:title=" ">
<polygon fill="white" stroke="#bfbfbf" points="160.75,-104.75 3.75,-104.75 3.75,-84 160.75,-84 160.75,-104.75"/>
<text xml:space="preserve" text-anchor="middle" x="82.25" y="-91.25" font-family="Helvetica,sans-Serif" font-size="10.00">spdk_nvme_pmrebs_register</text>
</a>
</g>
</g>
<!-- Node20&#45;&gt;Node2 -->
<g id="edge19_Node000002_Node000020" class="edge">
<title>Node20&#45;&gt;Node2</title>
<g id="a_edge19_Node000002_Node000020"><a xlink:title=" ">
<path fill="none" stroke="#9a32cd" stroke-dasharray="5,2" d="M172.44,-89.06C194.33,-91.98 216.19,-99.05 232.75,-113.62 277.36,-152.9 302.95,-349.88 308.65,-398.51"/>
<polygon fill="#9a32cd" stroke="#9a32cd" points="172.84,-85.59 162.53,-88.05 172.13,-92.55 172.84,-85.59"/>
</a>
</g>
<text xml:space="preserve" text-anchor="start" x="189.25" y="-119.88" font-family="Helvetica,sans-Serif" font-size="10.00" fill="grey">pmrebs</text>
</g>
<!-- Node21 -->
<g id="Node000021" class="node">
<title>Node21</title>
<g id="a_Node000021"><a xlink:href="unionspdk__nvme__pmrswtp__register.html" target="_top" xlink:title=" ">
<polygon fill="white" stroke="#bfbfbf" points="163.75,-62.75 0.75,-62.75 0.75,-42 163.75,-42 163.75,-62.75"/>
<text xml:space="preserve" text-anchor="middle" x="82.25" y="-49.25" font-family="Helvetica,sans-Serif" font-size="10.00">spdk_nvme_pmrswtp_register</text>
</a>
</g>
</g>
<!-- Node21&#45;&gt;Node2 -->
<g id="edge20_Node000002_Node000021" class="edge">
<title>Node21&#45;&gt;Node2</title>
<g id="a_edge20_Node000002_Node000021"><a xlink:title=" ">
<path fill="none" stroke="#9a32cd" stroke-dasharray="5,2" d="M175.23,-45.05C196.23,-47.76 216.98,-54.56 232.75,-68.62 284.02,-114.34 304.94,-345.9 309.08,-398.66"/>
<polygon fill="#9a32cd" stroke="#9a32cd" points="175.71,-41.58 165.42,-44.1 175.04,-48.55 175.71,-41.58"/>
</a>
</g>
<text xml:space="preserve" text-anchor="start" x="186.25" y="-74.88" font-family="Helvetica,sans-Serif" font-size="10.00" fill="grey">pmrswtp</text>
</g>
<!-- Node22 -->
<g id="Node000022" class="node">
<title>Node22</title>
<g id="a_Node000022"><a xlink:href="unionspdk__nvme__pmrmscl__register.html" target="_top" xlink:title=" ">
<polygon fill="white" stroke="#bfbfbf" points="163.75,-20.75 0.75,-20.75 0.75,0 163.75,0 163.75,-20.75"/>
<text xml:space="preserve" text-anchor="middle" x="82.25" y="-7.25" font-family="Helvetica,sans-Serif" font-size="10.00">spdk_nvme_pmrmscl_register</text>
</a>
</g>
</g>
<!-- Node22&#45;&gt;Node2 -->
<g id="edge21_Node000002_Node000022" class="edge">
<title>Node22&#45;&gt;Node2</title>
<g id="a_edge21_Node000002_Node000022"><a xlink:title=" ">
<path fill="none" stroke="#9a32cd" stroke-dasharray="5,2" d="M175.38,-1.42C196.37,-3.87 217.08,-10.49 232.75,-24.62 290.54,-76.76 306.61,-342.35 309.4,-398.81"/>
<polygon fill="#9a32cd" stroke="#9a32cd" points="175.82,2.05 165.56,-0.61 175.24,-4.92 175.82,2.05"/>
</a>
</g>
<text xml:space="preserve" text-anchor="start" x="186.25" y="-30.88" font-family="Helvetica,sans-Serif" font-size="10.00" fill="grey">pmrmscl</text>
</g>
</g>
</svg>

<g id="navigator" transform="translate(0 0)" fill="#404254">
  <rect fill="#f2f5e9" fill-opacity="0.5" stroke="#606060" stroke-width=".5" x="0" y="0" width="60" height="60"/>
  <use id="zoomplus" xlink:href="#zoomPlus" x="17" y="9" onmousedown="handleZoom(evt,'in')"/>
  <use id="zoomminus" xlink:href="#zoomMin" x="42" y="9" onmousedown="handleZoom(evt,'out')"/>
  <use id="reset" xlink:href="#resetDef" x="30" y="36" onmousedown="handleReset()"/>
   <use id="arrowup" xlink:href="#arrowUp" x="0" y="0" onmousedown="handlePan(0,-1)"/>
  <use id="arrowright" xlink:href="#arrowRight" x="0" y="0" onmousedown="handlePan(1,0)"/>
  <use id="arrowdown" xlink:href="#arrowDown" x="0" y="0" onmousedown="handlePan(0,1)"/>
  <use id="arrowleft" xlink:href="#arrowLeft" x="0" y="0" onmousedown="handlePan(-1,0)"/>
</g>
<svg viewBox="0 0 15 15" width="100%" height="30px" preserveAspectRatio="xMaxYMin meet">
 <g id="arrow_out" transform="scale(0.3 0.3)">
  <a xlink:href="structspdk__nvme__transport__ops__coll__graph_org.svg" target="_base">
   <rect id="button" ry="5" rx="5" y="6" x="6" height="38" width="38"
        fill="#f2f5e9" fill-opacity="0.5" stroke="#606060" stroke-width="1.0"/>
   <path id="arrow"
     d="M 11.500037,31.436501 C 11.940474,20.09759 22.043105,11.32322 32.158766,21.979434 L 37.068811,17.246167 C 37.068811,17.246167 37.088388,32 37.088388,32 L 22.160133,31.978069 C 22.160133,31.978069 26.997745,27.140456 26.997745,27.140456 C 18.528582,18.264221 13.291696,25.230495 11.500037,31.436501 z"
     style="fill:#404040;"/>
  </a>
 </g>
</svg>

<style type='text/css'>
<![CDATA[
[data-mouse-over-selected='false'] { opacity: 0.7; }
[data-mouse-over-selected='true']  { opacity: 1.0; }
]]>
</style>
<script type="application/ecmascript"><![CDATA[
document.addEventListener('DOMContentLoaded', (event) => {
  highlightEdges();
  highlightAdjacentNodes();
});
]]></script>
</svg>
