<?xml version="1.0" encoding="UTF-8" standalone="no"?>
<!DOCTYPE svg PUBLIC "-//W3C//DTD SVG 1.1//EN"
 "http://www.w3.org/Graphics/SVG/1.1/DTD/svg11.dtd">
<!-- Generated by graphviz version 13.1.2 (20250808.2320)
 -->
<!-- Title: spdk_bdev_io Pages: 1 -->
<!--zoomable 387 -->

<svg id="main" version="1.1" xmlns="http://www.w3.org/2000/svg" xmlns:xlink="http://www.w3.org/1999/xlink" xml:space="preserve" onload="init(evt)">

<style type="text/css"><![CDATA[
.node, .edge {opacity: 0.7;}
.node.selected, .edge.selected {opacity: 1;}
.edge:hover path { stroke: red; }
.edge:hover polygon { stroke: red; fill: red; }
]]></style>

<defs>
  <circle id="rim" cx="0" cy="0" r="7"/>
  <circle id="rim2" cx="0" cy="0" r="3.5"/>
  <g id="zoomPlus">
    <use xlink:href="#rim" fill="#404040"><set attributeName="fill" to="#808080" begin="zoomplus.mouseover" end="zoomplus.mouseout"/></use>
    <path d="M-4,0h8M0,-4v8" fill="none" stroke="white" stroke-width="1.5" pointer-events="none"/>
  </g>
  <g id="zoomMin">
    <use xlink:href="#rim" fill="#404040"><set attributeName="fill" to="#808080" begin="zoomminus.mouseover" end="zoomminus.mouseout"/></use>
    <path d="M-4,0h8" fill="none" stroke="white" stroke-width="1.5" pointer-events="none"/>
  </g>
  <g id="arrowUp" transform="translate(30 24)">
    <use xlink:href="#rim"/>
    <path pointer-events="none" fill="none" stroke="white" stroke-width="1.5" d="M0,-3.0v7 M-2.5,-0.5L0,-3.0L2.5,-0.5"/>
  </g>
  <g id="arrowRight" transform="rotate(90) translate(36 -43)">
    <use xlink:href="#rim"/>
    <path pointer-events="none" fill="none" stroke="white" stroke-width="1.5" d="M0,-3.0v7 M-2.5,-0.5L0,-3.0L2.5,-0.5"/>
  </g>
  <g id="arrowDown" transform="rotate(180) translate(-30 -48)">
    <use xlink:href="#rim"/>
    <path pointer-events="none" fill="none" stroke="white" stroke-width="1.5" d="M0,-3.0v7 M-2.5,-0.5L0,-3.0L2.5,-0.5"/>
  </g>
  <g id="arrowLeft" transform="rotate(270) translate(-36 17)">
    <use xlink:href="#rim"/>
    <path pointer-events="none" fill="none" stroke="white" stroke-width="1.5" d="M0,-3.0v7 M-2.5,-0.5L0,-3.0L2.5,-0.5"/>
  </g>
  <g id="resetDef">
    <use xlink:href="#rim2" fill="#404040"><set attributeName="fill" to="#808080" begin="reset.mouseover" end="reset.mouseout"/></use>
  </g>
</defs>
<script type="application/ecmascript">
var viewWidth = 1487;
var viewHeight = 387;
var sectionId = 'dynsection-0';
</script>
<script type="application/ecmascript" xlink:href="svg.min.js"/>
<svg id="graph" class="graph">
<g id="viewport">
<title>spdk_bdev_io</title>
<!-- Node1 -->
<g id="Node000001" class="node">
<title>Node1</title>
<g id="a_Node000001"><a xlink:title=" ">
<polygon fill="#999999" stroke="#666666" points="607.5,-148.88 524.75,-148.88 524.75,-128.13 607.5,-128.13 607.5,-148.88"/>
<text xml:space="preserve" text-anchor="middle" x="566.12" y="-135.38" font-family="Helvetica,sans-Serif" font-size="10.00">spdk_bdev_io</text>
</a>
</g>
</g>
<!-- Node9 -->
<g id="Node000009" class="node">
<title>Node9</title>
<g id="a_Node000009"><a xlink:href="structspdk__bdev_1_1____bdev__internal__fields.html" target="_top" xlink:title="Fields that are used internally by the bdev subsystem.">
<polygon fill="#fff0f0" stroke="red" points="886.75,-378.26 735.75,-378.26 735.75,-344.76 886.75,-344.76 886.75,-378.26"/>
<text xml:space="preserve" text-anchor="start" x="743.75" y="-364.76" font-family="Helvetica,sans-Serif" font-size="10.00">spdk_bdev::__bdev_internal</text>
<text xml:space="preserve" text-anchor="middle" x="811.25" y="-352.01" font-family="Helvetica,sans-Serif" font-size="10.00">_fields</text>
</a>
</g>
</g>
<!-- Node1&#45;&gt;Node9 -->
<g id="edge7_Node000009_Node000001" class="edge">
<title>Node1&#45;&gt;Node9</title>
<g id="a_edge7_Node000009_Node000001"><a xlink:title=" ">
<path fill="none" stroke="#9a32cd" stroke-dasharray="5,2" d="M567.43,-160.49C569.21,-199.09 578.71,-278.99 625.5,-321.51 655.01,-348.32 698.12,-358.7 735.28,-362.19"/>
<polygon fill="#9a32cd" stroke="#9a32cd" points="570.93,-160.5 567.12,-150.61 563.93,-160.71 570.93,-160.5"/>
</a>
</g>
<text xml:space="preserve" text-anchor="start" x="628.5" y="-366.25" font-family="Helvetica,sans-Serif" font-size="10.00" fill="grey">reset_in_progress</text>
</g>
<!-- Node21 -->
<g id="Node000021" class="node">
<title>Node21</title>
<g id="a_Node000021"><a xlink:href="structspdk__bdev__io__abort__params.html" target="_top" xlink:title=" ">
<polygon fill="white" stroke="#bfbfbf" points="868,-155.26 754.5,-155.26 754.5,-121.76 868,-121.76 868,-155.26"/>
<text xml:space="preserve" text-anchor="start" x="762.5" y="-141.76" font-family="Helvetica,sans-Serif" font-size="10.00">spdk_bdev_io_abort</text>
<text xml:space="preserve" text-anchor="middle" x="811.25" y="-129.01" font-family="Helvetica,sans-Serif" font-size="10.00">_params</text>
</a>
</g>
</g>
<!-- Node1&#45;&gt;Node21 -->
<g id="edge15_Node000021_Node000001" class="edge">
<title>Node1&#45;&gt;Node21</title>
<g id="a_edge15_Node000021_Node000001"><a xlink:title=" ">
<path fill="none" stroke="#9a32cd" stroke-dasharray="5,2" d="M599.42,-123.47C607.74,-120.29 616.8,-117.39 625.5,-115.76 665.79,-108.18 677.05,-110.83 717.75,-115.76 729.73,-117.21 742.41,-119.68 754.4,-122.48"/>
<polygon fill="#9a32cd" stroke="#9a32cd" points="598.32,-120.14 590.4,-127.17 600.98,-126.61 598.32,-120.14"/>
</a>
</g>
<text xml:space="preserve" text-anchor="start" x="641.25" y="-122.01" font-family="Helvetica,sans-Serif" font-size="10.00" fill="grey">bio_to_abort</text>
</g>
<!-- Node50 -->
<g id="Node000050" class="node">
<title>Node50</title>
<g id="a_Node000050"><a xlink:href="structspdk__bdev__io__internal__fields.html" target="_top" xlink:title="Fields that are used internally by the bdev subsystem.">
<polygon fill="white" stroke="#666666" points="1479,-88.26 1353.5,-88.26 1353.5,-54.76 1479,-54.76 1479,-88.26"/>
<text xml:space="preserve" text-anchor="start" x="1361.5" y="-74.76" font-family="Helvetica,sans-Serif" font-size="10.00">spdk_bdev_io_internal</text>
<text xml:space="preserve" text-anchor="middle" x="1416.25" y="-62.01" font-family="Helvetica,sans-Serif" font-size="10.00">_fields</text>
</a>
</g>
</g>
<!-- Node1&#45;&gt;Node50 -->
<g id="edge20_Node000050_Node000001" class="edge">
<title>Node1&#45;&gt;Node50</title>
<g id="a_edge20_Node000050_Node000001"><a xlink:title=" ">
<path fill="none" stroke="#9a32cd" stroke-dasharray="5,2" d="M595.31,-122.08C639.54,-97.88 728.67,-55.51 810.25,-55.51 810.25,-55.51 810.25,-55.51 1184.88,-55.51 1242.01,-55.51 1306.92,-60.47 1353.24,-64.86"/>
<polygon fill="#9a32cd" stroke="#9a32cd" points="593.66,-118.99 586.63,-126.92 597.07,-125.1 593.66,-118.99"/>
</a>
</g>
<text xml:space="preserve" text-anchor="start" x="971.5" y="-95.26" font-family="Helvetica,sans-Serif" font-size="10.00" fill="grey">cb</text>
<text xml:space="preserve" text-anchor="start" x="971.5" y="-78.51" font-family="Helvetica,sans-Serif" font-size="10.00" fill="grey">get_buf_cb</text>
<text xml:space="preserve" text-anchor="start" x="971.5" y="-61.76" font-family="Helvetica,sans-Serif" font-size="10.00" fill="grey">stored_user_cb</text>
</g>
<!-- Node2 -->
<g id="Node000002" class="node">
<title>Node2</title>
<g id="a_Node000002"><a xlink:href="structspdk__bdev.html" target="_top" xlink:title=" ">
<polygon fill="white" stroke="#bfbfbf" points="1042.5,-232.88 974,-232.88 974,-212.13 1042.5,-212.13 1042.5,-232.88"/>
<text xml:space="preserve" text-anchor="middle" x="1008.25" y="-219.38" font-family="Helvetica,sans-Serif" font-size="10.00">spdk_bdev</text>
</a>
</g>
</g>
<!-- Node2&#45;&gt;Node1 -->
<g id="edge1_Node000001_Node000002" class="edge">
<title>Node2&#45;&gt;Node1</title>
<g id="a_edge1_Node000001_Node000002"><a xlink:title=" ">
<path fill="none" stroke="#9a32cd" stroke-dasharray="5,2" d="M992.05,-241.69C981.68,-253.31 966.88,-267.23 950.5,-274.51 863.23,-313.25 825.44,-313.24 735.75,-280.51 661.33,-253.35 597.01,-177.27 575.11,-149.14"/>
<polygon fill="#9a32cd" stroke="#9a32cd" points="994.6,-244.1 998.39,-234.2 989.26,-239.58 994.6,-244.1"/>
</a>
</g>
<text xml:space="preserve" text-anchor="start" x="799.25" y="-310.61" font-family="Helvetica,sans-Serif" font-size="10.00" fill="grey">bdev</text>
</g>
<!-- Node52 -->
<g id="Node000052" class="node">
<title>Node52</title>
<g id="a_Node000052"><a xlink:href="structspdk__bdev__io__wait__entry.html" target="_top" xlink:title="Structure to register a callback when an spdk_bdev_io becomes available.">
<polygon fill="white" stroke="#666666" points="1253.75,-103.88 1114,-103.88 1114,-83.13 1253.75,-83.13 1253.75,-103.88"/>
<text xml:space="preserve" text-anchor="middle" x="1183.88" y="-90.38" font-family="Helvetica,sans-Serif" font-size="10.00">spdk_bdev_io_wait_entry</text>
</a>
</g>
</g>
<!-- Node2&#45;&gt;Node52 -->
<g id="edge24_Node000052_Node000002" class="edge">
<title>Node2&#45;&gt;Node52</title>
<g id="a_edge24_Node000052_Node000002"><a xlink:title=" ">
<path fill="none" stroke="#9a32cd" stroke-dasharray="5,2" d="M1023.12,-202.66C1041.26,-178.17 1075.31,-136.91 1114,-113.51 1120.07,-109.83 1126.86,-106.81 1133.73,-104.32"/>
<polygon fill="#9a32cd" stroke="#9a32cd" points="1020.47,-200.36 1017.45,-210.51 1026.14,-204.46 1020.47,-200.36"/>
</a>
</g>
<text xml:space="preserve" text-anchor="start" x="1069" y="-158.64" font-family="Helvetica,sans-Serif" font-size="10.00" fill="grey">bdev</text>
</g>
<!-- Node3 -->
<g id="Node000003" class="node">
<title>Node3</title>
<g id="a_Node000003"><a xlink:href="structspdk__uuid.html" target="_top" xlink:title=" ">
<polygon fill="white" stroke="#bfbfbf" points="844,-271.88 778.5,-271.88 778.5,-251.13 844,-251.13 844,-271.88"/>
<text xml:space="preserve" text-anchor="middle" x="811.25" y="-258.38" font-family="Helvetica,sans-Serif" font-size="10.00">spdk_uuid</text>
</a>
</g>
</g>
<!-- Node3&#45;&gt;Node2 -->
<g id="edge2_Node000002_Node000003" class="edge">
<title>Node3&#45;&gt;Node2</title>
<g id="a_edge2_Node000002_Node000003"><a xlink:title=" ">
<path fill="none" stroke="#9a32cd" stroke-dasharray="5,2" d="M855.64,-257.82C883.09,-254.93 919.18,-250.1 950.5,-242.51 960.35,-240.12 970.88,-236.67 980.17,-233.31"/>
<polygon fill="#9a32cd" stroke="#9a32cd" points="855.55,-254.31 845.95,-258.79 856.25,-261.28 855.55,-254.31"/>
</a>
</g>
<text xml:space="preserve" text-anchor="start" x="917.12" y="-257.59" font-family="Helvetica,sans-Serif" font-size="10.00" fill="grey">uuid</text>
</g>
<!-- Node4 -->
<g id="Node000004" class="node">
<title>Node4</title>
<g id="a_Node000004"><a xlink:href="unionspdk__bdev__nvme__ctratt.html" target="_top" xlink:title="Controller attributes indicating optional bdev capabilities (e.g.">
<polygon fill="white" stroke="#666666" points="877.75,-232.88 744.75,-232.88 744.75,-212.13 877.75,-212.13 877.75,-232.88"/>
<text xml:space="preserve" text-anchor="middle" x="811.25" y="-219.38" font-family="Helvetica,sans-Serif" font-size="10.00">spdk_bdev_nvme_ctratt</text>
</a>
</g>
</g>
<!-- Node4&#45;&gt;Node2 -->
<g id="edge3_Node000002_Node000004" class="edge">
<title>Node4&#45;&gt;Node2</title>
<g id="a_edge3_Node000002_Node000004"><a xlink:title=" ">
<path fill="none" stroke="#9a32cd" stroke-dasharray="5,2" d="M889.45,-222.51C918.63,-222.51 950.34,-222.51 973.51,-222.51"/>
<polygon fill="#9a32cd" stroke="#9a32cd" points="889.51,-219.01 879.51,-222.51 889.51,-226.01 889.51,-219.01"/>
</a>
</g>
<text xml:space="preserve" text-anchor="start" x="914.5" y="-228.76" font-family="Helvetica,sans-Serif" font-size="10.00" fill="grey">ctratt</text>
</g>
<!-- Node5 -->
<g id="Node000005" class="node">
<title>Node5</title>
<g id="a_Node000005"><a xlink:href="structspdk__bdev__module.html" target="_top" xlink:title="Block device module.">
<polygon fill="#fff0f0" stroke="red" points="866.5,-193.88 756,-193.88 756,-173.13 866.5,-173.13 866.5,-193.88"/>
<text xml:space="preserve" text-anchor="middle" x="811.25" y="-180.38" font-family="Helvetica,sans-Serif" font-size="10.00">spdk_bdev_module</text>
</a>
</g>
</g>
<!-- Node5&#45;&gt;Node2 -->
<g id="edge4_Node000002_Node000005" class="edge">
<title>Node5&#45;&gt;Node2</title>
<g id="a_edge4_Node000002_Node000005"><a xlink:title=" ">
<path fill="none" stroke="#9a32cd" stroke-dasharray="5,2" d="M878.14,-187.67C901.26,-190.07 927.26,-193.84 950.5,-199.76 961.92,-202.66 974.1,-207.33 984.25,-211.68"/>
<polygon fill="#9a32cd" stroke="#9a32cd" points="878.49,-184.19 868.2,-186.72 877.82,-191.16 878.49,-184.19"/>
</a>
</g>
<text xml:space="preserve" text-anchor="start" x="909.25" y="-206.01" font-family="Helvetica,sans-Serif" font-size="10.00" fill="grey">module</text>
</g>
<!-- Node8 -->
<g id="Node000008" class="node">
<title>Node8</title>
<g id="a_Node000008"><a xlink:href="structspdk__bdev__fn__table.html" target="_top" xlink:title="Function table for a block device backend.">
<polygon fill="white" stroke="#666666" points="868,-103.88 754.5,-103.88 754.5,-83.13 868,-83.13 868,-103.88"/>
<text xml:space="preserve" text-anchor="middle" x="811.25" y="-90.38" font-family="Helvetica,sans-Serif" font-size="10.00">spdk_bdev_fn_table</text>
</a>
</g>
</g>
<!-- Node8&#45;&gt;Node2 -->
<g id="edge5_Node000002_Node000008" class="edge">
<title>Node8&#45;&gt;Node2</title>
<g id="a_edge5_Node000002_Node000008"><a xlink:title=" ">
<path fill="none" stroke="#9a32cd" stroke-dasharray="5,2" d="M877.79,-108.29C880.87,-109.58 883.87,-110.99 886.75,-112.51 936.08,-138.59 980.85,-189.67 998.86,-211.83"/>
<polygon fill="#9a32cd" stroke="#9a32cd" points="879.1,-105.04 868.51,-104.82 876.65,-111.6 879.1,-105.04"/>
</a>
</g>
<text xml:space="preserve" text-anchor="start" x="907.75" y="-163.32" font-family="Helvetica,sans-Serif" font-size="10.00" fill="grey">fn_table</text>
</g>
<!-- Node9&#45;&gt;Node2 -->
<g id="edge6_Node000002_Node000009" class="edge">
<title>Node9&#45;&gt;Node2</title>
<g id="a_edge6_Node000002_Node000009"><a xlink:title=" ">
<path fill="none" stroke="#9a32cd" stroke-dasharray="5,2" d="M898.08,-347.7C916.68,-341.82 935.31,-333.44 950.5,-321.51 980.57,-297.89 997.55,-253.61 1004.09,-233.25"/>
<polygon fill="#9a32cd" stroke="#9a32cd" points="897.23,-344.3 888.61,-350.45 899.19,-351.02 897.23,-344.3"/>
</a>
</g>
<text xml:space="preserve" text-anchor="start" x="908.88" y="-351.34" font-family="Helvetica,sans-Serif" font-size="10.00" fill="grey">internal</text>
</g>
<!-- Node15 -->
<g id="Node000015" class="node">
<title>Node15</title>
<g id="a_Node000015"><a xlink:href="structspdk__bdev__io__block__params.html" target="_top" xlink:title=" ">
<polygon fill="white" stroke="#bfbfbf" points="383.38,-233.26 269.12,-233.26 269.12,-199.76 383.38,-199.76 383.38,-233.26"/>
<text xml:space="preserve" text-anchor="start" x="277.12" y="-219.76" font-family="Helvetica,sans-Serif" font-size="10.00">spdk_bdev_io_block</text>
<text xml:space="preserve" text-anchor="middle" x="326.25" y="-207.01" font-family="Helvetica,sans-Serif" font-size="10.00">_params</text>
</a>
</g>
</g>
<!-- Node15&#45;&gt;Node1 -->
<g id="edge8_Node000001_Node000015" class="edge">
<title>Node15&#45;&gt;Node1</title>
<g id="a_edge8_Node000001_Node000015"><a xlink:title=" ">
<path fill="none" stroke="#9a32cd" stroke-dasharray="5,2" d="M394.64,-206.72C429.05,-200.34 471.07,-190.37 506.75,-175.51 523.14,-168.68 540.09,-157.38 551.48,-149.06"/>
<polygon fill="#9a32cd" stroke="#9a32cd" points="394.47,-203.2 385.24,-208.41 395.7,-210.09 394.47,-203.2"/>
</a>
</g>
<text xml:space="preserve" text-anchor="start" x="454.25" y="-205.64" font-family="Helvetica,sans-Serif" font-size="10.00" fill="grey">bdev</text>
</g>
<!-- Node16 -->
<g id="Node000016" class="node">
<title>Node16</title>
<g id="a_Node000016"><a xlink:href="unionspdk__bdev__nvme__cdw12.html" target="_top" xlink:title="Union for command dword 12, which by convention matches the NVMe command dword 12 definition.">
<polygon fill="white" stroke="#666666" points="138.25,-258.88 0,-258.88 0,-238.13 138.25,-238.13 138.25,-258.88"/>
<text xml:space="preserve" text-anchor="middle" x="69.12" y="-245.38" font-family="Helvetica,sans-Serif" font-size="10.00">spdk_bdev_nvme_cdw12</text>
</a>
</g>
</g>
<!-- Node16&#45;&gt;Node15 -->
<g id="edge9_Node000015_Node000016" class="edge">
<title>Node16&#45;&gt;Node15</title>
<g id="a_edge9_Node000015_Node000016"><a xlink:title=" ">
<path fill="none" stroke="#9a32cd" stroke-dasharray="5,2" d="M149.71,-238.53C188.31,-233.68 233.77,-227.98 268.76,-223.59"/>
<polygon fill="#9a32cd" stroke="#9a32cd" points="149.48,-235.03 140,-239.74 150.35,-241.97 149.48,-235.03"/>
</a>
</g>
<text xml:space="preserve" text-anchor="start" x="159.25" y="-243.49" font-family="Helvetica,sans-Serif" font-size="10.00" fill="grey">nvme_cdw12</text>
</g>
<!-- Node17 -->
<g id="Node000017" class="node">
<title>Node17</title>
<g id="a_Node000017"><a xlink:href="unionspdk__bdev__nvme__cdw13.html" target="_top" xlink:title="Union for command dword 13, which by convention matches the NVMe command dword 13 definition.">
<polygon fill="white" stroke="#666666" points="138.25,-216.88 0,-216.88 0,-196.13 138.25,-196.13 138.25,-216.88"/>
<text xml:space="preserve" text-anchor="middle" x="69.12" y="-203.38" font-family="Helvetica,sans-Serif" font-size="10.00">spdk_bdev_nvme_cdw13</text>
</a>
</g>
</g>
<!-- Node17&#45;&gt;Node15 -->
<g id="edge10_Node000015_Node000017" class="edge">
<title>Node17&#45;&gt;Node15</title>
<g id="a_edge10_Node000015_Node000017"><a xlink:title=" ">
<path fill="none" stroke="#9a32cd" stroke-dasharray="5,2" d="M149.89,-205.9C174.54,-206.05 201.78,-206.55 226.75,-207.76 240.38,-208.42 255.05,-209.51 268.79,-210.7"/>
<polygon fill="#9a32cd" stroke="#9a32cd" points="149.91,-202.4 139.9,-205.86 149.89,-209.4 149.91,-202.4"/>
</a>
</g>
<text xml:space="preserve" text-anchor="start" x="159.25" y="-214.01" font-family="Helvetica,sans-Serif" font-size="10.00" fill="grey">nvme_cdw13</text>
</g>
<!-- Node18 -->
<g id="Node000018" class="node">
<title>Node18</title>
<g id="a_Node000018"><a xlink:href="structspdk__dif__ctx.html" target="_top" xlink:title="DIF context information.">
<polygon fill="white" stroke="#666666" points="107.88,-174.88 30.38,-174.88 30.38,-154.13 107.88,-154.13 107.88,-174.88"/>
<text xml:space="preserve" text-anchor="middle" x="69.12" y="-161.38" font-family="Helvetica,sans-Serif" font-size="10.00">spdk_dif_ctx</text>
</a>
</g>
</g>
<!-- Node18&#45;&gt;Node15 -->
<g id="edge11_Node000015_Node000018" class="edge">
<title>Node18&#45;&gt;Node15</title>
<g id="a_edge11_Node000015_Node000018"><a xlink:title=" ">
<path fill="none" stroke="#9a32cd" stroke-dasharray="5,2" d="M119.8,-166.61C150.94,-168.82 191.69,-173.38 226.75,-182.76 235.16,-185.01 236.6,-187.44 244.75,-190.51 252.72,-193.5 261.22,-196.48 269.58,-199.28"/>
<polygon fill="#9a32cd" stroke="#9a32cd" points="120.08,-163.12 109.87,-165.96 119.63,-170.1 120.08,-163.12"/>
</a>
</g>
<text xml:space="preserve" text-anchor="start" x="175" y="-189.01" font-family="Helvetica,sans-Serif" font-size="10.00" fill="grey">dif_ctx</text>
</g>
<!-- Node19 -->
<g id="Node000019" class="node">
<title>Node19</title>
<g id="a_Node000019"><a xlink:href="structspdk__dif__error.html" target="_top" xlink:title="DIF error information.">
<polygon fill="white" stroke="#666666" points="112,-300.88 26.25,-300.88 26.25,-280.13 112,-280.13 112,-300.88"/>
<text xml:space="preserve" text-anchor="middle" x="69.12" y="-287.38" font-family="Helvetica,sans-Serif" font-size="10.00">spdk_dif_error</text>
</a>
</g>
</g>
<!-- Node19&#45;&gt;Node15 -->
<g id="edge12_Node000015_Node000019" class="edge">
<title>Node19&#45;&gt;Node15</title>
<g id="a_edge12_Node000015_Node000019"><a xlink:title=" ">
<path fill="none" stroke="#9a32cd" stroke-dasharray="5,2" d="M123.59,-282.87C154.2,-277.77 193.09,-270.05 226.75,-259.51 248.65,-252.65 272.25,-242.45 290.85,-233.71"/>
<polygon fill="#9a32cd" stroke="#9a32cd" points="123.1,-279.4 113.78,-284.46 124.21,-286.31 123.1,-279.4"/>
</a>
</g>
<text xml:space="preserve" text-anchor="start" x="175.75" y="-282.66" font-family="Helvetica,sans-Serif" font-size="10.00" fill="grey">dif_err</text>
</g>
<!-- Node20 -->
<g id="Node000020" class="node">
<title>Node20</title>
<g id="a_Node000020"><a xlink:href="structspdk__bdev__io__reset__params.html" target="_top" xlink:title=" ">
<polygon fill="white" stroke="#bfbfbf" points="382.62,-181.26 269.88,-181.26 269.88,-147.76 382.62,-147.76 382.62,-181.26"/>
<text xml:space="preserve" text-anchor="start" x="277.88" y="-167.76" font-family="Helvetica,sans-Serif" font-size="10.00">spdk_bdev_io_reset</text>
<text xml:space="preserve" text-anchor="middle" x="326.25" y="-155.01" font-family="Helvetica,sans-Serif" font-size="10.00">_params</text>
</a>
</g>
</g>
<!-- Node20&#45;&gt;Node1 -->
<g id="edge13_Node000001_Node000020" class="edge">
<title>Node20&#45;&gt;Node1</title>
<g id="a_edge13_Node000001_Node000020"><a xlink:title=" ">
<path fill="none" stroke="#9a32cd" stroke-dasharray="5,2" d="M394.27,-157.18C436.22,-152.6 488.88,-146.84 524.57,-142.94"/>
<polygon fill="#9a32cd" stroke="#9a32cd" points="394.09,-153.68 384.53,-158.25 394.85,-160.64 394.09,-153.68"/>
</a>
</g>
<text xml:space="preserve" text-anchor="start" x="453.88" y="-159.31" font-family="Helvetica,sans-Serif" font-size="10.00" fill="grey">reset</text>
</g>
<!-- Node21&#45;&gt;Node1 -->
<g id="edge14_Node000001_Node000021" class="edge">
<title>Node21&#45;&gt;Node1</title>
<g id="a_edge14_Node000001_Node000021"><a xlink:title=" ">
<path fill="none" stroke="#9a32cd" stroke-dasharray="5,2" d="M743.05,-138.51C699.68,-138.51 644.67,-138.51 607.82,-138.51"/>
<polygon fill="#9a32cd" stroke="#9a32cd" points="742.87,-142.01 752.87,-138.51 742.87,-135.01 742.87,-142.01"/>
</a>
</g>
<text xml:space="preserve" text-anchor="start" x="658.88" y="-144.76" font-family="Helvetica,sans-Serif" font-size="10.00" fill="grey">abort</text>
</g>
<!-- Node22 -->
<g id="Node000022" class="node">
<title>Node22</title>
<g id="a_Node000022"><a xlink:href="structspdk__bdev__io__nvme__passthru__params.html" target="_top" xlink:title=" ">
<polygon fill="white" stroke="#bfbfbf" points="407.75,-129.26 244.75,-129.26 244.75,-95.76 407.75,-95.76 407.75,-129.26"/>
<text xml:space="preserve" text-anchor="start" x="252.75" y="-115.76" font-family="Helvetica,sans-Serif" font-size="10.00">spdk_bdev_io_nvme_passthru</text>
<text xml:space="preserve" text-anchor="middle" x="326.25" y="-103.01" font-family="Helvetica,sans-Serif" font-size="10.00">_params</text>
</a>
</g>
</g>
<!-- Node22&#45;&gt;Node1 -->
<g id="edge16_Node000001_Node000022" class="edge">
<title>Node22&#45;&gt;Node1</title>
<g id="a_edge16_Node000001_Node000022"><a xlink:title=" ">
<path fill="none" stroke="#9a32cd" stroke-dasharray="5,2" d="M419.51,-114.12C447.65,-115.6 478.58,-118.2 506.75,-122.76 514.21,-123.96 522.09,-125.74 529.57,-127.66"/>
<polygon fill="#9a32cd" stroke="#9a32cd" points="419.72,-110.63 409.57,-113.65 419.39,-117.62 419.72,-110.63"/>
</a>
</g>
<text xml:space="preserve" text-anchor="start" x="428.75" y="-129.01" font-family="Helvetica,sans-Serif" font-size="10.00" fill="grey">nvme_passthru</text>
</g>
<!-- Node23 -->
<g id="Node000023" class="node">
<title>Node23</title>
<g id="a_Node000023"><a xlink:href="structspdk__nvme__cmd.html" target="_top" xlink:title=" ">
<polygon fill="white" stroke="orangered" points="118.38,-122.88 19.88,-122.88 19.88,-102.13 118.38,-102.13 118.38,-122.88"/>
<text xml:space="preserve" text-anchor="middle" x="69.12" y="-109.38" font-family="Helvetica,sans-Serif" font-size="10.00">spdk_nvme_cmd</text>
</a>
</g>
</g>
<!-- Node23&#45;&gt;Node22 -->
<g id="edge17_Node000022_Node000023" class="edge">
<title>Node23&#45;&gt;Node22</title>
<g id="a_edge17_Node000022_Node000023"><a xlink:title=" ">
<path fill="none" stroke="#9a32cd" stroke-dasharray="5,2" d="M129.92,-112.51C164.07,-112.51 207.34,-112.51 244.48,-112.51"/>
<polygon fill="#9a32cd" stroke="#9a32cd" points="130.23,-109.01 120.23,-112.51 130.23,-116.01 130.23,-109.01"/>
</a>
</g>
<text xml:space="preserve" text-anchor="start" x="181" y="-118.76" font-family="Helvetica,sans-Serif" font-size="10.00" fill="grey">cmd</text>
</g>
<!-- Node49 -->
<g id="Node000049" class="node">
<title>Node49</title>
<g id="a_Node000049"><a xlink:href="structspdk__bdev__io__zone__mgmt__params.html" target="_top" xlink:title=" ">
<polygon fill="white" stroke="#bfbfbf" points="399.12,-77.26 253.38,-77.26 253.38,-43.76 399.12,-43.76 399.12,-77.26"/>
<text xml:space="preserve" text-anchor="start" x="261.38" y="-63.76" font-family="Helvetica,sans-Serif" font-size="10.00">spdk_bdev_io_zone_mgmt</text>
<text xml:space="preserve" text-anchor="middle" x="326.25" y="-51.01" font-family="Helvetica,sans-Serif" font-size="10.00">_params</text>
</a>
</g>
</g>
<!-- Node49&#45;&gt;Node1 -->
<g id="edge18_Node000001_Node000049" class="edge">
<title>Node49&#45;&gt;Node1</title>
<g id="a_edge18_Node000001_Node000049"><a xlink:title=" ">
<path fill="none" stroke="#9a32cd" stroke-dasharray="5,2" d="M410.85,-66.25C441.98,-70.64 476.96,-78.32 506.75,-91.76 525.92,-100.41 544.21,-116.83 555.05,-127.73"/>
<polygon fill="#9a32cd" stroke="#9a32cd" points="411.44,-62.8 401.08,-64.98 410.54,-69.74 411.44,-62.8"/>
</a>
</g>
<text xml:space="preserve" text-anchor="start" x="437.38" y="-98.01" font-family="Helvetica,sans-Serif" font-size="10.00" fill="grey">zone_mgmt</text>
</g>
<!-- Node50&#45;&gt;Node1 -->
<g id="edge19_Node000001_Node000050" class="edge">
<title>Node50&#45;&gt;Node1</title>
<g id="a_edge19_Node000001_Node000050"><a xlink:title=" ">
<path fill="none" stroke="#9a32cd" stroke-dasharray="5,2" d="M1371.53,-49.47C1326.08,-28.62 1252.29,-0.51 1184.88,-0.51 810.25,-0.51 810.25,-0.51 810.25,-0.51 726.14,-0.51 693.77,7.62 625.5,-41.51 594.71,-63.66 577.17,-107.54 570.4,-127.8"/>
<polygon fill="#9a32cd" stroke="#9a32cd" points="1369.99,-52.61 1380.53,-53.68 1372.96,-46.27 1369.99,-52.61"/>
</a>
</g>
<text xml:space="preserve" text-anchor="start" x="989.5" y="-6.76" font-family="Helvetica,sans-Serif" font-size="10.00" fill="grey">internal</text>
</g>
<!-- Node51 -->
<g id="Node000051" class="node">
<title>Node51</title>
<g id="a_Node000051"><a xlink:href="structspdk__iobuf__entry.html" target="_top" xlink:title="iobuf queue entry">
<polygon fill="white" stroke="#666666" points="1233.88,-142.88 1133.88,-142.88 1133.88,-122.13 1233.88,-122.13 1233.88,-142.88"/>
<text xml:space="preserve" text-anchor="middle" x="1183.88" y="-129.38" font-family="Helvetica,sans-Serif" font-size="10.00">spdk_iobuf_entry</text>
</a>
</g>
</g>
<!-- Node51&#45;&gt;Node50 -->
<g id="edge21_Node000050_Node000051" class="edge">
<title>Node51&#45;&gt;Node50</title>
<g id="a_edge21_Node000050_Node000051"><a xlink:title=" ">
<path fill="none" stroke="#9a32cd" stroke-dasharray="5,2" d="M1245.29,-126.13C1273.14,-122.26 1306.4,-116.33 1335.5,-107.51 1351.35,-102.71 1368.16,-95.47 1382.24,-88.74"/>
<polygon fill="#9a32cd" stroke="#9a32cd" points="1245.07,-122.62 1235.61,-127.41 1245.99,-129.56 1245.07,-122.62"/>
</a>
</g>
<text xml:space="preserve" text-anchor="start" x="1291.25" y="-127.84" font-family="Helvetica,sans-Serif" font-size="10.00" fill="grey">iobuf</text>
</g>
<!-- Node51&#45;&gt;Node51 -->
<g id="edge22_Node000051_Node000051" class="edge">
<title>Node51&#45;&gt;Node51</title>
<g id="a_edge22_Node000051_Node000051"><a xlink:title=" ">
<path fill="none" stroke="#9a32cd" stroke-dasharray="5,2" d="M1165.99,-154.69C1168.52,-158.36 1174.48,-160.88 1183.88,-160.88 1201.56,-160.88 1207.08,-151.94 1200.45,-143.28"/>
<polygon fill="#9a32cd" stroke="#9a32cd" points="1169.46,-155.12 1167.13,-144.78 1162.51,-154.32 1169.46,-155.12"/>
</a>
</g>
<text xml:space="preserve" text-anchor="start" x="1170.75" y="-167.13" font-family="Helvetica,sans-Serif" font-size="10.00" fill="grey">cb_fn</text>
</g>
<!-- Node52&#45;&gt;Node50 -->
<g id="edge23_Node000050_Node000052" class="edge">
<title>Node52&#45;&gt;Node50</title>
<g id="a_edge23_Node000050_Node000052"><a xlink:title=" ">
<path fill="none" stroke="#9a32cd" stroke-dasharray="5,2" d="M1265.29,-85.83C1294.14,-83.07 1326.19,-80.01 1353.23,-77.43"/>
<polygon fill="#9a32cd" stroke="#9a32cd" points="1265.12,-82.33 1255.5,-86.76 1265.79,-89.3 1265.12,-82.33"/>
</a>
</g>
<text xml:space="preserve" text-anchor="start" x="1274.75" y="-91.38" font-family="Helvetica,sans-Serif" font-size="10.00" fill="grey">waitq_entry</text>
</g>
</g>
</svg>

<g id="navigator" transform="translate(0 0)" fill="#404254">
  <rect fill="#f2f5e9" fill-opacity="0.5" stroke="#606060" stroke-width=".5" x="0" y="0" width="60" height="60"/>
  <use id="zoomplus" xlink:href="#zoomPlus" x="17" y="9" onmousedown="handleZoom(evt,'in')"/>
  <use id="zoomminus" xlink:href="#zoomMin" x="42" y="9" onmousedown="handleZoom(evt,'out')"/>
  <use id="reset" xlink:href="#resetDef" x="30" y="36" onmousedown="handleReset()"/>
   <use id="arrowup" xlink:href="#arrowUp" x="0" y="0" onmousedown="handlePan(0,-1)"/>
  <use id="arrowright" xlink:href="#arrowRight" x="0" y="0" onmousedown="handlePan(1,0)"/>
  <use id="arrowdown" xlink:href="#arrowDown" x="0" y="0" onmousedown="handlePan(0,1)"/>
  <use id="arrowleft" xlink:href="#arrowLeft" x="0" y="0" onmousedown="handlePan(-1,0)"/>
</g>
<svg viewBox="0 0 15 15" width="100%" height="30px" preserveAspectRatio="xMaxYMin meet">
 <g id="arrow_out" transform="scale(0.3 0.3)">
  <a xlink:href="structspdk__bdev__io__coll__graph_org.svg" target="_base">
   <rect id="button" ry="5" rx="5" y="6" x="6" height="38" width="38"
        fill="#f2f5e9" fill-opacity="0.5" stroke="#606060" stroke-width="1.0"/>
   <path id="arrow"
     d="M 11.500037,31.436501 C 11.940474,20.09759 22.043105,11.32322 32.158766,21.979434 L 37.068811,17.246167 C 37.068811,17.246167 37.088388,32 37.088388,32 L 22.160133,31.978069 C 22.160133,31.978069 26.997745,27.140456 26.997745,27.140456 C 18.528582,18.264221 13.291696,25.230495 11.500037,31.436501 z"
     style="fill:#404040;"/>
  </a>
 </g>
</svg>

<style type='text/css'>
<![CDATA[
[data-mouse-over-selected='false'] { opacity: 0.7; }
[data-mouse-over-selected='true']  { opacity: 1.0; }
]]>
</style>
<script type="application/ecmascript"><![CDATA[
document.addEventListener('DOMContentLoaded', (event) => {
  highlightEdges();
  highlightAdjacentNodes();
});
]]></script>
</svg>
