<?xml version="1.0" encoding="UTF-8" standalone="no"?>
<!DOCTYPE svg PUBLIC "-//W3C//DTD SVG 1.1//EN"
 "http://www.w3.org/Graphics/SVG/1.1/DTD/svg11.dtd">
<!-- Generated by graphviz version 13.1.2 (20250808.2320)
 -->
<!-- Title: spdk_nvmf_ctrlr_data Pages: 1 -->
<svg width="375pt" height="206pt"
 viewBox="0.00 0.00 375.00 206.00" xmlns="http://www.w3.org/2000/svg" xmlns:xlink="http://www.w3.org/1999/xlink">

<svg id="main" version="1.1" xmlns="http://www.w3.org/2000/svg" xmlns:xlink="http://www.w3.org/1999/xlink" xml:space="preserve">

<style type="text/css"><![CDATA[
.node, .edge {opacity: 0.7;}
.node.selected, .edge.selected {opacity: 1;}
.edge:hover path { stroke: red; }
.edge:hover polygon { stroke: red; fill: red; }
]]></style>
<script type="application/ecmascript" xlink:href="svg.min.js"/>
<svg id="graph" class="graph">
<g id="graph0" class="graph" transform="scale(1 1) rotate(0) translate(4 202.12)">
<title>spdk_nvmf_ctrlr_data</title>
<!-- Node1 -->
<g id="Node000001" class="node">
<title>Node1</title>
<g id="a_Node000001"><a xlink:title="A subset of struct spdk_nvme_ctrlr_data that are emulated by a fabrics device.">
<polygon fill="#999999" stroke="#666666" points="367.25,-114.12 245.5,-114.12 245.5,-93.38 367.25,-93.38 367.25,-114.12"/>
<text xml:space="preserve" text-anchor="middle" x="306.38" y="-100.62" font-family="Helvetica,sans-Serif" font-size="10.00">spdk_nvmf_ctrlr_data</text>
</a>
</g>
</g>
<!-- Node2 -->
<g id="Node000002" class="node">
<title>Node2</title>
<g id="a_Node000002"><a xlink:href="structspdk__nvme__cdata__oacs.html" target="_top" xlink:title=" ">
<polygon fill="white" stroke="#bfbfbf" points="134.12,-198.12 1.88,-198.12 1.88,-177.38 134.12,-177.38 134.12,-198.12"/>
<text xml:space="preserve" text-anchor="middle" x="68" y="-184.62" font-family="Helvetica,sans-Serif" font-size="10.00">spdk_nvme_cdata_oacs</text>
</a>
</g>
</g>
<!-- Node2&#45;&gt;Node1 -->
<g id="edge1_Node000001_Node000002" class="edge">
<title>Node2&#45;&gt;Node1</title>
<g id="a_edge1_Node000001_Node000002"><a xlink:title=" ">
<path fill="none" stroke="#9a32cd" stroke-dasharray="5,2" d="M145.62,-179.87C172.24,-175.42 201.85,-168.5 227.5,-157.75 253.15,-147.01 278.87,-126.91 293.39,-114.5"/>
<polygon fill="#9a32cd" stroke="#9a32cd" points="145.24,-176.38 135.9,-181.39 146.32,-183.3 145.24,-176.38"/>
</a>
</g>
<text xml:space="preserve" text-anchor="start" x="179.5" y="-184.35" font-family="Helvetica,sans-Serif" font-size="10.00" fill="grey">oacs</text>
</g>
<!-- Node3 -->
<g id="Node000003" class="node">
<title>Node3</title>
<g id="a_Node000003"><a xlink:href="structspdk__nvme__cdata__oncs.html" target="_top" xlink:title="Identify Controller data Optional NVM Command Support.">
<polygon fill="white" stroke="#666666" points="134.12,-156.12 1.88,-156.12 1.88,-135.38 134.12,-135.38 134.12,-156.12"/>
<text xml:space="preserve" text-anchor="middle" x="68" y="-142.62" font-family="Helvetica,sans-Serif" font-size="10.00">spdk_nvme_cdata_oncs</text>
</a>
</g>
</g>
<!-- Node3&#45;&gt;Node1 -->
<g id="edge2_Node000001_Node000003" class="edge">
<title>Node3&#45;&gt;Node1</title>
<g id="a_edge2_Node000001_Node000003"><a xlink:title=" ">
<path fill="none" stroke="#9a32cd" stroke-dasharray="5,2" d="M145.78,-136.88C171.83,-133.39 201.03,-128.97 227.5,-123.75 240.37,-121.21 254.29,-117.84 266.75,-114.59"/>
<polygon fill="#9a32cd" stroke="#9a32cd" points="145.4,-133.4 135.94,-138.17 146.31,-140.34 145.4,-133.4"/>
</a>
</g>
<text xml:space="preserve" text-anchor="start" x="179.5" y="-141.42" font-family="Helvetica,sans-Serif" font-size="10.00" fill="grey">oncs</text>
</g>
<!-- Node4 -->
<g id="Node000004" class="node">
<title>Node4</title>
<g id="a_Node000004"><a xlink:href="structspdk__nvme__cdata__fuses.html" target="_top" xlink:title=" ">
<polygon fill="white" stroke="#bfbfbf" points="136,-114.12 0,-114.12 0,-93.38 136,-93.38 136,-114.12"/>
<text xml:space="preserve" text-anchor="middle" x="68" y="-100.62" font-family="Helvetica,sans-Serif" font-size="10.00">spdk_nvme_cdata_fuses</text>
</a>
</g>
</g>
<!-- Node4&#45;&gt;Node1 -->
<g id="edge3_Node000001_Node000004" class="edge">
<title>Node4&#45;&gt;Node1</title>
<g id="a_edge3_Node000001_Node000004"><a xlink:title=" ">
<path fill="none" stroke="#9a32cd" stroke-dasharray="5,2" d="M147.89,-103.75C179.6,-103.75 215.57,-103.75 245.12,-103.75"/>
<polygon fill="#9a32cd" stroke="#9a32cd" points="147.93,-100.25 137.93,-103.75 147.93,-107.25 147.93,-100.25"/>
</a>
</g>
<text xml:space="preserve" text-anchor="start" x="177.62" y="-110" font-family="Helvetica,sans-Serif" font-size="10.00" fill="grey">fuses</text>
</g>
<!-- Node5 -->
<g id="Node000005" class="node">
<title>Node5</title>
<g id="a_Node000005"><a xlink:href="structspdk__nvme__cdata__sgls.html" target="_top" xlink:title="Identify Controller data SGL support.">
<polygon fill="white" stroke="#666666" points="132.62,-72.12 3.38,-72.12 3.38,-51.38 132.62,-51.38 132.62,-72.12"/>
<text xml:space="preserve" text-anchor="middle" x="68" y="-58.62" font-family="Helvetica,sans-Serif" font-size="10.00">spdk_nvme_cdata_sgls</text>
</a>
</g>
</g>
<!-- Node5&#45;&gt;Node1 -->
<g id="edge4_Node000001_Node000005" class="edge">
<title>Node5&#45;&gt;Node1</title>
<g id="a_edge4_Node000001_Node000005"><a xlink:title=" ">
<path fill="none" stroke="#9a32cd" stroke-dasharray="5,2" d="M144.14,-68.33C170.64,-71.32 200.53,-75.46 227.5,-81 242.54,-84.09 258.89,-88.67 272.71,-92.92"/>
<polygon fill="#9a32cd" stroke="#9a32cd" points="144.84,-64.89 134.52,-67.28 144.08,-71.85 144.84,-64.89"/>
</a>
</g>
<text xml:space="preserve" text-anchor="start" x="181" y="-87.25" font-family="Helvetica,sans-Serif" font-size="10.00" fill="grey">sgls</text>
</g>
<!-- Node6 -->
<g id="Node000006" class="node">
<title>Node6</title>
<g id="a_Node000006"><a xlink:href="structspdk__nvme__cdata__nvmf__specific.html" target="_top" xlink:title="Identify Controller data NVMe over Fabrics&#45;specific fields.">
<polygon fill="white" stroke="#666666" points="135.62,-33.5 0.38,-33.5 0.38,0 135.62,0 135.62,-33.5"/>
<text xml:space="preserve" text-anchor="start" x="8.38" y="-20" font-family="Helvetica,sans-Serif" font-size="10.00">spdk_nvme_cdata_nvmf</text>
<text xml:space="preserve" text-anchor="middle" x="68" y="-7.25" font-family="Helvetica,sans-Serif" font-size="10.00">_specific</text>
</a>
</g>
</g>
<!-- Node6&#45;&gt;Node1 -->
<g id="edge5_Node000001_Node000006" class="edge">
<title>Node6&#45;&gt;Node1</title>
<g id="a_edge5_Node000001_Node000006"><a xlink:title=" ">
<path fill="none" stroke="#9a32cd" stroke-dasharray="5,2" d="M147.17,-24.67C173.44,-29.15 202.42,-36.13 227.5,-47 253.75,-58.38 279.67,-79.88 294,-92.9"/>
<polygon fill="#9a32cd" stroke="#9a32cd" points="148.02,-21.26 137.59,-23.14 146.92,-28.18 148.02,-21.26"/>
</a>
</g>
<text xml:space="preserve" text-anchor="start" x="157" y="-53.25" font-family="Helvetica,sans-Serif" font-size="10.00" fill="grey">nvmf_specific</text>
</g>
</g>
</svg>
</svg>

<style type='text/css'>
<![CDATA[
[data-mouse-over-selected='false'] { opacity: 0.7; }
[data-mouse-over-selected='true']  { opacity: 1.0; }
]]>
</style>
<script type="application/ecmascript"><![CDATA[
document.addEventListener('DOMContentLoaded', (event) => {
  highlightEdges();
  highlightAdjacentNodes();
});
]]></script>
</svg>
