<?xml version="1.0" encoding="UTF-8" standalone="no"?>
<!DOCTYPE svg PUBLIC "-//W3C//DTD SVG 1.1//EN"
 "http://www.w3.org/Graphics/SVG/1.1/DTD/svg11.dtd">
<!-- Generated by graphviz version 13.1.2 (20250808.2320)
 -->
<!-- Title: spdk_mbr Pages: 1 -->
<svg width="119pt" height="209pt"
 viewBox="0.00 0.00 119.00 209.00" xmlns="http://www.w3.org/2000/svg" xmlns:xlink="http://www.w3.org/1999/xlink">
<g id="graph0" class="graph" transform="scale(1 1) rotate(0) translate(4 205.25)">
<title>spdk_mbr</title>
<!-- Node1 -->
<g id="Node000001" class="node">
<title>Node1</title>
<g id="a_Node000001"><a xlink:title=" ">
<polygon fill="#999999" stroke="#666666" points="87.25,-20.75 23.25,-20.75 23.25,0 87.25,0 87.25,-20.75"/>
<text xml:space="preserve" text-anchor="middle" x="55.25" y="-7.25" font-family="Helvetica,sans-Serif" font-size="10.00">spdk_mbr</text>
</a>
</g>
</g>
<!-- Node2 -->
<g id="Node000002" class="node">
<title>Node2</title>
<g id="a_Node000002"><a xlink:href="structspdk__mbr__partition__entry.html" target="_top" xlink:title=" ">
<polygon fill="white" stroke="#bfbfbf" points="110.5,-109 0,-109 0,-75.5 110.5,-75.5 110.5,-109"/>
<text xml:space="preserve" text-anchor="start" x="8" y="-95.5" font-family="Helvetica,sans-Serif" font-size="10.00">spdk_mbr_partition</text>
<text xml:space="preserve" text-anchor="middle" x="55.25" y="-82.75" font-family="Helvetica,sans-Serif" font-size="10.00">_entry</text>
</a>
</g>
</g>
<!-- Node2&#45;&gt;Node1 -->
<g id="edge1_Node000001_Node000002" class="edge">
<title>Node2&#45;&gt;Node1</title>
<g id="a_edge1_Node000001_Node000002"><a xlink:title=" ">
<path fill="none" stroke="#9a32cd" stroke-dasharray="5,2" d="M55.25,-63.9C55.25,-49.03 55.25,-31.57 55.25,-20.99"/>
<polygon fill="#9a32cd" stroke="#9a32cd" points="51.75,-63.57 55.25,-73.57 58.75,-63.57 51.75,-63.57"/>
</a>
</g>
<text xml:space="preserve" text-anchor="start" x="58.25" y="-45" font-family="Helvetica,sans-Serif" font-size="10.00" fill="grey">partitions</text>
</g>
<!-- Node3 -->
<g id="Node000003" class="node">
<title>Node3</title>
<g id="a_Node000003"><a xlink:href="structspdk__mbr__chs.html" target="_top" xlink:title=" ">
<polygon fill="white" stroke="#bfbfbf" points="98.12,-201.25 12.38,-201.25 12.38,-180.5 98.12,-180.5 98.12,-201.25"/>
<text xml:space="preserve" text-anchor="middle" x="55.25" y="-187.75" font-family="Helvetica,sans-Serif" font-size="10.00">spdk_mbr_chs</text>
</a>
</g>
</g>
<!-- Node3&#45;&gt;Node2 -->
<g id="edge2_Node000002_Node000003" class="edge">
<title>Node3&#45;&gt;Node2</title>
<g id="a_edge2_Node000002_Node000003"><a xlink:title=" ">
<path fill="none" stroke="#9a32cd" stroke-dasharray="5,2" d="M55.25,-168.74C55.25,-150.81 55.25,-125.47 55.25,-109.2"/>
<polygon fill="#9a32cd" stroke="#9a32cd" points="51.75,-168.74 55.25,-178.74 58.75,-168.74 51.75,-168.74"/>
</a>
</g>
<text xml:space="preserve" text-anchor="start" x="58.25" y="-150" font-family="Helvetica,sans-Serif" font-size="10.00" fill="grey">end_chs</text>
<text xml:space="preserve" text-anchor="start" x="58.25" y="-133.25" font-family="Helvetica,sans-Serif" font-size="10.00" fill="grey">start_chs</text>
</g>
</g>
</svg>
