<?xml version="1.0" encoding="UTF-8" standalone="no"?>
<!DOCTYPE svg PUBLIC "-//W3C//DTD SVG 1.1//EN"
 "http://www.w3.org/Graphics/SVG/1.1/DTD/svg11.dtd">
<!-- Generated by graphviz version 13.1.2 (20250808.2320)
 -->
<!-- Title: spdk_bdev_io_block_params Pages: 1 -->
<!--zoomable 117 -->

<svg id="main" version="1.1" xmlns="http://www.w3.org/2000/svg" xmlns:xlink="http://www.w3.org/1999/xlink" xml:space="preserve" onload="init(evt)">

<style type="text/css"><![CDATA[
.node, .edge {opacity: 0.7;}
.node.selected, .edge.selected {opacity: 1;}
.edge:hover path { stroke: red; }
.edge:hover polygon { stroke: red; fill: red; }
]]></style>

<defs>
  <circle id="rim" cx="0" cy="0" r="7"/>
  <circle id="rim2" cx="0" cy="0" r="3.5"/>
  <g id="zoomPlus">
    <use xlink:href="#rim" fill="#404040"><set attributeName="fill" to="#808080" begin="zoomplus.mouseover" end="zoomplus.mouseout"/></use>
    <path d="M-4,0h8M0,-4v8" fill="none" stroke="white" stroke-width="1.5" pointer-events="none"/>
  </g>
  <g id="zoomMin">
    <use xlink:href="#rim" fill="#404040"><set attributeName="fill" to="#808080" begin="zoomminus.mouseover" end="zoomminus.mouseout"/></use>
    <path d="M-4,0h8" fill="none" stroke="white" stroke-width="1.5" pointer-events="none"/>
  </g>
  <g id="arrowUp" transform="translate(30 24)">
    <use xlink:href="#rim"/>
    <path pointer-events="none" fill="none" stroke="white" stroke-width="1.5" d="M0,-3.0v7 M-2.5,-0.5L0,-3.0L2.5,-0.5"/>
  </g>
  <g id="arrowRight" transform="rotate(90) translate(36 -43)">
    <use xlink:href="#rim"/>
    <path pointer-events="none" fill="none" stroke="white" stroke-width="1.5" d="M0,-3.0v7 M-2.5,-0.5L0,-3.0L2.5,-0.5"/>
  </g>
  <g id="arrowDown" transform="rotate(180) translate(-30 -48)">
    <use xlink:href="#rim"/>
    <path pointer-events="none" fill="none" stroke="white" stroke-width="1.5" d="M0,-3.0v7 M-2.5,-0.5L0,-3.0L2.5,-0.5"/>
  </g>
  <g id="arrowLeft" transform="rotate(270) translate(-36 17)">
    <use xlink:href="#rim"/>
    <path pointer-events="none" fill="none" stroke="white" stroke-width="1.5" d="M0,-3.0v7 M-2.5,-0.5L0,-3.0L2.5,-0.5"/>
  </g>
  <g id="resetDef">
    <use xlink:href="#rim2" fill="#404040"><set attributeName="fill" to="#808080" begin="reset.mouseover" end="reset.mouseout"/></use>
  </g>
</defs>
<script type="application/ecmascript">
var viewWidth = 502;
var viewHeight = 117;
var sectionId = 'dynsection-0';
</script>
<script type="application/ecmascript" xlink:href="svg.min.js"/>
<svg id="graph" class="graph">
<g id="viewport">
<title>spdk_bdev_io_block_params</title>
<!-- Node1 -->
<g id="Node000001" class="node">
<title>Node1</title>
<g id="a_Node000001"><a xlink:title=" ">
<polygon fill="#999999" stroke="#666666" points="345.25,-33.5 231,-33.5 231,0 345.25,0 345.25,-33.5"/>
<text xml:space="preserve" text-anchor="start" x="239" y="-20" font-family="Helvetica,sans-Serif" font-size="10.00">spdk_bdev_io_block</text>
<text xml:space="preserve" text-anchor="middle" x="288.12" y="-7.25" font-family="Helvetica,sans-Serif" font-size="10.00">_params</text>
</a>
</g>
</g>
<!-- Node2 -->
<g id="Node000002" class="node">
<title>Node2</title>
<g id="a_Node000002"><a xlink:href="unionspdk__bdev__nvme__cdw12.html" target="_top" xlink:title="Union for command dword 12, which by convention matches the NVMe command dword 12 definition.">
<polygon fill="white" stroke="#666666" points="138.25,-109 0,-109 0,-88.25 138.25,-88.25 138.25,-109"/>
<text xml:space="preserve" text-anchor="middle" x="69.12" y="-95.5" font-family="Helvetica,sans-Serif" font-size="10.00">spdk_bdev_nvme_cdw12</text>
</a>
</g>
</g>
<!-- Node2&#45;&gt;Node1 -->
<g id="edge1_Node000001_Node000002" class="edge">
<title>Node2&#45;&gt;Node1</title>
<g id="a_edge1_Node000001_Node000002"><a xlink:title=" ">
<path fill="none" stroke="#9a32cd" stroke-dasharray="5,2" d="M98.23,-82.83C118.03,-73.13 145.01,-60.59 169.62,-51.5 189.19,-44.27 211.04,-37.65 230.6,-32.23"/>
<polygon fill="#9a32cd" stroke="#9a32cd" points="96.78,-79.64 89.38,-87.22 99.89,-85.91 96.78,-79.64"/>
</a>
</g>
<text xml:space="preserve" text-anchor="start" x="172.62" y="-57.75" font-family="Helvetica,sans-Serif" font-size="10.00" fill="grey">nvme_cdw12</text>
</g>
<!-- Node3 -->
<g id="Node000003" class="node">
<title>Node3</title>
<g id="a_Node000003"><a xlink:href="unionspdk__bdev__nvme__cdw13.html" target="_top" xlink:title="Union for command dword 13, which by convention matches the NVMe command dword 13 definition.">
<polygon fill="white" stroke="#666666" points="294.25,-109 156,-109 156,-88.25 294.25,-88.25 294.25,-109"/>
<text xml:space="preserve" text-anchor="middle" x="225.12" y="-95.5" font-family="Helvetica,sans-Serif" font-size="10.00">spdk_bdev_nvme_cdw13</text>
</a>
</g>
</g>
<!-- Node3&#45;&gt;Node1 -->
<g id="edge2_Node000001_Node000003" class="edge">
<title>Node3&#45;&gt;Node1</title>
<g id="a_edge2_Node000001_Node000003"><a xlink:title=" ">
<path fill="none" stroke="#9a32cd" stroke-dasharray="5,2" d="M238.39,-78.56C244.39,-70.14 251.69,-60.19 258.62,-51.5 263.28,-45.66 268.6,-39.45 273.42,-33.98"/>
<polygon fill="#9a32cd" stroke="#9a32cd" points="235.58,-76.47 232.68,-86.66 241.3,-80.5 235.58,-76.47"/>
</a>
</g>
<text xml:space="preserve" text-anchor="start" x="261.62" y="-57.75" font-family="Helvetica,sans-Serif" font-size="10.00" fill="grey">nvme_cdw13</text>
</g>
<!-- Node4 -->
<g id="Node000004" class="node">
<title>Node4</title>
<g id="a_Node000004"><a xlink:href="structspdk__dif__ctx.html" target="_top" xlink:title="DIF context information.">
<polygon fill="white" stroke="#666666" points="389.88,-109 312.38,-109 312.38,-88.25 389.88,-88.25 389.88,-109"/>
<text xml:space="preserve" text-anchor="middle" x="351.12" y="-95.5" font-family="Helvetica,sans-Serif" font-size="10.00">spdk_dif_ctx</text>
</a>
</g>
</g>
<!-- Node4&#45;&gt;Node1 -->
<g id="edge3_Node000001_Node000004" class="edge">
<title>Node4&#45;&gt;Node1</title>
<g id="a_edge3_Node000001_Node000004"><a xlink:title=" ">
<path fill="none" stroke="#9a32cd" stroke-dasharray="5,2" d="M343.82,-77.55C340.17,-69.03 335.21,-59.28 329.12,-51.5 324.01,-44.96 317.43,-38.85 311.04,-33.67"/>
<polygon fill="#9a32cd" stroke="#9a32cd" points="340.51,-78.69 347.43,-86.71 347.02,-76.12 340.51,-78.69"/>
</a>
</g>
<text xml:space="preserve" text-anchor="start" x="343.05" y="-57.75" font-family="Helvetica,sans-Serif" font-size="10.00" fill="grey">dif_ctx</text>
</g>
<!-- Node5 -->
<g id="Node000005" class="node">
<title>Node5</title>
<g id="a_Node000005"><a xlink:href="structspdk__dif__error.html" target="_top" xlink:title="DIF error information.">
<polygon fill="white" stroke="#666666" points="494,-109 408.25,-109 408.25,-88.25 494,-88.25 494,-109"/>
<text xml:space="preserve" text-anchor="middle" x="451.12" y="-95.5" font-family="Helvetica,sans-Serif" font-size="10.00">spdk_dif_error</text>
</a>
</g>
</g>
<!-- Node5&#45;&gt;Node1 -->
<g id="edge4_Node000001_Node000005" class="edge">
<title>Node5&#45;&gt;Node1</title>
<g id="a_edge4_Node000001_Node000005"><a xlink:title=" ">
<path fill="none" stroke="#9a32cd" stroke-dasharray="5,2" d="M429.67,-80.99C416.71,-71.48 399.55,-59.82 383.12,-51.5 370.01,-44.86 355.27,-38.94 341.39,-33.99"/>
<polygon fill="#9a32cd" stroke="#9a32cd" points="427.38,-83.65 437.48,-86.85 431.58,-78.05 427.38,-83.65"/>
</a>
</g>
<text xml:space="preserve" text-anchor="start" x="417.02" y="-57.75" font-family="Helvetica,sans-Serif" font-size="10.00" fill="grey">dif_err</text>
</g>
</g>
</svg>

<g id="navigator" transform="translate(0 0)" fill="#404254">
  <rect fill="#f2f5e9" fill-opacity="0.5" stroke="#606060" stroke-width=".5" x="0" y="0" width="60" height="60"/>
  <use id="zoomplus" xlink:href="#zoomPlus" x="17" y="9" onmousedown="handleZoom(evt,'in')"/>
  <use id="zoomminus" xlink:href="#zoomMin" x="42" y="9" onmousedown="handleZoom(evt,'out')"/>
  <use id="reset" xlink:href="#resetDef" x="30" y="36" onmousedown="handleReset()"/>
   <use id="arrowup" xlink:href="#arrowUp" x="0" y="0" onmousedown="handlePan(0,-1)"/>
  <use id="arrowright" xlink:href="#arrowRight" x="0" y="0" onmousedown="handlePan(1,0)"/>
  <use id="arrowdown" xlink:href="#arrowDown" x="0" y="0" onmousedown="handlePan(0,1)"/>
  <use id="arrowleft" xlink:href="#arrowLeft" x="0" y="0" onmousedown="handlePan(-1,0)"/>
</g>
<svg viewBox="0 0 15 15" width="100%" height="30px" preserveAspectRatio="xMaxYMin meet">
 <g id="arrow_out" transform="scale(0.3 0.3)">
  <a xlink:href="structspdk__bdev__io__block__params__coll__graph_org.svg" target="_base">
   <rect id="button" ry="5" rx="5" y="6" x="6" height="38" width="38"
        fill="#f2f5e9" fill-opacity="0.5" stroke="#606060" stroke-width="1.0"/>
   <path id="arrow"
     d="M 11.500037,31.436501 C 11.940474,20.09759 22.043105,11.32322 32.158766,21.979434 L 37.068811,17.246167 C 37.068811,17.246167 37.088388,32 37.088388,32 L 22.160133,31.978069 C 22.160133,31.978069 26.997745,27.140456 26.997745,27.140456 C 18.528582,18.264221 13.291696,25.230495 11.500037,31.436501 z"
     style="fill:#404040;"/>
  </a>
 </g>
</svg>

<style type='text/css'>
<![CDATA[
[data-mouse-over-selected='false'] { opacity: 0.7; }
[data-mouse-over-selected='true']  { opacity: 1.0; }
]]>
</style>
<script type="application/ecmascript"><![CDATA[
document.addEventListener('DOMContentLoaded', (event) => {
  highlightEdges();
  highlightAdjacentNodes();
});
]]></script>
</svg>
