<?xml version="1.0" encoding="UTF-8" standalone="no"?>
<!DOCTYPE svg PUBLIC "-//W3C//DTD SVG 1.1//EN"
 "http://www.w3.org/Graphics/SVG/1.1/DTD/svg11.dtd">
<!-- Generated by graphviz version 13.1.2 (20250808.2320)
 -->
<!-- Title: spdk_nvmf_request Pages: 1 -->
<svg width="896pt" height="648pt"
 viewBox="0.00 0.00 896.00 648.00" xmlns="http://www.w3.org/2000/svg" xmlns:xlink="http://www.w3.org/1999/xlink">
<g id="graph0" class="graph" transform="scale(1 1) rotate(0) translate(4 644.17)">
<title>spdk_nvmf_request</title>
<!-- Node1 -->
<g id="Node000001" class="node">
<title>Node1</title>
<g id="a_Node000001"><a xlink:title=" ">
<polygon fill="#999999" stroke="#666666" points="666.38,-180.75 554.38,-180.75 554.38,-160 666.38,-160 666.38,-180.75"/>
<text xml:space="preserve" text-anchor="middle" x="610.38" y="-167.25" font-family="Helvetica,sans-Serif" font-size="10.00">spdk_nvmf_request</text>
</a>
</g>
</g>
<!-- Node1&#45;&gt;Node1 -->
<g id="edge22_Node000001_Node000001" class="edge">
<title>Node1&#45;&gt;Node1</title>
<g id="a_edge22_Node000001_Node000001"><a xlink:title=" ">
<path fill="none" stroke="#9a32cd" stroke-dasharray="5,2" d="M589.24,-192.24C592.04,-196.08 599.08,-198.75 610.38,-198.75 631.02,-198.75 637.47,-189.81 629.73,-181.15"/>
<polygon fill="#9a32cd" stroke="#9a32cd" points="592.65,-193.07 590.78,-182.64 585.74,-191.96 592.65,-193.07"/>
</a>
</g>
<text xml:space="preserve" text-anchor="start" x="574.38" y="-238.5" font-family="Helvetica,sans-Serif" font-size="10.00" fill="grey">cmd_cb_fn</text>
<text xml:space="preserve" text-anchor="start" x="574.38" y="-221.75" font-family="Helvetica,sans-Serif" font-size="10.00" fill="grey">first_fused_req</text>
<text xml:space="preserve" text-anchor="start" x="574.38" y="-205" font-family="Helvetica,sans-Serif" font-size="10.00" fill="grey">req_to_abort</text>
</g>
<!-- Node2 -->
<g id="Node000002" class="node">
<title>Node2</title>
<g id="a_Node000002"><a xlink:href="structspdk__nvmf__qpair.html" target="_top" xlink:title=" ">
<polygon fill="white" stroke="#bfbfbf" points="887.5,-256.75 787.5,-256.75 787.5,-236 887.5,-236 887.5,-256.75"/>
<text xml:space="preserve" text-anchor="middle" x="837.5" y="-243.25" font-family="Helvetica,sans-Serif" font-size="10.00">spdk_nvmf_qpair</text>
</a>
</g>
</g>
<!-- Node1&#45;&gt;Node2 -->
<g id="edge4_Node000002_Node000001" class="edge">
<title>Node1&#45;&gt;Node2</title>
<g id="a_edge4_Node000002_Node000001"><a xlink:title=" ">
<path fill="none" stroke="#9a32cd" stroke-dasharray="5,2" d="M656.31,-184.58C667.77,-188.15 680.08,-191.95 691.5,-195.38 726.06,-205.75 735.5,-205.79 769.5,-217.88 784.15,-223.08 800.19,-229.86 812.9,-235.51"/>
<polygon fill="#9a32cd" stroke="#9a32cd" points="657.67,-181.34 647.08,-181.7 655.58,-188.02 657.67,-181.34"/>
</a>
</g>
<text xml:space="preserve" text-anchor="start" x="694.5" y="-240.88" font-family="Helvetica,sans-Serif" font-size="10.00" fill="grey">connect_req</text>
<text xml:space="preserve" text-anchor="start" x="694.5" y="-224.12" font-family="Helvetica,sans-Serif" font-size="10.00" fill="grey">first_fused_req</text>
</g>
<!-- Node2&#45;&gt;Node1 -->
<g id="edge1_Node000001_Node000002" class="edge">
<title>Node2&#45;&gt;Node1</title>
<g id="a_edge1_Node000001_Node000002"><a xlink:title=" ">
<path fill="none" stroke="#9a32cd" stroke-dasharray="5,2" d="M823.73,-226.23C811.92,-209.58 792.71,-187.06 769.5,-176.62 737.55,-162.26 698.2,-160.66 666.75,-162.66"/>
<polygon fill="#9a32cd" stroke="#9a32cd" points="820.76,-228.08 829.25,-234.41 826.56,-224.17 820.76,-228.08"/>
</a>
</g>
<text xml:space="preserve" text-anchor="start" x="718.12" y="-182.88" font-family="Helvetica,sans-Serif" font-size="10.00" fill="grey">qpair</text>
</g>
<!-- Node3 -->
<g id="Node000003" class="node">
<title>Node3</title>
<g id="a_Node000003"><a xlink:href="structspdk__nvmf__transport.html" target="_top" xlink:title=" ">
<polygon fill="white" stroke="orangered" points="670.12,-329.75 550.62,-329.75 550.62,-309 670.12,-309 670.12,-329.75"/>
<text xml:space="preserve" text-anchor="middle" x="610.38" y="-316.25" font-family="Helvetica,sans-Serif" font-size="10.00">spdk_nvmf_transport</text>
</a>
</g>
</g>
<!-- Node3&#45;&gt;Node2 -->
<g id="edge2_Node000002_Node000003" class="edge">
<title>Node3&#45;&gt;Node2</title>
<g id="a_edge2_Node000002_Node000003"><a xlink:title=" ">
<path fill="none" stroke="#9a32cd" stroke-dasharray="5,2" d="M681.66,-311.93C709.67,-307.47 741.78,-300.42 769.5,-289.38 789.79,-281.29 810.55,-266.81 823.48,-256.9"/>
<polygon fill="#9a32cd" stroke="#9a32cd" points="681.2,-308.46 671.83,-313.41 682.24,-315.38 681.2,-308.46"/>
</a>
</g>
<text xml:space="preserve" text-anchor="start" x="708.38" y="-316.2" font-family="Helvetica,sans-Serif" font-size="10.00" fill="grey">transport</text>
</g>
<!-- Node10 -->
<g id="Node000010" class="node">
<title>Node10</title>
<g id="a_Node000010"><a xlink:href="structspdk__nvmf__poll__group.html" target="_top" xlink:title=" ">
<polygon fill="white" stroke="orangered" points="673.5,-289.75 547.25,-289.75 547.25,-269 673.5,-269 673.5,-289.75"/>
<text xml:space="preserve" text-anchor="middle" x="610.38" y="-276.25" font-family="Helvetica,sans-Serif" font-size="10.00">spdk_nvmf_poll_group</text>
</a>
</g>
</g>
<!-- Node10&#45;&gt;Node2 -->
<g id="edge3_Node000002_Node000010" class="edge">
<title>Node10&#45;&gt;Node2</title>
<g id="a_edge3_Node000002_Node000010"><a xlink:title=" ">
<path fill="none" stroke="#9a32cd" stroke-dasharray="5,2" d="M684.93,-268.59C718.45,-263.68 757.24,-257.99 787.19,-253.6"/>
<polygon fill="#9a32cd" stroke="#9a32cd" points="684.67,-265.09 675.28,-270.01 685.69,-272.02 684.67,-265.09"/>
</a>
</g>
<text xml:space="preserve" text-anchor="start" x="716.62" y="-273.05" font-family="Helvetica,sans-Serif" font-size="10.00" fill="grey">group</text>
</g>
<!-- Node16 -->
<g id="Node000016" class="node">
<title>Node16</title>
<g id="a_Node000016"><a xlink:href="unionnvmf__h2c__msg.html" target="_top" xlink:title=" ">
<polygon fill="white" stroke="#bfbfbf" points="407.38,-473.75 317.12,-473.75 317.12,-453 407.38,-453 407.38,-473.75"/>
<text xml:space="preserve" text-anchor="middle" x="362.25" y="-460.25" font-family="Helvetica,sans-Serif" font-size="10.00">nvmf_h2c_msg</text>
</a>
</g>
</g>
<!-- Node16&#45;&gt;Node1 -->
<g id="edge5_Node000001_Node000016" class="edge">
<title>Node16&#45;&gt;Node1</title>
<g id="a_edge5_Node000001_Node000016"><a xlink:title=" ">
<path fill="none" stroke="#9a32cd" stroke-dasharray="5,2" d="M379.81,-444.18C409.82,-409.33 475.1,-333.28 529.25,-268.38 555.58,-236.82 586.2,-199.07 600.79,-181.02"/>
<polygon fill="#9a32cd" stroke="#9a32cd" points="377.19,-441.86 373.31,-451.72 382.49,-446.43 377.19,-441.86"/>
</a>
</g>
<text xml:space="preserve" text-anchor="start" x="479.75" y="-365.75" font-family="Helvetica,sans-Serif" font-size="10.00" fill="grey">cmd</text>
</g>
<!-- Node17 -->
<g id="Node000017" class="node">
<title>Node17</title>
<g id="a_Node000017"><a xlink:href="structspdk__nvmf__capsule__cmd.html" target="_top" xlink:title=" ">
<polygon fill="white" stroke="#bfbfbf" points="155.88,-633.75 16.88,-633.75 16.88,-613 155.88,-613 155.88,-633.75"/>
<text xml:space="preserve" text-anchor="middle" x="86.38" y="-620.25" font-family="Helvetica,sans-Serif" font-size="10.00">spdk_nvmf_capsule_cmd</text>
</a>
</g>
</g>
<!-- Node17&#45;&gt;Node16 -->
<g id="edge6_Node000016_Node000017" class="edge">
<title>Node17&#45;&gt;Node16</title>
<g id="a_edge6_Node000016_Node000017"><a xlink:title=" ">
<path fill="none" stroke="#9a32cd" stroke-dasharray="5,2" d="M167.2,-624.37C202.07,-621.45 242.04,-613.28 273.25,-593.38 319.89,-563.62 347.9,-499.31 357.49,-473.96"/>
<polygon fill="#9a32cd" stroke="#9a32cd" points="167.32,-620.85 157.58,-625.03 167.8,-627.83 167.32,-620.85"/>
</a>
</g>
<text xml:space="preserve" text-anchor="start" x="206.12" y="-627.67" font-family="Helvetica,sans-Serif" font-size="10.00" fill="grey">nvmf_cmd</text>
</g>
<!-- Node18 -->
<g id="Node000018" class="node">
<title>Node18</title>
<g id="a_Node000018"><a xlink:href="structspdk__nvme__cmd.html" target="_top" xlink:title=" ">
<polygon fill="white" stroke="orangered" points="135.62,-593.75 37.12,-593.75 37.12,-573 135.62,-573 135.62,-593.75"/>
<text xml:space="preserve" text-anchor="middle" x="86.38" y="-580.25" font-family="Helvetica,sans-Serif" font-size="10.00">spdk_nvme_cmd</text>
</a>
</g>
</g>
<!-- Node18&#45;&gt;Node16 -->
<g id="edge7_Node000016_Node000018" class="edge">
<title>Node18&#45;&gt;Node16</title>
<g id="a_edge7_Node000016_Node000018"><a xlink:title=" ">
<path fill="none" stroke="#9a32cd" stroke-dasharray="5,2" d="M147.26,-578.52C185.07,-573.56 234.01,-563.55 273.25,-543.38 307.4,-525.82 338.38,-491.54 352.77,-474.11"/>
<polygon fill="#9a32cd" stroke="#9a32cd" points="146.91,-575.04 137.41,-579.72 147.76,-581.99 146.91,-575.04"/>
</a>
</g>
<text xml:space="preserve" text-anchor="start" x="205" y="-576.44" font-family="Helvetica,sans-Serif" font-size="10.00" fill="grey">nvme_cmd</text>
</g>
<!-- Node44 -->
<g id="Node000044" class="node">
<title>Node44</title>
<g id="a_Node000044"><a xlink:href="structspdk__nvmf__fabric__prop__set__cmd.html" target="_top" xlink:title=" ">
<polygon fill="white" stroke="#bfbfbf" points="151.38,-555.12 21.38,-555.12 21.38,-521.62 151.38,-521.62 151.38,-555.12"/>
<text xml:space="preserve" text-anchor="start" x="29.38" y="-541.62" font-family="Helvetica,sans-Serif" font-size="10.00">spdk_nvmf_fabric_prop</text>
<text xml:space="preserve" text-anchor="middle" x="86.38" y="-528.88" font-family="Helvetica,sans-Serif" font-size="10.00">_set_cmd</text>
</a>
</g>
</g>
<!-- Node44&#45;&gt;Node16 -->
<g id="edge8_Node000016_Node000044" class="edge">
<title>Node44&#45;&gt;Node16</title>
<g id="a_edge8_Node000016_Node000044"><a xlink:title=" ">
<path fill="none" stroke="#9a32cd" stroke-dasharray="5,2" d="M163.11,-526.37C197.16,-520.09 237.63,-511.39 273.25,-500.38 296.21,-493.28 321.39,-482.35 338.91,-474.21"/>
<polygon fill="#9a32cd" stroke="#9a32cd" points="162.53,-522.92 153.31,-528.14 163.77,-529.81 162.53,-522.92"/>
</a>
</g>
<text xml:space="preserve" text-anchor="start" x="197.88" y="-526.86" font-family="Helvetica,sans-Serif" font-size="10.00" fill="grey">prop_set_cmd</text>
</g>
<!-- Node45 -->
<g id="Node000045" class="node">
<title>Node45</title>
<g id="a_Node000045"><a xlink:href="structspdk__nvmf__fabric__prop__get__cmd.html" target="_top" xlink:title=" ">
<polygon fill="white" stroke="#bfbfbf" points="151.38,-503.12 21.38,-503.12 21.38,-469.62 151.38,-469.62 151.38,-503.12"/>
<text xml:space="preserve" text-anchor="start" x="29.38" y="-489.62" font-family="Helvetica,sans-Serif" font-size="10.00">spdk_nvmf_fabric_prop</text>
<text xml:space="preserve" text-anchor="middle" x="86.38" y="-476.88" font-family="Helvetica,sans-Serif" font-size="10.00">_get_cmd</text>
</a>
</g>
</g>
<!-- Node45&#45;&gt;Node16 -->
<g id="edge9_Node000016_Node000045" class="edge">
<title>Node45&#45;&gt;Node16</title>
<g id="a_edge9_Node000016_Node000045"><a xlink:title=" ">
<path fill="none" stroke="#9a32cd" stroke-dasharray="5,2" d="M162.87,-480.04C212.26,-475.89 275.1,-470.61 316.67,-467.12"/>
<polygon fill="#9a32cd" stroke="#9a32cd" points="162.77,-476.53 153.09,-480.86 163.35,-483.51 162.77,-476.53"/>
</a>
</g>
<text xml:space="preserve" text-anchor="start" x="197.5" y="-483.86" font-family="Helvetica,sans-Serif" font-size="10.00" fill="grey">prop_get_cmd</text>
</g>
<!-- Node46 -->
<g id="Node000046" class="node">
<title>Node46</title>
<g id="a_Node000046"><a xlink:href="structspdk__nvmf__fabric__connect__cmd.html" target="_top" xlink:title=" ">
<polygon fill="white" stroke="orangered" points="172.75,-451.75 0,-451.75 0,-431 172.75,-431 172.75,-451.75"/>
<text xml:space="preserve" text-anchor="middle" x="86.38" y="-438.25" font-family="Helvetica,sans-Serif" font-size="10.00">spdk_nvmf_fabric_connect_cmd</text>
</a>
</g>
</g>
<!-- Node46&#45;&gt;Node16 -->
<g id="edge10_Node000016_Node000046" class="edge">
<title>Node46&#45;&gt;Node16</title>
<g id="a_edge10_Node000016_Node000046"><a xlink:title=" ">
<path fill="none" stroke="#9a32cd" stroke-dasharray="5,2" d="M184.44,-440.37C213.11,-440.94 244.5,-442.42 273.25,-445.62 287.5,-447.21 302.87,-449.95 316.72,-452.81"/>
<polygon fill="#9a32cd" stroke="#9a32cd" points="184.75,-436.87 174.7,-440.21 184.64,-443.87 184.75,-436.87"/>
</a>
</g>
<text xml:space="preserve" text-anchor="start" x="199.75" y="-451.88" font-family="Helvetica,sans-Serif" font-size="10.00" fill="grey">connect_cmd</text>
</g>
<!-- Node47 -->
<g id="Node000047" class="node">
<title>Node47</title>
<g id="a_Node000047"><a xlink:href="structspdk__nvmf__fabric__auth__send__cmd.html" target="_top" xlink:title=" ">
<polygon fill="white" stroke="orangered" points="151.38,-413.12 21.38,-413.12 21.38,-379.62 151.38,-379.62 151.38,-413.12"/>
<text xml:space="preserve" text-anchor="start" x="29.38" y="-399.62" font-family="Helvetica,sans-Serif" font-size="10.00">spdk_nvmf_fabric_auth</text>
<text xml:space="preserve" text-anchor="middle" x="86.38" y="-386.88" font-family="Helvetica,sans-Serif" font-size="10.00">_send_cmd</text>
</a>
</g>
</g>
<!-- Node47&#45;&gt;Node16 -->
<g id="edge11_Node000016_Node000047" class="edge">
<title>Node47&#45;&gt;Node16</title>
<g id="a_edge11_Node000016_Node000047"><a xlink:title=" ">
<path fill="none" stroke="#9a32cd" stroke-dasharray="5,2" d="M163.13,-398.77C197.36,-401.44 237.95,-406.83 273.25,-417.62 299.93,-425.78 328.08,-441.93 345.16,-452.7"/>
<polygon fill="#9a32cd" stroke="#9a32cd" points="163.51,-395.29 153.29,-398.07 163.02,-402.27 163.51,-395.29"/>
</a>
</g>
<text xml:space="preserve" text-anchor="start" x="193.75" y="-423.88" font-family="Helvetica,sans-Serif" font-size="10.00" fill="grey">auth_send_cmd</text>
</g>
<!-- Node48 -->
<g id="Node000048" class="node">
<title>Node48</title>
<g id="a_Node000048"><a xlink:href="structspdk__nvmf__fabric__auth__recv__cmd.html" target="_top" xlink:title=" ">
<polygon fill="white" stroke="orangered" points="151.38,-361.12 21.38,-361.12 21.38,-327.62 151.38,-327.62 151.38,-361.12"/>
<text xml:space="preserve" text-anchor="start" x="29.38" y="-347.62" font-family="Helvetica,sans-Serif" font-size="10.00">spdk_nvmf_fabric_auth</text>
<text xml:space="preserve" text-anchor="middle" x="86.38" y="-334.88" font-family="Helvetica,sans-Serif" font-size="10.00">_recv_cmd</text>
</a>
</g>
</g>
<!-- Node48&#45;&gt;Node16 -->
<g id="edge12_Node000016_Node000048" class="edge">
<title>Node48&#45;&gt;Node16</title>
<g id="a_edge12_Node000016_Node000048"><a xlink:title=" ">
<path fill="none" stroke="#9a32cd" stroke-dasharray="5,2" d="M163.01,-348.31C198.09,-352.58 239.4,-361.24 273.25,-378.62 308.91,-396.94 339.88,-434.4 353.65,-452.76"/>
<polygon fill="#9a32cd" stroke="#9a32cd" points="163.69,-344.86 153.36,-347.23 162.91,-351.82 163.69,-344.86"/>
</a>
</g>
<text xml:space="preserve" text-anchor="start" x="194.88" y="-384.88" font-family="Helvetica,sans-Serif" font-size="10.00" fill="grey">auth_recv_cmd</text>
</g>
<!-- Node49 -->
<g id="Node000049" class="node">
<title>Node49</title>
<g id="a_Node000049"><a xlink:href="unionnvmf__c2h__msg.html" target="_top" xlink:title=" ">
<polygon fill="white" stroke="#bfbfbf" points="407.38,-264.75 317.12,-264.75 317.12,-244 407.38,-244 407.38,-264.75"/>
<text xml:space="preserve" text-anchor="middle" x="362.25" y="-251.25" font-family="Helvetica,sans-Serif" font-size="10.00">nvmf_c2h_msg</text>
</a>
</g>
</g>
<!-- Node49&#45;&gt;Node1 -->
<g id="edge13_Node000001_Node000049" class="edge">
<title>Node49&#45;&gt;Node1</title>
<g id="a_edge13_Node000001_Node000049"><a xlink:title=" ">
<path fill="none" stroke="#9a32cd" stroke-dasharray="5,2" d="M418.94,-250.63C451.97,-246.96 494.11,-239.71 529.25,-225.38 555.81,-214.54 582.43,-193.84 597.32,-181.16"/>
<polygon fill="#9a32cd" stroke="#9a32cd" points="418.76,-247.13 409.16,-251.63 419.47,-254.09 418.76,-247.13"/>
</a>
</g>
<text xml:space="preserve" text-anchor="start" x="482.75" y="-251.97" font-family="Helvetica,sans-Serif" font-size="10.00" fill="grey">rsp</text>
</g>
<!-- Node50 -->
<g id="Node000050" class="node">
<title>Node50</title>
<g id="a_Node000050"><a xlink:href="structspdk__nvme__cpl.html" target="_top" xlink:title="Completion queue entry.">
<polygon fill="#fff0f0" stroke="red" points="132.25,-309.75 40.5,-309.75 40.5,-289 132.25,-289 132.25,-309.75"/>
<text xml:space="preserve" text-anchor="middle" x="86.38" y="-296.25" font-family="Helvetica,sans-Serif" font-size="10.00">spdk_nvme_cpl</text>
</a>
</g>
</g>
<!-- Node50&#45;&gt;Node49 -->
<g id="edge14_Node000049_Node000050" class="edge">
<title>Node50&#45;&gt;Node49</title>
<g id="a_edge14_Node000049_Node000050"><a xlink:title=" ">
<path fill="none" stroke="#9a32cd" stroke-dasharray="5,2" d="M143.78,-294.74C180.79,-291.19 230.13,-285.52 273.25,-277.38 290.32,-274.15 308.97,-269.45 324.68,-265.14"/>
<polygon fill="#9a32cd" stroke="#9a32cd" points="143.85,-291.22 134.22,-295.63 144.5,-298.19 143.85,-291.22"/>
</a>
</g>
<text xml:space="preserve" text-anchor="start" x="208.38" y="-295.8" font-family="Helvetica,sans-Serif" font-size="10.00" fill="grey">nvme_cpl</text>
</g>
<!-- Node52 -->
<g id="Node000052" class="node">
<title>Node52</title>
<g id="a_Node000052"><a xlink:href="structspdk__nvmf__fabric__prop__get__rsp.html" target="_top" xlink:title=" ">
<polygon fill="white" stroke="orangered" points="151.38,-271.12 21.38,-271.12 21.38,-237.62 151.38,-237.62 151.38,-271.12"/>
<text xml:space="preserve" text-anchor="start" x="29.38" y="-257.62" font-family="Helvetica,sans-Serif" font-size="10.00">spdk_nvmf_fabric_prop</text>
<text xml:space="preserve" text-anchor="middle" x="86.38" y="-244.88" font-family="Helvetica,sans-Serif" font-size="10.00">_get_rsp</text>
</a>
</g>
</g>
<!-- Node52&#45;&gt;Node49 -->
<g id="edge15_Node000049_Node000052" class="edge">
<title>Node52&#45;&gt;Node49</title>
<g id="a_edge15_Node000049_Node000052"><a xlink:title=" ">
<path fill="none" stroke="#9a32cd" stroke-dasharray="5,2" d="M162.87,-254.38C212.26,-254.38 275.1,-254.38 316.67,-254.38"/>
<polygon fill="#9a32cd" stroke="#9a32cd" points="163.1,-250.88 153.1,-254.38 163.1,-257.88 163.1,-250.88"/>
</a>
</g>
<text xml:space="preserve" text-anchor="start" x="200.5" y="-260.62" font-family="Helvetica,sans-Serif" font-size="10.00" fill="grey">prop_get_rsp</text>
</g>
<!-- Node53 -->
<g id="Node000053" class="node">
<title>Node53</title>
<g id="a_Node000053"><a xlink:href="structspdk__nvmf__fabric__connect__rsp.html" target="_top" xlink:title=" ">
<polygon fill="white" stroke="orangered" points="169.75,-219.75 3,-219.75 3,-199 169.75,-199 169.75,-219.75"/>
<text xml:space="preserve" text-anchor="middle" x="86.38" y="-206.25" font-family="Helvetica,sans-Serif" font-size="10.00">spdk_nvmf_fabric_connect_rsp</text>
</a>
</g>
</g>
<!-- Node53&#45;&gt;Node49 -->
<g id="edge16_Node000049_Node000053" class="edge">
<title>Node53&#45;&gt;Node49</title>
<g id="a_edge16_Node000049_Node000053"><a xlink:title=" ">
<path fill="none" stroke="#9a32cd" stroke-dasharray="5,2" d="M181.25,-218.14C210.82,-221.56 243.51,-226.03 273.25,-231.62 290,-234.78 308.28,-239.32 323.81,-243.52"/>
<polygon fill="#9a32cd" stroke="#9a32cd" points="181.92,-214.69 171.59,-217.05 181.14,-221.65 181.92,-214.69"/>
</a>
</g>
<text xml:space="preserve" text-anchor="start" x="202.75" y="-237.88" font-family="Helvetica,sans-Serif" font-size="10.00" fill="grey">connect_rsp</text>
</g>
<!-- Node54 -->
<g id="Node000054" class="node">
<title>Node54</title>
<g id="a_Node000054"><a xlink:href="structspdk__nvmf__stripped__data.html" target="_top" xlink:title=" ">
<polygon fill="white" stroke="#bfbfbf" points="433.25,-222.75 291.25,-222.75 291.25,-202 433.25,-202 433.25,-222.75"/>
<text xml:space="preserve" text-anchor="middle" x="362.25" y="-209.25" font-family="Helvetica,sans-Serif" font-size="10.00">spdk_nvmf_stripped_data</text>
</a>
</g>
</g>
<!-- Node54&#45;&gt;Node1 -->
<g id="edge17_Node000001_Node000054" class="edge">
<title>Node54&#45;&gt;Node1</title>
<g id="a_edge17_Node000001_Node000054"><a xlink:title=" ">
<path fill="none" stroke="#9a32cd" stroke-dasharray="5,2" d="M444.76,-203.43C471.75,-199.98 501.89,-195.59 529.25,-190.38 542.49,-187.85 556.81,-184.49 569.63,-181.24"/>
<polygon fill="#9a32cd" stroke="#9a32cd" points="444.39,-199.95 434.9,-204.67 445.26,-206.9 444.39,-199.95"/>
</a>
</g>
<text xml:space="preserve" text-anchor="start" x="456.88" y="-208.71" font-family="Helvetica,sans-Serif" font-size="10.00" fill="grey">stripped_data</text>
</g>
<!-- Node55 -->
<g id="Node000055" class="node">
<title>Node55</title>
<g id="a_Node000055"><a xlink:href="structspdk__nvmf__dif__info.html" target="_top" xlink:title=" ">
<polygon fill="white" stroke="#bfbfbf" points="418.25,-180.75 306.25,-180.75 306.25,-160 418.25,-160 418.25,-180.75"/>
<text xml:space="preserve" text-anchor="middle" x="362.25" y="-167.25" font-family="Helvetica,sans-Serif" font-size="10.00">spdk_nvmf_dif_info</text>
</a>
</g>
</g>
<!-- Node55&#45;&gt;Node1 -->
<g id="edge18_Node000001_Node000055" class="edge">
<title>Node55&#45;&gt;Node1</title>
<g id="a_edge18_Node000001_Node000055"><a xlink:title=" ">
<path fill="none" stroke="#9a32cd" stroke-dasharray="5,2" d="M429.95,-170.38C468.78,-170.38 517.16,-170.38 553.9,-170.38"/>
<polygon fill="#9a32cd" stroke="#9a32cd" points="430,-166.88 420,-170.38 430,-173.88 430,-166.88"/>
</a>
</g>
<text xml:space="preserve" text-anchor="start" x="483.88" y="-176.62" font-family="Helvetica,sans-Serif" font-size="10.00" fill="grey">dif</text>
</g>
<!-- Node56 -->
<g id="Node000056" class="node">
<title>Node56</title>
<g id="a_Node000056"><a xlink:href="structspdk__dif__ctx.html" target="_top" xlink:title="DIF context information.">
<polygon fill="white" stroke="#666666" points="125.12,-180.75 47.62,-180.75 47.62,-160 125.12,-160 125.12,-180.75"/>
<text xml:space="preserve" text-anchor="middle" x="86.38" y="-167.25" font-family="Helvetica,sans-Serif" font-size="10.00">spdk_dif_ctx</text>
</a>
</g>
</g>
<!-- Node56&#45;&gt;Node55 -->
<g id="edge19_Node000055_Node000056" class="edge">
<title>Node56&#45;&gt;Node55</title>
<g id="a_edge19_Node000055_Node000056"><a xlink:title=" ">
<path fill="none" stroke="#9a32cd" stroke-dasharray="5,2" d="M136.72,-170.38C184.38,-170.38 256.42,-170.38 305.98,-170.38"/>
<polygon fill="#9a32cd" stroke="#9a32cd" points="136.97,-166.88 126.97,-170.38 136.97,-173.88 136.97,-166.88"/>
</a>
</g>
<text xml:space="preserve" text-anchor="start" x="215.5" y="-176.62" font-family="Helvetica,sans-Serif" font-size="10.00" fill="grey">dif_ctx</text>
</g>
<!-- Node57 -->
<g id="Node000057" class="node">
<title>Node57</title>
<g id="a_Node000057"><a xlink:href="structspdk__bdev__io__wait__entry.html" target="_top" xlink:title="Structure to register a callback when an spdk_bdev_io becomes available.">
<polygon fill="white" stroke="#666666" points="432.12,-138.75 292.38,-138.75 292.38,-118 432.12,-118 432.12,-138.75"/>
<text xml:space="preserve" text-anchor="middle" x="362.25" y="-125.25" font-family="Helvetica,sans-Serif" font-size="10.00">spdk_bdev_io_wait_entry</text>
</a>
</g>
</g>
<!-- Node57&#45;&gt;Node1 -->
<g id="edge20_Node000001_Node000057" class="edge">
<title>Node57&#45;&gt;Node1</title>
<g id="a_edge20_Node000001_Node000057"><a xlink:title=" ">
<path fill="none" stroke="#9a32cd" stroke-dasharray="5,2" d="M443.4,-135.03C470.78,-138 501.49,-142.11 529.25,-147.62 544.71,-150.7 561.53,-155.28 575.75,-159.52"/>
<polygon fill="#9a32cd" stroke="#9a32cd" points="444.1,-131.59 433.79,-134.03 443.37,-138.55 444.1,-131.59"/>
</a>
</g>
<text xml:space="preserve" text-anchor="start" x="458" y="-153.88" font-family="Helvetica,sans-Serif" font-size="10.00" fill="grey">bdev_io_wait</text>
</g>
<!-- Node58 -->
<g id="Node000058" class="node">
<title>Node58</title>
<g id="a_Node000058"><a xlink:href="structspdk__bdev.html" target="_top" xlink:title=" ">
<polygon fill="white" stroke="orangered" points="120.62,-117.75 52.12,-117.75 52.12,-97 120.62,-97 120.62,-117.75"/>
<text xml:space="preserve" text-anchor="middle" x="86.38" y="-104.25" font-family="Helvetica,sans-Serif" font-size="10.00">spdk_bdev</text>
</a>
</g>
</g>
<!-- Node58&#45;&gt;Node57 -->
<g id="edge21_Node000057_Node000058" class="edge">
<title>Node58&#45;&gt;Node57</title>
<g id="a_edge21_Node000057_Node000058"><a xlink:title=" ">
<path fill="none" stroke="#9a32cd" stroke-dasharray="5,2" d="M132.27,-110.82C175.58,-114.14 241.79,-119.21 291.89,-123.06"/>
<polygon fill="#9a32cd" stroke="#9a32cd" points="132.7,-107.34 122.47,-110.07 132.17,-114.32 132.7,-107.34"/>
</a>
</g>
<text xml:space="preserve" text-anchor="start" x="220" y="-127.83" font-family="Helvetica,sans-Serif" font-size="10.00" fill="grey">bdev</text>
</g>
<!-- Node69 -->
<g id="Node000069" class="node">
<title>Node69</title>
<g id="a_Node000069"><a xlink:href="structspdk__bdev__io.html" target="_top" xlink:title=" ">
<polygon fill="white" stroke="orangered" points="403.62,-96.75 320.88,-96.75 320.88,-76 403.62,-76 403.62,-96.75"/>
<text xml:space="preserve" text-anchor="middle" x="362.25" y="-83.25" font-family="Helvetica,sans-Serif" font-size="10.00">spdk_bdev_io</text>
</a>
</g>
</g>
<!-- Node58&#45;&gt;Node69 -->
<g id="edge24_Node000069_Node000058" class="edge">
<title>Node58&#45;&gt;Node69</title>
<g id="a_edge24_Node000069_Node000058"><a xlink:title=" ">
<path fill="none" stroke="#9a32cd" stroke-dasharray="5,2" d="M131.96,-99.97C150.14,-97.22 171.4,-94.36 190.75,-92.62 235,-88.67 285.93,-87.2 320.52,-86.67"/>
<polygon fill="#9a32cd" stroke="#9a32cd" points="131.63,-96.48 122.29,-101.47 132.71,-103.39 131.63,-96.48"/>
</a>
</g>
<text xml:space="preserve" text-anchor="start" x="220" y="-98.88" font-family="Helvetica,sans-Serif" font-size="10.00" fill="grey">bdev</text>
</g>
<!-- Node69&#45;&gt;Node1 -->
<g id="edge23_Node000001_Node000069" class="edge">
<title>Node69&#45;&gt;Node1</title>
<g id="a_edge23_Node000001_Node000069"><a xlink:title=" ">
<path fill="none" stroke="#9a32cd" stroke-dasharray="5,2" d="M415.28,-88.88C448.85,-91.93 492.88,-98.7 529.25,-113.62 556.37,-124.76 583.22,-146.55 597.92,-159.65"/>
<polygon fill="#9a32cd" stroke="#9a32cd" points="415.63,-85.39 405.38,-88.06 415.06,-92.37 415.63,-85.39"/>
</a>
</g>
<text xml:space="preserve" text-anchor="start" x="454.25" y="-119.88" font-family="Helvetica,sans-Serif" font-size="10.00" fill="grey">zcopy_bdev_io</text>
</g>
<!-- Node79 -->
<g id="Node000079" class="node">
<title>Node79</title>
<g id="a_Node000079"><a xlink:href="structspdk__iobuf__entry.html" target="_top" xlink:title="iobuf queue entry">
<polygon fill="white" stroke="#666666" points="412.25,-20.75 312.25,-20.75 312.25,0 412.25,0 412.25,-20.75"/>
<text xml:space="preserve" text-anchor="middle" x="362.25" y="-7.25" font-family="Helvetica,sans-Serif" font-size="10.00">spdk_iobuf_entry</text>
</a>
</g>
</g>
<!-- Node79&#45;&gt;Node1 -->
<g id="edge25_Node000001_Node000079" class="edge">
<title>Node79&#45;&gt;Node1</title>
<g id="a_edge25_Node000001_Node000079"><a xlink:title=" ">
<path fill="none" stroke="#9a32cd" stroke-dasharray="5,2" d="M423.71,-23.76C456.98,-33.14 497.78,-48.1 529.25,-70.62 564.11,-95.57 591.95,-139.6 603.54,-159.76"/>
<polygon fill="#9a32cd" stroke="#9a32cd" points="424.77,-20.42 414.2,-21.19 422.94,-27.18 424.77,-20.42"/>
</a>
</g>
<text xml:space="preserve" text-anchor="start" x="477.5" y="-76.88" font-family="Helvetica,sans-Serif" font-size="10.00" fill="grey">entry</text>
</g>
<!-- Node79&#45;&gt;Node79 -->
<g id="edge26_Node000079_Node000079" class="edge">
<title>Node79&#45;&gt;Node79</title>
<g id="a_edge26_Node000079_Node000079"><a xlink:title=" ">
<path fill="none" stroke="#9a32cd" stroke-dasharray="5,2" d="M339.73,-32.24C342.71,-36.08 350.22,-38.75 362.25,-38.75 384.25,-38.75 391.12,-29.81 382.88,-21.15"/>
<polygon fill="#9a32cd" stroke="#9a32cd" points="343.13,-33.09 341.37,-22.64 336.23,-31.91 343.13,-33.09"/>
</a>
</g>
<text xml:space="preserve" text-anchor="start" x="349.12" y="-45" font-family="Helvetica,sans-Serif" font-size="10.00" fill="grey">cb_fn</text>
</g>
</g>
</svg>
