<?xml version="1.0" encoding="UTF-8" standalone="no"?>
<!DOCTYPE svg PUBLIC "-//W3C//DTD SVG 1.1//EN"
 "http://www.w3.org/Graphics/SVG/1.1/DTD/svg11.dtd">
<!-- Generated by graphviz version 13.1.2 (20250808.2320)
 -->
<!-- Title: spdk_nvmf_transport_ops Pages: 1 -->
<!--zoomable 207 -->

<svg id="main" version="1.1" xmlns="http://www.w3.org/2000/svg" xmlns:xlink="http://www.w3.org/1999/xlink" xml:space="preserve" onload="init(evt)">

<style type="text/css"><![CDATA[
.node, .edge {opacity: 0.7;}
.node.selected, .edge.selected {opacity: 1;}
.edge:hover path { stroke: red; }
.edge:hover polygon { stroke: red; fill: red; }
]]></style>

<defs>
  <circle id="rim" cx="0" cy="0" r="7"/>
  <circle id="rim2" cx="0" cy="0" r="3.5"/>
  <g id="zoomPlus">
    <use xlink:href="#rim" fill="#404040"><set attributeName="fill" to="#808080" begin="zoomplus.mouseover" end="zoomplus.mouseout"/></use>
    <path d="M-4,0h8M0,-4v8" fill="none" stroke="white" stroke-width="1.5" pointer-events="none"/>
  </g>
  <g id="zoomMin">
    <use xlink:href="#rim" fill="#404040"><set attributeName="fill" to="#808080" begin="zoomminus.mouseover" end="zoomminus.mouseout"/></use>
    <path d="M-4,0h8" fill="none" stroke="white" stroke-width="1.5" pointer-events="none"/>
  </g>
  <g id="arrowUp" transform="translate(30 24)">
    <use xlink:href="#rim"/>
    <path pointer-events="none" fill="none" stroke="white" stroke-width="1.5" d="M0,-3.0v7 M-2.5,-0.5L0,-3.0L2.5,-0.5"/>
  </g>
  <g id="arrowRight" transform="rotate(90) translate(36 -43)">
    <use xlink:href="#rim"/>
    <path pointer-events="none" fill="none" stroke="white" stroke-width="1.5" d="M0,-3.0v7 M-2.5,-0.5L0,-3.0L2.5,-0.5"/>
  </g>
  <g id="arrowDown" transform="rotate(180) translate(-30 -48)">
    <use xlink:href="#rim"/>
    <path pointer-events="none" fill="none" stroke="white" stroke-width="1.5" d="M0,-3.0v7 M-2.5,-0.5L0,-3.0L2.5,-0.5"/>
  </g>
  <g id="arrowLeft" transform="rotate(270) translate(-36 17)">
    <use xlink:href="#rim"/>
    <path pointer-events="none" fill="none" stroke="white" stroke-width="1.5" d="M0,-3.0v7 M-2.5,-0.5L0,-3.0L2.5,-0.5"/>
  </g>
  <g id="resetDef">
    <use xlink:href="#rim2" fill="#404040"><set attributeName="fill" to="#808080" begin="reset.mouseover" end="reset.mouseout"/></use>
  </g>
</defs>
<script type="application/ecmascript">
var viewWidth = 546;
var viewHeight = 207;
var sectionId = 'dynsection-0';
</script>
<script type="application/ecmascript" xlink:href="svg.min.js"/>
<svg id="graph" class="graph">
<g id="viewport">
<title>spdk_nvmf_transport_ops</title>
<!-- Node1 -->
<g id="Node000001" class="node">
<title>Node1</title>
<g id="a_Node000001"><a xlink:title=" ">
<polygon fill="#999999" stroke="#666666" points="142,-199.25 0,-199.25 0,-178.5 142,-178.5 142,-199.25"/>
<text xml:space="preserve" text-anchor="middle" x="71" y="-185.75" font-family="Helvetica,sans-Serif" font-size="10.00">spdk_nvmf_transport_ops</text>
</a>
</g>
</g>
<!-- Node2 -->
<g id="Node000002" class="node">
<title>Node2</title>
<g id="a_Node000002"><a xlink:href="structspdk__nvmf__transport.html" target="_top" xlink:title=" ">
<polygon fill="white" stroke="#bfbfbf" points="262.75,-116.38 143.25,-116.38 143.25,-95.62 262.75,-95.62 262.75,-116.38"/>
<text xml:space="preserve" text-anchor="middle" x="203" y="-102.88" font-family="Helvetica,sans-Serif" font-size="10.00">spdk_nvmf_transport</text>
</a>
</g>
</g>
<!-- Node1&#45;&gt;Node2 -->
<g id="edge2_Node000002_Node000001" class="edge">
<title>Node1&#45;&gt;Node2</title>
<g id="a_edge2_Node000002_Node000001"><a xlink:title=" ">
<path fill="none" stroke="#9a32cd" stroke-dasharray="5,2" d="M122.06,-174.42C132.05,-170.7 142.17,-166.1 151,-160.5 169.82,-148.58 186.82,-128.53 195.96,-116.65"/>
<polygon fill="#9a32cd" stroke="#9a32cd" points="121.07,-171.06 112.76,-177.64 123.35,-177.68 121.07,-171.06"/>
</a>
</g>
<text xml:space="preserve" text-anchor="start" x="176.15" y="-148" font-family="Helvetica,sans-Serif" font-size="10.00" fill="grey">ops</text>
</g>
<!-- Node2&#45;&gt;Node1 -->
<g id="edge1_Node000001_Node000002" class="edge">
<title>Node2&#45;&gt;Node1</title>
<g id="a_edge1_Node000001_Node000002"><a xlink:title=" ">
<path fill="none" stroke="#9a32cd" stroke-dasharray="5,2" d="M156.85,-120.65C142.52,-126.02 127.13,-133.02 114.25,-141.75 99.34,-151.85 85.79,-167.94 77.97,-178.2"/>
<polygon fill="#9a32cd" stroke="#9a32cd" points="157.85,-124.01 166.1,-117.37 155.51,-117.41 157.85,-124.01"/>
</a>
</g>
<text xml:space="preserve" text-anchor="start" x="117.25" y="-148" font-family="Helvetica,sans-Serif" font-size="10.00" fill="grey">create</text>
</g>
<!-- Node7 -->
<g id="Node000007" class="node">
<title>Node7</title>
<g id="a_Node000007"><a xlink:href="structspdk__nvmf__transport__poll__group.html" target="_top" xlink:title=" ">
<polygon fill="white" stroke="#bfbfbf" points="359.75,-33.5 240.25,-33.5 240.25,0 359.75,0 359.75,-33.5"/>
<text xml:space="preserve" text-anchor="start" x="248.25" y="-20" font-family="Helvetica,sans-Serif" font-size="10.00">spdk_nvmf_transport</text>
<text xml:space="preserve" text-anchor="middle" x="300" y="-7.25" font-family="Helvetica,sans-Serif" font-size="10.00">_poll_group</text>
</a>
</g>
</g>
<!-- Node2&#45;&gt;Node7 -->
<g id="edge5_Node000007_Node000002" class="edge">
<title>Node2&#45;&gt;Node7</title>
<g id="a_edge5_Node000007_Node000002"><a xlink:title=" ">
<path fill="none" stroke="#9a32cd" stroke-dasharray="5,2" d="M221.31,-87.71C232.59,-77.15 247.39,-63.42 260.75,-51.5 267.32,-45.64 274.61,-39.31 281.11,-33.75"/>
<polygon fill="#9a32cd" stroke="#9a32cd" points="219.11,-84.98 214.22,-94.38 223.9,-90.08 219.11,-84.98"/>
</a>
</g>
<text xml:space="preserve" text-anchor="start" x="263.75" y="-57.75" font-family="Helvetica,sans-Serif" font-size="10.00" fill="grey">transport</text>
</g>
<!-- Node3 -->
<g id="Node000003" class="node">
<title>Node3</title>
<g id="a_Node000003"><a xlink:href="structspdk__nvmf__transport__opts.html" target="_top" xlink:title=" ">
<polygon fill="white" stroke="orangered" points="305.88,-199.25 160.12,-199.25 160.12,-178.5 305.88,-178.5 305.88,-199.25"/>
<text xml:space="preserve" text-anchor="middle" x="233" y="-185.75" font-family="Helvetica,sans-Serif" font-size="10.00">spdk_nvmf_transport_opts</text>
</a>
</g>
</g>
<!-- Node3&#45;&gt;Node2 -->
<g id="edge3_Node000002_Node000003" class="edge">
<title>Node3&#45;&gt;Node2</title>
<g id="a_edge3_Node000002_Node000003"><a xlink:title=" ">
<path fill="none" stroke="#9a32cd" stroke-dasharray="5,2" d="M225.5,-167.67C219.45,-151.34 211.2,-129.1 206.55,-116.58"/>
<polygon fill="#9a32cd" stroke="#9a32cd" points="222.15,-168.7 228.91,-176.86 228.72,-166.27 222.15,-168.7"/>
</a>
</g>
<text xml:space="preserve" text-anchor="start" x="225.44" y="-148" font-family="Helvetica,sans-Serif" font-size="10.00" fill="grey">opts</text>
</g>
<!-- Node7&#45;&gt;Node1 -->
<g id="edge4_Node000001_Node000007" class="edge">
<title>Node7&#45;&gt;Node1</title>
<g id="a_edge4_Node000001_Node000007"><a xlink:title=" ">
<path fill="none" stroke="#9a32cd" stroke-dasharray="5,2" d="M228.63,-25.31C152.57,-35.01 39.54,-54.72 13.25,-88.25 -10.55,-118.62 34.36,-159.82 57.9,-178.26"/>
<polygon fill="#9a32cd" stroke="#9a32cd" points="229.04,-28.79 238.53,-24.08 228.17,-21.84 229.04,-28.79"/>
</a>
</g>
<text xml:space="preserve" text-anchor="start" x="16.25" y="-111.25" font-family="Helvetica,sans-Serif" font-size="10.00" fill="grey">get_optimal_poll_group</text>
<text xml:space="preserve" text-anchor="start" x="16.25" y="-94.5" font-family="Helvetica,sans-Serif" font-size="10.00" fill="grey">poll_group_create</text>
</g>
<!-- Node8 -->
<g id="Node000008" class="node">
<title>Node8</title>
<g id="a_Node000008"><a xlink:href="structspdk__iobuf__channel.html" target="_top" xlink:title="iobuf channel">
<polygon fill="#fff0f0" stroke="red" points="393.38,-116.38 280.62,-116.38 280.62,-95.62 393.38,-95.62 393.38,-116.38"/>
<text xml:space="preserve" text-anchor="middle" x="337" y="-102.88" font-family="Helvetica,sans-Serif" font-size="10.00">spdk_iobuf_channel</text>
</a>
</g>
</g>
<!-- Node8&#45;&gt;Node7 -->
<g id="edge6_Node000007_Node000008" class="edge">
<title>Node8&#45;&gt;Node7</title>
<g id="a_edge6_Node000007_Node000008"><a xlink:title=" ">
<path fill="none" stroke="#9a32cd" stroke-dasharray="5,2" d="M328.44,-84.81C321.89,-69.36 312.98,-48.35 306.89,-33.99"/>
<polygon fill="#9a32cd" stroke="#9a32cd" points="325.18,-86.1 332.31,-93.94 331.63,-83.36 325.18,-86.1"/>
</a>
</g>
<text xml:space="preserve" text-anchor="start" x="324.81" y="-57.75" font-family="Helvetica,sans-Serif" font-size="10.00" fill="grey">buf_cache</text>
</g>
<!-- Node12 -->
<g id="Node000012" class="node">
<title>Node12</title>
<g id="a_Node000012"><a xlink:href="structspdk__nvmf__poll__group.html" target="_top" xlink:title=" ">
<polygon fill="white" stroke="orangered" points="538.12,-116.38 411.88,-116.38 411.88,-95.62 538.12,-95.62 538.12,-116.38"/>
<text xml:space="preserve" text-anchor="middle" x="475" y="-102.88" font-family="Helvetica,sans-Serif" font-size="10.00">spdk_nvmf_poll_group</text>
</a>
</g>
</g>
<!-- Node12&#45;&gt;Node7 -->
<g id="edge7_Node000007_Node000012" class="edge">
<title>Node12&#45;&gt;Node7</title>
<g id="a_edge7_Node000007_Node000012"><a xlink:title=" ">
<path fill="none" stroke="#9a32cd" stroke-dasharray="5,2" d="M449.56,-89.39C430.91,-78.23 404.79,-63.17 381,-51.5 368.42,-45.33 354.42,-39.23 341.64,-33.96"/>
<polygon fill="#9a32cd" stroke="#9a32cd" points="447.69,-92.35 458.06,-94.52 451.31,-86.36 447.69,-92.35"/>
</a>
</g>
<text xml:space="preserve" text-anchor="start" x="418.19" y="-57.75" font-family="Helvetica,sans-Serif" font-size="10.00" fill="grey">group</text>
</g>
</g>
</svg>

<g id="navigator" transform="translate(0 0)" fill="#404254">
  <rect fill="#f2f5e9" fill-opacity="0.5" stroke="#606060" stroke-width=".5" x="0" y="0" width="60" height="60"/>
  <use id="zoomplus" xlink:href="#zoomPlus" x="17" y="9" onmousedown="handleZoom(evt,'in')"/>
  <use id="zoomminus" xlink:href="#zoomMin" x="42" y="9" onmousedown="handleZoom(evt,'out')"/>
  <use id="reset" xlink:href="#resetDef" x="30" y="36" onmousedown="handleReset()"/>
   <use id="arrowup" xlink:href="#arrowUp" x="0" y="0" onmousedown="handlePan(0,-1)"/>
  <use id="arrowright" xlink:href="#arrowRight" x="0" y="0" onmousedown="handlePan(1,0)"/>
  <use id="arrowdown" xlink:href="#arrowDown" x="0" y="0" onmousedown="handlePan(0,1)"/>
  <use id="arrowleft" xlink:href="#arrowLeft" x="0" y="0" onmousedown="handlePan(-1,0)"/>
</g>
<svg viewBox="0 0 15 15" width="100%" height="30px" preserveAspectRatio="xMaxYMin meet">
 <g id="arrow_out" transform="scale(0.3 0.3)">
  <a xlink:href="structspdk__nvmf__transport__ops__coll__graph_org.svg" target="_base">
   <rect id="button" ry="5" rx="5" y="6" x="6" height="38" width="38"
        fill="#f2f5e9" fill-opacity="0.5" stroke="#606060" stroke-width="1.0"/>
   <path id="arrow"
     d="M 11.500037,31.436501 C 11.940474,20.09759 22.043105,11.32322 32.158766,21.979434 L 37.068811,17.246167 C 37.068811,17.246167 37.088388,32 37.088388,32 L 22.160133,31.978069 C 22.160133,31.978069 26.997745,27.140456 26.997745,27.140456 C 18.528582,18.264221 13.291696,25.230495 11.500037,31.436501 z"
     style="fill:#404040;"/>
  </a>
 </g>
</svg>

<style type='text/css'>
<![CDATA[
[data-mouse-over-selected='false'] { opacity: 0.7; }
[data-mouse-over-selected='true']  { opacity: 1.0; }
]]>
</style>
<script type="application/ecmascript"><![CDATA[
document.addEventListener('DOMContentLoaded', (event) => {
  highlightEdges();
  highlightAdjacentNodes();
});
]]></script>
</svg>
