<?xml version="1.0" encoding="UTF-8" standalone="no"?>
<!DOCTYPE svg PUBLIC "-//W3C//DTD SVG 1.1//EN"
 "http://www.w3.org/Graphics/SVG/1.1/DTD/svg11.dtd">
<!-- Generated by graphviz version 13.1.2 (20250808.2320)
 -->
<!-- Title: spdk_bdev Pages: 1 -->
<!--zoomable 261 -->

<svg id="main" version="1.1" xmlns="http://www.w3.org/2000/svg" xmlns:xlink="http://www.w3.org/1999/xlink" xml:space="preserve" onload="init(evt)">

<style type="text/css"><![CDATA[
.node, .edge {opacity: 0.7;}
.node.selected, .edge.selected {opacity: 1;}
.edge:hover path { stroke: red; }
.edge:hover polygon { stroke: red; fill: red; }
]]></style>

<defs>
  <circle id="rim" cx="0" cy="0" r="7"/>
  <circle id="rim2" cx="0" cy="0" r="3.5"/>
  <g id="zoomPlus">
    <use xlink:href="#rim" fill="#404040"><set attributeName="fill" to="#808080" begin="zoomplus.mouseover" end="zoomplus.mouseout"/></use>
    <path d="M-4,0h8M0,-4v8" fill="none" stroke="white" stroke-width="1.5" pointer-events="none"/>
  </g>
  <g id="zoomMin">
    <use xlink:href="#rim" fill="#404040"><set attributeName="fill" to="#808080" begin="zoomminus.mouseover" end="zoomminus.mouseout"/></use>
    <path d="M-4,0h8" fill="none" stroke="white" stroke-width="1.5" pointer-events="none"/>
  </g>
  <g id="arrowUp" transform="translate(30 24)">
    <use xlink:href="#rim"/>
    <path pointer-events="none" fill="none" stroke="white" stroke-width="1.5" d="M0,-3.0v7 M-2.5,-0.5L0,-3.0L2.5,-0.5"/>
  </g>
  <g id="arrowRight" transform="rotate(90) translate(36 -43)">
    <use xlink:href="#rim"/>
    <path pointer-events="none" fill="none" stroke="white" stroke-width="1.5" d="M0,-3.0v7 M-2.5,-0.5L0,-3.0L2.5,-0.5"/>
  </g>
  <g id="arrowDown" transform="rotate(180) translate(-30 -48)">
    <use xlink:href="#rim"/>
    <path pointer-events="none" fill="none" stroke="white" stroke-width="1.5" d="M0,-3.0v7 M-2.5,-0.5L0,-3.0L2.5,-0.5"/>
  </g>
  <g id="arrowLeft" transform="rotate(270) translate(-36 17)">
    <use xlink:href="#rim"/>
    <path pointer-events="none" fill="none" stroke="white" stroke-width="1.5" d="M0,-3.0v7 M-2.5,-0.5L0,-3.0L2.5,-0.5"/>
  </g>
  <g id="resetDef">
    <use xlink:href="#rim2" fill="#404040"><set attributeName="fill" to="#808080" begin="reset.mouseover" end="reset.mouseout"/></use>
  </g>
</defs>
<script type="application/ecmascript">
var viewWidth = 1183;
var viewHeight = 261;
var sectionId = 'dynsection-0';
</script>
<script type="application/ecmascript" xlink:href="svg.min.js"/>
<svg id="graph" class="graph">
<g id="viewport">
<title>spdk_bdev</title>
<!-- Node1 -->
<g id="Node000001" class="node">
<title>Node1</title>
<g id="a_Node000001"><a xlink:title=" ">
<polygon fill="#999999" stroke="#666666" points="666.25,-154.75 597.75,-154.75 597.75,-134 666.25,-134 666.25,-154.75"/>
<text xml:space="preserve" text-anchor="middle" x="632" y="-141.25" font-family="Helvetica,sans-Serif" font-size="10.00">spdk_bdev</text>
</a>
</g>
</g>
<!-- Node12 -->
<g id="Node000012" class="node">
<title>Node12</title>
<g id="a_Node000012"><a xlink:href="structspdk__bdev__io.html" target="_top" xlink:title=" ">
<polygon fill="white" stroke="orangered" points="855.12,-204.75 772.38,-204.75 772.38,-184 855.12,-184 855.12,-204.75"/>
<text xml:space="preserve" text-anchor="middle" x="813.75" y="-191.25" font-family="Helvetica,sans-Serif" font-size="10.00">spdk_bdev_io</text>
</a>
</g>
</g>
<!-- Node1&#45;&gt;Node12 -->
<g id="edge11_Node000012_Node000001" class="edge">
<title>Node1&#45;&gt;Node12</title>
<g id="a_edge11_Node000012_Node000001"><a xlink:title=" ">
<path fill="none" stroke="#9a32cd" stroke-dasharray="5,2" d="M664.44,-159.76C670.89,-162.55 677.71,-165.25 684.25,-167.38 712.97,-176.72 746.39,-183.62 771.94,-188.11"/>
<polygon fill="#9a32cd" stroke="#9a32cd" points="665.97,-156.61 655.42,-155.67 663.08,-162.98 665.97,-156.61"/>
</a>
</g>
<text xml:space="preserve" text-anchor="start" x="687.25" y="-181.59" font-family="Helvetica,sans-Serif" font-size="10.00" fill="grey">bdev</text>
</g>
<!-- Node52 -->
<g id="Node000052" class="node">
<title>Node52</title>
<g id="a_Node000052"><a xlink:href="structspdk__bdev__name.html" target="_top" xlink:title=" ">
<polygon fill="white" stroke="#bfbfbf" points="864.5,-165.75 763,-165.75 763,-145 864.5,-145 864.5,-165.75"/>
<text xml:space="preserve" text-anchor="middle" x="813.75" y="-152.25" font-family="Helvetica,sans-Serif" font-size="10.00">spdk_bdev_name</text>
</a>
</g>
</g>
<!-- Node1&#45;&gt;Node52 -->
<g id="edge14_Node000052_Node000001" class="edge">
<title>Node1&#45;&gt;Node52</title>
<g id="a_edge14_Node000052_Node000001"><a xlink:title=" ">
<path fill="none" stroke="#9a32cd" stroke-dasharray="5,2" d="M678.03,-146.6C689.82,-147.22 702.51,-147.92 714.25,-148.62 729.99,-149.58 747.14,-150.72 762.65,-151.78"/>
<polygon fill="#9a32cd" stroke="#9a32cd" points="678.29,-143.11 668.12,-146.09 677.93,-150.1 678.29,-143.11"/>
</a>
</g>
<text xml:space="preserve" text-anchor="start" x="687.25" y="-154.88" font-family="Helvetica,sans-Serif" font-size="10.00" fill="grey">bdev</text>
</g>
<!-- Node2 -->
<g id="Node000002" class="node">
<title>Node2</title>
<g id="a_Node000002"><a xlink:href="structspdk__uuid.html" target="_top" xlink:title=" ">
<polygon fill="white" stroke="#bfbfbf" points="481.5,-112.75 416,-112.75 416,-92 481.5,-92 481.5,-112.75"/>
<text xml:space="preserve" text-anchor="middle" x="448.75" y="-99.25" font-family="Helvetica,sans-Serif" font-size="10.00">spdk_uuid</text>
</a>
</g>
</g>
<!-- Node2&#45;&gt;Node1 -->
<g id="edge1_Node000001_Node000002" class="edge">
<title>Node2&#45;&gt;Node1</title>
<g id="a_edge1_Node000001_Node000002"><a xlink:title=" ">
<path fill="none" stroke="#9a32cd" stroke-dasharray="5,2" d="M492.99,-105.82C518.59,-108.58 551.44,-113.41 579.75,-121.62 590.03,-124.61 600.94,-129.23 610.04,-133.53"/>
<polygon fill="#9a32cd" stroke="#9a32cd" points="493.59,-102.36 483.29,-104.84 492.89,-109.33 493.59,-102.36"/>
</a>
</g>
<text xml:space="preserve" text-anchor="start" x="546" y="-127.88" font-family="Helvetica,sans-Serif" font-size="10.00" fill="grey">uuid</text>
</g>
<!-- Node3 -->
<g id="Node000003" class="node">
<title>Node3</title>
<g id="a_Node000003"><a xlink:href="unionspdk__bdev__nvme__ctratt.html" target="_top" xlink:title="Controller attributes indicating optional bdev capabilities (e.g.">
<polygon fill="white" stroke="#666666" points="515.25,-70.75 382.25,-70.75 382.25,-50 515.25,-50 515.25,-70.75"/>
<text xml:space="preserve" text-anchor="middle" x="448.75" y="-57.25" font-family="Helvetica,sans-Serif" font-size="10.00">spdk_bdev_nvme_ctratt</text>
</a>
</g>
</g>
<!-- Node3&#45;&gt;Node1 -->
<g id="edge2_Node000001_Node000003" class="edge">
<title>Node3&#45;&gt;Node1</title>
<g id="a_edge2_Node000001_Node000003"><a xlink:title=" ">
<path fill="none" stroke="#9a32cd" stroke-dasharray="5,2" d="M526.93,-69.05C545.06,-73.24 563.74,-79.44 579.75,-88.62 599.37,-99.87 615.76,-121.17 624.4,-133.94"/>
<polygon fill="#9a32cd" stroke="#9a32cd" points="527.73,-65.64 517.23,-67.01 526.29,-72.49 527.73,-65.64"/>
</a>
</g>
<text xml:space="preserve" text-anchor="start" x="543.38" y="-94.88" font-family="Helvetica,sans-Serif" font-size="10.00" fill="grey">ctratt</text>
</g>
<!-- Node4 -->
<g id="Node000004" class="node">
<title>Node4</title>
<g id="a_Node000004"><a xlink:href="structspdk__bdev__module.html" target="_top" xlink:title="Block device module.">
<polygon fill="white" stroke="#666666" points="504,-194.75 393.5,-194.75 393.5,-174 504,-174 504,-194.75"/>
<text xml:space="preserve" text-anchor="middle" x="448.75" y="-181.25" font-family="Helvetica,sans-Serif" font-size="10.00">spdk_bdev_module</text>
</a>
</g>
</g>
<!-- Node4&#45;&gt;Node1 -->
<g id="edge3_Node000001_Node000004" class="edge">
<title>Node4&#45;&gt;Node1</title>
<g id="a_edge3_Node000001_Node000004"><a xlink:title=" ">
<path fill="none" stroke="#9a32cd" stroke-dasharray="5,2" d="M515.64,-177.1C536.36,-174.05 559.19,-169.9 579.75,-164.38 588.7,-161.97 598.22,-158.52 606.6,-155.16"/>
<polygon fill="#9a32cd" stroke="#9a32cd" points="515.3,-173.61 505.88,-178.47 516.27,-180.54 515.3,-173.61"/>
</a>
</g>
<text xml:space="preserve" text-anchor="start" x="538.12" y="-180.45" font-family="Helvetica,sans-Serif" font-size="10.00" fill="grey">module</text>
</g>
<!-- Node5 -->
<g id="Node000005" class="node">
<title>Node5</title>
<g id="a_Node000005"><a xlink:href="structspdk__bdev__module_1_1____bdev__module__internal__fields.html" target="_top" xlink:title="Fields that are used by the internal bdev subsystem.">
<polygon fill="white" stroke="#666666" points="302.75,-206.5 167.5,-206.5 167.5,-160.25 302.75,-160.25 302.75,-206.5"/>
<text xml:space="preserve" text-anchor="start" x="175.5" y="-193" font-family="Helvetica,sans-Serif" font-size="10.00">spdk_bdev_module::</text>
<text xml:space="preserve" text-anchor="start" x="175.5" y="-180.25" font-family="Helvetica,sans-Serif" font-size="10.00">__bdev_module_internal</text>
<text xml:space="preserve" text-anchor="middle" x="235.12" y="-167.5" font-family="Helvetica,sans-Serif" font-size="10.00">_fields</text>
</a>
</g>
</g>
<!-- Node5&#45;&gt;Node4 -->
<g id="edge4_Node000004_Node000005" class="edge">
<title>Node5&#45;&gt;Node4</title>
<g id="a_edge4_Node000004_Node000005"><a xlink:title=" ">
<path fill="none" stroke="#9a32cd" stroke-dasharray="5,2" d="M314.53,-183.75C340.71,-183.87 369.3,-184 393.25,-184.12"/>
<polygon fill="#9a32cd" stroke="#9a32cd" points="314.61,-180.25 304.6,-183.7 314.58,-187.25 314.61,-180.25"/>
</a>
</g>
<text xml:space="preserve" text-anchor="start" x="323.75" y="-190.21" font-family="Helvetica,sans-Serif" font-size="10.00" fill="grey">internal</text>
</g>
<!-- Node6 -->
<g id="Node000006" class="node">
<title>Node6</title>
<g id="a_Node000006"><a xlink:href="structspdk__spinlock.html" target="_top" xlink:title="A spinlock augmented with safety checks for use with SPDK.">
<polygon fill="white" stroke="#666666" points="85,-219.75 0,-219.75 0,-199 85,-199 85,-219.75"/>
<text xml:space="preserve" text-anchor="middle" x="42.5" y="-206.25" font-family="Helvetica,sans-Serif" font-size="10.00">spdk_spinlock</text>
</a>
</g>
</g>
<!-- Node6&#45;&gt;Node5 -->
<g id="edge5_Node000005_Node000006" class="edge">
<title>Node6&#45;&gt;Node5</title>
<g id="a_edge5_Node000005_Node000006"><a xlink:title=" ">
<path fill="none" stroke="#9a32cd" stroke-dasharray="5,2" d="M96.73,-202.11C118.61,-199.13 144.18,-195.64 167.29,-192.49"/>
<polygon fill="#9a32cd" stroke="#9a32cd" points="96.27,-198.65 86.83,-203.46 97.21,-205.58 96.27,-198.65"/>
</a>
</g>
<text xml:space="preserve" text-anchor="start" x="106" y="-207.22" font-family="Helvetica,sans-Serif" font-size="10.00" fill="grey">spinlock</text>
</g>
<!-- Node8 -->
<g id="Node000008" class="node">
<title>Node8</title>
<g id="a_Node000008"><a xlink:href="structspdk__bdev_1_1____bdev__internal__fields.html" target="_top" xlink:title="Fields that are used internally by the bdev subsystem.">
<polygon fill="white" stroke="#666666" points="1174.5,-147.12 1023.5,-147.12 1023.5,-113.62 1174.5,-113.62 1174.5,-147.12"/>
<text xml:space="preserve" text-anchor="start" x="1031.5" y="-133.62" font-family="Helvetica,sans-Serif" font-size="10.00">spdk_bdev::__bdev_internal</text>
<text xml:space="preserve" text-anchor="middle" x="1099" y="-120.88" font-family="Helvetica,sans-Serif" font-size="10.00">_fields</text>
</a>
</g>
</g>
<!-- Node6&#45;&gt;Node8 -->
<g id="edge8_Node000008_Node000006" class="edge">
<title>Node6&#45;&gt;Node8</title>
<g id="a_edge8_Node000008_Node000006"><a xlink:title=" ">
<path fill="none" stroke="#9a32cd" stroke-dasharray="5,2" d="M96.16,-220.03C134.3,-226.83 187.19,-234.38 234.12,-234.38 234.12,-234.38 234.12,-234.38 814.75,-234.38 900.37,-234.38 927.23,-242.09 1005.5,-207.38 1037.02,-193.4 1066.33,-165.45 1083.19,-147.35"/>
<polygon fill="#9a32cd" stroke="#9a32cd" points="97.27,-216.68 86.81,-218.32 96.01,-223.56 97.27,-216.68"/>
</a>
</g>
<text xml:space="preserve" text-anchor="start" x="536.25" y="-240.62" font-family="Helvetica,sans-Serif" font-size="10.00" fill="grey">spinlock</text>
</g>
<!-- Node7 -->
<g id="Node000007" class="node">
<title>Node7</title>
<g id="a_Node000007"><a xlink:href="structspdk__bdev__fn__table.html" target="_top" xlink:title="Function table for a block device backend.">
<polygon fill="white" stroke="#666666" points="505.5,-154.75 392,-154.75 392,-134 505.5,-134 505.5,-154.75"/>
<text xml:space="preserve" text-anchor="middle" x="448.75" y="-141.25" font-family="Helvetica,sans-Serif" font-size="10.00">spdk_bdev_fn_table</text>
</a>
</g>
</g>
<!-- Node7&#45;&gt;Node1 -->
<g id="edge6_Node000001_Node000007" class="edge">
<title>Node7&#45;&gt;Node1</title>
<g id="a_edge6_Node000001_Node000007"><a xlink:title=" ">
<path fill="none" stroke="#9a32cd" stroke-dasharray="5,2" d="M516.77,-144.38C544.26,-144.38 574.86,-144.38 597.47,-144.38"/>
<polygon fill="#9a32cd" stroke="#9a32cd" points="517.12,-140.88 507.12,-144.38 517.12,-147.88 517.12,-140.88"/>
</a>
</g>
<text xml:space="preserve" text-anchor="start" x="536.62" y="-150.62" font-family="Helvetica,sans-Serif" font-size="10.00" fill="grey">fn_table</text>
</g>
<!-- Node8&#45;&gt;Node1 -->
<g id="edge7_Node000001_Node000008" class="edge">
<title>Node8&#45;&gt;Node1</title>
<g id="a_edge7_Node000001_Node000008"><a xlink:title=" ">
<path fill="none" stroke="#9a32cd" stroke-dasharray="5,2" d="M1011.88,-119.34C937.52,-111.73 827.36,-105.03 732.25,-117.62 709.25,-120.67 684.02,-127.52 664.75,-133.53"/>
<polygon fill="#9a32cd" stroke="#9a32cd" points="1011.23,-122.79 1021.54,-120.36 1011.96,-115.83 1011.23,-122.79"/>
</a>
</g>
<text xml:space="preserve" text-anchor="start" x="795" y="-123.88" font-family="Helvetica,sans-Serif" font-size="10.00" fill="grey">internal</text>
</g>
<!-- Node9 -->
<g id="Node000009" class="node">
<title>Node9</title>
<g id="a_Node000009"><a xlink:href="unionspdk__bdev_1_1____bdev__internal__fields_1_1____bdev__internal__claim.html" target="_top" xlink:title="Which module has claimed this bdev.">
<polygon fill="#fff0f0" stroke="red" points="895.25,-72.12 732.25,-72.12 732.25,-38.62 895.25,-38.62 895.25,-72.12"/>
<text xml:space="preserve" text-anchor="start" x="740.25" y="-58.62" font-family="Helvetica,sans-Serif" font-size="10.00">spdk_bdev::__bdev_internal</text>
<text xml:space="preserve" text-anchor="middle" x="813.75" y="-45.88" font-family="Helvetica,sans-Serif" font-size="10.00">_fields::__bdev_internal_claim</text>
</a>
</g>
</g>
<!-- Node9&#45;&gt;Node8 -->
<g id="edge9_Node000008_Node000009" class="edge">
<title>Node9&#45;&gt;Node8</title>
<g id="a_edge9_Node000008_Node000009"><a xlink:title=" ">
<path fill="none" stroke="#9a32cd" stroke-dasharray="5,2" d="M906.82,-57.19C938.7,-59.89 974.25,-65.27 1005.5,-75.62 1031.18,-84.14 1057.45,-100.57 1075.4,-113.22"/>
<polygon fill="#9a32cd" stroke="#9a32cd" points="907.46,-53.73 897.22,-56.46 906.93,-60.71 907.46,-53.73"/>
</a>
</g>
<text xml:space="preserve" text-anchor="start" x="945.88" y="-81.88" font-family="Helvetica,sans-Serif" font-size="10.00" fill="grey">claim</text>
</g>
<!-- Node12&#45;&gt;Node8 -->
<g id="edge10_Node000008_Node000012" class="edge">
<title>Node12&#45;&gt;Node8</title>
<g id="a_edge10_Node000008_Node000012"><a xlink:title=" ">
<path fill="none" stroke="#9a32cd" stroke-dasharray="5,2" d="M866.51,-190.43C905.26,-186.67 959.32,-179.69 1005.5,-167.38 1024.22,-162.38 1044.26,-154.68 1060.89,-147.59"/>
<polygon fill="#9a32cd" stroke="#9a32cd" points="866.64,-186.9 857.01,-191.31 867.29,-193.87 866.64,-186.9"/>
</a>
</g>
<text xml:space="preserve" text-anchor="start" x="916.25" y="-190.67" font-family="Helvetica,sans-Serif" font-size="10.00" fill="grey">reset_in_progress</text>
</g>
<!-- Node51 -->
<g id="Node000051" class="node">
<title>Node51</title>
<g id="a_Node000051"><a xlink:href="structspdk__bdev__io__stat.html" target="_top" xlink:title=" ">
<polygon fill="white" stroke="#bfbfbf" points="867.12,-20.75 760.38,-20.75 760.38,0 867.12,0 867.12,-20.75"/>
<text xml:space="preserve" text-anchor="middle" x="813.75" y="-7.25" font-family="Helvetica,sans-Serif" font-size="10.00">spdk_bdev_io_stat</text>
</a>
</g>
</g>
<!-- Node51&#45;&gt;Node8 -->
<g id="edge12_Node000008_Node000051" class="edge">
<title>Node51&#45;&gt;Node8</title>
<g id="a_edge12_Node000008_Node000051"><a xlink:title=" ">
<path fill="none" stroke="#9a32cd" stroke-dasharray="5,2" d="M878.35,-8.05C916.98,-9.09 966.25,-14.95 1005.5,-34.62 1041.66,-52.75 1071.61,-90.84 1086.94,-113.13"/>
<polygon fill="#9a32cd" stroke="#9a32cd" points="878.81,-4.55 868.76,-7.89 878.7,-11.55 878.81,-4.55"/>
</a>
</g>
<text xml:space="preserve" text-anchor="start" x="950" y="-40.88" font-family="Helvetica,sans-Serif" font-size="10.00" fill="grey">stat</text>
</g>
<!-- Node52&#45;&gt;Node8 -->
<g id="edge13_Node000008_Node000052" class="edge">
<title>Node52&#45;&gt;Node8</title>
<g id="a_edge13_Node000008_Node000052"><a xlink:title=" ">
<path fill="none" stroke="#9a32cd" stroke-dasharray="5,2" d="M875.94,-149.97C919.14,-146.16 977.27,-141.03 1023.22,-136.98"/>
<polygon fill="#9a32cd" stroke="#9a32cd" points="875.9,-146.46 866.25,-150.83 876.51,-153.44 875.9,-146.46"/>
</a>
</g>
<text xml:space="preserve" text-anchor="start" x="930.88" y="-152.82" font-family="Helvetica,sans-Serif" font-size="10.00" fill="grey">bdev_name</text>
</g>
</g>
</svg>

<g id="navigator" transform="translate(0 0)" fill="#404254">
  <rect fill="#f2f5e9" fill-opacity="0.5" stroke="#606060" stroke-width=".5" x="0" y="0" width="60" height="60"/>
  <use id="zoomplus" xlink:href="#zoomPlus" x="17" y="9" onmousedown="handleZoom(evt,'in')"/>
  <use id="zoomminus" xlink:href="#zoomMin" x="42" y="9" onmousedown="handleZoom(evt,'out')"/>
  <use id="reset" xlink:href="#resetDef" x="30" y="36" onmousedown="handleReset()"/>
   <use id="arrowup" xlink:href="#arrowUp" x="0" y="0" onmousedown="handlePan(0,-1)"/>
  <use id="arrowright" xlink:href="#arrowRight" x="0" y="0" onmousedown="handlePan(1,0)"/>
  <use id="arrowdown" xlink:href="#arrowDown" x="0" y="0" onmousedown="handlePan(0,1)"/>
  <use id="arrowleft" xlink:href="#arrowLeft" x="0" y="0" onmousedown="handlePan(-1,0)"/>
</g>
<svg viewBox="0 0 15 15" width="100%" height="30px" preserveAspectRatio="xMaxYMin meet">
 <g id="arrow_out" transform="scale(0.3 0.3)">
  <a xlink:href="structspdk__bdev__coll__graph_org.svg" target="_base">
   <rect id="button" ry="5" rx="5" y="6" x="6" height="38" width="38"
        fill="#f2f5e9" fill-opacity="0.5" stroke="#606060" stroke-width="1.0"/>
   <path id="arrow"
     d="M 11.500037,31.436501 C 11.940474,20.09759 22.043105,11.32322 32.158766,21.979434 L 37.068811,17.246167 C 37.068811,17.246167 37.088388,32 37.088388,32 L 22.160133,31.978069 C 22.160133,31.978069 26.997745,27.140456 26.997745,27.140456 C 18.528582,18.264221 13.291696,25.230495 11.500037,31.436501 z"
     style="fill:#404040;"/>
  </a>
 </g>
</svg>

<style type='text/css'>
<![CDATA[
[data-mouse-over-selected='false'] { opacity: 0.7; }
[data-mouse-over-selected='true']  { opacity: 1.0; }
]]>
</style>
<script type="application/ecmascript"><![CDATA[
document.addEventListener('DOMContentLoaded', (event) => {
  highlightEdges();
  highlightAdjacentNodes();
});
]]></script>
</svg>
