<?xml version="1.0" encoding="UTF-8" standalone="no"?>
<!DOCTYPE svg PUBLIC "-//W3C//DTD SVG 1.1//EN"
 "http://www.w3.org/Graphics/SVG/1.1/DTD/svg11.dtd">
<!-- Generated by graphviz version 13.1.2 (20250808.2320)
 -->
<!-- Title: spdk_nvmf_discovery_log_page_entry Pages: 1 -->
<!--zoomable 94 -->

<svg id="main" version="1.1" xmlns="http://www.w3.org/2000/svg" xmlns:xlink="http://www.w3.org/1999/xlink" xml:space="preserve" onload="init(evt)">

<style type="text/css"><![CDATA[
.node, .edge {opacity: 0.7;}
.node.selected, .edge.selected {opacity: 1;}
.edge:hover path { stroke: red; }
.edge:hover polygon { stroke: red; fill: red; }
]]></style>

<defs>
  <circle id="rim" cx="0" cy="0" r="7"/>
  <circle id="rim2" cx="0" cy="0" r="3.5"/>
  <g id="zoomPlus">
    <use xlink:href="#rim" fill="#404040"><set attributeName="fill" to="#808080" begin="zoomplus.mouseover" end="zoomplus.mouseout"/></use>
    <path d="M-4,0h8M0,-4v8" fill="none" stroke="white" stroke-width="1.5" pointer-events="none"/>
  </g>
  <g id="zoomMin">
    <use xlink:href="#rim" fill="#404040"><set attributeName="fill" to="#808080" begin="zoomminus.mouseover" end="zoomminus.mouseout"/></use>
    <path d="M-4,0h8" fill="none" stroke="white" stroke-width="1.5" pointer-events="none"/>
  </g>
  <g id="arrowUp" transform="translate(30 24)">
    <use xlink:href="#rim"/>
    <path pointer-events="none" fill="none" stroke="white" stroke-width="1.5" d="M0,-3.0v7 M-2.5,-0.5L0,-3.0L2.5,-0.5"/>
  </g>
  <g id="arrowRight" transform="rotate(90) translate(36 -43)">
    <use xlink:href="#rim"/>
    <path pointer-events="none" fill="none" stroke="white" stroke-width="1.5" d="M0,-3.0v7 M-2.5,-0.5L0,-3.0L2.5,-0.5"/>
  </g>
  <g id="arrowDown" transform="rotate(180) translate(-30 -48)">
    <use xlink:href="#rim"/>
    <path pointer-events="none" fill="none" stroke="white" stroke-width="1.5" d="M0,-3.0v7 M-2.5,-0.5L0,-3.0L2.5,-0.5"/>
  </g>
  <g id="arrowLeft" transform="rotate(270) translate(-36 17)">
    <use xlink:href="#rim"/>
    <path pointer-events="none" fill="none" stroke="white" stroke-width="1.5" d="M0,-3.0v7 M-2.5,-0.5L0,-3.0L2.5,-0.5"/>
  </g>
  <g id="resetDef">
    <use xlink:href="#rim2" fill="#404040"><set attributeName="fill" to="#808080" begin="reset.mouseover" end="reset.mouseout"/></use>
  </g>
</defs>
<script type="application/ecmascript">
var viewWidth = 556;
var viewHeight = 94;
var sectionId = 'dynsection-0';
</script>
<script type="application/ecmascript" xlink:href="svg.min.js"/>
<svg id="graph" class="graph">
<g id="viewport">
<title>spdk_nvmf_discovery_log_page_entry</title>
<!-- Node1 -->
<g id="Node000001" class="node">
<title>Node1</title>
<g id="a_Node000001"><a xlink:title="Discovery Log Page entry.">
<polygon fill="#999999" stroke="#666666" points="548.25,-59.5 425.75,-59.5 425.75,-26 548.25,-26 548.25,-59.5"/>
<text xml:space="preserve" text-anchor="start" x="433.75" y="-46" font-family="Helvetica,sans-Serif" font-size="10.00">spdk_nvmf_discovery</text>
<text xml:space="preserve" text-anchor="middle" x="487" y="-33.25" font-family="Helvetica,sans-Serif" font-size="10.00">_log_page_entry</text>
</a>
</g>
</g>
<!-- Node2 -->
<g id="Node000002" class="node">
<title>Node2</title>
<g id="a_Node000002"><a xlink:href="unionspdk__nvmf__transport__specific__address__subtype.html" target="_top" xlink:title="Transport&#45;specific address subtype.">
<polygon fill="white" stroke="#666666" points="363.5,-59.5 217.75,-59.5 217.75,-26 363.5,-26 363.5,-59.5"/>
<text xml:space="preserve" text-anchor="start" x="225.75" y="-46" font-family="Helvetica,sans-Serif" font-size="10.00">spdk_nvmf_transport</text>
<text xml:space="preserve" text-anchor="middle" x="290.62" y="-33.25" font-family="Helvetica,sans-Serif" font-size="10.00">_specific_address_subtype</text>
</a>
</g>
</g>
<!-- Node2&#45;&gt;Node1 -->
<g id="edge1_Node000001_Node000002" class="edge">
<title>Node2&#45;&gt;Node1</title>
<g id="a_edge1_Node000001_Node000002"><a xlink:title=" ">
<path fill="none" stroke="#9a32cd" stroke-dasharray="5,2" d="M374.81,-42.75C391.83,-42.75 409.43,-42.75 425.48,-42.75"/>
<polygon fill="#9a32cd" stroke="#9a32cd" points="375.24,-39.25 365.24,-42.75 375.24,-46.25 375.24,-39.25"/>
</a>
</g>
<text xml:space="preserve" text-anchor="start" x="384.5" y="-49" font-family="Helvetica,sans-Serif" font-size="10.00" fill="grey">tsas</text>
</g>
<!-- Node3 -->
<g id="Node000003" class="node">
<title>Node3</title>
<g id="a_Node000003"><a xlink:href="structspdk__nvmf__rdma__transport__specific__address__subtype.html" target="_top" xlink:title="RDMA transport&#45;specific address subtype.">
<polygon fill="white" stroke="#666666" points="150.25,-85.5 0,-85.5 0,-52 150.25,-52 150.25,-85.5"/>
<text xml:space="preserve" text-anchor="start" x="8" y="-72" font-family="Helvetica,sans-Serif" font-size="10.00">spdk_nvmf_rdma_transport</text>
<text xml:space="preserve" text-anchor="middle" x="75.12" y="-59.25" font-family="Helvetica,sans-Serif" font-size="10.00">_specific_address_subtype</text>
</a>
</g>
</g>
<!-- Node3&#45;&gt;Node2 -->
<g id="edge2_Node000002_Node000003" class="edge">
<title>Node3&#45;&gt;Node2</title>
<g id="a_edge2_Node000002_Node000003"><a xlink:title=" ">
<path fill="none" stroke="#9a32cd" stroke-dasharray="5,2" d="M161.82,-58.31C180.22,-56.07 199.49,-53.73 217.32,-51.56"/>
<polygon fill="#9a32cd" stroke="#9a32cd" points="161.5,-54.83 152,-59.51 162.35,-61.78 161.5,-54.83"/>
</a>
</g>
<text xml:space="preserve" text-anchor="start" x="171.25" y="-63.56" font-family="Helvetica,sans-Serif" font-size="10.00" fill="grey">rdma</text>
</g>
<!-- Node4 -->
<g id="Node000004" class="node">
<title>Node4</title>
<g id="a_Node000004"><a xlink:href="structspdk__nvme__tcp__transport__specific__address__subtype.html" target="_top" xlink:title="TCP transport&#45;specific address subtype.">
<polygon fill="white" stroke="#666666" points="148,-33.5 2.25,-33.5 2.25,0 148,0 148,-33.5"/>
<text xml:space="preserve" text-anchor="start" x="10.25" y="-20" font-family="Helvetica,sans-Serif" font-size="10.00">spdk_nvme_tcp_transport</text>
<text xml:space="preserve" text-anchor="middle" x="75.12" y="-7.25" font-family="Helvetica,sans-Serif" font-size="10.00">_specific_address_subtype</text>
</a>
</g>
</g>
<!-- Node4&#45;&gt;Node2 -->
<g id="edge3_Node000002_Node000004" class="edge">
<title>Node4&#45;&gt;Node2</title>
<g id="a_edge3_Node000002_Node000004"><a xlink:title=" ">
<path fill="none" stroke="#9a32cd" stroke-dasharray="5,2" d="M159.57,-26.19C173.01,-27.76 186.77,-29.4 199.75,-31 205.53,-31.71 211.51,-32.46 217.53,-33.23"/>
<polygon fill="#9a32cd" stroke="#9a32cd" points="160.22,-22.75 149.88,-25.07 159.41,-29.7 160.22,-22.75"/>
</a>
</g>
<text xml:space="preserve" text-anchor="start" x="176.5" y="-37.25" font-family="Helvetica,sans-Serif" font-size="10.00" fill="grey">tcp</text>
</g>
</g>
</svg>

<g id="navigator" transform="translate(0 0)" fill="#404254">
  <rect fill="#f2f5e9" fill-opacity="0.5" stroke="#606060" stroke-width=".5" x="0" y="0" width="60" height="60"/>
  <use id="zoomplus" xlink:href="#zoomPlus" x="17" y="9" onmousedown="handleZoom(evt,'in')"/>
  <use id="zoomminus" xlink:href="#zoomMin" x="42" y="9" onmousedown="handleZoom(evt,'out')"/>
  <use id="reset" xlink:href="#resetDef" x="30" y="36" onmousedown="handleReset()"/>
   <use id="arrowup" xlink:href="#arrowUp" x="0" y="0" onmousedown="handlePan(0,-1)"/>
  <use id="arrowright" xlink:href="#arrowRight" x="0" y="0" onmousedown="handlePan(1,0)"/>
  <use id="arrowdown" xlink:href="#arrowDown" x="0" y="0" onmousedown="handlePan(0,1)"/>
  <use id="arrowleft" xlink:href="#arrowLeft" x="0" y="0" onmousedown="handlePan(-1,0)"/>
</g>
<svg viewBox="0 0 15 15" width="100%" height="30px" preserveAspectRatio="xMaxYMin meet">
 <g id="arrow_out" transform="scale(0.3 0.3)">
  <a xlink:href="structspdk__nvmf__discovery__log__page__entry__coll__graph_org.svg" target="_base">
   <rect id="button" ry="5" rx="5" y="6" x="6" height="38" width="38"
        fill="#f2f5e9" fill-opacity="0.5" stroke="#606060" stroke-width="1.0"/>
   <path id="arrow"
     d="M 11.500037,31.436501 C 11.940474,20.09759 22.043105,11.32322 32.158766,21.979434 L 37.068811,17.246167 C 37.068811,17.246167 37.088388,32 37.088388,32 L 22.160133,31.978069 C 22.160133,31.978069 26.997745,27.140456 26.997745,27.140456 C 18.528582,18.264221 13.291696,25.230495 11.500037,31.436501 z"
     style="fill:#404040;"/>
  </a>
 </g>
</svg>

<style type='text/css'>
<![CDATA[
[data-mouse-over-selected='false'] { opacity: 0.7; }
[data-mouse-over-selected='true']  { opacity: 1.0; }
]]>
</style>
<script type="application/ecmascript"><![CDATA[
document.addEventListener('DOMContentLoaded', (event) => {
  highlightEdges();
  highlightAdjacentNodes();
});
]]></script>
</svg>
