<?xml version="1.0" encoding="UTF-8" standalone="no"?>
<!DOCTYPE svg PUBLIC "-//W3C//DTD SVG 1.1//EN"
 "http://www.w3.org/Graphics/SVG/1.1/DTD/svg11.dtd">
<!-- Generated by graphviz version 13.1.2 (20250808.2320)
 -->
<!-- Title: spdk_bdev_io_abort_params Pages: 1 -->
<!--zoomable 323 -->

<svg id="main" version="1.1" xmlns="http://www.w3.org/2000/svg" xmlns:xlink="http://www.w3.org/1999/xlink" xml:space="preserve" onload="init(evt)">

<style type="text/css"><![CDATA[
.node, .edge {opacity: 0.7;}
.node.selected, .edge.selected {opacity: 1;}
.edge:hover path { stroke: red; }
.edge:hover polygon { stroke: red; fill: red; }
]]></style>

<defs>
  <circle id="rim" cx="0" cy="0" r="7"/>
  <circle id="rim2" cx="0" cy="0" r="3.5"/>
  <g id="zoomPlus">
    <use xlink:href="#rim" fill="#404040"><set attributeName="fill" to="#808080" begin="zoomplus.mouseover" end="zoomplus.mouseout"/></use>
    <path d="M-4,0h8M0,-4v8" fill="none" stroke="white" stroke-width="1.5" pointer-events="none"/>
  </g>
  <g id="zoomMin">
    <use xlink:href="#rim" fill="#404040"><set attributeName="fill" to="#808080" begin="zoomminus.mouseover" end="zoomminus.mouseout"/></use>
    <path d="M-4,0h8" fill="none" stroke="white" stroke-width="1.5" pointer-events="none"/>
  </g>
  <g id="arrowUp" transform="translate(30 24)">
    <use xlink:href="#rim"/>
    <path pointer-events="none" fill="none" stroke="white" stroke-width="1.5" d="M0,-3.0v7 M-2.5,-0.5L0,-3.0L2.5,-0.5"/>
  </g>
  <g id="arrowRight" transform="rotate(90) translate(36 -43)">
    <use xlink:href="#rim"/>
    <path pointer-events="none" fill="none" stroke="white" stroke-width="1.5" d="M0,-3.0v7 M-2.5,-0.5L0,-3.0L2.5,-0.5"/>
  </g>
  <g id="arrowDown" transform="rotate(180) translate(-30 -48)">
    <use xlink:href="#rim"/>
    <path pointer-events="none" fill="none" stroke="white" stroke-width="1.5" d="M0,-3.0v7 M-2.5,-0.5L0,-3.0L2.5,-0.5"/>
  </g>
  <g id="arrowLeft" transform="rotate(270) translate(-36 17)">
    <use xlink:href="#rim"/>
    <path pointer-events="none" fill="none" stroke="white" stroke-width="1.5" d="M0,-3.0v7 M-2.5,-0.5L0,-3.0L2.5,-0.5"/>
  </g>
  <g id="resetDef">
    <use xlink:href="#rim2" fill="#404040"><set attributeName="fill" to="#808080" begin="reset.mouseover" end="reset.mouseout"/></use>
  </g>
</defs>
<script type="application/ecmascript">
var viewWidth = 612;
var viewHeight = 323;
var sectionId = 'dynsection-0';
</script>
<script type="application/ecmascript" xlink:href="svg.min.js"/>
<svg id="graph" class="graph">
<g id="viewport">
<title>spdk_bdev_io_abort_params</title>
<!-- Node1 -->
<g id="Node000001" class="node">
<title>Node1</title>
<g id="a_Node000001"><a xlink:title=" ">
<polygon fill="#999999" stroke="#666666" points="138.25,-297.5 24.75,-297.5 24.75,-264 138.25,-264 138.25,-297.5"/>
<text xml:space="preserve" text-anchor="start" x="32.75" y="-284" font-family="Helvetica,sans-Serif" font-size="10.00">spdk_bdev_io_abort</text>
<text xml:space="preserve" text-anchor="middle" x="81.5" y="-271.25" font-family="Helvetica,sans-Serif" font-size="10.00">_params</text>
</a>
</g>
</g>
<!-- Node2 -->
<g id="Node000002" class="node">
<title>Node2</title>
<g id="a_Node000002"><a xlink:href="structspdk__bdev__io.html" target="_top" xlink:title=" ">
<polygon fill="white" stroke="#bfbfbf" points="362.75,-183.12 280,-183.12 280,-162.38 362.75,-162.38 362.75,-183.12"/>
<text xml:space="preserve" text-anchor="middle" x="321.38" y="-169.62" font-family="Helvetica,sans-Serif" font-size="10.00">spdk_bdev_io</text>
</a>
</g>
</g>
<!-- Node1&#45;&gt;Node2 -->
<g id="edge5_Node000002_Node000001" class="edge">
<title>Node1&#45;&gt;Node2</title>
<g id="a_edge5_Node000002_Node000001"><a xlink:title=" ">
<path fill="none" stroke="#9a32cd" stroke-dasharray="5,2" d="M149.96,-294.52C185.66,-298.21 228.84,-296.66 262,-276.75 296.97,-255.75 312.69,-205.48 318.07,-183.43"/>
<polygon fill="#9a32cd" stroke="#9a32cd" points="150.51,-291.06 140.16,-293.34 149.67,-298.01 150.51,-291.06"/>
</a>
</g>
<text xml:space="preserve" text-anchor="start" x="208.75" y="-302.33" font-family="Helvetica,sans-Serif" font-size="10.00" fill="grey">abort</text>
</g>
<!-- Node2&#45;&gt;Node1 -->
<g id="edge1_Node000001_Node000002" class="edge">
<title>Node2&#45;&gt;Node1</title>
<g id="a_edge1_Node000001_Node000002"><a xlink:title=" ">
<path fill="none" stroke="#9a32cd" stroke-dasharray="5,2" d="M305.16,-191.93C294.34,-204.37 278.8,-220.02 262,-229.75 240.98,-241.93 182.96,-257.35 138.53,-268.02"/>
<polygon fill="#9a32cd" stroke="#9a32cd" points="307.76,-194.27 311.48,-184.35 302.39,-189.78 307.76,-194.27"/>
</a>
</g>
<text xml:space="preserve" text-anchor="start" x="191.12" y="-262.93" font-family="Helvetica,sans-Serif" font-size="10.00" fill="grey">bio_to_abort</text>
</g>
<!-- Node50 -->
<g id="Node000050" class="node">
<title>Node50</title>
<g id="a_Node000050"><a xlink:href="structspdk__bdev__io__internal__fields.html" target="_top" xlink:title="Fields that are used internally by the bdev subsystem.">
<polygon fill="#fff0f0" stroke="red" points="603.75,-189.5 478.25,-189.5 478.25,-156 603.75,-156 603.75,-189.5"/>
<text xml:space="preserve" text-anchor="start" x="486.25" y="-176" font-family="Helvetica,sans-Serif" font-size="10.00">spdk_bdev_io_internal</text>
<text xml:space="preserve" text-anchor="middle" x="541" y="-163.25" font-family="Helvetica,sans-Serif" font-size="10.00">_fields</text>
</a>
</g>
</g>
<!-- Node2&#45;&gt;Node50 -->
<g id="edge9_Node000050_Node000002" class="edge">
<title>Node2&#45;&gt;Node50</title>
<g id="a_edge9_Node000050_Node000002"><a xlink:title=" ">
<path fill="none" stroke="#9a32cd" stroke-dasharray="5,2" d="M374.53,-172.75C405.67,-172.75 445.39,-172.75 478.11,-172.75"/>
<polygon fill="#9a32cd" stroke="#9a32cd" points="374.57,-169.25 364.57,-172.75 374.57,-176.25 374.57,-169.25"/>
</a>
</g>
<text xml:space="preserve" text-anchor="start" x="383.75" y="-212.5" font-family="Helvetica,sans-Serif" font-size="10.00" fill="grey">cb</text>
<text xml:space="preserve" text-anchor="start" x="383.75" y="-195.75" font-family="Helvetica,sans-Serif" font-size="10.00" fill="grey">get_buf_cb</text>
<text xml:space="preserve" text-anchor="start" x="383.75" y="-179" font-family="Helvetica,sans-Serif" font-size="10.00" fill="grey">stored_user_cb</text>
</g>
<!-- Node3 -->
<g id="Node000003" class="node">
<title>Node3</title>
<g id="a_Node000003"><a xlink:href="structspdk__bdev.html" target="_top" xlink:title=" ">
<polygon fill="white" stroke="orangered" points="115.75,-228.12 47.25,-228.12 47.25,-207.38 115.75,-207.38 115.75,-228.12"/>
<text xml:space="preserve" text-anchor="middle" x="81.5" y="-214.62" font-family="Helvetica,sans-Serif" font-size="10.00">spdk_bdev</text>
</a>
</g>
</g>
<!-- Node3&#45;&gt;Node2 -->
<g id="edge2_Node000002_Node000003" class="edge">
<title>Node3&#45;&gt;Node2</title>
<g id="a_edge2_Node000002_Node000003"><a xlink:title=" ">
<path fill="none" stroke="#9a32cd" stroke-dasharray="5,2" d="M127.21,-213.93C163.8,-210.22 216.71,-203.56 262,-192.75 272,-190.36 282.71,-186.95 292.19,-183.62"/>
<polygon fill="#9a32cd" stroke="#9a32cd" points="127.06,-210.42 117.44,-214.88 127.74,-217.39 127.06,-210.42"/>
</a>
</g>
<text xml:space="preserve" text-anchor="start" x="209.5" y="-213.34" font-family="Helvetica,sans-Serif" font-size="10.00" fill="grey">bdev</text>
</g>
<!-- Node16 -->
<g id="Node000016" class="node">
<title>Node16</title>
<g id="a_Node000016"><a xlink:href="structspdk__bdev__io__block__params.html" target="_top" xlink:title=" ">
<polygon fill="white" stroke="orangered" points="138.62,-189.5 24.38,-189.5 24.38,-156 138.62,-156 138.62,-189.5"/>
<text xml:space="preserve" text-anchor="start" x="32.38" y="-176" font-family="Helvetica,sans-Serif" font-size="10.00">spdk_bdev_io_block</text>
<text xml:space="preserve" text-anchor="middle" x="81.5" y="-163.25" font-family="Helvetica,sans-Serif" font-size="10.00">_params</text>
</a>
</g>
</g>
<!-- Node16&#45;&gt;Node2 -->
<g id="edge3_Node000002_Node000016" class="edge">
<title>Node16&#45;&gt;Node2</title>
<g id="a_edge3_Node000002_Node000016"><a xlink:title=" ">
<path fill="none" stroke="#9a32cd" stroke-dasharray="5,2" d="M150.35,-172.75C192.1,-172.75 244.21,-172.75 279.66,-172.75"/>
<polygon fill="#9a32cd" stroke="#9a32cd" points="150.39,-169.25 140.39,-172.75 150.39,-176.25 150.39,-169.25"/>
</a>
</g>
<text xml:space="preserve" text-anchor="start" x="209.5" y="-179" font-family="Helvetica,sans-Serif" font-size="10.00" fill="grey">bdev</text>
</g>
<!-- Node21 -->
<g id="Node000021" class="node">
<title>Node21</title>
<g id="a_Node000021"><a xlink:href="structspdk__bdev__io__reset__params.html" target="_top" xlink:title=" ">
<polygon fill="white" stroke="#bfbfbf" points="137.88,-137.5 25.12,-137.5 25.12,-104 137.88,-104 137.88,-137.5"/>
<text xml:space="preserve" text-anchor="start" x="33.12" y="-124" font-family="Helvetica,sans-Serif" font-size="10.00">spdk_bdev_io_reset</text>
<text xml:space="preserve" text-anchor="middle" x="81.5" y="-111.25" font-family="Helvetica,sans-Serif" font-size="10.00">_params</text>
</a>
</g>
</g>
<!-- Node21&#45;&gt;Node2 -->
<g id="edge4_Node000002_Node000021" class="edge">
<title>Node21&#45;&gt;Node2</title>
<g id="a_edge4_Node000002_Node000021"><a xlink:title=" ">
<path fill="none" stroke="#9a32cd" stroke-dasharray="5,2" d="M149.37,-128.25C183.45,-132.92 225.33,-139.99 262,-150 273.44,-153.12 285.72,-157.71 296.05,-161.95"/>
<polygon fill="#9a32cd" stroke="#9a32cd" points="150.01,-124.8 139.64,-126.95 149.09,-131.74 150.01,-124.8"/>
</a>
</g>
<text xml:space="preserve" text-anchor="start" x="209.12" y="-156.25" font-family="Helvetica,sans-Serif" font-size="10.00" fill="grey">reset</text>
</g>
<!-- Node22 -->
<g id="Node000022" class="node">
<title>Node22</title>
<g id="a_Node000022"><a xlink:href="structspdk__bdev__io__nvme__passthru__params.html" target="_top" xlink:title=" ">
<polygon fill="white" stroke="orangered" points="163,-85.5 0,-85.5 0,-52 163,-52 163,-85.5"/>
<text xml:space="preserve" text-anchor="start" x="8" y="-72" font-family="Helvetica,sans-Serif" font-size="10.00">spdk_bdev_io_nvme_passthru</text>
<text xml:space="preserve" text-anchor="middle" x="81.5" y="-59.25" font-family="Helvetica,sans-Serif" font-size="10.00">_params</text>
</a>
</g>
</g>
<!-- Node22&#45;&gt;Node2 -->
<g id="edge6_Node000002_Node000022" class="edge">
<title>Node22&#45;&gt;Node2</title>
<g id="a_edge6_Node000002_Node000022"><a xlink:title=" ">
<path fill="none" stroke="#9a32cd" stroke-dasharray="5,2" d="M174.21,-79.71C203.62,-85.94 235.43,-95.7 262,-111 284.5,-123.95 303.66,-148.28 313.43,-162.22"/>
<polygon fill="#9a32cd" stroke="#9a32cd" points="175.04,-76.31 164.55,-77.79 173.68,-83.17 175.04,-76.31"/>
</a>
</g>
<text xml:space="preserve" text-anchor="start" x="184" y="-117.25" font-family="Helvetica,sans-Serif" font-size="10.00" fill="grey">nvme_passthru</text>
</g>
<!-- Node49 -->
<g id="Node000049" class="node">
<title>Node49</title>
<g id="a_Node000049"><a xlink:href="structspdk__bdev__io__zone__mgmt__params.html" target="_top" xlink:title=" ">
<polygon fill="white" stroke="#bfbfbf" points="154.38,-33.5 8.62,-33.5 8.62,0 154.38,0 154.38,-33.5"/>
<text xml:space="preserve" text-anchor="start" x="16.62" y="-20" font-family="Helvetica,sans-Serif" font-size="10.00">spdk_bdev_io_zone_mgmt</text>
<text xml:space="preserve" text-anchor="middle" x="81.5" y="-7.25" font-family="Helvetica,sans-Serif" font-size="10.00">_params</text>
</a>
</g>
</g>
<!-- Node49&#45;&gt;Node2 -->
<g id="edge7_Node000002_Node000049" class="edge">
<title>Node49&#45;&gt;Node2</title>
<g id="a_edge7_Node000002_Node000049"><a xlink:title=" ">
<path fill="none" stroke="#9a32cd" stroke-dasharray="5,2" d="M165.57,-21.38C198.39,-26.79 234.7,-37.64 262,-59 296.61,-86.08 312.6,-139.32 318.07,-162.05"/>
<polygon fill="#9a32cd" stroke="#9a32cd" points="166.5,-17.98 156.09,-19.97 165.47,-24.91 166.5,-17.98"/>
</a>
</g>
<text xml:space="preserve" text-anchor="start" x="192.62" y="-65.25" font-family="Helvetica,sans-Serif" font-size="10.00" fill="grey">zone_mgmt</text>
</g>
<!-- Node50&#45;&gt;Node2 -->
<g id="edge8_Node000002_Node000050" class="edge">
<title>Node50&#45;&gt;Node2</title>
<g id="a_edge8_Node000002_Node000050"><a xlink:title=" ">
<path fill="none" stroke="#9a32cd" stroke-dasharray="5,2" d="M466.85,-153.91C464.63,-153.57 462.43,-153.27 460.25,-153 425.18,-148.72 415.61,-147.26 380.75,-153 369.88,-154.79 358.3,-158.34 348.35,-161.94"/>
<polygon fill="#9a32cd" stroke="#9a32cd" points="466.07,-157.33 476.52,-155.6 467.27,-150.43 466.07,-157.33"/>
</a>
</g>
<text xml:space="preserve" text-anchor="start" x="401.75" y="-159.25" font-family="Helvetica,sans-Serif" font-size="10.00" fill="grey">internal</text>
</g>
</g>
</svg>

<g id="navigator" transform="translate(0 0)" fill="#404254">
  <rect fill="#f2f5e9" fill-opacity="0.5" stroke="#606060" stroke-width=".5" x="0" y="0" width="60" height="60"/>
  <use id="zoomplus" xlink:href="#zoomPlus" x="17" y="9" onmousedown="handleZoom(evt,'in')"/>
  <use id="zoomminus" xlink:href="#zoomMin" x="42" y="9" onmousedown="handleZoom(evt,'out')"/>
  <use id="reset" xlink:href="#resetDef" x="30" y="36" onmousedown="handleReset()"/>
   <use id="arrowup" xlink:href="#arrowUp" x="0" y="0" onmousedown="handlePan(0,-1)"/>
  <use id="arrowright" xlink:href="#arrowRight" x="0" y="0" onmousedown="handlePan(1,0)"/>
  <use id="arrowdown" xlink:href="#arrowDown" x="0" y="0" onmousedown="handlePan(0,1)"/>
  <use id="arrowleft" xlink:href="#arrowLeft" x="0" y="0" onmousedown="handlePan(-1,0)"/>
</g>
<svg viewBox="0 0 15 15" width="100%" height="30px" preserveAspectRatio="xMaxYMin meet">
 <g id="arrow_out" transform="scale(0.3 0.3)">
  <a xlink:href="structspdk__bdev__io__abort__params__coll__graph_org.svg" target="_base">
   <rect id="button" ry="5" rx="5" y="6" x="6" height="38" width="38"
        fill="#f2f5e9" fill-opacity="0.5" stroke="#606060" stroke-width="1.0"/>
   <path id="arrow"
     d="M 11.500037,31.436501 C 11.940474,20.09759 22.043105,11.32322 32.158766,21.979434 L 37.068811,17.246167 C 37.068811,17.246167 37.088388,32 37.088388,32 L 22.160133,31.978069 C 22.160133,31.978069 26.997745,27.140456 26.997745,27.140456 C 18.528582,18.264221 13.291696,25.230495 11.500037,31.436501 z"
     style="fill:#404040;"/>
  </a>
 </g>
</svg>

<style type='text/css'>
<![CDATA[
[data-mouse-over-selected='false'] { opacity: 0.7; }
[data-mouse-over-selected='true']  { opacity: 1.0; }
]]>
</style>
<script type="application/ecmascript"><![CDATA[
document.addEventListener('DOMContentLoaded', (event) => {
  highlightEdges();
  highlightAdjacentNodes();
});
]]></script>
</svg>
