<?xml version="1.0" encoding="UTF-8" standalone="no"?>
<!DOCTYPE svg PUBLIC "-//W3C//DTD SVG 1.1//EN"
 "http://www.w3.org/Graphics/SVG/1.1/DTD/svg11.dtd">
<!-- Generated by graphviz version 13.1.2 (20250808.2320)
 -->
<!-- Title: spdk_fsdev Pages: 1 -->
<svg width="332pt" height="369pt"
 viewBox="0.00 0.00 332.00 369.00" xmlns="http://www.w3.org/2000/svg" xmlns:xlink="http://www.w3.org/1999/xlink">

<svg id="main" version="1.1" xmlns="http://www.w3.org/2000/svg" xmlns:xlink="http://www.w3.org/1999/xlink" xml:space="preserve">

<style type="text/css"><![CDATA[
.node, .edge {opacity: 0.7;}
.node.selected, .edge.selected {opacity: 1;}
.edge:hover path { stroke: red; }
.edge:hover polygon { stroke: red; fill: red; }
]]></style>
<script type="application/ecmascript" xlink:href="svg.min.js"/>
<svg id="graph" class="graph">
<g id="graph0" class="graph" transform="scale(1 1) rotate(0) translate(4 365)">
<title>spdk_fsdev</title>
<!-- Node1 -->
<g id="Node000001" class="node">
<title>Node1</title>
<g id="a_Node000001"><a xlink:title=" ">
<polygon fill="#999999" stroke="#666666" points="235.25,-184.5 163.75,-184.5 163.75,-163.75 235.25,-163.75 235.25,-184.5"/>
<text xml:space="preserve" text-anchor="middle" x="199.5" y="-171" font-family="Helvetica,sans-Serif" font-size="10.00">spdk_fsdev</text>
</a>
</g>
</g>
<!-- Node7 -->
<g id="Node000007" class="node">
<title>Node7</title>
<g id="a_Node000007"><a xlink:href="structspdk__fsdev__name.html" target="_top" xlink:title=" ">
<polygon fill="white" stroke="#bfbfbf" points="207.75,-109 103.25,-109 103.25,-88.25 207.75,-88.25 207.75,-109"/>
<text xml:space="preserve" text-anchor="middle" x="155.5" y="-95.5" font-family="Helvetica,sans-Serif" font-size="10.00">spdk_fsdev_name</text>
</a>
</g>
</g>
<!-- Node1&#45;&gt;Node7 -->
<g id="edge7_Node000007_Node000001" class="edge">
<title>Node1&#45;&gt;Node7</title>
<g id="a_edge7_Node000007_Node000001"><a xlink:title=" ">
<path fill="none" stroke="#9a32cd" stroke-dasharray="5,2" d="M187.88,-153.71C179.35,-139.47 168.14,-120.74 161.39,-109.47"/>
<polygon fill="#9a32cd" stroke="#9a32cd" points="184.83,-155.44 192.97,-162.22 190.84,-151.84 184.83,-155.44"/>
</a>
</g>
<text xml:space="preserve" text-anchor="start" x="185.73" y="-133.25" font-family="Helvetica,sans-Serif" font-size="10.00" fill="grey">fsdev</text>
</g>
<!-- Node2 -->
<g id="Node000002" class="node">
<title>Node2</title>
<g id="a_Node000002"><a xlink:href="structspdk__fsdev__module.html" target="_top" xlink:title="Filesystem device module.">
<polygon fill="white" stroke="#666666" points="189.25,-260 75.75,-260 75.75,-239.25 189.25,-239.25 189.25,-260"/>
<text xml:space="preserve" text-anchor="middle" x="132.5" y="-246.5" font-family="Helvetica,sans-Serif" font-size="10.00">spdk_fsdev_module</text>
</a>
</g>
</g>
<!-- Node2&#45;&gt;Node1 -->
<g id="edge1_Node000001_Node000002" class="edge">
<title>Node2&#45;&gt;Node1</title>
<g id="a_edge1_Node000001_Node000002"><a xlink:title=" ">
<path fill="none" stroke="#9a32cd" stroke-dasharray="5,2" d="M148.69,-230.86C161.83,-216.45 179.85,-196.68 190.52,-184.97"/>
<polygon fill="#9a32cd" stroke="#9a32cd" points="146.43,-228.15 142.28,-237.9 151.6,-232.87 146.43,-228.15"/>
</a>
</g>
<text xml:space="preserve" text-anchor="start" x="176.97" y="-208.75" font-family="Helvetica,sans-Serif" font-size="10.00" fill="grey">module</text>
</g>
<!-- Node3 -->
<g id="Node000003" class="node">
<title>Node3</title>
<g id="a_Node000003"><a xlink:href="structspdk__fsdev__module_1_1____fsdev__module__internal__fields.html" target="_top" xlink:title="Fields that are used by the internal fsdev subsystem.">
<polygon fill="white" stroke="#666666" points="201.62,-361 63.38,-361 63.38,-314.75 201.62,-314.75 201.62,-361"/>
<text xml:space="preserve" text-anchor="start" x="71.38" y="-347.5" font-family="Helvetica,sans-Serif" font-size="10.00">spdk_fsdev_module::</text>
<text xml:space="preserve" text-anchor="start" x="71.38" y="-334.75" font-family="Helvetica,sans-Serif" font-size="10.00">__fsdev_module_internal</text>
<text xml:space="preserve" text-anchor="middle" x="132.5" y="-322" font-family="Helvetica,sans-Serif" font-size="10.00">_fields</text>
</a>
</g>
</g>
<!-- Node3&#45;&gt;Node2 -->
<g id="edge2_Node000002_Node000003" class="edge">
<title>Node3&#45;&gt;Node2</title>
<g id="a_edge2_Node000002_Node000003"><a xlink:title=" ">
<path fill="none" stroke="#9a32cd" stroke-dasharray="5,2" d="M132.5,-303.34C132.5,-287.91 132.5,-270.76 132.5,-260.33"/>
<polygon fill="#9a32cd" stroke="#9a32cd" points="129,-303.15 132.5,-313.15 136,-303.15 129,-303.15"/>
</a>
</g>
<text xml:space="preserve" text-anchor="start" x="135.5" y="-284.25" font-family="Helvetica,sans-Serif" font-size="10.00" fill="grey">internal</text>
</g>
<!-- Node4 -->
<g id="Node000004" class="node">
<title>Node4</title>
<g id="a_Node000004"><a xlink:href="structspdk__fsdev__fn__table.html" target="_top" xlink:title="Function table for a filesystem device backend.">
<polygon fill="white" stroke="#666666" points="323.75,-260 207.25,-260 207.25,-239.25 323.75,-239.25 323.75,-260"/>
<text xml:space="preserve" text-anchor="middle" x="265.5" y="-246.5" font-family="Helvetica,sans-Serif" font-size="10.00">spdk_fsdev_fn_table</text>
</a>
</g>
</g>
<!-- Node4&#45;&gt;Node1 -->
<g id="edge3_Node000001_Node000004" class="edge">
<title>Node4&#45;&gt;Node1</title>
<g id="a_edge3_Node000001_Node000004"><a xlink:title=" ">
<path fill="none" stroke="#9a32cd" stroke-dasharray="5,2" d="M249.18,-230.45C236.28,-216.08 218.76,-196.57 208.34,-184.97"/>
<polygon fill="#9a32cd" stroke="#9a32cd" points="246.57,-232.79 255.86,-237.89 251.78,-228.11 246.57,-232.79"/>
</a>
</g>
<text xml:space="preserve" text-anchor="start" x="243.35" y="-208.75" font-family="Helvetica,sans-Serif" font-size="10.00" fill="grey">fn_table</text>
</g>
<!-- Node5 -->
<g id="Node000005" class="node">
<title>Node5</title>
<g id="a_Node000005"><a xlink:href="structspdk__fsdev_1_1____fsdev__internal__fields.html" target="_top" xlink:title="Fields that are used internally by the fsdev subsystem.">
<polygon fill="white" stroke="#666666" points="212.62,-33.5 98.38,-33.5 98.38,0 212.62,0 212.62,-33.5"/>
<text xml:space="preserve" text-anchor="start" x="106.38" y="-20" font-family="Helvetica,sans-Serif" font-size="10.00">spdk_fsdev::__fsdev</text>
<text xml:space="preserve" text-anchor="middle" x="155.5" y="-7.25" font-family="Helvetica,sans-Serif" font-size="10.00">_internal_fields</text>
</a>
</g>
</g>
<!-- Node5&#45;&gt;Node1 -->
<g id="edge4_Node000001_Node000005" class="edge">
<title>Node5&#45;&gt;Node1</title>
<g id="a_edge4_Node000001_Node000005"><a xlink:title=" ">
<path fill="none" stroke="#9a32cd" stroke-dasharray="5,2" d="M216.01,-40.57C219.68,-43.76 222.92,-47.39 225.5,-51.5 247.82,-87.05 234.09,-106.4 219.5,-145.75 217.13,-152.15 212.8,-158.37 208.77,-163.26"/>
<polygon fill="#9a32cd" stroke="#9a32cd" points="218.18,-37.82 208.04,-34.78 214.07,-43.49 218.18,-37.82"/>
</a>
</g>
<text xml:space="preserve" text-anchor="start" x="240.23" y="-95.5" font-family="Helvetica,sans-Serif" font-size="10.00" fill="grey">internal</text>
</g>
<!-- Node6 -->
<g id="Node000006" class="node">
<title>Node6</title>
<g id="a_Node000006"><a xlink:href="structspdk__spinlock.html" target="_top" xlink:title="A spinlock augmented with safety checks for use with SPDK.">
<polygon fill="white" stroke="#666666" points="85,-109 0,-109 0,-88.25 85,-88.25 85,-109"/>
<text xml:space="preserve" text-anchor="middle" x="42.5" y="-95.5" font-family="Helvetica,sans-Serif" font-size="10.00">spdk_spinlock</text>
</a>
</g>
</g>
<!-- Node6&#45;&gt;Node5 -->
<g id="edge5_Node000005_Node000006" class="edge">
<title>Node6&#45;&gt;Node5</title>
<g id="a_edge5_Node000005_Node000006"><a xlink:title=" ">
<path fill="none" stroke="#9a32cd" stroke-dasharray="5,2" d="M64.46,-81.03C76.36,-72.13 91.38,-61.07 105,-51.5 113.37,-45.62 122.65,-39.35 130.94,-33.83"/>
<polygon fill="#9a32cd" stroke="#9a32cd" points="62.41,-78.2 56.51,-87 66.61,-83.79 62.41,-78.2"/>
</a>
</g>
<text xml:space="preserve" text-anchor="start" x="108" y="-57.75" font-family="Helvetica,sans-Serif" font-size="10.00" fill="grey">spinlock</text>
</g>
<!-- Node7&#45;&gt;Node5 -->
<g id="edge6_Node000005_Node000007" class="edge">
<title>Node7&#45;&gt;Node5</title>
<g id="a_edge6_Node000005_Node000007"><a xlink:title=" ">
<path fill="none" stroke="#9a32cd" stroke-dasharray="5,2" d="M155.5,-76.45C155.5,-63.14 155.5,-46.24 155.5,-34"/>
<polygon fill="#9a32cd" stroke="#9a32cd" points="152,-76.32 155.5,-86.32 159,-76.32 152,-76.32"/>
</a>
</g>
<text xml:space="preserve" text-anchor="start" x="158.5" y="-57.75" font-family="Helvetica,sans-Serif" font-size="10.00" fill="grey">fsdev_name</text>
</g>
</g>
</svg>
</svg>

<style type='text/css'>
<![CDATA[
[data-mouse-over-selected='false'] { opacity: 0.7; }
[data-mouse-over-selected='true']  { opacity: 1.0; }
]]>
</style>
<script type="application/ecmascript"><![CDATA[
document.addEventListener('DOMContentLoaded', (event) => {
  highlightEdges();
  highlightAdjacentNodes();
});
]]></script>
</svg>
