<?xml version="1.0" encoding="UTF-8" standalone="no"?>
<!DOCTYPE svg PUBLIC "-//W3C//DTD SVG 1.1//EN"
 "http://www.w3.org/Graphics/SVG/1.1/DTD/svg11.dtd">
<!-- Generated by graphviz version 13.1.2 (20250808.2320)
 -->
<!-- Title: spdk_nvme_cmd Pages: 1 -->
<!--zoomable 1000 -->

<svg id="main" version="1.1" xmlns="http://www.w3.org/2000/svg" xmlns:xlink="http://www.w3.org/1999/xlink" xml:space="preserve" onload="init(evt)">

<style type="text/css"><![CDATA[
.node, .edge {opacity: 0.7;}
.node.selected, .edge.selected {opacity: 1;}
.edge:hover path { stroke: red; }
.edge:hover polygon { stroke: red; fill: red; }
]]></style>

<defs>
  <circle id="rim" cx="0" cy="0" r="7"/>
  <circle id="rim2" cx="0" cy="0" r="3.5"/>
  <g id="zoomPlus">
    <use xlink:href="#rim" fill="#404040"><set attributeName="fill" to="#808080" begin="zoomplus.mouseover" end="zoomplus.mouseout"/></use>
    <path d="M-4,0h8M0,-4v8" fill="none" stroke="white" stroke-width="1.5" pointer-events="none"/>
  </g>
  <g id="zoomMin">
    <use xlink:href="#rim" fill="#404040"><set attributeName="fill" to="#808080" begin="zoomminus.mouseover" end="zoomminus.mouseout"/></use>
    <path d="M-4,0h8" fill="none" stroke="white" stroke-width="1.5" pointer-events="none"/>
  </g>
  <g id="arrowUp" transform="translate(30 24)">
    <use xlink:href="#rim"/>
    <path pointer-events="none" fill="none" stroke="white" stroke-width="1.5" d="M0,-3.0v7 M-2.5,-0.5L0,-3.0L2.5,-0.5"/>
  </g>
  <g id="arrowRight" transform="rotate(90) translate(36 -43)">
    <use xlink:href="#rim"/>
    <path pointer-events="none" fill="none" stroke="white" stroke-width="1.5" d="M0,-3.0v7 M-2.5,-0.5L0,-3.0L2.5,-0.5"/>
  </g>
  <g id="arrowDown" transform="rotate(180) translate(-30 -48)">
    <use xlink:href="#rim"/>
    <path pointer-events="none" fill="none" stroke="white" stroke-width="1.5" d="M0,-3.0v7 M-2.5,-0.5L0,-3.0L2.5,-0.5"/>
  </g>
  <g id="arrowLeft" transform="rotate(270) translate(-36 17)">
    <use xlink:href="#rim"/>
    <path pointer-events="none" fill="none" stroke="white" stroke-width="1.5" d="M0,-3.0v7 M-2.5,-0.5L0,-3.0L2.5,-0.5"/>
  </g>
  <g id="resetDef">
    <use xlink:href="#rim2" fill="#404040"><set attributeName="fill" to="#808080" begin="reset.mouseover" end="reset.mouseout"/></use>
  </g>
</defs>
<script type="application/ecmascript">
var viewWidth = 686;
var viewHeight = 1000;
var sectionId = 'dynsection-0';
</script>
<script type="application/ecmascript" xlink:href="svg.min.js"/>
<svg id="graph" class="graph">
<g id="viewport">
<title>spdk_nvme_cmd</title>
<!-- Node1 -->
<g id="Node000001" class="node">
<title>Node1</title>
<g id="a_Node000001"><a xlink:title=" ">
<polygon fill="#999999" stroke="#666666" points="678,-500.75 579.5,-500.75 579.5,-480 678,-480 678,-500.75"/>
<text xml:space="preserve" text-anchor="middle" x="628.75" y="-487.25" font-family="Helvetica,sans-Serif" font-size="10.00">spdk_nvme_cmd</text>
</a>
</g>
</g>
<!-- Node2 -->
<g id="Node000002" class="node">
<title>Node2</title>
<g id="a_Node000002"><a xlink:href="structspdk__nvme__sgl__descriptor.html" target="_top" xlink:title=" ">
<polygon fill="white" stroke="#bfbfbf" points="482.75,-584.75 337,-584.75 337,-564 482.75,-564 482.75,-584.75"/>
<text xml:space="preserve" text-anchor="middle" x="409.88" y="-571.25" font-family="Helvetica,sans-Serif" font-size="10.00">spdk_nvme_sgl_descriptor</text>
</a>
</g>
</g>
<!-- Node2&#45;&gt;Node1 -->
<g id="edge1_Node000001_Node000002" class="edge">
<title>Node2&#45;&gt;Node1</title>
<g id="a_edge1_Node000001_Node000002"><a xlink:title=" ">
<path fill="none" stroke="#9a32cd" stroke-dasharray="5,2" d="M494.45,-564.42C516.91,-559.82 540.72,-553.13 561.5,-543.37 583.9,-532.86 605.43,-513.32 617.59,-501.13"/>
<polygon fill="#9a32cd" stroke="#9a32cd" points="493.85,-560.97 484.69,-566.29 495.17,-567.85 493.85,-560.97"/>
</a>
</g>
<text xml:space="preserve" text-anchor="start" x="521" y="-569.13" font-family="Helvetica,sans-Serif" font-size="10.00" fill="grey">sgl1</text>
</g>
<!-- Node3 -->
<g id="Node000003" class="node">
<title>Node3</title>
<g id="a_Node000003"><a xlink:href="unionspdk__nvme__cmd__cdw10.html" target="_top" xlink:title=" ">
<polygon fill="white" stroke="#bfbfbf" points="477.5,-542.75 342.25,-542.75 342.25,-522 477.5,-522 477.5,-542.75"/>
<text xml:space="preserve" text-anchor="middle" x="409.88" y="-529.25" font-family="Helvetica,sans-Serif" font-size="10.00">spdk_nvme_cmd_cdw10</text>
</a>
</g>
</g>
<!-- Node3&#45;&gt;Node1 -->
<g id="edge2_Node000001_Node000003" class="edge">
<title>Node3&#45;&gt;Node1</title>
<g id="a_edge2_Node000001_Node000003"><a xlink:title=" ">
<path fill="none" stroke="#9a32cd" stroke-dasharray="5,2" d="M489.27,-523.17C512.64,-519.82 538.22,-515.56 561.5,-510.37 572.64,-507.89 584.64,-504.5 595.32,-501.21"/>
<polygon fill="#9a32cd" stroke="#9a32cd" points="488.92,-519.68 479.5,-524.53 489.88,-526.61 488.92,-519.68"/>
</a>
</g>
<text xml:space="preserve" text-anchor="start" x="503.75" y="-527.24" font-family="Helvetica,sans-Serif" font-size="10.00" fill="grey">cdw10_bits</text>
</g>
<!-- Node4 -->
<g id="Node000004" class="node">
<title>Node4</title>
<g id="a_Node000004"><a xlink:href="unionspdk__nvme__cmd__cdw11.html" target="_top" xlink:title=" ">
<polygon fill="white" stroke="#bfbfbf" points="477.5,-503.75 342.25,-503.75 342.25,-483 477.5,-483 477.5,-503.75"/>
<text xml:space="preserve" text-anchor="middle" x="409.88" y="-490.25" font-family="Helvetica,sans-Serif" font-size="10.00">spdk_nvme_cmd_cdw11</text>
</a>
</g>
</g>
<!-- Node4&#45;&gt;Node1 -->
<g id="edge3_Node000001_Node000004" class="edge">
<title>Node4&#45;&gt;Node1</title>
<g id="a_edge3_Node000001_Node000004"><a xlink:title=" ">
<path fill="none" stroke="#9a32cd" stroke-dasharray="5,2" d="M488.94,-491.81C492.93,-491.74 496.89,-491.68 500.75,-491.62 526.66,-491.24 555.54,-490.95 579.2,-490.74"/>
<polygon fill="#9a32cd" stroke="#9a32cd" points="489.07,-488.3 479.14,-491.98 489.19,-495.3 489.07,-488.3"/>
</a>
</g>
<text xml:space="preserve" text-anchor="start" x="503.75" y="-497.87" font-family="Helvetica,sans-Serif" font-size="10.00" fill="grey">cdw11_bits</text>
</g>
<!-- Node5 -->
<g id="Node000005" class="node">
<title>Node5</title>
<g id="a_Node000005"><a xlink:href="unionspdk__nvme__feat__arbitration.html" target="_top" xlink:title="Data used by Set Features/Get Features SPDK_NVME_FEAT_ARBITRATION.">
<polygon fill="white" stroke="#666666" points="158.12,-964.75 4.88,-964.75 4.88,-944 158.12,-944 158.12,-964.75"/>
<text xml:space="preserve" text-anchor="middle" x="81.5" y="-951.25" font-family="Helvetica,sans-Serif" font-size="10.00">spdk_nvme_feat_arbitration</text>
</a>
</g>
</g>
<!-- Node5&#45;&gt;Node4 -->
<g id="edge4_Node000004_Node000005" class="edge">
<title>Node5&#45;&gt;Node4</title>
<g id="a_edge4_Node000004_Node000005"><a xlink:title=" ">
<path fill="none" stroke="#9a32cd" stroke-dasharray="5,2" d="M136.61,-967.31C190.98,-976.75 273.09,-980.63 319,-932.37 351.12,-898.61 308.02,-549.86 337,-513.37 339.9,-509.72 343.41,-506.7 347.29,-504.21"/>
<polygon fill="#9a32cd" stroke="#9a32cd" points="137.41,-963.9 126.94,-965.51 136.13,-970.79 137.41,-963.9"/>
</a>
</g>
<text xml:space="preserve" text-anchor="start" x="212.12" y="-979.42" font-family="Helvetica,sans-Serif" font-size="10.00" fill="grey">feat_arbitration</text>
</g>
<!-- Node6 -->
<g id="Node000006" class="node">
<title>Node6</title>
<g id="a_Node000006"><a xlink:href="unionspdk__nvme__feat__power__management.html" target="_top" xlink:title="Data used by Set Features/Get Features SPDK_NVME_FEAT_POWER_MANAGEMENT.">
<polygon fill="white" stroke="#666666" points="147.62,-926.12 15.38,-926.12 15.38,-892.62 147.62,-892.62 147.62,-926.12"/>
<text xml:space="preserve" text-anchor="start" x="23.38" y="-912.62" font-family="Helvetica,sans-Serif" font-size="10.00">spdk_nvme_feat_power</text>
<text xml:space="preserve" text-anchor="middle" x="81.5" y="-899.87" font-family="Helvetica,sans-Serif" font-size="10.00">_management</text>
</a>
</g>
</g>
<!-- Node6&#45;&gt;Node4 -->
<g id="edge5_Node000004_Node000006" class="edge">
<title>Node6&#45;&gt;Node4</title>
<g id="a_edge5_Node000004_Node000006"><a xlink:title=" ">
<path fill="none" stroke="#9a32cd" stroke-dasharray="5,2" d="M159.61,-910.26C220.23,-909.15 297.87,-903.11 319,-880.37 346.8,-850.47 311.51,-545.27 337,-513.37 339.91,-509.73 343.42,-506.72 347.31,-504.23"/>
<polygon fill="#9a32cd" stroke="#9a32cd" points="159.58,-906.76 149.63,-910.4 159.68,-913.76 159.58,-906.76"/>
</a>
</g>
<text xml:space="preserve" text-anchor="start" x="187.38" y="-915.67" font-family="Helvetica,sans-Serif" font-size="10.00" fill="grey">feat_power_management</text>
</g>
<!-- Node7 -->
<g id="Node000007" class="node">
<title>Node7</title>
<g id="a_Node000007"><a xlink:href="unionspdk__nvme__feat__lba__range__type.html" target="_top" xlink:title="Data used by Set Features/Get Features SPDK_NVME_FEAT_LBA_RANGE_TYPE.">
<polygon fill="white" stroke="#666666" points="140.12,-874.12 22.88,-874.12 22.88,-840.62 140.12,-840.62 140.12,-874.12"/>
<text xml:space="preserve" text-anchor="start" x="30.88" y="-860.62" font-family="Helvetica,sans-Serif" font-size="10.00">spdk_nvme_feat_lba</text>
<text xml:space="preserve" text-anchor="middle" x="81.5" y="-847.87" font-family="Helvetica,sans-Serif" font-size="10.00">_range_type</text>
</a>
</g>
</g>
<!-- Node7&#45;&gt;Node4 -->
<g id="edge6_Node000004_Node000007" class="edge">
<title>Node7&#45;&gt;Node4</title>
<g id="a_edge6_Node000004_Node000007"><a xlink:title=" ">
<path fill="none" stroke="#9a32cd" stroke-dasharray="5,2" d="M151.57,-858.65C213.12,-858.17 296.8,-852.97 319,-829.37 367.2,-778.15 292.87,-568.15 337,-513.37 340.01,-509.64 343.65,-506.57 347.67,-504.05"/>
<polygon fill="#9a32cd" stroke="#9a32cd" points="151.86,-855.15 141.87,-858.69 151.88,-862.15 151.86,-855.15"/>
</a>
</g>
<text xml:space="preserve" text-anchor="start" x="200.12" y="-864.08" font-family="Helvetica,sans-Serif" font-size="10.00" fill="grey">feat_lba_range_type</text>
</g>
<!-- Node8 -->
<g id="Node000008" class="node">
<title>Node8</title>
<g id="a_Node000008"><a xlink:href="unionspdk__nvme__feat__temperature__threshold.html" target="_top" xlink:title="Data used by Set Features/Get Features SPDK_NVME_FEAT_TEMPERATURE_THRESHOLD.">
<polygon fill="white" stroke="#666666" points="163,-822.12 0,-822.12 0,-788.62 163,-788.62 163,-822.12"/>
<text xml:space="preserve" text-anchor="start" x="8" y="-808.62" font-family="Helvetica,sans-Serif" font-size="10.00">spdk_nvme_feat_temperature</text>
<text xml:space="preserve" text-anchor="middle" x="81.5" y="-795.87" font-family="Helvetica,sans-Serif" font-size="10.00">_threshold</text>
</a>
</g>
</g>
<!-- Node8&#45;&gt;Node4 -->
<g id="edge7_Node000004_Node000008" class="edge">
<title>Node8&#45;&gt;Node4</title>
<g id="a_edge7_Node000004_Node000008"><a xlink:title=" ">
<path fill="none" stroke="#9a32cd" stroke-dasharray="5,2" d="M174.88,-807C232.5,-805.86 299.33,-799.88 319,-779.37 360.01,-736.61 299.59,-559.31 337,-513.37 340.03,-509.66 343.68,-506.6 347.71,-504.08"/>
<polygon fill="#9a32cd" stroke="#9a32cd" points="174.95,-803.49 165.01,-807.14 175.06,-810.49 174.95,-803.49"/>
</a>
</g>
<text xml:space="preserve" text-anchor="start" x="199.38" y="-812.93" font-family="Helvetica,sans-Serif" font-size="10.00" fill="grey">feat_temp_threshold</text>
</g>
<!-- Node9 -->
<g id="Node000009" class="node">
<title>Node9</title>
<g id="a_Node000009"><a xlink:href="unionspdk__nvme__feat__error__recovery.html" target="_top" xlink:title="Data used by Set Features/Get Features SPDK_NVME_FEAT_ERROR_RECOVERY.">
<polygon fill="white" stroke="#666666" points="144.25,-770.12 18.75,-770.12 18.75,-736.62 144.25,-736.62 144.25,-770.12"/>
<text xml:space="preserve" text-anchor="start" x="26.75" y="-756.62" font-family="Helvetica,sans-Serif" font-size="10.00">spdk_nvme_feat_error</text>
<text xml:space="preserve" text-anchor="middle" x="81.5" y="-743.87" font-family="Helvetica,sans-Serif" font-size="10.00">_recovery</text>
</a>
</g>
</g>
<!-- Node9&#45;&gt;Node4 -->
<g id="edge8_Node000004_Node000009" class="edge">
<title>Node9&#45;&gt;Node4</title>
<g id="a_edge8_Node000004_Node000009"><a xlink:title=" ">
<path fill="none" stroke="#9a32cd" stroke-dasharray="5,2" d="M156.18,-756.45C217.02,-757.26 296.86,-753.74 319,-731.37 353.19,-696.82 306.02,-550.84 337,-513.37 340.05,-509.68 343.73,-506.64 347.77,-504.13"/>
<polygon fill="#9a32cd" stroke="#9a32cd" points="156.24,-752.95 146.18,-756.27 156.12,-759.95 156.24,-752.95"/>
</a>
</g>
<text xml:space="preserve" text-anchor="start" x="202" y="-762.69" font-family="Helvetica,sans-Serif" font-size="10.00" fill="grey">feat_error_recovery</text>
</g>
<!-- Node10 -->
<g id="Node000010" class="node">
<title>Node10</title>
<g id="a_Node000010"><a xlink:href="unionspdk__nvme__feat__volatile__write__cache.html" target="_top" xlink:title="Data used by Set Features/Get Features SPDK_NVME_FEAT_VOLATILE_WRITE_CACHE.">
<polygon fill="white" stroke="#666666" points="151,-718.12 12,-718.12 12,-684.62 151,-684.62 151,-718.12"/>
<text xml:space="preserve" text-anchor="start" x="20" y="-704.62" font-family="Helvetica,sans-Serif" font-size="10.00">spdk_nvme_feat_volatile</text>
<text xml:space="preserve" text-anchor="middle" x="81.5" y="-691.87" font-family="Helvetica,sans-Serif" font-size="10.00">_write_cache</text>
</a>
</g>
</g>
<!-- Node10&#45;&gt;Node4 -->
<g id="edge9_Node000004_Node000010" class="edge">
<title>Node10&#45;&gt;Node4</title>
<g id="a_edge9_Node000004_Node000010"><a xlink:title=" ">
<path fill="none" stroke="#9a32cd" stroke-dasharray="5,2" d="M162.56,-696.07C226.77,-691.03 307.96,-682.56 319,-671.37 368.66,-621.08 291.12,-567.14 337,-513.37 340.11,-509.73 343.82,-506.72 347.9,-504.24"/>
<polygon fill="#9a32cd" stroke="#9a32cd" points="162.41,-692.57 152.71,-696.83 162.95,-699.55 162.41,-692.57"/>
</a>
</g>
<text xml:space="preserve" text-anchor="start" x="204.25" y="-717.05" font-family="Helvetica,sans-Serif" font-size="10.00" fill="grey">feat_volatile_write</text>
<text xml:space="preserve" text-anchor="start" x="204.25" y="-700.3" font-family="Helvetica,sans-Serif" font-size="10.00" fill="grey">  _cache</text>
</g>
<!-- Node11 -->
<g id="Node000011" class="node">
<title>Node11</title>
<g id="a_Node000011"><a xlink:href="unionspdk__nvme__feat__number__of__queues.html" target="_top" xlink:title="Data used by Set Features/Get Features SPDK_NVME_FEAT_NUMBER_OF_QUEUES.">
<polygon fill="white" stroke="#666666" points="151.38,-666.12 11.62,-666.12 11.62,-632.62 151.38,-632.62 151.38,-666.12"/>
<text xml:space="preserve" text-anchor="start" x="19.62" y="-652.62" font-family="Helvetica,sans-Serif" font-size="10.00">spdk_nvme_feat_number</text>
<text xml:space="preserve" text-anchor="middle" x="81.5" y="-639.87" font-family="Helvetica,sans-Serif" font-size="10.00">_of_queues</text>
</a>
</g>
</g>
<!-- Node11&#45;&gt;Node4 -->
<g id="edge10_Node000004_Node000011" class="edge">
<title>Node11&#45;&gt;Node4</title>
<g id="a_edge10_Node000004_Node000011"><a xlink:title=" ">
<path fill="none" stroke="#9a32cd" stroke-dasharray="5,2" d="M162.91,-649.87C222.51,-648.45 297.04,-642.32 319,-621.37 354.21,-587.79 304.47,-549.56 337,-513.37 340.29,-509.71 344.19,-506.7 348.44,-504.22"/>
<polygon fill="#9a32cd" stroke="#9a32cd" points="163.04,-646.37 153.11,-650.06 163.17,-653.36 163.04,-646.37"/>
</a>
</g>
<text xml:space="preserve" text-anchor="start" x="199" y="-655.32" font-family="Helvetica,sans-Serif" font-size="10.00" fill="grey">feat_num_of_queues</text>
</g>
<!-- Node12 -->
<g id="Node000012" class="node">
<title>Node12</title>
<g id="a_Node000012"><a xlink:href="unionspdk__nvme__feat__interrupt__coalescing.html" target="_top" xlink:title="Data used by Set Features/Get Features SPDK_NVME_FEAT_INTERRUPT_COALESCING.">
<polygon fill="white" stroke="#666666" points="153.62,-614.12 9.38,-614.12 9.38,-580.62 153.62,-580.62 153.62,-614.12"/>
<text xml:space="preserve" text-anchor="start" x="17.38" y="-600.62" font-family="Helvetica,sans-Serif" font-size="10.00">spdk_nvme_feat_interrupt</text>
<text xml:space="preserve" text-anchor="middle" x="81.5" y="-587.87" font-family="Helvetica,sans-Serif" font-size="10.00">_coalescing</text>
</a>
</g>
</g>
<!-- Node12&#45;&gt;Node4 -->
<g id="edge11_Node000004_Node000012" class="edge">
<title>Node12&#45;&gt;Node4</title>
<g id="a_edge11_Node000004_Node000012"><a xlink:title=" ">
<path fill="none" stroke="#9a32cd" stroke-dasharray="5,2" d="M165.01,-599.29C223.7,-598.91 296.04,-594.34 319,-575.37 341.12,-557.1 316.6,-533.55 337,-513.37 340.78,-509.64 345.19,-506.59 349.93,-504.1"/>
<polygon fill="#9a32cd" stroke="#9a32cd" points="165.36,-595.79 155.37,-599.31 165.37,-602.79 165.36,-595.79"/>
</a>
</g>
<text xml:space="preserve" text-anchor="start" x="188.12" y="-605.23" font-family="Helvetica,sans-Serif" font-size="10.00" fill="grey">feat_interrupt_coalescing</text>
</g>
<!-- Node13 -->
<g id="Node000013" class="node">
<title>Node13</title>
<g id="a_Node000013"><a xlink:href="unionspdk__nvme__feat__interrupt__vector__configuration.html" target="_top" xlink:title="Data used by Set Features/Get Features SPDK_NVME_FEAT_INTERRUPT_VECTOR_CONFIGURATION.">
<polygon fill="white" stroke="#666666" points="153.62,-562.12 9.38,-562.12 9.38,-528.62 153.62,-528.62 153.62,-562.12"/>
<text xml:space="preserve" text-anchor="start" x="17.38" y="-548.62" font-family="Helvetica,sans-Serif" font-size="10.00">spdk_nvme_feat_interrupt</text>
<text xml:space="preserve" text-anchor="middle" x="81.5" y="-535.87" font-family="Helvetica,sans-Serif" font-size="10.00">_vector_configuration</text>
</a>
</g>
</g>
<!-- Node13&#45;&gt;Node4 -->
<g id="edge12_Node000004_Node000013" class="edge">
<title>Node13&#45;&gt;Node4</title>
<g id="a_edge12_Node000004_Node000013"><a xlink:title=" ">
<path fill="none" stroke="#9a32cd" stroke-dasharray="5,2" d="M165.34,-537.85C210.9,-533.05 268.31,-525.92 319,-516.37 336.25,-513.12 355.11,-508.47 371.07,-504.2"/>
<polygon fill="#9a32cd" stroke="#9a32cd" points="165.11,-534.35 155.52,-538.86 165.83,-541.32 165.11,-534.35"/>
</a>
</g>
<text xml:space="preserve" text-anchor="start" x="198.62" y="-558.74" font-family="Helvetica,sans-Serif" font-size="10.00" fill="grey">feat_interrupt_vector</text>
<text xml:space="preserve" text-anchor="start" x="198.62" y="-541.99" font-family="Helvetica,sans-Serif" font-size="10.00" fill="grey">  _configuration</text>
</g>
<!-- Node14 -->
<g id="Node000014" class="node">
<title>Node14</title>
<g id="a_Node000014"><a xlink:href="unionspdk__nvme__feat__write__atomicity.html" target="_top" xlink:title="Data used by Set Features/Get Features SPDK_NVME_FEAT_WRITE_ATOMICITY.">
<polygon fill="white" stroke="#666666" points="145,-510.12 18,-510.12 18,-476.62 145,-476.62 145,-510.12"/>
<text xml:space="preserve" text-anchor="start" x="26" y="-496.62" font-family="Helvetica,sans-Serif" font-size="10.00">spdk_nvme_feat_write</text>
<text xml:space="preserve" text-anchor="middle" x="81.5" y="-483.87" font-family="Helvetica,sans-Serif" font-size="10.00">_atomicity</text>
</a>
</g>
</g>
<!-- Node14&#45;&gt;Node4 -->
<g id="edge13_Node000004_Node000014" class="edge">
<title>Node14&#45;&gt;Node4</title>
<g id="a_edge13_Node000004_Node000014"><a xlink:title=" ">
<path fill="none" stroke="#9a32cd" stroke-dasharray="5,2" d="M156.65,-493.37C212.36,-493.37 288.04,-493.37 341.93,-493.37"/>
<polygon fill="#9a32cd" stroke="#9a32cd" points="156.94,-489.87 146.94,-493.37 156.94,-496.87 156.94,-489.87"/>
</a>
</g>
<text xml:space="preserve" text-anchor="start" x="199.38" y="-499.62" font-family="Helvetica,sans-Serif" font-size="10.00" fill="grey">feat_write_atomicity</text>
</g>
<!-- Node15 -->
<g id="Node000015" class="node">
<title>Node15</title>
<g id="a_Node000015"><a xlink:href="unionspdk__nvme__feat__async__event__configuration.html" target="_top" xlink:title="Data used by Set Features / Get Features SPDK_NVME_FEAT_ASYNC_EVENT_CONFIGURATION.">
<polygon fill="#fff0f0" stroke="red" points="146.88,-458.12 16.12,-458.12 16.12,-424.62 146.88,-424.62 146.88,-458.12"/>
<text xml:space="preserve" text-anchor="start" x="24.12" y="-444.62" font-family="Helvetica,sans-Serif" font-size="10.00">spdk_nvme_feat_async</text>
<text xml:space="preserve" text-anchor="middle" x="81.5" y="-431.87" font-family="Helvetica,sans-Serif" font-size="10.00">_event_configuration</text>
</a>
</g>
</g>
<!-- Node15&#45;&gt;Node4 -->
<g id="edge14_Node000004_Node000015" class="edge">
<title>Node15&#45;&gt;Node4</title>
<g id="a_edge14_Node000004_Node000015"><a xlink:title=" ">
<path fill="none" stroke="#9a32cd" stroke-dasharray="5,2" d="M158.54,-448.34C205.1,-453.21 265.75,-460.63 319,-470.62 336.08,-473.83 354.75,-478.38 370.62,-482.57"/>
<polygon fill="#9a32cd" stroke="#9a32cd" points="159.14,-444.88 148.83,-447.34 158.42,-451.85 159.14,-444.88"/>
</a>
</g>
<text xml:space="preserve" text-anchor="start" x="196.75" y="-476.87" font-family="Helvetica,sans-Serif" font-size="10.00" fill="grey">feat_async_event_cfg</text>
</g>
<!-- Node17 -->
<g id="Node000017" class="node">
<title>Node17</title>
<g id="a_Node000017"><a xlink:href="unionspdk__nvme__feat__keep__alive__timer.html" target="_top" xlink:title="Data used by Set Features/Get Features SPDK_NVME_FEAT_KEEP_ALIVE_TIMER.">
<polygon fill="white" stroke="#666666" points="144.25,-406.12 18.75,-406.12 18.75,-372.62 144.25,-372.62 144.25,-406.12"/>
<text xml:space="preserve" text-anchor="start" x="26.75" y="-392.62" font-family="Helvetica,sans-Serif" font-size="10.00">spdk_nvme_feat_keep</text>
<text xml:space="preserve" text-anchor="middle" x="81.5" y="-379.87" font-family="Helvetica,sans-Serif" font-size="10.00">_alive_timer</text>
</a>
</g>
</g>
<!-- Node17&#45;&gt;Node4 -->
<g id="edge15_Node000004_Node000017" class="edge">
<title>Node17&#45;&gt;Node4</title>
<g id="a_edge15_Node000004_Node000017"><a xlink:title=" ">
<path fill="none" stroke="#9a32cd" stroke-dasharray="5,2" d="M155.87,-392.88C203.83,-397.24 266.97,-406.97 319,-428.62 350.6,-441.78 381.71,-467.94 397.73,-482.67"/>
<polygon fill="#9a32cd" stroke="#9a32cd" points="156.41,-389.41 146.15,-392.06 155.82,-396.39 156.41,-389.41"/>
</a>
</g>
<text xml:space="preserve" text-anchor="start" x="195.62" y="-434.87" font-family="Helvetica,sans-Serif" font-size="10.00" fill="grey">feat_keep_alive_timer</text>
</g>
<!-- Node18 -->
<g id="Node000018" class="node">
<title>Node18</title>
<g id="a_Node000018"><a xlink:href="unionspdk__nvme__feat__host__identifier.html" target="_top" xlink:title="Data used by Set Features/Get Features SPDK_NVME_FEAT_HOST_IDENTIFIER.">
<polygon fill="white" stroke="#666666" points="143.12,-354.12 19.88,-354.12 19.88,-320.62 143.12,-320.62 143.12,-354.12"/>
<text xml:space="preserve" text-anchor="start" x="27.88" y="-340.62" font-family="Helvetica,sans-Serif" font-size="10.00">spdk_nvme_feat_host</text>
<text xml:space="preserve" text-anchor="middle" x="81.5" y="-327.87" font-family="Helvetica,sans-Serif" font-size="10.00">_identifier</text>
</a>
</g>
</g>
<!-- Node18&#45;&gt;Node4 -->
<g id="edge16_Node000004_Node000018" class="edge">
<title>Node18&#45;&gt;Node4</title>
<g id="a_edge16_Node000004_Node000018"><a xlink:title=" ">
<path fill="none" stroke="#9a32cd" stroke-dasharray="5,2" d="M154.85,-334.16C204.31,-335.17 269.6,-343.05 319,-372.62 364.07,-399.6 393.77,-458.66 404.45,-482.78"/>
<polygon fill="#9a32cd" stroke="#9a32cd" points="155.14,-330.67 145.1,-334.06 155.07,-337.67 155.14,-330.67"/>
</a>
</g>
<text xml:space="preserve" text-anchor="start" x="202.75" y="-378.87" font-family="Helvetica,sans-Serif" font-size="10.00" fill="grey">feat_host_identifier</text>
</g>
<!-- Node19 -->
<g id="Node000019" class="node">
<title>Node19</title>
<g id="a_Node000019"><a xlink:href="unionspdk__nvme__feat__reservation__notification__mask.html" target="_top" xlink:title="Data used by Set Features/Get Features SPDK_NVME_FEAT_HOST_RESERVE_MASK.">
<polygon fill="white" stroke="#666666" points="160.38,-302.12 2.62,-302.12 2.62,-268.62 160.38,-268.62 160.38,-302.12"/>
<text xml:space="preserve" text-anchor="start" x="10.62" y="-288.62" font-family="Helvetica,sans-Serif" font-size="10.00">spdk_nvme_feat_reservation</text>
<text xml:space="preserve" text-anchor="middle" x="81.5" y="-275.87" font-family="Helvetica,sans-Serif" font-size="10.00">_notification_mask</text>
</a>
</g>
</g>
<!-- Node19&#45;&gt;Node4 -->
<g id="edge17_Node000004_Node000019" class="edge">
<title>Node19&#45;&gt;Node4</title>
<g id="a_edge17_Node000004_Node000019"><a xlink:title=" ">
<path fill="none" stroke="#9a32cd" stroke-dasharray="5,2" d="M171.98,-276.16C219.57,-275.78 276.8,-283 319,-312.62 379.52,-355.11 401.33,-450.35 407.13,-482.52"/>
<polygon fill="#9a32cd" stroke="#9a32cd" points="172.17,-272.65 162.24,-276.36 172.31,-279.65 172.17,-272.65"/>
</a>
</g>
<text xml:space="preserve" text-anchor="start" x="184" y="-318.87" font-family="Helvetica,sans-Serif" font-size="10.00" fill="grey">feat_rsv_notification_mask</text>
</g>
<!-- Node20 -->
<g id="Node000020" class="node">
<title>Node20</title>
<g id="a_Node000020"><a xlink:href="unionspdk__nvme__feat__reservation__persistence.html" target="_top" xlink:title="Data used by Set Features/Get Features SPDK_NVME_FEAT_HOST_RESERVE_PERSIST.">
<polygon fill="white" stroke="#666666" points="160.38,-250.12 2.62,-250.12 2.62,-216.62 160.38,-216.62 160.38,-250.12"/>
<text xml:space="preserve" text-anchor="start" x="10.62" y="-236.62" font-family="Helvetica,sans-Serif" font-size="10.00">spdk_nvme_feat_reservation</text>
<text xml:space="preserve" text-anchor="middle" x="81.5" y="-223.87" font-family="Helvetica,sans-Serif" font-size="10.00">_persistence</text>
</a>
</g>
</g>
<!-- Node20&#45;&gt;Node4 -->
<g id="edge18_Node000004_Node000020" class="edge">
<title>Node20&#45;&gt;Node4</title>
<g id="a_edge18_Node000004_Node000020"><a xlink:title=" ">
<path fill="none" stroke="#9a32cd" stroke-dasharray="5,2" d="M172.15,-219.43C220.2,-216.9 277.81,-222.39 319,-253.62 396.04,-312.04 407.05,-444.25 408.62,-482.7"/>
<polygon fill="#9a32cd" stroke="#9a32cd" points="172.05,-215.93 162.3,-220.08 172.51,-222.91 172.05,-215.93"/>
</a>
</g>
<text xml:space="preserve" text-anchor="start" x="199.38" y="-259.87" font-family="Helvetica,sans-Serif" font-size="10.00" fill="grey">feat_rsv_persistence</text>
</g>
<!-- Node21 -->
<g id="Node000021" class="node">
<title>Node21</title>
<g id="a_Node000021"><a xlink:href="unionspdk__nvme__feat__fdp__cdw11.html" target="_top" xlink:title="Data used by Set Features/Get Features SPDK_NVME_FEAT_FDP.">
<polygon fill="white" stroke="#666666" points="140.5,-198.12 22.5,-198.12 22.5,-164.62 140.5,-164.62 140.5,-198.12"/>
<text xml:space="preserve" text-anchor="start" x="30.5" y="-184.62" font-family="Helvetica,sans-Serif" font-size="10.00">spdk_nvme_feat_fdp</text>
<text xml:space="preserve" text-anchor="middle" x="81.5" y="-171.87" font-family="Helvetica,sans-Serif" font-size="10.00">_cdw11</text>
</a>
</g>
</g>
<!-- Node21&#45;&gt;Node4 -->
<g id="edge19_Node000004_Node000021" class="edge">
<title>Node21&#45;&gt;Node4</title>
<g id="a_edge19_Node000004_Node000021"><a xlink:title=" ">
<path fill="none" stroke="#9a32cd" stroke-dasharray="5,2" d="M152.18,-166.42C203.68,-159.58 272.62,-159.84 319,-196.62 366.34,-234.17 399.77,-434.08 407.28,-482.71"/>
<polygon fill="#9a32cd" stroke="#9a32cd" points="151.7,-162.95 142.31,-167.86 152.71,-169.88 151.7,-162.95"/>
</a>
</g>
<text xml:space="preserve" text-anchor="start" x="211.38" y="-202.87" font-family="Helvetica,sans-Serif" font-size="10.00" fill="grey">feat_fdp_cdw11</text>
</g>
<!-- Node22 -->
<g id="Node000022" class="node">
<title>Node22</title>
<g id="a_Node000022"><a xlink:href="unionspdk__nvme__feat__fdp__events__cdw11.html" target="_top" xlink:title="Data used by Set Features/Get Features SPDK_NVME_FEAT_FDP_EVENTS.">
<polygon fill="white" stroke="#666666" points="140.5,-146.12 22.5,-146.12 22.5,-112.62 140.5,-112.62 140.5,-146.12"/>
<text xml:space="preserve" text-anchor="start" x="30.5" y="-132.62" font-family="Helvetica,sans-Serif" font-size="10.00">spdk_nvme_feat_fdp</text>
<text xml:space="preserve" text-anchor="middle" x="81.5" y="-119.87" font-family="Helvetica,sans-Serif" font-size="10.00">_events_cdw11</text>
</a>
</g>
</g>
<!-- Node22&#45;&gt;Node4 -->
<g id="edge20_Node000004_Node000022" class="edge">
<title>Node22&#45;&gt;Node4</title>
<g id="a_edge20_Node000004_Node000022"><a xlink:title=" ">
<path fill="none" stroke="#9a32cd" stroke-dasharray="5,2" d="M151.92,-112.53C203.65,-104.33 273.01,-103.1 319,-140.62 333.02,-152.06 393.87,-425.3 406.55,-482.81"/>
<polygon fill="#9a32cd" stroke="#9a32cd" points="151.59,-109.03 142.33,-114.18 152.78,-115.93 151.59,-109.03"/>
</a>
</g>
<text xml:space="preserve" text-anchor="start" x="192.25" y="-146.87" font-family="Helvetica,sans-Serif" font-size="10.00" fill="grey">feat_fdp_events_cdw11</text>
</g>
<!-- Node23 -->
<g id="Node000023" class="node">
<title>Node23</title>
<g id="a_Node000023"><a xlink:href="unionspdk__nvme__cmd__cdw12.html" target="_top" xlink:title=" ">
<polygon fill="white" stroke="#bfbfbf" points="477.5,-179.75 342.25,-179.75 342.25,-159 477.5,-159 477.5,-179.75"/>
<text xml:space="preserve" text-anchor="middle" x="409.88" y="-166.25" font-family="Helvetica,sans-Serif" font-size="10.00">spdk_nvme_cmd_cdw12</text>
</a>
</g>
</g>
<!-- Node23&#45;&gt;Node1 -->
<g id="edge21_Node000001_Node000023" class="edge">
<title>Node23&#45;&gt;Node1</title>
<g id="a_edge21_Node000001_Node000023"><a xlink:title=" ">
<path fill="none" stroke="#9a32cd" stroke-dasharray="5,2" d="M424.4,-189.39C465.7,-250.52 589.26,-433.4 620.51,-479.65"/>
<polygon fill="#9a32cd" stroke="#9a32cd" points="427.44,-187.63 418.94,-181.31 421.64,-191.55 427.44,-187.63"/>
</a>
</g>
<text xml:space="preserve" text-anchor="start" x="503.75" y="-392.79" font-family="Helvetica,sans-Serif" font-size="10.00" fill="grey">cdw12_bits</text>
</g>
<!-- Node24 -->
<g id="Node000024" class="node">
<title>Node24</title>
<g id="a_Node000024"><a xlink:href="unionspdk__nvme__feat__fdp__cdw12.html" target="_top" xlink:title="Data used by Set Features/Get Features SPDK_NVME_FEAT_FDP.">
<polygon fill="white" stroke="#666666" points="140.5,-94.12 22.5,-94.12 22.5,-60.62 140.5,-60.62 140.5,-94.12"/>
<text xml:space="preserve" text-anchor="start" x="30.5" y="-80.62" font-family="Helvetica,sans-Serif" font-size="10.00">spdk_nvme_feat_fdp</text>
<text xml:space="preserve" text-anchor="middle" x="81.5" y="-67.87" font-family="Helvetica,sans-Serif" font-size="10.00">_cdw12</text>
</a>
</g>
</g>
<!-- Node24&#45;&gt;Node23 -->
<g id="edge22_Node000023_Node000024" class="edge">
<title>Node24&#45;&gt;Node23</title>
<g id="a_edge22_Node000023_Node000024"><a xlink:title=" ">
<path fill="none" stroke="#9a32cd" stroke-dasharray="5,2" d="M152.34,-60.91C203.77,-53.09 272.54,-52.18 319,-88.62 341.16,-106 316.92,-129.63 337,-149.37 340.79,-153.1 345.2,-156.14 349.95,-158.63"/>
<polygon fill="#9a32cd" stroke="#9a32cd" points="151.77,-57.46 142.48,-62.54 152.92,-64.36 151.77,-57.46"/>
</a>
</g>
<text xml:space="preserve" text-anchor="start" x="211.38" y="-94.87" font-family="Helvetica,sans-Serif" font-size="10.00" fill="grey">feat_fdp_cdw12</text>
</g>
<!-- Node25 -->
<g id="Node000025" class="node">
<title>Node25</title>
<g id="a_Node000025"><a xlink:href="unionspdk__nvme__feat__fdp__events__cdw12.html" target="_top" xlink:title="Data used by Set Feature SPDK_NVME_FEAT_FDP_EVENTS.">
<polygon fill="white" stroke="#666666" points="140.5,-42.12 22.5,-42.12 22.5,-8.62 140.5,-8.62 140.5,-42.12"/>
<text xml:space="preserve" text-anchor="start" x="30.5" y="-28.62" font-family="Helvetica,sans-Serif" font-size="10.00">spdk_nvme_feat_fdp</text>
<text xml:space="preserve" text-anchor="middle" x="81.5" y="-15.87" font-family="Helvetica,sans-Serif" font-size="10.00">_events_cdw12</text>
</a>
</g>
</g>
<!-- Node25&#45;&gt;Node23 -->
<g id="edge23_Node000023_Node000025" class="edge">
<title>Node25&#45;&gt;Node23</title>
<g id="a_edge23_Node000023_Node000025"><a xlink:title=" ">
<path fill="none" stroke="#9a32cd" stroke-dasharray="5,2" d="M152.09,-6.4C204.38,3.3 274.41,5.94 319,-33.62 357.94,-68.17 302.4,-110.47 337,-149.37 340.27,-153.05 344.15,-156.08 348.4,-158.57"/>
<polygon fill="#9a32cd" stroke="#9a32cd" points="151.48,-2.95 142.36,-8.34 152.85,-9.82 151.48,-2.95"/>
</a>
</g>
<text xml:space="preserve" text-anchor="start" x="192.25" y="-39.87" font-family="Helvetica,sans-Serif" font-size="10.00" fill="grey">feat_fdp_events_cdw12</text>
</g>
<!-- Node26 -->
<g id="Node000026" class="node">
<title>Node26</title>
<g id="a_Node000026"><a xlink:href="unionspdk__nvme__cmd__cdw13.html" target="_top" xlink:title=" ">
<polygon fill="white" stroke="#bfbfbf" points="477.5,-140.75 342.25,-140.75 342.25,-120 477.5,-120 477.5,-140.75"/>
<text xml:space="preserve" text-anchor="middle" x="409.88" y="-127.25" font-family="Helvetica,sans-Serif" font-size="10.00">spdk_nvme_cmd_cdw13</text>
</a>
</g>
</g>
<!-- Node26&#45;&gt;Node1 -->
<g id="edge24_Node000001_Node000026" class="edge">
<title>Node26&#45;&gt;Node1</title>
<g id="a_edge24_Node000001_Node000026"><a xlink:title=" ">
<path fill="none" stroke="#9a32cd" stroke-dasharray="5,2" d="M476.59,-146.16C478.74,-147.45 480.8,-148.86 482.75,-150.37 596,-238.38 622.02,-431.87 626.81,-479.58"/>
<polygon fill="#9a32cd" stroke="#9a32cd" points="478.6,-143.25 468.11,-141.82 475.42,-149.49 478.6,-143.25"/>
</a>
</g>
<text xml:space="preserve" text-anchor="start" x="503.75" y="-247.9" font-family="Helvetica,sans-Serif" font-size="10.00" fill="grey">cdw13_bits</text>
</g>
</g>
</svg>

<g id="navigator" transform="translate(0 0)" fill="#404254">
  <rect fill="#f2f5e9" fill-opacity="0.5" stroke="#606060" stroke-width=".5" x="0" y="0" width="60" height="60"/>
  <use id="zoomplus" xlink:href="#zoomPlus" x="17" y="9" onmousedown="handleZoom(evt,'in')"/>
  <use id="zoomminus" xlink:href="#zoomMin" x="42" y="9" onmousedown="handleZoom(evt,'out')"/>
  <use id="reset" xlink:href="#resetDef" x="30" y="36" onmousedown="handleReset()"/>
   <use id="arrowup" xlink:href="#arrowUp" x="0" y="0" onmousedown="handlePan(0,-1)"/>
  <use id="arrowright" xlink:href="#arrowRight" x="0" y="0" onmousedown="handlePan(1,0)"/>
  <use id="arrowdown" xlink:href="#arrowDown" x="0" y="0" onmousedown="handlePan(0,1)"/>
  <use id="arrowleft" xlink:href="#arrowLeft" x="0" y="0" onmousedown="handlePan(-1,0)"/>
</g>
<svg viewBox="0 0 15 15" width="100%" height="30px" preserveAspectRatio="xMaxYMin meet">
 <g id="arrow_out" transform="scale(0.3 0.3)">
  <a xlink:href="structspdk__nvme__cmd__coll__graph_org.svg" target="_base">
   <rect id="button" ry="5" rx="5" y="6" x="6" height="38" width="38"
        fill="#f2f5e9" fill-opacity="0.5" stroke="#606060" stroke-width="1.0"/>
   <path id="arrow"
     d="M 11.500037,31.436501 C 11.940474,20.09759 22.043105,11.32322 32.158766,21.979434 L 37.068811,17.246167 C 37.068811,17.246167 37.088388,32 37.088388,32 L 22.160133,31.978069 C 22.160133,31.978069 26.997745,27.140456 26.997745,27.140456 C 18.528582,18.264221 13.291696,25.230495 11.500037,31.436501 z"
     style="fill:#404040;"/>
  </a>
 </g>
</svg>

<style type='text/css'>
<![CDATA[
[data-mouse-over-selected='false'] { opacity: 0.7; }
[data-mouse-over-selected='true']  { opacity: 1.0; }
]]>
</style>
<script type="application/ecmascript"><![CDATA[
document.addEventListener('DOMContentLoaded', (event) => {
  highlightEdges();
  highlightAdjacentNodes();
});
]]></script>
</svg>
