<?xml version="1.0" encoding="UTF-8" standalone="no"?>
<!DOCTYPE svg PUBLIC "-//W3C//DTD SVG 1.1//EN"
 "http://www.w3.org/Graphics/SVG/1.1/DTD/svg11.dtd">
<!-- Generated by graphviz version 13.1.2 (20250808.2320)
 -->
<!-- Title: spdk_scsi_pr_in_full_status_data Pages: 1 -->
<svg width="260pt" height="130pt"
 viewBox="0.00 0.00 260.00 130.00" xmlns="http://www.w3.org/2000/svg" xmlns:xlink="http://www.w3.org/1999/xlink">
<g id="graph0" class="graph" transform="scale(1 1) rotate(0) translate(4 125.75)">
<title>spdk_scsi_pr_in_full_status_data</title>
<!-- Node1 -->
<g id="Node000001" class="node">
<title>Node1</title>
<g id="a_Node000001"><a xlink:title=" ">
<polygon fill="#999999" stroke="#666666" points="183.5,-33.5 70,-33.5 70,0 183.5,0 183.5,-33.5"/>
<text xml:space="preserve" text-anchor="start" x="78" y="-20" font-family="Helvetica,sans-Serif" font-size="10.00">spdk_scsi_pr_in_full</text>
<text xml:space="preserve" text-anchor="middle" x="126.75" y="-7.25" font-family="Helvetica,sans-Serif" font-size="10.00">_status_data</text>
</a>
</g>
</g>
<!-- Node2 -->
<g id="Node000002" class="node">
<title>Node2</title>
<g id="a_Node000002"><a xlink:href="structspdk__scsi__pr__in__read__header.html" target="_top" xlink:title=" ">
<polygon fill="white" stroke="#bfbfbf" points="119.5,-121.75 0,-121.75 0,-88.25 119.5,-88.25 119.5,-121.75"/>
<text xml:space="preserve" text-anchor="start" x="8" y="-108.25" font-family="Helvetica,sans-Serif" font-size="10.00">spdk_scsi_pr_in_read</text>
<text xml:space="preserve" text-anchor="middle" x="59.75" y="-95.5" font-family="Helvetica,sans-Serif" font-size="10.00">_header</text>
</a>
</g>
</g>
<!-- Node2&#45;&gt;Node1 -->
<g id="edge1_Node000001_Node000002" class="edge">
<title>Node2&#45;&gt;Node1</title>
<g id="a_edge1_Node000001_Node000002"><a xlink:title=" ">
<path fill="none" stroke="#9a32cd" stroke-dasharray="5,2" d="M79.32,-78.81C90.58,-64.32 104.39,-46.53 114.2,-33.9"/>
<polygon fill="#9a32cd" stroke="#9a32cd" points="76.65,-76.54 73.28,-86.58 82.18,-80.83 76.65,-76.54"/>
</a>
</g>
<text xml:space="preserve" text-anchor="start" x="102.25" y="-57.75" font-family="Helvetica,sans-Serif" font-size="10.00" fill="grey">header</text>
</g>
<!-- Node3 -->
<g id="Node000003" class="node">
<title>Node3</title>
<g id="a_Node000003"><a xlink:href="structspdk__scsi__pr__in__full__status__desc.html" target="_top" xlink:title=" ">
<polygon fill="white" stroke="#bfbfbf" points="251.5,-121.75 138,-121.75 138,-88.25 251.5,-88.25 251.5,-121.75"/>
<text xml:space="preserve" text-anchor="start" x="146" y="-108.25" font-family="Helvetica,sans-Serif" font-size="10.00">spdk_scsi_pr_in_full</text>
<text xml:space="preserve" text-anchor="middle" x="194.75" y="-95.5" font-family="Helvetica,sans-Serif" font-size="10.00">_status_desc</text>
</a>
</g>
</g>
<!-- Node3&#45;&gt;Node1 -->
<g id="edge2_Node000001_Node000003" class="edge">
<title>Node3&#45;&gt;Node1</title>
<g id="a_edge2_Node000001_Node000003"><a xlink:title=" ">
<path fill="none" stroke="#9a32cd" stroke-dasharray="5,2" d="M174.89,-78.81C163.46,-64.32 149.44,-46.53 139.48,-33.9"/>
<polygon fill="#9a32cd" stroke="#9a32cd" points="172.08,-80.9 181.02,-86.59 177.58,-76.57 172.08,-80.9"/>
</a>
</g>
<text xml:space="preserve" text-anchor="start" x="169.84" y="-57.75" font-family="Helvetica,sans-Serif" font-size="10.00" fill="grey">desc_list</text>
</g>
</g>
</svg>
