<?xml version="1.0" encoding="UTF-8" standalone="no"?>
<!DOCTYPE svg PUBLIC "-//W3C//DTD SVG 1.1//EN"
 "http://www.w3.org/Graphics/SVG/1.1/DTD/svg11.dtd">
<!-- Generated by graphviz version 13.1.2 (20250808.2320)
 -->
<!-- Title: idxd_registers Pages: 1 -->
<svg width="321pt" height="584pt"
 viewBox="0.00 0.00 321.00 584.00" xmlns="http://www.w3.org/2000/svg" xmlns:xlink="http://www.w3.org/1999/xlink">
<g id="graph0" class="graph" transform="scale(1 1) rotate(0) translate(4 579.52)">
<title>idxd_registers</title>
<!-- Node1 -->
<g id="Node000001" class="node">
<title>Node1</title>
<g id="a_Node000001"><a xlink:title=" ">
<polygon fill="#999999" stroke="#666666" points="312.5,-293.75 227.5,-293.75 227.5,-273 312.5,-273 312.5,-293.75"/>
<text xml:space="preserve" text-anchor="middle" x="270" y="-280.25" font-family="Helvetica,sans-Serif" font-size="10.00">idxd_registers</text>
</a>
</g>
</g>
<!-- Node2 -->
<g id="Node000002" class="node">
<title>Node2</title>
<g id="a_Node000002"><a xlink:href="unionidxd__gencap__register.html" target="_top" xlink:title=" ">
<polygon fill="white" stroke="#bfbfbf" points="127.75,-566.75 7.5,-566.75 7.5,-546 127.75,-546 127.75,-566.75"/>
<text xml:space="preserve" text-anchor="middle" x="67.62" y="-553.25" font-family="Helvetica,sans-Serif" font-size="10.00">idxd_gencap_register</text>
</a>
</g>
</g>
<!-- Node2&#45;&gt;Node1 -->
<g id="edge1_Node000001_Node000002" class="edge">
<title>Node2&#45;&gt;Node1</title>
<g id="a_edge1_Node000001_Node000002"><a xlink:title=" ">
<path fill="none" stroke="#9a32cd" stroke-dasharray="5,2" d="M139.34,-559.07C164.33,-556.42 190.84,-548.95 209.5,-531.38 245.12,-497.83 263.58,-337.38 267.96,-294.13"/>
<polygon fill="#9a32cd" stroke="#9a32cd" points="139.19,-555.57 129.5,-559.85 139.75,-562.55 139.19,-555.57"/>
</a>
</g>
<text xml:space="preserve" text-anchor="start" x="163.75" y="-563.02" font-family="Helvetica,sans-Serif" font-size="10.00" fill="grey">gencap</text>
</g>
<!-- Node3 -->
<g id="Node000003" class="node">
<title>Node3</title>
<g id="a_Node000003"><a xlink:href="unionidxd__wqcap__register.html" target="_top" xlink:title=" ">
<polygon fill="white" stroke="#bfbfbf" points="125.88,-524.75 9.38,-524.75 9.38,-504 125.88,-504 125.88,-524.75"/>
<text xml:space="preserve" text-anchor="middle" x="67.62" y="-511.25" font-family="Helvetica,sans-Serif" font-size="10.00">idxd_wqcap_register</text>
</a>
</g>
</g>
<!-- Node3&#45;&gt;Node1 -->
<g id="edge2_Node000001_Node000003" class="edge">
<title>Node3&#45;&gt;Node1</title>
<g id="a_edge2_Node000001_Node000003"><a xlink:title=" ">
<path fill="none" stroke="#9a32cd" stroke-dasharray="5,2" d="M137.48,-510.55C167.58,-507.52 198.53,-502.08 209.5,-492.38 269.97,-438.89 270.92,-328.78 269.6,-294.09"/>
<polygon fill="#9a32cd" stroke="#9a32cd" points="137.17,-507.07 127.53,-511.47 137.81,-514.04 137.17,-507.07"/>
</a>
</g>
<text xml:space="preserve" text-anchor="start" x="165.62" y="-514.94" font-family="Helvetica,sans-Serif" font-size="10.00" fill="grey">wqcap</text>
</g>
<!-- Node4 -->
<g id="Node000004" class="node">
<title>Node4</title>
<g id="a_Node000004"><a xlink:href="unionidxd__groupcap__register.html" target="_top" xlink:title=" ">
<polygon fill="white" stroke="#bfbfbf" points="132.62,-482.75 2.62,-482.75 2.62,-462 132.62,-462 132.62,-482.75"/>
<text xml:space="preserve" text-anchor="middle" x="67.62" y="-469.25" font-family="Helvetica,sans-Serif" font-size="10.00">idxd_groupcap_register</text>
</a>
</g>
</g>
<!-- Node4&#45;&gt;Node1 -->
<g id="edge3_Node000001_Node000004" class="edge">
<title>Node4&#45;&gt;Node1</title>
<g id="a_edge3_Node000001_Node000004"><a xlink:title=" ">
<path fill="none" stroke="#9a32cd" stroke-dasharray="5,2" d="M144.3,-473.17C167.4,-469.91 191.45,-462.56 209.5,-447.38 257.72,-406.83 266.86,-323.9 268.59,-294.23"/>
<polygon fill="#9a32cd" stroke="#9a32cd" points="144.1,-469.66 134.56,-474.28 144.9,-476.62 144.1,-469.66"/>
</a>
</g>
<text xml:space="preserve" text-anchor="start" x="158.88" y="-477.83" font-family="Helvetica,sans-Serif" font-size="10.00" fill="grey">groupcap</text>
</g>
<!-- Node5 -->
<g id="Node000005" class="node">
<title>Node5</title>
<g id="a_Node000005"><a xlink:href="unionidxd__enginecap__register.html" target="_top" xlink:title=" ">
<polygon fill="white" stroke="#bfbfbf" points="135.25,-440.75 0,-440.75 0,-420 135.25,-420 135.25,-440.75"/>
<text xml:space="preserve" text-anchor="middle" x="67.62" y="-427.25" font-family="Helvetica,sans-Serif" font-size="10.00">idxd_enginecap_register</text>
</a>
</g>
</g>
<!-- Node5&#45;&gt;Node1 -->
<g id="edge4_Node000001_Node000005" class="edge">
<title>Node5&#45;&gt;Node1</title>
<g id="a_edge4_Node000001_Node000005"><a xlink:title=" ">
<path fill="none" stroke="#9a32cd" stroke-dasharray="5,2" d="M146.5,-426.93C168.6,-422.79 191.52,-415.14 209.5,-401.38 245.75,-373.62 261.6,-317.71 266.86,-294.19"/>
<polygon fill="#9a32cd" stroke="#9a32cd" points="146.2,-423.44 136.89,-428.5 147.32,-430.35 146.2,-423.44"/>
</a>
</g>
<text xml:space="preserve" text-anchor="start" x="156.25" y="-431.03" font-family="Helvetica,sans-Serif" font-size="10.00" fill="grey">enginecap</text>
</g>
<!-- Node6 -->
<g id="Node000006" class="node">
<title>Node6</title>
<g id="a_Node000006"><a xlink:href="structidxd__opcap__register.html" target="_top" xlink:title=" ">
<polygon fill="white" stroke="#bfbfbf" points="124.75,-398.75 10.5,-398.75 10.5,-378 124.75,-378 124.75,-398.75"/>
<text xml:space="preserve" text-anchor="middle" x="67.62" y="-385.25" font-family="Helvetica,sans-Serif" font-size="10.00">idxd_opcap_register</text>
</a>
</g>
</g>
<!-- Node6&#45;&gt;Node1 -->
<g id="edge5_Node000001_Node000006" class="edge">
<title>Node6&#45;&gt;Node1</title>
<g id="a_edge5_Node000001_Node000006"><a xlink:title=" ">
<path fill="none" stroke="#9a32cd" stroke-dasharray="5,2" d="M136.08,-382.31C160.58,-377.79 187.6,-369.96 209.5,-356.38 234.79,-340.69 254.19,-310.41 263.3,-294.22"/>
<polygon fill="#9a32cd" stroke="#9a32cd" points="135.81,-378.8 126.52,-383.9 136.96,-385.71 135.81,-378.8"/>
</a>
</g>
<text xml:space="preserve" text-anchor="start" x="166.75" y="-384.46" font-family="Helvetica,sans-Serif" font-size="10.00" fill="grey">opcap</text>
</g>
<!-- Node7 -->
<g id="Node000007" class="node">
<title>Node7</title>
<g id="a_Node000007"><a xlink:href="unionidxd__offsets__register.html" target="_top" xlink:title=" ">
<polygon fill="white" stroke="#bfbfbf" points="126.62,-356.75 8.62,-356.75 8.62,-336 126.62,-336 126.62,-356.75"/>
<text xml:space="preserve" text-anchor="middle" x="67.62" y="-343.25" font-family="Helvetica,sans-Serif" font-size="10.00">idxd_offsets_register</text>
</a>
</g>
</g>
<!-- Node7&#45;&gt;Node1 -->
<g id="edge6_Node000001_Node000007" class="edge">
<title>Node7&#45;&gt;Node1</title>
<g id="a_edge6_Node000001_Node000007"><a xlink:title=" ">
<path fill="none" stroke="#9a32cd" stroke-dasharray="5,2" d="M138.22,-337.31C161.37,-333.05 186.97,-326.96 209.5,-318.38 225.63,-312.23 242.44,-301.93 254.06,-294.08"/>
<polygon fill="#9a32cd" stroke="#9a32cd" points="137.82,-333.83 128.57,-339 139.03,-340.72 137.82,-333.83"/>
</a>
</g>
<text xml:space="preserve" text-anchor="start" x="164.88" y="-339.88" font-family="Helvetica,sans-Serif" font-size="10.00" fill="grey">offsets</text>
</g>
<!-- Node8 -->
<g id="Node000008" class="node">
<title>Node8</title>
<g id="a_Node000008"><a xlink:href="unionidxd__gencfg__register.html" target="_top" xlink:title=" ">
<polygon fill="white" stroke="#bfbfbf" points="126.62,-314.75 8.62,-314.75 8.62,-294 126.62,-294 126.62,-314.75"/>
<text xml:space="preserve" text-anchor="middle" x="67.62" y="-301.25" font-family="Helvetica,sans-Serif" font-size="10.00">idxd_gencfg_register</text>
</a>
</g>
</g>
<!-- Node8&#45;&gt;Node1 -->
<g id="edge7_Node000001_Node000008" class="edge">
<title>Node8&#45;&gt;Node1</title>
<g id="a_edge7_Node000001_Node000008"><a xlink:title=" ">
<path fill="none" stroke="#9a32cd" stroke-dasharray="5,2" d="M138.28,-297.08C167.96,-293.96 201.59,-290.44 227.31,-287.74"/>
<polygon fill="#9a32cd" stroke="#9a32cd" points="138.21,-293.56 128.63,-298.09 138.94,-300.53 138.21,-293.56"/>
</a>
</g>
<text xml:space="preserve" text-anchor="start" x="164.88" y="-301.38" font-family="Helvetica,sans-Serif" font-size="10.00" fill="grey">gencfg</text>
</g>
<!-- Node9 -->
<g id="Node000009" class="node">
<title>Node9</title>
<g id="a_Node000009"><a xlink:href="unionidxd__genctrl__register.html" target="_top" xlink:title=" ">
<polygon fill="white" stroke="#bfbfbf" points="127,-272.75 8.25,-272.75 8.25,-252 127,-252 127,-272.75"/>
<text xml:space="preserve" text-anchor="middle" x="67.62" y="-259.25" font-family="Helvetica,sans-Serif" font-size="10.00">idxd_genctrl_register</text>
</a>
</g>
</g>
<!-- Node9&#45;&gt;Node1 -->
<g id="edge8_Node000001_Node000009" class="edge">
<title>Node9&#45;&gt;Node1</title>
<g id="a_edge8_Node000001_Node000009"><a xlink:title=" ">
<path fill="none" stroke="#9a32cd" stroke-dasharray="5,2" d="M138.75,-261.93C161.43,-262.61 186.62,-264.21 209.5,-267.62 217.22,-268.78 225.37,-270.55 233.08,-272.5"/>
<polygon fill="#9a32cd" stroke="#9a32cd" points="139.09,-258.44 129.01,-261.71 138.92,-265.44 139.09,-258.44"/>
</a>
</g>
<text xml:space="preserve" text-anchor="start" x="164.5" y="-273.88" font-family="Helvetica,sans-Serif" font-size="10.00" fill="grey">genctrl</text>
</g>
<!-- Node10 -->
<g id="Node000010" class="node">
<title>Node10</title>
<g id="a_Node000010"><a xlink:href="unionidxd__gensts__register.html" target="_top" xlink:title=" ">
<polygon fill="white" stroke="#bfbfbf" points="126.25,-230.75 9,-230.75 9,-210 126.25,-210 126.25,-230.75"/>
<text xml:space="preserve" text-anchor="middle" x="67.62" y="-217.25" font-family="Helvetica,sans-Serif" font-size="10.00">idxd_gensts_register</text>
</a>
</g>
</g>
<!-- Node10&#45;&gt;Node1 -->
<g id="edge9_Node000001_Node000010" class="edge">
<title>Node10&#45;&gt;Node1</title>
<g id="a_edge9_Node000001_Node000010"><a xlink:title=" ">
<path fill="none" stroke="#9a32cd" stroke-dasharray="5,2" d="M137.77,-222.94C161.2,-225.6 187.09,-230.54 209.5,-239.62 228.51,-247.33 247,-262.49 258.2,-272.78"/>
<polygon fill="#9a32cd" stroke="#9a32cd" points="138.3,-219.48 128,-221.97 137.61,-226.45 138.3,-219.48"/>
</a>
</g>
<text xml:space="preserve" text-anchor="start" x="165.25" y="-245.88" font-family="Helvetica,sans-Serif" font-size="10.00" fill="grey">gensts</text>
</g>
<!-- Node11 -->
<g id="Node000011" class="node">
<title>Node11</title>
<g id="a_Node000011"><a xlink:href="unionidxd__intcause__register.html" target="_top" xlink:title=" ">
<polygon fill="white" stroke="#bfbfbf" points="130.75,-188.75 4.5,-188.75 4.5,-168 130.75,-168 130.75,-188.75"/>
<text xml:space="preserve" text-anchor="middle" x="67.62" y="-175.25" font-family="Helvetica,sans-Serif" font-size="10.00">idxd_intcause_register</text>
</a>
</g>
</g>
<!-- Node11&#45;&gt;Node1 -->
<g id="edge10_Node000001_Node000011" class="edge">
<title>Node11&#45;&gt;Node1</title>
<g id="a_edge10_Node000001_Node000011"><a xlink:title=" ">
<path fill="none" stroke="#9a32cd" stroke-dasharray="5,2" d="M142.55,-180.48C165.33,-183.83 189.63,-190.36 209.5,-202.62 237.21,-219.73 256.18,-254.93 264.4,-272.67"/>
<polygon fill="#9a32cd" stroke="#9a32cd" points="143.02,-177.02 132.66,-179.24 142.14,-183.96 143.02,-177.02"/>
</a>
</g>
<text xml:space="preserve" text-anchor="start" x="160.75" y="-208.88" font-family="Helvetica,sans-Serif" font-size="10.00" fill="grey">intcause</text>
</g>
<!-- Node12 -->
<g id="Node000012" class="node">
<title>Node12</title>
<g id="a_Node000012"><a xlink:href="unionidxd__cmd__register.html" target="_top" xlink:title=" ">
<polygon fill="white" stroke="#bfbfbf" points="120.62,-146.75 14.62,-146.75 14.62,-126 120.62,-126 120.62,-146.75"/>
<text xml:space="preserve" text-anchor="middle" x="67.62" y="-133.25" font-family="Helvetica,sans-Serif" font-size="10.00">idxd_cmd_register</text>
</a>
</g>
</g>
<!-- Node12&#45;&gt;Node1 -->
<g id="edge11_Node000001_Node000012" class="edge">
<title>Node12&#45;&gt;Node1</title>
<g id="a_edge11_Node000001_Node000012"><a xlink:title=" ">
<path fill="none" stroke="#9a32cd" stroke-dasharray="5,2" d="M132.39,-134.47C158.5,-136.66 187.64,-143.24 209.5,-159.62 247.84,-188.36 262.66,-248.26 267.25,-272.67"/>
<polygon fill="#9a32cd" stroke="#9a32cd" points="132.74,-130.98 122.55,-133.86 132.31,-137.97 132.74,-130.98"/>
</a>
</g>
<text xml:space="preserve" text-anchor="start" x="170.88" y="-165.88" font-family="Helvetica,sans-Serif" font-size="10.00" fill="grey">cmd</text>
</g>
<!-- Node13 -->
<g id="Node000013" class="node">
<title>Node13</title>
<g id="a_Node000013"><a xlink:href="unionidxd__cmdsts__register.html" target="_top" xlink:title=" ">
<polygon fill="white" stroke="#bfbfbf" points="127.75,-104.75 7.5,-104.75 7.5,-84 127.75,-84 127.75,-104.75"/>
<text xml:space="preserve" text-anchor="middle" x="67.62" y="-91.25" font-family="Helvetica,sans-Serif" font-size="10.00">idxd_cmdsts_register</text>
</a>
</g>
</g>
<!-- Node13&#45;&gt;Node1 -->
<g id="edge12_Node000001_Node000013" class="edge">
<title>Node13&#45;&gt;Node1</title>
<g id="a_edge12_Node000001_Node000013"><a xlink:title=" ">
<path fill="none" stroke="#9a32cd" stroke-dasharray="5,2" d="M139.49,-90.22C163.99,-92.24 190.13,-98.72 209.5,-114.62 259.69,-155.82 267.59,-242.23 268.79,-272.56"/>
<polygon fill="#9a32cd" stroke="#9a32cd" points="139.7,-86.72 129.52,-89.65 139.3,-93.71 139.7,-86.72"/>
</a>
</g>
<text xml:space="preserve" text-anchor="start" x="163.75" y="-120.88" font-family="Helvetica,sans-Serif" font-size="10.00" fill="grey">cmdsts</text>
</g>
<!-- Node14 -->
<g id="Node000014" class="node">
<title>Node14</title>
<g id="a_Node000014"><a xlink:href="unionidxd__cmdcap__register.html" target="_top" xlink:title=" ">
<polygon fill="white" stroke="#bfbfbf" points="129.25,-62.75 6,-62.75 6,-42 129.25,-42 129.25,-62.75"/>
<text xml:space="preserve" text-anchor="middle" x="67.62" y="-49.25" font-family="Helvetica,sans-Serif" font-size="10.00">idxd_cmdcap_register</text>
</a>
</g>
</g>
<!-- Node14&#45;&gt;Node1 -->
<g id="edge13_Node000001_Node000014" class="edge">
<title>Node14&#45;&gt;Node1</title>
<g id="a_edge13_Node000001_Node000014"><a xlink:title=" ">
<path fill="none" stroke="#9a32cd" stroke-dasharray="5,2" d="M140.9,-45.87C165.17,-47.39 190.8,-53.53 209.5,-69.62 241.4,-97.07 262.19,-233.38 267.6,-272.73"/>
<polygon fill="#9a32cd" stroke="#9a32cd" points="141.13,-42.38 131.01,-45.53 140.89,-49.38 141.13,-42.38"/>
</a>
</g>
<text xml:space="preserve" text-anchor="start" x="162.25" y="-75.88" font-family="Helvetica,sans-Serif" font-size="10.00" fill="grey">cmdcap</text>
</g>
<!-- Node15 -->
<g id="Node000015" class="node">
<title>Node15</title>
<g id="a_Node000015"><a xlink:href="unionidxd__swerr__register.html" target="_top" xlink:title=" ">
<polygon fill="white" stroke="#bfbfbf" points="123.62,-20.75 11.62,-20.75 11.62,0 123.62,0 123.62,-20.75"/>
<text xml:space="preserve" text-anchor="middle" x="67.62" y="-7.25" font-family="Helvetica,sans-Serif" font-size="10.00">idxd_swerr_register</text>
</a>
</g>
</g>
<!-- Node15&#45;&gt;Node1 -->
<g id="edge14_Node000001_Node000015" class="edge">
<title>Node15&#45;&gt;Node1</title>
<g id="a_edge14_Node000001_Node000015"><a xlink:title=" ">
<path fill="none" stroke="#9a32cd" stroke-dasharray="5,2" d="M135.15,-1.54C161.17,-1.74 189.51,-6.99 209.5,-24.62 247.87,-58.47 264.44,-228.2 268.16,-272.69"/>
<polygon fill="#9a32cd" stroke="#9a32cd" points="135.23,1.96 125.3,-1.74 135.36,-5.04 135.23,1.96"/>
</a>
</g>
<text xml:space="preserve" text-anchor="start" x="165.25" y="-30.88" font-family="Helvetica,sans-Serif" font-size="10.00" fill="grey">sw_err</text>
</g>
</g>
</svg>
