<?xml version="1.0" encoding="UTF-8" standalone="no"?>
<!DOCTYPE svg PUBLIC "-//W3C//DTD SVG 1.1//EN"
 "http://www.w3.org/Graphics/SVG/1.1/DTD/svg11.dtd">
<!-- Generated by graphviz version 13.1.2 (20250808.2320)
 -->
<!-- Title: spdk_bs_dev Pages: 1 -->
<svg width="504pt" height="206pt"
 viewBox="0.00 0.00 504.00 206.00" xmlns="http://www.w3.org/2000/svg" xmlns:xlink="http://www.w3.org/1999/xlink">
<g id="graph0" class="graph" transform="scale(1 1) rotate(0) translate(4 202.12)">
<title>spdk_bs_dev</title>
<!-- Node1 -->
<g id="Node000001" class="node">
<title>Node1</title>
<g id="a_Node000001"><a xlink:title=" ">
<polygon fill="#999999" stroke="#666666" points="495.75,-114.12 416.75,-114.12 416.75,-93.38 495.75,-93.38 495.75,-114.12"/>
<text xml:space="preserve" text-anchor="middle" x="456.25" y="-100.62" font-family="Helvetica,sans-Serif" font-size="10.00">spdk_bs_dev</text>
</a>
</g>
</g>
<!-- Node2 -->
<g id="Node000002" class="node">
<title>Node2</title>
<g id="a_Node000002"><a xlink:href="structspdk__bdev.html" target="_top" xlink:title=" ">
<polygon fill="white" stroke="#bfbfbf" points="301.25,-114.12 232.75,-114.12 232.75,-93.38 301.25,-93.38 301.25,-114.12"/>
<text xml:space="preserve" text-anchor="middle" x="267" y="-100.62" font-family="Helvetica,sans-Serif" font-size="10.00">spdk_bdev</text>
</a>
</g>
</g>
<!-- Node2&#45;&gt;Node1 -->
<g id="edge1_Node000001_Node000002" class="edge">
<title>Node2&#45;&gt;Node1</title>
<g id="a_edge1_Node000001_Node000002"><a xlink:title=" ">
<path fill="none" stroke="#9a32cd" stroke-dasharray="5,2" d="M312.63,-103.75C344.28,-103.75 386.34,-103.75 416.57,-103.75"/>
<polygon fill="#9a32cd" stroke="#9a32cd" points="312.99,-100.25 302.99,-103.75 312.99,-107.25 312.99,-100.25"/>
</a>
</g>
<text xml:space="preserve" text-anchor="start" x="322.25" y="-110" font-family="Helvetica,sans-Serif" font-size="10.00" fill="grey">get_base_bdev</text>
</g>
<!-- Node3 -->
<g id="Node000003" class="node">
<title>Node3</title>
<g id="a_Node000003"><a xlink:href="structspdk__uuid.html" target="_top" xlink:title=" ">
<polygon fill="white" stroke="#bfbfbf" points="108.25,-198.12 42.75,-198.12 42.75,-177.38 108.25,-177.38 108.25,-198.12"/>
<text xml:space="preserve" text-anchor="middle" x="75.5" y="-184.62" font-family="Helvetica,sans-Serif" font-size="10.00">spdk_uuid</text>
</a>
</g>
</g>
<!-- Node3&#45;&gt;Node2 -->
<g id="edge2_Node000002_Node000003" class="edge">
<title>Node3&#45;&gt;Node2</title>
<g id="a_edge2_Node000002_Node000003"><a xlink:title=" ">
<path fill="none" stroke="#9a32cd" stroke-dasharray="5,2" d="M119.78,-184.51C148.26,-180.87 185.53,-173.15 214.75,-156.75 233.5,-146.23 249.71,-126.69 258.64,-114.5"/>
<polygon fill="#9a32cd" stroke="#9a32cd" points="119.59,-181.01 110.06,-185.62 120.39,-187.96 119.59,-181.01"/>
</a>
</g>
<text xml:space="preserve" text-anchor="start" x="181.38" y="-180.32" font-family="Helvetica,sans-Serif" font-size="10.00" fill="grey">uuid</text>
</g>
<!-- Node4 -->
<g id="Node000004" class="node">
<title>Node4</title>
<g id="a_Node000004"><a xlink:href="unionspdk__bdev__nvme__ctratt.html" target="_top" xlink:title="Controller attributes indicating optional bdev capabilities (e.g.">
<polygon fill="white" stroke="#666666" points="142,-156.12 9,-156.12 9,-135.38 142,-135.38 142,-156.12"/>
<text xml:space="preserve" text-anchor="middle" x="75.5" y="-142.62" font-family="Helvetica,sans-Serif" font-size="10.00">spdk_bdev_nvme_ctratt</text>
</a>
</g>
</g>
<!-- Node4&#45;&gt;Node2 -->
<g id="edge3_Node000002_Node000004" class="edge">
<title>Node4&#45;&gt;Node2</title>
<g id="a_edge3_Node000002_Node000004"><a xlink:title=" ">
<path fill="none" stroke="#9a32cd" stroke-dasharray="5,2" d="M153.5,-136.49C173.61,-133.26 195.15,-129.07 214.75,-123.75 223.6,-121.35 233.02,-117.94 241.34,-114.61"/>
<polygon fill="#9a32cd" stroke="#9a32cd" points="153.01,-133.02 143.66,-138.01 154.08,-139.94 153.01,-133.02"/>
</a>
</g>
<text xml:space="preserve" text-anchor="start" x="178.75" y="-139.97" font-family="Helvetica,sans-Serif" font-size="10.00" fill="grey">ctratt</text>
</g>
<!-- Node5 -->
<g id="Node000005" class="node">
<title>Node5</title>
<g id="a_Node000005"><a xlink:href="structspdk__bdev__module.html" target="_top" xlink:title="Block device module.">
<polygon fill="#fff0f0" stroke="red" points="130.75,-114.12 20.25,-114.12 20.25,-93.38 130.75,-93.38 130.75,-114.12"/>
<text xml:space="preserve" text-anchor="middle" x="75.5" y="-100.62" font-family="Helvetica,sans-Serif" font-size="10.00">spdk_bdev_module</text>
</a>
</g>
</g>
<!-- Node5&#45;&gt;Node2 -->
<g id="edge4_Node000002_Node000005" class="edge">
<title>Node5&#45;&gt;Node2</title>
<g id="a_edge4_Node000002_Node000005"><a xlink:title=" ">
<path fill="none" stroke="#9a32cd" stroke-dasharray="5,2" d="M142.44,-103.75C172.77,-103.75 207.46,-103.75 232.34,-103.75"/>
<polygon fill="#9a32cd" stroke="#9a32cd" points="142.57,-100.25 132.57,-103.75 142.57,-107.25 142.57,-100.25"/>
</a>
</g>
<text xml:space="preserve" text-anchor="start" x="173.5" y="-110" font-family="Helvetica,sans-Serif" font-size="10.00" fill="grey">module</text>
</g>
<!-- Node8 -->
<g id="Node000008" class="node">
<title>Node8</title>
<g id="a_Node000008"><a xlink:href="structspdk__bdev__fn__table.html" target="_top" xlink:title="Function table for a block device backend.">
<polygon fill="white" stroke="#666666" points="132.25,-72.12 18.75,-72.12 18.75,-51.38 132.25,-51.38 132.25,-72.12"/>
<text xml:space="preserve" text-anchor="middle" x="75.5" y="-58.62" font-family="Helvetica,sans-Serif" font-size="10.00">spdk_bdev_fn_table</text>
</a>
</g>
</g>
<!-- Node8&#45;&gt;Node2 -->
<g id="edge5_Node000002_Node000008" class="edge">
<title>Node8&#45;&gt;Node2</title>
<g id="a_edge5_Node000002_Node000008"><a xlink:title=" ">
<path fill="none" stroke="#9a32cd" stroke-dasharray="5,2" d="M144.02,-67.33C166.77,-70.21 192.12,-74.54 214.75,-81 225.23,-83.99 236.35,-88.72 245.55,-93.09"/>
<polygon fill="#9a32cd" stroke="#9a32cd" points="144.58,-63.87 134.24,-66.16 143.76,-70.82 144.58,-63.87"/>
</a>
</g>
<text xml:space="preserve" text-anchor="start" x="172" y="-87.25" font-family="Helvetica,sans-Serif" font-size="10.00" fill="grey">fn_table</text>
</g>
<!-- Node9 -->
<g id="Node000009" class="node">
<title>Node9</title>
<g id="a_Node000009"><a xlink:href="structspdk__bdev_1_1____bdev__internal__fields.html" target="_top" xlink:title="Fields that are used internally by the bdev subsystem.">
<polygon fill="#fff0f0" stroke="red" points="151,-33.5 0,-33.5 0,0 151,0 151,-33.5"/>
<text xml:space="preserve" text-anchor="start" x="8" y="-20" font-family="Helvetica,sans-Serif" font-size="10.00">spdk_bdev::__bdev_internal</text>
<text xml:space="preserve" text-anchor="middle" x="75.5" y="-7.25" font-family="Helvetica,sans-Serif" font-size="10.00">_fields</text>
</a>
</g>
</g>
<!-- Node9&#45;&gt;Node2 -->
<g id="edge6_Node000002_Node000009" class="edge">
<title>Node9&#45;&gt;Node2</title>
<g id="a_edge6_Node000002_Node000009"><a xlink:title=" ">
<path fill="none" stroke="#9a32cd" stroke-dasharray="5,2" d="M162.49,-27.74C180.53,-32.32 198.88,-38.81 214.75,-48 234.09,-59.2 250.35,-80.11 259.08,-92.89"/>
<polygon fill="#9a32cd" stroke="#9a32cd" points="163.34,-24.34 152.8,-25.47 161.74,-31.16 163.34,-24.34"/>
</a>
</g>
<text xml:space="preserve" text-anchor="start" x="173.12" y="-54.25" font-family="Helvetica,sans-Serif" font-size="10.00" fill="grey">internal</text>
</g>
</g>
</svg>
