<?xml version="1.0" encoding="UTF-8" standalone="no"?>
<!DOCTYPE svg PUBLIC "-//W3C//DTD SVG 1.1//EN"
 "http://www.w3.org/Graphics/SVG/1.1/DTD/svg11.dtd">
<!-- Generated by graphviz version 13.1.2 (20250808.2320)
 -->
<!-- Title: spdk_bdev_part_channel Pages: 1 -->
<svg width="145pt" height="193pt"
 viewBox="0.00 0.00 145.00 193.00" xmlns="http://www.w3.org/2000/svg" xmlns:xlink="http://www.w3.org/1999/xlink">
<g id="graph0" class="graph" transform="scale(1 1) rotate(0) translate(4 188.5)">
<title>spdk_bdev_part_channel</title>
<!-- Node1 -->
<g id="Node000001" class="node">
<title>Node1</title>
<g id="a_Node000001"><a xlink:title=" ">
<polygon fill="#999999" stroke="#666666" points="136.75,-20.75 0,-20.75 0,0 136.75,0 136.75,-20.75"/>
<text xml:space="preserve" text-anchor="middle" x="68.38" y="-7.25" font-family="Helvetica,sans-Serif" font-size="10.00">spdk_bdev_part_channel</text>
</a>
</g>
</g>
<!-- Node2 -->
<g id="Node000002" class="node">
<title>Node2</title>
<g id="a_Node000002"><a xlink:href="structspdk__bdev__part.html" target="_top" xlink:title=" ">
<polygon fill="white" stroke="#bfbfbf" points="115,-96.25 21.75,-96.25 21.75,-75.5 115,-75.5 115,-96.25"/>
<text xml:space="preserve" text-anchor="middle" x="68.38" y="-82.75" font-family="Helvetica,sans-Serif" font-size="10.00">spdk_bdev_part</text>
</a>
</g>
</g>
<!-- Node2&#45;&gt;Node1 -->
<g id="edge1_Node000001_Node000002" class="edge">
<title>Node2&#45;&gt;Node1</title>
<g id="a_edge1_Node000001_Node000002"><a xlink:title=" ">
<path fill="none" stroke="#9a32cd" stroke-dasharray="5,2" d="M68.38,-63.76C68.38,-49.76 68.38,-32.05 68.38,-21.22"/>
<polygon fill="#9a32cd" stroke="#9a32cd" points="64.88,-63.75 68.38,-73.75 71.88,-63.75 64.88,-63.75"/>
</a>
</g>
<text xml:space="preserve" text-anchor="start" x="71.38" y="-45" font-family="Helvetica,sans-Serif" font-size="10.00" fill="grey">part</text>
</g>
<!-- Node3 -->
<g id="Node000003" class="node">
<title>Node3</title>
<g id="a_Node000003"><a xlink:href="structspdk__bdev__part_1_1bdev__part__internal__fields.html" target="_top" xlink:title="Fields that are used internally by part.c These fields should only be accessed from a module using an...">
<polygon fill="#fff0f0" stroke="red" points="130,-184.5 6.75,-184.5 6.75,-151 130,-151 130,-184.5"/>
<text xml:space="preserve" text-anchor="start" x="14.75" y="-171" font-family="Helvetica,sans-Serif" font-size="10.00">spdk_bdev_part::bdev</text>
<text xml:space="preserve" text-anchor="middle" x="68.38" y="-158.25" font-family="Helvetica,sans-Serif" font-size="10.00">_part_internal_fields</text>
</a>
</g>
</g>
<!-- Node3&#45;&gt;Node2 -->
<g id="edge2_Node000002_Node000003" class="edge">
<title>Node3&#45;&gt;Node2</title>
<g id="a_edge2_Node000002_Node000003"><a xlink:title=" ">
<path fill="none" stroke="#9a32cd" stroke-dasharray="5,2" d="M68.38,-139.4C68.38,-124.53 68.38,-107.07 68.38,-96.49"/>
<polygon fill="#9a32cd" stroke="#9a32cd" points="64.88,-139.07 68.38,-149.07 71.88,-139.07 64.88,-139.07"/>
</a>
</g>
<text xml:space="preserve" text-anchor="start" x="71.38" y="-120.5" font-family="Helvetica,sans-Serif" font-size="10.00" fill="grey">internal</text>
</g>
</g>
</svg>
