<?xml version="1.0" encoding="UTF-8" standalone="no"?>
<!DOCTYPE svg PUBLIC "-//W3C//DTD SVG 1.1//EN"
 "http://www.w3.org/Graphics/SVG/1.1/DTD/svg11.dtd">
<!-- Generated by graphviz version 13.1.2 (20250808.2320)
 -->
<!-- Title: spdk_pci_device Pages: 1 -->
<svg width="333pt" height="117pt"
 viewBox="0.00 0.00 333.00 117.00" xmlns="http://www.w3.org/2000/svg" xmlns:xlink="http://www.w3.org/1999/xlink">
<g id="graph0" class="graph" transform="scale(1 1) rotate(0) translate(4 113)">
<title>spdk_pci_device</title>
<!-- Node1 -->
<g id="Node000001" class="node">
<title>Node1</title>
<g id="a_Node000001"><a xlink:title=" ">
<polygon fill="#999999" stroke="#666666" points="188,-20.75 91.75,-20.75 91.75,0 188,0 188,-20.75"/>
<text xml:space="preserve" text-anchor="middle" x="139.88" y="-7.25" font-family="Helvetica,sans-Serif" font-size="10.00">spdk_pci_device</text>
</a>
</g>
</g>
<!-- Node1&#45;&gt;Node1 -->
<g id="edge1_Node000001_Node000001" class="edge">
<title>Node1&#45;&gt;Node1</title>
<g id="a_edge1_Node000001_Node000001"><a xlink:title=" ">
<path fill="none" stroke="#9a32cd" stroke-dasharray="5,2" d="M199.45,-15.5C203.52,-14.32 206,-12.61 206,-10.38 206,-6.5 198.58,-4.22 188.31,-3.53"/>
<polygon fill="#9a32cd" stroke="#9a32cd" points="199.15,-12 189.81,-16.99 200.23,-18.92 199.15,-12"/>
</a>
</g>
<text xml:space="preserve" text-anchor="start" x="209" y="-7.25" font-family="Helvetica,sans-Serif" font-size="10.00" fill="grey">parent</text>
</g>
<!-- Node2 -->
<g id="Node000002" class="node">
<title>Node2</title>
<g id="a_Node000002"><a xlink:href="structspdk__pci__addr.html" target="_top" xlink:title=" ">
<polygon fill="white" stroke="#bfbfbf" points="85.75,-102.62 0,-102.62 0,-81.88 85.75,-81.88 85.75,-102.62"/>
<text xml:space="preserve" text-anchor="middle" x="42.88" y="-89.12" font-family="Helvetica,sans-Serif" font-size="10.00">spdk_pci_addr</text>
</a>
</g>
</g>
<!-- Node2&#45;&gt;Node1 -->
<g id="edge2_Node000001_Node000002" class="edge">
<title>Node2&#45;&gt;Node1</title>
<g id="a_edge2_Node000001_Node000002"><a xlink:title=" ">
<path fill="none" stroke="#9a32cd" stroke-dasharray="5,2" d="M63.55,-74.23C83.12,-58.11 111.83,-34.47 127.88,-21.25"/>
<polygon fill="#9a32cd" stroke="#9a32cd" points="61.43,-71.44 55.94,-80.49 65.88,-76.84 61.43,-71.44"/>
</a>
</g>
<text xml:space="preserve" text-anchor="start" x="108.73" y="-45" font-family="Helvetica,sans-Serif" font-size="10.00" fill="grey">addr</text>
</g>
<!-- Node3 -->
<g id="Node000003" class="node">
<title>Node3</title>
<g id="a_Node000003"><a xlink:href="structspdk__pci__id.html" target="_top" xlink:title=" ">
<polygon fill="white" stroke="#bfbfbf" points="176.38,-102.62 103.38,-102.62 103.38,-81.88 176.38,-81.88 176.38,-102.62"/>
<text xml:space="preserve" text-anchor="middle" x="139.88" y="-89.12" font-family="Helvetica,sans-Serif" font-size="10.00">spdk_pci_id</text>
</a>
</g>
</g>
<!-- Node3&#45;&gt;Node1 -->
<g id="edge3_Node000001_Node000003" class="edge">
<title>Node3&#45;&gt;Node1</title>
<g id="a_edge3_Node000001_Node000003"><a xlink:title=" ">
<path fill="none" stroke="#9a32cd" stroke-dasharray="5,2" d="M139.88,-70.13C139.88,-54.31 139.88,-33.38 139.88,-21.25"/>
<polygon fill="#9a32cd" stroke="#9a32cd" points="136.38,-69.94 139.88,-79.94 143.38,-69.94 136.38,-69.94"/>
</a>
</g>
<text xml:space="preserve" text-anchor="start" x="142.88" y="-45" font-family="Helvetica,sans-Serif" font-size="10.00" fill="grey">id</text>
</g>
<!-- Node4 -->
<g id="Node000004" class="node">
<title>Node4</title>
<g id="a_Node000004"><a xlink:href="structspdk__pci__device_1_1__spdk__pci__device__internal.html" target="_top" xlink:title=" ">
<polygon fill="white" stroke="#bfbfbf" points="325.25,-109 194.5,-109 194.5,-75.5 325.25,-75.5 325.25,-109"/>
<text xml:space="preserve" text-anchor="start" x="202.5" y="-95.5" font-family="Helvetica,sans-Serif" font-size="10.00">spdk_pci_device::_spdk</text>
<text xml:space="preserve" text-anchor="middle" x="259.88" y="-82.75" font-family="Helvetica,sans-Serif" font-size="10.00">_pci_device_internal</text>
</a>
</g>
</g>
<!-- Node4&#45;&gt;Node1 -->
<g id="edge4_Node000001_Node000004" class="edge">
<title>Node4&#45;&gt;Node1</title>
<g id="a_edge4_Node000001_Node000004"><a xlink:title=" ">
<path fill="none" stroke="#9a32cd" stroke-dasharray="5,2" d="M226.3,-68.9C202.75,-53.23 172.43,-33.04 154.67,-21.22"/>
<polygon fill="#9a32cd" stroke="#9a32cd" points="224.07,-71.62 234.33,-74.25 227.95,-65.79 224.07,-71.62"/>
</a>
</g>
<text xml:space="preserve" text-anchor="start" x="210.06" y="-45" font-family="Helvetica,sans-Serif" font-size="10.00" fill="grey">internal</text>
</g>
</g>
</svg>
