<?xml version="1.0" encoding="UTF-8" standalone="no"?>
<!DOCTYPE svg PUBLIC "-//W3C//DTD SVG 1.1//EN"
 "http://www.w3.org/Graphics/SVG/1.1/DTD/svg11.dtd">
<!-- Generated by graphviz version 13.1.2 (20250808.2320)
 -->
<!-- Title: spdk_fsdev::__fsdev_internal_fields Pages: 1 -->
<svg width="177pt" height="268pt"
 viewBox="0.00 0.00 177.00 268.00" xmlns="http://www.w3.org/2000/svg" xmlns:xlink="http://www.w3.org/1999/xlink">
<g id="graph0" class="graph" transform="scale(1 1) rotate(0) translate(4 264)">
<title>spdk_fsdev::__fsdev_internal_fields</title>
<!-- Node1 -->
<g id="Node000001" class="node">
<title>Node1</title>
<g id="a_Node000001"><a xlink:title="Fields that are used internally by the fsdev subsystem.">
<polygon fill="#999999" stroke="#666666" points="128.88,-184.5 14.62,-184.5 14.62,-151 128.88,-151 128.88,-184.5"/>
<text xml:space="preserve" text-anchor="start" x="22.62" y="-171" font-family="Helvetica,sans-Serif" font-size="10.00">spdk_fsdev::__fsdev</text>
<text xml:space="preserve" text-anchor="middle" x="71.75" y="-158.25" font-family="Helvetica,sans-Serif" font-size="10.00">_internal_fields</text>
</a>
</g>
</g>
<!-- Node4 -->
<g id="Node000004" class="node">
<title>Node4</title>
<g id="a_Node000004"><a xlink:href="structspdk__fsdev.html" target="_top" xlink:title=" ">
<polygon fill="white" stroke="orangered" points="71.5,-96.25 0,-96.25 0,-75.5 71.5,-75.5 71.5,-96.25"/>
<text xml:space="preserve" text-anchor="middle" x="35.75" y="-82.75" font-family="Helvetica,sans-Serif" font-size="10.00">spdk_fsdev</text>
</a>
</g>
</g>
<!-- Node1&#45;&gt;Node4 -->
<g id="edge4_Node000004_Node000001" class="edge">
<title>Node1&#45;&gt;Node4</title>
<g id="a_edge4_Node000004_Node000001"><a xlink:title=" ">
<path fill="none" stroke="#9a32cd" stroke-dasharray="5,2" d="M54.38,-140.97C52.89,-138.33 51.48,-135.65 50.25,-133 44.65,-120.98 40.44,-106.23 38.04,-96.69"/>
<polygon fill="#9a32cd" stroke="#9a32cd" points="51.37,-142.76 59.56,-149.47 57.34,-139.11 51.37,-142.76"/>
</a>
</g>
<text xml:space="preserve" text-anchor="start" x="53.25" y="-120.5" font-family="Helvetica,sans-Serif" font-size="10.00" fill="grey">internal</text>
</g>
<!-- Node2 -->
<g id="Node000002" class="node">
<title>Node2</title>
<g id="a_Node000002"><a xlink:href="structspdk__spinlock.html" target="_top" xlink:title="A spinlock augmented with safety checks for use with SPDK.">
<polygon fill="white" stroke="#666666" points="114.25,-260 29.25,-260 29.25,-239.25 114.25,-239.25 114.25,-260"/>
<text xml:space="preserve" text-anchor="middle" x="71.75" y="-246.5" font-family="Helvetica,sans-Serif" font-size="10.00">spdk_spinlock</text>
</a>
</g>
</g>
<!-- Node2&#45;&gt;Node1 -->
<g id="edge1_Node000001_Node000002" class="edge">
<title>Node2&#45;&gt;Node1</title>
<g id="a_edge1_Node000001_Node000002"><a xlink:title=" ">
<path fill="none" stroke="#9a32cd" stroke-dasharray="5,2" d="M71.75,-227.45C71.75,-214.14 71.75,-197.24 71.75,-185"/>
<polygon fill="#9a32cd" stroke="#9a32cd" points="68.25,-227.32 71.75,-237.32 75.25,-227.32 68.25,-227.32"/>
</a>
</g>
<text xml:space="preserve" text-anchor="start" x="74.75" y="-208.75" font-family="Helvetica,sans-Serif" font-size="10.00" fill="grey">spinlock</text>
</g>
<!-- Node3 -->
<g id="Node000003" class="node">
<title>Node3</title>
<g id="a_Node000003"><a xlink:href="structspdk__fsdev__name.html" target="_top" xlink:title=" ">
<polygon fill="white" stroke="#bfbfbf" points="124,-20.75 19.5,-20.75 19.5,0 124,0 124,-20.75"/>
<text xml:space="preserve" text-anchor="middle" x="71.75" y="-7.25" font-family="Helvetica,sans-Serif" font-size="10.00">spdk_fsdev_name</text>
</a>
</g>
</g>
<!-- Node3&#45;&gt;Node1 -->
<g id="edge2_Node000001_Node000003" class="edge">
<title>Node3&#45;&gt;Node1</title>
<g id="a_edge2_Node000001_Node000003"><a xlink:title=" ">
<path fill="none" stroke="#9a32cd" stroke-dasharray="5,2" d="M89.15,-29.75C91.02,-32.59 92.65,-35.62 93.75,-38.75 107.66,-78.26 105.68,-92.85 93.75,-133 91.92,-139.17 88.56,-145.26 85.01,-150.54"/>
<polygon fill="#9a32cd" stroke="#9a32cd" points="92.09,-27.83 83.13,-22.18 86.61,-32.19 92.09,-27.83"/>
</a>
</g>
<text xml:space="preserve" text-anchor="start" x="106.45" y="-82.75" font-family="Helvetica,sans-Serif" font-size="10.00" fill="grey">fsdev_name</text>
</g>
<!-- Node4&#45;&gt;Node3 -->
<g id="edge3_Node000003_Node000004" class="edge">
<title>Node4&#45;&gt;Node3</title>
<g id="a_edge3_Node000003_Node000004"><a xlink:title=" ">
<path fill="none" stroke="#9a32cd" stroke-dasharray="5,2" d="M45.47,-65.04C52.41,-50.86 61.46,-32.38 66.93,-21.22"/>
<polygon fill="#9a32cd" stroke="#9a32cd" points="42.38,-63.39 41.12,-73.91 48.66,-66.47 42.38,-63.39"/>
</a>
</g>
<text xml:space="preserve" text-anchor="start" x="61.03" y="-45" font-family="Helvetica,sans-Serif" font-size="10.00" fill="grey">fsdev</text>
</g>
</g>
</svg>
