<?xml version="1.0" encoding="UTF-8" standalone="no"?>
<!DOCTYPE svg PUBLIC "-//W3C//DTD SVG 1.1//EN"
 "http://www.w3.org/Graphics/SVG/1.1/DTD/svg11.dtd">
<!-- Generated by graphviz version 13.1.2 (20250808.2320)
 -->
<!-- Title: spdk_fsdev_io Pages: 1 -->
<svg width="705pt" height="239pt"
 viewBox="0.00 0.00 705.00 239.00" xmlns="http://www.w3.org/2000/svg" xmlns:xlink="http://www.w3.org/1999/xlink">
<g id="graph0" class="graph" transform="scale(1 1) rotate(0) translate(4 234.75)">
<title>spdk_fsdev_io</title>
<!-- Node1 -->
<g id="Node000001" class="node">
<title>Node1</title>
<g id="a_Node000001"><a xlink:title=" ">
<polygon fill="#999999" stroke="#666666" points="488.25,-104.75 402.5,-104.75 402.5,-84 488.25,-84 488.25,-104.75"/>
<text xml:space="preserve" text-anchor="middle" x="445.38" y="-91.25" font-family="Helvetica,sans-Serif" font-size="10.00">spdk_fsdev_io</text>
</a>
</g>
</g>
<!-- Node13 -->
<g id="Node000013" class="node">
<title>Node13</title>
<g id="a_Node000013"><a xlink:href="structspdk__fsdev__io_1_1____fsdev__io__internal__fields.html" target="_top" xlink:title="Fields that are used internally by the fsdev subsystem.">
<polygon fill="white" stroke="#666666" points="697,-111.12 567.75,-111.12 567.75,-77.62 697,-77.62 697,-111.12"/>
<text xml:space="preserve" text-anchor="start" x="575.75" y="-97.62" font-family="Helvetica,sans-Serif" font-size="10.00">spdk_fsdev_io::__fsdev</text>
<text xml:space="preserve" text-anchor="middle" x="632.38" y="-84.88" font-family="Helvetica,sans-Serif" font-size="10.00">_io_internal_fields</text>
</a>
</g>
</g>
<!-- Node1&#45;&gt;Node13 -->
<g id="edge10_Node000013_Node000001" class="edge">
<title>Node1&#45;&gt;Node13</title>
<g id="a_edge10_Node000013_Node000001"><a xlink:title=" ">
<path fill="none" stroke="#9a32cd" stroke-dasharray="5,2" d="M499.72,-94.38C520.85,-94.38 545.33,-94.38 567.41,-94.38"/>
<polygon fill="#9a32cd" stroke="#9a32cd" points="499.87,-90.88 489.87,-94.38 499.87,-97.88 499.87,-90.88"/>
</a>
</g>
<text xml:space="preserve" text-anchor="start" x="514.88" y="-100.62" font-family="Helvetica,sans-Serif" font-size="10.00" fill="grey">cb_fn</text>
</g>
<!-- Node2 -->
<g id="Node000002" class="node">
<title>Node2</title>
<g id="a_Node000002"><a xlink:href="structspdk__fsdev.html" target="_top" xlink:title=" ">
<polygon fill="white" stroke="#bfbfbf" points="301.25,-188.75 229.75,-188.75 229.75,-168 301.25,-168 301.25,-188.75"/>
<text xml:space="preserve" text-anchor="middle" x="265.5" y="-175.25" font-family="Helvetica,sans-Serif" font-size="10.00">spdk_fsdev</text>
</a>
</g>
</g>
<!-- Node2&#45;&gt;Node1 -->
<g id="edge1_Node000001_Node000002" class="edge">
<title>Node2&#45;&gt;Node1</title>
<g id="a_edge1_Node000001_Node000002"><a xlink:title=" ">
<path fill="none" stroke="#9a32cd" stroke-dasharray="5,2" d="M312.51,-169.8C335.06,-164.44 362.11,-156.26 384.5,-144.38 404.12,-133.96 423.17,-116.37 434.33,-105.07"/>
<polygon fill="#9a32cd" stroke="#9a32cd" points="311.98,-166.33 302.99,-171.94 313.51,-173.16 311.98,-166.33"/>
</a>
</g>
<text xml:space="preserve" text-anchor="start" x="354.12" y="-163.99" font-family="Helvetica,sans-Serif" font-size="10.00" fill="grey">fsdev</text>
</g>
<!-- Node3 -->
<g id="Node000003" class="node">
<title>Node3</title>
<g id="a_Node000003"><a xlink:href="structspdk__fsdev__module.html" target="_top" xlink:title="Filesystem device module.">
<polygon fill="#fff0f0" stroke="red" points="115,-230.75 1.5,-230.75 1.5,-210 115,-210 115,-230.75"/>
<text xml:space="preserve" text-anchor="middle" x="58.25" y="-217.25" font-family="Helvetica,sans-Serif" font-size="10.00">spdk_fsdev_module</text>
</a>
</g>
</g>
<!-- Node3&#45;&gt;Node2 -->
<g id="edge2_Node000002_Node000003" class="edge">
<title>Node3&#45;&gt;Node2</title>
<g id="a_edge2_Node000002_Node000003"><a xlink:title=" ">
<path fill="none" stroke="#9a32cd" stroke-dasharray="5,2" d="M126.67,-208.77C144.15,-205.58 162.94,-202 180.25,-198.38 196.44,-194.99 214.27,-190.82 229.34,-187.16"/>
<polygon fill="#9a32cd" stroke="#9a32cd" points="126.1,-205.32 116.89,-210.54 127.35,-212.21 126.1,-205.32"/>
</a>
</g>
<text xml:space="preserve" text-anchor="start" x="139" y="-213.1" font-family="Helvetica,sans-Serif" font-size="10.00" fill="grey">module</text>
</g>
<!-- Node5 -->
<g id="Node000005" class="node">
<title>Node5</title>
<g id="a_Node000005"><a xlink:href="structspdk__fsdev__fn__table.html" target="_top" xlink:title="Function table for a filesystem device backend.">
<polygon fill="white" stroke="#666666" points="116.5,-188.75 0,-188.75 0,-168 116.5,-168 116.5,-188.75"/>
<text xml:space="preserve" text-anchor="middle" x="58.25" y="-175.25" font-family="Helvetica,sans-Serif" font-size="10.00">spdk_fsdev_fn_table</text>
</a>
</g>
</g>
<!-- Node5&#45;&gt;Node2 -->
<g id="edge3_Node000002_Node000005" class="edge">
<title>Node5&#45;&gt;Node2</title>
<g id="a_edge3_Node000002_Node000005"><a xlink:title=" ">
<path fill="none" stroke="#9a32cd" stroke-dasharray="5,2" d="M128.25,-178.38C162.21,-178.38 201.7,-178.38 229.39,-178.38"/>
<polygon fill="#9a32cd" stroke="#9a32cd" points="128.48,-174.88 118.48,-178.38 128.48,-181.88 128.48,-174.88"/>
</a>
</g>
<text xml:space="preserve" text-anchor="start" x="137.5" y="-184.62" font-family="Helvetica,sans-Serif" font-size="10.00" fill="grey">fn_table</text>
</g>
<!-- Node6 -->
<g id="Node000006" class="node">
<title>Node6</title>
<g id="a_Node000006"><a xlink:href="structspdk__fsdev_1_1____fsdev__internal__fields.html" target="_top" xlink:title="Fields that are used internally by the fsdev subsystem.">
<polygon fill="#fff0f0" stroke="red" points="115.38,-150.12 1.12,-150.12 1.12,-116.62 115.38,-116.62 115.38,-150.12"/>
<text xml:space="preserve" text-anchor="start" x="9.12" y="-136.62" font-family="Helvetica,sans-Serif" font-size="10.00">spdk_fsdev::__fsdev</text>
<text xml:space="preserve" text-anchor="middle" x="58.25" y="-123.88" font-family="Helvetica,sans-Serif" font-size="10.00">_internal_fields</text>
</a>
</g>
</g>
<!-- Node6&#45;&gt;Node2 -->
<g id="edge4_Node000002_Node000006" class="edge">
<title>Node6&#45;&gt;Node2</title>
<g id="a_edge4_Node000002_Node000006"><a xlink:title=" ">
<path fill="none" stroke="#9a32cd" stroke-dasharray="5,2" d="M127.01,-144.82C144.42,-148.04 163.08,-151.73 180.25,-155.62 196.5,-159.31 214.34,-164.03 229.41,-168.21"/>
<polygon fill="#9a32cd" stroke="#9a32cd" points="127.73,-141.4 117.26,-143.05 126.48,-148.28 127.73,-141.4"/>
</a>
</g>
<text xml:space="preserve" text-anchor="start" x="138.62" y="-161.88" font-family="Helvetica,sans-Serif" font-size="10.00" fill="grey">internal</text>
</g>
<!-- Node9 -->
<g id="Node000009" class="node">
<title>Node9</title>
<g id="a_Node000009"><a xlink:href="structspdk__fsdev__mount__opts.html" target="_top" xlink:title="fsdev mount options">
<polygon fill="white" stroke="#666666" points="332.75,-146.75 198.25,-146.75 198.25,-126 332.75,-126 332.75,-146.75"/>
<text xml:space="preserve" text-anchor="middle" x="265.5" y="-133.25" font-family="Helvetica,sans-Serif" font-size="10.00">spdk_fsdev_mount_opts</text>
</a>
</g>
</g>
<!-- Node9&#45;&gt;Node1 -->
<g id="edge5_Node000001_Node000009" class="edge">
<title>Node9&#45;&gt;Node1</title>
<g id="a_edge5_Node000001_Node000009"><a xlink:title=" ">
<path fill="none" stroke="#9a32cd" stroke-dasharray="5,2" d="M344.24,-123.46C357.73,-120.77 371.58,-117.72 384.5,-114.38 394.47,-111.79 405.19,-108.41 414.77,-105.16"/>
<polygon fill="#9a32cd" stroke="#9a32cd" points="343.65,-120.01 334.49,-125.35 344.98,-126.88 343.65,-120.01"/>
</a>
</g>
<text xml:space="preserve" text-anchor="start" x="357.12" y="-128.05" font-family="Helvetica,sans-Serif" font-size="10.00" fill="grey">opts</text>
</g>
<!-- Node10 -->
<g id="Node000010" class="node">
<title>Node10</title>
<g id="a_Node000010"><a xlink:href="structspdk__fsdev__io__opts.html" target="_top" xlink:title="Structure with optional fsdev IO parameters The content of this structure must be valid until the IO ...">
<polygon fill="white" stroke="#666666" points="321.5,-104.75 209.5,-104.75 209.5,-84 321.5,-84 321.5,-104.75"/>
<text xml:space="preserve" text-anchor="middle" x="265.5" y="-91.25" font-family="Helvetica,sans-Serif" font-size="10.00">spdk_fsdev_io_opts</text>
</a>
</g>
</g>
<!-- Node10&#45;&gt;Node1 -->
<g id="edge6_Node000001_Node000010" class="edge">
<title>Node10&#45;&gt;Node1</title>
<g id="a_edge6_Node000001_Node000010"><a xlink:title=" ">
<path fill="none" stroke="#9a32cd" stroke-dasharray="5,2" d="M333.28,-94.38C356.36,-94.38 381.55,-94.38 402.1,-94.38"/>
<polygon fill="#9a32cd" stroke="#9a32cd" points="333.32,-90.88 323.32,-94.38 333.32,-97.88 333.32,-90.88"/>
</a>
</g>
<text xml:space="preserve" text-anchor="start" x="357.12" y="-100.62" font-family="Helvetica,sans-Serif" font-size="10.00" fill="grey">opts</text>
</g>
<!-- Node11 -->
<g id="Node000011" class="node">
<title>Node11</title>
<g id="a_Node000011"><a xlink:href="structspdk__fsdev__file__attr.html" target="_top" xlink:title=" ">
<polygon fill="white" stroke="#bfbfbf" points="322.62,-62.75 208.38,-62.75 208.38,-42 322.62,-42 322.62,-62.75"/>
<text xml:space="preserve" text-anchor="middle" x="265.5" y="-49.25" font-family="Helvetica,sans-Serif" font-size="10.00">spdk_fsdev_file_attr</text>
</a>
</g>
</g>
<!-- Node11&#45;&gt;Node1 -->
<g id="edge7_Node000001_Node000011" class="edge">
<title>Node11&#45;&gt;Node1</title>
<g id="a_edge7_Node000001_Node000011"><a xlink:title=" ">
<path fill="none" stroke="#9a32cd" stroke-dasharray="5,2" d="M334.37,-61.05C350.91,-63.82 368.46,-67.32 384.5,-71.62 396.21,-74.77 408.8,-79.36 419.4,-83.6"/>
<polygon fill="#9a32cd" stroke="#9a32cd" points="335.04,-57.61 324.61,-59.49 333.93,-64.52 335.04,-57.61"/>
</a>
</g>
<text xml:space="preserve" text-anchor="start" x="359" y="-77.88" font-family="Helvetica,sans-Serif" font-size="10.00" fill="grey">attr</text>
</g>
<!-- Node12 -->
<g id="Node000012" class="node">
<title>Node12</title>
<g id="a_Node000012"><a xlink:href="structspdk__fsdev__file__statfs.html" target="_top" xlink:title=" ">
<polygon fill="white" stroke="#bfbfbf" points="327.88,-20.75 203.12,-20.75 203.12,0 327.88,0 327.88,-20.75"/>
<text xml:space="preserve" text-anchor="middle" x="265.5" y="-7.25" font-family="Helvetica,sans-Serif" font-size="10.00">spdk_fsdev_file_statfs</text>
</a>
</g>
</g>
<!-- Node12&#45;&gt;Node1 -->
<g id="edge8_Node000001_Node000012" class="edge">
<title>Node12&#45;&gt;Node1</title>
<g id="a_edge8_Node000001_Node000012"><a xlink:title=" ">
<path fill="none" stroke="#9a32cd" stroke-dasharray="5,2" d="M338.93,-23.89C354.48,-28.33 370.45,-34.12 384.5,-41.62 405.03,-52.59 424.4,-71.88 435.29,-83.85"/>
<polygon fill="#9a32cd" stroke="#9a32cd" points="340.28,-20.63 329.72,-21.42 338.47,-27.39 340.28,-20.63"/>
</a>
</g>
<text xml:space="preserve" text-anchor="start" x="353.75" y="-47.88" font-family="Helvetica,sans-Serif" font-size="10.00" fill="grey">statfs</text>
</g>
<!-- Node13&#45;&gt;Node1 -->
<g id="edge9_Node000001_Node000013" class="edge">
<title>Node13&#45;&gt;Node1</title>
<g id="a_edge9_Node000001_Node000013"><a xlink:title=" ">
<path fill="none" stroke="#9a32cd" stroke-dasharray="5,2" d="M559.89,-75.25C542.34,-72.72 523.62,-71.83 506.25,-74.62 495.12,-76.41 483.25,-79.96 473.04,-83.56"/>
<polygon fill="#9a32cd" stroke="#9a32cd" points="559.29,-78.69 569.73,-76.88 560.44,-71.79 559.29,-78.69"/>
</a>
</g>
<text xml:space="preserve" text-anchor="start" x="509.25" y="-80.88" font-family="Helvetica,sans-Serif" font-size="10.00" fill="grey">internal</text>
</g>
</g>
</svg>
