<?xml version="1.0" encoding="UTF-8" standalone="no"?>
<!DOCTYPE svg PUBLIC "-//W3C//DTD SVG 1.1//EN"
 "http://www.w3.org/Graphics/SVG/1.1/DTD/svg11.dtd">
<!-- Generated by graphviz version 13.1.2 (20250808.2320)
 -->
<!-- Title: spdk_fsdev_name Pages: 1 -->
<svg width="457pt" height="193pt"
 viewBox="0.00 0.00 457.00 193.00" xmlns="http://www.w3.org/2000/svg" xmlns:xlink="http://www.w3.org/1999/xlink">

<svg id="main" version="1.1" xmlns="http://www.w3.org/2000/svg" xmlns:xlink="http://www.w3.org/1999/xlink" xml:space="preserve">

<style type="text/css"><![CDATA[
.node, .edge {opacity: 0.7;}
.node.selected, .edge.selected {opacity: 1;}
.edge:hover path { stroke: red; }
.edge:hover polygon { stroke: red; fill: red; }
]]></style>
<script type="application/ecmascript" xlink:href="svg.min.js"/>
<svg id="graph" class="graph">
<g id="graph0" class="graph" transform="scale(1 1) rotate(0) translate(4 188.5)">
<title>spdk_fsdev_name</title>
<!-- Node1 -->
<g id="Node000001" class="node">
<title>Node1</title>
<g id="a_Node000001"><a xlink:title=" ">
<polygon fill="#999999" stroke="#666666" points="155.38,-184.5 50.88,-184.5 50.88,-163.75 155.38,-163.75 155.38,-184.5"/>
<text xml:space="preserve" text-anchor="middle" x="103.12" y="-171" font-family="Helvetica,sans-Serif" font-size="10.00">spdk_fsdev_name</text>
</a>
</g>
</g>
<!-- Node6 -->
<g id="Node000006" class="node">
<title>Node6</title>
<g id="a_Node000006"><a xlink:href="structspdk__fsdev_1_1____fsdev__internal__fields.html" target="_top" xlink:title="Fields that are used internally by the fsdev subsystem.">
<polygon fill="#fff0f0" stroke="red" points="114.25,-109 0,-109 0,-75.5 114.25,-75.5 114.25,-109"/>
<text xml:space="preserve" text-anchor="start" x="8" y="-95.5" font-family="Helvetica,sans-Serif" font-size="10.00">spdk_fsdev::__fsdev</text>
<text xml:space="preserve" text-anchor="middle" x="57.12" y="-82.75" font-family="Helvetica,sans-Serif" font-size="10.00">_internal_fields</text>
</a>
</g>
</g>
<!-- Node1&#45;&gt;Node6 -->
<g id="edge5_Node000006_Node000001" class="edge">
<title>Node1&#45;&gt;Node6</title>
<g id="a_edge5_Node000006_Node000001"><a xlink:title=" ">
<path fill="none" stroke="#9a32cd" stroke-dasharray="5,2" d="M78.63,-155.96C75.41,-152.86 72.44,-149.43 70.12,-145.75 63.24,-134.77 60,-120.38 58.47,-109.43"/>
<polygon fill="#9a32cd" stroke="#9a32cd" points="76.35,-158.61 86.26,-162.36 80.85,-153.25 76.35,-158.61"/>
</a>
</g>
<text xml:space="preserve" text-anchor="start" x="73.12" y="-133.25" font-family="Helvetica,sans-Serif" font-size="10.00" fill="grey">fsdev_name</text>
</g>
<!-- Node2 -->
<g id="Node000002" class="node">
<title>Node2</title>
<g id="a_Node000002"><a xlink:href="structspdk__fsdev.html" target="_top" xlink:title=" ">
<polygon fill="white" stroke="#bfbfbf" points="239.88,-20.75 168.38,-20.75 168.38,0 239.88,0 239.88,-20.75"/>
<text xml:space="preserve" text-anchor="middle" x="204.12" y="-7.25" font-family="Helvetica,sans-Serif" font-size="10.00">spdk_fsdev</text>
</a>
</g>
</g>
<!-- Node2&#45;&gt;Node1 -->
<g id="edge1_Node000001_Node000002" class="edge">
<title>Node2&#45;&gt;Node1</title>
<g id="a_edge1_Node000001_Node000002"><a xlink:title=" ">
<path fill="none" stroke="#9a32cd" stroke-dasharray="5,2" d="M188.79,-30.04C179.26,-42.36 167.29,-59.19 159.12,-75.5 144.42,-104.88 154.6,-118.59 136.12,-145.75 131.44,-152.64 124.53,-158.74 118.25,-163.43"/>
<polygon fill="#9a32cd" stroke="#9a32cd" points="191.38,-32.41 194.86,-22.41 185.9,-28.06 191.38,-32.41"/>
</a>
</g>
<text xml:space="preserve" text-anchor="start" x="162.12" y="-89.12" font-family="Helvetica,sans-Serif" font-size="10.00" fill="grey">fsdev</text>
</g>
<!-- Node3 -->
<g id="Node000003" class="node">
<title>Node3</title>
<g id="a_Node000003"><a xlink:href="structspdk__fsdev__module.html" target="_top" xlink:title="Filesystem device module.">
<polygon fill="#fff0f0" stroke="red" points="314.88,-102.62 201.38,-102.62 201.38,-81.88 314.88,-81.88 314.88,-102.62"/>
<text xml:space="preserve" text-anchor="middle" x="258.12" y="-89.12" font-family="Helvetica,sans-Serif" font-size="10.00">spdk_fsdev_module</text>
</a>
</g>
</g>
<!-- Node3&#45;&gt;Node2 -->
<g id="edge2_Node000002_Node000003" class="edge">
<title>Node3&#45;&gt;Node2</title>
<g id="a_edge2_Node000002_Node000003"><a xlink:title=" ">
<path fill="none" stroke="#9a32cd" stroke-dasharray="5,2" d="M245.1,-71.98C234.28,-55.98 219.33,-33.87 210.8,-21.25"/>
<polygon fill="#9a32cd" stroke="#9a32cd" points="242.16,-73.88 250.66,-80.2 247.95,-69.96 242.16,-73.88"/>
</a>
</g>
<text xml:space="preserve" text-anchor="start" x="237.36" y="-45" font-family="Helvetica,sans-Serif" font-size="10.00" fill="grey">module</text>
</g>
<!-- Node5 -->
<g id="Node000005" class="node">
<title>Node5</title>
<g id="a_Node000005"><a xlink:href="structspdk__fsdev__fn__table.html" target="_top" xlink:title="Function table for a filesystem device backend.">
<polygon fill="white" stroke="#666666" points="449.38,-102.62 332.88,-102.62 332.88,-81.88 449.38,-81.88 449.38,-102.62"/>
<text xml:space="preserve" text-anchor="middle" x="391.12" y="-89.12" font-family="Helvetica,sans-Serif" font-size="10.00">spdk_fsdev_fn_table</text>
</a>
</g>
</g>
<!-- Node5&#45;&gt;Node2 -->
<g id="edge3_Node000002_Node000005" class="edge">
<title>Node5&#45;&gt;Node2</title>
<g id="a_edge3_Node000002_Node000005"><a xlink:title=" ">
<path fill="none" stroke="#9a32cd" stroke-dasharray="5,2" d="M362.32,-76.49C340.34,-65.48 309.17,-50.39 281.12,-38.75 265.79,-32.39 248.39,-26.12 234.02,-21.19"/>
<polygon fill="#9a32cd" stroke="#9a32cd" points="360.46,-79.47 370.97,-80.86 363.62,-73.23 360.46,-79.47"/>
</a>
</g>
<text xml:space="preserve" text-anchor="start" x="323.94" y="-45" font-family="Helvetica,sans-Serif" font-size="10.00" fill="grey">fn_table</text>
</g>
<!-- Node6&#45;&gt;Node2 -->
<g id="edge4_Node000002_Node000006" class="edge">
<title>Node6&#45;&gt;Node2</title>
<g id="a_edge4_Node000002_Node000006"><a xlink:title=" ">
<path fill="none" stroke="#9a32cd" stroke-dasharray="5,2" d="M69.59,-65.1C75.36,-55.52 83.08,-45.4 92.62,-38.75 114.79,-23.31 144.72,-16.55 168,-13.6"/>
<polygon fill="#9a32cd" stroke="#9a32cd" points="66.57,-63.32 64.83,-73.77 72.71,-66.69 66.57,-63.32"/>
</a>
</g>
<text xml:space="preserve" text-anchor="start" x="95.62" y="-45" font-family="Helvetica,sans-Serif" font-size="10.00" fill="grey">internal</text>
</g>
</g>
</svg>
</svg>

<style type='text/css'>
<![CDATA[
[data-mouse-over-selected='false'] { opacity: 0.7; }
[data-mouse-over-selected='true']  { opacity: 1.0; }
]]>
</style>
<script type="application/ecmascript"><![CDATA[
document.addEventListener('DOMContentLoaded', (event) => {
  highlightEdges();
  highlightAdjacentNodes();
});
]]></script>
</svg>
