<?xml version="1.0" encoding="UTF-8" standalone="no"?>
<!DOCTYPE svg PUBLIC "-//W3C//DTD SVG 1.1//EN"
 "http://www.w3.org/Graphics/SVG/1.1/DTD/svg11.dtd">
<!-- Generated by graphviz version 13.1.2 (20250808.2320)
 -->
<!-- Title: spdk_nvmf_fc_ls_cr_conn_rqst Pages: 1 -->
<svg width="368pt" height="132pt"
 viewBox="0.00 0.00 368.00 132.00" xmlns="http://www.w3.org/2000/svg" xmlns:xlink="http://www.w3.org/1999/xlink">
<g id="graph0" class="graph" transform="scale(1 1) rotate(0) translate(4 128.12)">
<title>spdk_nvmf_fc_ls_cr_conn_rqst</title>
<!-- Node1 -->
<g id="Node000001" class="node">
<title>Node1</title>
<g id="a_Node000001"><a xlink:title=" ">
<polygon fill="#999999" stroke="#666666" points="359.75,-85.5 247.75,-85.5 247.75,-52 359.75,-52 359.75,-85.5"/>
<text xml:space="preserve" text-anchor="start" x="255.75" y="-72" font-family="Helvetica,sans-Serif" font-size="10.00">spdk_nvmf_fc_ls_cr</text>
<text xml:space="preserve" text-anchor="middle" x="303.75" y="-59.25" font-family="Helvetica,sans-Serif" font-size="10.00">_conn_rqst</text>
</a>
</g>
</g>
<!-- Node2 -->
<g id="Node000002" class="node">
<title>Node2</title>
<g id="a_Node000002"><a xlink:href="structspdk__nvmf__fc__ls__rqst__w0.html" target="_top" xlink:title=" ">
<polygon fill="white" stroke="#bfbfbf" points="141.25,-124.12 0,-124.12 0,-103.38 141.25,-103.38 141.25,-124.12"/>
<text xml:space="preserve" text-anchor="middle" x="70.62" y="-110.62" font-family="Helvetica,sans-Serif" font-size="10.00">spdk_nvmf_fc_ls_rqst_w0</text>
</a>
</g>
</g>
<!-- Node2&#45;&gt;Node1 -->
<g id="edge1_Node000001_Node000002" class="edge">
<title>Node2&#45;&gt;Node1</title>
<g id="a_edge1_Node000001_Node000002"><a xlink:title=" ">
<path fill="none" stroke="#9a32cd" stroke-dasharray="5,2" d="M152.95,-105.08C177.76,-101.73 205.01,-97.33 229.75,-91.75 237.01,-90.11 244.59,-88.09 251.99,-85.93"/>
<polygon fill="#9a32cd" stroke="#9a32cd" points="152.7,-101.58 143.24,-106.35 153.61,-108.52 152.7,-101.58"/>
</a>
</g>
<text xml:space="preserve" text-anchor="start" x="187.38" y="-110.24" font-family="Helvetica,sans-Serif" font-size="10.00" fill="grey">w0</text>
</g>
<!-- Node3 -->
<g id="Node000003" class="node">
<title>Node3</title>
<g id="a_Node000003"><a xlink:href="structspdk__nvmf__fc__lsdesc__assoc__id.html" target="_top" xlink:title=" ">
<polygon fill="white" stroke="#bfbfbf" points="130.75,-85.5 10.5,-85.5 10.5,-52 130.75,-52 130.75,-85.5"/>
<text xml:space="preserve" text-anchor="start" x="18.5" y="-72" font-family="Helvetica,sans-Serif" font-size="10.00">spdk_nvmf_fc_lsdesc</text>
<text xml:space="preserve" text-anchor="middle" x="70.62" y="-59.25" font-family="Helvetica,sans-Serif" font-size="10.00">_assoc_id</text>
</a>
</g>
</g>
<!-- Node3&#45;&gt;Node1 -->
<g id="edge2_Node000001_Node000003" class="edge">
<title>Node3&#45;&gt;Node1</title>
<g id="a_edge2_Node000001_Node000003"><a xlink:title=" ">
<path fill="none" stroke="#9a32cd" stroke-dasharray="5,2" d="M142.34,-68.75C176.09,-68.75 215.89,-68.75 247.4,-68.75"/>
<polygon fill="#9a32cd" stroke="#9a32cd" points="142.66,-65.25 132.66,-68.75 142.66,-72.25 142.66,-65.25"/>
</a>
</g>
<text xml:space="preserve" text-anchor="start" x="173.5" y="-75" font-family="Helvetica,sans-Serif" font-size="10.00" fill="grey">assoc_id</text>
</g>
<!-- Node4 -->
<g id="Node000004" class="node">
<title>Node4</title>
<g id="a_Node000004"><a xlink:href="structspdk__nvmf__fc__lsdesc__cr__conn__cmd.html" target="_top" xlink:title=" ">
<polygon fill="white" stroke="#bfbfbf" points="130.75,-33.5 10.5,-33.5 10.5,0 130.75,0 130.75,-33.5"/>
<text xml:space="preserve" text-anchor="start" x="18.5" y="-20" font-family="Helvetica,sans-Serif" font-size="10.00">spdk_nvmf_fc_lsdesc</text>
<text xml:space="preserve" text-anchor="middle" x="70.62" y="-7.25" font-family="Helvetica,sans-Serif" font-size="10.00">_cr_conn_cmd</text>
</a>
</g>
</g>
<!-- Node4&#45;&gt;Node1 -->
<g id="edge3_Node000001_Node000004" class="edge">
<title>Node4&#45;&gt;Node1</title>
<g id="a_edge3_Node000001_Node000004"><a xlink:title=" ">
<path fill="none" stroke="#9a32cd" stroke-dasharray="5,2" d="M142.04,-27.92C169.56,-32.77 201.29,-38.96 229.75,-46 236.45,-47.66 243.44,-49.58 250.33,-51.59"/>
<polygon fill="#9a32cd" stroke="#9a32cd" points="142.87,-24.51 132.42,-26.25 141.68,-31.41 142.87,-24.51"/>
</a>
</g>
<text xml:space="preserve" text-anchor="start" x="162.25" y="-52.25" font-family="Helvetica,sans-Serif" font-size="10.00" fill="grey">connect_cmd</text>
</g>
</g>
</svg>
