<?xml version="1.0" encoding="UTF-8" standalone="no"?>
<!DOCTYPE svg PUBLIC "-//W3C//DTD SVG 1.1//EN"
 "http://www.w3.org/Graphics/SVG/1.1/DTD/svg11.dtd">
<!-- Generated by graphviz version 13.1.2 (20250808.2320)
 -->
<!-- Title: spdk_opal_d0_features_info Pages: 1 -->
<!--zoomable 281 -->

<svg id="main" version="1.1" xmlns="http://www.w3.org/2000/svg" xmlns:xlink="http://www.w3.org/1999/xlink" xml:space="preserve" onload="init(evt)">

<style type="text/css"><![CDATA[
.node, .edge {opacity: 0.7;}
.node.selected, .edge.selected {opacity: 1;}
.edge:hover path { stroke: red; }
.edge:hover polygon { stroke: red; fill: red; }
]]></style>

<defs>
  <circle id="rim" cx="0" cy="0" r="7"/>
  <circle id="rim2" cx="0" cy="0" r="3.5"/>
  <g id="zoomPlus">
    <use xlink:href="#rim" fill="#404040"><set attributeName="fill" to="#808080" begin="zoomplus.mouseover" end="zoomplus.mouseout"/></use>
    <path d="M-4,0h8M0,-4v8" fill="none" stroke="white" stroke-width="1.5" pointer-events="none"/>
  </g>
  <g id="zoomMin">
    <use xlink:href="#rim" fill="#404040"><set attributeName="fill" to="#808080" begin="zoomminus.mouseover" end="zoomminus.mouseout"/></use>
    <path d="M-4,0h8" fill="none" stroke="white" stroke-width="1.5" pointer-events="none"/>
  </g>
  <g id="arrowUp" transform="translate(30 24)">
    <use xlink:href="#rim"/>
    <path pointer-events="none" fill="none" stroke="white" stroke-width="1.5" d="M0,-3.0v7 M-2.5,-0.5L0,-3.0L2.5,-0.5"/>
  </g>
  <g id="arrowRight" transform="rotate(90) translate(36 -43)">
    <use xlink:href="#rim"/>
    <path pointer-events="none" fill="none" stroke="white" stroke-width="1.5" d="M0,-3.0v7 M-2.5,-0.5L0,-3.0L2.5,-0.5"/>
  </g>
  <g id="arrowDown" transform="rotate(180) translate(-30 -48)">
    <use xlink:href="#rim"/>
    <path pointer-events="none" fill="none" stroke="white" stroke-width="1.5" d="M0,-3.0v7 M-2.5,-0.5L0,-3.0L2.5,-0.5"/>
  </g>
  <g id="arrowLeft" transform="rotate(270) translate(-36 17)">
    <use xlink:href="#rim"/>
    <path pointer-events="none" fill="none" stroke="white" stroke-width="1.5" d="M0,-3.0v7 M-2.5,-0.5L0,-3.0L2.5,-0.5"/>
  </g>
  <g id="resetDef">
    <use xlink:href="#rim2" fill="#404040"><set attributeName="fill" to="#808080" begin="reset.mouseover" end="reset.mouseout"/></use>
  </g>
</defs>
<script type="application/ecmascript">
var viewWidth = 604;
var viewHeight = 281;
var sectionId = 'dynsection-0';
</script>
<script type="application/ecmascript" xlink:href="svg.min.js"/>
<svg id="graph" class="graph">
<g id="viewport">
<title>spdk_opal_d0_features_info</title>
<!-- Node1 -->
<g id="Node000001" class="node">
<title>Node1</title>
<g id="a_Node000001"><a xlink:title=" ">
<polygon fill="#999999" stroke="#666666" points="595.5,-146.75 443,-146.75 443,-126 595.5,-126 595.5,-146.75"/>
<text xml:space="preserve" text-anchor="middle" x="519.25" y="-133.25" font-family="Helvetica,sans-Serif" font-size="10.00">spdk_opal_d0_features_info</text>
</a>
</g>
</g>
<!-- Node2 -->
<g id="Node000002" class="node">
<title>Node2</title>
<g id="a_Node000002"><a xlink:href="structspdk__opal__d0__tper__feat.html" target="_top" xlink:title=" ">
<polygon fill="white" stroke="#bfbfbf" points="332,-272.75 199.75,-272.75 199.75,-252 332,-252 332,-272.75"/>
<text xml:space="preserve" text-anchor="middle" x="265.88" y="-259.25" font-family="Helvetica,sans-Serif" font-size="10.00">spdk_opal_d0_tper_feat</text>
</a>
</g>
</g>
<!-- Node2&#45;&gt;Node1 -->
<g id="edge1_Node000001_Node000002" class="edge">
<title>Node2&#45;&gt;Node1</title>
<g id="a_edge1_Node000001_Node000002"><a xlink:title=" ">
<path fill="none" stroke="#9a32cd" stroke-dasharray="5,2" d="M343.82,-255.41C370.68,-250.67 400.27,-242.72 425,-229.38 463.63,-208.53 496.77,-166.64 510.92,-147"/>
<polygon fill="#9a32cd" stroke="#9a32cd" points="343.3,-251.95 333.99,-257.01 344.43,-258.86 343.3,-251.95"/>
</a>
</g>
<text xml:space="preserve" text-anchor="start" x="384.5" y="-256.79" font-family="Helvetica,sans-Serif" font-size="10.00" fill="grey">tper</text>
</g>
<!-- Node3 -->
<g id="Node000003" class="node">
<title>Node3</title>
<g id="a_Node000003"><a xlink:href="structspdk__opal__d0__feat__hdr.html" target="_top" xlink:title=" ">
<polygon fill="white" stroke="#bfbfbf" points="128.5,-146.75 0,-146.75 0,-126 128.5,-126 128.5,-146.75"/>
<text xml:space="preserve" text-anchor="middle" x="64.25" y="-133.25" font-family="Helvetica,sans-Serif" font-size="10.00">spdk_opal_d0_feat_hdr</text>
</a>
</g>
</g>
<!-- Node3&#45;&gt;Node2 -->
<g id="edge2_Node000002_Node000003" class="edge">
<title>Node3&#45;&gt;Node2</title>
<g id="a_edge2_Node000002_Node000003"><a xlink:title=" ">
<path fill="none" stroke="#9a32cd" stroke-dasharray="5,2" d="M80.18,-155.59C100.91,-180.63 141.01,-223.46 186.25,-242.38 194.83,-245.96 204.21,-249.03 213.41,-251.61"/>
<polygon fill="#9a32cd" stroke="#9a32cd" points="83.17,-153.71 74.16,-148.13 77.72,-158.11 83.17,-153.71"/>
</a>
</g>
<text xml:space="preserve" text-anchor="start" x="149.5" y="-238.95" font-family="Helvetica,sans-Serif" font-size="10.00" fill="grey">hdr</text>
</g>
<!-- Node4 -->
<g id="Node000004" class="node">
<title>Node4</title>
<g id="a_Node000004"><a xlink:href="structspdk__opal__d0__locking__feat.html" target="_top" xlink:title=" ">
<polygon fill="white" stroke="#bfbfbf" points="339.88,-233.75 191.88,-233.75 191.88,-213 339.88,-213 339.88,-233.75"/>
<text xml:space="preserve" text-anchor="middle" x="265.88" y="-220.25" font-family="Helvetica,sans-Serif" font-size="10.00">spdk_opal_d0_locking_feat</text>
</a>
</g>
</g>
<!-- Node3&#45;&gt;Node4 -->
<g id="edge4_Node000004_Node000003" class="edge">
<title>Node3&#45;&gt;Node4</title>
<g id="a_edge4_Node000004_Node000003"><a xlink:title=" ">
<path fill="none" stroke="#9a32cd" stroke-dasharray="5,2" d="M90.23,-153.38C113.97,-168.81 151.15,-191.1 186.25,-204.38 194.53,-207.5 203.49,-210.24 212.3,-212.6"/>
<polygon fill="#9a32cd" stroke="#9a32cd" points="92.47,-150.66 82.19,-148.07 88.61,-156.51 92.47,-150.66"/>
</a>
</g>
<text xml:space="preserve" text-anchor="start" x="149.5" y="-201.84" font-family="Helvetica,sans-Serif" font-size="10.00" fill="grey">hdr</text>
</g>
<!-- Node5 -->
<g id="Node000005" class="node">
<title>Node5</title>
<g id="a_Node000005"><a xlink:href="structspdk__opal__d0__single__user__mode__feat.html" target="_top" xlink:title=" ">
<polygon fill="white" stroke="#bfbfbf" points="324.5,-195.12 207.25,-195.12 207.25,-161.62 324.5,-161.62 324.5,-195.12"/>
<text xml:space="preserve" text-anchor="start" x="215.25" y="-181.62" font-family="Helvetica,sans-Serif" font-size="10.00">spdk_opal_d0_single</text>
<text xml:space="preserve" text-anchor="middle" x="265.88" y="-168.88" font-family="Helvetica,sans-Serif" font-size="10.00">_user_mode_feat</text>
</a>
</g>
</g>
<!-- Node3&#45;&gt;Node5 -->
<g id="edge6_Node000005_Node000003" class="edge">
<title>Node3&#45;&gt;Node5</title>
<g id="a_edge6_Node000005_Node000003"><a xlink:title=" ">
<path fill="none" stroke="#9a32cd" stroke-dasharray="5,2" d="M118.48,-149.94C127.79,-152.18 137.41,-154.41 146.5,-156.38 166.12,-160.61 187.67,-164.76 206.94,-168.3"/>
<polygon fill="#9a32cd" stroke="#9a32cd" points="119.33,-146.55 108.78,-147.58 117.67,-153.35 119.33,-146.55"/>
</a>
</g>
<text xml:space="preserve" text-anchor="start" x="149.5" y="-166.65" font-family="Helvetica,sans-Serif" font-size="10.00" fill="grey">hdr</text>
</g>
<!-- Node6 -->
<g id="Node000006" class="node">
<title>Node6</title>
<g id="a_Node000006"><a xlink:href="structspdk__opal__d0__geo__feat.html" target="_top" xlink:title=" ">
<polygon fill="white" stroke="#bfbfbf" points="331.25,-143.75 200.5,-143.75 200.5,-123 331.25,-123 331.25,-143.75"/>
<text xml:space="preserve" text-anchor="middle" x="265.88" y="-130.25" font-family="Helvetica,sans-Serif" font-size="10.00">spdk_opal_d0_geo_feat</text>
</a>
</g>
</g>
<!-- Node3&#45;&gt;Node6 -->
<g id="edge8_Node000006_Node000003" class="edge">
<title>Node3&#45;&gt;Node6</title>
<g id="a_edge8_Node000006_Node000003"><a xlink:title=" ">
<path fill="none" stroke="#9a32cd" stroke-dasharray="5,2" d="M140.35,-135.25C159.99,-134.95 181,-134.64 200.05,-134.35"/>
<polygon fill="#9a32cd" stroke="#9a32cd" points="140.42,-131.74 130.47,-135.39 140.53,-138.74 140.42,-131.74"/>
</a>
</g>
<text xml:space="preserve" text-anchor="start" x="149.5" y="-141.39" font-family="Helvetica,sans-Serif" font-size="10.00" fill="grey">hdr</text>
</g>
<!-- Node7 -->
<g id="Node000007" class="node">
<title>Node7</title>
<g id="a_Node000007"><a xlink:href="structspdk__opal__d0__datastore__feat.html" target="_top" xlink:title=" ">
<polygon fill="white" stroke="#bfbfbf" points="345.5,-104.75 186.25,-104.75 186.25,-84 345.5,-84 345.5,-104.75"/>
<text xml:space="preserve" text-anchor="middle" x="265.88" y="-91.25" font-family="Helvetica,sans-Serif" font-size="10.00">spdk_opal_d0_datastore_feat</text>
</a>
</g>
</g>
<!-- Node3&#45;&gt;Node7 -->
<g id="edge10_Node000007_Node000003" class="edge">
<title>Node3&#45;&gt;Node7</title>
<g id="a_edge10_Node000007_Node000003"><a xlink:title=" ">
<path fill="none" stroke="#9a32cd" stroke-dasharray="5,2" d="M109.26,-122.37C121.26,-118.86 134.31,-115.33 146.5,-112.62 159.19,-109.81 172.73,-107.28 185.97,-105.06"/>
<polygon fill="#9a32cd" stroke="#9a32cd" points="108.62,-118.9 100.04,-125.12 110.63,-125.61 108.62,-118.9"/>
</a>
</g>
<text xml:space="preserve" text-anchor="start" x="149.5" y="-118.88" font-family="Helvetica,sans-Serif" font-size="10.00" fill="grey">hdr</text>
</g>
<!-- Node8 -->
<g id="Node000008" class="node">
<title>Node8</title>
<g id="a_Node000008"><a xlink:href="structspdk__opal__d0__v100__feat.html" target="_top" xlink:title=" ">
<polygon fill="white" stroke="#bfbfbf" points="334.25,-62.75 197.5,-62.75 197.5,-42 334.25,-42 334.25,-62.75"/>
<text xml:space="preserve" text-anchor="middle" x="265.88" y="-49.25" font-family="Helvetica,sans-Serif" font-size="10.00">spdk_opal_d0_v100_feat</text>
</a>
</g>
</g>
<!-- Node3&#45;&gt;Node8 -->
<g id="edge12_Node000008_Node000003" class="edge">
<title>Node3&#45;&gt;Node8</title>
<g id="a_edge12_Node000008_Node000003"><a xlink:title=" ">
<path fill="none" stroke="#9a32cd" stroke-dasharray="5,2" d="M88.5,-119.36C104.23,-108.48 125.84,-94.75 146.5,-85.62 167.98,-76.13 192.85,-68.66 214.24,-63.22"/>
<polygon fill="#9a32cd" stroke="#9a32cd" points="86.91,-116.19 80.76,-124.82 90.95,-121.91 86.91,-116.19"/>
</a>
</g>
<text xml:space="preserve" text-anchor="start" x="149.5" y="-91.88" font-family="Helvetica,sans-Serif" font-size="10.00" fill="grey">hdr</text>
</g>
<!-- Node9 -->
<g id="Node000009" class="node">
<title>Node9</title>
<g id="a_Node000009"><a xlink:href="structspdk__opal__d0__v200__feat.html" target="_top" xlink:title=" ">
<polygon fill="white" stroke="#bfbfbf" points="334.25,-20.75 197.5,-20.75 197.5,0 334.25,0 334.25,-20.75"/>
<text xml:space="preserve" text-anchor="middle" x="265.88" y="-7.25" font-family="Helvetica,sans-Serif" font-size="10.00">spdk_opal_d0_v200_feat</text>
</a>
</g>
</g>
<!-- Node3&#45;&gt;Node9 -->
<g id="edge14_Node000009_Node000003" class="edge">
<title>Node3&#45;&gt;Node9</title>
<g id="a_edge14_Node000009_Node000003"><a xlink:title=" ">
<path fill="none" stroke="#9a32cd" stroke-dasharray="5,2" d="M81.47,-117.53C97.03,-100.15 121.76,-74.29 146.5,-55.62 162.66,-43.43 167.58,-41.21 186.25,-33.38 197.4,-28.7 209.81,-24.59 221.42,-21.19"/>
<polygon fill="#9a32cd" stroke="#9a32cd" points="79.2,-114.82 75.22,-124.63 84.45,-119.44 79.2,-114.82"/>
</a>
</g>
<text xml:space="preserve" text-anchor="start" x="149.5" y="-61.88" font-family="Helvetica,sans-Serif" font-size="10.00" fill="grey">hdr</text>
</g>
<!-- Node4&#45;&gt;Node1 -->
<g id="edge3_Node000001_Node000004" class="edge">
<title>Node4&#45;&gt;Node1</title>
<g id="a_edge3_Node000001_Node000004"><a xlink:title=" ">
<path fill="none" stroke="#9a32cd" stroke-dasharray="5,2" d="M347.31,-210.29C372.63,-204.92 400.39,-197.73 425,-188.38 453.76,-177.44 484.43,-158.82 502.44,-147.08"/>
<polygon fill="#9a32cd" stroke="#9a32cd" points="346.83,-206.81 337.73,-212.25 348.23,-213.67 346.83,-206.81"/>
</a>
</g>
<text xml:space="preserve" text-anchor="start" x="376.62" y="-212.46" font-family="Helvetica,sans-Serif" font-size="10.00" fill="grey">locking</text>
</g>
<!-- Node5&#45;&gt;Node1 -->
<g id="edge5_Node000001_Node000005" class="edge">
<title>Node5&#45;&gt;Node1</title>
<g id="a_edge5_Node000001_Node000005"><a xlink:title=" ">
<path fill="none" stroke="#9a32cd" stroke-dasharray="5,2" d="M336.05,-169.86C363.77,-166.16 395.97,-161.5 425,-156.38 440,-153.73 456.26,-150.4 470.94,-147.22"/>
<polygon fill="#9a32cd" stroke="#9a32cd" points="335.82,-166.36 326.36,-171.14 336.74,-173.3 335.82,-166.36"/>
</a>
</g>
<text xml:space="preserve" text-anchor="start" x="366.5" y="-172.21" font-family="Helvetica,sans-Serif" font-size="10.00" fill="grey">single_user</text>
</g>
<!-- Node6&#45;&gt;Node1 -->
<g id="edge7_Node000001_Node000006" class="edge">
<title>Node6&#45;&gt;Node1</title>
<g id="a_edge7_Node000001_Node000006"><a xlink:title=" ">
<path fill="none" stroke="#9a32cd" stroke-dasharray="5,2" d="M342.99,-134.28C374.55,-134.66 411.07,-135.1 442.58,-135.47"/>
<polygon fill="#9a32cd" stroke="#9a32cd" points="343.16,-130.79 333.12,-134.17 343.08,-137.78 343.16,-130.79"/>
</a>
</g>
<text xml:space="preserve" text-anchor="start" x="385.25" y="-141.48" font-family="Helvetica,sans-Serif" font-size="10.00" fill="grey">geo</text>
</g>
<!-- Node7&#45;&gt;Node1 -->
<g id="edge9_Node000001_Node000007" class="edge">
<title>Node7&#45;&gt;Node1</title>
<g id="a_edge9_Node000001_Node000007"><a xlink:title=" ">
<path fill="none" stroke="#9a32cd" stroke-dasharray="5,2" d="M356.83,-101.81C379.2,-104.31 403.05,-107.54 425,-111.62 444.27,-115.21 465.4,-120.69 482.67,-125.58"/>
<polygon fill="#9a32cd" stroke="#9a32cd" points="357.46,-98.36 347.14,-100.77 356.71,-105.32 357.46,-98.36"/>
</a>
</g>
<text xml:space="preserve" text-anchor="start" x="371" y="-117.88" font-family="Helvetica,sans-Serif" font-size="10.00" fill="grey">datastore</text>
</g>
<!-- Node8&#45;&gt;Node1 -->
<g id="edge11_Node000001_Node000008" class="edge">
<title>Node8&#45;&gt;Node1</title>
<g id="a_edge11_Node000001_Node000008"><a xlink:title=" ">
<path fill="none" stroke="#9a32cd" stroke-dasharray="5,2" d="M345.77,-60.02C371.57,-64.08 400.01,-70.25 425,-79.62 455.34,-91 486.76,-112.5 504.27,-125.52"/>
<polygon fill="#9a32cd" stroke="#9a32cd" points="346.41,-56.58 336,-58.58 345.39,-63.51 346.41,-56.58"/>
</a>
</g>
<text xml:space="preserve" text-anchor="start" x="382.25" y="-85.88" font-family="Helvetica,sans-Serif" font-size="10.00" fill="grey">v100</text>
</g>
<!-- Node9&#45;&gt;Node1 -->
<g id="edge13_Node000001_Node000009" class="edge">
<title>Node9&#45;&gt;Node1</title>
<g id="a_edge13_Node000001_Node000009"><a xlink:title=" ">
<path fill="none" stroke="#9a32cd" stroke-dasharray="5,2" d="M345.66,-15.88C372.06,-20.17 400.88,-27.64 425,-40.62 464.43,-61.85 497.41,-105.49 511.25,-125.69"/>
<polygon fill="#9a32cd" stroke="#9a32cd" points="346.42,-12.46 336.02,-14.46 345.4,-19.38 346.42,-12.46"/>
</a>
</g>
<text xml:space="preserve" text-anchor="start" x="382.25" y="-46.88" font-family="Helvetica,sans-Serif" font-size="10.00" fill="grey">v200</text>
</g>
</g>
</svg>

<g id="navigator" transform="translate(0 0)" fill="#404254">
  <rect fill="#f2f5e9" fill-opacity="0.5" stroke="#606060" stroke-width=".5" x="0" y="0" width="60" height="60"/>
  <use id="zoomplus" xlink:href="#zoomPlus" x="17" y="9" onmousedown="handleZoom(evt,'in')"/>
  <use id="zoomminus" xlink:href="#zoomMin" x="42" y="9" onmousedown="handleZoom(evt,'out')"/>
  <use id="reset" xlink:href="#resetDef" x="30" y="36" onmousedown="handleReset()"/>
   <use id="arrowup" xlink:href="#arrowUp" x="0" y="0" onmousedown="handlePan(0,-1)"/>
  <use id="arrowright" xlink:href="#arrowRight" x="0" y="0" onmousedown="handlePan(1,0)"/>
  <use id="arrowdown" xlink:href="#arrowDown" x="0" y="0" onmousedown="handlePan(0,1)"/>
  <use id="arrowleft" xlink:href="#arrowLeft" x="0" y="0" onmousedown="handlePan(-1,0)"/>
</g>
<svg viewBox="0 0 15 15" width="100%" height="30px" preserveAspectRatio="xMaxYMin meet">
 <g id="arrow_out" transform="scale(0.3 0.3)">
  <a xlink:href="structspdk__opal__d0__features__info__coll__graph_org.svg" target="_base">
   <rect id="button" ry="5" rx="5" y="6" x="6" height="38" width="38"
        fill="#f2f5e9" fill-opacity="0.5" stroke="#606060" stroke-width="1.0"/>
   <path id="arrow"
     d="M 11.500037,31.436501 C 11.940474,20.09759 22.043105,11.32322 32.158766,21.979434 L 37.068811,17.246167 C 37.068811,17.246167 37.088388,32 37.088388,32 L 22.160133,31.978069 C 22.160133,31.978069 26.997745,27.140456 26.997745,27.140456 C 18.528582,18.264221 13.291696,25.230495 11.500037,31.436501 z"
     style="fill:#404040;"/>
  </a>
 </g>
</svg>

<style type='text/css'>
<![CDATA[
[data-mouse-over-selected='false'] { opacity: 0.7; }
[data-mouse-over-selected='true']  { opacity: 1.0; }
]]>
</style>
<script type="application/ecmascript"><![CDATA[
document.addEventListener('DOMContentLoaded', (event) => {
  highlightEdges();
  highlightAdjacentNodes();
});
]]></script>
</svg>
