<?xml version="1.0" encoding="UTF-8" standalone="no"?>
<!DOCTYPE svg PUBLIC "-//W3C//DTD SVG 1.1//EN"
 "http://www.w3.org/Graphics/SVG/1.1/DTD/svg11.dtd">
<!-- Generated by graphviz version 13.1.2 (20250808.2320)
 -->
<!-- Title: spdk_nvme_tcp_cmd Pages: 1 -->
<svg width="595pt" height="198pt"
 viewBox="0.00 0.00 595.00 198.00" xmlns="http://www.w3.org/2000/svg" xmlns:xlink="http://www.w3.org/1999/xlink">
<g id="graph0" class="graph" transform="scale(1 1) rotate(0) translate(4 194.07)">
<title>spdk_nvme_tcp_cmd</title>
<!-- Node1 -->
<g id="Node000001" class="node">
<title>Node1</title>
<g id="a_Node000001"><a xlink:title="CapsuleCmd.">
<polygon fill="#999999" stroke="#666666" points="586.5,-127.75 467.75,-127.75 467.75,-107 586.5,-107 586.5,-127.75"/>
<text xml:space="preserve" text-anchor="middle" x="527.12" y="-114.25" font-family="Helvetica,sans-Serif" font-size="10.00">spdk_nvme_tcp_cmd</text>
</a>
</g>
</g>
<!-- Node2 -->
<g id="Node000002" class="node">
<title>Node2</title>
<g id="a_Node000002"><a xlink:href="structspdk__nvme__tcp__common__pdu__hdr.html" target="_top" xlink:title="Common NVMe/TCP PDU header.">
<polygon fill="white" stroke="#666666" points="383,-156.12 242.5,-156.12 242.5,-122.62 383,-122.62 383,-156.12"/>
<text xml:space="preserve" text-anchor="start" x="250.5" y="-142.62" font-family="Helvetica,sans-Serif" font-size="10.00">spdk_nvme_tcp_common</text>
<text xml:space="preserve" text-anchor="middle" x="312.75" y="-129.88" font-family="Helvetica,sans-Serif" font-size="10.00">_pdu_hdr</text>
</a>
</g>
</g>
<!-- Node2&#45;&gt;Node1 -->
<g id="edge1_Node000001_Node000002" class="edge">
<title>Node2&#45;&gt;Node1</title>
<g id="a_edge1_Node000001_Node000002"><a xlink:title=" ">
<path fill="none" stroke="#9a32cd" stroke-dasharray="5,2" d="M394.64,-131C418.86,-128.49 444.95,-125.78 467.46,-123.45"/>
<polygon fill="#9a32cd" stroke="#9a32cd" points="394.38,-127.5 384.8,-132.02 395.1,-134.47 394.38,-127.5"/>
</a>
</g>
<text xml:space="preserve" text-anchor="start" x="404" y="-135.94" font-family="Helvetica,sans-Serif" font-size="10.00" fill="grey">common</text>
</g>
<!-- Node3 -->
<g id="Node000003" class="node">
<title>Node3</title>
<g id="a_Node000003"><a xlink:href="structspdk__nvme__cmd.html" target="_top" xlink:title=" ">
<polygon fill="white" stroke="#bfbfbf" points="362,-104.75 263.5,-104.75 263.5,-84 362,-84 362,-104.75"/>
<text xml:space="preserve" text-anchor="middle" x="312.75" y="-91.25" font-family="Helvetica,sans-Serif" font-size="10.00">spdk_nvme_cmd</text>
</a>
</g>
</g>
<!-- Node3&#45;&gt;Node1 -->
<g id="edge2_Node000001_Node000003" class="edge">
<title>Node3&#45;&gt;Node1</title>
<g id="a_edge2_Node000001_Node000003"><a xlink:title=" ">
<path fill="none" stroke="#9a32cd" stroke-dasharray="5,2" d="M373.69,-96.33C397.44,-97.54 424.94,-99.49 449.75,-102.62 457.92,-103.66 466.54,-105.04 474.92,-106.54"/>
<polygon fill="#9a32cd" stroke="#9a32cd" points="374.03,-92.84 363.87,-95.86 373.69,-99.83 374.03,-92.84"/>
</a>
</g>
<text xml:space="preserve" text-anchor="start" x="411.5" y="-108.88" font-family="Helvetica,sans-Serif" font-size="10.00" fill="grey">ccsqe</text>
</g>
<!-- Node4 -->
<g id="Node000004" class="node">
<title>Node4</title>
<g id="a_Node000004"><a xlink:href="structspdk__nvme__sgl__descriptor.html" target="_top" xlink:title=" ">
<polygon fill="white" stroke="#bfbfbf" points="145.75,-188.75 0,-188.75 0,-168 145.75,-168 145.75,-188.75"/>
<text xml:space="preserve" text-anchor="middle" x="72.88" y="-175.25" font-family="Helvetica,sans-Serif" font-size="10.00">spdk_nvme_sgl_descriptor</text>
</a>
</g>
</g>
<!-- Node4&#45;&gt;Node3 -->
<g id="edge3_Node000003_Node000004" class="edge">
<title>Node4&#45;&gt;Node3</title>
<g id="a_edge3_Node000003_Node000004"><a xlink:title=" ">
<path fill="none" stroke="#9a32cd" stroke-dasharray="5,2" d="M157.24,-173.63C180.75,-169.01 205.16,-160.79 224.5,-146.38 237.9,-136.39 229.4,-123.74 242.5,-113.38 248.56,-108.58 255.75,-104.99 263.16,-102.31"/>
<polygon fill="#9a32cd" stroke="#9a32cd" points="156.9,-170.13 147.65,-175.3 158.1,-177.03 156.9,-170.13"/>
</a>
</g>
<text xml:space="preserve" text-anchor="start" x="184" y="-177.57" font-family="Helvetica,sans-Serif" font-size="10.00" fill="grey">sgl1</text>
</g>
<!-- Node5 -->
<g id="Node000005" class="node">
<title>Node5</title>
<g id="a_Node000005"><a xlink:href="unionspdk__nvme__cmd__cdw10.html" target="_top" xlink:title=" ">
<polygon fill="white" stroke="#bfbfbf" points="140.5,-146.75 5.25,-146.75 5.25,-126 140.5,-126 140.5,-146.75"/>
<text xml:space="preserve" text-anchor="middle" x="72.88" y="-133.25" font-family="Helvetica,sans-Serif" font-size="10.00">spdk_nvme_cmd_cdw10</text>
</a>
</g>
</g>
<!-- Node5&#45;&gt;Node3 -->
<g id="edge4_Node000003_Node000005" class="edge">
<title>Node5&#45;&gt;Node3</title>
<g id="a_edge4_Node000003_Node000005"><a xlink:title=" ">
<path fill="none" stroke="#9a32cd" stroke-dasharray="5,2" d="M152.07,-126.17C175.43,-122.79 201.06,-118.77 224.5,-114.38 238.55,-111.74 253.77,-108.42 267.51,-105.24"/>
<polygon fill="#9a32cd" stroke="#9a32cd" points="151.71,-122.69 142.3,-127.56 152.69,-129.62 151.71,-122.69"/>
</a>
</g>
<text xml:space="preserve" text-anchor="start" x="166.75" y="-130.26" font-family="Helvetica,sans-Serif" font-size="10.00" fill="grey">cdw10_bits</text>
</g>
<!-- Node6 -->
<g id="Node000006" class="node">
<title>Node6</title>
<g id="a_Node000006"><a xlink:href="unionspdk__nvme__cmd__cdw11.html" target="_top" xlink:title=" ">
<polygon fill="white" stroke="orangered" points="140.5,-104.75 5.25,-104.75 5.25,-84 140.5,-84 140.5,-104.75"/>
<text xml:space="preserve" text-anchor="middle" x="72.88" y="-91.25" font-family="Helvetica,sans-Serif" font-size="10.00">spdk_nvme_cmd_cdw11</text>
</a>
</g>
</g>
<!-- Node6&#45;&gt;Node3 -->
<g id="edge5_Node000003_Node000006" class="edge">
<title>Node6&#45;&gt;Node3</title>
<g id="a_edge5_Node000003_Node000006"><a xlink:title=" ">
<path fill="none" stroke="#9a32cd" stroke-dasharray="5,2" d="M151.93,-94.38C188.57,-94.38 231.1,-94.38 263.07,-94.38"/>
<polygon fill="#9a32cd" stroke="#9a32cd" points="152.28,-90.88 142.28,-94.38 152.28,-97.88 152.28,-90.88"/>
</a>
</g>
<text xml:space="preserve" text-anchor="start" x="166.75" y="-100.62" font-family="Helvetica,sans-Serif" font-size="10.00" fill="grey">cdw11_bits</text>
</g>
<!-- Node25 -->
<g id="Node000025" class="node">
<title>Node25</title>
<g id="a_Node000025"><a xlink:href="unionspdk__nvme__cmd__cdw12.html" target="_top" xlink:title=" ">
<polygon fill="white" stroke="orangered" points="140.5,-62.75 5.25,-62.75 5.25,-42 140.5,-42 140.5,-62.75"/>
<text xml:space="preserve" text-anchor="middle" x="72.88" y="-49.25" font-family="Helvetica,sans-Serif" font-size="10.00">spdk_nvme_cmd_cdw12</text>
</a>
</g>
</g>
<!-- Node25&#45;&gt;Node3 -->
<g id="edge6_Node000003_Node000025" class="edge">
<title>Node25&#45;&gt;Node3</title>
<g id="a_edge6_Node000003_Node000025"><a xlink:title=" ">
<path fill="none" stroke="#9a32cd" stroke-dasharray="5,2" d="M152.17,-60.45C175.54,-63.38 201.14,-67.11 224.5,-71.62 241.1,-74.84 259.22,-79.39 274.63,-83.58"/>
<polygon fill="#9a32cd" stroke="#9a32cd" points="152.75,-57 142.4,-59.26 151.91,-63.95 152.75,-57"/>
</a>
</g>
<text xml:space="preserve" text-anchor="start" x="166.75" y="-77.88" font-family="Helvetica,sans-Serif" font-size="10.00" fill="grey">cdw12_bits</text>
</g>
<!-- Node28 -->
<g id="Node000028" class="node">
<title>Node28</title>
<g id="a_Node000028"><a xlink:href="unionspdk__nvme__cmd__cdw13.html" target="_top" xlink:title=" ">
<polygon fill="white" stroke="#bfbfbf" points="140.5,-20.75 5.25,-20.75 5.25,0 140.5,0 140.5,-20.75"/>
<text xml:space="preserve" text-anchor="middle" x="72.88" y="-7.25" font-family="Helvetica,sans-Serif" font-size="10.00">spdk_nvme_cmd_cdw13</text>
</a>
</g>
</g>
<!-- Node28&#45;&gt;Node3 -->
<g id="edge7_Node000003_Node000028" class="edge">
<title>Node28&#45;&gt;Node3</title>
<g id="a_edge7_Node000003_Node000028"><a xlink:title=" ">
<path fill="none" stroke="#9a32cd" stroke-dasharray="5,2" d="M152.1,-19.93C175.88,-24.32 201.72,-30.63 224.5,-39.62 252.61,-50.73 281.63,-71.03 298.11,-83.55"/>
<polygon fill="#9a32cd" stroke="#9a32cd" points="152.93,-16.52 142.48,-18.25 151.73,-23.42 152.93,-16.52"/>
</a>
</g>
<text xml:space="preserve" text-anchor="start" x="166.75" y="-45.88" font-family="Helvetica,sans-Serif" font-size="10.00" fill="grey">cdw13_bits</text>
</g>
</g>
</svg>
