<?xml version="1.0" encoding="UTF-8" standalone="no"?>
<!DOCTYPE svg PUBLIC "-//W3C//DTD SVG 1.1//EN"
 "http://www.w3.org/Graphics/SVG/1.1/DTD/svg11.dtd">
<!-- Generated by graphviz version 13.1.2 (20250808.2320)
 -->
<!-- Title: spdk_ioat_hw_desc Pages: 1 -->
<svg width="363pt" height="377pt"
 viewBox="0.00 0.00 363.00 377.00" xmlns="http://www.w3.org/2000/svg" xmlns:xlink="http://www.w3.org/1999/xlink">
<g id="graph0" class="graph" transform="scale(1 1) rotate(0) translate(4 372.94)">
<title>spdk_ioat_hw_desc</title>
<!-- Node1 -->
<g id="Node000001" class="node">
<title>Node1</title>
<g id="a_Node000001"><a xlink:title=" ">
<polygon fill="#999999" stroke="#666666" points="355.25,-198.12 244.75,-198.12 244.75,-177.38 355.25,-177.38 355.25,-198.12"/>
<text xml:space="preserve" text-anchor="middle" x="300" y="-184.62" font-family="Helvetica,sans-Serif" font-size="10.00">spdk_ioat_hw_desc</text>
</a>
</g>
</g>
<!-- Node2 -->
<g id="Node000002" class="node">
<title>Node2</title>
<g id="a_Node000002"><a xlink:href="structspdk__ioat__raw__hw__desc.html" target="_top" xlink:title=" ">
<polygon fill="white" stroke="#bfbfbf" points="142.75,-366.12 9,-366.12 9,-345.38 142.75,-345.38 142.75,-366.12"/>
<text xml:space="preserve" text-anchor="middle" x="75.88" y="-352.62" font-family="Helvetica,sans-Serif" font-size="10.00">spdk_ioat_raw_hw_desc</text>
</a>
</g>
</g>
<!-- Node2&#45;&gt;Node1 -->
<g id="edge1_Node000001_Node000002" class="edge">
<title>Node2&#45;&gt;Node1</title>
<g id="a_edge1_Node000001_Node000002"><a xlink:title=" ">
<path fill="none" stroke="#9a32cd" stroke-dasharray="5,2" d="M154.57,-353.28C179.58,-349.25 206.12,-341.2 226.75,-325.75 270.9,-292.67 290.57,-224.68 296.73,-198.42"/>
<polygon fill="#9a32cd" stroke="#9a32cd" points="154.13,-349.81 144.71,-354.66 155.1,-356.74 154.13,-349.81"/>
</a>
</g>
<text xml:space="preserve" text-anchor="start" x="189.25" y="-356.44" font-family="Helvetica,sans-Serif" font-size="10.00" fill="grey">raw</text>
</g>
<!-- Node3 -->
<g id="Node000003" class="node">
<title>Node3</title>
<g id="a_Node000003"><a xlink:href="structspdk__ioat__generic__hw__desc.html" target="_top" xlink:title=" ">
<polygon fill="white" stroke="#bfbfbf" points="151.75,-324.12 0,-324.12 0,-303.38 151.75,-303.38 151.75,-324.12"/>
<text xml:space="preserve" text-anchor="middle" x="75.88" y="-310.62" font-family="Helvetica,sans-Serif" font-size="10.00">spdk_ioat_generic_hw_desc</text>
</a>
</g>
</g>
<!-- Node3&#45;&gt;Node1 -->
<g id="edge2_Node000001_Node000003" class="edge">
<title>Node3&#45;&gt;Node1</title>
<g id="a_edge2_Node000001_Node000003"><a xlink:title=" ">
<path fill="none" stroke="#9a32cd" stroke-dasharray="5,2" d="M163.1,-305.31C185.05,-300.42 207.77,-292.74 226.75,-280.75 259.94,-259.78 283.98,-217.95 293.93,-198.35"/>
<polygon fill="#9a32cd" stroke="#9a32cd" points="162.65,-301.83 153.55,-307.26 164.05,-308.69 162.65,-301.83"/>
</a>
</g>
<text xml:space="preserve" text-anchor="start" x="180.25" y="-309.18" font-family="Helvetica,sans-Serif" font-size="10.00" fill="grey">generic</text>
</g>
<!-- Node4 -->
<g id="Node000004" class="node">
<title>Node4</title>
<g id="a_Node000004"><a xlink:href="structspdk__ioat__dma__hw__desc.html" target="_top" xlink:title=" ">
<polygon fill="white" stroke="#bfbfbf" points="144.62,-282.12 7.12,-282.12 7.12,-261.38 144.62,-261.38 144.62,-282.12"/>
<text xml:space="preserve" text-anchor="middle" x="75.88" y="-268.62" font-family="Helvetica,sans-Serif" font-size="10.00">spdk_ioat_dma_hw_desc</text>
</a>
</g>
</g>
<!-- Node4&#45;&gt;Node1 -->
<g id="edge3_Node000001_Node000004" class="edge">
<title>Node4&#45;&gt;Node1</title>
<g id="a_edge3_Node000001_Node000004"><a xlink:title=" ">
<path fill="none" stroke="#9a32cd" stroke-dasharray="5,2" d="M155.75,-261.24C179.23,-256.45 204.6,-249.57 226.75,-239.75 250.49,-229.23 274.18,-210.12 287.67,-198.23"/>
<polygon fill="#9a32cd" stroke="#9a32cd" points="155.4,-257.75 146.25,-263.08 156.73,-264.62 155.4,-257.75"/>
</a>
</g>
<text xml:space="preserve" text-anchor="start" x="187.38" y="-264.14" font-family="Helvetica,sans-Serif" font-size="10.00" fill="grey">dma</text>
</g>
<!-- Node5 -->
<g id="Node000005" class="node">
<title>Node5</title>
<g id="a_Node000005"><a xlink:href="structspdk__ioat__fill__hw__desc.html" target="_top" xlink:title=" ">
<polygon fill="white" stroke="#bfbfbf" points="139.75,-240.12 12,-240.12 12,-219.38 139.75,-219.38 139.75,-240.12"/>
<text xml:space="preserve" text-anchor="middle" x="75.88" y="-226.62" font-family="Helvetica,sans-Serif" font-size="10.00">spdk_ioat_fill_hw_desc</text>
</a>
</g>
</g>
<!-- Node5&#45;&gt;Node1 -->
<g id="edge4_Node000001_Node000005" class="edge">
<title>Node5&#45;&gt;Node1</title>
<g id="a_edge4_Node000001_Node000005"><a xlink:title=" ">
<path fill="none" stroke="#9a32cd" stroke-dasharray="5,2" d="M151.17,-220.71C175.38,-217.26 202.31,-212.9 226.75,-207.75 238.72,-205.22 251.64,-201.86 263.2,-198.61"/>
<polygon fill="#9a32cd" stroke="#9a32cd" points="150.82,-217.22 141.39,-222.06 151.78,-224.15 150.82,-217.22"/>
</a>
</g>
<text xml:space="preserve" text-anchor="start" x="192.25" y="-223.62" font-family="Helvetica,sans-Serif" font-size="10.00" fill="grey">fill</text>
</g>
<!-- Node6 -->
<g id="Node000006" class="node">
<title>Node6</title>
<g id="a_Node000006"><a xlink:href="structspdk__ioat__xor__hw__desc.html" target="_top" xlink:title=" ">
<polygon fill="white" stroke="#bfbfbf" points="141.25,-198.12 10.5,-198.12 10.5,-177.38 141.25,-177.38 141.25,-198.12"/>
<text xml:space="preserve" text-anchor="middle" x="75.88" y="-184.62" font-family="Helvetica,sans-Serif" font-size="10.00">spdk_ioat_xor_hw_desc</text>
</a>
</g>
</g>
<!-- Node6&#45;&gt;Node1 -->
<g id="edge5_Node000001_Node000006" class="edge">
<title>Node6&#45;&gt;Node1</title>
<g id="a_edge5_Node000001_Node000006"><a xlink:title=" ">
<path fill="none" stroke="#9a32cd" stroke-dasharray="5,2" d="M153.05,-187.75C183.14,-187.75 217.03,-187.75 244.58,-187.75"/>
<polygon fill="#9a32cd" stroke="#9a32cd" points="153.23,-184.25 143.23,-187.75 153.23,-191.25 153.23,-184.25"/>
</a>
</g>
<text xml:space="preserve" text-anchor="start" x="176.88" y="-194" font-family="Helvetica,sans-Serif" font-size="10.00" fill="grey">xor_desc</text>
</g>
<!-- Node7 -->
<g id="Node000007" class="node">
<title>Node7</title>
<g id="a_Node000007"><a xlink:href="structspdk__ioat__xor__ext__hw__desc.html" target="_top" xlink:title=" ">
<polygon fill="white" stroke="#bfbfbf" points="151.75,-156.12 0,-156.12 0,-135.38 151.75,-135.38 151.75,-156.12"/>
<text xml:space="preserve" text-anchor="middle" x="75.88" y="-142.62" font-family="Helvetica,sans-Serif" font-size="10.00">spdk_ioat_xor_ext_hw_desc</text>
</a>
</g>
</g>
<!-- Node7&#45;&gt;Node1 -->
<g id="edge6_Node000001_Node000007" class="edge">
<title>Node7&#45;&gt;Node1</title>
<g id="a_edge6_Node000001_Node000007"><a xlink:title=" ">
<path fill="none" stroke="#9a32cd" stroke-dasharray="5,2" d="M163.18,-154.18C184.11,-156.95 206.33,-160.51 226.75,-165 240.75,-168.08 255.93,-172.66 268.74,-176.91"/>
<polygon fill="#9a32cd" stroke="#9a32cd" points="163.9,-150.74 153.54,-152.95 163.01,-157.69 163.9,-150.74"/>
</a>
</g>
<text xml:space="preserve" text-anchor="start" x="180.25" y="-171.25" font-family="Helvetica,sans-Serif" font-size="10.00" fill="grey">xor_ext</text>
</g>
<!-- Node8 -->
<g id="Node000008" class="node">
<title>Node8</title>
<g id="a_Node000008"><a xlink:href="structspdk__ioat__pq__hw__desc.html" target="_top" xlink:title=" ">
<polygon fill="white" stroke="#bfbfbf" points="139.75,-114.12 12,-114.12 12,-93.38 139.75,-93.38 139.75,-114.12"/>
<text xml:space="preserve" text-anchor="middle" x="75.88" y="-100.62" font-family="Helvetica,sans-Serif" font-size="10.00">spdk_ioat_pq_hw_desc</text>
</a>
</g>
</g>
<!-- Node8&#45;&gt;Node1 -->
<g id="edge7_Node000001_Node000008" class="edge">
<title>Node8&#45;&gt;Node1</title>
<g id="a_edge7_Node000001_Node000008"><a xlink:title=" ">
<path fill="none" stroke="#9a32cd" stroke-dasharray="5,2" d="M151.24,-111.42C176,-115.74 203.25,-122.49 226.75,-133 251.17,-143.92 275.02,-164.48 288.29,-177.06"/>
<polygon fill="#9a32cd" stroke="#9a32cd" points="151.99,-107.99 141.56,-109.84 150.86,-114.9 151.99,-107.99"/>
</a>
</g>
<text xml:space="preserve" text-anchor="start" x="192.25" y="-139.25" font-family="Helvetica,sans-Serif" font-size="10.00" fill="grey">pq</text>
</g>
<!-- Node9 -->
<g id="Node000009" class="node">
<title>Node9</title>
<g id="a_Node000009"><a xlink:href="structspdk__ioat__pq__ext__hw__desc.html" target="_top" xlink:title=" ">
<polygon fill="white" stroke="#bfbfbf" points="150.25,-72.12 1.5,-72.12 1.5,-51.38 150.25,-51.38 150.25,-72.12"/>
<text xml:space="preserve" text-anchor="middle" x="75.88" y="-58.62" font-family="Helvetica,sans-Serif" font-size="10.00">spdk_ioat_pq_ext_hw_desc</text>
</a>
</g>
</g>
<!-- Node9&#45;&gt;Node1 -->
<g id="edge8_Node000001_Node000009" class="edge">
<title>Node9&#45;&gt;Node1</title>
<g id="a_edge8_Node000001_Node000009"><a xlink:title=" ">
<path fill="none" stroke="#9a32cd" stroke-dasharray="5,2" d="M161.81,-68.67C184.17,-73.29 207.42,-80.81 226.75,-93 260.35,-114.18 284.19,-156.89 294.01,-176.92"/>
<polygon fill="#9a32cd" stroke="#9a32cd" points="162.54,-65.24 152.07,-66.84 161.25,-72.12 162.54,-65.24"/>
</a>
</g>
<text xml:space="preserve" text-anchor="start" x="181.75" y="-99.25" font-family="Helvetica,sans-Serif" font-size="10.00" fill="grey">pq_ext</text>
</g>
<!-- Node10 -->
<g id="Node000010" class="node">
<title>Node10</title>
<g id="a_Node000010"><a xlink:href="structspdk__ioat__pq__update__hw__desc.html" target="_top" xlink:title=" ">
<polygon fill="white" stroke="#bfbfbf" points="135.62,-33.5 16.12,-33.5 16.12,0 135.62,0 135.62,-33.5"/>
<text xml:space="preserve" text-anchor="start" x="24.12" y="-20" font-family="Helvetica,sans-Serif" font-size="10.00">spdk_ioat_pq_update</text>
<text xml:space="preserve" text-anchor="middle" x="75.88" y="-7.25" font-family="Helvetica,sans-Serif" font-size="10.00">_hw_desc</text>
</a>
</g>
</g>
<!-- Node10&#45;&gt;Node1 -->
<g id="edge9_Node000001_Node000010" class="edge">
<title>Node10&#45;&gt;Node1</title>
<g id="a_edge9_Node000001_Node000010"><a xlink:title=" ">
<path fill="none" stroke="#9a32cd" stroke-dasharray="5,2" d="M147.26,-18.73C174.34,-22.55 204.16,-30.84 226.75,-48 271.12,-81.7 290.65,-150.43 296.76,-176.97"/>
<polygon fill="#9a32cd" stroke="#9a32cd" points="147.7,-15.26 137.36,-17.53 146.86,-22.21 147.7,-15.26"/>
</a>
</g>
<text xml:space="preserve" text-anchor="start" x="172.75" y="-54.25" font-family="Helvetica,sans-Serif" font-size="10.00" fill="grey">pq_update</text>
</g>
</g>
</svg>
