<?xml version="1.0" encoding="UTF-8" standalone="no"?>
<!DOCTYPE svg PUBLIC "-//W3C//DTD SVG 1.1//EN"
 "http://www.w3.org/Graphics/SVG/1.1/DTD/svg11.dtd">
<!-- Generated by graphviz version 13.1.2 (20250808.2320)
 -->
<!-- Title: nvmf_c2h_msg Pages: 1 -->
<svg width="432pt" height="193pt"
 viewBox="0.00 0.00 432.00 193.00" xmlns="http://www.w3.org/2000/svg" xmlns:xlink="http://www.w3.org/1999/xlink">
<g id="graph0" class="graph" transform="scale(1 1) rotate(0) translate(4 188.5)">
<title>nvmf_c2h_msg</title>
<!-- Node1 -->
<g id="Node000001" class="node">
<title>Node1</title>
<g id="a_Node000001"><a xlink:title=" ">
<polygon fill="#999999" stroke="#666666" points="220,-20.75 129.75,-20.75 129.75,0 220,0 220,-20.75"/>
<text xml:space="preserve" text-anchor="middle" x="174.88" y="-7.25" font-family="Helvetica,sans-Serif" font-size="10.00">nvmf_c2h_msg</text>
</a>
</g>
</g>
<!-- Node2 -->
<g id="Node000002" class="node">
<title>Node2</title>
<g id="a_Node000002"><a xlink:href="structspdk__nvme__cpl.html" target="_top" xlink:title="Completion queue entry.">
<polygon fill="white" stroke="#666666" points="91.75,-102.62 0,-102.62 0,-81.88 91.75,-81.88 91.75,-102.62"/>
<text xml:space="preserve" text-anchor="middle" x="45.88" y="-89.12" font-family="Helvetica,sans-Serif" font-size="10.00">spdk_nvme_cpl</text>
</a>
</g>
</g>
<!-- Node2&#45;&gt;Node1 -->
<g id="edge1_Node000001_Node000002" class="edge">
<title>Node2&#45;&gt;Node1</title>
<g id="a_edge1_Node000001_Node000002"><a xlink:title=" ">
<path fill="none" stroke="#9a32cd" stroke-dasharray="5,2" d="M66.61,-74.48C80.57,-63.6 99.65,-49.5 117.62,-38.75 128.5,-32.25 141.16,-26.06 151.8,-21.22"/>
<polygon fill="#9a32cd" stroke="#9a32cd" points="64.7,-71.53 59.03,-80.48 69.04,-77.02 64.7,-71.53"/>
</a>
</g>
<text xml:space="preserve" text-anchor="start" x="120.62" y="-45" font-family="Helvetica,sans-Serif" font-size="10.00" fill="grey">nvme_cpl</text>
</g>
<!-- Node3 -->
<g id="Node000003" class="node">
<title>Node3</title>
<g id="a_Node000003"><a xlink:href="structspdk__nvme__status.html" target="_top" xlink:title=" ">
<polygon fill="white" stroke="#bfbfbf" points="228.62,-184.5 121.12,-184.5 121.12,-163.75 228.62,-163.75 228.62,-184.5"/>
<text xml:space="preserve" text-anchor="middle" x="174.88" y="-171" font-family="Helvetica,sans-Serif" font-size="10.00">spdk_nvme_status</text>
</a>
</g>
</g>
<!-- Node3&#45;&gt;Node2 -->
<g id="edge2_Node000002_Node000003" class="edge">
<title>Node3&#45;&gt;Node2</title>
<g id="a_edge2_Node000002_Node000003"><a xlink:title=" ">
<path fill="none" stroke="#9a32cd" stroke-dasharray="5,2" d="M149.48,-157.4C123.45,-141.28 83.75,-116.7 61.82,-103.12"/>
<polygon fill="#9a32cd" stroke="#9a32cd" points="147.43,-160.25 157.77,-162.53 151.11,-154.29 147.43,-160.25"/>
</a>
</g>
<text xml:space="preserve" text-anchor="start" x="132.47" y="-133.25" font-family="Helvetica,sans-Serif" font-size="10.00" fill="grey">status</text>
</g>
<!-- Node4 -->
<g id="Node000004" class="node">
<title>Node4</title>
<g id="a_Node000004"><a xlink:href="structspdk__nvmf__fabric__prop__get__rsp.html" target="_top" xlink:title=" ">
<polygon fill="white" stroke="#bfbfbf" points="239.88,-109 109.88,-109 109.88,-75.5 239.88,-75.5 239.88,-109"/>
<text xml:space="preserve" text-anchor="start" x="117.88" y="-95.5" font-family="Helvetica,sans-Serif" font-size="10.00">spdk_nvmf_fabric_prop</text>
<text xml:space="preserve" text-anchor="middle" x="174.88" y="-82.75" font-family="Helvetica,sans-Serif" font-size="10.00">_get_rsp</text>
</a>
</g>
</g>
<!-- Node3&#45;&gt;Node4 -->
<g id="edge4_Node000004_Node000003" class="edge">
<title>Node3&#45;&gt;Node4</title>
<g id="a_edge4_Node000004_Node000003"><a xlink:title=" ">
<path fill="none" stroke="#9a32cd" stroke-dasharray="5,2" d="M174.88,-151.95C174.88,-138.64 174.88,-121.74 174.88,-109.5"/>
<polygon fill="#9a32cd" stroke="#9a32cd" points="171.38,-151.82 174.88,-161.82 178.38,-151.82 171.38,-151.82"/>
</a>
</g>
<text xml:space="preserve" text-anchor="start" x="177.88" y="-133.25" font-family="Helvetica,sans-Serif" font-size="10.00" fill="grey">status</text>
</g>
<!-- Node5 -->
<g id="Node000005" class="node">
<title>Node5</title>
<g id="a_Node000005"><a xlink:href="structspdk__nvmf__fabric__connect__rsp.html" target="_top" xlink:title=" ">
<polygon fill="white" stroke="#bfbfbf" points="424.25,-102.62 257.5,-102.62 257.5,-81.88 424.25,-81.88 424.25,-102.62"/>
<text xml:space="preserve" text-anchor="middle" x="340.88" y="-89.12" font-family="Helvetica,sans-Serif" font-size="10.00">spdk_nvmf_fabric_connect_rsp</text>
</a>
</g>
</g>
<!-- Node3&#45;&gt;Node5 -->
<g id="edge6_Node000005_Node000003" class="edge">
<title>Node3&#45;&gt;Node5</title>
<g id="a_edge6_Node000005_Node000003"><a xlink:title=" ">
<path fill="none" stroke="#9a32cd" stroke-dasharray="5,2" d="M205.35,-158.46C238.78,-142.37 291.51,-117 320.35,-103.12"/>
<polygon fill="#9a32cd" stroke="#9a32cd" points="204.09,-155.18 196.59,-162.67 207.12,-161.49 204.09,-155.18"/>
</a>
</g>
<text xml:space="preserve" text-anchor="start" x="270.81" y="-133.25" font-family="Helvetica,sans-Serif" font-size="10.00" fill="grey">status</text>
</g>
<!-- Node4&#45;&gt;Node1 -->
<g id="edge3_Node000001_Node000004" class="edge">
<title>Node4&#45;&gt;Node1</title>
<g id="a_edge3_Node000001_Node000004"><a xlink:title=" ">
<path fill="none" stroke="#9a32cd" stroke-dasharray="5,2" d="M174.88,-63.9C174.88,-49.03 174.88,-31.57 174.88,-20.99"/>
<polygon fill="#9a32cd" stroke="#9a32cd" points="171.38,-63.57 174.88,-73.57 178.38,-63.57 171.38,-63.57"/>
</a>
</g>
<text xml:space="preserve" text-anchor="start" x="177.88" y="-45" font-family="Helvetica,sans-Serif" font-size="10.00" fill="grey">prop_get_rsp</text>
</g>
<!-- Node5&#45;&gt;Node1 -->
<g id="edge5_Node000001_Node000005" class="edge">
<title>Node5&#45;&gt;Node1</title>
<g id="a_edge5_Node000001_Node000005"><a xlink:title=" ">
<path fill="none" stroke="#9a32cd" stroke-dasharray="5,2" d="M315.81,-75.7C297.41,-64.62 271.58,-49.81 247.88,-38.75 233.77,-32.17 217.6,-25.98 204.08,-21.15"/>
<polygon fill="#9a32cd" stroke="#9a32cd" points="313.81,-78.58 324.18,-80.78 317.45,-72.6 313.81,-78.58"/>
</a>
</g>
<text xml:space="preserve" text-anchor="start" x="284.84" y="-45" font-family="Helvetica,sans-Serif" font-size="10.00" fill="grey">connect_rsp</text>
</g>
</g>
</svg>
