<?xml version="1.0" encoding="UTF-8" standalone="no"?>
<!DOCTYPE svg PUBLIC "-//W3C//DTD SVG 1.1//EN"
 "http://www.w3.org/Graphics/SVG/1.1/DTD/svg11.dtd">
<!-- Generated by graphviz version 13.1.2 (20250808.2320)
 -->
<!-- Title: nvmf_h2c_msg Pages: 1 -->
<svg width="632pt" height="366pt"
 viewBox="0.00 0.00 632.00 366.00" xmlns="http://www.w3.org/2000/svg" xmlns:xlink="http://www.w3.org/1999/xlink">
<g id="graph0" class="graph" transform="scale(1 1) rotate(0) translate(4 361.65)">
<title>nvmf_h2c_msg</title>
<!-- Node1 -->
<g id="Node000001" class="node">
<title>Node1</title>
<g id="a_Node000001"><a xlink:title=" ">
<polygon fill="#999999" stroke="#666666" points="624,-210.75 533.75,-210.75 533.75,-190 624,-190 624,-210.75"/>
<text xml:space="preserve" text-anchor="middle" x="578.88" y="-197.25" font-family="Helvetica,sans-Serif" font-size="10.00">nvmf_h2c_msg</text>
</a>
</g>
</g>
<!-- Node2 -->
<g id="Node000002" class="node">
<title>Node2</title>
<g id="a_Node000002"><a xlink:href="structspdk__nvmf__capsule__cmd.html" target="_top" xlink:title=" ">
<polygon fill="white" stroke="#bfbfbf" points="398.38,-346.75 259.38,-346.75 259.38,-326 398.38,-326 398.38,-346.75"/>
<text xml:space="preserve" text-anchor="middle" x="328.88" y="-333.25" font-family="Helvetica,sans-Serif" font-size="10.00">spdk_nvmf_capsule_cmd</text>
</a>
</g>
</g>
<!-- Node2&#45;&gt;Node1 -->
<g id="edge1_Node000001_Node000002" class="edge">
<title>Node2&#45;&gt;Node1</title>
<g id="a_edge1_Node000001_Node000002"><a xlink:title=" ">
<path fill="none" stroke="#9a32cd" stroke-dasharray="5,2" d="M409.95,-341.08C445.05,-339.45 485.14,-332.19 515.75,-311.38 551.91,-286.79 569.3,-233.83 575.32,-211.1"/>
<polygon fill="#9a32cd" stroke="#9a32cd" points="410.14,-337.58 400.26,-341.38 410.36,-344.57 410.14,-337.58"/>
</a>
</g>
<text xml:space="preserve" text-anchor="start" x="448.62" y="-345.15" font-family="Helvetica,sans-Serif" font-size="10.00" fill="grey">nvmf_cmd</text>
</g>
<!-- Node3 -->
<g id="Node000003" class="node">
<title>Node3</title>
<g id="a_Node000003"><a xlink:href="structspdk__nvme__cmd.html" target="_top" xlink:title=" ">
<polygon fill="white" stroke="#bfbfbf" points="378.12,-152.75 279.62,-152.75 279.62,-132 378.12,-132 378.12,-152.75"/>
<text xml:space="preserve" text-anchor="middle" x="328.88" y="-139.25" font-family="Helvetica,sans-Serif" font-size="10.00">spdk_nvme_cmd</text>
</a>
</g>
</g>
<!-- Node3&#45;&gt;Node1 -->
<g id="edge2_Node000001_Node000003" class="edge">
<title>Node3&#45;&gt;Node1</title>
<g id="a_edge2_Node000001_Node000003"><a xlink:title=" ">
<path fill="none" stroke="#9a32cd" stroke-dasharray="5,2" d="M389.54,-151.14C426.28,-157.16 474.14,-166.14 515.75,-177.62 527.6,-180.89 540.39,-185.4 551.28,-189.55"/>
<polygon fill="#9a32cd" stroke="#9a32cd" points="390.44,-147.74 380.01,-149.61 389.32,-154.65 390.44,-147.74"/>
</a>
</g>
<text xml:space="preserve" text-anchor="start" x="447.5" y="-183.88" font-family="Helvetica,sans-Serif" font-size="10.00" fill="grey">nvme_cmd</text>
</g>
<!-- Node4 -->
<g id="Node000004" class="node">
<title>Node4</title>
<g id="a_Node000004"><a xlink:href="structspdk__nvme__sgl__descriptor.html" target="_top" xlink:title=" ">
<polygon fill="white" stroke="#bfbfbf" points="145.75,-251.75 0,-251.75 0,-231 145.75,-231 145.75,-251.75"/>
<text xml:space="preserve" text-anchor="middle" x="72.88" y="-238.25" font-family="Helvetica,sans-Serif" font-size="10.00">spdk_nvme_sgl_descriptor</text>
</a>
</g>
</g>
<!-- Node4&#45;&gt;Node3 -->
<g id="edge3_Node000003_Node000004" class="edge">
<title>Node4&#45;&gt;Node3</title>
<g id="a_edge3_Node000003_Node000004"><a xlink:title=" ">
<path fill="none" stroke="#9a32cd" stroke-dasharray="5,2" d="M99.71,-224.69C117.25,-213.9 141.26,-200.13 163.75,-190.62 201.91,-174.49 247.22,-161.61 280.55,-153.23"/>
<polygon fill="#9a32cd" stroke="#9a32cd" points="98.09,-221.58 91.47,-229.85 101.81,-227.51 98.09,-221.58"/>
</a>
</g>
<text xml:space="preserve" text-anchor="start" x="184" y="-196.88" font-family="Helvetica,sans-Serif" font-size="10.00" fill="grey">sgl1</text>
</g>
<!-- Node31 -->
<g id="Node000031" class="node">
<title>Node31</title>
<g id="a_Node000031"><a xlink:href="structspdk__nvmf__fabric__connect__cmd.html" target="_top" xlink:title=" ">
<polygon fill="white" stroke="#bfbfbf" points="415.25,-307.75 242.5,-307.75 242.5,-287 415.25,-287 415.25,-307.75"/>
<text xml:space="preserve" text-anchor="middle" x="328.88" y="-294.25" font-family="Helvetica,sans-Serif" font-size="10.00">spdk_nvmf_fabric_connect_cmd</text>
</a>
</g>
</g>
<!-- Node4&#45;&gt;Node31 -->
<g id="edge11_Node000031_Node000004" class="edge">
<title>Node4&#45;&gt;Node31</title>
<g id="a_edge11_Node000031_Node000004"><a xlink:title=" ">
<path fill="none" stroke="#9a32cd" stroke-dasharray="5,2" d="M114.22,-255.81C129.58,-260.93 147.34,-266.4 163.75,-270.38 190.69,-276.9 220.51,-282.33 247.25,-286.56"/>
<polygon fill="#9a32cd" stroke="#9a32cd" points="115.54,-252.56 104.95,-252.66 113.29,-259.19 115.54,-252.56"/>
</a>
</g>
<text xml:space="preserve" text-anchor="start" x="184" y="-288.58" font-family="Helvetica,sans-Serif" font-size="10.00" fill="grey">sgl1</text>
</g>
<!-- Node32 -->
<g id="Node000032" class="node">
<title>Node32</title>
<g id="a_Node000032"><a xlink:href="structspdk__nvmf__fabric__auth__send__cmd.html" target="_top" xlink:title=" ">
<polygon fill="white" stroke="#bfbfbf" points="393.88,-269.12 263.88,-269.12 263.88,-235.62 393.88,-235.62 393.88,-269.12"/>
<text xml:space="preserve" text-anchor="start" x="271.88" y="-255.62" font-family="Helvetica,sans-Serif" font-size="10.00">spdk_nvmf_fabric_auth</text>
<text xml:space="preserve" text-anchor="middle" x="328.88" y="-242.88" font-family="Helvetica,sans-Serif" font-size="10.00">_send_cmd</text>
</a>
</g>
</g>
<!-- Node4&#45;&gt;Node32 -->
<g id="edge13_Node000032_Node000004" class="edge">
<title>Node4&#45;&gt;Node32</title>
<g id="a_edge13_Node000032_Node000004"><a xlink:title=" ">
<path fill="none" stroke="#9a32cd" stroke-dasharray="5,2" d="M157.46,-244.99C191.92,-246.49 231.22,-248.19 263.39,-249.58"/>
<polygon fill="#9a32cd" stroke="#9a32cd" points="157.64,-241.5 147.49,-244.56 157.33,-248.49 157.64,-241.5"/>
</a>
</g>
<text xml:space="preserve" text-anchor="start" x="184" y="-254.11" font-family="Helvetica,sans-Serif" font-size="10.00" fill="grey">sgl1</text>
</g>
<!-- Node33 -->
<g id="Node000033" class="node">
<title>Node33</title>
<g id="a_Node000033"><a xlink:href="structspdk__nvmf__fabric__auth__recv__cmd.html" target="_top" xlink:title=" ">
<polygon fill="white" stroke="#bfbfbf" points="393.88,-217.12 263.88,-217.12 263.88,-183.62 393.88,-183.62 393.88,-217.12"/>
<text xml:space="preserve" text-anchor="start" x="271.88" y="-203.62" font-family="Helvetica,sans-Serif" font-size="10.00">spdk_nvmf_fabric_auth</text>
<text xml:space="preserve" text-anchor="middle" x="328.88" y="-190.88" font-family="Helvetica,sans-Serif" font-size="10.00">_recv_cmd</text>
</a>
</g>
</g>
<!-- Node4&#45;&gt;Node33 -->
<g id="edge15_Node000033_Node000004" class="edge">
<title>Node4&#45;&gt;Node33</title>
<g id="a_edge15_Node000033_Node000004"><a xlink:title=" ">
<path fill="none" stroke="#9a32cd" stroke-dasharray="5,2" d="M133.83,-228.25C143.8,-226.25 154.05,-224.29 163.75,-222.62 196.48,-217 233.09,-211.92 263.41,-208.04"/>
<polygon fill="#9a32cd" stroke="#9a32cd" points="133.31,-224.79 124.21,-230.22 134.71,-231.64 133.31,-224.79"/>
</a>
</g>
<text xml:space="preserve" text-anchor="start" x="184" y="-228.88" font-family="Helvetica,sans-Serif" font-size="10.00" fill="grey">sgl1</text>
</g>
<!-- Node5 -->
<g id="Node000005" class="node">
<title>Node5</title>
<g id="a_Node000005"><a xlink:href="unionspdk__nvme__cmd__cdw10.html" target="_top" xlink:title=" ">
<polygon fill="white" stroke="#bfbfbf" points="140.5,-146.75 5.25,-146.75 5.25,-126 140.5,-126 140.5,-146.75"/>
<text xml:space="preserve" text-anchor="middle" x="72.88" y="-133.25" font-family="Helvetica,sans-Serif" font-size="10.00">spdk_nvme_cmd_cdw10</text>
</a>
</g>
</g>
<!-- Node5&#45;&gt;Node3 -->
<g id="edge4_Node000003_Node000005" class="edge">
<title>Node5&#45;&gt;Node3</title>
<g id="a_edge4_Node000003_Node000005"><a xlink:title=" ">
<path fill="none" stroke="#9a32cd" stroke-dasharray="5,2" d="M152.21,-136.47C175.48,-136.64 201.02,-136.99 224.5,-137.62 242.37,-138.11 261.96,-138.93 279.24,-139.76"/>
<polygon fill="#9a32cd" stroke="#9a32cd" points="152.53,-132.97 142.51,-136.4 152.48,-139.97 152.53,-132.97"/>
</a>
</g>
<text xml:space="preserve" text-anchor="start" x="166.75" y="-143.88" font-family="Helvetica,sans-Serif" font-size="10.00" fill="grey">cdw10_bits</text>
</g>
<!-- Node6 -->
<g id="Node000006" class="node">
<title>Node6</title>
<g id="a_Node000006"><a xlink:href="unionspdk__nvme__cmd__cdw11.html" target="_top" xlink:title=" ">
<polygon fill="white" stroke="orangered" points="140.5,-104.75 5.25,-104.75 5.25,-84 140.5,-84 140.5,-104.75"/>
<text xml:space="preserve" text-anchor="middle" x="72.88" y="-91.25" font-family="Helvetica,sans-Serif" font-size="10.00">spdk_nvme_cmd_cdw11</text>
</a>
</g>
</g>
<!-- Node6&#45;&gt;Node3 -->
<g id="edge5_Node000003_Node000006" class="edge">
<title>Node6&#45;&gt;Node3</title>
<g id="a_edge5_Node000003_Node000006"><a xlink:title=" ">
<path fill="none" stroke="#9a32cd" stroke-dasharray="5,2" d="M152.07,-98.84C175.74,-101.65 201.53,-106.22 224.5,-113.62 233.16,-116.42 233.98,-120.19 242.5,-123.38 254.16,-127.73 267.11,-131.25 279.33,-134.02"/>
<polygon fill="#9a32cd" stroke="#9a32cd" points="152.47,-95.36 142.15,-97.76 151.71,-102.32 152.47,-95.36"/>
</a>
</g>
<text xml:space="preserve" text-anchor="start" x="166.75" y="-119.88" font-family="Helvetica,sans-Serif" font-size="10.00" fill="grey">cdw11_bits</text>
</g>
<!-- Node25 -->
<g id="Node000025" class="node">
<title>Node25</title>
<g id="a_Node000025"><a xlink:href="unionspdk__nvme__cmd__cdw12.html" target="_top" xlink:title=" ">
<polygon fill="white" stroke="orangered" points="140.5,-62.75 5.25,-62.75 5.25,-42 140.5,-42 140.5,-62.75"/>
<text xml:space="preserve" text-anchor="middle" x="72.88" y="-49.25" font-family="Helvetica,sans-Serif" font-size="10.00">spdk_nvme_cmd_cdw12</text>
</a>
</g>
</g>
<!-- Node25&#45;&gt;Node3 -->
<g id="edge6_Node000003_Node000025" class="edge">
<title>Node25&#45;&gt;Node3</title>
<g id="a_edge6_Node000003_Node000025"><a xlink:title=" ">
<path fill="none" stroke="#9a32cd" stroke-dasharray="5,2" d="M152.07,-51.33C177.47,-54.58 204.28,-62.26 224.5,-78.62 241.16,-92.11 226.15,-109.5 242.5,-123.38 252.8,-132.12 266.26,-137.08 279.44,-139.83"/>
<polygon fill="#9a32cd" stroke="#9a32cd" points="152.74,-47.88 142.43,-50.32 152.01,-54.84 152.74,-47.88"/>
</a>
</g>
<text xml:space="preserve" text-anchor="start" x="166.75" y="-84.88" font-family="Helvetica,sans-Serif" font-size="10.00" fill="grey">cdw12_bits</text>
</g>
<!-- Node28 -->
<g id="Node000028" class="node">
<title>Node28</title>
<g id="a_Node000028"><a xlink:href="unionspdk__nvme__cmd__cdw13.html" target="_top" xlink:title=" ">
<polygon fill="white" stroke="#bfbfbf" points="140.5,-20.75 5.25,-20.75 5.25,0 140.5,0 140.5,-20.75"/>
<text xml:space="preserve" text-anchor="middle" x="72.88" y="-7.25" font-family="Helvetica,sans-Serif" font-size="10.00">spdk_nvme_cmd_cdw13</text>
</a>
</g>
</g>
<!-- Node28&#45;&gt;Node3 -->
<g id="edge7_Node000003_Node000028" class="edge">
<title>Node28&#45;&gt;Node3</title>
<g id="a_edge7_Node000003_Node000028"><a xlink:title=" ">
<path fill="none" stroke="#9a32cd" stroke-dasharray="5,2" d="M152.33,-3.61C178.27,-5.5 205.36,-12.56 224.5,-30.62 255.04,-59.44 213.22,-93.28 242.5,-123.38 252.14,-133.28 265.71,-138.54 279.2,-141.21"/>
<polygon fill="#9a32cd" stroke="#9a32cd" points="152.58,-0.12 142.43,-3.16 152.26,-7.11 152.58,-0.12"/>
</a>
</g>
<text xml:space="preserve" text-anchor="start" x="166.75" y="-36.88" font-family="Helvetica,sans-Serif" font-size="10.00" fill="grey">cdw13_bits</text>
</g>
<!-- Node29 -->
<g id="Node000029" class="node">
<title>Node29</title>
<g id="a_Node000029"><a xlink:href="structspdk__nvmf__fabric__prop__set__cmd.html" target="_top" xlink:title=" ">
<polygon fill="white" stroke="#bfbfbf" points="393.88,-114.12 263.88,-114.12 263.88,-80.62 393.88,-80.62 393.88,-114.12"/>
<text xml:space="preserve" text-anchor="start" x="271.88" y="-100.62" font-family="Helvetica,sans-Serif" font-size="10.00">spdk_nvmf_fabric_prop</text>
<text xml:space="preserve" text-anchor="middle" x="328.88" y="-87.88" font-family="Helvetica,sans-Serif" font-size="10.00">_set_cmd</text>
</a>
</g>
</g>
<!-- Node29&#45;&gt;Node1 -->
<g id="edge8_Node000001_Node000029" class="edge">
<title>Node29&#45;&gt;Node1</title>
<g id="a_edge8_Node000001_Node000029"><a xlink:title=" ">
<path fill="none" stroke="#9a32cd" stroke-dasharray="5,2" d="M405.41,-103.14C440.64,-108.32 482.12,-118.11 515.75,-136.62 539.85,-149.89 560.47,-175.53 570.8,-189.92"/>
<polygon fill="#9a32cd" stroke="#9a32cd" points="406.08,-99.7 395.7,-101.83 405.14,-106.64 406.08,-99.7"/>
</a>
</g>
<text xml:space="preserve" text-anchor="start" x="440.38" y="-142.88" font-family="Helvetica,sans-Serif" font-size="10.00" fill="grey">prop_set_cmd</text>
</g>
<!-- Node30 -->
<g id="Node000030" class="node">
<title>Node30</title>
<g id="a_Node000030"><a xlink:href="structspdk__nvmf__fabric__prop__get__cmd.html" target="_top" xlink:title=" ">
<polygon fill="white" stroke="#bfbfbf" points="393.88,-62.12 263.88,-62.12 263.88,-28.62 393.88,-28.62 393.88,-62.12"/>
<text xml:space="preserve" text-anchor="start" x="271.88" y="-48.62" font-family="Helvetica,sans-Serif" font-size="10.00">spdk_nvmf_fabric_prop</text>
<text xml:space="preserve" text-anchor="middle" x="328.88" y="-35.88" font-family="Helvetica,sans-Serif" font-size="10.00">_get_cmd</text>
</a>
</g>
</g>
<!-- Node30&#45;&gt;Node1 -->
<g id="edge9_Node000001_Node000030" class="edge">
<title>Node30&#45;&gt;Node1</title>
<g id="a_edge9_Node000001_Node000030"><a xlink:title=" ">
<path fill="none" stroke="#9a32cd" stroke-dasharray="5,2" d="M405.43,-47.84C441.81,-52.38 484.26,-62.95 515.75,-86.62 551.36,-113.4 569.05,-166.8 575.24,-189.63"/>
<polygon fill="#9a32cd" stroke="#9a32cd" points="406.18,-44.4 395.85,-46.79 405.41,-51.36 406.18,-44.4"/>
</a>
</g>
<text xml:space="preserve" text-anchor="start" x="440" y="-92.88" font-family="Helvetica,sans-Serif" font-size="10.00" fill="grey">prop_get_cmd</text>
</g>
<!-- Node31&#45;&gt;Node1 -->
<g id="edge10_Node000001_Node000031" class="edge">
<title>Node31&#45;&gt;Node1</title>
<g id="a_edge10_Node000001_Node000031"><a xlink:title=" ">
<path fill="none" stroke="#9a32cd" stroke-dasharray="5,2" d="M426.6,-290.29C456.44,-285.23 488.58,-276.7 515.75,-262.38 539.47,-249.87 559.94,-225.25 570.42,-211.09"/>
<polygon fill="#9a32cd" stroke="#9a32cd" points="426.12,-286.82 416.79,-291.83 427.21,-293.74 426.12,-286.82"/>
</a>
</g>
<text xml:space="preserve" text-anchor="start" x="442.25" y="-294.49" font-family="Helvetica,sans-Serif" font-size="10.00" fill="grey">connect_cmd</text>
</g>
<!-- Node32&#45;&gt;Node1 -->
<g id="edge12_Node000001_Node000032" class="edge">
<title>Node32&#45;&gt;Node1</title>
<g id="a_edge12_Node000001_Node000032"><a xlink:title=" ">
<path fill="none" stroke="#9a32cd" stroke-dasharray="5,2" d="M405.46,-244.07C439.49,-239.44 479.97,-232.69 515.75,-223.38 527.99,-220.19 541.18,-215.49 552.25,-211.17"/>
<polygon fill="#9a32cd" stroke="#9a32cd" points="405.14,-240.58 395.68,-245.36 406.05,-247.52 405.14,-240.58"/>
</a>
</g>
<text xml:space="preserve" text-anchor="start" x="436.25" y="-245.98" font-family="Helvetica,sans-Serif" font-size="10.00" fill="grey">auth_send_cmd</text>
</g>
<!-- Node33&#45;&gt;Node1 -->
<g id="edge14_Node000001_Node000033" class="edge">
<title>Node33&#45;&gt;Node1</title>
<g id="a_edge14_Node000001_Node000033"><a xlink:title=" ">
<path fill="none" stroke="#9a32cd" stroke-dasharray="5,2" d="M405.35,-200.38C447.26,-200.38 497.95,-200.38 533.5,-200.38"/>
<polygon fill="#9a32cd" stroke="#9a32cd" points="405.58,-196.88 395.58,-200.38 405.58,-203.88 405.58,-196.88"/>
</a>
</g>
<text xml:space="preserve" text-anchor="start" x="437.38" y="-206.62" font-family="Helvetica,sans-Serif" font-size="10.00" fill="grey">auth_recv_cmd</text>
</g>
</g>
</svg>
