<?xml version="1.0" encoding="UTF-8" standalone="no"?>
<!DOCTYPE svg PUBLIC "-//W3C//DTD SVG 1.1//EN"
 "http://www.w3.org/Graphics/SVG/1.1/DTD/svg11.dtd">
<!-- Generated by graphviz version 13.1.2 (20250808.2320)
 -->
<!-- Title: spdk_nvme_cmd_cdw11 Pages: 1 -->
<!--zoomable 892 -->

<svg id="main" version="1.1" xmlns="http://www.w3.org/2000/svg" xmlns:xlink="http://www.w3.org/1999/xlink" xml:space="preserve" onload="init(evt)">

<style type="text/css"><![CDATA[
.node, .edge {opacity: 0.7;}
.node.selected, .edge.selected {opacity: 1;}
.edge:hover path { stroke: red; }
.edge:hover polygon { stroke: red; fill: red; }
]]></style>

<defs>
  <circle id="rim" cx="0" cy="0" r="7"/>
  <circle id="rim2" cx="0" cy="0" r="3.5"/>
  <g id="zoomPlus">
    <use xlink:href="#rim" fill="#404040"><set attributeName="fill" to="#808080" begin="zoomplus.mouseover" end="zoomplus.mouseout"/></use>
    <path d="M-4,0h8M0,-4v8" fill="none" stroke="white" stroke-width="1.5" pointer-events="none"/>
  </g>
  <g id="zoomMin">
    <use xlink:href="#rim" fill="#404040"><set attributeName="fill" to="#808080" begin="zoomminus.mouseover" end="zoomminus.mouseout"/></use>
    <path d="M-4,0h8" fill="none" stroke="white" stroke-width="1.5" pointer-events="none"/>
  </g>
  <g id="arrowUp" transform="translate(30 24)">
    <use xlink:href="#rim"/>
    <path pointer-events="none" fill="none" stroke="white" stroke-width="1.5" d="M0,-3.0v7 M-2.5,-0.5L0,-3.0L2.5,-0.5"/>
  </g>
  <g id="arrowRight" transform="rotate(90) translate(36 -43)">
    <use xlink:href="#rim"/>
    <path pointer-events="none" fill="none" stroke="white" stroke-width="1.5" d="M0,-3.0v7 M-2.5,-0.5L0,-3.0L2.5,-0.5"/>
  </g>
  <g id="arrowDown" transform="rotate(180) translate(-30 -48)">
    <use xlink:href="#rim"/>
    <path pointer-events="none" fill="none" stroke="white" stroke-width="1.5" d="M0,-3.0v7 M-2.5,-0.5L0,-3.0L2.5,-0.5"/>
  </g>
  <g id="arrowLeft" transform="rotate(270) translate(-36 17)">
    <use xlink:href="#rim"/>
    <path pointer-events="none" fill="none" stroke="white" stroke-width="1.5" d="M0,-3.0v7 M-2.5,-0.5L0,-3.0L2.5,-0.5"/>
  </g>
  <g id="resetDef">
    <use xlink:href="#rim2" fill="#404040"><set attributeName="fill" to="#808080" begin="reset.mouseover" end="reset.mouseout"/></use>
  </g>
</defs>
<script type="application/ecmascript">
var viewWidth = 678;
var viewHeight = 892;
var sectionId = 'dynsection-0';
</script>
<script type="application/ecmascript" xlink:href="svg.min.js"/>
<svg id="graph" class="graph">
<g id="viewport">
<title>spdk_nvme_cmd_cdw11</title>
<!-- Node1 -->
<g id="Node000001" class="node">
<title>Node1</title>
<g id="a_Node000001"><a xlink:title=" ">
<polygon fill="#999999" stroke="#666666" points="669.75,-444.44 534.5,-444.44 534.5,-423.69 669.75,-423.69 669.75,-444.44"/>
<text xml:space="preserve" text-anchor="middle" x="602.12" y="-430.94" font-family="Helvetica,sans-Serif" font-size="10.00">spdk_nvme_cmd_cdw11</text>
</a>
</g>
</g>
<!-- Node2 -->
<g id="Node000002" class="node">
<title>Node2</title>
<g id="a_Node000002"><a xlink:href="unionspdk__nvme__feat__arbitration.html" target="_top" xlink:title="Data used by Set Features/Get Features SPDK_NVME_FEAT_ARBITRATION.">
<polygon fill="white" stroke="#666666" points="355.62,-860.44 202.38,-860.44 202.38,-839.69 355.62,-839.69 355.62,-860.44"/>
<text xml:space="preserve" text-anchor="middle" x="279" y="-846.94" font-family="Helvetica,sans-Serif" font-size="10.00">spdk_nvme_feat_arbitration</text>
</a>
</g>
</g>
<!-- Node2&#45;&gt;Node1 -->
<g id="edge1_Node000001_Node000002" class="edge">
<title>Node2&#45;&gt;Node1</title>
<g id="a_edge1_Node000001_Node000002"><a xlink:title=" ">
<path fill="none" stroke="#9a32cd" stroke-dasharray="5,2" d="M342.35,-862.43C395.23,-869.07 469.73,-868.74 516.5,-827.07 576.03,-774.02 596.71,-502.57 600.47,-444.86"/>
<polygon fill="#9a32cd" stroke="#9a32cd" points="342.97,-858.99 332.58,-861.08 342.01,-865.92 342.97,-858.99"/>
</a>
</g>
<text xml:space="preserve" text-anchor="start" x="409.62" y="-871.86" font-family="Helvetica,sans-Serif" font-size="10.00" fill="grey">feat_arbitration</text>
</g>
<!-- Node3 -->
<g id="Node000003" class="node">
<title>Node3</title>
<g id="a_Node000003"><a xlink:href="unionspdk__nvme__feat__power__management.html" target="_top" xlink:title="Data used by Set Features/Get Features SPDK_NVME_FEAT_POWER_MANAGEMENT.">
<polygon fill="white" stroke="#666666" points="345.12,-821.82 212.88,-821.82 212.88,-788.32 345.12,-788.32 345.12,-821.82"/>
<text xml:space="preserve" text-anchor="start" x="220.88" y="-808.32" font-family="Helvetica,sans-Serif" font-size="10.00">spdk_nvme_feat_power</text>
<text xml:space="preserve" text-anchor="middle" x="279" y="-795.57" font-family="Helvetica,sans-Serif" font-size="10.00">_management</text>
</a>
</g>
</g>
<!-- Node3&#45;&gt;Node1 -->
<g id="edge2_Node000001_Node000003" class="edge">
<title>Node3&#45;&gt;Node1</title>
<g id="a_edge2_Node000001_Node000003"><a xlink:title=" ">
<path fill="none" stroke="#9a32cd" stroke-dasharray="5,2" d="M356.86,-805.18C416.7,-803.63 493.35,-797.51 516.5,-777.07 568.57,-731.09 594.74,-497.97 600.09,-444.85"/>
<polygon fill="#9a32cd" stroke="#9a32cd" points="356.95,-801.68 347.03,-805.39 357.11,-808.67 356.95,-801.68"/>
</a>
</g>
<text xml:space="preserve" text-anchor="start" x="384.88" y="-810.45" font-family="Helvetica,sans-Serif" font-size="10.00" fill="grey">feat_power_management</text>
</g>
<!-- Node4 -->
<g id="Node000004" class="node">
<title>Node4</title>
<g id="a_Node000004"><a xlink:href="unionspdk__nvme__feat__lba__range__type.html" target="_top" xlink:title="Data used by Set Features/Get Features SPDK_NVME_FEAT_LBA_RANGE_TYPE.">
<polygon fill="white" stroke="#666666" points="337.62,-769.82 220.38,-769.82 220.38,-736.32 337.62,-736.32 337.62,-769.82"/>
<text xml:space="preserve" text-anchor="start" x="228.38" y="-756.32" font-family="Helvetica,sans-Serif" font-size="10.00">spdk_nvme_feat_lba</text>
<text xml:space="preserve" text-anchor="middle" x="279" y="-743.57" font-family="Helvetica,sans-Serif" font-size="10.00">_range_type</text>
</a>
</g>
</g>
<!-- Node4&#45;&gt;Node1 -->
<g id="edge3_Node000001_Node000004" class="edge">
<title>Node4&#45;&gt;Node1</title>
<g id="a_edge3_Node000001_Node000004"><a xlink:title=" ">
<path fill="none" stroke="#9a32cd" stroke-dasharray="5,2" d="M349.35,-755.03C409.9,-755.26 491.84,-751.55 516.5,-731.07 562.8,-692.62 592.97,-493.2 599.7,-444.7"/>
<polygon fill="#9a32cd" stroke="#9a32cd" points="349.47,-751.53 339.44,-754.95 349.41,-758.53 349.47,-751.53"/>
</a>
</g>
<text xml:space="preserve" text-anchor="start" x="397.62" y="-760.96" font-family="Helvetica,sans-Serif" font-size="10.00" fill="grey">feat_lba_range_type</text>
</g>
<!-- Node5 -->
<g id="Node000005" class="node">
<title>Node5</title>
<g id="a_Node000005"><a xlink:href="unionspdk__nvme__feat__temperature__threshold.html" target="_top" xlink:title="Data used by Set Features/Get Features SPDK_NVME_FEAT_TEMPERATURE_THRESHOLD.">
<polygon fill="white" stroke="#666666" points="360.5,-717.82 197.5,-717.82 197.5,-684.32 360.5,-684.32 360.5,-717.82"/>
<text xml:space="preserve" text-anchor="start" x="205.5" y="-704.32" font-family="Helvetica,sans-Serif" font-size="10.00">spdk_nvme_feat_temperature</text>
<text xml:space="preserve" text-anchor="middle" x="279" y="-691.57" font-family="Helvetica,sans-Serif" font-size="10.00">_threshold</text>
</a>
</g>
</g>
<!-- Node5&#45;&gt;Node1 -->
<g id="edge4_Node000001_Node000005" class="edge">
<title>Node5&#45;&gt;Node1</title>
<g id="a_edge4_Node000001_Node000005"><a xlink:title=" ">
<path fill="none" stroke="#9a32cd" stroke-dasharray="5,2" d="M372.07,-711.47C419.9,-711.93 476.53,-704.1 516.5,-672.07 590.76,-612.56 599.93,-482.93 601,-444.81"/>
<polygon fill="#9a32cd" stroke="#9a32cd" points="372.34,-707.98 362.26,-711.25 372.18,-714.98 372.34,-707.98"/>
</a>
</g>
<text xml:space="preserve" text-anchor="start" x="396.88" y="-717.73" font-family="Helvetica,sans-Serif" font-size="10.00" fill="grey">feat_temp_threshold</text>
</g>
<!-- Node6 -->
<g id="Node000006" class="node">
<title>Node6</title>
<g id="a_Node000006"><a xlink:href="unionspdk__nvme__feat__error__recovery.html" target="_top" xlink:title="Data used by Set Features/Get Features SPDK_NVME_FEAT_ERROR_RECOVERY.">
<polygon fill="white" stroke="#666666" points="341.75,-665.82 216.25,-665.82 216.25,-632.32 341.75,-632.32 341.75,-665.82"/>
<text xml:space="preserve" text-anchor="start" x="224.25" y="-652.32" font-family="Helvetica,sans-Serif" font-size="10.00">spdk_nvme_feat_error</text>
<text xml:space="preserve" text-anchor="middle" x="279" y="-639.57" font-family="Helvetica,sans-Serif" font-size="10.00">_recovery</text>
</a>
</g>
</g>
<!-- Node6&#45;&gt;Node1 -->
<g id="edge5_Node000001_Node000006" class="edge">
<title>Node6&#45;&gt;Node1</title>
<g id="a_edge5_Node000001_Node000006"><a xlink:title=" ">
<path fill="none" stroke="#9a32cd" stroke-dasharray="5,2" d="M353.4,-650.2C413.01,-649.69 491.17,-645.35 516.5,-627.07 579.69,-581.46 596.31,-478.14 600.11,-444.71"/>
<polygon fill="#9a32cd" stroke="#9a32cd" points="353.63,-646.7 343.65,-650.25 353.66,-653.7 353.63,-646.7"/>
</a>
</g>
<text xml:space="preserve" text-anchor="start" x="399.5" y="-655.9" font-family="Helvetica,sans-Serif" font-size="10.00" fill="grey">feat_error_recovery</text>
</g>
<!-- Node7 -->
<g id="Node000007" class="node">
<title>Node7</title>
<g id="a_Node000007"><a xlink:href="unionspdk__nvme__feat__volatile__write__cache.html" target="_top" xlink:title="Data used by Set Features/Get Features SPDK_NVME_FEAT_VOLATILE_WRITE_CACHE.">
<polygon fill="white" stroke="#666666" points="348.5,-613.82 209.5,-613.82 209.5,-580.32 348.5,-580.32 348.5,-613.82"/>
<text xml:space="preserve" text-anchor="start" x="217.5" y="-600.32" font-family="Helvetica,sans-Serif" font-size="10.00">spdk_nvme_feat_volatile</text>
<text xml:space="preserve" text-anchor="middle" x="279" y="-587.57" font-family="Helvetica,sans-Serif" font-size="10.00">_write_cache</text>
</a>
</g>
</g>
<!-- Node7&#45;&gt;Node1 -->
<g id="edge6_Node000001_Node000007" class="edge">
<title>Node7&#45;&gt;Node1</title>
<g id="a_edge6_Node000001_Node000007"><a xlink:title=" ">
<path fill="none" stroke="#9a32cd" stroke-dasharray="5,2" d="M360.14,-590.64C423.46,-585 503.31,-576.42 516.5,-568.07 563.91,-538.02 589.5,-470.77 597.94,-444.69"/>
<polygon fill="#9a32cd" stroke="#9a32cd" points="360.1,-587.13 350.44,-591.49 360.71,-594.11 360.1,-587.13"/>
</a>
</g>
<text xml:space="preserve" text-anchor="start" x="401.75" y="-611.53" font-family="Helvetica,sans-Serif" font-size="10.00" fill="grey">feat_volatile_write</text>
<text xml:space="preserve" text-anchor="start" x="401.75" y="-594.78" font-family="Helvetica,sans-Serif" font-size="10.00" fill="grey">  _cache</text>
</g>
<!-- Node8 -->
<g id="Node000008" class="node">
<title>Node8</title>
<g id="a_Node000008"><a xlink:href="unionspdk__nvme__feat__number__of__queues.html" target="_top" xlink:title="Data used by Set Features/Get Features SPDK_NVME_FEAT_NUMBER_OF_QUEUES.">
<polygon fill="white" stroke="#666666" points="348.88,-561.82 209.12,-561.82 209.12,-528.32 348.88,-528.32 348.88,-561.82"/>
<text xml:space="preserve" text-anchor="start" x="217.12" y="-548.32" font-family="Helvetica,sans-Serif" font-size="10.00">spdk_nvme_feat_number</text>
<text xml:space="preserve" text-anchor="middle" x="279" y="-535.57" font-family="Helvetica,sans-Serif" font-size="10.00">_of_queues</text>
</a>
</g>
</g>
<!-- Node8&#45;&gt;Node1 -->
<g id="edge7_Node000001_Node000008" class="edge">
<title>Node8&#45;&gt;Node1</title>
<g id="a_edge7_Node000001_Node000008"><a xlink:title=" ">
<path fill="none" stroke="#9a32cd" stroke-dasharray="5,2" d="M360.58,-546.19C408.01,-543.98 467.99,-536.07 516.5,-513.07 550.46,-496.96 579.96,-462.23 593.4,-444.68"/>
<polygon fill="#9a32cd" stroke="#9a32cd" points="360.5,-542.69 350.64,-546.57 360.76,-549.69 360.5,-542.69"/>
</a>
</g>
<text xml:space="preserve" text-anchor="start" x="396.5" y="-551.26" font-family="Helvetica,sans-Serif" font-size="10.00" fill="grey">feat_num_of_queues</text>
</g>
<!-- Node9 -->
<g id="Node000009" class="node">
<title>Node9</title>
<g id="a_Node000009"><a xlink:href="unionspdk__nvme__feat__interrupt__coalescing.html" target="_top" xlink:title="Data used by Set Features/Get Features SPDK_NVME_FEAT_INTERRUPT_COALESCING.">
<polygon fill="white" stroke="#666666" points="351.12,-509.82 206.88,-509.82 206.88,-476.32 351.12,-476.32 351.12,-509.82"/>
<text xml:space="preserve" text-anchor="start" x="214.88" y="-496.32" font-family="Helvetica,sans-Serif" font-size="10.00">spdk_nvme_feat_interrupt</text>
<text xml:space="preserve" text-anchor="middle" x="279" y="-483.57" font-family="Helvetica,sans-Serif" font-size="10.00">_coalescing</text>
</a>
</g>
</g>
<!-- Node9&#45;&gt;Node1 -->
<g id="edge8_Node000001_Node000009" class="edge">
<title>Node9&#45;&gt;Node1</title>
<g id="a_edge8_Node000001_Node000009"><a xlink:title=" ">
<path fill="none" stroke="#9a32cd" stroke-dasharray="5,2" d="M362.79,-491.82C408.69,-489.52 466.44,-483.98 516.5,-471.07 539.63,-465.1 564.51,-453.54 581.26,-444.93"/>
<polygon fill="#9a32cd" stroke="#9a32cd" points="362.73,-488.31 352.89,-492.26 363.04,-495.31 362.73,-488.31"/>
</a>
</g>
<text xml:space="preserve" text-anchor="start" x="385.62" y="-496.88" font-family="Helvetica,sans-Serif" font-size="10.00" fill="grey">feat_interrupt_coalescing</text>
</g>
<!-- Node10 -->
<g id="Node000010" class="node">
<title>Node10</title>
<g id="a_Node000010"><a xlink:href="unionspdk__nvme__feat__interrupt__vector__configuration.html" target="_top" xlink:title="Data used by Set Features/Get Features SPDK_NVME_FEAT_INTERRUPT_VECTOR_CONFIGURATION.">
<polygon fill="white" stroke="#666666" points="351.12,-457.82 206.88,-457.82 206.88,-424.32 351.12,-424.32 351.12,-457.82"/>
<text xml:space="preserve" text-anchor="start" x="214.88" y="-444.32" font-family="Helvetica,sans-Serif" font-size="10.00">spdk_nvme_feat_interrupt</text>
<text xml:space="preserve" text-anchor="middle" x="279" y="-431.57" font-family="Helvetica,sans-Serif" font-size="10.00">_vector_configuration</text>
</a>
</g>
</g>
<!-- Node10&#45;&gt;Node1 -->
<g id="edge9_Node000001_Node000010" class="edge">
<title>Node10&#45;&gt;Node1</title>
<g id="a_edge9_Node000001_Node000010"><a xlink:title=" ">
<path fill="none" stroke="#9a32cd" stroke-dasharray="5,2" d="M363.03,-436.14C368.26,-435.92 373.45,-435.72 378.5,-435.57 430.85,-433.93 490.15,-433.61 534.38,-433.66"/>
<polygon fill="#9a32cd" stroke="#9a32cd" points="362.88,-432.64 353.05,-436.59 363.19,-439.64 362.88,-432.64"/>
</a>
</g>
<text xml:space="preserve" text-anchor="start" x="396.12" y="-458.57" font-family="Helvetica,sans-Serif" font-size="10.00" fill="grey">feat_interrupt_vector</text>
<text xml:space="preserve" text-anchor="start" x="396.12" y="-441.82" font-family="Helvetica,sans-Serif" font-size="10.00" fill="grey">  _configuration</text>
</g>
<!-- Node11 -->
<g id="Node000011" class="node">
<title>Node11</title>
<g id="a_Node000011"><a xlink:href="unionspdk__nvme__feat__write__atomicity.html" target="_top" xlink:title="Data used by Set Features/Get Features SPDK_NVME_FEAT_WRITE_ATOMICITY.">
<polygon fill="white" stroke="#666666" points="342.5,-405.82 215.5,-405.82 215.5,-372.32 342.5,-372.32 342.5,-405.82"/>
<text xml:space="preserve" text-anchor="start" x="223.5" y="-392.32" font-family="Helvetica,sans-Serif" font-size="10.00">spdk_nvme_feat_write</text>
<text xml:space="preserve" text-anchor="middle" x="279" y="-379.57" font-family="Helvetica,sans-Serif" font-size="10.00">_atomicity</text>
</a>
</g>
</g>
<!-- Node11&#45;&gt;Node1 -->
<g id="edge10_Node000001_Node000011" class="edge">
<title>Node11&#45;&gt;Node1</title>
<g id="a_edge10_Node000001_Node000011"><a xlink:title=" ">
<path fill="none" stroke="#9a32cd" stroke-dasharray="5,2" d="M354.15,-392.82C400.98,-395.98 462.6,-401.61 516.5,-411.32 532.97,-414.28 550.91,-418.9 566.02,-423.2"/>
<polygon fill="#9a32cd" stroke="#9a32cd" points="354.6,-389.34 344.39,-392.19 354.14,-396.33 354.6,-389.34"/>
</a>
</g>
<text xml:space="preserve" text-anchor="start" x="396.88" y="-417.57" font-family="Helvetica,sans-Serif" font-size="10.00" fill="grey">feat_write_atomicity</text>
</g>
<!-- Node12 -->
<g id="Node000012" class="node">
<title>Node12</title>
<g id="a_Node000012"><a xlink:href="unionspdk__nvme__feat__async__event__configuration.html" target="_top" xlink:title="Data used by Set Features / Get Features SPDK_NVME_FEAT_ASYNC_EVENT_CONFIGURATION.">
<polygon fill="white" stroke="#666666" points="344.38,-353.82 213.62,-353.82 213.62,-320.32 344.38,-320.32 344.38,-353.82"/>
<text xml:space="preserve" text-anchor="start" x="221.62" y="-340.32" font-family="Helvetica,sans-Serif" font-size="10.00">spdk_nvme_feat_async</text>
<text xml:space="preserve" text-anchor="middle" x="279" y="-327.57" font-family="Helvetica,sans-Serif" font-size="10.00">_event_configuration</text>
</a>
</g>
</g>
<!-- Node12&#45;&gt;Node1 -->
<g id="edge11_Node000001_Node000012" class="edge">
<title>Node12&#45;&gt;Node1</title>
<g id="a_edge11_Node000001_Node000012"><a xlink:title=" ">
<path fill="none" stroke="#9a32cd" stroke-dasharray="5,2" d="M356.16,-339.17C403.76,-342.7 465.49,-351.4 516.5,-372.32 546.12,-384.46 575.01,-409.09 590.17,-423.3"/>
<polygon fill="#9a32cd" stroke="#9a32cd" points="356.41,-335.68 346.2,-338.5 355.94,-342.66 356.41,-335.68"/>
</a>
</g>
<text xml:space="preserve" text-anchor="start" x="394.25" y="-378.57" font-family="Helvetica,sans-Serif" font-size="10.00" fill="grey">feat_async_event_cfg</text>
</g>
<!-- Node13 -->
<g id="Node000013" class="node">
<title>Node13</title>
<g id="a_Node000013"><a xlink:href="unionspdk__nvme__critical__warning__state.html" target="_top" xlink:title=" ">
<polygon fill="white" stroke="#bfbfbf" points="110.5,-353.82 0,-353.82 0,-320.32 110.5,-320.32 110.5,-353.82"/>
<text xml:space="preserve" text-anchor="start" x="8" y="-340.32" font-family="Helvetica,sans-Serif" font-size="10.00">spdk_nvme_critical</text>
<text xml:space="preserve" text-anchor="middle" x="55.25" y="-327.57" font-family="Helvetica,sans-Serif" font-size="10.00">_warning_state</text>
</a>
</g>
</g>
<!-- Node13&#45;&gt;Node12 -->
<g id="edge12_Node000012_Node000013" class="edge">
<title>Node13&#45;&gt;Node12</title>
<g id="a_edge12_Node000012_Node000013"><a xlink:title=" ">
<path fill="none" stroke="#9a32cd" stroke-dasharray="5,2" d="M122,-337.07C150.88,-337.07 184.68,-337.07 213.43,-337.07"/>
<polygon fill="#9a32cd" stroke="#9a32cd" points="122.29,-333.57 112.29,-337.07 122.29,-340.57 122.29,-333.57"/>
</a>
</g>
<text xml:space="preserve" text-anchor="start" x="131.5" y="-343.32" font-family="Helvetica,sans-Serif" font-size="10.00" fill="grey">crit_warn</text>
</g>
<!-- Node14 -->
<g id="Node000014" class="node">
<title>Node14</title>
<g id="a_Node000014"><a xlink:href="unionspdk__nvme__feat__keep__alive__timer.html" target="_top" xlink:title="Data used by Set Features/Get Features SPDK_NVME_FEAT_KEEP_ALIVE_TIMER.">
<polygon fill="white" stroke="#666666" points="341.75,-301.82 216.25,-301.82 216.25,-268.32 341.75,-268.32 341.75,-301.82"/>
<text xml:space="preserve" text-anchor="start" x="224.25" y="-288.32" font-family="Helvetica,sans-Serif" font-size="10.00">spdk_nvme_feat_keep</text>
<text xml:space="preserve" text-anchor="middle" x="279" y="-275.57" font-family="Helvetica,sans-Serif" font-size="10.00">_alive_timer</text>
</a>
</g>
</g>
<!-- Node14&#45;&gt;Node1 -->
<g id="edge13_Node000001_Node000014" class="edge">
<title>Node14&#45;&gt;Node1</title>
<g id="a_edge13_Node000001_Node000014"><a xlink:title=" ">
<path fill="none" stroke="#9a32cd" stroke-dasharray="5,2" d="M353.38,-281.01C402.74,-281.58 467.49,-288.97 516.5,-318.32 559,-343.77 586.56,-399.59 596.73,-423.19"/>
<polygon fill="#9a32cd" stroke="#9a32cd" points="353.66,-277.51 343.65,-281 353.65,-284.51 353.66,-277.51"/>
</a>
</g>
<text xml:space="preserve" text-anchor="start" x="393.12" y="-324.57" font-family="Helvetica,sans-Serif" font-size="10.00" fill="grey">feat_keep_alive_timer</text>
</g>
<!-- Node15 -->
<g id="Node000015" class="node">
<title>Node15</title>
<g id="a_Node000015"><a xlink:href="unionspdk__nvme__feat__host__identifier.html" target="_top" xlink:title="Data used by Set Features/Get Features SPDK_NVME_FEAT_HOST_IDENTIFIER.">
<polygon fill="white" stroke="#666666" points="340.62,-249.82 217.38,-249.82 217.38,-216.32 340.62,-216.32 340.62,-249.82"/>
<text xml:space="preserve" text-anchor="start" x="225.38" y="-236.32" font-family="Helvetica,sans-Serif" font-size="10.00">spdk_nvme_feat_host</text>
<text xml:space="preserve" text-anchor="middle" x="279" y="-223.57" font-family="Helvetica,sans-Serif" font-size="10.00">_identifier</text>
</a>
</g>
</g>
<!-- Node15&#45;&gt;Node1 -->
<g id="edge14_Node000001_Node000015" class="edge">
<title>Node15&#45;&gt;Node1</title>
<g id="a_edge14_Node000001_Node000015"><a xlink:title=" ">
<path fill="none" stroke="#9a32cd" stroke-dasharray="5,2" d="M352.48,-223.8C402.88,-221.21 469.24,-225.92 516.5,-259.32 574.59,-300.36 594.41,-392.46 599.58,-423.57"/>
<polygon fill="#9a32cd" stroke="#9a32cd" points="352.28,-220.3 342.52,-224.43 352.72,-227.29 352.28,-220.3"/>
</a>
</g>
<text xml:space="preserve" text-anchor="start" x="400.25" y="-265.57" font-family="Helvetica,sans-Serif" font-size="10.00" fill="grey">feat_host_identifier</text>
</g>
<!-- Node16 -->
<g id="Node000016" class="node">
<title>Node16</title>
<g id="a_Node000016"><a xlink:href="unionspdk__nvme__feat__reservation__notification__mask.html" target="_top" xlink:title="Data used by Set Features/Get Features SPDK_NVME_FEAT_HOST_RESERVE_MASK.">
<polygon fill="white" stroke="#666666" points="357.88,-197.82 200.12,-197.82 200.12,-164.32 357.88,-164.32 357.88,-197.82"/>
<text xml:space="preserve" text-anchor="start" x="208.12" y="-184.32" font-family="Helvetica,sans-Serif" font-size="10.00">spdk_nvme_feat_reservation</text>
<text xml:space="preserve" text-anchor="middle" x="279" y="-171.57" font-family="Helvetica,sans-Serif" font-size="10.00">_notification_mask</text>
</a>
</g>
</g>
<!-- Node16&#45;&gt;Node1 -->
<g id="edge15_Node000001_Node000016" class="edge">
<title>Node16&#45;&gt;Node1</title>
<g id="a_edge15_Node000001_Node000016"><a xlink:title=" ">
<path fill="none" stroke="#9a32cd" stroke-dasharray="5,2" d="M369.48,-166.52C417.61,-163.68 475.36,-168.89 516.5,-200.32 590.93,-257.17 599.98,-385.59 601.01,-423.4"/>
<polygon fill="#9a32cd" stroke="#9a32cd" points="369.34,-163.02 359.62,-167.24 369.85,-170 369.34,-163.02"/>
</a>
</g>
<text xml:space="preserve" text-anchor="start" x="381.5" y="-206.57" font-family="Helvetica,sans-Serif" font-size="10.00" fill="grey">feat_rsv_notification_mask</text>
</g>
<!-- Node17 -->
<g id="Node000017" class="node">
<title>Node17</title>
<g id="a_Node000017"><a xlink:href="unionspdk__nvme__feat__reservation__persistence.html" target="_top" xlink:title="Data used by Set Features/Get Features SPDK_NVME_FEAT_HOST_RESERVE_PERSIST.">
<polygon fill="white" stroke="#666666" points="357.88,-145.82 200.12,-145.82 200.12,-112.32 357.88,-112.32 357.88,-145.82"/>
<text xml:space="preserve" text-anchor="start" x="208.12" y="-132.32" font-family="Helvetica,sans-Serif" font-size="10.00">spdk_nvme_feat_reservation</text>
<text xml:space="preserve" text-anchor="middle" x="279" y="-119.57" font-family="Helvetica,sans-Serif" font-size="10.00">_persistence</text>
</a>
</g>
</g>
<!-- Node17&#45;&gt;Node1 -->
<g id="edge16_Node000001_Node000017" class="edge">
<title>Node17&#45;&gt;Node1</title>
<g id="a_edge16_Node000001_Node000017"><a xlink:title=" ">
<path fill="none" stroke="#9a32cd" stroke-dasharray="5,2" d="M369.8,-111.33C418.16,-107.02 476.03,-111 516.5,-143.32 562.51,-180.06 592.79,-375.11 599.65,-423.3"/>
<polygon fill="#9a32cd" stroke="#9a32cd" points="369.46,-107.85 359.87,-112.36 370.18,-114.81 369.46,-107.85"/>
</a>
</g>
<text xml:space="preserve" text-anchor="start" x="396.88" y="-149.57" font-family="Helvetica,sans-Serif" font-size="10.00" fill="grey">feat_rsv_persistence</text>
</g>
<!-- Node18 -->
<g id="Node000018" class="node">
<title>Node18</title>
<g id="a_Node000018"><a xlink:href="unionspdk__nvme__feat__fdp__cdw11.html" target="_top" xlink:title="Data used by Set Features/Get Features SPDK_NVME_FEAT_FDP.">
<polygon fill="white" stroke="#666666" points="338,-93.82 220,-93.82 220,-60.32 338,-60.32 338,-93.82"/>
<text xml:space="preserve" text-anchor="start" x="228" y="-80.32" font-family="Helvetica,sans-Serif" font-size="10.00">spdk_nvme_feat_fdp</text>
<text xml:space="preserve" text-anchor="middle" x="279" y="-67.57" font-family="Helvetica,sans-Serif" font-size="10.00">_cdw11</text>
</a>
</g>
</g>
<!-- Node18&#45;&gt;Node1 -->
<g id="edge17_Node000001_Node000018" class="edge">
<title>Node18&#45;&gt;Node1</title>
<g id="a_edge17_Node000001_Node000018"><a xlink:title=" ">
<path fill="none" stroke="#9a32cd" stroke-dasharray="5,2" d="M349.49,-59.74C401.26,-51.23 470.63,-49.66 516.5,-87.32 570.86,-131.94 595.35,-370.07 600.21,-423.44"/>
<polygon fill="#9a32cd" stroke="#9a32cd" points="349.12,-56.26 339.89,-61.45 350.35,-63.15 349.12,-56.26"/>
</a>
</g>
<text xml:space="preserve" text-anchor="start" x="408.88" y="-93.57" font-family="Helvetica,sans-Serif" font-size="10.00" fill="grey">feat_fdp_cdw11</text>
</g>
<!-- Node19 -->
<g id="Node000019" class="node">
<title>Node19</title>
<g id="a_Node000019"><a xlink:href="unionspdk__nvme__feat__fdp__events__cdw11.html" target="_top" xlink:title="Data used by Set Features/Get Features SPDK_NVME_FEAT_FDP_EVENTS.">
<polygon fill="white" stroke="#666666" points="338,-41.82 220,-41.82 220,-8.32 338,-8.32 338,-41.82"/>
<text xml:space="preserve" text-anchor="start" x="228" y="-28.32" font-family="Helvetica,sans-Serif" font-size="10.00">spdk_nvme_feat_fdp</text>
<text xml:space="preserve" text-anchor="middle" x="279" y="-15.57" font-family="Helvetica,sans-Serif" font-size="10.00">_events_cdw11</text>
</a>
</g>
</g>
<!-- Node19&#45;&gt;Node1 -->
<g id="edge18_Node000001_Node000019" class="edge">
<title>Node19&#45;&gt;Node1</title>
<g id="a_edge18_Node000001_Node000019"><a xlink:title=" ">
<path fill="none" stroke="#9a32cd" stroke-dasharray="5,2" d="M349.46,-6.34C401.37,3.18 470.94,5.82 516.5,-32.32 579.08,-84.7 597.42,-364.84 600.59,-423.35"/>
<polygon fill="#9a32cd" stroke="#9a32cd" points="348.96,-2.87 339.82,-8.24 350.31,-9.74 348.96,-2.87"/>
</a>
</g>
<text xml:space="preserve" text-anchor="start" x="389.75" y="-38.57" font-family="Helvetica,sans-Serif" font-size="10.00" fill="grey">feat_fdp_events_cdw11</text>
</g>
</g>
</svg>

<g id="navigator" transform="translate(0 0)" fill="#404254">
  <rect fill="#f2f5e9" fill-opacity="0.5" stroke="#606060" stroke-width=".5" x="0" y="0" width="60" height="60"/>
  <use id="zoomplus" xlink:href="#zoomPlus" x="17" y="9" onmousedown="handleZoom(evt,'in')"/>
  <use id="zoomminus" xlink:href="#zoomMin" x="42" y="9" onmousedown="handleZoom(evt,'out')"/>
  <use id="reset" xlink:href="#resetDef" x="30" y="36" onmousedown="handleReset()"/>
   <use id="arrowup" xlink:href="#arrowUp" x="0" y="0" onmousedown="handlePan(0,-1)"/>
  <use id="arrowright" xlink:href="#arrowRight" x="0" y="0" onmousedown="handlePan(1,0)"/>
  <use id="arrowdown" xlink:href="#arrowDown" x="0" y="0" onmousedown="handlePan(0,1)"/>
  <use id="arrowleft" xlink:href="#arrowLeft" x="0" y="0" onmousedown="handlePan(-1,0)"/>
</g>
<svg viewBox="0 0 15 15" width="100%" height="30px" preserveAspectRatio="xMaxYMin meet">
 <g id="arrow_out" transform="scale(0.3 0.3)">
  <a xlink:href="unionspdk__nvme__cmd__cdw11__coll__graph_org.svg" target="_base">
   <rect id="button" ry="5" rx="5" y="6" x="6" height="38" width="38"
        fill="#f2f5e9" fill-opacity="0.5" stroke="#606060" stroke-width="1.0"/>
   <path id="arrow"
     d="M 11.500037,31.436501 C 11.940474,20.09759 22.043105,11.32322 32.158766,21.979434 L 37.068811,17.246167 C 37.068811,17.246167 37.088388,32 37.088388,32 L 22.160133,31.978069 C 22.160133,31.978069 26.997745,27.140456 26.997745,27.140456 C 18.528582,18.264221 13.291696,25.230495 11.500037,31.436501 z"
     style="fill:#404040;"/>
  </a>
 </g>
</svg>

<style type='text/css'>
<![CDATA[
[data-mouse-over-selected='false'] { opacity: 0.7; }
[data-mouse-over-selected='true']  { opacity: 1.0; }
]]>
</style>
<script type="application/ecmascript"><![CDATA[
document.addEventListener('DOMContentLoaded', (event) => {
  highlightEdges();
  highlightAdjacentNodes();
});
]]></script>
</svg>
