<?xml version="1.0" encoding="utf-8"?>
<!-- Generator: Adobe Illustrator 25.3.1, SVG Export Plug-In . SVG Version: 6.00 Build 0)  -->
<svg version="1.1" id="Layer_1" xmlns="http://www.w3.org/2000/svg" xmlns:xlink="http://www.w3.org/1999/xlink" x="0px" y="0px"
	 viewBox="0 0 692.8 883.5" style="enable-background:new 0 0 692.8 883.5;" xml:space="preserve">
<style type="text/css">
	.st0{fill:#FFFFFF;}
	.st1{fill:#5479BC;}
	.st2{fill:#6F93CC;}
	.st3{fill:none;}
	.st4{fill:#2B497D;}
	.st5{fill:#89C762;}
	.st6{fill:#8AC762;}
	.st7{fill:#57863C;}
	.st8{fill:#010101;}
	.st9{fill:#567BBE;}
	.st10{fill:#78B350;}
	.st11{fill:#6589C6;}
	.st12{fill:#355998;}
	.st13{fill:#375B9C;}
	.st14{fill:#486D33;}
	.st15{fill:#78B350;stroke:#FFFFFF;stroke-width:2.4449;stroke-linecap:round;stroke-miterlimit:10;}
	.st16{fill:#7CB953;}
	.st17{fill:#7AAE55;}
	.st18{fill:#8BC681;}
	.st19{fill:#4A72B8;}
	.st20{fill:#7DBB6F;}
	.st21{fill:#75AF67;}
	.st22{fill:#85C25B;}
	.st23{fill:#7AAE55;stroke:#FFFFFF;stroke-width:2.4449;stroke-linecap:round;stroke-miterlimit:10;}
</style>
<g>
	<g>
		<g>
			<polygon class="st0" points="248.2,90.8 201.4,6.6 200.9,14 242.1,89.1 			"/>
		</g>
		<g>
			<polygon class="st0" points="450.1,73.8 227.4,66.5 240.9,85.3 438.9,93.6 			"/>
		</g>
		<g>
			<polygon class="st0" points="230.7,56.9 99,282.9 129.5,281.7 248.8,82 			"/>
		</g>
		<g>
			<polygon class="st0" points="591.9,288.2 94.1,286 126.5,271.3 569.2,271.9 			"/>
		</g>
		<g>
			<polygon class="st0" points="591.3,273.8 452.7,513 448.8,490.2 570.9,276.7 			"/>
		</g>
		<g>
			<polygon class="st1" points="203,13.9 556.3,25.2 517.7,80.1 234.6,67 			"/>
		</g>
		<g>
			<polygon class="st2" points="213.9,380.2 115.2,527 186,528.3 472.4,533.5 414.3,433.4 296.5,429.2 328.8,380.2 281.2,380.2 			
				"/>
		</g>
		<g>
			<line class="st3" x1="186" y1="528.3" x2="281.2" y2="380.2"/>
			<path class="st0" d="M186,529.6c-0.3,0-0.5-0.1-0.7-0.2c-0.6-0.4-0.8-1.2-0.4-1.9l95.2-148.1c0.4-0.6,1.3-0.8,1.9-0.4
				s0.8,1.3,0.4,1.9L187.2,529C186.9,529.4,186.5,529.6,186,529.6z"/>
		</g>
		<g>
			<polygon class="st4" points="115.2,527 149.7,593.1 509.5,598 472.4,533.5 			"/>
			<path class="st0" d="M511.9,599.4l-363-4.9l-0.4-0.7l-35.6-68.2h2.3l358,6.5l0.4,0.7L511.9,599.4z M150.6,591.8l356.6,4.8
				l-35.5-61.8l-354.1-6.4L150.6,591.8z"/>
		</g>
		<g>
			<polygon class="st5" points="201.4,15.1 16.6,314.8 359.5,320.5 340.9,288.2 259.4,287.1 98.9,285 233,67.8 			"/>
		</g>
		<g>
			<polygon class="st6" points="239.8,86.6 259.4,119.6 198.1,221.9 263.5,224.1 307,224.6 336.9,275.3 129.6,270.5 			"/>
			<path class="st0" d="M339.3,276.7l-212.1-5l1.2-2L239.8,84l21.2,35.6l-60.5,101l63.1,2.1l44.2,0.6L339.3,276.7z M131.9,269.2
				l202.5,4.7L306.2,226l-42.7-0.5l-66.6-3.8l61.2-102.2l-18.3-30.1L131.9,269.2z"/>
		</g>
		<g>
			<polygon class="st7" points="293.8,180.4 265.2,224.1 198.6,222.1 259.4,119.6 			"/>
			<path class="st0" d="M265.9,225.5l-68.8-3.2l62.4-105.4l35.9,63.6L265.9,225.5z M200.5,220.6l64,0.1l27.8-40.3l-32.8-58
				L200.5,220.6z"/>
		</g>
		<g>
			<polygon class="st8" points="336.9,180.7 374.8,119.6 259.4,119.6 293.8,180.4 			"/>
			<path class="st0" d="M337.6,182.1l-44.6-0.3l-35.9-63.5h120.2L337.6,182.1z M294.6,179.1l41.5,0.3l36.2-58.4H261.8L294.6,179.1z"
				/>
		</g>
		<g>
			<polygon class="st9" points="312.5,221.9 374.8,121.8 413,176.1 384.5,221.9 			"/>
			<path class="st0" d="M385.2,223.3H310l64.7-103.9l39.9,56.7L385.2,223.3z M314.9,220.5h68.8l27.6-44.4l-36.4-51.8L314.9,220.5z"
				/>
		</g>
		<g>
			<polygon class="st10" points="472.4,533.5 657.8,221.9 307,221.9 336.9,275.3 589.8,275.3 457.1,506 			"/>
			<path class="st0" d="M472.4,536.2L455.6,506l0.4-0.7l131.5-228.7H336.1l-31.4-56.2h355.5L472.4,536.2z M458.7,506l13.8,24.7
				l183-307.5H309.4l28.3,50.7h254.5L458.7,506z"/>
		</g>
		<g>
			<polyline class="st10" points="414.3,433.4 476.4,323.7 359.5,320.5 340.9,288.2 566,288.2 448.9,491.3 			"/>
			<path class="st0" d="M448.9,492.7c-0.2,0-0.5-0.1-0.7-0.2c-0.7-0.4-0.9-1.2-0.5-1.9l115.9-201H343.3l17,29.6l118.5,3.3
				l-63.3,111.6c-0.4,0.7-1.2,0.9-1.9,0.5c-0.7-0.4-0.9-1.2-0.5-1.9l61-107.7l-115.5-3.2l-20.1-35h229.8l-1.2,2L450.1,492
				C449.8,492.4,449.4,492.7,448.9,492.7z"/>
		</g>
		<g>
			<polygon class="st9" points="296.5,429.2 328.8,494.1 449.9,492.9 413.1,435 			"/>
			<path class="st0" d="M328,495.5l-0.4-0.8l-33.3-65l119.6,2.8l38.5,61.8L328,495.5z M297.5,431.1l32.2,61.6l117.8-1.1l-35.1-55.3
				L297.5,431.1z"/>
		</g>
		<g>
			<polygon class="st11" points="194.4,379.6 105.8,526.7 124.1,526.1 214.1,380.2 			"/>
			<path class="st0" d="M103.4,528.2l90.4-150l22.7,0.6l-91.7,148.6L103.4,528.2z M195.1,381.1l-86.8,144l15-0.4l88.3-143.1
				L195.1,381.1z"/>
		</g>
		<g>
			<polygon class="st12" points="365.3,431.9 391.1,386.6 328.8,380.2 296.5,429.2 			"/>
			<path class="st0" d="M366.1,433.3l-72-3.5l34.1-51.5l65.2,7.2L366.1,433.3z M299,427.9l65.5,2.6l24.4-42.8l-59.4-6.2L299,427.9z"
				/>
		</g>
		<g>
			<polygon class="st13" points="556.3,25.2 593.8,85.6 504.3,221.6 427.2,221.9 			"/>
			<path class="st0" d="M424.6,223.3L556.3,22.7l39.1,62.9L505,223L424.6,223.3z M556.3,27.8L429.7,220.5l73.8-0.3l88.7-134.7
				L556.3,27.8z"/>
		</g>
		<g>
			<polygon class="st11" points="201.9,13.9 190.5,2.8 565.9,14.6 556.3,25.2 			"/>
			<path class="st0" d="M556.9,26.6h-0.6l-355-11.3l-14.3-14l381.8,12.1L556.9,26.6z M202.4,12.6l353.3,11.3l7.2-7.9l-369-11.7
				L202.4,12.6z"/>
		</g>
		<g>
			<polygon class="st6" points="18.8,312.5 2.5,310.3 189.4,2.2 201.9,14.2 			"/>
			<path class="st0" d="M19.5,313.9l-19.3-2.5L189.1,0.1l14.5,14L19.5,313.9z M4.8,309.2l13.3,1.7l182-296.4l-8.7-9.3L4.8,309.2z"/>
		</g>
		<g>
			<polygon class="st11" points="374.8,119.6 411.9,175 384.5,221.9 428.3,221.9 508.9,96.5 240.1,86.6 259.4,119.6 			"/>
			<path class="st0" d="M429,223.3h-48.3l28.9-48.2l-35.6-54H258.6l-21-35.8l273.7,10L429,223.3z M386.8,220.5h40.7l78.9-122.8
				l-263.9-9.6l17.7,30.1h115.3l38,56.7L386.8,220.5z"/>
		</g>
		<g>
			<polygon class="st7" points="657.8,223.5 682.8,293.7 509.5,598 472.4,533.5 			"/>
			<path class="st0" d="M509.5,600.7l-38.7-67.3l0.4-0.7l186.9-312.4l26,73.5l-0.3,0.5L509.5,600.7z M474,533.5l35.5,61.8
				l171.7-301.7l-23.7-66.8L474,533.5z"/>
		</g>
		<g>
			<polygon class="st11" points="593.8,85.6 598.2,74.9 563.8,16.8 556.3,25.2 			"/>
			<path class="st0" d="M594,88.5l-39.4-63.4l9.3-10.6l35.9,60.3L594,88.5z M558,25.4l35.6,57.2l3.4-11.1l-32.6-54.1L558,25.4z"/>
		</g>
		<g>
			<polygon class="st14" points="14,314.5 2.5,312.1 29.1,361 45.5,369.5 			"/>
			<path class="st0" d="M49,372.8l-20.9-10.9l-28.2-51.7l15,3L49,372.8z M30.1,359.9l11.9,6.2l-28.9-50.5l-8-1.6L30.1,359.9z"/>
		</g>
		<g>
			<polygon class="st10" points="418.2,386.6 391.1,432 414.3,433.4 440.8,386.6 			"/>
			<path class="st0" d="M415.1,434.8l-26.3-1.7l28.7-47.9h25.7L415.1,434.8z M393.4,430.7l20.1,1.3l24.9-44h-19.5L393.4,430.7z"/>
		</g>
		<g>
			<polygon class="st8" points="359.5,320.5 396.6,386.6 440.8,386.6 476.4,323.7 			"/>
			<path class="st0" d="M441.6,388h-45.8l-38.7-68.9l121.6,3.4L441.6,388z M397.4,385.3H440l34.1-60.3l-112.3-3.1L397.4,385.3z"/>
		</g>
		<g>
			<path class="st15" d="M476.4,323.7"/>
		</g>
		<g>
			<polygon class="st16" points="448.2,488 414.3,435.1 478.1,324.3 509.9,384.4 			"/>
			<path class="st0" d="M448.3,490.6l-35.6-55.5l65.4-113.7l33.4,63.1L448.3,490.6z M415.9,435l32.3,50.4l60.2-101L478,327.1
				L415.9,435z"/>
		</g>
		<g>
			<polygon class="st17" points="198.1,221.9 223.8,272.7 336.9,275.3 307,221.9 			"/>
			<path class="st0" d="M339.2,276.7L223,274l-26.2-52.6l111-0.9L339.2,276.7z M224.7,271.3l109.8,2.6l-28.3-50.6H200.3L224.7,271.3
				z"/>
		</g>
		<g>
			<polygon class="st18" points="244.5,318.3 264.9,287.1 343.6,288.2 364.9,320.5 			"/>
			<path class="st0" d="M367.5,321.9l-125.4-2.3l22.1-33.9l80.2,1.1L367.5,321.9z M247,317l115.3,2.1l-19.4-29.5l-77.3-1.1L247,317z
				"/>
		</g>
		<g>
			<polygon class="st11" points="186,528.3 115.2,527 213.9,379.6 281.2,382.9 			"/>
			<path class="st0" d="M186.7,529.7h-0.8l-73.3-1.3l1.4-2.1l99.1-148l70.5,3.4L186.7,529.7z M117.7,525.7l67.5,1.2l93.5-142.7
				l-64.2-3.1L117.7,525.7z"/>
		</g>
		<g>
			<polygon class="st0" points="456.2,505.5 245.5,502.2 259.2,487.6 446.6,489.1 			"/>
		</g>
		<g>
			<polygon class="st1" points="444.5,53.9 415.3,96.5 506.4,97.8 528.9,64 			"/>
		</g>
		<g>
			<polygon class="st10" points="511.6,212.4 661.2,214.6 691.2,292.4 684.9,299.1 682.8,293.6 656.3,223.9 504.3,221.6 			"/>
			<path class="st0" d="M684.4,301.7l-29.1-76.5l-153.8-2.3l9.5-11.9h0.7l150.5,2.2l30.6,79.4L684.4,301.7z M507.1,220.3l150.1,2.2
				l28.2,74.1l4.1-4.5L660.2,216l-147.9-2.2L507.1,220.3z"/>
		</g>
		<g>
			<polygon class="st19" points="105.7,528.3 117.3,528.3 148.9,592.8 499.6,596.5 509.9,593.9 511.1,592.8 511.1,606.2 
				142.7,601.9 			"/>
			<path class="st0" d="M512.5,607.6l-370.6-4.3l-38.5-76.4h14.7l31.7,64.5l349.7,3.7l9.8-2.5l3.3-2.9v17.9H512.5z M143.6,600.6
				l366.2,4.3v-9.5l-10.2,2.5l-351.5-3.8l-31.6-64.5h-8.6L143.6,600.6z"/>
		</g>
		<g>
			<polygon class="st14" points="16.6,314.8 49.3,374.9 402,386.6 364.9,320.5 			"/>
			<path class="st0" d="M404.4,388.1L48.5,376.3l-34.2-62.8l351.4,5.7L404.4,388.1z M50.1,373.6l349.5,11.6l-35.5-63.4l-345.2-5.6
				L50.1,373.6z"/>
		</g>
		<g>
			<polygon class="st20" points="364.9,320.5 390.8,288.2 343.6,288.2 			"/>
			<path class="st0" d="M364.8,322.8l-23.7-35.9h52.6L364.8,322.8z M346.2,289.6l18.9,28.6l23-28.6H346.2z"/>
		</g>
		<g>
			<polygon class="st21" points="435.1,322.1 455.6,289.3 388.1,288.2 364.9,320.5 			"/>
			<path class="st0" d="M435.8,323.5l-73.5-1.7l25.1-35l70.6,1.1L435.8,323.5z M367.5,319.2l66.8,1.5l18.8-30.1l-64.4-1L367.5,319.2
				z"/>
		</g>
		<g>
			<polygon class="st10" points="307,221.9 655.2,225.5 626,275.3 336.9,275.3 			"/>
			<path class="st0" d="M626.8,276.7H336.1l-31.4-56.2l352.8,3.7L626.8,276.7z M337.7,273.9h287.6l27.5-47.1l-343.4-3.6L337.7,273.9
				z"/>
		</g>
		<g>
			<polygon class="st10" points="512.5,590.9 682.9,293.5 690.4,293.6 512.5,605.9 			"/>
			<path class="st0" d="M511.1,611v-20.5l0.2-0.3l170.8-298.1h10.6l-1.2,2L511.1,611z M513.9,591.3v9.5L688.1,295h-4.4L513.9,591.3z
				"/>
		</g>
		<g>
			<polygon class="st22" points="472.4,533.5 455.6,503.3 589.8,275.3 626,275.3 			"/>
			<path class="st0" d="M472.4,536.2l-18.3-32.9l0.4-0.7l134.6-228.7h39.4L472.4,536.2z M457.2,503.3l15.2,27.4l151.2-254h-33
				L457.2,503.3z"/>
		</g>
		<g>
			<polygon class="st9" points="315.1,180.6 295.1,211.3 317.1,212.6 336.9,180.7 			"/>
			<path class="st0" d="M317.8,214l-25.1-1.5l21.7-33.3l25,0.2L317.8,214z M297.5,210.1l18.8,1.1l18.1-29.1l-18.6-0.1L297.5,210.1z"
				/>
		</g>
		<g>
			<polygon class="st17" points="272.3,213.5 317.1,214.5 312.5,221.3 267.5,220.5 			"/>
			<path class="st0" d="M313.2,222.7l-48.5-0.9l6.8-9.7l48.1,1L313.2,222.7z M270,219.2l41.7,0.8l2.8-4.2l-41.6-0.9L270,219.2z"/>
		</g>
		<g>
			<path class="st23" d="M150.9,107.1"/>
		</g>
	</g>
	<g>
		<path class="st8" d="M104.5,825.5c1.1,15.5,5.5,26.1,18.4,26.1c12.6,0,16.6-8.5,16.6-19.2c0-13-6.6-20.7-28.7-32.1
			c-32.7-16.9-45.1-31.2-45.1-58.9c0-32.2,19.7-53.4,57-53.4c43.9,0,56.5,27.4,56.8,56.4h-41.6c-0.7-13.1-3.1-24.4-15.4-24.4
			c-9.6,0-13.9,6.2-13.9,16.8c0,10.8,4.2,16.4,24.7,26.6c34.9,17.6,49.8,32.5,49.8,64.1c0,31.1-18.2,56-60.5,56
			c-45.8,0-59.8-26.1-60.7-58.1h42.6V825.5z"/>
		<path class="st8" d="M210.3,691.6h61.8c32.7,0,56.2,18.1,56.2,57.1c0,39.4-21.1,57.8-58.1,57.8h-16.9v73.6h-43V691.6z
			 M253.3,773.4h11.2c14.9,0,20.6-7.3,20.6-25c0-17.5-7.5-24.2-19.7-24.2h-12.1V773.4z"/>
		<path class="st8" d="M354,691.6h53.8c49.2,0,69.3,27.9,69.3,90.6c0,66.8-19.8,97.8-70.8,97.8h-52.3L354,691.6L354,691.6z
			 M397.5,847.2h8c20.1,0,26.1-14.2,26.1-65.6c0-43-5.3-56.7-25.8-56.7h-8.3L397.5,847.2L397.5,847.2z"/>
		<path class="st8" d="M506.9,691.6h42.3v78.6c9.1-19.2,27.3-57.4,38.4-78.6h47.9l-42.4,73.8l43.2,114.7h-47.2l-26.6-77.4L549.2,823
			v57.1h-42.3V691.6z"/>
	</g>
</g>
</svg>
