<?xml version="1.0" encoding="utf-8"?>
<!-- Generator: Adobe Illustrator 25.3.1, SVG Export Plug-In . SVG Version: 6.00 Build 0)  -->
<svg version="1.1" id="Layer_1" xmlns="http://www.w3.org/2000/svg" xmlns:xlink="http://www.w3.org/1999/xlink" x="0px" y="0px"
	 viewBox="0 0 999.2 884.1" style="enable-background:new 0 0 999.2 884.1;" xml:space="preserve">
<style type="text/css">
	.st0{fill:#FFFFFF;}
	.st1{fill:#5479BC;}
	.st2{fill:#6F93CC;}
	.st3{fill:none;}
	.st4{fill:#2B497D;}
	.st5{fill:#89C762;}
	.st6{fill:#8AC762;}
	.st7{fill:#57863C;}
	.st8{fill:#010101;}
	.st9{fill:#567BBE;}
	.st10{fill:#78B350;}
	.st11{fill:#6589C6;}
	.st12{fill:#355998;}
	.st13{fill:#375B9C;}
	.st14{fill:#486D33;}
	.st15{fill:#78B350;stroke:#FFFFFF;stroke-width:3.5086;stroke-linecap:round;stroke-miterlimit:10;}
	.st16{fill:#7CB953;}
	.st17{fill:#7AAE55;}
	.st18{fill:#8BC681;}
	.st19{fill:#4A72B8;}
	.st20{fill:#7DBB6F;}
	.st21{fill:#75AF67;}
	.st22{fill:#85C25B;}
	.st23{fill:#7AAE55;stroke:#FFFFFF;stroke-width:3.5086;stroke-linecap:round;stroke-miterlimit:10;}
</style>
<g>
	<g>
		<polygon class="st0" points="358.7,133.8 291.6,13.1 290.7,23.7 349.9,131.4 		"/>
	</g>
	<g>
		<polygon class="st0" points="648.4,109.5 328.8,99 348.2,126 632.4,137.9 		"/>
	</g>
	<g>
		<polygon class="st0" points="333.5,85.2 144.5,409.6 188.4,407.9 359.5,121.2 		"/>
	</g>
	<g>
		<polygon class="st0" points="851.9,417.2 137.6,413.9 184,392.9 819.3,393.7 		"/>
	</g>
	<g>
		<polygon class="st0" points="851.1,396.5 652.1,739.7 646.6,707 821.7,400.7 		"/>
	</g>
	<g>
		<polygon class="st1" points="293.9,23.5 800.9,39.7 745.4,118.5 339.2,99.7 		"/>
	</g>
	<g>
		<polygon class="st2" points="309.5,549.1 167.9,759.8 269.5,761.7 680.5,769.1 597.1,625.5 428.1,619.4 474.4,549.1 406.1,549.1 
					"/>
	</g>
	<g>
		<line class="st3" x1="269.5" y1="761.7" x2="406.1" y2="549.1"/>
		<path class="st0" d="M269.5,763.5c-0.4,0-0.7-0.1-1-0.3c-0.9-0.6-1.1-1.7-0.6-2.7L404.5,548c0.6-0.9,1.9-1.1,2.7-0.6
			s1.1,1.9,0.6,2.7L271.2,762.7C270.8,763.2,270.2,763.5,269.5,763.5z"/>
	</g>
	<g>
		<polygon class="st4" points="167.9,759.8 217.4,854.7 733.7,861.7 680.5,769.1 		"/>
		<path class="st0" d="M737.2,863.7l-520.9-7l-0.6-1l-51.1-97.9h3.3l513.8,9.3l0.6,1L737.2,863.7z M218.7,852.8l511.7,6.9L679.5,771
			l-508.2-9.2L218.7,852.8z"/>
	</g>
	<g>
		<polygon class="st5" points="291.6,25.2 26.4,455.3 518.5,463.5 491.8,417.1 374.8,415.5 144.5,412.5 336.9,100.8 		"/>
	</g>
	<g>
		<polygon class="st6" points="346.7,127.8 374.8,175.2 286.9,322 380.7,325.1 443.1,325.8 486,398.6 188.5,391.7 		"/>
		<path class="st0" d="M489.5,400.6l-304.4-7.2l1.7-2.9l159.9-266.5l30.4,51.1l-86.8,144.9l90.6,3l63.4,0.9L489.5,400.6z
			 M191.8,389.8l290.6,6.7L442,327.8l-61.3-0.7l-95.6-5.5L373,175l-26.3-43.2L191.8,389.8z"/>
	</g>
	<g>
		<polygon class="st7" points="424.2,262.4 383.1,325.1 287.6,322.2 374.8,175.2 		"/>
		<path class="st0" d="M384.1,327.1l-98.7-4.6L375,171.3l51.5,91.3L384.1,327.1z M290.3,320.1l91.8,0.1l39.9-57.8L375,179.2
			L290.3,320.1z"/>
	</g>
	<g>
		<polygon class="st8" points="486,262.8 540.4,175.2 374.8,175.2 424.2,262.4 		"/>
		<path class="st0" d="M487,264.8l-64-0.4l-51.5-91.1H544L487,264.8z M425.3,260.5l59.6,0.4l51.9-83.8H378.3L425.3,260.5z"/>
	</g>
	<g>
		<polygon class="st9" points="451,322 540.4,178.3 595.2,256.2 554.3,322 		"/>
		<path class="st0" d="M555.4,324H447.4l92.8-149.1l57.3,81.4L555.4,324z M454.5,319.9h98.7l39.6-63.7l-52.2-74.3L454.5,319.9z"/>
	</g>
	<g>
		<polygon class="st10" points="680.5,769.1 946.6,322 443.1,322 486,398.6 849,398.6 658.5,729.7 		"/>
		<path class="st0" d="M680.5,773l-24.1-43.3l0.6-1l188.7-328.2H484.9l-45.1-80.7H950L680.5,773z M660.8,729.7l19.8,35.4
			l262.6-441.3H446.6l40.6,72.8h365.2L660.8,729.7z"/>
	</g>
	<g>
		<polyline class="st10" points="597.1,625.5 686.2,468 518.5,463.5 491.8,417.1 814.8,417.1 646.8,708.6 		"/>
		<path class="st0" d="M646.8,710.6c-0.3,0-0.7-0.1-1-0.3c-1-0.6-1.3-1.7-0.7-2.7l166.3-288.4H495.2l24.4,42.5l170.1,4.7
			l-90.8,160.2c-0.6,1-1.7,1.3-2.7,0.7c-1-0.6-1.3-1.7-0.7-2.7l87.5-154.6l-165.8-4.6l-28.8-50.2h329.8l-1.7,2.9L648.5,709.6
			C648.1,710.1,647.5,710.6,646.8,710.6z"/>
	</g>
	<g>
		<polygon class="st9" points="428.1,619.4 474.4,712.6 648.2,710.9 595.4,627.8 		"/>
		<path class="st0" d="M473.3,714.6l-0.6-1.1l-47.8-93.3l171.6,4l55.3,88.7L473.3,714.6z M429.5,622.2l46.2,88.4l169.1-1.6
			l-50.4-79.4L429.5,622.2z"/>
	</g>
	<g>
		<polygon class="st11" points="281.5,548.4 154.4,759.4 180.6,758.5 309.7,549.3 		"/>
		<path class="st0" d="M150.9,761.5l129.7-215.3l32.6,0.9L181.5,760.5L150.9,761.5z M282.5,550.5L157.9,757.2l21.6-0.6l126.7-205.3
			L282.5,550.5z"/>
	</g>
	<g>
		<polygon class="st12" points="526.8,623.3 563.8,558.3 474.4,549.1 428.1,619.4 		"/>
		<path class="st0" d="M527.9,625.3l-103.3-5l48.9-73.9l93.6,10.3L527.9,625.3z M431.6,617.6l94,3.7l35-61.4l-85.2-8.9L431.6,617.6z
			"/>
	</g>
	<g>
		<polygon class="st13" points="800.9,39.7 854.7,126.4 726.3,321.5 615.6,322 		"/>
		<path class="st0" d="M611.9,324l189-287.9l56.1,90.3L727.3,323.5L611.9,324z M800.9,43.4L619.2,319.9l105.9-0.4l127.3-193.3
			L800.9,43.4z"/>
	</g>
	<g>
		<polygon class="st11" points="292.3,23.5 275.9,7.5 814.7,24.5 800.9,39.7 		"/>
		<path class="st0" d="M801.8,41.7h-0.9L291.4,25.5L270.9,5.4l547.9,17.4L801.8,41.7z M293,21.6l507,16.2l10.3-11.3L280.8,9.7
			L293,21.6z"/>
	</g>
	<g>
		<polygon class="st6" points="29.5,452 6.2,448.9 274.4,6.8 292.3,24 		"/>
		<path class="st0" d="M30.5,454.1l-27.7-3.5L273.9,3.7l20.8,20L30.5,454.1z M9.5,447.3l19.1,2.5L289.7,24.4L277.2,11L9.5,447.3z"/>
	</g>
	<g>
		<polygon class="st11" points="540.4,175.2 593.7,254.7 554.3,322 617.2,322 732.9,142 347.1,127.8 374.8,175.2 		"/>
		<path class="st0" d="M618.2,324h-69.3l41.5-69.2l-51.1-77.5H373.7l-30.1-51.4l392.8,14.4L618.2,324z M557.6,319.9h58.4
			l113.2-176.2l-378.7-13.8l25.4,43.2h165.5l54.5,81.4L557.6,319.9z"/>
	</g>
	<g>
		<polygon class="st7" points="946.6,324.3 982.3,425 733.7,861.7 680.5,769.1 		"/>
		<path class="st0" d="M733.7,865.6L678.2,769l0.6-1L947,319.7l37.3,105.5l-0.4,0.7L733.7,865.6z M682.8,769.1l50.9,88.7l246.4-433
			l-34-95.9L682.8,769.1z"/>
	</g>
	<g>
		<polygon class="st11" points="854.7,126.4 861,111 811.5,27.6 800.9,39.7 		"/>
		<path class="st0" d="M855,130.5l-56.5-91l13.3-15.2l51.5,86.5L855,130.5z M803.3,40l51.1,82.1l4.9-15.9l-46.8-77.6L803.3,40z"/>
	</g>
	<g>
		<polygon class="st14" points="22.7,454.8 6.2,451.4 44.3,521.6 67.9,533.8 		"/>
		<path class="st0" d="M72.9,538.5l-30-15.6L2.4,448.7l21.5,4.3L72.9,538.5z M45.8,520l17.1,8.9l-41.5-72.5l-11.5-2.3L45.8,520z"/>
	</g>
	<g>
		<polygon class="st10" points="602.7,558.3 563.8,623.5 597.1,625.5 635.1,558.3 		"/>
		<path class="st0" d="M598.3,627.5l-37.7-2.4l41.2-68.7h36.9L598.3,627.5z M567.1,621.6l28.8,1.9l35.7-63.1h-28L567.1,621.6z"/>
	</g>
	<g>
		<polygon class="st8" points="518.5,463.5 571.7,558.3 635.1,558.3 686.2,468 		"/>
		<path class="st0" d="M636.3,560.3h-65.7L515,461.4l174.5,4.9L636.3,560.3z M572.9,556.4H634l48.9-86.5l-161.2-4.4L572.9,556.4z"/>
	</g>
	<g>
		<path class="st15" d="M686.2,468"/>
	</g>
	<g>
		<polygon class="st16" points="645.8,703.8 597.1,627.9 688.7,468.9 734.3,555.2 		"/>
		<path class="st0" d="M645.9,707.6l-51.1-79.6l93.9-163.2l47.9,90.6L645.9,707.6z M599.4,627.8l46.4,72.3l86.4-144.9l-43.6-82.2
			L599.4,627.8z"/>
	</g>
	<g>
		<polygon class="st17" points="286.9,322 323.7,394.9 486,398.6 443.1,322 		"/>
		<path class="st0" d="M489.3,400.6l-166.8-3.9L285,321.2l159.3-1.3L489.3,400.6z M325,392.8l157.6,3.7L442,324H290L325,392.8z"/>
	</g>
	<g>
		<polygon class="st18" points="353.4,460.3 382.7,415.5 495.7,417.1 526.2,463.5 		"/>
		<path class="st0" d="M530,465.5l-180-3.3l31.7-48.6l115.1,1.6L530,465.5z M357,458.4l165.5,3l-27.8-42.3l-110.9-1.6L357,458.4z"/>
	</g>
	<g>
		<polygon class="st11" points="269.5,761.7 167.9,759.8 309.5,548.3 406.1,553 		"/>
		<path class="st0" d="M270.5,763.7h-1.1l-105.2-1.9l2-3l142.2-212.4l101.2,4.9L270.5,763.7z M171.5,757.9l96.9,1.7l134.2-204.8
			l-92.1-4.4L171.5,757.9z"/>
	</g>
	<g>
		<polygon class="st0" points="657.2,728.9 354.9,724.2 374.5,703.3 643.5,705.4 		"/>
	</g>
	<g>
		<polygon class="st1" points="640.5,80.9 598.5,142 729.3,143.9 761.6,95.4 		"/>
	</g>
	<g>
		<polygon class="st10" points="736.7,308.3 951.3,311.5 994.3,423.1 985.4,432.7 982.4,424.9 944.4,324.8 726.3,321.5 		"/>
		<path class="st0" d="M984.7,436.5L943,326.7l-220.7-3.3l13.6-17.1h1l216,3.2l43.9,113.9L984.7,436.5z M730.3,319.7l215.4,3.2
			l40.5,106.3l5.9-6.5l-42-109.2l-212.2-3.2L730.3,319.7z"/>
	</g>
	<g>
		<polygon class="st19" points="154.3,761.7 170.9,761.7 216.2,854.2 719.5,859.5 734.3,855.8 736,854.2 736,873.5 207.3,867.3 		
			"/>
		<path class="st0" d="M738,875.5l-531.8-6.2L151,759.7H172l45.5,92.6l501.8,5.3l14.1-3.6l4.7-4.2v25.7H738z M208.6,865.4l525.5,6.2
			V858l-14.6,3.6l-504.4-5.5l-45.3-92.6h-12.3L208.6,865.4z"/>
	</g>
	<g>
		<polygon class="st14" points="26.4,455.3 73.3,541.5 579.5,558.3 526.2,463.5 		"/>
		<path class="st0" d="M582.9,560.5L72.2,543.5l-49.1-90.1l504.3,8.2L582.9,560.5z M74.5,539.7L576,556.3l-50.9-91l-495.4-8
			L74.5,539.7z"/>
	</g>
	<g>
		<polygon class="st20" points="526.2,463.5 563.4,417.1 495.7,417.1 		"/>
		<path class="st0" d="M526.1,466.8l-34-51.5h75.5L526.1,466.8z M499.4,419.1l27.1,41l33-41H499.4z"/>
	</g>
	<g>
		<polygon class="st21" points="627,465.8 656.4,418.7 559.5,417.1 526.2,463.5 		"/>
		<path class="st0" d="M628,467.8l-105.5-2.4l36-50.2l101.3,1.6L628,467.8z M530,461.6l95.9,2.2l27-43.2l-92.4-1.4L530,461.6z"/>
	</g>
	<g>
		<polygon class="st10" points="443.1,322 942.8,327.1 900.9,398.6 486,398.6 		"/>
		<path class="st0" d="M902.1,400.6H484.9l-45.1-80.7l506.3,5.3L902.1,400.6z M487.2,396.6h412.7l39.5-67.6l-492.8-5.2L487.2,396.6z
			"/>
	</g>
	<g>
		<polygon class="st10" points="738,851.6 982.5,424.8 993.2,425 738,873.2 		"/>
		<path class="st0" d="M736,880.4v-29.4l0.3-0.4l245.1-427.8h15.2l-1.7,2.9L736,880.4z M740,852.2v13.7l250-438.9h-6.3L740,852.2z"
			/>
	</g>
	<g>
		<polygon class="st22" points="680.5,769.1 656.4,725.8 849,398.6 900.9,398.6 		"/>
		<path class="st0" d="M680.5,773l-26.3-47.2l0.6-1L848,396.6h56.5L680.5,773z M658.7,725.8l21.8,39.3l217-364.5h-47.4L658.7,725.8z
			"/>
	</g>
	<g>
		<polygon class="st9" points="454.8,262.7 426.1,306.7 457.6,308.6 486,262.8 		"/>
		<path class="st0" d="M458.6,310.6l-36-2.2l31.1-47.8l35.9,0.3L458.6,310.6z M429.5,305l27,1.6l26-41.8l-26.7-0.1L429.5,305z"/>
	</g>
	<g>
		<polygon class="st17" points="393.3,309.9 457.6,311.3 451,321.1 386.4,319.9 		"/>
		<path class="st0" d="M452,323.1l-69.6-1.3l9.8-13.9l69,1.4L452,323.1z M390,318.1l59.8,1.1l4-6l-59.7-1.3L390,318.1z"/>
	</g>
	<g>
		<path class="st23" d="M219.1,157.2"/>
	</g>
</g>
</svg>
